<?xml version="1.0" encoding="UTF-8"?>
<svg width="213px" height="149px" viewBox="0 0 213 149" version="1.1" xmlns="http://www.w3.org/2000/svg" xmlns:xlink="http://www.w3.org/1999/xlink">
    <!-- Generator: Sketch 58 (84663) - https://sketch.com -->
    <title>Group</title>
    <desc>Created with Sketch.</desc>
    <g id="Page-1" stroke="none" stroke-width="1" fill="none" fill-rule="evenodd">
        <g id="Group">
            <path d="M135.47,127.541 C140.305,108.088 138.521,105.992 141.209,77.91 C143.702,51.874 141.237,36.084 149.522,36.761 C157.519,37.412 158.16,43.199 159.584,53.512 C163.082,78.845 140.457,113.783 135.47,127.541 Z" id="Path" fill="#835D40" fill-rule="nonzero"></path>
            <ellipse id="Oval" fill="#835D40" fill-rule="nonzero" transform="translate(110.171415, 103.944620) rotate(-77.332612) translate(-110.171415, -103.944620) " cx="110.171415" cy="103.94462" rx="29.7732352" ry="46.8079419"></ellipse>
            <path d="M116.678,74.874 C111.845,73.787 107.081,73.223 102.51,73.125 C101.428,74.401 100.579,75.833 100.019,77.419 C96.213,88.186 106.851,101.763 123.778,107.746 C136.291,112.169 148.732,111.197 155.909,106.043 C153.324,92.572 137.669,79.591 116.678,74.874 Z" id="Path" fill="#F3E8D3" fill-rule="nonzero"></path>
            <g transform="translate(92.000000, 61.000000)" fill-rule="nonzero">
                <ellipse id="Oval" fill="#936A4F" transform="translate(25.075436, 23.770701) rotate(128.381524) translate(-25.075436, -23.770701) " cx="25.0754362" cy="23.770701" rx="13.1851056" ry="20.730166"></ellipse>
                <path d="M16.879,34.133 C15.158,32.771 13.638,31.287 12.332,29.739 C12.471,29.012 12.728,28.32 13.117,27.685 C15.765,23.377 23.403,23.26 30.177,27.425 C35.185,30.501 38.314,35.057 38.537,38.964 C33.179,41.825 24.349,40.049 16.879,34.133 Z" id="Path" fill="#F3E8D3"></path>
            </g>
            <path d="M111.11,79.997 C111.156,80.512 115.677,91.216 112.343,102.864 C109.01,114.512 104.246,122.666 107.897,125.668 C111.548,128.67 117.77,125.252 120.362,112.927 C122.953,100.602 125.361,88.119 120.643,79.6 C115.926,71.082 111.11,79.997 111.11,79.997 Z" id="Path" fill="#936A4F" fill-rule="nonzero"></path>
            <path d="M80.802,114.373 C80.802,114.373 76.527,93.415 79.019,67.378 C81.512,41.342 83.314,26.448 89.109,25.476 C94.904,24.502 99.497,29.938 99.245,40.344 C98.995,50.75 85.79,100.615 80.802,114.373 Z" id="Path" fill="#835D40" fill-rule="nonzero"></path>
            <g transform="translate(26.000000, 62.000000)">
                <circle id="Oval" fill="#835D40" fill-rule="nonzero" cx="33.261" cy="27.818" r="27.454"></circle>
                <g transform="translate(12.000000, 5.000000)">
                    <path d="M18.547,45.724 C18.892,45.766 39.363,47.88 43.843,32.778 C48.322,17.676 38.971,8.784 38.971,8.784 L18.547,45.724 Z" id="Path" fill="#835D40" fill-rule="nonzero"></path>
                    <path d="M14.125,1.519 C1.061,5.867 8.285,18.373 8.285,18.373 C8.285,18.373 -4.802,24.544 2.772,36.043 C8.803,45.197 30.431,55.855 41.626,27.811 C48.347,1.297 24.526,-1.942 14.125,1.519 Z" id="Path" fill="#F3E8D3" fill-rule="nonzero"></path>
                    <path d="M14.125,1.519 C1.061,5.867 8.285,18.373 8.285,18.373 C8.285,18.373 -4.802,24.544 2.772,36.043 C8.803,45.197 30.431,55.855 41.626,27.811 C48.347,1.297 24.526,-1.942 14.125,1.519 Z" id="Path" stroke="#A57B74" stroke-linejoin="round"></path>
                    <path d="M16.51,45.349 C20.311,46.254 24.442,46.114 28.431,44.203 C26.603,43.234 22.755,40.632 21.272,35.309 C19.297,28.218 14.989,23.208 9.942,26.735 C5.874,29.58 5.164,40.769 16.51,45.349 Z" id="Path" fill="#A57B74" fill-rule="nonzero"></path>
                    <path d="M14.816,12.668 C16.599,18.562 23.083,17.29 29.022,12.942 C34.369,9.027 39.958,10.288 41.02,10.579 C39.028,6.385 35.562,3.704 31.639,2.149 C19.796,-1.396 13.373,7.896 14.816,12.668 Z" id="Path" fill="#A57B74" fill-rule="nonzero"></path>
                    <path d="M11.148,38.655 C11.148,38.655 18.387,36.739 13.322,30.559 C13.322,30.56 15.452,35.723 11.148,38.655 Z" id="Path" fill="#896660" fill-rule="nonzero"></path>
                    <path d="M19.871,11.845 C19.871,11.845 27.109,9.928 22.044,3.748 C22.043,3.748 24.173,8.91 19.871,11.845 Z" id="Path" fill="#896660" fill-rule="nonzero"></path>
                    <ellipse id="Oval" fill="#F3E8D3" fill-rule="nonzero" transform="translate(29.864538, 25.433813) rotate(-70.889224) translate(-29.864538, -25.433813) " cx="29.8645377" cy="25.433813" rx="11.8121581" ry="8.58611492"></ellipse>
                    <path d="M27.576,35.26 C27.576,35.26 33.155,33.286 35.108,27.624 C37.511,20.651 33.844,17.169 33.844,17.169 C33.844,17.169 40.23,27.508 27.576,35.26 Z" id="Path" fill="#A57B74" fill-rule="nonzero"></path>
                    <circle id="Oval" fill="#A57B74" fill-rule="nonzero" cx="27.739" cy="35.06" r="1.01"></circle>
                    <circle id="Oval" fill="#A57B74" fill-rule="nonzero" cx="33.493" cy="17.047" r="1.01"></circle>
                    <ellipse id="Oval" fill="#A57B74" fill-rule="nonzero" transform="translate(26.558178, 24.762548) rotate(-70.889224) translate(-26.558178, -24.762548) " cx="26.558178" cy="24.7625476" rx="4.37705859" ry="2.12502844"></ellipse>
                    <ellipse id="Oval" fill="#896660" fill-rule="nonzero" transform="translate(25.861636, 26.536269) rotate(-70.894638) translate(-25.861636, -26.536269) " cx="25.8616363" cy="26.5362691" rx="1" ry="1"></ellipse>
                    <ellipse id="Oval" fill="#896660" fill-rule="nonzero" transform="translate(27.083209, 23.140601) rotate(-70.900052) translate(-27.083209, -23.140601) " cx="27.0832094" cy="23.1406007" rx="1" ry="1"></ellipse>
                    <path d="M30.344,34.498 C30.344,34.498 39.897,30.577 35.908,18.952 C35.908,18.952 41.704,30.119 30.344,34.498 Z" id="Path" fill="#F4EDED" fill-rule="nonzero"></path>
                    <path d="M3.972,33.822 C3.972,33.822 2.78,28.87 6.335,27.005 C6.335,27.005 1.189,28.358 3.972,33.822 Z" id="Path" fill="#896660" fill-rule="nonzero"></path>
                    <path d="M11.993,12.433 C11.993,12.433 10.801,7.481 14.355,5.61599945 C14.355,5.615 9.208,6.968 11.993,12.433 Z" id="Path" fill="#896660" fill-rule="nonzero"></path>
                </g>
                <path d="M5.868,25.926 C5.868,25.926 2.238,29.605 3.518,36.854 C3.518,36.854 -0.399,26.715 6.962,19.943 C6.962,19.943 2.781,20.221 0.696,24.048 C0.696,24.048 2.085,19.104 6.937,17.919 C6.937,17.919 2.426,11.864 9.267,2.752 C9.267,2.752 6.758,6.541 8.224,12.79 C8.224,12.79 8.032,6.319 17.096,2.046 C17.096,2.046 11.087,5.008 10.89,13.389 C10.694,21.771 5.868,25.926 5.868,25.926 Z" id="Path" fill="#835D40" fill-rule="nonzero"></path>
            </g>
            <g transform="translate(84.000000, 50.000000)">
                <circle id="Oval" fill="#936A4F" fill-rule="nonzero" cx="15.941" cy="19.093" r="15.014"></circle>
                <g transform="translate(3.000000, 7.000000)">
                    <path d="M3.288,20.212 C3.41,20.359 10.783,28.861 18.221,24.514 C25.658,20.167 25.256,13.12 25.256,13.12 L3.288,20.212 Z" id="Path" fill="#835D40" fill-rule="nonzero"></path>
                    <path d="M18.063,0.928 C11.226,-2.226 9.428,5.465 9.428,5.465 C9.428,5.465 1.899,3.029 0.618,10.449 C-0.402,16.357 4.237,28.699 19.194,21.703 C31.795,13.644 23.507,3.438 18.063,0.928 Z" id="Path" fill="#F3E8D3" fill-rule="nonzero"></path>
                    <path d="M18.063,0.928 C11.226,-2.226 9.428,5.465 9.428,5.465 C9.428,5.465 1.899,3.029 0.618,10.449 C-0.402,16.357 4.237,28.699 19.194,21.703 C31.795,13.644 23.507,3.438 18.063,0.928 Z" id="Path" stroke="#A57B74" stroke-linejoin="round"></path>
                    <path d="M2.616,19.301 C3.793,21.084 5.493,22.573 7.8,23.304 C7.433,22.234 6.873,19.756 8.272,17.078 C10.138,13.511 10.294,9.901 6.961,9.42 C4.273,9.032 -0.196,13.229 2.616,19.301 Z" id="Path" fill="#A57B74" fill-rule="nonzero"></path>
                    <path d="M14.167,5.632 C12.673,8.651 15.735,10.57 19.73,11.058 C23.328,11.496 25.085,14.09 25.399,14.604 C26.174,12.186 25.795,9.82 24.812,7.732 C21.417,1.888 15.377,3.189 14.167,5.632 Z" id="Path" fill="#A57B74" fill-rule="nonzero"></path>
                    <path d="M2.982,14.625 C2.982,14.625 6.586,16.569 6.878,12.21 C6.878,12.21 5.795,15.065 2.982,14.625 Z" id="Path" fill="#896660" fill-rule="nonzero"></path>
                    <path d="M16.492,7.196 C16.492,7.196 20.096,9.138 20.388,4.779 C20.388,4.779 19.305,7.635 16.492,7.196 Z" id="Path" fill="#896660" fill-rule="nonzero"></path>
                    <ellipse id="Oval" fill="#F3E8D3" fill-rule="nonzero" transform="translate(15.415044, 16.332684) rotate(-27.723316) translate(-15.415044, -16.332684) " cx="15.4150444" cy="16.3326836" rx="6.45996796" ry="4.69497671"></ellipse>
                    <path d="M10.804,19.417 C10.804,19.417 13.767,20.718 16.665,19.189 C20.232,17.308 20.073,14.547 20.073,14.547 C20.073,14.547 18.751,21.061 10.804,19.417 Z" id="Path" fill="#A57B74" fill-rule="nonzero"></path>
                    <circle id="Oval" fill="#A57B74" fill-rule="nonzero" cx="10.944" cy="19.398" r="1"></circle>
                    <circle id="Oval" fill="#A57B74" fill-rule="nonzero" cx="19.978" cy="14.368" r="1"></circle>
                    <ellipse id="Oval" fill="#A57B74" fill-rule="nonzero" transform="translate(14.338975, 14.829035) rotate(-27.710507) translate(-14.338975, -14.829035) " cx="14.3389754" cy="14.829035" rx="2.39297737" ry="1.16198901"></ellipse>
                    <ellipse id="Oval" fill="#896660" fill-rule="nonzero" transform="translate(13.374078, 15.313166) rotate(-27.748934) translate(-13.374078, -15.313166) " cx="13.374078" cy="15.3131658" rx="1" ry="1"></ellipse>
                    <ellipse id="Oval" fill="#896660" fill-rule="nonzero" transform="translate(15.162286, 14.439932) rotate(-27.643800) translate(-15.162286, -14.439932) " cx="15.1622858" cy="14.4399323" rx="1" ry="1"></ellipse>
                    <path d="M12.193,20.148 C12.193,20.148 17.47,22.16 20.229,16.03 C20.229,16.03 18.363,22.653 12.193,20.148 Z" id="Path" fill="#F4EDED" fill-rule="nonzero"></path>
                    <path d="M1.928,10.013 C1.928,10.013 3.304,7.592 5.421,8.178 C5.421,8.178 2.862,6.792 1.928,10.013 Z" id="Path" fill="#896660" fill-rule="nonzero"></path>
                    <path d="M13.129,4.482 C13.129,4.482 14.507,2.061 16.623,2.646 C16.623,2.646 14.063,1.261 13.129,4.482 Z" id="Path" fill="#896660" fill-rule="nonzero"></path>
                </g>
                <path d="M5.723,8.089 C5.723,8.089 2.899,8.197 0.698,11.568 C0.698,11.568 2.929,6.058 8.399,6.112 C8.399,6.112 6.627,4.659 4.364,5.405 C4.364,5.405 6.768,3.952 9.146,5.296 C9.146,5.296 9.612,1.192 15.75,0.118 C15.75,0.118 13.332,0.69 11.579,3.731 C11.579,3.731 13.923,1.079 19.137,2.765 C19.137,2.765 15.632,1.699 12.418,4.967 C9.202,8.236 5.723,8.089 5.723,8.089 Z" id="Path" fill="#936A4F" fill-rule="nonzero"></path>
            </g>
            <path d="M213,67 C180.721727,61.514 2.72569914,26.4243983 0.366,21.705 C0.366,21.705 1.388,15.156 21.33,17.92 C41.272,20.684 61.214,24.343 61.214,24.343 L53.033,4.334 C53.033,4.334 54.567,-1.96 58.658,1.18 C62.749,4.321 84.166,28.745 84.166,28.745 L201.178124,50.6318095 L213,67 Z" id="Path" fill="#B18C79" fill-rule="nonzero"></path>
            <g transform="translate(145.000000, 41.000000)" fill="#FCFAFB" fill-rule="nonzero" id="Path">
                <path d="M2.802,1.166 C2.802,1.166 1.867,0.454 0.676,3.061 C-0.516,5.666 -0.156,12.636 2.676,16.779 C2.676,16.779 2.413,11.127 2.917,7.583 C3.421,4.036 3.308,1.229 2.802,1.166 Z"></path>
                <path d="M6.349,1.051 C6.349,1.051 4.786,0.558 4.553,2.82 C4.321,5.08 5.455,12.013 5.673,15.511 C5.891,19.007 6.138,20.542 6.138,20.542 C6.138,20.542 7.376,18.493 7.82,12.688 C8.267,6.88 7.983,1.21 6.349,1.051 Z"></path>
                <path d="M10.341,0.544 C10.341,0.544 8.644,0.3 8.821,4.094 C8.998,7.887 11.607,16.413 11.534,17.695 C11.534,17.695 12.684,13.913 12.498,9.104 C12.311,4.295 11.716,0.822 10.341,0.544 Z"></path>
            </g>
            <path d="M122.881,28.7226876 C122.881,28.7226876 131.184,28.535 131.502,37.383 C131.82,46.231 115.002,112.585 91.238,120.87 C91.238,120.87 85.106,119.264 86.756,111.398 C88.405,103.534 104.305,82.31 109.224,66.653 C114.141,50.999 114.294,30.604 122.881,28.7226876 Z" id="Path" fill="#835D40" fill-rule="nonzero"></path>
            <g transform="translate(84.000000, 28.000000)" fill="#FCFAFB" fill-rule="nonzero" id="Path">
                <path d="M3.464,0.999 C3.464,0.999 2.53,0.287 1.338,2.893 C0.147,5.5 0.507,12.468 3.339,16.612 C3.339,16.612 3.075,10.959 3.58,7.415 C4.085,3.871 3.971,1.062 3.464,0.999 Z"></path>
                <path d="M7.011,0.884 C7.011,0.884 5.448,0.391 5.215,2.652 C4.984,4.912 6.117,11.845 6.335,15.344 C6.553,18.841 6.8,20.374 6.8,20.374 C6.8,20.374 8.038,18.327 8.483,12.52 C8.93,6.713 8.645,1.042 7.011,0.884 Z"></path>
                <path d="M11.003,0.376 C11.003,0.376 9.306,0.133 9.483,3.926 C9.661,7.719 12.269,16.246 12.196,17.527 C12.196,17.527 13.346,13.745 13.16,8.937 C12.973,4.127 12.379,0.654 11.003,0.376 Z"></path>
            </g>
            <path d="M129.659,133.854 C129.659,133.854 157.286,130.518 167.172,107.679 C177.058,84.839 178.227,40.279 167.172,41.298 C156.117,42.318 158.991,52.727 158.991,68.36 C158.991,83.993 155.81,104.024 141.208,114.373 C126.607,124.724 124.618,134.909 129.659,133.854 Z" id="Path" fill="#835D40" fill-rule="nonzero"></path>
            <path d="M134.99,88.957 C134.99,88.957 139.36,99.007 137.397,112.891 C135.434,126.775 135.176,139.852 129.089,140.014 C123.003,140.175 123.164,131.78 125.102,126.452 C127.039,121.125 130.627,100.861 128.026,93.719 C125.425,86.575 134.17,86.639 134.99,88.957 Z" id="Path" fill="#936A4F" fill-rule="nonzero"></path>
            <g transform="translate(125.000000, 134.000000)" fill="#FCFAFB" fill-rule="nonzero" id="Path">
                <path d="M1.949,1.242 C1.949,1.242 1.302,0.749 0.476,2.554 C-0.35,4.36 -0.101,9.188 1.861,12.057 C1.861,12.057 1.679,8.142 2.028,5.688 C2.377,3.23 2.299,1.286 1.949,1.242 Z"></path>
                <path d="M4.406,1.163 C4.406,1.163 3.323,0.821 3.162,2.388 C3,3.953 3.787,8.757 3.937,11.18 C4.088,13.601 4.259,14.664 4.259,14.664 C4.259,14.664 5.117,13.245 5.425,9.223 C5.734,5.201 5.537,1.273 4.406,1.163 Z"></path>
                <path d="M7.171,0.812 C7.171,0.812 5.996,0.643 6.118,3.271 C6.241,5.899 8.048,11.805 7.997,12.692 C7.997,12.692 8.794,10.072 8.664,6.742 C8.536,3.41 8.124,1.005 7.171,0.812 Z"></path>
            </g>
            <g transform="translate(104.000000, 119.000000)" fill="#FCFAFB" fill-rule="nonzero" id="Path">
                <path d="M6.525,0.557 C6.525,0.557 6.227,-0.201 4.586,0.915 C2.944,2.032 0.656,6.29 0.847,9.761 C0.847,9.761 2.72,6.319 4.29,4.399 C5.862,2.479 6.802,0.775 6.525,0.557 Z"></path>
                <path d="M8.668,1.763 C8.668,1.763 7.919,0.909 6.97,2.164 C6.021,3.42 4.204,7.935 3.078,10.086 C1.952,12.235 1.548,13.232 1.548,13.232 C1.548,13.232 3.017,12.463 5.364,9.183 C7.712,5.902 9.579,2.441 8.668,1.763 Z"></path>
                <path d="M11.215,2.894 C11.215,2.894 10.297,2.14 9.04,4.451 C7.784,6.763 6.269,12.751 5.766,13.483 C5.766,13.483 7.805,11.655 9.42,8.739 C11.036,5.823 11.93,3.552 11.215,2.894 Z"></path>
            </g>
        </g>
    </g>
</svg>