<?xml version="1.0" encoding="UTF-8"?>
<svg width="237px" height="229px" viewBox="0 0 237 229" version="1.1" xmlns="http://www.w3.org/2000/svg" xmlns:xlink="http://www.w3.org/1999/xlink">
    <!-- Generator: Sketch 58 (84663) - https://sketch.com -->
    <title>Group</title>
    <desc>Created with Sketch.</desc>
    <g id="Page-1" stroke="none" stroke-width="1" fill="none" fill-rule="evenodd">
        <g id="Group">
            <g transform="translate(127.000000, 0.000000)" fill="#FCFAFB" fill-rule="nonzero" id="Path">
                <path d="M9.937,17.597 C9.937,17.597 10.859,18.155 11.693,15.662 C12.528,13.171 11.526,6.849 8.543,3.344 C8.543,3.344 9.329,8.474 9.212,11.756 C9.095,15.038 9.469,17.587 9.937,17.597 Z"></path>
                <path d="M6.714,18.044 C6.714,18.044 8.186,18.342 8.18001829,16.257 C8.174,14.173 6.469,7.958 5.93,4.789 C5.394,1.621 5.021,0.246 5.021,0.246 C5.021,0.246 4.089,2.233 4.246,7.573 C4.4,12.912 5.208,18.059 6.714,18.044 Z"></path>
                <path d="M3.121,18.8950556 C3.121,18.8950556 4.692,18.951 4.164,15.508 C3.635,12.066 0.432,4.54 0.374,3.365 C0.374,3.365 -0.309,6.924 0.325,11.292 C0.961,15.663 1.84,18.772 3.121,18.8950556 Z"></path>
            </g>
            <path d="M97.921,80.685 C97.921,80.685 97.392,89.115 106.398,89.727 C115.405,90.341 137.369,63.127 140.587,36.704 C143.804,10.28 136.02,10.529 131.65,11.296 C127.28,12.061 129.275,23.776 126.424,38.156 C123.576,52.538 108.073,74.799 97.921,80.685 Z" id="Path" fill="#835D40" fill-rule="nonzero"></path>
            <g transform="translate(130.000000, 207.000000)" fill="#FCFAFB" fill-rule="nonzero" id="Path">
                <path d="M11.942,2.505 C11.942,2.505 12.997,1.922 13.818,4.744 C14.639,7.568 13.234,14.588 9.742,18.371 C9.742,18.371 10.852,12.673 10.869,9 C10.885,5.326 11.417,2.494 11.942,2.505 Z"></path>
                <path d="M8.358,1.86 C8.358,1.86 10.019,1.592 9.917,3.922 C9.816,6.25 7.63,13.121 6.887,16.638 C6.145,20.156 5.665,21.675 5.665,21.675 C5.665,21.675 4.713,19.412 5.128,13.452 C5.542,7.49 6.677,1.777 8.358,1.86 Z"></path>
                <path d="M4.383,0.749 C4.383,0.749 6.142,0.756 5.396,4.579 C4.649,8.404 0.731,16.669 0.614,17.981 C0.614,17.981 0.01,13.971 0.917,9.116 C1.824,4.263 2.945,0.826 4.383,0.749 Z"></path>
            </g>
            <g transform="translate(88.000000, 198.000000)" fill="#FCFAFB" fill-rule="nonzero" id="Path">
                <path d="M16.019,5 C16.019,5 17.207,4.801 17.044,7.736 C16.881,10.671 13.226,16.827 8.676,19.236 C8.676,19.236 11.615,14.23 12.85,10.771 C14.085,7.31 15.527,4.815 16.019,5 Z"></path>
                <path d="M12.852,3.201 C12.852,3.201 14.508,3.502 13.638,5.664 C12.771,7.827 8.428,13.582 6.559,16.653 C4.691,19.725 3.734,21 3.734,21 C3.734,21 3.588,18.549 5.957,13.065 C8.326,7.578 11.292,2.565 12.852,3.201 Z"></path>
                <path d="M9.47,0.833 C9.47,0.833 11.127,1.424 9.155,4.784 C7.181,8.142 0.741,14.64 0.196,15.836 C0.196,15.836 0.958,11.854 3.424,7.575 C5.889,3.299 8.087,0.43 9.47,0.833 Z"></path>
            </g>
            <path d="M134.303,168.207 C134.303,168.207 140.528,176.299 134.302,196.466 C128.077,216.634 133.521,218.979 141.117,218.041 C148.714,217.103 156.207,193.917 154.727,170.527 C153.249,147.136 134.303,168.207 134.303,168.207 Z" id="Path" fill="#835D40" fill-rule="nonzero"></path>
            <path d="M100.636,155.272 C100.636,155.272 107.177,170.669 99.805,183.334 C92.432,195.997 87.979,204.44 96.302,208.191 C104.626,211.944 119.107,204.007 120.779,163.653 C120.779,163.653 116.343,143.627 100.636,155.272 Z" id="Path" fill="#835D40" fill-rule="nonzero"></path>
            <g transform="translate(0.000000, 131.000000)" fill="#B18C79" fill-rule="nonzero" id="Path">
                <path d="M236.797,62.839 C236.797,62.839 5.802,11.11 2.359,9.01 C-1.084,6.91 -2.437,0.914 12.088,0.862951455 C26.612,0.813 236.797,39.404 236.797,39.404 L236.797,62.839 Z"></path>
                <path d="M224.454,44.854 C224.454,44.854 215.549,13.163 211.413,12.315 C207.277,11.467 199.22,4.981 201.054,10.307 C202.887,15.633 213.404,42.712 213.404,42.712 L224.454,44.854 Z"></path>
            </g>
            <ellipse id="Oval" fill="#835D40" fill-rule="nonzero" transform="translate(103.768586, 109.362173) rotate(-9.375660) translate(-103.768586, -109.362173) " cx="103.768586" cy="109.362173" rx="29.915743" ry="47.0320238"></ellipse>
            <path d="M133.316,104.482 C132.506,99.571 131.236,94.922 129.602,90.628 C128.005,90.102 126.352,89.85 124.664,89.925 C113.201,90.442 104.565,105.469 105.376,123.492 C105.975,136.814 111.571,148.035 119.077,152.777 C130.651,145.291 136.839,125.813 133.316,104.482 Z" id="Path" fill="#F3E8D3" fill-rule="nonzero"></path>
            <g transform="translate(71.000000, 25.000000)">
                <circle id="Oval" fill="#835D40" fill-rule="nonzero" cx="27.004" cy="32.217" r="26.941"></circle>
                <g transform="translate(4.000000, 13.000000)">
                    <path d="M45.542,21.336 C45.51,21.675 43.318,41.751 27.904,42.936 C12.493,44.118 5.887,33.311 5.887,33.311 L45.542,21.336 Z" id="Path" fill="#835D40" fill-rule="nonzero"></path>
                    <path d="M4.042,7.977 C10.908,-3.66 21.416,5.851 21.416,5.851 C21.416,5.851 30.036,-5.434 39.507,4.205 C47.045,11.878 52.811,34.826 23.596,39.784 C-3.228,40.765 -1.422,17.244 4.042,7.977 Z" id="Path" fill="#F3E8D3" fill-rule="nonzero"></path>
                    <path d="M4.042,7.977 C10.908,-3.66 21.416,5.851 21.416,5.851 C21.416,5.851 30.036,-5.434 39.507,4.205 C47.045,11.878 52.811,34.826 23.596,39.784 C-3.228,40.765 -1.422,17.244 4.042,7.977 Z" id="Path" stroke="#A57B74" stroke-linejoin="round"></path>
                    <path d="M45.602,19.304 C45.687,23.137 44.699,27.071 42.044,30.506 C41.489,28.551 39.787,24.322 34.986,21.801 C28.591,18.444 24.673,13.278 29.097,9.164 C32.665,5.847 43.548,7.472 45.602,19.304 Z" id="Path" fill="#A57B74" fill-rule="nonzero"></path>
                    <path d="M14.596,10.94 C19.882,13.865 17.326,19.824 11.929,24.625 C7.071,28.948 7.129,34.57 7.189,35.649 C3.576,32.872 1.719,28.993 1.036,24.909 C0.075,12.817 10.315,8.572 14.596,10.94 Z" id="Path" fill="#A57B74" fill-rule="nonzero"></path>
                    <path d="M40.285,12.779 C40.285,12.779 36.954,19.329 32.072,13.195 C32.072,13.195 36.583,16.303 40.285,12.779 Z" id="Path" fill="#896660" fill-rule="nonzero"></path>
                    <path d="M12.764,15.619 C12.764,15.619 9.431,22.167 4.546,16.034 C4.546,16.034 9.061,19.142 12.764,15.619 Z" id="Path" fill="#896660" fill-rule="nonzero"></path>
                    <ellipse id="Oval" fill="#F3E8D3" fill-rule="nonzero" transform="translate(23.712141, 28.001438) rotate(173.021380) translate(-23.712141, -28.001438) " cx="23.7121413" cy="28.0014377" rx="11.5920986" ry="8.42507165"></ellipse>
                    <path d="M33.639,27.839 C33.639,27.839 30.596,32.785 24.761,33.491 C17.575,34.36 14.99,30.124 14.99,30.124 C14.99,30.124 23.593,38.382 33.639,27.839 Z" id="Path" fill="#A57B74" fill-rule="nonzero"></path>
                    <circle id="Oval" fill="#A57B74" fill-rule="nonzero" cx="33.415" cy="27.955" r="1"></circle>
                    <circle id="Oval" fill="#A57B74" fill-rule="nonzero" cx="14.944" cy="29.761" r="1"></circle>
                    <ellipse id="Oval" fill="#A57B74" fill-rule="nonzero" transform="translate(23.789499, 24.659485) rotate(173.015693) translate(-23.789499, -24.659485) " cx="23.7894988" cy="24.6594848" rx="4.29508873" ry="2.08504308"></ellipse>
                    <ellipse id="Oval" fill="#896660" fill-rule="nonzero" transform="translate(25.665710, 24.398100) rotate(172.951739) translate(-25.665710, -24.398100) " cx="25.6657098" cy="24.3981001" rx="1" ry="1"></ellipse>
                    <ellipse id="Oval" fill="#896660" fill-rule="nonzero" transform="translate(22.119274, 24.898188) rotate(173.015693) translate(-22.119274, -24.898188) " cx="22.1192738" cy="24.8981884" rx="1" ry="1"></ellipse>
                    <path d="M32.338,30.338 C32.338,30.338 26.606,38.695 16.275,32.471 C16.275,32.471 25.793,40.334 32.338,30.338 Z" id="Path" fill="#F4EDED" fill-rule="nonzero"></path>
                    <path d="M37.128,4.898 C37.128,4.898 32.624,2.733 30.099,5.758 C30.099,5.758 32.461,1.101 37.128,4.898 Z" id="Path" fill="#896660" fill-rule="nonzero"></path>
                    <path d="M14.952,8.182 C14.952,8.182 10.447,6.016 7.923,9.042 C7.923,9.042 10.283,4.381 14.952,8.182 Z" id="Path" fill="#896660" fill-rule="nonzero"></path>
                </g>
                <path d="M30.839,5.542 C30.839,5.542 35.116,2.819 41.808,5.542 C41.808,5.542 32.888,-0.307 24.872,5.359 C24.872,5.359 26.002,1.406 30.103,0.195 C30.103,0.195 25.071,0.508 22.935,4.919 C22.935,4.919 18.057,-0.658 7.904,4.025 C7.904,4.025 12.056,2.4 17.749,5.096 C17.749,5.096 11.581,3.576 5.612,11.392 C5.612,11.392 9.692,6.235 17.775,7.776 C25.856,9.316 30.839,5.542 30.839,5.542 Z" id="Path" fill="#835D40" fill-rule="nonzero"></path>
            </g>
            <path d="M85.184,141.665 C85.184,141.665 94.511,161.323 119.631,157.54 C144.75,153.758 156.286,156.021 156.286,156.021 C156.286,156.021 157.976,148.304 146.545,141.665 C135.114,135.023 112.139,142.528 105.1,135.023 C98.06,127.52 86.377,133.296 85.184,141.665 Z" id="Path" fill="#835D40" fill-rule="nonzero"></path>
            <path d="M77.444,80.15 C76.951,81.372 66.167,97.502 60.07,127.52 C53.973,157.538 51.322,183.334 63.434,183.334 C75.547,183.334 76.358,166.309 75.718,152.777 C75.078,139.245 79.323,115.374 84.237,102.452 C89.149,89.529 77.444,80.15 77.444,80.15 Z" id="Path" fill="#835D40" fill-rule="nonzero"></path>
            <g transform="translate(56.000000, 172.000000)" fill="#FCFAFB" fill-rule="nonzero" id="Path">
                <path d="M12.145,2.626 C12.145,2.626 13.2,2.043 14.021,4.865 C14.842,7.689 13.436,14.709 9.944,18.492 C9.944,18.492 11.055,12.794 11.071,9.121 C11.088,5.448 11.622,2.615 12.145,2.626 Z"></path>
                <path d="M8.562,1.98 C8.562,1.98 10.223,1.713 10.121,4.042 C10.021,6.372 7.834,13.242 7.091,16.759 C6.35,20.277 5.869,21.796 5.869,21.796 C5.869,21.796 4.918,19.533 5.332,13.573 C5.746,7.612 6.88,1.898 8.562,1.98 Z"></path>
                <path d="M4.586,0.87 C4.586,0.87 6.345,0.876 5.6,4.7 C4.853,8.525 0.934,16.79 0.816,18.101 C0.816,18.101 0.213,14.092 1.119,9.237 C2.026,4.384 3.147,0.948 4.586,0.87 Z"></path>
            </g>
        </g>
    </g>
</svg>