<?xml version="1.0" encoding="UTF-8"?>
<svg width="238px" height="208px" viewBox="0 0 238 208" version="1.1" xmlns="http://www.w3.org/2000/svg" xmlns:xlink="http://www.w3.org/1999/xlink">
    <!-- Generator: Sketch 58 (84663) - https://sketch.com -->
    <title>Group</title>
    <desc>Created with Sketch.</desc>
    <g id="Page-1" stroke="none" stroke-width="1" fill="none" fill-rule="evenodd">
        <g id="Group">
            <path d="M87.09,107.607 C87.09,107.607 79.09,109.688 75.048,128.272 C71.006,146.857 69.403,184.15 75.048,191.415 C80.693,198.68 91.028,193.439 91.431,174.749 C91.833,156.06 90.214,135.494 96.754,125.16 C103.294,114.827 94.314,100.376 87.09,107.607 Z" id="Path" fill="#835D40" fill-rule="nonzero"></path>
            <path d="M0.566,166.348 C0.566,166.348 231.561,114.619 235.004,112.519 C238.447,110.419 239.8,104.423 225.275,104.372951 C210.75,104.323 0.566,142.913 0.566,142.913 L0.566,166.348 Z" id="Path" fill="#B18C79" fill-rule="nonzero"></path>
            <path d="M12.91,148.363 C12.91,148.363 21.815,116.672 25.951,115.824 C30.087,114.976 38.145,108.489 36.31,113.814 C34.477,119.14 23.959,146.219 23.959,146.219 L12.91,148.363 Z" id="Path" fill="#B18C79" fill-rule="nonzero"></path>
            <path d="M91.498,46.37 C90.512,46.766 73.875,62.047 71.392,94.766 C68.909,127.485 71.555,138.139 80.241,135.879 C88.928,133.619 87.754,107.264 89.633,86.7 C91.511,66.136 95.324,58.754 100.862,53.309 C106.398,47.864 95.683,44.686 91.498,46.37 Z" id="Path" fill="#835D40" fill-rule="nonzero"></path>
            <ellipse id="Oval" fill="#835D40" fill-rule="nonzero" transform="translate(108.214507, 84.884421) rotate(-170.624340) translate(-108.214507, -84.884421) " cx="108.214507" cy="84.8844208" rx="29.915743" ry="47.0320238"></ellipse>
            <ellipse id="Oval" fill="#F3E8D3" fill-rule="nonzero" transform="translate(103.608001, 97.849122) rotate(-170.624340) translate(-103.608001, -97.849122) " cx="103.608001" cy="97.8491219" rx="20.753128" ry="32.628629"></ellipse>
            <g transform="translate(87.000000, 0.000000)">
                <circle id="Oval" fill="#835D40" fill-rule="nonzero" cx="27.035" cy="32.713" r="26.941"></circle>
                <g transform="translate(4.000000, 13.000000)">
                    <path d="M0.498,21.833 C0.53,22.172 2.722,42.248 18.136,43.433 C33.547,44.615 40.153,33.809 40.153,33.809 L0.498,21.833 Z" id="Path" fill="#835D40" fill-rule="nonzero"></path>
                    <path d="M41.998,8.474 C35.132,-3.164 24.624,6.348 24.624,6.348 C24.624,6.348 16.004,-4.937 6.533,4.702 C-1.005,12.374 -6.771,35.323 22.444,40.28 C49.268,41.261 47.461,17.74 41.998,8.474 Z" id="Path" fill="#F3E8D3" fill-rule="nonzero"></path>
                    <path d="M41.998,8.474 C35.132,-3.164 24.624,6.348 24.624,6.348 C24.624,6.348 16.004,-4.937 6.533,4.702 C-1.005,12.374 -6.771,35.323 22.444,40.28 C49.268,41.261 47.461,17.74 41.998,8.474 Z" id="Path" stroke="#A57B74" stroke-linejoin="round"></path>
                    <path d="M0.437,19.8 C0.352,23.632 1.34,27.568 3.995,31.003 C4.55,29.048 6.252,24.818 11.053,22.298 C17.448,18.941 21.366,13.775 16.942,9.66 C13.374,6.344 2.491,7.968 0.437,19.8 Z" id="Path" fill="#A57B74" fill-rule="nonzero"></path>
                    <path d="M31.443,11.436 C26.157,14.362 28.713,20.321 34.11,25.122 C38.968,29.445 38.91,35.067 38.85,36.146 C42.462,33.369 44.32,29.49 45.003,25.406 C45.964,13.313 35.724,9.068 31.443,11.436 Z" id="Path" fill="#A57B74" fill-rule="nonzero"></path>
                    <path d="M5.754,13.275 C5.754,13.275 9.085,19.826 13.967,13.692 C13.967,13.692 9.456,16.8 5.754,13.275 Z" id="Path" fill="#896660" fill-rule="nonzero"></path>
                    <path d="M33.275,16.115 C33.275,16.115 36.608,22.664 41.493,16.53 C41.493,16.53 36.979,19.639 33.275,16.115 Z" id="Path" fill="#896660" fill-rule="nonzero"></path>
                    <ellipse id="Oval" fill="#F3E8D3" fill-rule="nonzero" transform="translate(22.306289, 28.505330) rotate(6.978620) translate(-22.306289, -28.505330) " cx="22.3062887" cy="28.5053304" rx="11.5920986" ry="8.42607166"></ellipse>
                    <path d="M12.4,28.336 C12.4,28.336 15.443,33.282 21.278,33.987 C28.464,34.857 31.049,30.62 31.049,30.62 C31.049,30.62 22.446,38.879 12.4,28.336 Z" id="Path" fill="#A57B74" fill-rule="nonzero"></path>
                    <circle id="Oval" fill="#A57B74" fill-rule="nonzero" cx="12.624" cy="28.452" r="1"></circle>
                    <circle id="Oval" fill="#A57B74" fill-rule="nonzero" cx="31.095" cy="30.257" r="1"></circle>
                    <ellipse id="Oval" fill="#A57B74" fill-rule="nonzero" transform="translate(22.223059, 25.221937) rotate(6.995681) translate(-22.223059, -25.221937) " cx="22.223059" cy="25.221937" rx="4.29519327" ry="2.08409378"></ellipse>
                    <ellipse id="Oval" fill="#896660" fill-rule="nonzero" transform="translate(20.442365, 24.916585) rotate(7.030499) translate(-20.442365, -24.916585) " cx="20.4423652" cy="24.9165846" rx="1" ry="1"></ellipse>
                    <ellipse id="Oval" fill="#896660" fill-rule="nonzero" transform="translate(23.879942, 25.359209) rotate(7.002066) translate(-23.879942, -25.359209) " cx="23.8799421" cy="25.3592089" rx="1" ry="1"></ellipse>
                    <path d="M13.701,30.835 C13.701,30.835 19.432,39.191 29.764,32.967 C29.764,32.967 20.246,40.831 13.701,30.835 Z" id="Path" fill="#F4EDED" fill-rule="nonzero"></path>
                    <path d="M8.911,5.395 C8.911,5.395 13.415,3.229 15.94,6.255 C15.94,6.255 13.578,1.597 8.911,5.395 Z" id="Path" fill="#896660" fill-rule="nonzero"></path>
                    <path d="M31.087,8.679 C31.087,8.679 35.592,6.513 38.115,9.537 C38.115,9.537 35.756,4.878 31.087,8.679 Z" id="Path" fill="#896660" fill-rule="nonzero"></path>
                </g>
                <path d="M23.2,6.038 C23.2,6.038 18.923,3.315 12.231,6.038 C12.231,6.038 21.151,0.19 29.167,5.854 C29.167,5.854 28.037,1.902 23.936,0.691 C23.936,0.691 28.968,1.004 31.104,5.416 C31.104,5.416 35.982,-0.162 46.135,4.52 C46.135,4.52 41.983,2.896 36.29,5.591 C36.29,5.591 42.458,4.071 48.427,11.887 C48.427,11.887 44.347,6.731 36.264,8.272 C28.183,9.813 23.2,6.038 23.2,6.038 Z" id="Path" fill="#835D40" fill-rule="nonzero"></path>
            </g>
            <path d="M132.742,51.395 C133.12,52.657 142.368,69.714 145.668,100.166 C148.967,130.619 149.225,156.551 137.164,155.432 C125.103,154.314 125.868,137.287 127.754,123.87 C129.64,110.457 127.618,86.294 123.919,72.974 C120.221,59.654 132.742,51.395 132.742,51.395 Z" id="Path" fill="#835D40" fill-rule="nonzero"></path>
            <g transform="translate(126.000000, 146.000000)" fill="#FCFAFB" fill-rule="nonzero" id="Path">
                <path d="M4.762,0.977 C4.762,0.977 3.954,0.082 2.262,2.487 C0.568,4.889 -0.381,11.988 1.695,16.7 C1.695,16.7 2.493,10.949 3.67,7.47 C4.846,3.987 5.262,1.135 4.762,0.977 Z"></path>
                <path d="M8.36,1.528 C8.36,1.528 6.876,0.736 6.218,2.97 C5.556,5.207 5.395,12.415 4.956,15.984 C4.515,19.552 4.477,21.145 4.477,21.145 C4.477,21.145 6.111,19.314 7.654,13.541 C9.197,7.768 9.979,1.996 8.36,1.528 Z"></path>
                <path d="M12.482,1.768 C12.482,1.768 10.816,1.203 10.281,5.062 C9.746,8.922 10.77,18.012 10.455,19.291 C10.455,19.291 12.327,15.694 13.046,10.809 C13.764,5.923 13.817,2.308 12.482,1.768 Z"></path>
            </g>
            <g transform="translate(72.000000, 124.000000)" fill="#FCFAFB" fill-rule="nonzero" id="Path">
                <path d="M2.969,1.525 C2.969,1.525 2.133,0.974 1.266,3.26 C0.4,5.545 1.104,11.459 3.751,14.827 C3.751,14.827 3.204,10.028 3.432,6.98 C3.661,3.934 3.405,1.552 2.969,1.525 Z"></path>
                <path d="M5.984,1.225 C5.984,1.225 4.624,0.896 4.555,2.834 C4.486,4.771 5.847,10.611 6.233,13.578 C6.618,16.543 6.916,17.835 6.916,17.835 C6.916,17.835 7.853,16.022 7.901,11.053 C7.949,6.081 7.384,1.268 5.984,1.225 Z"></path>
                <path d="M9.354,0.566 C9.354,0.566 7.895,0.457 8.261,3.676 C8.629,6.895 11.335,14.009 11.346,15.101 C11.346,15.101 12.11,11.816 11.677,7.733 C11.246,3.648 10.541,0.726 9.354,0.566 Z"></path>
            </g>
            <g transform="translate(73.000000, 182.000000)" fill="#FCFAFB" fill-rule="nonzero" id="Path">
                <path d="M3.323,1.224 C3.323,1.224 2.317,0.561 1.276,3.309 C0.235,6.057 1.081,13.166 4.263,17.214 C4.263,17.214 3.606,11.446 3.88,7.782 C4.154,4.119 3.846,1.255 3.323,1.224 Z"></path>
                <path d="M6.947,0.862 C6.947,0.862 5.312,0.466 5.229,2.795 C5.146,5.123 6.782,12.146 7.246,15.712 C7.708,19.275 8.066,20.829 8.066,20.829 C8.066,20.829 9.193,18.648 9.251,12.675 C9.31,6.699 8.63,0.913 6.947,0.862 Z"></path>
                <path d="M10.999,0.07 C10.999,0.07 9.244,-0.063 9.685,3.808 C10.128,7.678 13.38,16.229 13.394,17.543 C13.394,17.543 14.312,13.594 13.792,8.684 C13.272,3.774 12.425,0.262 10.999,0.07 Z"></path>
            </g>
            <path d="M127.335,112.814 C127.335,112.814 117.865,105.557 108.239,115.39 C98.613,125.223 102.926,162.033 104.967,179.468 C107.008,196.904 115.502,204.331 121.103,197.228 C126.705,190.124 120.876,140.077 124.275,128.453 C127.674,116.829 128.901,113.762 127.335,112.814 Z" id="Path" fill="#835D40" fill-rule="nonzero"></path>
            <g transform="translate(109.000000, 187.000000)" fill="#FCFAFB" fill-rule="nonzero" id="Path">
                <path d="M2.656,1.358 C2.656,1.358 1.651,0.695 0.61,3.443 C-0.431,6.191 0.415,13.301 3.597,17.349 C3.597,17.349 2.94,11.581 3.214,7.917 C3.488,4.253 3.18,1.39 2.656,1.358 Z"></path>
                <path d="M6.28,0.997 C6.28,0.997 4.645,0.601 4.563,2.931 C4.48,5.259 6.116,12.282 6.58,15.847 C7.042,19.411 7.4,20.965 7.4,20.965 C7.4,20.965 8.526,18.784 8.585,12.811 C8.643,6.835 7.964,1.049 6.28,0.997 Z"></path>
                <path d="M10.332,0.206 C10.332,0.206 8.577,0.073 9.018,3.944 C9.461,7.814 12.713,16.365 12.727,17.679 C12.727,17.679 13.645,13.73 13.125,8.82 C12.605,3.91 11.758,0.396 10.332,0.206 Z"></path>
            </g>
        </g>
    </g>
</svg>