<?xml version="1.0" encoding="UTF-8"?>
<svg width="249px" height="144px" viewBox="0 0 249 144" version="1.1" xmlns="http://www.w3.org/2000/svg" xmlns:xlink="http://www.w3.org/1999/xlink">
    <!-- Generator: Sketch 58 (84663) - https://sketch.com -->
    <title>Group</title>
    <desc>Created with Sketch.</desc>
    <g id="Page-1" stroke="none" stroke-width="1" fill="none" fill-rule="evenodd">
        <g id="Group" transform="translate(0.000000, -1.000000)">
            <path d="M101.404,22.13 C100.527,22.92 89.388,104.258 96.215,113.677 C103.043,123.097 109.077,114.96 109.159,105.69 C109.241,96.418 107.189,38.295 109.202,31.034 C111.215,23.773 107.175,16.926 101.404,22.13 Z" id="Path" fill="#835D40" fill-rule="nonzero"></path>
            <path d="M146.119,29.03 C146.119,29.03 152.861,36.602 152.658,48.371 C152.456,60.14 149.972,106.456 152.662,111.632 C155.352,116.809 163.444,119.028 165.853,110.739 C168.261,102.447 165.328,71.003 167.129,61.225 C168.93,51.447 175.81,44.71 167.844,36.402 C159.878,28.093 154.085,20.01 146.119,29.03 Z" id="Path" fill="#835D40" fill-rule="nonzero"></path>
            <g transform="translate(96.000000, 108.000000)" fill="#FCFAFB" fill-rule="nonzero" id="Path">
                <path d="M2.11,2.113 C2.11,2.113 1.138,1.562 0.345,4.171 C-0.448,6.784 0.778,13.313 3.978,16.862 C3.978,16.862 3.009,11.56 3.034,8.152 C3.061,4.744 2.596,2.109 2.11,2.113 Z"></path>
                <path d="M5.443,1.555 C5.443,1.555 3.904,1.288 3.973,3.451 C4.041,5.614 5.994,12.013 6.645,15.287 C7.295,18.558 7.724,19.974 7.724,19.974 C7.724,19.974 8.632,17.885 8.312,12.349 C7.995,6.811 7.004,1.496 5.443,1.555 Z"></path>
                <path d="M9.145,0.566999146 C9.145,0.566999146 7.513,0.553 8.163,4.11 C8.813,7.668 12.359,15.382 12.453,16.599 C12.453,16.599 13.057,12.885 12.27,8.369 C11.482,3.855 10.478,0.654 9.145,0.566999146 Z"></path>
            </g>
            <g transform="translate(152.000000, 106.000000)" fill="#FCFAFB" fill-rule="nonzero" id="Path">
                <path d="M3.436,1.231 C3.436,1.231 2.558,0.539 1.38,3 C0.202,5.464 0.43,12.103 3.058,16.095 C3.058,16.095 2.9,10.708 3.439,7.343 C3.978,3.977 3.917,1.302 3.436,1.231 Z"></path>
                <path d="M6.814,1.183 C6.814,1.183 5.333,0.687 5.075,2.834 C4.816,4.983 5.782,11.603 5.932,14.937 C6.082,18.27 6.292,19.735 6.292,19.735 C6.292,19.735 7.504,17.805 8.023,12.285 C8.544,6.764 8.367,1.36 6.814,1.183 Z"></path>
                <path d="M10.623,0.764 C10.623,0.764 9.011,0.505 9.117,4.118 C9.224,7.732 11.566,15.893 11.476,17.112 C11.476,17.112 12.633,13.531 12.536,8.948 C12.437,4.368 11.928,1.052 10.623,0.764 Z"></path>
            </g>
            <g transform="translate(0.000000, 23.000000)" fill="#B18C79" fill-rule="nonzero" id="Path">
                <path d="M248.477,41.688 C248.477,41.688 7.467,43.148 3.543,41.688 C-0.381,40.227 -2.943,34.384 11.849,31.461 C26.641,28.542 248.477,26.352 248.477,26.352 L248.477,41.688 L248.477,41.688 Z"></path>
                <path d="M35.799,33.834 C35.799,33.834 20.463,3.295 16.08,3.249 C11.699,3.201 2.204,-1.817 5.125,3.249 C8.046,8.313 24.113,33.834 24.113,33.834 L35.799,33.834 Z"></path>
            </g>
            <ellipse id="Oval" fill="#835D40" fill-rule="nonzero" transform="translate(133.928331, 30.892568) rotate(-92.837227) translate(-133.928331, -30.892568) " cx="133.928331" cy="30.8925685" rx="28.3497327" ry="44.5711519"></ellipse>
            <path d="M177.523,23.887 C177.523,23.887 184.27,35.747 185.9,50.585 C187.529,65.42 185.175,97.467 184.995,111.771 C184.813,126.074 184.633,133.859 177.752,133.316 C170.872,132.773 170.51,126.06 171.597,117.647 C172.683,109.236 176.666,53.124 165.26,43.34 C153.853,33.557 172.401,21.231 177.523,23.887 Z" id="Path" fill="#835D40" fill-rule="nonzero"></path>
            <path d="M132.491,2.574 C127.78,2.805 123.265,3.502 119.045,4.576 C118.378,6.021 117.963,7.553 117.852,9.149 C117.101,19.997 130.317,29.748 147.373,30.928 C159.979,31.802 171.147,27.743 176.422,21.187 C170.622,9.485 152.952,1.559 132.491,2.574 Z" id="Path" fill="#F3E8D3" fill-rule="nonzero"></path>
            <g transform="translate(48.000000, 1.000000)">
                <circle id="Oval" fill="#835D40" fill-rule="nonzero" cx="33.697" cy="28.158" r="27.968"></circle>
                <g transform="translate(14.000000, 4.000000)">
                    <path d="M25.729,46.869 C26.071,46.778 46.252,41.095 44.821,25.108 C43.391,9.127 31.196,4.215 31.196,4.215 L25.729,46.869 Z" id="Path" fill="#835D40" fill-rule="nonzero"></path>
                    <path d="M4.94,6.667 C-5.8,15.691 5.739,24.823 5.739,24.823 C5.739,24.823 -4.338,35.58 7.154,43.627 C16.303,50.029 40.787,52.001 40.856,21.238 C37.264,-6.394 13.49,-0.517 4.94,6.667 Z" id="Path" fill="#F3E8D3" fill-rule="nonzero"></path>
                    <path d="M4.94,6.667 C-5.8,15.691 5.739,24.823 5.739,24.823 C5.739,24.823 -4.338,35.58 7.154,43.627 C16.303,50.029 40.787,52.001 40.856,21.238 C37.264,-6.394 13.49,-0.517 4.94,6.667 Z" id="Path" stroke="#A57B74" stroke-linejoin="round"></path>
                    <path d="M23.657,47.279 C27.598,46.709 31.456,45.024 34.518,41.717 C32.422,41.485 27.801,40.464 24.397,35.982 C19.863,30.009 13.903,26.882 10.449,32.119 C7.664,36.34 11.193,47.203 23.657,47.279 Z" id="Path" fill="#A57B74" fill-rule="nonzero"></path>
                    <path d="M9.781,16.968 C13.683,21.88 19.346,18.24 23.336,11.891 C26.93,6.176 32.696,5.271 33.812,5.149 C30.35,1.925 26.061,0.687 21.762,0.687999395 C9.215,1.776 6.623,12.989 9.781,16.968 Z" id="Path" fill="#A57B74" fill-rule="nonzero"></path>
                    <path d="M16.067,42.953 C16.067,42.953 22.202,38.422 15.086,34.473 C15.086,34.473 19.042,38.561 16.067,42.953 Z" id="Path" fill="#896660" fill-rule="nonzero"></path>
                    <path d="M14.259,14.29 C14.259,14.29 20.393,9.755 13.275,5.805 C13.275,5.805 17.231,9.895 14.259,14.29 Z" id="Path" fill="#896660" fill-rule="nonzero"></path>
                    <ellipse id="Oval" fill="#F3E8D3" fill-rule="nonzero" transform="translate(28.781115, 23.378752) rotate(-92.521908) translate(-28.781115, -23.378752) " cx="28.781115" cy="23.378752" rx="12.0336209" ry="8.74672447"></ellipse>
                    <path d="M30.349,33.569 C30.349,33.569 34.891,29.604 34.614,23.508 C34.272,16.002 29.491,14.083 29.491,14.083 C29.491,14.083 39.422,21.479 30.349,33.569 Z" id="Path" fill="#A57B74" fill-rule="nonzero"></path>
                    <path d="M30.384,32.292 C30.952,32.266 31.431,32.705 31.457,33.274 C31.481,33.84 31.043,34.321 30.474,34.346 C29.907,34.37 29.427,33.931 29.402,33.365 C29.377,32.795 29.816,32.316 30.384,32.292 Z" id="Path" fill="#A57B74" fill-rule="nonzero"></path>
                    <circle id="Oval" fill="#A57B74" fill-rule="nonzero" cx="29.112" cy="14.1" r="1.029"></circle>
                    <ellipse id="Oval" fill="#A57B74" fill-rule="nonzero" transform="translate(25.434204, 24.052182) rotate(-92.521908) translate(-25.434204, -24.052182) " cx="25.434204" cy="24.052182" rx="4.45785957" ry="2.1649318"></ellipse>
                    <ellipse id="Oval" fill="#896660" fill-rule="nonzero" transform="translate(25.455215, 25.975200) rotate(-92.539080) translate(-25.455215, -25.975200) " cx="25.4552147" cy="25.9752001" rx="1" ry="1"></ellipse>
                    <ellipse id="Oval" fill="#896660" fill-rule="nonzero" transform="translate(25.323895, 22.297228) rotate(-92.510459) translate(-25.323895, -22.297228) " cx="25.3238952" cy="22.2972276" rx="1" ry="1"></ellipse>
                    <path d="M32.684,31.809 C32.684,31.809 40.258,24.507 32.115,14.997 C32.115,14.997 41.798,23.396 32.684,31.809 Z" id="Path" fill="#F4EDED" fill-rule="nonzero"></path>
                    <path d="M7.457,41.072 C7.457,41.072 4.468,36.831 7.135,33.729 C7.134,33.729 2.768,36.944 7.457,41.072 Z" id="Path" fill="#896660" fill-rule="nonzero"></path>
                    <path d="M7.019,17.804 C7.019,17.804 4.03,13.564 6.695,10.461 C6.695,10.461 2.328,13.675 7.019,17.804 Z" id="Path" fill="#896660" fill-rule="nonzero"></path>
                </g>
                <path d="M7.043,36.655 C7.043,36.655 4.988,41.503 8.922,47.885 C8.922,47.885 1.404,39.755 5.833,30.577 C5.833,30.577 1.978,32.41 1.441,36.817 C1.441,36.817 0.899,31.613 5.049,28.67 C5.049,28.67 -1.497,24.631 1.559,13.432 C1.559,13.432 0.605,17.962 4.341,23.329 C4.341,23.329 1.729,17.273 8.708,9.823 C8.708,9.823 4.128,14.884 7.091,22.895 C10.054,30.907 7.043,36.655 7.043,36.655 Z" id="Path" fill="#835D40" fill-rule="nonzero"></path>
            </g>
            <path d="M128.611,29.178 C128.611,29.178 129.807,38.763 128.616,56.349 C127.424,73.936 126.924,101.819 128.789,112.381 C130.654,122.945 122.063,123.672 118.372,121.463 C114.681,119.253 114.407,100.3 114.893,84.555 C115.38,68.811 111.651,48.154 111.651,48.154 L128.611,29.178 Z" id="Path" fill="#835D40" fill-rule="nonzero"></path>
            <g transform="translate(115.000000, 115.000000)" fill="#FCFAFB" fill-rule="nonzero" id="Path">
                <path d="M2.715,1.504 C2.715,1.504 1.664,0.826 0.615,3.692 C-0.434,6.558 0.528,13.929 3.881,18.091 C3.881,18.091 3.131,12.111 3.371,8.306 C3.611,4.5 3.258,1.528 2.715,1.504 Z"></path>
                <path d="M6.471,1.088 C6.471,1.088 4.77,0.694 4.712,3.113 C4.653,5.531 6.435,12.802 6.958,16.497 C7.479,20.192 7.871,21.8 7.871,21.8 C7.871,21.8 9.015,19.523 9.004,13.321 C8.993,7.117 8.219,1.12 6.471,1.088 Z"></path>
                <path d="M10.667,0.217 C10.667,0.217 8.844,0.098 9.349,4.113 C9.854,8.124 13.332,16.964 13.362,18.327 C13.362,18.327 14.268,14.219 13.671,9.127 C13.071,4.035 12.151,0.396 10.667,0.217 Z"></path>
            </g>
            <g transform="translate(170.000000, 123.000000)" fill="#FCFAFB" fill-rule="nonzero" id="Path">
                <path d="M3.591,0.95 C3.591,0.95 2.631,0.148 1.237,2.863 C-0.157,5.578 -0.113,13.009 2.699,17.555 C2.699,17.555 2.693,11.528 3.402,7.784 C4.11,4.034 4.127,1.041 3.591,0.95 Z"></path>
                <path d="M7.37,1 C7.37,1 5.73,0.399 5.374,2.793 C5.017,5.187 5.888,12.619 5.95,16.353 C6.012,20.083 6.201,21.728 6.201,21.728 C6.201,21.728 7.618,19.609 8.372,13.453 C9.128,7.296 9.101,1.249 7.37,1 Z"></path>
                <path d="M11.642,0.655 C11.642,0.655 9.848,0.312 9.85298957,4.357 C9.858,8.4 12.219,17.6 12.08,18.959 C12.08,18.959 13.486,14.992 13.522,9.865 C13.556,4.74 13.091,1.017 11.642,0.655 Z"></path>
            </g>
        </g>
    </g>
</svg>