<?xml version="1.0" encoding="UTF-8"?>
<svg width="264px" height="228px" viewBox="0 0 264 228" version="1.1" xmlns="http://www.w3.org/2000/svg" xmlns:xlink="http://www.w3.org/1999/xlink">
    <!-- Generator: Sketch 58 (84663) - https://sketch.com -->
    <title>Group</title>
    <desc>Created with Sketch.</desc>
    <g id="Page-1" stroke="none" stroke-width="1" fill="none" fill-rule="evenodd">
        <g id="Group">
            <path d="M152.169,83.252 C154.183,83.574 155.409,50.449 155.325,29.461 C155.241,8.473 152.095,1.167 144.223,5.364 C136.352,9.561 142.176,48.18 138.502,61.734 C134.829,75.287 143.282,81.828 152.169,83.252 Z" id="Path" fill="#835D40" fill-rule="nonzero"></path>
            <path d="M100.989,87.354 C98.975,87.676 97.749,54.552 97.831,33.563 C97.915,12.575 101.063,5.269 108.935,9.466 C116.804,13.663 110.982,52.283 114.656,65.836 C118.327,79.388 109.874,85.93 100.989,87.354 Z" id="Path" fill="#835D40" fill-rule="nonzero"></path>
            <path d="M7.396,11.041 C7.396,11.041 248.334,0.386 257.97,2.323 C267.606,4.26 262.831,11.041 262.831,11.041 L1.007,24.603 C1.007,24.602 -3.007,11.496 7.396,11.041 Z" id="Path" fill="#B18C79" fill-rule="nonzero"></path>
            <path d="M99.511,112.723 C98.607,113.539 87.167,197.432 94.214,207.141 C101.261,216.852 107.48,208.459 107.56,198.897 C107.638,189.333 105.488,129.391 107.56,121.901 C109.63,114.41 105.458,107.352 99.511,112.723 Z" id="Path" fill="#835D40" fill-rule="nonzero"></path>
            <path d="M150.39,120.158 C151.292,120.974 162.732,204.867 155.685,214.578 C148.638,224.287 142.419,215.894 142.341,206.332 C142.261,196.769 144.411,136.826 142.341,129.336 C140.269,121.846 144.44,114.789 150.39,120.158 Z" id="Path" fill="#835D40" fill-rule="nonzero"></path>
            <ellipse id="Oval" fill="#835D40" fill-rule="nonzero" cx="126.087" cy="97.295" rx="29.238" ry="45.968"></ellipse>
            <ellipse id="Oval" fill="#F3E8D3" fill-rule="nonzero" cx="126.087" cy="83.252" rx="20.307" ry="31.925"></ellipse>
            <circle id="Oval" fill="#835D40" fill-rule="nonzero" cx="126.277" cy="148.861" r="26.962"></circle>
            <g transform="translate(95.000000, 201.000000)" fill="#FCFAFB" fill-rule="nonzero" id="Path">
                <path d="M2.774,2.318 C2.774,2.318 1.788,1.724 0.901,4.396 C0.016,7.068 1.11,13.832 4.317,17.574 C4.317,17.574 3.456,12.084 3.571,8.572 C3.687,5.057 3.276,2.328 2.774,2.318 Z"></path>
                <path d="M6.226,1.83 C6.226,1.83 4.646,1.514 4.662,3.748 C4.676,5.978 6.523,12.627 7.109,16.018 C7.693,19.411 8.099,20.879 8.099,20.879 C8.099,20.879 9.089,18.748 8.904,13.033 C8.72,7.316 7.837,1.811 6.226,1.83 Z"></path>
                <path d="M10.069,0.907948646 C10.069,0.907948646 8.385,0.851 8.962,4.535 C9.542,8.219 12.997,16.267 13.062,17.525 C13.062,17.525 13.781,13.709 13.087,9.035 C12.392,4.361 11.44,1.033 10.069,0.907948646 Z"></path>
            </g>
            <g transform="translate(143.000000, 208.000000)" fill="#FCFAFB" fill-rule="nonzero" id="Path">
                <path d="M3.808,0.799 C3.808,0.799 3.001,-0.025 1.47,2.336 C-0.061,4.697 -0.71,11.518 1.449,15.949 C1.449,15.949 2.004,10.42 3,7.049 C3.997,3.678 4.29,0.934 3.808,0.799 Z"></path>
                <path d="M7.271,1.197 C7.271,1.197 5.822,0.492 5.273,2.656 C4.722,4.818 4.832,11.719 4.543,15.148 C4.252,18.576 4.273,20.101 4.273,20.101 C4.273,20.101 5.769,18.29 7.033,12.712 C8.298,7.133 8.835,1.584 7.271,1.197 Z"></path>
                <path d="M11.22,1.275 C11.22,1.275 9.607,0.795 9.236,4.505 C8.865,8.215 10.177,16.874 9.924,18.109 C9.924,18.109 11.582,14.599 12.09,9.9 C12.598,5.201 12.517,1.742 11.22,1.275 Z"></path>
            </g>
            <g transform="translate(103.000000, 124.000000)">
                <path d="M45.403,20.018 C45.331,19.684 40.712,0.008 25.257,0.705 C9.804,1.404 4.56,12.941 4.56,12.941 L45.403,20.018 Z" id="Path" fill="#835D40" fill-rule="nonzero"></path>
                <path d="M5.806,38.332 C14.042,49.057 23.324,38.332 23.324,38.332 C23.324,38.332 33.258,48.492 41.494,37.768 C48.049,29.227 50.986,5.733 21.363,4.36 C-5.403,6.648 -0.749,29.793 5.806,38.332 Z" id="Path" fill="#F3E8D3" fill-rule="nonzero"></path>
                <path d="M5.806,38.332 C14.042,49.057 23.324,38.332 23.324,38.332 C23.324,38.332 33.258,48.492 41.494,37.768 C48.049,29.227 50.986,5.733 21.363,4.36 C-5.403,6.648 -0.749,29.793 5.806,38.332 Z" id="Path" stroke="#A57B74" stroke-linejoin="round"></path>
                <path d="M45.712,22.027 C45.329,18.209 43.87,14.422 40.816,11.334 C40.503,13.342 39.326,17.75 34.865,20.836 C28.92,24.949 25.656,30.557 30.552,34.106 C34.499,36.967 45.11,34.027 45.712,22.027 Z" id="Path" fill="#A57B74" fill-rule="nonzero"></path>
                <path d="M15.931,34.105 C20.826,30.556 17.562,24.949 11.617,20.835 C6.265,17.134 5.64,11.54 5.568,10.462 C2.316,13.659 0.943,17.737 0.761,21.878 C1.278,34.006 11.966,36.98 15.931,34.105 Z" id="Path" fill="#A57B74" fill-rule="nonzero"></path>
                <path d="M41.224,29.154 C41.224,29.154 37.119,23.054 33.013,29.74 C33.013,29.74 37.118,26.104 41.224,29.154 Z" id="Path" fill="#896660" fill-rule="nonzero"></path>
                <path d="M13.54,29.68 C13.54,29.68 9.435,23.58 5.329,30.268 C5.329,30.268 9.435,26.631 13.54,29.68 Z" id="Path" fill="#896660" fill-rule="nonzero"></path>
                <ellipse id="Oval" fill="#F3E8D3" fill-rule="nonzero" cx="22.914" cy="16.047" rx="11.601" ry="8.432"></ellipse>
                <path d="M32.792,15.002 C32.792,15.002 29.165,10.461 23.284,10.4689894 C16.04,10.481 13.989,15.002 13.989,15.002 C13.989,15.002 21.53,5.752 32.792,15.002 Z" id="Path" fill="#A57B74" fill-rule="nonzero"></path>
                <circle id="Oval" fill="#A57B74" fill-rule="nonzero" cx="32.554" cy="14.916" r="1"></circle>
                <circle id="Oval" fill="#A57B74" fill-rule="nonzero" cx="13.988" cy="15.369" r="1"></circle>
                <ellipse id="Oval" fill="#A57B74" fill-rule="nonzero" cx="23.391" cy="19.326" rx="4.298" ry="2.086"></ellipse>
                <ellipse id="Oval" fill="#896660" fill-rule="nonzero" cx="25.259" cy="19.387" rx="1" ry="1"></ellipse>
                <ellipse id="Oval" fill="#896660" fill-rule="nonzero" cx="21.72" cy="19.326" rx="1" ry="1"></ellipse>
                <path d="M31.194,12.68 C31.194,12.68 24.483,5.076 14.979,12.514 C14.979,12.514 23.479,3.545 31.194,12.68 Z" id="Path" fill="#F4EDED" fill-rule="nonzero"></path>
                <path d="M39.046,37.367 C39.046,37.367 34.835,40.066 31.96,37.367 C31.96,37.367 34.872,41.707 39.046,37.367 Z" id="Path" fill="#896660" fill-rule="nonzero"></path>
                <path d="M16.62,36.801 C16.62,36.801 12.407,39.5 9.534,36.801 C9.534,36.801 12.444,41.145 16.62,36.801 Z" id="Path" fill="#896660" fill-rule="nonzero"></path>
            </g>
            <path d="M133.329,174.891 C133.329,174.891 137.907,177.077 144.224,173.559 C144.224,173.559 136.076,180.452 127.425,175.799 C127.425,175.799 129.027,179.59 133.249,180.293 C133.249,180.293 128.212,180.594 125.554,176.473 C125.554,176.473 121.388,182.606 110.732,179.186 C110.732,179.186 115.054,180.297 120.382,176.928 C120.382,176.928 114.439,179.186 107.56,172.151 C107.56,172.151 112.24,176.774 120.08,174.262 C127.921,171.748 133.329,174.891 133.329,174.891 Z" id="Path" fill="#835D40" fill-rule="nonzero"></path>
            <path d="M137.515,5.624 C137.515,5.624 141.681,7.65 141.802,15.158 C141.923,22.665 147.603,23.634 153.24,22.423 C158.875,21.212 158.26,7.651 153.24,3.292 C148.22,-1.067 140.13,-1.487 137.515,5.624 Z" id="Path" fill="#835D40" fill-rule="nonzero"></path>
            <path d="M113.597,7.477 C113.597,7.477 109.431,9.503 109.31,17.01 C109.191,24.517 103.509,25.486 97.874,24.275 C92.237,23.064 92.854,9.503 97.874,5.144 C102.894,0.785 110.981,0.365 113.597,7.477 Z" id="Path" fill="#835D40" fill-rule="nonzero"></path>
            <g transform="translate(143.000000, 14.000000)" fill="#FCFAFB" fill-rule="nonzero" id="Path">
                <path d="M3.837,1.13 C3.837,1.13 3.032,0.305 1.501,2.666 C-0.03,5.027 -0.681,11.848 1.478,16.28 C1.478,16.28 2.033,10.75 3.031,7.378 C4.028,4.008 4.319,1.265 3.837,1.13 Z"></path>
                <path d="M7.3,1.527 C7.3,1.527 5.853,0.823 5.302,2.985 C4.753,5.148 4.861,12.048 4.572,15.478 C4.283,18.906 4.302,20.432 4.302,20.432 C4.302,20.432 5.798,18.62 7.064,13.042 C8.327,7.464 8.864,1.916 7.3,1.527 Z"></path>
                <path d="M11.251,1.605 C11.251,1.605 9.636,1.126 9.265,4.836 C8.894,8.546 10.206,17.205 9.953,18.439 C9.953,18.439 11.611,14.929 12.121,10.23 C12.626,5.533 12.546,2.072 11.251,1.605 Z"></path>
            </g>
            <g transform="translate(97.000000, 14.000000)" fill="#FCFAFB" fill-rule="nonzero" id="Path">
                <path d="M2.513,2.137 C2.513,2.137 1.527,1.543 0.64,4.214 C-0.245,6.886 0.849,13.65 4.056,17.392 C4.056,17.392 3.195,11.902 3.31,8.389 C3.425,4.875 3.015,2.146 2.513,2.137 Z"></path>
                <path d="M5.964,1.647 C5.964,1.647 4.384,1.332 4.4,3.565 C4.414,5.795 6.261,12.444 6.847,15.835 C7.431,19.226 7.837,20.696 7.837,20.696 C7.837,20.696 8.827,18.565 8.642,12.849 C8.458,7.134 7.575,1.628 5.964,1.647 Z"></path>
                <path d="M9.808,0.725948673 C9.808,0.725948673 8.124,0.669 8.701,4.354 C9.281,8.038 12.736,16.085 12.801,17.343 C12.801,17.343 13.52,13.528 12.826,8.853 C12.13,4.179 11.179,0.851 9.808,0.725948673 Z"></path>
            </g>
        </g>
    </g>
</svg>
