<?xml version="1.0" encoding="UTF-8"?>
<svg width="287px" height="427px" viewBox="0 0 287 427" version="1.1" xmlns="http://www.w3.org/2000/svg" xmlns:xlink="http://www.w3.org/1999/xlink">
    <!-- Generator: Sketch 64 (93537) - https://sketch.com -->
    <title>hand</title>
    <desc>Created with Sketch.</desc>
    <g id="Page-1" stroke="none" stroke-width="1" fill="none" fill-rule="evenodd">
        <g id="hand" transform="translate(8.000000, 8.000000)" fill="#FFFFFF" stroke="#000000" stroke-width="15">
            <path d="M78.0567338,190.151973 C46.6855779,185.255789 31,194.789439 31,218.752921 C31,242.716402 31,273.011367 31,309.637813 L102.138033,411 L225.30879,411 L271,318.973547 L271,218.752921 C263.64752,196.933344 250.524456,189.984677 231.630809,197.906919 C231.630809,197.906919 223.816014,165.965509 184.310357,177.887852 C184.310357,177.887852 169.85012,151.11754 134.592198,162.420845 C134.592198,162.420845 107.400185,129.973944 78.0567338,162.420845 C78.0567338,162.420845 78.0567338,192.579747 78.0567338,252.897552 L78.0567338,190.151973 Z" id="base"></path>
            <path d="M105.885223,413 C57.7342551,364.850254 31.4498949,327.222856 27.0321428,300.117807 C20.4055147,259.460233 17.2289408,239.241188 11.1825697,206.266044 C5.13619853,173.290901 -12.5713284,145.986682 16.7271418,137.386467 C36.2594553,131.65299 48.3802623,139.697517 53.0895627,161.520048 L80.3256334,259.460233" id="f1"></path>
            <path d="M78.0567338,252.897552 L78.0567338,60.220609 C78.0567338,41.4068697 86.3711559,32 103,32 C127.943266,32 130,49.977547 130,61.1648046 C130,68.6229763 130,105.291999 130,171.171873" id="f2"></path>
            <path d="M130,212.684894 L130,18.0648351 C130.160265,6.02161171 138.354045,0 154.581339,0 C170.808632,0 179.948186,5.56218102 182,16.686543 L182,212.684894" id="f3"></path>
            <path d="M182,211.478749 L182,42.0947172 C186.44696,31.3649057 195.065323,26 207.855089,26 C220.644855,26 228.026492,30.5293846 230,39.5881537 L230,211.478749" id="f4"></path>
            <path d="M230,211.478749 L230,99.2237968 C235.506576,88.4079323 242.339909,83 250.5,83 C258.660091,83 265.493424,87.5282023 271,96.5846068 L271,299.419045" id="f5"></path>
        </g>
    </g>
</svg>