<?xml version="1.0" encoding="UTF-8"?>
<svg width="273px" height="421px" viewBox="0 0 273 421" version="1.1" xmlns="http://www.w3.org/2000/svg" xmlns:xlink="http://www.w3.org/1999/xlink">
    <g id="Page-1" stroke="none" stroke-width="1" fill="none" fill-rule="evenodd">
        <g id="hand" transform="translate(-12.000000, 5.000000)" fill="#FFFFFF" fill-rule="nonzero" stroke="#000000" stroke-width="10">
            <path d="M87.0567338,194.663414 C55.6855779,189.76723 40,199.30088 40,223.264362 C40,247.227843 40,273.011367 40,309.637813 L111.138033,411 L234.30879,411 L280,318.973547 L280,218.752921 C272.64752,196.933344 259.524456,189.984677 240.630809,197.906919 C240.630809,197.906919 232.816014,165.965509 193.310357,177.887852 C193.310357,177.887852 178.85012,151.11754 143.592198,162.420845 C143.592198,162.420845 116.400185,129.973944 87.0567338,162.420845 C87.0567338,162.420845 87.0567338,192.579747 87.0567338,252.897552 L87.0567338,194.663414 Z" id="base"></path>
            <path d="M121.596023,407.734432 C73.4450551,359.584686 40.6337726,327.457202 36.2160205,300.352153 C29.5893924,259.694579 26.4128185,239.475534 20.3664474,206.50039 C14.3200762,173.525247 -3.3874507,146.221028 25.9110195,137.620813 C45.443333,131.887336 57.56414,139.931863 62.2734404,161.754394 L85.6869915,251.443989" id="f1" transform="translate(65.559563, 271.782915) rotate(4.000000) translate(-65.559563, -271.782915) "></path>
            <path d="M87.0567338,252.897552 L87.0567338,60.220609 C87.0567338,41.4068697 95.3711559,32 112,32 C136.943266,32 139,49.977547 139,61.1648046 C139,68.6229763 139,105.291999 139,171.171873" id="f2"></path>
            <path d="M139,212.684894 L139,18.0648351 C139.160265,6.02161171 147.354045,0 163.581339,0 C179.808632,0 188.948186,5.56218102 191,16.686543 L191,212.684894" id="f3"></path>
            <path d="M191,211.478749 L191,42.0947172 C195.44696,31.3649057 204.065323,26 216.855089,26 C229.644855,26 237.026492,30.5293846 239,39.5881537 L239,211.478749" id="f4"></path>
            <path d="M239,211.478749 L239,99.2237968 C244.506576,88.4079323 251.339909,83 259.5,83 C267.660091,83 274.493424,87.5282023 280,96.5846068 L280,299.419045" id="f5"></path>
        </g>
    </g>
</svg>