<?xml version="1.0" encoding="UTF-8"?>
<svg width="36px" height="19px" viewBox="0 0 36 19" version="1.1" xmlns="http://www.w3.org/2000/svg" xmlns:xlink="http://www.w3.org/1999/xlink">
    <!-- Generator: Sketch 54.1 (76490) - https://sketchapp.com -->
    <title>baseline-straighten-24px</title>
    <desc>Created with Sketch.</desc>
    <g id="Page-1" stroke="none" stroke-width="1" fill="none" fill-rule="evenodd">
        <g id="baseline-straighten-24px" transform="translate(-1.000000, -11.000000)">
            <g stroke="#012E40" id="Hangboard" transform="translate(1.000000, 11.000000)">
                <path d="M3.50128061,1 C3.39862642,1 3.29612458,1.00790339 3.19468377,1.02364012 C2.10317035,1.19296888 1.35559197,2.21508342 1.52492073,3.30659684 L3.54163794,16.3065968 C3.69281935,17.2811302 4.5318076,18 5.51799782,18 L30.4752339,18 C31.4611198,18 32.2999446,17.2815623 32.4514705,16.3073903 L34.4735331,3.30739032 C34.4893518,3.20569096 34.4972965,3.10292225 34.4972965,3 C34.4972965,1.8954305 33.601866,1 32.4972965,1 L3.50128061,1 Z" id="Rectangle" stroke-width="2" fill-rule="nonzero"></path>
                <path d="M25.0714286,6.875 L29.9822879,6.875" id="Path" stroke-width="1.5"></path>
                <path d="M13.9677734,6.875 L22.0357143,6.875" id="Path" stroke-width="1.5"></path>
                <path d="M15.0631104,11.875 L20.9969482,11.875" id="Path" stroke-width="1.5"></path>
                <path d="M6.99804688,11.875 L11.9901123,11.875" id="Path" stroke-width="1.5"></path>
                <path d="M24,11.875 L28.9108594,11.875" id="Path" stroke-width="1.5"></path>
                <path d="M6,6.875 L11.0056152,6.875" id="Path" stroke-width="1.5"></path>
            </g>
        </g>
    </g>
</svg>
