<?xml version="1.0" encoding="UTF-8"?>
<svg width="20px" height="24px" viewBox="0 0 20 24" version="1.1" xmlns="http://www.w3.org/2000/svg" xmlns:xlink="http://www.w3.org/1999/xlink">
    <!-- Generator: Sketch 54.1 (76490) - https://sketchapp.com -->
    <title>logo</title>
    <desc>Created with Sketch.</desc>
    <defs>
        <polygon id="path-1" points="0 31.9977184 32 31.9977184 32 0 0 0"></polygon>
        <polygon id="path-3" points="0 31.9977184 32 31.9977184 32 0 0 0"></polygon>
        <polygon id="path-5" points="0 31.9977184 32 31.9977184 32 0 0 0"></polygon>
    </defs>
    <g id="Page-1" stroke="none" stroke-width="1" fill="none" fill-rule="evenodd">
        <g id="logo" transform="translate(-6.000000, -2.000000)">
            <g id="Fill-4-Clipped">
                <mask id="mask-2" fill="white">
                    <use xlink:href="#path-1"></use>
                </mask>
                <g id="path-3"></g>
                <polygon id="Fill-4" fill="#FFFFFF" fill-rule="nonzero" mask="url(#mask-2)" points="12.9554656 5.06251933 19.2388664 5.06251933 19.2388664 2.92068422 12.9554656 2.92068422"></polygon>
            </g>
            <g id="Fill-6-Clipped">
                <mask id="mask-4" fill="white">
                    <use xlink:href="#path-3"></use>
                </mask>
                <g id="path-3"></g>
                <path d="M12.9554656,6.1009848 C12.9554656,7.31830513 13.6558293,8.42774128 14.7507687,8.95073813 L14.7507687,16.0962152 L15.6482601,16.0962152 L15.6482601,12.9398775 L16.5457514,12.9398775 L16.5457514,16.0962152 L17.4435632,16.0962152 L17.4435632,8.94622954 C18.5385026,8.42774128 19.2388664,7.31830513 19.2388664,6.1009848 L18.3410546,6.1009848 C18.3410546,7.34600078 17.3365053,8.35528172 16.0970057,8.35528172 C14.8578267,8.35528172 13.8532774,7.34600078 13.8532774,6.1009848 M16.0970057,6.1009848 C15.598898,6.1009848 15.1995144,6.50224968 15.1995144,7.00270356 C15.1995144,7.50315748 15.598898,7.90474439 16.0970057,7.90474439 C16.5951134,7.90474439 16.9948176,7.50315748 16.9948176,7.00270356 C16.9948176,6.50224968 16.5951134,6.1009848 16.0970057,6.1009848" id="Fill-6" fill="#FFFFFF" fill-rule="nonzero" mask="url(#mask-4)"></path>
            </g>
            <g id="Fill-7-Clipped">
                <mask id="mask-6" fill="white">
                    <use xlink:href="#path-5"></use>
                </mask>
                <g id="path-3"></g>
                <path d="M23.4518733,9.7833311 L24.9442809,8.26138051 C24.4920557,7.71489105 23.9983389,7.20051028 23.4624874,6.75002574 L21.9704014,8.27197636 C21.4242575,7.8266292 20.8279377,7.44774697 20.1962376,7.13340318 C20.0749795,7.85649027 19.7157081,8.51407568 19.1804998,9.00437495 C21.6851072,10.1997804 23.4203526,12.7861332 23.4203526,15.7963203 C23.4203526,19.9441174 20.131588,23.2988304 16.0647773,23.2988304 C11.9979666,23.2988304 8.70920203,19.9441174 8.70920203,15.7963203 C8.70920203,12.7578776 10.4775764,10.1516175 13.0201372,8.97162411 C12.4585545,8.50315873 12.0713004,7.86098549 11.9169134,7.14496229 C8.77674634,8.71282831 6.60728744,11.9901595 6.60728744,15.7963203 C6.60728744,21.1231475 10.8317015,25.4424048 16.0647773,25.4424048 C21.2978531,25.4424048 25.5222672,21.1231475 25.5222672,15.7963203 C25.5222672,13.5239903 24.7445427,11.4340374 23.4518733,9.7833311" id="Fill-7" fill="#FFFFFF" fill-rule="nonzero" mask="url(#mask-6)"></path>
            </g>
        </g>
    </g>
</svg>