<svg id="sloth" data-name="Layer 1" xmlns="http://www.w3.org/2000/svg" viewBox="0 0 251.51 206.32">
  <title>sloth</title>
  <style>
    /* <![CDATA[ */
    @keyframes moving-sloth {
      0%   {transform: scale(1, 0.995) rotate(0.0turn)}
      50%  {transform: scale(1, 1) rotate(0.008turn)}
      100% {transform: scale(1, 0.995) rotate(0.0turn)}
    }


    #sloth {
      fill:#5A8C8C;
      animation: moving-sloth 10s ease infinite;
      transform-origin: left top;
    }
    /* ]]> */
  </style>
  <g id="sloth">
    <g>
      <path d="M415.9,424.36c-1.82.43-1.79,1.72-1.69,3.06a5.47,5.47,0,0,1,4.51-1.77C417.92,424.79,417.06,424.08,415.9,424.36Z" transform="translate(-207.48 -289.69)"/>
      <path  d="M445.13,408.29A77.48,77.48,0,0,0,418,400.74c-6.78-.62-6.21-2.57-5.23-8.15,3.69-21.12,19.25-35.63,28.83-53.42,2-3.66,6.13-7.13,5.38-11.24-1.77-9.59-1.72-12.7-9.2-7.74.81,2.56-14.13,10.72-15.67,11.83-12.07,5.33-17.57,13.19-25,24.14-4.47,6.56-9.77,12.5-14.7,18.73-5.79,7.33-9.21,5.61-12.05-2.37-4.91-13.79-3.64-28.46-6.39-42.58l-5.49-40c-19.83-3.75-16.73,29.18-17.93,34-6.34,25.6-10.82,51.44-12.17,77.8-.25,5-2.36,7.4-7.61,5.88-9.88-2.87-19.58-1-30.19,1C314.44,385,310,322.23,311.19,293.85l-1.35-2.31c-7.61-1.85-14.15,4.61-15.52,11.61,4.33,43.17-13.38,48.51-28.94,64.94-.57-8.39-1.19-13.61-1.21-18.82,0-9.72-8.49-21.24-1.24-28.3,5.63-5.49,4.85-14.94,1.77-18.53-7.63-3.7-24.3-1.46-25,26l-.14,1.12c-.28,21.34-10.22,39.07-19,57.35-1.05,2.17-2,3.76-5.44,1.65-8-5-8,.89-7.44,6.47.59,6,1.13,11.93,2.12,17.83,10.44,62.35,69.47,99.14,124.53,76.27,33.95-14.11,65.09-36.61,105.15-32.66,9.94,1,18-7.79,19.2-19.4C460,424.83,457.34,414.29,445.13,408.29Zm1.37,36.32c-22.7,12.08-33.11,8.52-41.55-14.22-3.7-8.45.31-14.7,6.61-19.35s11,.58,15.67,4.25a12.89,12.89,0,0,0,9.82,2.58c6.76-.75,11.9,2.34,14.21,8.49C453.84,433.2,454,440.08,446.5,444.61Z" transform="translate(-207.48 -289.69)"/>
    </g>
    <path class="cls-1" d="M432.2,433.57c-1.48,2.66,2.8,6.94-2.23,8.52-3.58,1.12-6.61-.65-9.3-2.78-6.47-5.14,4.5-7.38,2-11.89C427.09,427.58,431.08,428.36,432.2,433.57Z" transform="translate(-207.48 -289.69)"/>
    <path class="cls-2" d="M422.8,427.55l-9.14.46c-1.81-.47-5-.62-5.2-1.46-1-4.43,3-5.1,5.85-6.2,4.14-1.63,7.37-.74,8,4.42C422.43,425.7,422.64,426.62,422.8,427.55Z" transform="translate(-207.48 -289.69)"/>
    <path class="cls-1" d="M443.6,439.4c-1.85-3.43-5-5-8.52-6.17-1.33-5.94,2.85-7.48,6.44-5.54C445.71,430,450,434.26,443.6,439.4Z" transform="translate(-207.48 -289.69)"/>
  </g>
</svg>
