<?xml version="1.0" encoding="UTF-8"?>
<svg width="639px" height="368px" viewBox="0 0 639 368" version="1.1" xmlns="http://www.w3.org/2000/svg" xmlns:xlink="http://www.w3.org/1999/xlink">
    <title>2CLIMBCRUX</title>
    <g id="Page-1" stroke="none" stroke-width="1" fill="none" fill-rule="evenodd">
        <g id="2CLIMBCRUX" transform="translate(0.543133, 1.446011)" fill="#FFFFFF" stroke="#000000">
            <path d="M637.456867,77.2492431 L437.059144,77.2492431 L437.059144,102.240719 L238.306793,102.240719 L238.306793,31.704938 C234.884658,20.9893983 226.70439,15.6316284 213.765989,15.6316284 C200.827588,15.6316284 137.057881,15.6316284 22.4568668,15.6316284 C7.58537244,17.7181675 0.149625251,26.3697836 0.149625251,41.5864765 C0.149625251,56.8031695 0.149625251,83.5345483 0.149625251,121.780613 C-1.17216589,139.57519 6.2635813,148.472478 22.4568668,148.472478 C38.6501523,148.472478 243.650152,148.472478 637.456867,148.472478" id="board"></path>
            <path d="M637.456867,148.472478 L17.2787839,148.472478 L17.2787839,227.496227 C14.6717222,244.648153 20.7163039,253.224115 35.4125291,253.224115 C50.1087542,253.224115 250.7902,253.224115 637.456867,253.224115" id="board"></path>
            <path d="M637.456867,253.224115 L31.7077643,253.224115 L31.7077643,336.731918 C30.8658093,355.60302 39.4488435,365.038571 57.4568668,365.038571 C75.4648901,365.038571 268.798223,365.038571 637.456867,365.038571" id="board"></path>
            <rect id="h4" x="22.4568668" y="60.5539889" width="188" height="55" rx="27.5"></rect>
            <rect id="h5" x="31.4568668" y="169.553989" width="188" height="55" rx="27.5"></rect>
            <rect id="h9" x="50.4568668" y="276.553989" width="176" height="55" rx="27.5"></rect>
            <rect id="h6" x="253.456867" y="169.553989" width="98" height="55" rx="27.5"></rect>
            <rect id="h12" x="518.456867" y="276.553989" width="98" height="55" rx="27.5"></rect>
            <rect id="h11" x="388.456867" y="276.553989" width="98" height="55" rx="27.5"></rect>
            <rect id="h10" x="258.456867" y="276.553989" width="98" height="55" rx="27.5"></rect>
            <path d="M637.456867,224.553989 L499.956867,224.553989 C484.769036,224.553989 472.456867,212.241819 472.456867,197.053989 C472.456867,181.866158 484.769036,169.553989 499.956867,169.553989 L637.456867,169.553989" id="Path"></path>
            <path d="M637.456867,224.553989 L499.956867,224.553989 C484.769036,224.553989 472.456867,212.241819 472.456867,197.053989 C472.456867,181.866158 484.769036,169.553989 499.956867,169.553989 L637.456867,169.553989" id="h8"></path>
            <circle id="h7" cx="412.956867" cy="197.053989" r="27.5"></circle>
            <polygon id="h3" points="637.456867 32.6221479 587.329323 32.6221479 587.329323 26.5823133 457.153142 26.5823133 437.059144 77.2492431 637.456867 77.2492431"></polygon>
            <polygon id="h2" points="437.059144 77.2492431 437.059144 102.240719 238.306793 102.240719 264.448294 26.5823133 457.153142 26.5823133"></polygon>
            <path d="M0,37.4619032 C5.06482223,12.4873011 24.2171112,0 57.4568668,0 C90.6966225,0 150.979931,0 238.306793,0 C255.73446,0 264.448294,8.86077111 264.448294,26.5823133 C264.448294,26.5823133 255.73446,51.8017818 238.306793,102.240719 L238.306793,31.704938 C235.403221,20.9893964 227.222953,15.6316256 213.765989,15.6316256 C200.309025,15.6316256 136.539318,15.6316256 22.4568668,15.6316256 C15.0941397,16.8755871 9.88905953,18.9787698 6.84162625,21.9411739 C3.79419298,24.903578 1.5136509,30.0771544 0,37.4619032 Z" id="h1"></path>
        </g>
    </g>
</svg>