<?xml version="1.0" encoding="UTF-8"?>
<svg width="590px" height="288px" viewBox="0 0 590 288" version="1.1" xmlns="http://www.w3.org/2000/svg" xmlns:xlink="http://www.w3.org/1999/xlink">
    <title>2CLIMBGAMECHANGER</title>
    <g id="Page-1" stroke="none" stroke-width="1" fill="none" fill-rule="evenodd">
        <g id="2CLIMBGAMECHANGER" transform="translate(1.000000, 0.681347)" fill="#FFFFFF" stroke="#000000">
            <path d="M587.998496,286.318653 L28,286.318653 C20.2680135,286.318653 14,280.050639 14,272.318653 L14,188.318653 L588.009973,188.318653" id="background"></path>
            <path d="M588.009088,188.318653 L14,188.318653 C6.2680135,188.318653 0,182.050639 0,174.318653 L0,68.3186528 C0,67.2140833 0.8954305,66.3186528 2,66.3186528 L233.156432,66.3186528 C242.467821,66.9864464 247.123515,62.9209535 247.123515,54.122174 C247.123515,40.9240048 247.480567,38.1795861 261.071519,38.1795861 C270.132154,38.1795861 378.941647,38.1795861 587.5,38.1795861" id="background"></path>
            <path d="M588.052477,257.318653 L522,257.318653 C509.849736,257.318653 500,247.468917 500,235.318653 C500,223.168388 509.849736,213.318653 522,213.318653 L588.020875,213.318653" id="h10"></path>
            <rect id="h9" x="294" y="213.318653" width="89" height="44" rx="22"></rect>
            <circle id="h8" cx="245" cy="235.318653" r="22"></circle>
            <rect id="h7" x="40" y="213.318653" width="154" height="44" rx="22"></rect>
            <path d="M587.992471,155.318653 L518,155.318653 C505.849736,155.318653 496,145.468917 496,133.318653 C496,121.168388 505.849736,111.318653 518,111.318653 L588.021648,111.318653" id="h6"></path>
            <rect id="h5" x="370" y="111.318653" width="89" height="44" rx="22"></rect>
            <rect id="h4" x="221" y="111.318653" width="109" height="44" rx="22"></rect>
            <rect id="h3" x="28" y="111.318653" width="157" height="44" rx="22"></rect>
            <path d="M588,1.0658141e-14 L280.44855,1.0658141e-14 L250.417617,36.894594 C249.029029,39.7963696 248.334735,41.4398573 248.334735,41.8250569 C248.334735,42.4028563 249.372231,38.1795861 259.474555,38.1795861 C266.209438,38.1795861 375.720949,38.1795861 588.009088,38.1795861" id="h2"></path>
            <path d="M280.44855,7.19779791e-12 L72.5327568,7.19779791e-12 C67.4144492,7.19779791e-12 63.5833361,1.50335923 61.0394176,4.5100777 C58.495499,7.51679616 38.5471763,28.1439188 1.19444942,66.3914455 C2.64301191,66.3088808 3.95334149,66.2675985 5.12543816,66.2675985 C6.29753482,66.2675985 83.2216461,66.2675985 235.897772,66.2675985 C243.466608,66.4742302 247.251026,61.7791257 247.251026,52.1822848 C247.251026,37.7870234 251.440284,35.9118963 253.08669,33.6962509 C254.184294,32.2191539 263.304914,20.9870703 280.44855,7.19779791e-12 Z" id="h1"></path>
        </g>
    </g>
</svg>