<?xml version="1.0" encoding="UTF-8"?>
<svg width="602px" height="311px" viewBox="0 0 602 311" version="1.1" xmlns="http://www.w3.org/2000/svg" xmlns:xlink="http://www.w3.org/1999/xlink">
    <title>2CLIMBAPPROACH</title>
    <g id="Page-1" stroke="none" stroke-width="1" fill="none" fill-rule="evenodd">
        <g id="2CLIMBAPPROACH" transform="translate(1.000000, 0.000000)" fill="#FFFFFF" fill-rule="nonzero" stroke="#000000">
            <path d="M0.476693,69.4753714 C1.84426271,47.318489 8.35203173,36.2400479 20.0000001,36.2400479 C37.4719526,36.2400479 255.902116,36.2400479 263.532507,36.2400479 C271.162897,36.2400479 278.753284,31.4726614 278.753284,25.2412592 C278.753284,25.2412592 278.753284,33.6348152 278.753284,50.4219272 L0.476693,69.4753714 Z" id="h1"></path>
            <path d="M600,172.5 L5.21174378,172.5 L5.21174378,243.865563 C4.31167617,250.695466 7.03105028,257.531361 13.3698661,264.373249 C19.7086819,271.215137 33.2377133,284.768788 53.9569604,305.034204 C58.019422,308.37663 68.9670668,310.047844 86.7998948,310.047844 C104.632723,310.047844 275.699425,310.047844 600,310.047844" id="board"></path>
            <path d="M600,13.9985473 L305.519517,13.9985473 C287.599998,12.7243255 278.640239,18.3146864 278.640239,30.76963 C278.640239,49.4520455 278.591632,49.4915217 240.853709,49.4915217 C215.695094,49.4915217 142.077191,49.4915217 20.0000001,49.4915217 C7.02682789,50.0664868 0.540241799,57.3175982 0.540241799,71.2448559 C0.540241799,85.1721137 0.540241799,116.020878 0.540241799,163.791149 C-0.244696985,178.624769 6.2418891,186.041579 20.0000001,186.041579 C33.758111,186.041579 227.091444,185.50135 600,184.42089" id="board"></path>
            <path d="M600,13.821154 L300.238347,13.821154 C285.914971,14.4030793 278.753284,19.5250273 278.753284,29.1869979 C281.127798,10.086974 288.289485,0.536962 300.238347,0.536962 C312.187208,0.536962 412.107759,0.536962 600,0.536962" id="Path"></path>
            <rect id="h3" x="23.0000001" y="87.9999999" width="224" height="77" rx="34"></rect>
            <rect id="h6" x="46.0000001" y="213" width="209" height="71" rx="34"></rect>
            <rect id="h7" x="300" y="213" width="121" height="71" rx="34"></rect>
            <rect id="h8" x="466" y="213" width="121" height="71" rx="34"></rect>
            <rect id="h4" x="265" y="87.9999999" width="123" height="77" rx="34"></rect>
            <path d="M600,165 L440,165 C421.222319,165 406,149.777681 406,131 L406,122 C406,103.222318 421.222319,87.9999999 440,87.9999999 L600,87.9999999" id="h5"></path>
        </g>
    </g>
</svg>