<?xml version="1.0" encoding="UTF-8"?>
<svg width="584px" height="322px" viewBox="0 0 584 322" version="1.1" xmlns="http://www.w3.org/2000/svg" xmlns:xlink="http://www.w3.org/1999/xlink">
    <title>2CLIMBINSIGHT</title>
    <g id="Page-1" stroke="none" stroke-width="1" fill="none" fill-rule="evenodd">
        <g id="2CLIMBINSIGHT" transform="translate(1.000000, 0.999529)" fill="#FFFFFF" stroke="#000000">
            <path d="M394.510373,5.36738567 L394.510373,50.6174786 L157.92102,50.6174786 L157.92102,-1.77635684e-14 C182.58932,-0.0136358969 196.507949,4.41405486 199.676906,13.2830723 C202.845863,22.1520897 207.907936,25.3160119 214.863124,22.7748389 L223.43411,5.36738567 L394.510373,5.36738567 Z" id="h1"></path>
            <path d="M582.024485,320.000471 L39,320.000471 C25.1928813,320.000471 14,308.80759 14,295.000471 L14,25.0004709 C14,11.1933521 25.1928813,0.000470863831 39,0.000470863831 C80.2181261,0.000470863831 121.436252,0.000470863831 162.654378,0.000470863831 C178.117309,0.000470863831 185.056033,8.88814402 183.470551,26.6634903 C183.470551,42.4334355 194.401486,50.3184081 216.263356,50.3184081 C223.860114,50.3184081 282.169235,50.3184081 361.278115,50.3184081 C365.74181,50.3184081 374.033421,45.3546701 374.033421,36.911586 C374.033421,34.1823666 374.033421,31.8970614 380.087244,31.8970614 C424.291893,31.8970614 484.42871,31.8970614 582,31.8970614" id="background"></path>
            <rect id="h11" x="425" y="234.000471" width="146" height="59" rx="25"></rect>
            <circle id="h10" cx="373.5" cy="263.500471" r="29.5"></circle>
            <rect id="h9" x="219" y="234.000471" width="107" height="59" rx="25"></rect>
            <rect id="h8" x="30" y="234.000471" width="171" height="59" rx="25"></rect>
            <rect id="h7" x="425" y="151.000471" width="107" height="59" rx="25"></rect>
            <rect id="h6" x="265" y="151.000471" width="140" height="59" rx="25"></rect>
            <path d="M582.42525,127.000471 L582.42525,127.000471 L523,127.000471 C509.192881,127.000471 498,115.80759 498,102.000471 L498,92.0004709 C498,78.1933521 509.192881,67.0004709 523,67.0004709 L582.402639,67.0004709 L582.402639,67.0004709" id="h5"></path>
            <circle id="h4" cx="444.5" cy="100.500471" r="33.5"></circle>
            <rect id="path" x="0" y="89.0004709" width="245" height="131" rx="25"></rect>
            <rect id="h3" x="27" y="112.000471" width="192" height="87" rx="25"></rect>
            <path d="M582,5.41293275 L387.812717,5.41293275 C383.003732,5.05594601 380.160945,6.79743949 379.284354,10.6374132 C378.407763,14.4773869 376.779367,22.0874782 374.399166,33.4676871 C375.263453,32.4206033 377.159479,31.8970614 380.087244,31.8970614 C383.015009,31.8970614 450.319261,31.8970614 582,31.8970614" id="h2"></path>
        </g>
    </g>
</svg>