<?xml version="1.0" encoding="UTF-8"?>
<svg width="627px" height="351px" viewBox="0 0 627 351" version="1.1" xmlns="http://www.w3.org/2000/svg" xmlns:xlink="http://www.w3.org/1999/xlink">
    <title>2CLIMBONSIGHT</title>
    <g id="Page-1" stroke="none" stroke-width="1" fill="none" fill-rule="evenodd">
        <g id="2CLIMBONSIGHT" transform="translate(1.000000, 1.000000)" fill="#FFFFFF" stroke="#000000">
            <path d="M419,5.83213079 L419,55 L159,55 L159,0 C186.109242,-0.0147823823 201.405127,4.79626011 204.887654,14.4331616 C208.370181,24.0700631 213.933149,27.5079193 221.576557,24.7467303 L230.995646,5.83213079 L419,5.83213079 Z" id="h2" fill-rule="nonzero"></path>
            <path d="M625,349 L27.507617,349 C12.3155797,349 0,336.792764 0,321.734375 L0,27.265625 C0,12.2072361 12.3155797,0 27.507617,0 C72.8601141,0 118.212611,0 163.565108,0 C180.579043,0 188.213754,9.69311853 186.469241,29.0793556 C186.469241,46.278452 198.4966,54.8780003 222.551317,54.8780003 C230.910066,54.8780003 295.067865,54.8780003 382.111736,54.8780003 C387.02316,54.8780003 396.146459,49.4644235 396.146459,40.2561849 C396.146459,37.27963 396.146459,34.787219 402.807508,34.787219 C451.446091,34.787219 517.614912,34.787219 624.973059,34.787219" id="board" fill-rule="nonzero"></path>
            <path d="M626,246.123779 L28.507617,246.123779 C13.3155797,246.123779 1,233.916543 1,218.858154 L0,27.265625 C0,12.2072361 12.3155797,0 27.507617,0 C72.8601141,0 118.212611,0 163.565108,0 C180.579043,0 188.213754,9.69311853 186.469241,29.0793556 C186.469241,46.278452 198.4966,54.8780003 222.551317,54.8780003 C230.910066,54.8780003 295.067865,54.8780003 382.111736,54.8780003 C387.02316,54.8780003 396.146459,49.4644235 396.146459,40.2561849 C396.146459,37.27963 396.146459,34.787219 402.807508,34.787219 C451.446091,34.787219 517.614912,34.787219 624.973059,34.787219" id="board" fill-rule="nonzero"></path>
            <rect id="h11" fill-rule="nonzero" x="456" y="266" width="161" height="53" rx="25"></rect>
            <ellipse id="h10" fill-rule="nonzero" cx="405" cy="292.5" rx="27" ry="26.5"></ellipse>
            <rect id="h9" fill-rule="nonzero" x="236" y="266" width="118" height="53" rx="25"></rect>
            <rect id="h8" fill-rule="nonzero" x="24" y="266" width="188" height="53" rx="25"></rect>
            <rect id="h7" fill-rule="nonzero" x="478" y="162" width="101" height="53" rx="25"></rect>
            <rect id="h5" fill-rule="nonzero" x="464" y="80" width="145" height="53" rx="25"></rect>
            <rect id="h6" fill-rule="nonzero" x="276" y="162" width="170" height="53" rx="25"></rect>
            <path d="M625,6.05024713 L411.731586,6.05024713 C406.450063,5.65642257 403.32794,7.57762252 402.365214,11.813847 C401.402488,16.0500715 399.614083,24.4454558 397,37 C397.949213,35.8448666 400.031545,35.2672998 403.246997,35.2672998 C406.462449,35.2672998 480.380116,35.2672998 625,35.2672998" id="h3" fill-rule="nonzero"></path>
            <path d="M92.7657486,109.592136 L36.2428497,182.009326 C30.6498995,202.31148 35.6911442,212.462557 51.3665836,212.462557 C67.0420231,212.462557 114.267045,212.462557 193.04165,212.462557 C199.142953,212.938272 207.103209,207.063442 216.922417,194.838065 C226.741626,182.612688 243.378037,161.853387 266.831651,132.560161 C275.108433,112.250521 268.36307,102.095701 246.595562,102.095701 C224.828053,102.095701 179.165379,102.095701 109.607539,102.095701 C105.304416,102.130754 102.078497,102.626486 99.9297822,103.582899 C97.7810674,104.539311 95.3930562,106.542391 92.7657486,109.592136 Z" id="h4"></path>
            <path d="M214.808108,55 C196.059081,52.3404056 186.684567,44.5530021 186.684567,31.6377896 C186.684567,12.2649709 185.177649,0 159,0 C141.548234,0 97.7174398,0 27.507617,0 C9.16920568,2.07936173 0,10.5762917 0,25.4907899 C0,40.405288 0,50.2416914 0,55" id="Path"></path>
        </g>
    </g>
</svg>