<?xml version="1.0" encoding="UTF-8"?>
<svg width="583px" height="427px" viewBox="0 0 583 427" version="1.1" xmlns="http://www.w3.org/2000/svg" xmlns:xlink="http://www.w3.org/1999/xlink">
    <title>360RAINBOW</title>
    <g id="Page-1" stroke="none" stroke-width="1" fill="none" fill-rule="evenodd">
        <g id="360RAINBOW" transform="translate(1.425656, 1.704455)" fill="#FFFFFF" stroke="#000000">
            <path d="M580.574344,0.190076159 C420.183719,-3.77346551 263.84648,54.249972 111.562626,174.260389 C111.562626,174.260389 111.870731,181.976209 106.322391,186.280896 C102.623498,189.150688 99.0972935,189.992811 95.7437779,188.807264 C64.2548456,218.206352 38.5071242,245.937146 18.5006138,271.999646 C-1.50589659,298.062146 -5.28617002,315.194959 7.15979352,323.398084 C12.5162388,327.693331 18.327274,329.840955 24.592899,329.840955 C30.858524,329.840955 36.003218,331.877739 40.026981,335.951307 C44.7860956,340.895643 47.1656529,344.724256 47.1656529,347.437146 C47.1656529,351.506482 66.6952705,425.894221 145.741752,424.346183 C198.439406,423.314158 230.582618,398.488418 242.171386,349.868963 C244.172002,336.516958 252.691454,329.840955 267.729741,329.840955 C282.768029,329.840955 387.049563,329.11487 580.574344,327.662701" id="hangboard"></path>
            <path d="M580.574344,293.27485 C522.884796,287.739452 494.040022,260.709504 494.040022,212.185005 C494.040022,194.404079 496.966271,179.52992 510.341271,177.26755 C523.716271,175.00518 533.910282,172.162081 580.574344,172.162081" id="h5"></path>
            <circle id="h3" cx="141.574344" cy="319.295545" r="84"></circle>
            <path d="M270.693485,242.022107 C280.676558,291.826795 306.791141,316.729139 349.037235,316.729139 C391.283329,316.729139 417.8901,291.826795 428.857547,242.022107 L270.693485,242.022107 Z" id="h4"></path>
            <path d="M338.574344,87.2955449 C347.410929,131.295545 370.526431,153.295545 407.92085,153.295545 C445.315268,153.295545 468.866433,131.295545 478.574344,87.2955449 L338.574344,87.2955449 Z" id="h2"></path>
            <circle id="h1" cx="220.574344" cy="133.295545" r="84"></circle>
        </g>
    </g>
</svg>