<?xml version="1.0" encoding="UTF-8"?>
<svg width="594px" height="330px" viewBox="0 0 594 330" version="1.1" xmlns="http://www.w3.org/2000/svg" xmlns:xlink="http://www.w3.org/1999/xlink">
    <title>ACRONMIDNIGHT</title>
    <g id="Page-1" stroke="none" stroke-width="1" fill="none" fill-rule="evenodd">
        <g id="ACRONMIDNIGHT" transform="translate(0.303553, 1.640942)" fill="#FFFFFF" stroke="#000000">
            <polyline id="board" points="592.696447 319.653431 67.6991723 319.653431 131.821699 233.930856 592.696447 233.930856"></polyline>
            <polyline id="board" points="592.696447 233.930856 131.821699 233.930856 191.17838 138.357334 592.696447 138.357334"></polyline>
            <path d="M592.696447,144.50736 L206.879216,144.50736 C197.189887,143.809457 189.960038,147.519356 185.189668,155.637058 C180.419298,163.75476 142.868873,219.152926 72.5383926,321.831556 C65.8074774,327.57248 55.1532027,328.64469 40.5755685,325.048186 C18.7091171,319.653431 -13.7938023,294.608804 7.13457093,258.359058 C21.0868198,234.192561 43.9207384,196.241995 75.6363269,144.50736 C83.5718675,128.353387 78.79946,120.2764 61.3191042,120.2764 C43.8387484,120.2764 37.6754756,120.2764 42.8292859,120.2764 C16.0740601,117.785609 2.69644717,101.739801 2.69644717,72.1389758 C2.69644717,27.7377373 31.9968637,19.8616141 63.2923325,19.8616141 C84.1559783,19.8616141 133.648011,19.757738 211.768432,19.5499857 L592.696447,19.8616141" id="board"></path>
            <polyline id="h3" points="592.696447 42.535878 417.574864 42.535878 425.743509 19.5499857 592.696447 19.5499857"></polyline>
            <path d="M425.743509,19.5499857 L417.574864,42.535878 C415.108838,49.7617321 410.476535,53.3746592 403.677956,53.3746592 C396.879376,53.3746592 342.372406,53.3746592 240.157047,53.3746592 C235.456307,53.8107692 230.868678,50.1978421 226.39416,42.535878 C221.919642,34.8739139 217.044399,27.2119498 211.768432,19.5499857 L425.743509,19.5499857 Z" id="h2"></path>
            <rect id="h4" x="28.6964472" y="50.3590583" width="172" height="40" rx="20"></rect>
            <rect id="h6" x="301.696447" y="80.3590583" width="172" height="40" rx="20"></rect>
            <rect id="h7" x="201.696447" y="169.359058" width="172" height="40" rx="20"></rect>
            <rect id="h8" x="392.696447" y="169.359058" width="81" height="40" rx="20"></rect>
            <rect id="h11" x="351.696447" y="258.359058" width="122" height="40" rx="20"></rect>
            <rect id="h10" x="162.696447" y="258.359058" width="170" height="40" rx="20"></rect>
            <path d="M592.696447,209.359058 L512.696447,209.359058 C501.650752,209.359058 492.696447,200.404753 492.696447,189.359058 C492.696447,178.313363 501.650752,169.359058 512.696447,169.359058 L592.696447,169.359058" id="h9"></path>
            <path d="M592.696447,298.359058 L512.696447,298.359058 C501.650752,298.359058 492.696447,289.404753 492.696447,278.359058 C492.696447,267.313363 501.650752,258.359058 512.696447,258.359058 L592.696447,258.359058" id="h12"></path>
            <circle id="h5" cx="256.696447" cy="100.359058" r="20"></circle>
            <path d="M5.50495521,50.3590583 C12.6829983,29.8196765 31.1611606,19.5499857 60.9394419,19.5499857 C90.7177232,19.5499857 140.994053,19.5499857 211.768432,19.5499857 C225.915674,15.1002665 232.989294,8.58360456 232.989294,0 C221.262395,0 80.173993,0 80.173993,0 C45.8556291,0 20.9659498,16.7863528 5.50495521,50.3590583 Z" id="h1"></path>
            <path d="M232.989294,0 C244.863585,14.1544513 249.482851,23.7730536 246.847095,28.8558069 C244.211338,33.9385603 239.592072,41.1063107 232.989294,50.3590583 C231.886235,50.1265192 229.363618,46.9421716 225.421445,40.8060154 C221.479272,34.6698593 216.928267,27.584516 211.768432,19.5499857 C219.894014,16.680944 225.197018,14.1038618 227.677443,11.8187388 C230.157868,9.53361589 231.928486,5.59403628 232.989294,0 Z" id="board"></path>
        </g>
    </g>
</svg>