<?xml version="1.0" encoding="UTF-8"?>
<svg width="581px" height="526px" viewBox="0 0 581 526" version="1.1" xmlns="http://www.w3.org/2000/svg" xmlns:xlink="http://www.w3.org/1999/xlink">
    <title>AIXTRAINING2</title>
    <g id="Page-1" stroke="none" stroke-width="1" fill="none" fill-rule="evenodd">
        <g id="AIXTRAINING2" transform="translate(0.780108, 1.320295)" fill="#FFFFFF" stroke="#000000">
            <path d="M579.219892,268.679705 L24.5334046,268.777452 L24.5334046,319.956919 C12.5646348,321.144721 6.58024986,326.672151 6.58024986,336.539207 C6.58024986,351.339792 13.378876,441.538976 34.4055646,480.213745 C55.4322531,518.888513 56.5553808,518.730333 77.2206207,518.730333 C90.9974473,518.730333 209.81405,520.370283 433.670429,523.650181 C440.017371,522.288952 445.56258,520.649003 450.306054,518.730333 C457.421265,515.852328 458.072864,514.113866 466.477661,514.113866 C474.882458,514.113866 481.847529,523.650181 494.954254,523.650181 C503.692071,523.650181 531.780617,523.650181 579.219892,523.650181" id="board"></path>
            <rect id="h4" x="35.2198918" y="375.679705" width="211" height="55" rx="27.5"></rect>
            <rect id="h5" x="267.219892" y="375.679705" width="190" height="55" rx="27.5"></rect>
            <rect id="h7" x="50.2198918" y="452.679705" width="407" height="45" rx="22.5"></rect>
            <path d="M579.219892,430.679705 L505.719892,430.679705 C490.532061,430.679705 478.219892,418.367536 478.219892,403.179705 C478.219892,387.991874 490.532061,375.679705 505.719892,375.679705 L579.219892,375.679705" id="h6"></path>
            <path d="M579.219892,497.679705 L508.719892,497.679705 C493.532061,497.679705 481.219892,487.606112 481.219892,475.179705 C481.219892,462.753298 493.532061,452.679705 508.719892,452.679705 L579.219892,452.679705" id="h8"></path>
            <path d="M579.219892,268.679705 L33.9464518,268.679705 C17.1855392,269.825483 7.04761618,260.898287 3.53268267,241.898116 C0.01774915,222.897944 -0.874229209,186.488642 0.856747589,132.670207 C4.20993446,46.41943 44.7315879,2.43405107 122.421708,0.714070234 C238.956888,-1.86590102 403.833165,3.37498498 465.098106,3.37498498 C505.9414,3.37498498 543.981996,3.37498498 579.219892,3.37498498" id="Path"></path>
            <path d="M579.219892,210.679705 L487.219892,210.679705 C478.383336,210.679705 471.219892,203.516261 471.219892,194.679705 L471.219892,162.679705 C471.219892,153.843149 478.383336,146.679705 487.219892,146.679705 L579.219892,146.679705" id="h2"></path>
            <path d="M24.5334046,319.956919 L289.609946,319.956919 C303.525753,318.434402 310.483656,310.783789 310.483656,297.005079 C310.483656,276.337016 301.399871,268.8752 289.609946,268.777452 C281.749996,268.712287 193.391149,268.712287 24.5334046,268.777452 L24.5334046,319.956919 Z" id="h3"></path>
        </g>
    </g>
</svg>