<?xml version="1.0" encoding="UTF-8"?>
<svg width="584px" height="521px" viewBox="0 0 584 521" version="1.1" xmlns="http://www.w3.org/2000/svg" xmlns:xlink="http://www.w3.org/1999/xlink">
    <title>AIXTRAINING3</title>
    <g id="Page-1" stroke="none" stroke-width="1" fill="none" fill-rule="evenodd">
        <g id="AIXTRAINING3" transform="translate(0.724838, 1.038043)" fill="#FFFFFF" stroke="#000000">
            <path d="M582.275162,76.9348939 C514.743594,69.7473725 436.795026,54.2795587 348.429458,30.5314526 C215.881106,-5.0907065 171.685289,-1.82241927 135.69928,2.77488187 C99.7132706,7.37218301 7.91952795,32.0835262 7.91952795,132.464042 C7.91952795,232.844558 162.73675,237.659864 162.73675,279.641634 C162.73675,321.623404 0,361.027544 0,441.634628 C0,495.372683 33.2377569,520.933098 99.7132706,518.315872 L396.022065,462.822866 C425.905366,453.362733 444.290698,437.616555 451.178062,415.584332 C458.065425,393.55211 501.264459,357.457198 580.775162,307.299597 C526.661688,311.069584 493.434097,312.954578 481.092389,312.954578 C462.579827,312.954578 446.859089,302.088842 446.859089,283.961957 C446.859089,247.781941 491.99778,232.406995 582.275162,237.837118" id="board"></path>
            <path d="M582.275162,307.299597 C504.740766,310.646122 459.602075,322.541668 446.859089,342.986235 C434.116104,363.430801 432.271945,389.176761 441.326614,420.224114 C466.054483,437.576526 513.037333,446.252732 582.275162,446.252732" id="board"></path>
            <rect id="h4" transform="translate(195.213473, 411.243192) rotate(-10.000000) translate(-195.213473, -411.243192) " x="52.7134731" y="373.743192" width="285" height="75" rx="37.5"></rect>
            <path d="M582.275162,237.837118 C534.899092,236.886226 500.530466,239.761172 479.169284,246.461957 C457.808102,253.162741 447.038037,265.038523 446.859089,282.089303 C447.876685,302.666153 460.87649,312.954578 485.858506,312.954578 C523.33153,312.954578 561.253525,307.299597 582.275162,307.299597" id="h3"></path>
            <rect id="h2" x="277.275162" y="208.961957" width="115" height="75" rx="37.5"></rect>
            <path d="M186.866144,64.9111586 C282.704284,68.7089406 330.623353,83.1899762 330.623353,108.354265 C330.623353,146.100699 251.08226,127.915444 208.695155,127.915444 C166.308051,127.915444 53.0183629,146.559889 53.0183629,108.354265 C53.0183629,82.8838497 97.63429,68.4028141 186.866144,64.9111586 Z" id="h1"></path>
        </g>
    </g>
</svg>