<?xml version="1.0" encoding="UTF-8"?>
<svg width="587px" height="441px" viewBox="0 0 587 441" version="1.1" xmlns="http://www.w3.org/2000/svg" xmlns:xlink="http://www.w3.org/1999/xlink">
    <title>ALPIDEXTRAINING</title>
    <g id="Page-1" stroke="none" stroke-width="1" fill="none" fill-rule="evenodd">
        <g id="ALPIDEXTRAINING" transform="translate(1.000000, 1.000000)" fill="#FFFFFF" fill-rule="nonzero">
            <path d="M586,0 L537.803043,0 C515.007068,1.96717467 494.329331,5.33072018 475.769835,10.0906365 C457.210337,14.8505528 370.784111,37.7072851 216.491154,78.6608334 C191.656217,86.7678652 163.731471,92.7011871 132.716916,96.4607995 C86.1950816,102.100217 50.4684181,115.151315 30.3684385,133.665048 C10.268459,152.17878 -8.79888141,177.271097 4.32691384,201.183378 C17.4527091,225.09566 33.9616692,249.257649 55.5232645,253.960111 C77.0848597,258.662572 89.0087237,262.287094 109.093225,252.046866 C129.177726,241.806637 162.737701,224.55309 185.085715,224.55309 C207.433727,224.55309 224.842129,223.529475 237.927582,239.947211 C246.651218,250.892368 256.568611,265.978181 267.679761,285.204646 C272.00516,293.691028 269.450261,301.405411 260.015063,308.347797 C250.579866,315.290181 224.303555,332.44912 181.186131,359.824612 C168.211334,368.401282 164.967635,380.643718 171.455033,396.551922 C177.942432,412.460125 182.485992,421.887533 185.085715,424.834145 C192.717681,433.66348 199.859912,438.078149 206.512409,438.078149 C216.491154,438.078149 229.043215,442.211454 252.556271,432.973722 C276.069326,423.735989 286.969669,420.040476 294.638568,405.922987 C302.307467,391.805497 320.925033,356.462955 332.406321,349.451979 C343.88761,342.441003 364.87308,330.431636 397.380809,321.74613 C429.888538,313.060626 473.763046,308.705799 490.931926,304.654383 C508.100806,300.602967 529.844762,291.810376 547.449614,293.345273 C559.186181,294.368538 572.03631,295.529686 586,296.828714" id="hangboard" stroke="#000000"></path>
            <path d="M129,103.214581 C142.029697,102.680728 150.75538,108.744248 155.17705,121.405139 C159.598721,134.06603 173.557777,137.883608 197.054219,132.85787 C206.393841,130.09706 221.517707,124.158929 242.42582,115.043477 C273.787988,101.370297 348.217071,64.6620732 372.98011,60.2498532 C397.743149,55.837633 446.992474,50.7025257 457.28244,54.0473537 C464.142417,56.277239 472.714937,57.3298285 483,57.2051222 C472.430788,50.9558355 466.323068,47.3513546 464.676836,46.3916797 C462.20749,44.9521673 445.567354,38.0702256 425.97594,40.5238959 C406.384526,42.977566 395.490325,46.4275172 392.589816,44.7025416 C390.656143,43.5525579 389.689306,42.159676 389.689306,40.5238959 C294.054794,65.0648453 241.492441,78.832794 232.002249,81.8277424 C217.766961,86.3201648 174.354105,98.0947559 151.677053,99.8683109 C136.559018,101.050681 129,102.166104 129,103.214581 Z" id="h11"></path>
            <path d="M483.547677,62.6293342 C492.720093,63.8212616 498.936981,67.1166949 502.19834,72.5156343 C507.090378,80.6140432 507.441031,92.8895515 502.19834,92.8895515 C496.955649,92.8895515 430.259723,91.714714 414.56244,97.7996401 C398.865155,103.884567 323.79974,114.223818 288.679697,137.520163 C265.266335,153.05106 249.336422,154.086049 240.88996,140.62513 C236.588615,131.742042 239.629319,124.791486 250.012071,119.77346 C260.394822,114.755434 283.045931,104.214706 317.965396,88.1512761 C346.827094,74.9698774 366.862568,67.4208708 378.071817,65.5042562 C394.88569,62.6293342 439.535686,58 449.276876,58 C453.244419,58 460.361644,58 467.664786,60.6104092 C470.123955,61.4894062 475.418252,62.1623812 483.547677,62.6293342 Z" id="h10"></path>
            <path d="M586,122 L458.749251,122 C429.685637,125.279956 411.238889,129.325952 403.409003,134.137985 C395.579118,138.950019 393.217221,145.63917 396.323311,154.20544 C401.772738,163.195462 409.823546,167.690474 420.475733,167.690474 C436.454015,167.690474 473.074001,162.412856 486.344836,162.412856 C499.615671,162.412856 520.704607,176.464446 525.595442,176.464446 C528.529276,176.464446 546.001672,177.733503 561.620448,178.749094 C572.03888,179.426539 582.096327,180 586,180" id="h9" stroke="#000000"></path>
            <path d="M586,3 L540.785392,3 C509.011193,7.26098609 488.156577,10.706179 478.221543,13.3355785 C468.286509,15.9649781 445.626329,21.9227373 410.241003,31.208856 C409.329983,34.6489237 411.001786,36.3689575 415.256414,36.3689575 C421.638355,36.3689575 429.240271,34.0039808 445.006832,32.1634909 C460.773392,30.3230008 478.369095,33.7085384 484.625555,36.3689575 C490.882016,39.0293764 500.430114,47.4945893 506.022294,48.8889203 C511.614473,50.2832513 557.393717,52 586,52" id="h8"></path>
            <path d="M522.597676,124 L463.69112,124 C439.213061,126.700806 423.676774,130.032389 417.082261,133.994748 C410.487747,137.957107 408.498501,143.465137 411.114524,150.518836 C415.70416,157.921466 422.48474,161.622781 431.456262,161.622781 C444.913548,161.622781 475.755762,157.277046 486.932772,157.277046 C498.109782,157.277046 515.871381,168.847509 519.990556,168.847509 C524.663518,169.349377 527,168.61246 527,166.636756 C527,164.661051 527,153.133306 527,132.053518 L527,126.924999 C527,124.975 525.532559,124 522.597676,124 Z" id="h7"></path>
            <path d="M454.893902,258.381581 C487.771801,259.667891 498.188861,246.328968 496.079249,235.423593 C493.969637,224.518217 481.460155,217.901984 454.629889,215.219562 C427.799624,212.537142 412.530274,221.850872 412.531594,235.436844 C412.532915,249.022814 422.016004,257.095272 454.893902,258.381581 Z" id="h6" stroke="#000000" transform="translate(454.435825, 236.613112) rotate(-10.000000) translate(-454.435825, -236.613112) "></path>
            <path d="M331.199097,189.429194 C343.510473,189.431872 353.490146,199.411544 353.492825,211.72292 L353.502519,256.268131 C353.505196,268.572583 343.532637,278.549483 331.228185,278.552161 C331.224953,278.552162 331.221722,278.552162 331.21849,278.552161 C318.907114,278.549483 308.927441,268.56981 308.924762,256.258434 L308.915069,211.713224 C308.912391,199.408771 318.88495,189.431871 331.189403,189.429194 C331.192634,189.429193 331.195865,189.429193 331.199097,189.429194 Z" id="h5" stroke="#000000" transform="translate(331.208794, 233.990677) rotate(-25.000000) translate(-331.208794, -233.990677) "></path>
            <path d="M315.402552,360.540526 C317.532483,358.824682 317.532483,356.663159 315.402552,354.055958 C312.207655,350.145156 306.484768,346.628565 301.145748,351.066582 C295.806729,355.504599 267.933908,378.662634 255.035921,384.007887 C246.437263,387.571389 228.575946,391.956819 201.451972,397.164176 C195.048357,399.191658 191.18677,402.476094 189.867212,407.017484 C187.887873,413.829568 189.768323,419.764126 190.848086,421.070481 C191.927848,422.376837 201.238129,432.973354 214.868198,432.973354 C228.498267,432.973354 232.822477,433.858777 257.666599,425.421564 C274.229347,419.796755 284.141298,413.662062 287.402452,407.017484 L315.402552,360.540526 Z" id="h4"></path>
            <path d="M189.356602,362.642067 L262.24557,314.736896 C271.3162,308.421035 279.340655,308.421035 286.318936,314.736896 C293.297216,321.052758 286.653182,334.104423 266.386832,353.89189 C236.110621,379.297297 214.125336,392 200.43098,392 C179.889444,392 179.889444,392 177,385.08692 C177,376.744222 181.118867,369.262605 189.356602,362.642067 Z" id="h3"></path>
            <path d="M152.086475,190.18698 C144.411232,200.248726 134.967563,208.045686 123.755468,213.577862 C106.937325,221.876125 77.1044672,243.470935 57.7805834,233.357569 C38.4566997,223.244204 35.70397,203.458143 39.415773,199.976854 C43.1275761,196.495564 60.7830753,173.018483 81.3281743,164.770364 C95.0249067,159.271617 112.986369,155.681496 135.21256,154 C144.048384,154.93008 150.980005,158.520201 156.007421,164.770364 C161.034838,171.020526 159.727856,179.492732 152.086475,190.18698 Z" id="h2"></path>
            <path d="M13.4257447,198.325441 C19.7480482,205.336542 27.3069212,204.460984 36.1023633,195.698766 C49.2955266,182.555437 68.3547906,157.228358 99.9740972,154.33194 C121.053635,152.400994 130.651697,141.684246 128.768285,122.181694 C123.258986,109.794899 115.730898,104.105611 106.184019,105.11383 C91.8637011,106.626159 57.4229267,118.523301 52.6404332,121.027464 C47.8579396,123.531627 12.442476,147.928559 8.28466716,166.697558 C5.51279459,179.210224 7.2264871,189.752851 13.4257447,198.325441 Z" id="h1"></path>
        </g>
    </g>
</svg>