<?xml version="1.0" encoding="UTF-8"?>
<svg width="632px" height="475px" viewBox="0 0 632 475" version="1.1" xmlns="http://www.w3.org/2000/svg" xmlns:xlink="http://www.w3.org/1999/xlink">
    <!-- Generator: Sketch 64 (93537) - https://sketch.com -->
    <title>Group 7</title>
    <desc>Created with Sketch.</desc>
    <g id="Page-1" stroke="none" stroke-width="1" fill="none" fill-rule="evenodd">
        <g id="Group-7" transform="translate(0.659592, 1.022905)" fill="#FFFFFF">
            <path d="M630.840408,0 L579.414322,0 C554.85456,2.12073794 532.576931,5.74685142 512.581436,10.8783404 C492.58594,16.0098294 399.472682,40.6508235 233.241661,84.8013227 C206.485178,93.5412125 176.399819,99.9377065 142.985583,103.990805 C92.8642286,110.070452 54.3732964,124.140356 32.7181269,144.099323 C11.0629575,164.05829 -9.4796747,191.109385 4.66169889,216.888327 C18.8030725,242.66727 36.5893756,268.715413 59.8192499,273.784962 C83.0491242,278.854511 95.8955699,282.761974 117.534063,271.722364 C139.172557,260.682754 175.329158,242.082345 199.406298,242.082345 C223.483437,242.082345 242.238774,240.978824 256.336684,258.678175 C265.735291,270.477743 276.42002,286.741197 288.390869,307.468535 C293.050936,316.617388 290.298358,324.933978 280.133133,332.418306 C269.967909,339.902633 241.658529,358.401048 195.204993,387.913549 C181.226301,397.159738 177.731628,410.357854 184.720974,427.507897 C191.71032,444.65794 196.605428,454.821278 199.406298,457.997911 C207.62877,467.51649 215.323615,472.27578 222.490834,472.27578 C233.241661,472.27578 246.764909,476.731743 272.097234,466.772887 C297.429558,456.81403 309.17329,452.830035 317.435552,437.610494 C325.697815,422.390953 345.755873,384.289471 358.125499,376.731198 C370.495126,369.172926 393.104299,356.226073 428.127239,346.862552 C463.150179,337.499032 510.419377,332.804255 528.91666,328.436574 C547.413942,324.068893 570.840287,314.589927 589.807274,316.244643 C602.451931,317.347787 616.296309,318.599577 631.340408,320.000011" id="hangboard" stroke="#000000"></path>
            <path d="M140.001072,110.682638 C154.010556,110.109449 163.39238,116.619754 168.146544,130.213553 C172.900709,143.807352 187.909437,147.906225 213.172729,142.51017 C223.214657,139.545932 239.475785,133.170254 261.956114,123.383137 C295.676607,108.70246 375.702495,69.2894194 402.327627,64.5520884 C428.952759,59.8147573 481.90546,54.3012737 492.969195,57.8925627 C500.345018,60.2867553 509.562162,61.416904 520.620625,61.2830088 C509.256646,54.5732484 502.689646,50.7031742 500.919624,49.6727864 C498.264592,48.1272046 480.373176,40.7381725 459.308557,43.3726395 C438.243937,46.0071064 426.530531,49.7112645 423.411914,47.8591855 C421.332835,46.6244661 420.293296,45.1289508 420.293296,43.3726395 C317.467405,69.7218694 260.952548,84.5042986 250.748727,87.7199274 C235.442996,92.5433704 188.765646,105.185563 164.383359,107.089801 C148.128501,108.359293 140.001072,109.556905 140.001072,110.682638 Z" id="h11"></path>
            <path d="M520.523854,66.9586615 C530.395255,68.2412791 537.085901,71.7874519 540.595792,77.5971801 C545.860628,86.3117723 546.238002,99.5212867 540.595792,99.5212867 C534.953581,99.5212867 463.175089,98.2570593 446.281593,104.804969 C429.388096,111.352879 348.602317,122.478813 310.805949,147.547706 C285.60837,164.260301 268.464518,165.374039 259.374392,150.88892 C254.745263,141.329945 258.017684,133.850542 269.191654,128.45071 C280.365624,123.050878 304.742862,111.708138 342.323366,94.4224903 C373.384472,80.2381591 394.94675,72.1147716 407.0102,70.0523276 C425.105375,66.9586615 473.157927,61.9770954 483.641445,61.9770954 C487.911335,61.9770954 495.570928,61.9770954 503.430606,64.7861227 C506.077177,65.7319999 511.774926,66.4561795 520.523854,66.9586615 Z" id="h10"></path>
            <path d="M631.340408,130.944997 L494.152718,130.944997 C462.819543,134.496313 442.932298,138.877046 434.490981,144.087193 C426.049665,149.29734 423.503328,156.539905 426.851971,165.814887 C432.726941,175.54868 441.406432,180.415577 452.890443,180.415577 C470.11646,180.415577 509.59608,174.701326 523.903227,174.701326 C538.210374,174.701326 560.946134,189.915446 566.218891,189.915446 C571.491648,189.915446 620.32272,193.733984 630.840408,193.733984" id="h9" stroke="#000000"></path>
            <path d="M631.340408,3.59395932 L582.786084,3.59395932 C548.664928,8.20278101 526.269914,11.9292141 515.601042,14.7732585 C504.93217,17.617303 480.598227,24.0614099 442.599212,34.1055791 C441.6209,37.8264686 443.416189,39.6869133 447.985079,39.6869133 C454.838414,39.6869133 463.001835,37.1288773 479.932971,35.1381433 C496.864107,33.1474092 515.759493,36.8093172 522.478078,39.6869133 C529.196663,42.5645093 539.450019,51.72076 545.455257,53.2289139 C551.460495,54.7370679 600.621161,56.5939593 631.340408,56.5939593" id="h8"></path>
            <path d="M562.599444,133.977095 L499.161614,133.977095 C472.800627,136.857955 456.069241,140.411643 448.967458,144.63816 C441.865674,148.864676 439.723409,154.739908 442.540664,162.263854 C447.483349,170.159992 454.785512,174.108061 464.447152,174.108061 C478.939613,174.108061 512.154305,169.472611 524.191085,169.472611 C536.227865,169.472611 555.355741,181.814438 559.791776,181.814438 C564.824197,182.349764 567.340408,181.563719 567.340408,179.456301 C567.340408,177.348883 567.340408,165.052621 567.340408,142.567514 L567.340408,137.097094 C567.340408,135.017095 565.760087,133.977095 562.599444,133.977095 Z" id="h7"></path>
            <path d="M490.181354,278.324076 C525.580177,279.706319 536.797407,265.335818 534.527172,253.588176 C532.256937,241.840534 518.788927,234.714477 489.901612,231.827634 C461.014298,228.940792 444.573129,238.975645 444.573129,253.611191 C444.573129,268.246736 454.782532,276.941833 490.181354,278.324076 Z" id="h6" stroke="#000000" transform="translate(489.690412, 254.874152) rotate(-10.000000) translate(-489.690412, -254.874152) "></path>
            <rect id="h5" stroke="#000000" transform="translate(357.016656, 252.048870) rotate(-25.000000) translate(-357.016656, -252.048870) " x="333.016656" y="204.04887" width="48" height="96" rx="23.5"></rect>
            <path d="M339.618159,388.479332 C341.914491,386.620501 341.914491,384.278851 339.618159,381.454383 C336.173661,377.217681 330.003674,373.408041 324.247543,378.215892 C318.491413,383.023744 288.441027,408.111615 274.535385,413.902306 C265.264957,417.762767 246.008225,422.513649 216.76519,428.154953 C209.861292,430.351391 205.698019,433.90953 204.27537,438.829369 C202.141396,446.209127 204.168756,452.638232 205.332875,454.05345 C206.496994,455.468668 216.534641,466.948229 231.229559,466.948229 C245.924477,466.948229 250.586516,467.907437 277.371585,458.767123 C295.228298,452.67358 305.91462,446.027662 309.430551,438.829369 L339.618159,388.479332 Z" id="h4"></path>
            <path d="M203.656173,390.416865 L282.40229,339.006438 C292.20181,332.22844 300.871087,332.22844 308.410123,339.006438 C315.949158,345.784436 308.771228,359.791101 286.876332,381.026432 C254.167211,408.290771 230.415252,421.92294 215.620456,421.92294 C193.428261,421.92294 193.428261,421.92294 190.30663,414.504025 C190.30663,405.550886 194.756477,397.521833 203.656173,390.416865 Z" id="h3"></path>
            <path d="M164.007847,204.644785 C155.72574,215.441391 145.535381,223.807803 133.436771,229.744022 C115.288855,238.648349 83.0971805,261.820337 62.2454006,250.968341 C41.3936208,240.116346 38.4232389,218.885208 42.4285259,215.149663 C46.4338129,211.414117 65.4852928,186.222386 87.6548467,177.371865 C102.434549,171.471517 121.816184,167.619191 145.79975,165.814887 C155.334203,166.812895 162.813891,170.665221 168.238814,177.371865 C173.663737,184.078508 172.253415,193.169482 164.007847,204.644785 Z" id="h2"></path>
            <path d="M15.2401828,213.92094 C22.0288858,221.504376 30.1453805,220.557343 39.5896668,211.079842 C53.7560962,196.863589 74.2213715,169.468993 108.17325,166.336132 C130.807836,164.247558 141.113952,152.655974 139.091599,131.561377 C133.175877,118.163415 125.092438,112.009695 114.841281,113.100218 C99.464546,114.736002 62.4830586,127.604339 57.3477582,130.312924 C52.2124577,133.021508 14.1843779,159.410027 9.71984544,179.711189 C6.74349046,193.245297 8.58360291,204.648547 15.2401828,213.92094 Z" id="h1"></path>
        </g>
    </g>
</svg>