<?xml version="1.0" encoding="UTF-8"?>
<svg width="644px" height="505px" viewBox="0 0 644 505" version="1.1" xmlns="http://www.w3.org/2000/svg" xmlns:xlink="http://www.w3.org/1999/xlink">
    <!-- Generator: Sketch 64 (93537) - https://sketch.com -->
    <title>Group 2</title>
    <desc>Created with Sketch.</desc>
    <g id="Page-1" stroke="none" stroke-width="1" fill="none" fill-rule="evenodd">
        <g id="Group-2" transform="translate(1.254667, 1.060550)">
            <path d="M642.745333,86.8754683 C537.013359,85.1707597 475.015036,82.6079612 456.750363,79.1870728 C429.353353,74.0557402 404.493815,70.995395 378.89354,43.7214141 C353.293266,16.4474331 328.700291,0 293.060341,0 C257.420391,0 195.444556,22.0102811 159.522665,54.4428747 C123.600774,86.8754683 69.5756853,146.658201 52.3695736,185.545602 C35.163462,224.433004 7.01468332,301.064663 1.74533294,376.253295 C-3.52401744,451.441927 3.41942908,480.005148 18.7775433,490.675347 C34.1356576,501.345546 62.9936363,502.942359 77.1291504,502.942359 C91.2646644,502.942359 119.422916,501.860729 134.11975,480.602351 C143.917639,466.4301 150.237982,455.569591 153.080778,448.020827 C158.622687,437.156217 168.078941,431.723912 181.44954,431.723912 C194.82014,431.723912 230.03914,432.79654 287.106539,434.941795 C301.070178,434.509764 310.272108,430.433141 314.712332,422.711926 C319.152555,414.990711 323.477116,407.690353 327.686016,400.810852 C331.246544,394.542153 340.066989,391.407804 354.147353,391.407804 C368.227717,391.407804 418.324635,390.25856 504.438106,387.960073 C539.191023,384.879461 557.983286,379.881847 560.814895,372.967231 C565.062308,362.595306 567.759839,358.202641 567.759839,345.094878 C567.759839,331.987115 568.805448,304.209877 594.199961,295.672771 C619.594475,287.135666 622.740638,291.869189 642.745333,291.869189" id="board" stroke="#000000" fill="#FFFFFF"></path>
            <path d="M206.339129,32.8347683 C256.680201,12.2739678 292.230708,5.51798701 312.990652,12.5668259 C344.130566,23.1400843 367.589972,39.6030115 371.990391,48.5860238 C376.390811,57.5690361 395.737857,67.0115218 401.439505,78.4253221 C407.141152,89.8391223 403.465314,93.5361694 398.308172,100.659954 C393.15103,107.783739 375.803563,112.231501 365.073476,106.445728 C354.343389,100.659954 321.170963,79.3121061 302.58732,73.2327087 C284.003677,67.1533114 233.140647,68.9927854 228.406258,65.9630501 C226.455849,64.7149012 195.638601,59.6606419 195.638601,48.5860238 C195.638601,41.2029451 199.205444,35.9525266 206.339129,32.8347683 Z" id="h9" fill="#FFFFFF"></path>
            <circle id="h8" stroke="#000000" fill="#FFFFFF" cx="280.745333" cy="122.93945" r="34"></circle>
            <path d="M144.636676,47.6834708 C154.025517,47.6834708 161.636676,55.29463 161.636676,64.6834708 L161.636676,220.683471 C161.636676,230.072312 154.025517,237.683471 144.636676,237.683471 C135.247836,237.683471 127.636676,230.072312 127.636676,220.683471 L127.636676,64.6834708 C127.636676,55.29463 135.247836,47.6834708 144.636676,47.6834708 Z" id="h7" stroke="#000000" fill="#FFFFFF" transform="translate(144.636676, 142.683471) rotate(44.000000) translate(-144.636676, -142.683471) "></path>
            <ellipse id="h6" stroke="#000000" fill="#FFFFFF" cx="48.2453329" cy="422.93945" rx="33.5" ry="47"></ellipse>
            <path d="M281.033894,224.021793 C282.948053,227.717131 288.799416,250.688099 298.587982,292.934699 C303.499992,318.476804 292.776397,332.253259 266.417198,334.264063 C240.058,336.274867 209.275365,338.89092 174.069294,342.112221 C117.409779,346.120031 98.1815015,335.564877 116.384463,310.446759 C143.688904,272.769582 154.924467,236.82299 191.47024,222.193767 C228.016012,207.564544 238.111619,207.745089 253.456992,210.18998 C268.802365,212.634871 278.162655,218.478787 281.033894,224.021793 Z" id="h5" stroke="#000000" fill="#FFFFFF"></path>
            <path d="M434.451558,348.47457 C490.572202,350.281038 506.959294,354.876333 525.879262,348.535996 C539.229799,344.06205 540.72153,325.945783 538.386658,319.858201 C532.742877,305.143485 488.39969,304.086958 432.42505,301.325075 C376.450409,298.563191 334.386658,299.97595 334.386658,319.858201 C334.386658,339.740452 378.330914,346.668102 434.451558,348.47457 Z" id="h4" stroke="#000000" fill="#FFFFFF" transform="translate(436.841156, 326.017428) rotate(-6.000000) translate(-436.841156, -326.017428) "></path>
            <ellipse id="h3" stroke="#000000" fill="#FFFFFF" cx="368.245333" cy="176.43945" rx="49.5" ry="32.5"></ellipse>
            <ellipse id="h2" stroke="#000000" fill="#FFFFFF" cx="527.745333" cy="193.93945" rx="84" ry="46"></ellipse>
            <path d="M471.422836,88.9394495 C461.138855,88.1725484 451.913021,90.0577772 443.745333,94.5951358 C431.493801,101.401174 429.703606,126.619223 443.745333,126.619223 C457.78706,126.619223 484.174558,126.619223 505.959946,126.619223 C527.745333,126.619223 593.69131,127.84885 607.214877,132.016961 C620.738444,136.185072 631.590025,130.298996 631.590025,126.619223 C631.590025,124.166041 631.590025,116.482816 631.590025,103.569548 C629.984806,97.5866065 626.034101,94.5951358 619.73791,94.5951358 C610.293624,94.5951358 560.944338,92.7779674 551.453465,92.7779674 C541.962592,92.7779674 512.459097,92.7779674 489.07234,90.5209884 C473.481169,89.0163357 467.598001,88.4891561 471.422836,88.9394495 Z" id="h1"></path>
        </g>
    </g>
</svg>