<?xml version="1.0" encoding="UTF-8"?>
<svg width="665px" height="367px" viewBox="0 0 665 367" version="1.1" xmlns="http://www.w3.org/2000/svg" xmlns:xlink="http://www.w3.org/1999/xlink">
    <title>ALTISSIMOPAPILLON</title>
    <g id="Page-1" stroke="none" stroke-width="1" fill="none" fill-rule="evenodd">
        <g id="ALTISSIMOPAPILLON" transform="translate(0.573007, 1.041970)" fill="#FFFFFF">
            <path d="M663.426993,19.2926596 C635.381202,11.7777367 604.609667,9.16804344 571.112388,11.4635798 C567.684334,13.5021726 561.073179,14.521469 551.278925,14.521469 C536.587543,14.521469 436.15671,5.14276339 351.888798,1.17189832 C267.620887,-2.79896675 226.734699,14.521469 189.014181,14.521469 C151.293662,14.521469 111.01432,9.53663263 74.4269929,9.53663263 C37.8396655,9.53663263 0,31.6554061 0,66.6140723 C0,101.572739 0.658650645,134.722188 43.247035,155.855127 C85.8354194,176.988065 106.797274,182.772574 145.533333,234.817784 C184.269392,286.862994 194.75676,340.177355 227.106445,351.913203 C248.672902,359.737102 265.219337,358.99727 276.745752,349.693706 C290.40302,341.613463 307.039923,338.261674 326.656459,339.638341 C356.081265,341.70334 408.094986,364.888102 437.974569,364.888102 C467.854151,364.888102 552.646319,364.888102 575.820514,364.888102 C591.269978,364.888102 620.472137,363.899545 663.426993,361.92243" id="board" stroke="#000000"></path>
            <path d="M222.346053,215.811969 C254.506935,216.768347 271.052938,226.893714 271.984062,246.188071 C273.380748,275.129605 241.980164,287.020259 227.894713,285.155853 C213.809262,283.291448 181.912395,280.88352 181.912395,250.57817 C181.912395,230.374603 195.390281,218.785869 222.346053,215.811969 Z" id="h7" stroke="#000000"></path>
            <path d="M663.426993,182.734224 C615.745547,188.476411 591.904824,199.911267 591.904824,217.038793 C591.904824,242.730083 603.096695,257.2025 618.903547,257.2025 C634.710399,257.2025 639.399022,243.565937 663.426993,243.565937" id="h9" stroke="#000000"></path>
            <path d="M342.960171,303.53735 C352.45551,304.002597 361.018303,299.548731 366.588112,296.719736 C399.408837,280.049559 409.781453,271.444834 461.101372,271.444834 C512.421291,271.444834 534.431937,301.565249 560.864947,301.565249 C587.297957,301.565249 581.468209,275.200818 572.328359,264.336889 C563.18851,253.47296 557.775364,225.102698 454.415189,225.102698 C385.508406,225.102698 344.607842,242.744942 331.713496,278.02943 C328.86479,286.292867 328.09793,291.915807 329.412916,294.898249 C331.385395,299.371913 333.464832,303.072104 342.960171,303.53735 Z" id="h8" stroke="#000000"></path>
            <path d="M225.005675,73.7476504 C260.936331,77.8821299 282.738539,88.7569929 290.4123,106.372239 C301.92294,132.795109 277.391434,152.465157 252.677483,150.122158 C227.963533,147.77916 142.523639,146.029795 142.523639,108.55089 C142.523639,83.5649528 170.017651,71.963873 225.005675,73.7476504 Z" id="h5" stroke="#000000"></path>
            <path d="M445.190191,128.747664 C508.004494,127.405389 539.411645,134.593354 539.411645,150.31156 C539.411645,173.88887 474.553629,161.09977 451.367587,161.09977 C428.181545,161.09977 416.688769,173.09449 381.949339,169.753809 C358.789719,167.526688 345.79333,160.763856 342.960171,149.465312 C344.281065,137.447438 352.829313,131.438501 368.604914,131.438501 C384.380516,131.438501 409.908941,130.541555 445.190191,128.747664 Z" id="h6" stroke="#000000"></path>
            <path d="M663.426993,1.21446144 C657.225957,0.939273244 652.459279,1.99848933 649.12696,4.3921097 C644.128481,7.98254024 639.623143,9.98802404 634.710399,10.5643613 C634.710399,10.5643613 644.282597,24.6687523 663.426993,52.8775342" id="h4" stroke="#000000"></path>
            <path d="M663.426993,52.8775342 L634.710399,10.5643613 C629.698054,10.0053118 624.131767,7.75279661 618.011537,3.80681575 C611.891307,-0.139165103 603.738551,-1.01747091 593.553269,1.17189832 C582.709892,4.48531537 575.229598,7.91587586 571.112388,11.4635798 C564.936574,16.7851357 550.810333,33.4900682 549.114937,59.3322247 C547.984673,76.560329 559.243534,93.6187359 582.89152,110.507445 C608.846726,126.413637 635.691884,134.366733 663.426993,134.366733" id="h3" stroke="#000000"></path>
            <path d="M198.670689,55.9344788 C219.357452,36.8580257 229.700833,25.2357349 229.700833,21.0676066 C229.700833,21.0676066 493.431513,15.5078125 534.505534,27.0044276 C534.505534,27.0044276 505.228779,68.9977077 529.339921,88.4684618 C529.339921,88.4684618 461.566253,93.5755468 333.155686,79.5803127 C310.42839,77.1033061 289.134447,58.5654174 262.394086,55.9344788 C248.949405,54.6116795 227.708273,54.6116795 198.670689,55.9344788 Z" id="h2"></path>
            <path d="M212.121219,23.2925307 C192.12409,26.0645713 177.966335,27.5299021 169.647952,27.6885232 C135.231674,28.3447984 115.047936,24.695315 110.984535,23.2925307 C102.679662,20.425488 65.6362082,19.5324274 49.7920966,25.5296307 C33.947985,31.526834 13.9246306,52.6865961 13.9246306,77.7040873 C13.9246306,102.721579 20.519549,133.675025 49.7920966,141.993293 C69.3071284,147.538804 93.7895203,142.609943 123.239272,127.206708 C124.64261,89.3298941 135.548924,69.0690756 155.958213,66.4242523 C176.367503,63.779429 195.088505,49.4021884 212.121219,23.2925307 Z" id="h1"></path>
        </g>
    </g>
</svg>