<?xml version="1.0" encoding="UTF-8"?>
<svg width="608px" height="334px" viewBox="0 0 608 334" version="1.1" xmlns="http://www.w3.org/2000/svg" xmlns:xlink="http://www.w3.org/1999/xlink">
    <title>ANT1</title>
    <g id="Page-1" stroke="none" stroke-width="1" fill="none" fill-rule="evenodd">
        <g id="ANT1" transform="translate(304.500000, 166.500000) scale(-1, 1) translate(-304.500000, -166.500000) " fill="#FFFFFF" fill-rule="nonzero">
            <g id="board" transform="translate(0.805900, 0.960000)">
                <path d="M0.194100133,0.04 L399.304963,0.04 C399.613342,0.04 399.920696,0.0789793088 400.222124,0.149996667 L433.239922,7.9897591 C434.170774,8.20895 435.009106,8.75736377 435.624542,9.54971183 L552.746009,160.245145 C553.075799,160.677769 553.336261,161.16797 553.516424,161.695101 L606.941056,323.730191 C607.415206,325.175121 607.215439,326.78118 606.405454,328.03624 C605.595469,329.2913 604.2764,330.04 602.86886,330.04 C222.404684,331.373333 21.5130968,332.026667 0.194100133,332" id="Path" stroke="#000000"></path>
                <line x1="433.1941" y1="7.79" x2="1.19410013" y2="7.29" id="Path" stroke="#292929"></line>
                <g id="Group-2" transform="translate(0.194100, 16.040000)">
                    <g id="Group-5" transform="translate(354.140624, 0.352152)" stroke="#292929">
                        <circle id="Oval" transform="translate(35.320000, 35.960278) rotate(-20.420000) translate(-35.320000, -35.960278) " cx="35.3200001" cy="35.9602782" r="27.3200001"></circle>
                        <circle id="Oval" stroke-linejoin="round" transform="translate(35.320000, 35.960278) rotate(-20.420000) translate(-35.320000, -35.960278) " cx="35.3200001" cy="35.9602782" r="12.07"></circle>
                        <path d="M33.6093762,30.0428 L35.9193762,32.7728 C35.9933102,32.8723747 36.1272812,32.9058675 36.2393762,32.8528 L39.5293762,31.4828 C39.5293762,31.4828 39.5293762,31.4828 39.5293762,31.4828 L38.3193762,34.8428 C38.2821362,34.9578568 38.3176202,35.0840232 38.4093762,35.1628 L41.2493762,37.3328 C41.2493762,37.3328 41.2493762,37.3328 41.2493762,37.3328 L37.7393762,37.9628 C37.6199172,37.9865621 37.5280362,38.0824381 37.5093762,38.2028 L37.0493762,41.7428 C37.0493762,41.7428 37.0493762,41.7428 37.0493762,41.7428 L34.7493762,39.0128 C34.6682552,38.9246249 34.5424482,38.8931731 34.4293762,38.9328 L31.1293762,40.3028 C31.1293762,40.3028 31.1293762,40.3028 31.1293762,40.3028 L32.3393762,36.9428 C32.3812492,36.8309347 32.3446442,36.7048502 32.2493762,36.6328 L29.4193762,34.4628 C29.4193762,34.4628 29.4193762,34.4628 29.4193762,34.4628 L32.9393762,33.8328 C33.0581202,33.8109844 33.1479492,33.7129893 33.1593762,33.5928 L33.6293762,30.0528 C33.6293762,30.0528 33.6093762,30.0328 33.6093762,30.0428 L33.6093762,30.0428 Z" id="Path" stroke-linejoin="round"></path>
                    </g>
                    <g id="Group-4" transform="translate(502.593217, 228.167978)" stroke="#292929">
                        <circle id="Oval" transform="translate(35.320000, 35.320000) rotate(-69.580000) translate(-35.320000, -35.320000) " cx="35.3200001" cy="35.3200001" r="27.3200001"></circle>
                        <circle id="Oval" stroke-linejoin="round" transform="translate(35.320000, 35.320000) rotate(-69.580000) translate(-35.320000, -35.320000) " cx="35.3200001" cy="35.3200001" r="12.07"></circle>
                        <path d="M33.6367831,41.2169741 L35.9367831,38.4869741 C36.0128711,38.3906791 36.1443311,38.3578141 36.2567831,38.4069741 L39.5567831,39.7769741 L38.4067831,36.3969741 C38.3571121,36.2855241 38.3951521,36.1544981 38.4967831,36.0869741 L41.3267831,33.9069741 C41.3267831,33.9069741 41.3267831,33.9069741 41.3267831,33.9069741 L37.8067831,33.2769741 C37.6873241,33.2532121 37.5954431,33.1573361 37.5767831,33.0369741 L37.1167831,29.4969741 L34.8167831,32.2269741 C34.7388101,32.3203061 34.6095041,32.3526331 34.4967831,32.3069741 L31.2067831,30.9369741 C31.2067831,30.9369741 31.2067831,30.9369741 31.2067831,30.9369741 L32.4267831,34.2969741 C32.4665531,34.4110431 32.4257131,34.5376471 32.3267831,34.6069741 L29.4067831,36.8069741 C29.4067831,36.8069741 29.4067831,36.8069741 29.4067831,36.8069741 L32.9167831,37.4369741 C33.0362421,37.4607361 33.1281231,37.5566121 33.1467831,37.6769741 L33.6067831,41.2169741 L33.6367831,41.2169741 Z" id="Path" stroke-linejoin="round"></path>
                    </g>
                    <g id="Group-3" transform="translate(0.000000, 9.000000)">
                        <path d="M1.59872116e-13,54.6965184 C15.0884194,54.6965184 28.1280638,42.3529229 28.1280638,27.2645035 C28.1280638,12.1760841 15.0884194,-1.17239551e-13 1.59872116e-13,-1.17239551e-13" id="Oval" stroke="#292929"></path>
                        <path d="M9.76996262e-15,39.4761681 C6.66607695,39.4761681 12.8780638,33.9305804 12.8780638,27.2645035 C12.8780638,20.5984265 6.72105925,14.9645333 9.76996262e-15,14.9645333" id="Oval" stroke="#292929" stroke-linejoin="round"></path>
                        <polyline id="Star" stroke="#000000" transform="translate(3.000000, 26.305079) rotate(180.000000) translate(-3.000000, -26.305079) " points="6 28.8050795 5.5 28.8050795 2.75 30.6352065 3.11843014 27.5550795 -1.41368219e-12 26.3050795 3.11843014 25.0550795 2.75 21.9749525 5.5 23.8050795 6 23.8050795"></polyline>
                    </g>
                </g>
            </g>
            <g id="holds" transform="translate(1.000000, 26.000000)" stroke="#000000">
                <circle id="h10" cx="460.27" cy="254.53" r="21.86"></circle>
                <circle id="h9" cx="386.95" cy="254.53" r="21.86"></circle>
                <path d="M163.78,279.910053 C156.790961,279.927302 150.496555,275.684817 147.89,269.2 L140.35,250.58 C138.398633,245.780054 138.964577,240.323673 141.859522,236.026394 C144.754468,231.729115 149.598563,229.154793 154.78,229.159992 L296.68,229.159992 C303.169664,229.172388 308.92966,233.319424 311,239.47 L318.65,262.14 C320.039106,266.249718 319.362283,270.777023 316.831986,274.300799 C314.30169,277.824574 310.228132,279.912806 305.89,279.910053 L163.78,279.910053 Z" id="h8"></path>
                <path d="M0,277.012829 C12.0729446,277.012829 21,266.932945 21,254.86 C21,242.787055 12.0729446,233.013799 0,233.013799" id="h7"></path>
                <path d="M354.93,203.08027 C347.924704,203.119305 341.607412,198.872085 339,192.37 L331.45,173.75 C329.503943,168.949985 330.072219,163.49649 332.966085,159.200815 C335.85995,154.90514 340.700494,152.33 345.88,152.33 L515.56,152.33 C522.061408,152.334471 527.83715,156.481261 529.92,162.64 L537.56,185.31 C538.94854,189.418046 538.27286,193.943454 535.7449,197.466735 C533.216941,200.990016 529.146368,203.079583 524.81,203.08027 L354.93,203.08027 Z" id="h6"></path>
                <path d="M136,203.080053 C129.010961,203.097302 122.716555,198.854817 120.11,192.37 L112.57,173.75 C110.623943,168.949985 111.192219,163.49649 114.086085,159.200815 C116.97995,154.90514 121.820494,152.33 127,152.33 L269,152.33 C275.499711,152.332607 281.273525,156.480901 283.35,162.64 L291,185.31 C292.38854,189.418046 291.71286,193.943454 289.1849,197.466735 C286.656941,200.990016 282.586368,203.080053 278.25,203.080053 L136,203.080053 Z" id="h5"></path>
                <path d="M443.47,127.64 C438.889027,127.64 434.597699,125.399383 431.98,121.64 L416.88,100.12 C413.723414,95.6071903 413.341758,89.7123625 415.890074,84.8301934 C418.438389,79.9480244 423.492787,76.8906198 429,76.8999785 L452.7,76.8999785 C457.843812,76.9023601 462.735989,79.1260767 466.12,83 L483.79,103.31 C487.562786,107.650843 488.453237,113.79498 486.068004,119.028286 C483.68277,124.261592 478.461246,127.620016 472.71,127.62 L443.47,127.64 Z" id="h4"></path>
                <path d="M109,127.640053 C102.010961,127.657302 95.7165546,123.414817 93.11,116.93 L85.57,98.31 C83.6229529,93.5111389 84.1910617,88.058076 87.0854669,83.7636052 C89.979872,79.4691344 94.8211927,76.8961483 100,76.8999957 L339.43,76.8999957 C344.963257,76.8999957 350.228568,79.2825993 353.88,83.44 L372.79,105 C376.325525,109.026319 377.176162,114.749709 374.964413,119.630216 C372.752664,124.510723 367.88828,127.644177 362.53,127.640053 L109,127.640053 Z" id="h3"></path>
                <path d="M109,127.640053 C102.010961,127.657302 95.7165546,123.414817 93.11,116.93 L85.57,98.31 C83.6229529,93.5111389 84.1910617,88.058076 87.0854669,83.7636052 C89.979872,79.4691344 94.8211927,76.8961483 100,76.8999957 L241.89,76.8999957 C248.388061,76.8980781 254.162681,81.042927 256.24,87.2 L263.89,109.88 C265.274534,113.986806 264.595427,118.509041 262.069432,122.029652 C259.541967,125.550263 255.473911,127.638497 251.14,127.640053 L109,127.640053 Z" id="h2"></path>
                <path d="M75.07,49.1601115 C69.8656785,49.1818063 65.1825818,46.0041325 63.28,41.16 L56.52,23.93 C54.4757122,18.7303741 55.1350102,12.8562532 58.2811018,8.23918377 C61.4271933,3.62211435 66.6529416,0.859970508 72.24,0.859970508 L274.69,0.859970508 C280.689888,0.849648941 286.369831,3.56454423 290.13,8.24 L309.86,32.68 C312.30903,35.7111594 312.80007,39.8792148 311.122516,43.3965277 C309.444963,46.9138407 305.896878,49.155469 302,49.1601115 L75.07,49.1601115 Z" id="h1"></path>
            </g>
        </g>
    </g>
</svg>