<?xml version="1.0" encoding="UTF-8"?>
<svg width="204px" height="114px" viewBox="0 0 204 114" version="1.1" xmlns="http://www.w3.org/2000/svg" xmlns:xlink="http://www.w3.org/1999/xlink">
    <!-- Generator: Sketch 54.1 (76490) - https://sketchapp.com -->
    <title>ANT1</title>
    <desc>Created with Sketch.</desc>
    <g id="Page-1" stroke="none" stroke-width="1" fill="none" fill-rule="evenodd">
        <g id="ANT1" transform="translate(1.000000, 1.000000)" stroke="#000000">
            <g id="hangboard">
                <polyline id="Path" fill="#D8D8D8" stroke-linejoin="round" points="203 0.27734375 73.3271484 0.27734375 61.2246094 4.72216797 203 4.72216797"></polyline>
                <path d="M203,4.72216797 L61.2246094,4.72216797 L21.1289063,53.1435547 C20.039388,54.7167969 18.6831055,57.7963867 17.0600586,62.3823242 C15.4370117,66.9682617 9.75032552,83.507487 -1.25481847e-10,112 L203,112.196" id="Path-2" fill="#D0D2D3" stroke-linejoin="round"></path>
                <path d="M194,26 C198.970563,26 203,21.9705627 203,17 C203,12.0294373 198.970563,8 194,8" id="Oval" fill="#9DA6A6" transform="translate(198.500000, 17.000000) rotate(180.000000) translate(-198.500000, -17.000000) "></path>
                <circle id="Oval" fill="#9DA6A6" cx="24" cy="94" r="9"></circle>
                <circle id="Oval" fill="#B1BCB4" cx="24" cy="94" r="4"></circle>
                <circle id="Oval" fill="#494949" cx="24" cy="94" r="2"></circle>
                <path d="M199,21 C201.209139,21 203,19.209139 203,17 C203,14.790861 201.209139,13 199,13" id="Oval" fill="#B1BCB4" transform="translate(201.000000, 17.000000) rotate(180.000000) translate(-201.000000, -17.000000) "></path>
                <path d="M201,19 C202.104569,19 203,18.1045695 203,17 C203,15.8954305 202.104569,15 201,15" id="Oval" fill="#494949" transform="translate(202.000000, 17.000000) rotate(180.000000) translate(-202.000000, -17.000000) "></path>
                <circle id="Oval" fill="#9DA6A6" cx="73" cy="17" r="9"></circle>
                <circle id="Oval" fill="#B1BCB4" cx="73" cy="17" r="4"></circle>
                <circle id="Oval" fill="#494949" cx="73" cy="17" r="2"></circle>
            </g>
            <path d="M194,104 C198.970563,104 203,99.9705627 203,95 C203,90.0294373 198.970563,86 194,86" id="h10" fill="#A6A8AB" transform="translate(198.500000, 95.000000) rotate(180.000000) translate(-198.500000, -95.000000) "></path>
            <path d="M106.069855,86 C104.265658,86 101.348679,86 99.846757,87.8579102 C98.3448352,89.7158203 95.4395902,95.485976 94.6170007,96.8730469 C93.7944113,98.2601177 92.9115769,105.145508 98.3021033,105.145508 C101.895788,105.145508 119.34874,105.145508 150.660962,105.145508 C153.194754,104.147467 154.780739,102.302497 155.418916,99.6106 C156.057092,96.9187026 156.679857,94.5014648 157.287211,92.3588867 C157.977056,88.1196289 156.39294,86 152.534861,86 C146.747744,86 107.874053,86 106.069855,86 Z" id="h9" fill="#D0D2D3"></path>
            <circle id="h8" fill="#D0D2D3" cx="74" cy="95" r="9"></circle>
            <circle id="h7" fill="#D0D2D3" cx="49" cy="95" r="9"></circle>
            <path d="M114.069855,60 C112.265658,60 109.348679,60 107.846757,61.8579102 C106.344835,63.7158203 103.43959,69.485976 102.617001,70.8730469 C101.794411,72.2601177 100.911577,79.1455078 106.302103,79.1455078 C109.895788,79.1455078 127.34874,79.1455078 158.660962,79.1455078 C161.194754,78.1474667 162.780739,76.3024974 163.418916,73.6106 C164.057092,70.9187026 164.679857,68.5014648 165.287211,66.3588867 C165.977056,62.1196289 164.39294,60 160.534861,60 C154.747744,60 115.874053,60 114.069855,60 Z" id="h6" fill="#A6A8AB"></path>
            <path d="M35.7820488,59 C33.7219131,59 30.3911405,59 28.6761605,60.8579102 C26.9611805,62.7158203 23.6438061,68.485976 22.7045266,69.8730469 C21.7652471,71.2601177 20.7571765,78.1455078 26.9123868,78.1455078 C31.0158603,78.1455078 50.9446368,78.1455078 86.6987164,78.1455078 C89.5919452,77.1474667 91.4029128,75.3024974 92.1316193,72.6106 C92.8603258,69.9187026 93.5714346,67.5014648 94.2649456,65.3588867 C95.05265,61.1196289 93.2438154,59 88.8384418,59 C82.2303815,59 37.8421845,59 35.7820488,59 Z" id="h5" fill="#A6A8AB"></path>
            <path d="M95.1088733,34 C92.2524858,34 87.6343543,34 85.2565268,35.8579102 C82.8786993,37.7158203 78.2791446,43.485976 76.9768294,44.8730469 C75.6745141,46.2601177 74.2768195,53.1455078 82.8110466,53.1455078 C88.5005313,53.1455078 116.13187,53.1455078 165.705064,53.1455078 C169.716539,52.1474667 172.227454,50.3024974 173.237809,47.6106 C174.248164,44.9187026 175.234119,42.5014648 176.195675,40.3588867 C177.287831,36.1196289 174.779874,34 168.671803,34 C159.509697,34 97.9652608,34 95.1088733,34 Z" id="h4" fill="#A6A8AB"></path>
            <path d="M127.089075,34.0625 C124.232688,34.0625 119.614556,34.0625 117.236729,35.9204102 C115.65151,37.1590169 114.296071,40.2054036 113.17041,45.0595703 C111.527312,50.4501953 113.550506,53.1455078 119.23999,53.1455078 C124.929475,53.1455078 140.417833,53.1455078 165.705064,53.1455078 C169.716539,52.1474667 172.227454,50.3024974 173.237809,47.6106 C174.248164,44.9187026 175.234119,42.5014648 176.195675,40.3588867 C177.287831,36.1196289 174.779874,34 168.671803,34 C159.509697,34 129.945463,34.0625 127.089075,34.0625 Z" id="h3" fill="#939597"></path>
            <path d="M47.2565268,35.8579102 C44.8786993,37.7158203 40.2791446,43.485976 38.9768294,44.8730469 C37.6745141,46.2601177 36.2768195,53.1455078 44.8110466,53.1455078 C53.3452736,53.1455078 48.571594,53.1455078 51.615631,53.1455078 C54.659668,53.1455078 56.9009408,51.7683062 59.9780273,47.9709473 C63.0551139,44.1735883 63.729021,43.625 65,41.8659668 C66.270979,40.1069336 66.270979,34 57.1088733,34 C54.2524858,34 49.6343543,34 47.2565268,35.8579102 Z" id="h2" fill="#A6A8AB"></path>
            <path d="M113.758301,8 C111.243164,8 107.176758,8 105.083008,9.85791016 C102.989258,11.7158203 98.939209,17.485976 97.7924805,18.8730469 C96.645752,20.2601177 95.4150391,27.1455078 102.929687,27.1455078 C107.939453,27.1455078 132.269694,27.1455078 175.92041,27.1455078 C179.452637,26.1474667 181.663574,24.3024974 182.553223,21.6106 C183.442871,18.9187026 184.311035,16.5014648 185.157715,14.3588867 C186.119391,10.1196289 183.911058,8 178.532715,8 C170.4652,8 116.273438,8 113.758301,8 Z" id="h1" fill="#939597"></path>
        </g>
    </g>
</svg>