<?xml version="1.0" encoding="UTF-8"?>
<svg width="608px" height="332px" viewBox="0 0 608 332" version="1.1" xmlns="http://www.w3.org/2000/svg" xmlns:xlink="http://www.w3.org/1999/xlink">
    <!-- Generator: Sketch 54.1 (76490) - https://sketchapp.com -->
    <title>ANT1</title>
    <desc>Created with Sketch.</desc>
    <g id="Page-1" stroke="none" stroke-width="1" fill="none" fill-rule="evenodd">
        <g id="ANT1" transform="translate(304.500000, 166.000000) scale(-1, 1) translate(-304.500000, -166.000000) translate(1.000000, 0.000000)" fill="#FFFFFF">
            <polygon id="Path" stroke="#292929" fill-rule="nonzero" points="427.8059 8.29 0.805899867 8.75 0.805899867 0.96 399.347798 0.96"></polygon>
            <path d="M0.805899867,1 L398.983239,1 C399.29152,1.00211799 399.598775,1.03898049 399.900107,1.11 L432.907347,8.95 C433.837901,9.16919754 434.675965,9.71762793 435.291204,10.51 L552.375219,161.21 C552.704904,161.642637 552.965283,162.132853 553.145388,162.66 L606.552936,324.7 C607.026935,326.144974 606.827232,327.751081 606.017506,329.006179 C605.20778,330.261277 603.889133,331.008657 602.482043,331.01 L0.805899867,331.01" id="Path" stroke="#292929" fill-rule="nonzero"></path>
            <path d="M431.8059,8.75 L0.805899867,8.75" id="Path" stroke="#292929" fill-rule="nonzero"></path>
            <circle id="Oval" stroke="#292929" fill-rule="nonzero" transform="translate(389.460624, 53.312431) rotate(-20.420000) translate(-389.460624, -53.312431) " cx="389.460624" cy="53.3124306" r="27.3200001"></circle>
            <circle id="Oval" stroke="#292929" fill-rule="nonzero" stroke-linejoin="round" transform="translate(389.460624, 53.312431) rotate(-20.420000) translate(-389.460624, -53.312431) " cx="389.460624" cy="53.3124306" r="12.07"></circle>
            <path d="M387.75,47.42 L390.06,50.15 C390.133934,50.2495747 390.267905,50.2830675 390.38,50.23 L393.67,48.86 C393.67,48.86 393.67,48.86 393.67,48.86 L392.46,52.22 C392.42276,52.3350568 392.458244,52.4612232 392.55,52.54 L395.39,54.71 C395.39,54.71 395.39,54.71 395.39,54.71 L391.88,55.34 C391.760541,55.3637621 391.66866,55.4596381 391.65,55.58 L391.19,59.12 C391.19,59.12 391.19,59.12 391.19,59.12 L388.89,56.39 C388.808879,56.3018249 388.683072,56.2703731 388.57,56.31 L385.27,57.68 C385.27,57.68 385.27,57.68 385.27,57.68 L386.48,54.32 C386.521873,54.2081347 386.485268,54.0820502 386.39,54.01 L383.56,51.84 C383.56,51.84 383.56,51.84 383.56,51.84 L387.08,51.21 C387.198744,51.1881844 387.288573,51.0901893 387.3,50.97 L387.77,47.43 C387.77,47.43 387.75,47.41 387.75,47.42 L387.75,47.42 Z" id="Path" stroke="#292929" fill-rule="nonzero" stroke-linejoin="round"></path>
            <circle id="Oval" stroke="#292929" fill-rule="nonzero" transform="translate(537.913217, 280.513026) rotate(-69.580000) translate(-537.913217, -280.513026) " cx="537.913217" cy="280.513026" r="27.3200001"></circle>
            <circle id="Oval" stroke="#292929" fill-rule="nonzero" stroke-linejoin="round" transform="translate(537.913217, 280.513026) rotate(-69.580000) translate(-537.913217, -280.513026) " cx="537.913217" cy="280.513026" r="12.07"></circle>
            <path d="M536.23,286.41 L538.53,283.68 C538.606088,283.583705 538.737548,283.55084 538.85,283.6 L542.15,284.97 L541,281.59 C540.950329,281.47855 540.988369,281.347524 541.09,281.28 L543.92,279.1 C543.92,279.1 543.92,279.1 543.92,279.1 L540.4,278.47 C540.280541,278.446238 540.18866,278.350362 540.17,278.23 L539.71,274.69 L537.41,277.42 C537.332027,277.513332 537.202721,277.545659 537.09,277.5 L533.8,276.13 C533.8,276.13 533.8,276.13 533.8,276.13 L535.02,279.49 C535.05977,279.604069 535.01893,279.730673 534.92,279.8 L532,282 C532,282 532,282 532,282 L535.51,282.63 C535.629459,282.653762 535.72134,282.749638 535.74,282.87 L536.2,286.41 L536.23,286.41 Z" id="Path" stroke="#292929" fill-rule="nonzero" stroke-linejoin="round"></path>
            <path d="M0.80806375,80.6095511 C15.8964831,80.6095511 28.1280638,68.3779704 28.1280638,53.289551 C28.1280638,38.2011316 15.8964831,25.9695509 0.80806375,25.9695509" id="Oval" stroke="#292929" fill-rule="nonzero"></path>
            <path d="M0.80806375,65.359551 C7.4741407,65.359551 12.8780638,59.9556279 12.8780638,53.289551 C12.8780638,46.623474 7.4741407,41.219551 0.80806375,41.219551" id="Oval" stroke="#292929" fill-rule="nonzero" stroke-linejoin="round"></path>
            <polyline id="Star" stroke="#000000" transform="translate(3.750000, 52.330127) rotate(180.000000) translate(-3.750000, -52.330127) " points="6.5 54.830127 3.75 56.660254 4.11843014 53.580127 1 52.330127 4.11843014 51.080127 3.75 48 6.5 49.830127"></polyline>
            <g id="Group" transform="translate(0.000000, 26.000000)" fill-rule="nonzero" stroke="#292929">
                <circle id="h10" cx="461.27" cy="254.53" r="21.86"></circle>
                <circle id="h9" cx="387.95" cy="254.53" r="21.86"></circle>
                <path d="M164.78,279.91 C157.790961,279.927302 151.496555,275.684817 148.89,269.2 L141.35,250.58 C139.398633,245.780054 139.964577,240.323673 142.859522,236.026394 C145.754468,231.729115 150.598563,229.154793 155.78,229.16 L297.68,229.16 C304.169664,229.172388 309.92966,233.319424 312,239.47 L319.65,262.14 C321.039106,266.249718 320.362283,270.777023 317.831986,274.300799 C315.30169,277.824574 311.228132,279.912806 306.89,279.91 L164.78,279.91 Z" id="h8"></path>
                <path d="M0.83,276.39 C12.9029446,276.39 22.69,266.602945 22.69,254.53 C22.69,242.457055 12.9029446,232.67 0.83,232.67" id="h7"></path>
                <path d="M355.93,203.08 C348.924704,203.119305 342.607412,198.872085 340,192.37 L332.45,173.75 C330.503943,168.949985 331.072219,163.49649 333.966085,159.200815 C336.85995,154.90514 341.700494,152.329741 346.88,152.33 L516.56,152.33 C523.061408,152.334471 528.83715,156.481261 530.92,162.64 L538.56,185.31 C539.94854,189.418046 539.27286,193.943454 536.7449,197.466735 C534.216941,200.990016 530.146368,203.079583 525.81,203.08 L355.93,203.08 Z" id="h6"></path>
                <path d="M137,203.08 C130.010961,203.097302 123.716555,198.854817 121.11,192.37 L113.57,173.75 C111.623943,168.949985 112.192219,163.49649 115.086085,159.200815 C117.97995,154.90514 122.820494,152.329741 128,152.33 L270,152.33 C276.499711,152.332607 282.273525,156.480901 284.35,162.64 L292,185.31 C293.38854,189.418046 292.71286,193.943454 290.1849,197.466735 C287.656941,200.990016 283.586368,203.079583 279.25,203.08 L137,203.08 Z" id="h5"></path>
                <path d="M444.47,127.64 C439.889027,127.640286 435.597699,125.399383 432.98,121.64 L417.88,100.12 C414.723414,95.6071903 414.341758,89.7123625 416.890074,84.8301934 C419.438389,79.9480244 424.492787,76.8906198 430,76.9 L453.7,76.9 C458.843812,76.9023601 463.735989,79.1260767 467.12,83 L484.79,103.31 C488.562786,107.650843 489.453237,113.79498 487.068004,119.028286 C484.68277,124.261592 479.461246,127.620016 473.71,127.62 L444.47,127.64 Z" id="h4"></path>
                <path d="M110,127.64 C103.010961,127.657302 96.7165546,123.414817 94.11,116.93 L86.57,98.31 C84.6229529,93.5111389 85.1910617,88.058076 88.0854669,83.7636052 C90.979872,79.4691344 95.8211927,76.8961483 101,76.9 L340.43,76.9 C345.963257,76.899545 351.228568,79.2825993 354.88,83.44 L373.79,105 C377.325525,109.026319 378.176162,114.749709 375.964413,119.630216 C373.752664,124.510723 368.88828,127.644177 363.53,127.64 L110,127.64 Z" id="h3"></path>
                <path d="M110,127.64 C103.010961,127.657302 96.7165546,123.414817 94.11,116.93 L86.57,98.31 C84.6229529,93.5111389 85.1910617,88.058076 88.0854669,83.7636052 C90.979872,79.4691344 95.8211927,76.8961483 101,76.9 L242.89,76.9 C249.388061,76.8980781 255.162681,81.042927 257.24,87.2 L264.89,109.88 C266.274534,113.986806 265.596898,118.509041 263.069432,122.029652 C260.541967,125.550263 256.473911,127.638497 252.14,127.64 L110,127.64 Z" id="h2"></path>
                <path d="M76.07,49.16 C70.8656785,49.1818063 66.1825818,46.0041325 64.28,41.16 L57.52,23.93 C55.4757122,18.7303741 56.1350102,12.8562532 59.2811018,8.23918377 C62.4271933,3.62211435 67.6529416,0.859592802 73.24,0.86 L275.69,0.86 C281.689888,0.849648941 287.369831,3.56454423 291.13,8.24 L310.86,32.68 C313.30903,35.7111594 313.80007,39.8792148 312.122516,43.3965277 C310.444963,46.9138407 306.896878,49.155469 303,49.16 L76.07,49.16 Z" id="h1"></path>
            </g>
        </g>
    </g>
</svg>