<?xml version="1.0" encoding="UTF-8"?>
<svg width="584px" height="211px" viewBox="0 0 584 211" version="1.1" xmlns="http://www.w3.org/2000/svg" xmlns:xlink="http://www.w3.org/1999/xlink">
    <!-- Generator: Sketch 64 (93537) - https://sketch.com -->
    <title>ANT2</title>
    <desc>Created with Sketch.</desc>
    <g id="Page-1" stroke="none" stroke-width="1" fill="none" fill-rule="evenodd">
        <g id="ANT2" transform="translate(292.500000, 105.500000) scale(-1, 1) translate(-292.500000, -105.500000) translate(1.000000, 1.000000)" fill-rule="nonzero">
            <path d="M0,0 C25.2592048,0 87.4834263,0.127213196 186.672664,0.381639588 C193.893657,0.381639588 201.108587,0.642123751 208.317454,1.16309208 L557.617059,26.4058248 C572.518283,27.4458225 583.812069,40.2649917 582.954194,55.1650937 L579.862082,109.503302 C579.144094,122.400734 569.464866,133.023965 556.680331,134.945941 L308.238167,172.40114 C142.568109,196.80038 39.822053,209 0,209" id="Path" stroke="#292929" fill="#FFFFFF"></path>
            <path d="M333.134718,94.4044818 C327.514481,94.2349496 323.036514,89.6882193 323,84.1141343 L323,64.2903475 C323.005002,58.6127174 327.643882,54.0099324 333.371044,54 L536.828924,58.126952 C542.466058,58.2633452 546.972182,62.8183187 547,68.4082887 L547,88.7186593 C546.989969,94.4033185 542.335954,99.004978 536.601688,99 L333.134718,94.4044818 Z" id="h3" stroke="#292929" fill="#FFFFFF"></path>
            <ellipse id="Oval" stroke="#292929" fill="#FFFFFF" transform="translate(169.392358, 33.315523) rotate(-69.580000) translate(-169.392358, -33.315523) " cx="169.392358" cy="33.3155227" rx="10.9917429" ry="10.9969236"></ellipse>
            <ellipse id="Oval" stroke="#292929" stroke-width="1.00304536" fill="#FFFFFF" stroke-linejoin="round" transform="translate(169.858492, 32.946091) rotate(-69.577667) translate(-169.858492, -32.946091) " cx="169.858492" cy="32.9460909" rx="4.86969881" ry="4.87199387"></ellipse>
            <path d="M168.779497,36 L169.746615,34.8342967 C169.790892,34.8063145 169.847406,34.8063145 169.891683,34.8342967 L171.303675,35.4123314 L170.791103,33.9865125 C170.762047,33.9462124 170.762047,33.8919379 170.791103,33.8516378 L172,32.8882466 L170.491296,32.6184971 C170.441338,32.6045484 170.403777,32.5633888 170.394584,32.5125241 L170.201161,31 L169.234043,32.1657033 C169.193587,32.1946461 169.139102,32.1946461 169.098646,32.1657033 L167.686654,31.5876686 L168.208897,33.0134875 C168.235275,33.0546066 168.235275,33.1072432 168.208897,33.1483622 L167,34.1117534 L168.508704,34.3815029 C168.558662,34.3954516 168.596223,34.4366112 168.605416,34.4874759 L168.798839,36 L168.779497,36 Z" id="Path" stroke="#292929" fill="#FFFFFF" stroke-linejoin="round"></path>
            <ellipse id="Oval" stroke="#292929" fill="#FFFFFF" transform="translate(518.639198, 78.544643) rotate(-69.580000) translate(-518.639198, -78.544643) " cx="518.639198" cy="78.5446428" rx="10.9917429" ry="10.9969236"></ellipse>
            <ellipse id="Oval" stroke="#292929" fill="#FFFFFF" stroke-linejoin="round" transform="translate(518.639198, 78.544643) rotate(-69.580000) translate(-518.639198, -78.544643) " cx="518.639198" cy="78.5446428" rx="4.85491375" ry="4.85720201"></ellipse>
            <path d="M517.795367,81 L518.760618,79.8320463 C518.800995,79.8030476 518.855375,79.8030476 518.895753,79.8320463 L520.305019,80.4111969 C520.305019,80.4111969 520.305019,80.4111969 520.305019,80.4111969 L519.783784,78.9826255 C519.754785,78.9422476 519.754785,78.8878682 519.783784,78.8474903 L521,77.8822394 L521,77.8822394 L519.503861,77.6119691 C519.452627,77.6002798 519.414104,77.5579042 519.407336,77.5057915 L519.204633,76 C519.204633,76 519.204633,76 519.204633,76 L518.239382,77.1679537 C518.199005,77.1969524 518.144625,77.1969524 518.104247,77.1679537 L516.694981,76.5888031 L516.694981,76.5888031 L517.216216,78.0173745 C517.245215,78.0577524 517.245215,78.1121318 517.216216,78.1525097 L516,79.1177606 L516,79.1177606 L517.496139,79.3783784 C517.549002,79.3871796 517.588926,79.4310955 517.592664,79.484556 L517.795367,81 L517.795367,81 Z" id="Path" stroke="#292929" fill="#FFFFFF" stroke-linejoin="round"></path>
            <g id="Group-6" transform="translate(0.000000, 170.000000)" fill="#FFFFFF" stroke="#292929">
                <path d="M0.00493691077,22.2456 C6.16843472,22.2456 11.1649369,17.2657522 11.1649369,11.1228 C11.1649369,4.97984684 6.16843472,0 0.00493691077,0" id="Oval"></path>
                <path d="M0.00493691077,16.031281 C2.7272759,16.031281 4.93416768,13.836064 4.93416768,11.1228 C4.93416768,8.40953508 2.7272759,6.3090081 0.00493691077,6.3090081" id="Oval" stroke-linejoin="round"></path>
                <path d="M2.76923077,12.1220538 C2.39049823,12.1220538 1.72970592,12.5289368 1.60578577,12.6453266 C1.52317234,12.7229197 1.37417144,12.857788 1.15878306,13.0499314 L1.32075764,11.6288212 L0.00493691077,11.0580734 L1.32075764,10.4873247 L1.15878306,9.06621452 C1.36859376,9.22070149 1.53792876,9.35530927 1.66678806,9.47003787 C1.86007701,9.64213077 2.57799823,9.82978463 2.76923077,9.82978463" id="Star" stroke-linejoin="round" transform="translate(1.387084, 11.058073) rotate(180.000000) translate(-1.387084, -11.058073) "></path>
            </g>
            <circle id="Oval" fill="#939597" cx="103.5" cy="106.5" r="30.5"></circle>
            <circle id="Oval" stroke="#292929" fill="#FFFFFF" cx="103.5" cy="106.5" r="30.5"></circle>
            <path d="M256.043099,33.6696964 C264.498946,26.3467342 276.251432,24.0692509 286.85978,27.6978134 C297.468128,31.3263759 305.314709,40.3076781 307.434625,51.2480571 C309.554541,62.1884361 305.624533,73.4196341 297.129589,80.6978455 L265.378868,104.401841 C260.474854,108.035225 254.520165,109.998731 248.401431,110 C232.161748,110 219,96.3527929 219,79.5130979 C218.941684,70.0077694 223.287724,61.0034357 230.78643,55.0946359 L255.879154,33.8234423" id="Path" stroke="#292929" fill="#FFFFFF"></path>
            <path d="M276.5,89 C259.10303,89 245,74.8969696 245,57.5 C245,40.1030304 259.10303,26 276.5,26 C293.89697,26 308,40.1030304 308,57.5 C307.984871,74.8906992 293.890699,88.984871 276.5,89 L276.5,89 Z" id="Path" stroke="#292929" fill="#FFFFFF"></path>
            <circle id="h1" stroke="#292929" fill="#FFFFFF" cx="103.5" cy="106.5" r="30.5"></circle>
            <circle id="h2" stroke="#292929" fill="#FFFFFF" cx="276.5" cy="57.5" r="31.5"></circle>
        </g>
    </g>
</svg>