<?xml version="1.0" encoding="UTF-8"?>
<svg width="642px" height="232px" viewBox="0 0 642 232" version="1.1" xmlns="http://www.w3.org/2000/svg" xmlns:xlink="http://www.w3.org/1999/xlink">
    <!-- Generator: Sketch 54.1 (76490) - https://sketchapp.com -->
    <title>ANT2</title>
    <desc>Created with Sketch.</desc>
    <g id="Page-1" stroke="none" stroke-width="1" fill="none" fill-rule="evenodd">
        <g id="ANT2" transform="translate(321.000000, 116.500000) scale(-1, 1) translate(-321.000000, -116.500000) translate(0.000000, 1.000000)">
            <path d="M0,0 L205.26,0.42 C213.2,0.42 221.133333,0.706666667 229.06,1.28 L613.14,29.06 C629.524966,30.2045328 641.943295,44.3122178 641,60.71 L637.6,120.51 C636.810521,134.703815 626.167515,146.394837 612.11,148.51 L338.93,189.73 L0.61,230.24" id="Path" stroke="#292929" fill="#FFFFFF" fill-rule="nonzero"></path>
            <path d="M366.15,103.53 C359.966735,103.341857 355.040172,98.2959963 355,92.11 L355,70.11 C355.005503,63.8090917 360.109099,58.7010228 366.41,58.69 L590.25,63.27 C596.451854,63.4213662 601.409395,68.476375 601.44,74.68 L601.44,97.22 C601.428964,103.528709 596.308716,108.635529 590,108.63 L366.15,103.53 Z" id="h3" stroke="#292929" fill="#FFFFFF" fill-rule="nonzero"></path>
            <circle id="Oval" stroke="#292929" fill="#FFFFFF" fill-rule="nonzero" transform="translate(186.215572, 36.647075) rotate(-69.580000) translate(-186.215572, -36.647075) " cx="186.215572" cy="36.647075" r="12.09"></circle>
            <circle id="Oval" stroke="#292929" stroke-width="1.00304536" fill="#FFFFFF" fill-rule="nonzero" stroke-linejoin="round" transform="translate(186.728000, 36.240700) rotate(-69.577667) translate(-186.728000, -36.240700) " cx="186.728" cy="36.2407" r="5.35626224"></circle>
            <path d="M185.84,39.19 L186.84,37.98 C186.885782,37.9509545 186.944218,37.9509545 186.99,37.98 L188.45,38.58 L187.92,37.1 C187.889957,37.0581685 187.889957,37.0018315 187.92,36.96 L189.17,35.96 L187.61,35.68 C187.558344,35.6655212 187.519505,35.6227976 187.51,35.57 L187.31,34 L186.31,35.21 C186.268169,35.2400427 186.211831,35.2400427 186.17,35.21 L184.71,34.61 L185.25,36.09 C185.277274,36.1326816 185.277274,36.1873184 185.25,36.23 L184,37.23 L185.56,37.51 C185.611656,37.5244788 185.650495,37.5672024 185.66,37.62 L185.86,39.19 L185.84,39.19 Z" id="Path" stroke="#292929" fill="#FFFFFF" fill-rule="nonzero" stroke-linejoin="round"></path>
            <circle id="Oval" stroke="#292929" fill="#FFFFFF" fill-rule="nonzero" transform="translate(570.147885, 86.399107) rotate(-69.580000) translate(-570.147885, -86.399107) " cx="570.147885" cy="86.3991072" r="12.09"></circle>
            <circle id="Oval" stroke="#292929" fill="#FFFFFF" fill-rule="nonzero" stroke-linejoin="round" transform="translate(570.147885, 86.399107) rotate(-69.580000) translate(-570.147885, -86.399107) " cx="570.147885" cy="86.3991072" r="5.34"></circle>
            <path d="M569.41,89 L570.41,87.79 C570.451831,87.7599573 570.508169,87.7599573 570.55,87.79 L572.01,88.39 C572.01,88.39 572.01,88.39 572.01,88.39 L571.47,86.91 C571.439957,86.8681685 571.439957,86.8118315 571.47,86.77 L572.73,85.77 L572.73,85.77 L571.18,85.49 C571.126922,85.4778899 571.087012,85.4339887 571.08,85.38 L570.87,83.82 C570.87,83.82 570.87,83.82 570.87,83.82 L569.87,85.03 C569.828169,85.0600427 569.771831,85.0600427 569.73,85.03 L568.27,84.43 L568.27,84.43 L568.81,85.91 C568.840043,85.9518315 568.840043,86.0081685 568.81,86.05 L567.55,87.05 L567.55,87.05 L569.1,87.32 C569.154766,87.3291181 569.196127,87.3746149 569.2,87.43 L569.41,89 L569.41,89 Z" id="Path" stroke="#292929" fill="#FFFFFF" fill-rule="nonzero" stroke-linejoin="round"></path>
            <path d="M1.00534832,211.325419 C7.68247095,211.325419 13.0953483,205.912541 13.0953483,199.235419 C13.0953483,192.558296 7.68247095,187.145419 1.00534832,187.145419" id="Oval" stroke="#292929" fill="#FFFFFF" fill-rule="nonzero"></path>
            <path d="M1.00534832,204.575419 C3.95454889,204.575419 6.34534832,202.184619 6.34534832,199.235419 C6.34534832,196.286218 3.95454889,193.895419 1.00534832,193.895419" id="Oval" stroke="#292929" fill="#FFFFFF" fill-rule="nonzero" stroke-linejoin="round"></path>
            <circle id="Oval" fill="#939597" fill-rule="nonzero" cx="114.16" cy="116.62" r="33.62"></circle>
            <circle id="Oval" stroke="#292929" fill="#FFFFFF" fill-rule="nonzero" cx="114.16" cy="116.62" r="33.62"></circle>
            <path d="M281,37.14 C290.283909,29.0428488 303.187291,26.5245883 314.834491,30.5367651 C326.481691,34.5489419 335.096671,44.4797541 337.424185,56.5767581 C339.7517,68.6737621 335.436835,81.0923307 326.11,89.14 L291.25,115.35 C285.865747,119.367508 279.327928,121.538597 272.61,121.54 C254.78,121.54 240.33,106.45 240.33,87.83 C240.265324,77.3197611 245.036962,67.3634825 253.27,60.83 L280.82,37.31" id="Path" stroke="#292929" fill="#FFFFFF" fill-rule="nonzero"></path>
            <polyline id="Star" stroke="#292929" fill="#FFFFFF" stroke-linejoin="round" transform="translate(2.250000, 199.165064) rotate(180.000000) translate(-2.250000, -199.165064) " points="3.5 200.405821 2.25 201.330127 2.42547246 199.785442 1 199.165064 2.42547246 198.544685 2.25 197 3.5 197.924306"></polyline>
            <path d="M303.81,97.32 C284.789313,97.32 269.37,81.9006868 269.37,62.88 C269.37,43.8593132 284.789313,28.44 303.81,28.44 C322.830687,28.44 338.25,43.8593132 338.25,62.88 C338.233459,81.8938311 322.823831,97.303459 303.81,97.32 L303.81,97.32 Z" id="Path" stroke="#292929" fill="#FFFFFF" fill-rule="nonzero"></path>
            <circle id="h1" stroke="#292929" fill="#FFFFFF" fill-rule="nonzero" cx="114.16" cy="116.62" r="33.62"></circle>
            <circle id="h2" stroke="#292929" fill="#FFFFFF" fill-rule="nonzero" cx="303.81" cy="62.88" r="34.44"></circle>
        </g>
    </g>
</svg>