<?xml version="1.0" encoding="UTF-8"?>
<svg width="514px" height="321px" viewBox="0 0 514 321" version="1.1" xmlns="http://www.w3.org/2000/svg" xmlns:xlink="http://www.w3.org/1999/xlink">
    <!-- Generator: Sketch 54.1 (76490) - https://sketchapp.com -->
    <title>ANT3</title>
    <desc>Created with Sketch.</desc>
    <g id="Page-1" stroke="none" stroke-width="1" fill="none" fill-rule="evenodd">
        <g id="ANT3" transform="translate(257.500000, 161.000000) scale(-1, 1) translate(-257.500000, -161.000000) translate(1.000000, 1.000000)" stroke="#292929">
            <path d="M0.15,0.35 L300.69,0.35 C302.448152,0.351481295 304.204635,0.458339559 305.95,0.67 L377.95,9.58 C382.882892,10.1880202 387.671586,11.6533944 392.1,13.91 L503.47,70.47 C511.884325,74.7514692 515.29363,85.0016675 511.12,93.47 L405.7,307 C402.09263,314.339931 394.628487,318.992903 386.45,319 L0.15,319" id="Path" fill="#FFFFFF"></path>
            <circle id="h11" fill="#FFFFFF" fill-rule="nonzero" transform="translate(208.789591, 274.095744) rotate(-73.250000) translate(-208.789591, -274.095744) " cx="208.789591" cy="274.095744" r="19.1"></circle>
            <circle id="Oval" fill="#FFFFFF" fill-rule="nonzero" transform="translate(373.518284, 56.680405) rotate(-20.420000) translate(-373.518284, -56.680405) " cx="373.518284" cy="56.6804054" r="24.79"></circle>
            <circle id="Oval" fill="#FFFFFF" fill-rule="nonzero" stroke-linejoin="round" transform="translate(373.518284, 56.680405) rotate(-20.420000) translate(-373.518284, -56.680405) " cx="373.518284" cy="56.6804054" r="10.95"></circle>
            <path d="M369.58,294.22 C380.954285,294.205407 390.915934,286.590565 393.914197,275.618556 C396.912461,264.646547 392.207738,253.023902 382.421558,247.226899 C372.635378,241.429897 360.181756,242.888517 352,250.79 C350.370164,252.250847 348.258707,253.059112 346.07,253.06 L262.3,253.06 C258.102682,253.076842 254.171745,255.119213 251.745052,258.543965 C249.318359,261.968717 248.694526,266.354419 250.07,270.32 L255.54,285.57 C257.377515,290.744918 262.268546,294.207063 267.76,294.22 L369.76,294.22" id="h9" fill="#FFFFFF" fill-rule="nonzero"></path>
            <path d="M0.15,294.76 L154.51,294.63 C156.891824,294.630475 159.166665,293.640843 160.790069,291.897959 C162.413474,290.155075 163.239337,287.815797 163.07,285.44 L161.73,266.44 C161.283496,260.031127 155.954408,255.060224 149.53,255.06 L0.15,255.06" id="h13"></path>
            <path d="M92.83,32.54 L315.6,32.54 C322.026329,32.5398688 327.358477,37.5095525 327.81,43.92 L329.15,62.92 C329.319337,65.2957967 328.493474,67.6350754 326.870069,69.3779591 C325.246665,71.1208428 322.971824,72.1104752 320.59,72.11 L86.7,72.21 C84.2305742,72.2106055 81.8806171,71.1471995 80.2511024,69.2917357 C78.6215877,67.4362718 77.8705287,64.9686736 78.19,62.52 L80.7,43.2 C81.493393,37.1051281 86.6837067,32.5438137 92.83,32.54 Z" id="h1" fill="#FFFFFF" fill-rule="nonzero"></path>
            <path d="M83.46,178.5 L323.17,178.5 C329.590818,178.499856 334.918495,183.465077 335.37,189.87 L336.72,208.87 C336.886422,211.246786 336.058197,213.585925 334.433245,215.328434 C332.808293,217.070944 330.532605,218.060272 328.15,218.06 L77.33,218.19 C74.8579388,218.190581 72.5054604,217.12612 70.874075,215.268792 C69.2426897,213.411463 68.4905601,210.941335 68.81,208.49 L71.33,189.18 C72.1100259,183.074973 77.305344,178.500695 83.46,178.5 Z" id="h7" fill="#FFFFFF" fill-rule="nonzero"></path>
            <path d="M318.26,108.62 C324.684408,108.620224 330.013496,113.591127 330.46,120 L331.81,139 C331.976302,141.375052 331.149408,143.712596 329.526656,145.454779 C327.903903,147.196963 325.630866,148.1875 323.25,148.19 L82.45,148.31 C79.9788305,148.313486 77.6261472,147.251323 75.9943994,145.395497 C74.3626515,143.539671 73.6103005,141.070405 73.93,138.62 L76.45,119.3 C77.2300259,113.194973 82.425344,108.620695 88.58,108.62 L318.26,108.62 Z" id="h5" fill="#FFFFFF" fill-rule="nonzero"></path>
            <path d="M438.71,157.48 C449.040872,160.890812 460.217275,155.507125 463.989691,145.302741 C467.762106,135.098358 462.775243,123.739341 452.71,119.61 L418.43,108.78 C407.94315,106.37355 397.410533,112.609391 394.477241,122.961243 C391.54395,133.313095 397.239596,144.147362 407.43,147.6 L438.71,157.48 Z" id="h3" fill="#FFFFFF" fill-rule="nonzero"></path>
            <path d="M177.36,218.17 L214.92,218.17 C219.1198,218.154269 223.053281,216.11056 225.48047,212.683123 C227.907658,209.255687 228.529512,204.866801 227.15,200.9 L222.31,187.16 C220.474615,181.977689 215.577716,178.51022 210.08,178.5 L83.46,178.5 C77.3120426,178.499401 72.1192308,183.062911 71.33,189.16 L68.81,208.47 C68.4905601,210.921335 69.2426897,213.391463 70.874075,215.248792 C72.5054604,217.10612 74.8579388,218.170581 77.33,218.17 L177.36,218.17 Z" id="h8" fill="#FFFFFF" fill-rule="nonzero"></path>
            <path d="M130.11,72.12 L167.68,72.12 C171.875551,72.0999428 175.803504,70.0562429 178.227862,66.631986 C180.65222,63.2077291 181.274913,58.8239198 179.9,54.86 L175.06,41.11 C173.222485,35.9350823 168.331454,32.4729367 162.84,32.46 L130.11,32.46 L92.83,32.54 C86.6837067,32.5438137 81.493393,37.1051281 80.7,43.2 L78.19,62.52 C77.8705287,64.9686736 78.6215877,67.4362718 80.2511024,69.2917357 C81.8806171,71.1471995 84.2305742,72.2106055 86.7,72.21 L130.11,72.12 Z" id="h2" fill="#FFFFFF" fill-rule="nonzero"></path>
            <path d="M266.92,253.06 L292.37,253.06 C297.861454,253.072937 302.752485,256.535082 304.59,261.71 L310.12,277 C311.494913,280.96392 310.87222,285.347729 308.447862,288.771986 C306.023504,292.196243 302.095551,294.239943 297.9,294.26 L285.6,294.26" id="h10" fill="#FFFFFF" fill-rule="nonzero"></path>
            <path d="M253.27,108.62 L215.7,108.62 C211.504449,108.640057 207.576496,110.683757 205.152138,114.108014 C202.72778,117.532271 202.105087,121.91608 203.48,125.88 L208.32,139.63 C210.157515,144.804918 215.048546,148.267063 220.54,148.28 L253.27,148.28 L323.27,148.16 C325.650866,148.1575 327.923903,147.166963 329.546656,145.424779 C331.169408,143.682596 331.996302,141.345052 331.83,138.97 L330.48,119.97 C330.028495,113.565077 324.700818,108.599856 318.28,108.6 L253.27,108.62 Z" id="h4" fill="#FFFFFF" fill-rule="nonzero"></path>
            <path d="M128.1,294.59 L109.21,294.69 C102.07682,294.729267 96.1868076,289.126249 95.87,282 L95.14,266.49 C95.0093813,263.521989 96.0936763,260.628875 98.142844,258.477815 C100.192012,256.326755 103.029147,255.103451 106,255.09 L149.49,255.09 C155.914408,255.090224 161.243496,260.061127 161.69,266.47 L163.03,285.47 C163.199337,287.845797 162.373474,290.185075 160.750069,291.927959 C159.126665,293.670843 156.851824,294.660475 154.47,294.66 L128.1,294.59 Z" id="h12" fill="#FFFFFF" fill-rule="nonzero"></path>
            <circle id="h6" fill="#FFFFFF" fill-rule="nonzero" transform="translate(411.849235, 201.400196) rotate(-55.700000) translate(-411.849235, -201.400196) " cx="411.849235" cy="201.400196" r="19.1"></circle>
            <path d="M372,51.34 L374.09,53.82 C374.162333,53.9019873 374.278231,53.9299626 374.38,53.89 L377.38,52.65 C377.38,52.65 377.38,52.65 377.38,52.65 L376.28,55.65 C376.241136,55.7559008 376.278008,55.8747096 376.37,55.94 L378.94,57.94 C378.94,57.94 378.94,57.94 378.94,57.94 L375.75,58.52 C375.640102,58.5299369 375.554567,58.6197485 375.55,58.73 L375.1,62 C375.1,62 375.1,62 375.1,62 L373,59.52 C372.927667,59.4380127 372.811769,59.4100374 372.71,59.45 L369.71,60.7 L370.81,57.65 C370.853337,57.5495196 370.819879,57.4324186 370.73,57.37 L368.15,55.37 C368.15,55.37 368.15,55.37 368.15,55.37 L371.34,54.8 C371.448573,54.776816 371.531888,54.6895338 371.55,54.58 L371.97,51.37 C371.97,51.37 372,51.33 372,51.34 Z" id="Path" fill="#FFFFFF" fill-rule="nonzero" stroke-linejoin="round"></path>
            <circle id="Oval" fill="#FFFFFF" fill-rule="nonzero" transform="translate(366.461160, 268.054117) rotate(-78.750000) translate(-366.461160, -268.054117) " cx="366.46116" cy="268.054117" r="17.03"></circle>
            <circle id="Oval" fill="#FFFFFF" fill-rule="nonzero" stroke-linejoin="round" transform="translate(366.461160, 268.054117) rotate(-78.750000) translate(-366.461160, -268.054117) " cx="366.46116" cy="268.054117" r="7.52"></circle>
            <path d="M367.4,264.34 L366,266.08 C365.957912,266.141595 365.876955,266.1629 365.81,266.13 L363.73,265.34 C363.73,265.34 363.73,265.34 363.73,265.34 L364.55,267.41 C364.580269,267.48032 364.559799,267.562197 364.5,267.61 L362.77,269.01 C362.77,269.01 362.77,269.01 362.77,269.01 L364.97,269.34 C365.045701,269.34783 365.106974,269.405019 365.12,269.48 L365.47,271.68 C365.47,271.68 365.47,271.68 365.47,271.68 L366.85,269.94 C366.89707,269.879425 366.977359,269.855338 367.05,269.88 L369.13,270.68 C369.13,270.68 369.13,270.68 369.13,270.68 L368.32,268.6 C368.2871,268.533045 368.308405,268.452088 368.37,268.41 L370.1,267 C370.1,267 370.1,267 370.1,267 L367.89,266.66 C367.816596,266.651276 367.758724,266.593404 367.75,266.52 L367.4,264.32 L367.4,264.34 Z" id="Path" fill="#FFFFFF" fill-rule="nonzero" stroke-linejoin="round"></path>
            <path d="M377.95,9.58 L0.15,9.58" id="Path"></path>
        </g>
    </g>
</svg>