<?xml version="1.0" encoding="UTF-8"?>
<svg width="585px" height="365px" viewBox="0 0 585 365" version="1.1" xmlns="http://www.w3.org/2000/svg" xmlns:xlink="http://www.w3.org/1999/xlink">
    <title>ANT3</title>
    <g id="Page-1" stroke="none" stroke-width="1" fill="none" fill-rule="evenodd">
        <g id="ANT3" transform="translate(293.000000, 182.500000) scale(-1, 1) translate(-293.000000, -182.500000) translate(1.000000, 1.000000)" stroke="#292929">
            <path d="M0,0.154680076 L342.372195,0 C344.374065,0 346.374035,0.123365768 348.361346,0.364382559 L430.342117,10.5101594 C435.958815,11.2025093 441.411327,12.8711243 446.453616,15.4407109 L573.261928,79.8453282 C582.842662,84.7206179 586.724571,96.3924725 581.972385,106.035325 L461.938872,349.180974 C457.831442,357.53892 449.332606,362.837239 440.020402,362.84532 L0,363" id="Path" fill="#FFFFFF" fill-rule="nonzero"></path>
            <ellipse id="h11" fill="#FFFFFF" fill-rule="nonzero" transform="translate(237.686396, 311.783909) rotate(-73.250000) translate(-237.686396, -311.783909) " cx="237.686396" cy="311.783909" rx="21.7276808" ry="21.7420401"></ellipse>
            <ellipse id="Oval" fill="#FFFFFF" fill-rule="nonzero" transform="translate(425.213797, 64.473961) rotate(-20.420000) translate(-425.213797, -64.473961) " cx="425.213797" cy="64.4739611" rx="28.218255" ry="28.2013466"></ellipse>
            <ellipse id="Oval" fill="#FFFFFF" fill-rule="nonzero" stroke-linejoin="round" transform="translate(425.213797, 64.473961) rotate(-20.420000) translate(-425.213797, -64.473961) " cx="425.213797" cy="64.4739611" rx="12.4642958" ry="12.4568272"></ellipse>
            <path d="M421.207102,334 C434.187719,333.983535 445.556201,325.392044 448.977893,313.012808 C452.399587,300.633573 447.03044,287.520253 435.862208,280.97975 C424.693975,274.439247 410.481592,276.084944 401.144368,284.99984 C399.284359,286.648049 396.874711,287.559979 394.376904,287.560981 L298.776494,287.560981 C293.986411,287.579983 289.500327,289.884301 286.730925,293.748298 C283.961523,297.612295 283.249589,302.56049 284.819314,307.03468 L291.061814,324.240585 C293.158832,330.079218 298.740598,333.985404 305.007582,334 L421.412522,334" id="h9" fill="#FFFFFF" fill-rule="nonzero"></path>
            <path d="M0,335 L176.212855,334.8573 C178.929236,334.857838 181.523607,333.735973 183.375038,331.760207 C185.226471,329.78444 186.168337,327.132591 185.975214,324.439342 L184.446994,302.900583 C183.937773,295.635364 177.860148,290 170.533352,290 L0,290" id="h13"></path>
            <path d="M105.760052,37 L359.539113,37 C366.859972,37 372.934343,42.6372539 373.448717,49.9089992 L374.975242,71.4618097 C375.16815,74.1568148 374.227329,76.8103953 372.377949,78.7874502 C370.528571,80.764505 367.937078,81.8871029 365.22371,81.8865639 L98.7767703,82 C95.9636062,82.0006866 93.2865406,80.794403 91.4302013,78.6896419 C89.573862,76.5848808 88.7182573,73.7857399 89.0821983,71.0080663 L91.9415844,49.0922611 C92.8454158,42.1784916 98.758209,37.0043261 105.760052,37 Z" id="h1" fill="#FFFFFF" fill-rule="nonzero"></path>
            <path d="M94.7544024,203 L367.555567,203 C374.862758,203 380.925903,208.629339 381.439736,215.891156 L382.976099,237.433106 C383.165495,240.127875 382.222937,242.77996 380.373666,244.755594 C378.524394,246.731229 375.934555,247.852916 373.22304,247.852607 L87.7781764,248 C84.9648554,248.000658 82.2876252,246.793787 80.4310325,244.687973 C78.5744399,242.582157 77.7184814,239.781559 78.0820189,237.002267 L80.9498965,215.108843 C81.8376023,208.187044 87.7501167,203.000788 94.7544024,203 Z" id="h7" fill="#FFFFFF" fill-rule="nonzero"></path>
            <path d="M362.533761,124 C369.85536,124 375.928673,129.636197 376.437533,136.902492 L377.976065,158.444437 C378.165592,161.137239 377.223219,163.787515 375.373845,165.762779 C373.524468,167.738044 370.933994,168.861101 368.220632,168.863936 L93.79208,169 C90.9758032,169.003943 88.2945595,167.799677 86.4349325,165.695566 C84.5753054,163.591455 83.7178859,160.791834 84.0822326,158.013598 L86.9541593,136.108841 C87.8431185,129.187043 93.7639807,124.000788 100.778156,124 L362.533761,124 Z" id="h5" fill="#FFFFFF" fill-rule="nonzero"></path>
            <path d="M498.953097,178.839104 C510.650063,182.708956 523.304368,176.600712 527.575627,165.022983 C531.846884,153.445255 526.200587,140.557498 514.804375,135.872414 L475.991388,123.584871 C464.117818,120.854552 452.192429,127.929637 448.871255,139.67468 C445.550083,151.419724 451.998888,163.712108 463.536812,167.629416 L498.953097,178.839104 Z" id="h3" fill="#FFFFFF" fill-rule="nonzero"></path>
            <path d="M201.547834,248 L244.268955,248 C249.04585,247.982155 253.519831,245.663857 256.28054,241.775914 C259.041248,237.887973 259.748551,232.909404 258.17948,228.409629 L252.674416,212.823544 C250.58683,206.944946 245.017048,203.011593 238.763891,203 L94.7450302,203 C87.7522817,202.999321 81.8459254,208.175977 80.9482463,215.092261 L78.081973,236.996723 C77.7186388,239.777415 78.5741186,242.579426 80.4296726,244.686303 C82.2852268,246.793178 84.9609594,248.000659 87.7727066,248 L201.547834,248 Z" id="h8" fill="#FFFFFF" fill-rule="nonzero"></path>
            <path d="M148.347088,81.8981129 L191.231829,81.8981129 C196.020892,81.8754067 200.504503,79.5617841 203.271816,75.6852669 C206.03913,71.8087497 206.74991,66.8459467 205.180499,62.3584904 L199.655821,46.7924528 C197.558367,40.9340554 191.975439,37.0146453 185.707151,37 L148.347088,37 L105.793371,37.090566 C98.7776082,37.0948834 92.8530605,42.2586356 91.9474322,49.1584905 L89.0823617,71.0301885 C88.7176972,73.8022718 89.5750028,76.5957791 91.4350325,78.6963043 C93.2950622,80.7968293 95.9774498,82.0006852 98.7962064,82 L148.347088,81.8981129 Z" id="h2" fill="#FFFFFF" fill-rule="nonzero"></path>
            <path d="M304,288 L332.974492,288 C339.226441,288.014758 344.794816,291.964293 346.886803,297.867718 L353.182635,315.310194 C354.747956,319.832142 354.039028,324.833089 351.278928,328.739402 C348.518828,332.645714 344.046905,334.977119 339.270325,335 L325.266936,335" id="h10" fill="#FFFFFF" fill-rule="nonzero"></path>
            <path d="M288.515904,124.022681 L245.733075,124.022681 C240.955393,124.045428 236.482437,126.363132 233.7217,130.246488 C230.960963,134.129844 230.251872,139.101401 231.817553,143.596774 L237.329102,159.190272 C239.421572,165.059005 244.991232,168.985329 251.244624,169 L288.515904,169 L368.228387,168.863911 C370.939597,168.861076 373.528017,167.737735 375.375927,165.761972 C377.223835,163.78621 378.165461,161.135266 377.976084,158.441784 L376.438772,136.894405 C375.924621,129.630758 369.85773,124 362.546025,124 L288.515904,124.022681 Z" id="h4" fill="#FFFFFF" fill-rule="nonzero"></path>
            <path d="M145.37703,334.886131 L123.962415,335 C115.875898,335.044388 109.198696,328.677355 108.839548,320.579387 L108.011984,302.954478 C107.863909,299.581756 109.093118,296.294144 111.416153,293.84977 C113.739189,291.405396 116.955502,290.015285 120.323404,290 L169.625765,290 C176.908784,290 182.950095,295.648979 183.456273,302.931751 L184.975362,324.522548 C185.167331,327.222304 184.231093,329.88056 182.390722,331.8611 C180.550353,333.84164 177.971484,334.966216 175.271333,334.965676 L145.37703,334.886131 Z" id="h12" fill="#FFFFFF" fill-rule="nonzero"></path>
            <ellipse id="h6" fill="#FFFFFF" fill-rule="nonzero" transform="translate(468.849811, 229.092723) rotate(-55.700000) translate(-468.849811, -229.092723) " cx="468.849811" cy="229.092723" rx="21.7317199" ry="21.738003"></ellipse>
            <path d="M423.281742,58.0018064 L425.606117,60.793131 C425.686561,60.8854105 425.815456,60.9168977 425.928638,60.8719184 L429.26506,59.4762561 C429.26506,59.4762561 429.26506,59.4762561 429.26506,59.4762561 L428.041705,62.8528584 C427.998483,62.9720534 428.03949,63.1057767 428.141798,63.1792633 L431,65.4303315 C431,65.4303315 431,65.4303315 431,65.4303315 L427.452271,66.0831413 C427.330049,66.0943256 427.234922,66.1954116 427.229842,66.3195035 L426.729379,70 C426.729379,70 426.729379,70 426.729379,70 L424.393883,67.2086754 C424.313439,67.1163959 424.184544,67.0849088 424.071362,67.129888 L420.73494,68.5368057 L421.958295,65.1039266 C422.006492,64.9908325 421.969282,64.8590313 421.869323,64.7887771 L419,62.5377089 C419,62.5377089 419,62.5377089 419,62.5377089 L422.547729,61.8961544 C422.668478,61.87006 422.761136,61.7718209 422.781279,61.6485369 L423.248378,58.0355724 C423.248378,58.0355724 423.281742,57.9905511 423.281742,58.0018064 Z" id="Path" fill="#FFFFFF" fill-rule="nonzero" stroke-linejoin="round"></path>
            <ellipse id="Oval" fill="#FFFFFF" fill-rule="nonzero" transform="translate(417.179956, 304.911558) rotate(-78.750000) translate(-417.179956, -304.911558) " cx="417.179956" cy="304.911558" rx="19.3722094" ry="19.3863942"></ellipse>
            <ellipse id="Oval" fill="#FFFFFF" fill-rule="nonzero" stroke-linejoin="round" transform="translate(417.179956, 304.911558) rotate(-78.750000) translate(-417.179956, -304.911558) " cx="417.179956" cy="304.911558" rx="8.55425804" ry="8.56052169"></ellipse>
            <path d="M418.053206,301.021739 L416.525239,302.913043 C416.479304,302.979995 416.390947,303.003152 416.317872,302.967391 L414.047749,302.108696 C414.047749,302.108696 414.047749,302.108696 414.047749,302.108696 L414.942701,304.358696 C414.975737,304.43513 414.953396,304.524127 414.888131,304.576087 L413,306.097826 C413,306.097826 413,306.097826 413,306.097826 L415.401091,306.456522 C415.483712,306.465033 415.550586,306.527195 415.564802,306.608696 L415.946794,309 C415.946794,309 415.946794,309 415.946794,309 L417.452933,307.108696 C417.504306,307.042853 417.591933,307.016672 417.671214,307.043478 L419.941337,307.913043 C419.941337,307.913043 419.941337,307.913043 419.941337,307.913043 L419.057299,305.652174 C419.021392,305.579397 419.044644,305.4914 419.111869,305.445652 L421,303.913043 C421,303.913043 421,303.913043 421,303.913043 L418.587995,303.543478 C418.507881,303.533996 418.444719,303.471091 418.435198,303.391304 L418.053206,301 L418.053206,301.021739 Z" id="Path" fill="#FFFFFF" fill-rule="nonzero" stroke-linejoin="round"></path>
            <line x1="430" y1="10.5" x2="-9.54791801e-14" y2="10.5" id="Path"></line>
        </g>
    </g>
</svg>