<?xml version="1.0" encoding="UTF-8"?>
<svg width="148px" height="119px" viewBox="0 0 148 119" version="1.1" xmlns="http://www.w3.org/2000/svg" xmlns:xlink="http://www.w3.org/1999/xlink">
    <!-- Generator: Sketch 54.1 (76490) - https://sketchapp.com -->
    <title>ANT4</title>
    <desc>Created with Sketch.</desc>
    <g id="Page-1" stroke="none" stroke-width="1" fill="none" fill-rule="evenodd">
        <g id="ANT4" transform="translate(1.000000, 1.000000)" stroke="#000000">
            <g id="hangboard" transform="translate(12.075195, 8.000000)">
                <path d="M134.924805,1.42108547e-14 L0,0.91796875 L0,104.196 L27.5683594,104.196 C30.2356771,103.524643 31.5693359,101.622721 31.5693359,98.4902344 C31.5693359,95.3577474 31.5693359,81.9308268 31.5693359,58.2094727 L134.924805,58.2094727" id="Path-5" fill="#E5E6E7"></path>
                <path d="M134.924805,2.84217094e-14 L0,0.745117188 C6.59277344,27.7529297 9.88916016,44.171224 9.88916016,50 C9.88916016,55.828776 6.59277344,63.898763 1.42108547e-14,74.2099609 L0,104.196 L24.9248047,104.196 C31.9627182,89.9865573 39.9518516,82.8818359 48.8922047,82.8818359 C57.8325578,82.8818359 61.5100911,82.8818359 59.9248047,82.8818359 C61.4770508,82.9964193 62.5426432,82.0447591 63.121582,80.0268555 C63.7005208,78.0089518 64.2389323,76.3054199 64.7368164,74.9162598 C65.5965169,72.4024251 64.6315104,71.1455078 61.8417969,71.1455078 C57.6572266,71.1455078 55.355957,68.0339355 56.5065918,64.7426758 C57.6572266,61.451416 58.9467773,58.189209 61.8417969,58.189209 C63.7718099,58.189209 88.1328125,58.189209 134.924805,58.189209" id="Path-6" fill="#D0D2D3"></path>
                <path d="M134.924805,0 L57.2988281,0.451293945 C49.1540527,15.9182536 49.0917562,35.1536865 57.1119385,58.1575928 C57.1119385,58.1575928 83.0495605,58.424113 134.924805,58.9571533" id="Path-7" fill="#D0D2D3"></path>
            </g>
            <circle id="h3" fill="#A6A8AB" cx="24" cy="97" r="20"></circle>
            <circle id="h2" fill="#A6A8AB" cx="25" cy="25" r="25"></circle>
            <path d="M147,26 L63.8077393,26 C63.3165283,29.6666667 63.1200684,33.3333333 63.2183594,37 C63.2183594,37 91.1455729,37 147,37" id="h1" fill="#E5E6E7"></path>
        </g>
    </g>
</svg>