<?xml version="1.0" encoding="UTF-8"?>
<svg width="586px" height="881px" viewBox="0 0 586 881" version="1.1" xmlns="http://www.w3.org/2000/svg" xmlns:xlink="http://www.w3.org/1999/xlink">
    <title>ANTMINI</title>
    <g id="Page-1" stroke="none" stroke-width="1" fill="none" fill-rule="evenodd">
        <g id="ANTMINI" transform="translate(1.097118, 1.000000)" fill="#FFFFFF">
            <path d="M584.902882,2.27373675e-13 L459.902882,2.27373675e-13 C437.902882,0.982335425 418.902882,2.96389645 402.902882,5.94468309 C386.902882,8.92546972 258.883623,32.2235956 18.8451038,75.8390609 C3.53175896,79.7109768 -2.44898152,90.6399828 0.902882313,108.626079 C4.25474615,126.612175 7.45459092,144.05787 10.5024166,160.963165 C15.1884389,173.418537 25.9885941,178.323836 42.9028823,175.679062 C59.8171705,173.034288 125.500027,160.483264 239.951452,138.025988 C264.252406,133.876922 278.902882,145.354913 283.902882,172.45996 C288.902882,199.565006 277.185774,217.208958 248.751558,225.391814 L105.457967,250.275169 C81.6149436,256.105117 73.9140331,266.482276 82.355235,281.406648 C90.7964369,296.33102 118.244037,347.35921 164.698035,434.491217 C167.810447,443.785123 177.549509,447.155472 193.915222,444.602264 C210.280934,442.049056 243.12634,436.137762 292.451441,426.868382 C318.184971,424.407557 334.36026,433.92629 340.977309,455.42458 C350.902882,487.672015 333.014783,500.728694 318.599336,503.441324 C308.989037,505.249745 281.030878,510.394994 234.724856,518.877074 C214.127506,522.995757 207.781684,535.874619 215.687391,557.513661 C223.593098,579.152702 239.53164,629.344538 263.503018,708.089168 C268.830173,717.127182 279.344681,720.794301 295.046543,719.090527 C318.599336,716.534867 342.01478,713.359912 349.15199,750.291908 C353.91013,774.913238 340.398453,791.651753 308.616959,800.507452 C293.822772,803.810354 287.429972,813.545737 289.43856,829.713602 C291.447147,845.881467 302.244528,855.04661 321.830701,857.209029 L508.680894,872.436303 C550.232864,876.609077 575.640193,878.695464 584.902882,878.695464" id="board" stroke="#000000"></path>
            <ellipse id="h9" transform="translate(337.517605, 824.096264) rotate(-10.000000) translate(-337.517605, -824.096264) " cx="337.517605" cy="824.096264" rx="40" ry="24.5"></ellipse>
            <circle id="h8" stroke="#000000" cx="437.402882" cy="740.5" r="41.5"></circle>
            <path d="M325.756312,581 C307.722401,585.838434 299.938107,593.609507 302.403433,604.313219 C304.868758,615.016932 306.939933,622.352799 308.616959,626.320819 C311.591384,636.471511 318.362972,640.790284 328.93172,639.277138 C339.500469,637.763992 373.157523,631.326368 429.902882,619.964267 C437.692328,618.92642 443.741693,618.92642 448.050976,619.964267 C452.36026,621.002113 471.410287,624.360671 505.201057,630.03994 C514.356351,630.407506 520.836457,628.820119 524.641374,625.277778 C530.34875,619.964267 531.174967,610.137528 529.59364,604.313219 C528.539422,600.430347 527.473877,595.911467 526.397006,590.75658 C524.454275,580.924204 517.858386,575.338677 506.609338,574 C495.360291,572.661323 476.55154,568.926899 450.183085,562.79673 C446.916813,561.436693 441.451701,561.436693 433.78775,562.79673 C426.123799,564.156768 390.11332,570.224525 325.756312,581 Z" id="h7" stroke="#000000"></path>
            <path d="M246.750821,515 L344.099521,515 C352.72613,515 360.270087,520.811703 362.470839,529.15287 L367.555207,548.423355 C370.232202,558.569554 364.177217,568.964807 354.031018,571.641803 C352.396671,572.073012 350.712092,572.284206 349.021878,572.269794 L250.006295,571.425471 C240.910501,571.34791 233.145659,564.834587 231.486897,555.890986 L228.069413,537.464824 C226.155844,527.147368 232.96854,517.232162 243.285997,515.318592 C244.428763,515.106644 245.588566,515 246.750821,515 Z" id="h6" transform="translate(298.902882, 543.740979) rotate(-11.400000) translate(-298.902882, -543.740979) "></path>
            <circle id="h5" stroke="#000000" cx="437.402882" cy="442.5" r="41.5"></circle>
            <path d="M207.998471,312.5 C190.015155,318.833333 183.649959,327 188.902882,337 C194.155806,347 197.38992,353.107875 198.605225,355.323625 C204.738872,366.377931 213.004758,371.054047 223.402882,369.351973 C233.801007,367.6499 301.107418,355.542186 425.322116,333.028831 C431.547829,330.381386 438.867718,330.381386 447.281784,333.028831 C455.69585,335.676277 471.945421,339.697251 496.030497,345.091754 C504.84427,345.326834 511.135065,342.629583 514.902882,337 C520.554609,328.555626 518.358376,325.252161 518.358376,322.346321 C518.358376,320.409093 514.169931,310.599458 505.79304,292.917415 C502.596116,286.06255 496.666879,281.683612 488.005328,279.780602 C479.343777,277.877591 467.535621,275.382974 452.580859,272.296751 C448.45088,271.675194 443.181059,271.675194 436.771396,272.296751 C430.361733,272.918309 354.104091,286.319392 207.998471,312.5 Z" id="h4" stroke="#000000"></path>
            <path d="M119.814664,244.164318 L269.964899,248.289504 C278.166323,248.514828 285.296736,253.979097 287.64691,261.839811 L292.028982,276.496684 C295.034806,286.550373 289.321382,297.137201 279.267693,300.143026 C277.301303,300.730932 275.252648,300.996351 273.20136,300.928967 L122.5489,295.980091 C114.266904,295.708031 107.116427,290.099925 104.878643,282.121341 L100.998796,268.288158 C98.1650196,258.184625 104.058321,247.696864 114.161853,244.863087 C116.000308,244.347449 117.905987,244.111879 119.814664,244.164318 Z" id="h3" transform="translate(196.813455, 272.625973) rotate(-11.400000) translate(-196.813455, -272.625973) "></path>
            <circle id="h2" stroke="#000000" cx="434.402882" cy="148.5" r="41.5"></circle>
            <rect id="h1" transform="translate(133.902882, 103.500000) rotate(-11.400000) translate(-133.902882, -103.500000) " x="19.9028823" y="69" width="228" height="69" rx="19"></rect>
        </g>
    </g>
</svg>