<?xml version="1.0" encoding="UTF-8"?>
<svg width="592px" height="227px" viewBox="0 0 592 227" version="1.1" xmlns="http://www.w3.org/2000/svg" xmlns:xlink="http://www.w3.org/1999/xlink">
    <title>ARTROCHERWOODEN</title>
    <g id="Page-1" stroke="none" stroke-width="1" fill="none" fill-rule="evenodd">
        <g id="ARTROCHERWOODEN" transform="translate(1.333731, 0.772859)" fill="#FFFFFF" stroke="#000000">
            <path d="M589.666269,112.671919 L38.3850831,111.218245 C32.3611345,109.555227 28.029279,107.611614 25.3895166,105.387405 C22.7497541,103.163196 14.2865819,93.8787181 0,77.5339721 L0,45.2877494 L589.666269,45.2877494" id="board"></path>
            <path d="M589.666269,168.400553 L40.0155368,166.017155 C35.1620091,165.305452 30.5565711,162.415197 26.1992228,157.346389 C21.8418744,152.277581 15.0181085,144.84809 5.72792495,135.057918 L5.72792495,83.9820263 L23.7095766,103.864103 C28.4053595,108.807921 35.6432916,111.27983 45.4233727,111.27983 C55.2034538,111.27983 236.617752,111.74386 589.666269,112.671919" id="board"></path>
            <path d="M589.666269,225.29057 L104.016139,225.29057 C98.2296698,224.908839 93.6327642,222.632889 90.2254222,218.462719 C86.8180802,214.292549 78.676698,204.762039 65.8012758,189.871187 L65.8012758,166.168252 L589.666269,168.400553" id="board"></path>
            <rect id="h16" x="395.666269" y="179.227141" width="65" height="33" rx="16.5"></rect>
            <rect id="h17" x="484.666269" y="179.227141" width="95" height="33" rx="16.5"></rect>
            <rect id="h15" x="274.666269" y="179.227141" width="95" height="33" rx="16.5"></rect>
            <rect id="h14" x="104.666269" y="179.227141" width="144" height="33" rx="16.5"></rect>
            <rect id="h13" x="484.666269" y="124.227141" width="95" height="33" rx="16.5"></rect>
            <rect id="h12" x="393.666269" y="122.227141" width="65" height="33" rx="16.5"></rect>
            <rect id="h11" x="334.666269" y="122.227141" width="33" height="33" rx="16.5"></rect>
            <rect id="h10" x="213.666269" y="122.227141" width="95" height="33" rx="16.5"></rect>
            <rect id="h9" x="49.6662685" y="122.227141" width="144" height="33" rx="16.5"></rect>
            <rect id="h8" x="484.666269" y="62.2271412" width="95" height="33" rx="16.5"></rect>
            <rect id="h7" x="393.666269" y="62.2271412" width="65" height="33" rx="16.5"></rect>
            <rect id="h6" x="334.666269" y="62.2271412" width="33" height="33" rx="16.5"></rect>
            <rect id="h5" x="213.666269" y="62.2271412" width="95" height="33" rx="16.5"></rect>
            <rect id="h4" x="43.6662685" y="61.2271412" width="144" height="33" rx="16.5"></rect>
            <polyline id="h3" points="589.666269 45.2877494 455.014924 45.2877494 462.756388 33.3090155 589.666269 33.3090155"></polyline>
            <path d="M455.014924,45.2877494 L462.756388,33.3090155 C438.392891,17.152608 427.193863,10.7040204 429.159303,13.9632526 C431.124744,17.2224848 439.743284,27.6639837 455.014924,45.2877494 Z" id="board"></path>
            <polygon id="h2" points="455.014924 45.2877494 259.447753 45.2877494 279.740709 12.9198304 428.939225 13.1425796"></polygon>
            <path d="M246.654117,0.319612527 L64.9695095,0.319612527 C63.4780004,-0.5716602 59.2107982,0.401121999 52.1679031,3.23795912 C45.1250079,6.07479625 37.1310027,9.34253484 28.1858874,13.0411749 C22.6727794,14.9794219 18.2992489,17.9996222 15.0652961,22.1017758 C11.8313432,26.2039293 6.80957785,33.9325872 0,45.2877494 L259.447753,45.2877494" id="h1"></path>
            <path d="M279.740709,12.9198304 L259.447753,45.2877494 C246.663783,19.3588917 241.769861,4.74995252 244.765988,1.46093176 C247.762116,-1.82808899 259.420356,1.99154389 279.740709,12.9198304 Z" id="board"></path>
        </g>
    </g>
</svg>