<?xml version="1.0" encoding="UTF-8"?>
<svg width="599px" height="296px" viewBox="0 0 599 296" version="1.1" xmlns="http://www.w3.org/2000/svg" xmlns:xlink="http://www.w3.org/1999/xlink">
    <title>AWESOMEWOODYSCLIFFWIDE</title>
    <g id="Page-1" stroke="none" stroke-width="1" fill="none" fill-rule="evenodd">
        <g id="AWESOMEWOODYSCLIFFWIDE" transform="translate(1.000000, 1.000000)" fill="#FFFFFF" fill-rule="nonzero" stroke="#000000">
            <polyline id="board" points="598 282 8 282 8 61 598 61"></polyline>
            <path d="M286,189.948749 L446.029792,189.948749 C458.180057,189.948749 468.029792,199.798485 468.029792,211.948749 L468.029792,226.820016 C468.029792,238.970281 458.180057,248.820016 446.029792,248.820016 L286,248.820016 C273.849736,248.820016 264,238.970281 264,226.820016 L264,211.948749 C264,199.798485 273.849736,189.948749 286,189.948749 Z" id="h5"></path>
            <path d="M79,82.9487492 L239.029792,82.9487492 C251.180057,82.9487492 261.029792,92.7984847 261.029792,104.948749 L261.029792,119.820016 C261.029792,131.970281 251.180057,141.820016 239.029792,141.820016 L79,141.820016 C66.8497355,141.820016 57,131.970281 57,119.820016 L57,104.948749 C57,92.7984847 66.8497355,82.9487492 79,82.9487492 Z" id="h2"></path>
            <path d="M598,141.820016 L522,141.820016 C509.849736,141.820016 500,131.970281 500,119.820016 L500,104.948749 C500,92.7984847 509.849736,82.9487492 522,82.9487492 L598,82.9487492" id="h3"></path>
            <path d="M598,75.5274806 L16,75.5274806 C7.163444,75.5274806 9.09494702e-13,68.3640366 9.09494702e-13,59.5274806 L9.09494702e-13,11 C9.09494702e-13,2.163444 7.163444,-9.09494702e-13 16,-9.09494702e-13 L598,-9.09494702e-13" id="h1"></path>
            <path d="M598,186.480797 L16,186.480797 C7.163444,186.480797 -5.68434189e-13,179.317353 -5.68434189e-13,170.480797 L-5.68434189e-13,162 C-5.68434189e-13,153.163444 7.163444,146 16,146 L598,146" id="h4"></path>
            <path d="M598,294 L16,294 C7.163444,294 -9.09494702e-13,286.836556 -9.09494702e-13,278 L-9.09494702e-13,279 C-9.09494702e-13,270.163444 7.163444,263 16,263 L598,263" id="h6"></path>
        </g>
    </g>
</svg>