<?xml version="1.0" encoding="UTF-8"?>
<svg width="613px" height="476px" viewBox="0 0 613 476" version="1.1" xmlns="http://www.w3.org/2000/svg" xmlns:xlink="http://www.w3.org/1999/xlink">
    <title>AWESOMEWOODYSHOMEBOY</title>
    <g id="Page-1" stroke="none" stroke-width="1" fill="none" fill-rule="evenodd">
        <g id="AWESOMEWOODYSHOMEBOY" transform="translate(1.000000, 0.499685)" fill="#FFFFFF" stroke="#000000">
            <path d="M612,39.1330166 L14.1454203,39.1330166 C4.71514009,46.7775041 0,53.7825443 0,60.1481373 C0,66.5137302 0,98.4255794 0,155.883685 L612,155.883685" id="board"></path>
            <polyline id="board" points="612 155.883685 9.3637687 155.883685 14 474.486671 612 474.486671"></polyline>
            <rect id="board" x="37" y="174.500315" width="289" height="41" rx="8"></rect>
            <rect id="board" x="37" y="277.500315" width="289" height="41" rx="8"></rect>
            <rect id="board" x="37" y="380.500315" width="289" height="41" rx="8"></rect>
            <polyline id="h2" points="612 39.1330166 294.382208 39.1330166 331.477537 1.31851247e-12 612 -9.05941988e-13"></polyline>
            <polygon id="h1" points="331.477537 9.09494702e-13 294.382208 39.1330166 14.1454203 39.1330166 61.1013008 9.09494702e-13"></polygon>
            <rect id="h3" x="14" y="69.5003148" width="262" height="60" rx="8"></rect>
            <rect id="h4" x="326" y="69.5003148" width="262" height="60" rx="8"></rect>
            <path d="M306,258.500315 L14,258.500315 C9.581722,258.500315 6,254.918593 6,250.500315 L6,223.500315 C6,219.082037 9.581722,215.500315 14,215.500315 L306,215.500315" id="h5"></path>
            <path d="M306,361.500315 L14,361.500315 C9.581722,361.500315 6,357.918593 6,353.500315 L6,326.500315 C6,322.082037 9.581722,318.500315 14,318.500315 L306,318.500315" id="h7"></path>
            <polyline id="h6" points="612 215.500315 306 215.500315 306 258.500315 612 258.500315"></polyline>
            <polyline id="h8" points="612 318.500315 306 318.500315 306 361.500315 612 361.500315"></polyline>
            <path d="M306,464.500315 L14,464.500315 C9.581722,464.500315 6,460.918593 6,456.500315 L6,429.500315 C6,425.082037 9.581722,421.500315 14,421.500315 L306,421.500315" id="h9"></path>
            <polyline id="h10" points="612 421.500315 306 421.500315 306 464.500315 612 464.500315"></polyline>
        </g>
    </g>
</svg>