<?xml version="1.0" encoding="UTF-8"?>
<svg width="1324px" height="903px" viewBox="0 0 1324 903" version="1.1" xmlns="http://www.w3.org/2000/svg" xmlns:xlink="http://www.w3.org/1999/xlink">
    <title>BABYFUNBUTTERFLY</title>
    <g id="Page-1" stroke="none" stroke-width="1" fill="none" fill-rule="evenodd">
        <g id="BABYFUNBUTTERFLY" transform="translate(1.273844, 1.185477)" fill="#FFFFFF" stroke="#000000">
            <path d="M1322.72616,92.3031439 L1209.93517,92.3031439 C1167.26294,83.8318483 1138.84936,77.1977399 1124.69445,72.4008189 C1103.46208,65.2054372 926.989461,0 760.073742,0 C593.158022,0 356.597964,45.693454 204.66206,137.292804 C52.7261562,228.892153 0,320.968443 0,362.391433 C0,403.814423 24.7810377,417.109796 100.313035,422.615806 C175.845032,428.121816 206.129997,393.680615 258.666193,398.071677 C311.202388,402.462739 344.402637,487.009778 422.813644,492.609337 C501.22465,498.208896 555.168069,489.455409 584.780924,489.455409 C614.393778,489.455409 632.011299,531.077044 661.363078,538.245838 C680.93093,543.025033 686.482691,554.915266 678.01836,573.916536 C671.310094,654.384577 694.327882,710.35433 747.071724,741.825794 C826.187487,789.032989 961.560678,840.104149 998.669197,858.499281 C1035.77772,876.894413 1038.65127,900.899149 1067.97057,900.899149 C1097.28987,900.899149 1116.14169,871.490326 1132.37031,845.377444 C1148.59894,819.264561 1220.11987,758.584409 1253.62751,758.584409 C1287.13515,758.584409 1292.90297,798.969003 1322.72616,798.969003" id="board"></path>
            <path d="M1322.72616,532.026297 C1248.32369,532.026297 1177.06624,553.260772 1136.95178,610.196339 C1096.83732,667.131906 1144.80255,721.512641 1184.08582,702.796461 C1223.36909,684.08028 1283.97487,647.08072 1322.72616,647.08072" id="h7"></path>
            <path d="M805.203403,549.551747 C814.826721,558.836353 880.582282,635.907174 936.453603,650.309739 C992.324924,664.712304 1011.09509,678.978735 1013.30402,693.569294 C1015.51294,708.159852 1000.53667,732.439311 936.453603,727.224114 C872.370535,722.008917 820.9666,678.824422 802.016539,646.216351 C783.066478,613.60828 779.458612,593.188651 781.365513,569.8129 C783.272414,546.43715 795.580084,540.267141 805.203403,549.551747 Z" id="h6"></path>
            <path d="M1018.55897,454.712046 C1034.16102,454.712046 1048.28602,461.036024 1058.5105,471.260513 C1068.73499,481.485002 1075.05897,495.610002 1075.05897,511.212046 C1075.05897,525.714027 1069.18088,538.843106 1059.6773,548.34669 C1050.17371,557.850275 1037.04463,563.728364 1022.54265,563.728364 C1021.27533,563.728364 1020.00842,563.682489 1018.74441,563.59083 L928.745882,557.064593 C915.872283,556.131065 904.133629,550.894159 895.042427,542.714698 C885.951225,534.535236 879.507475,523.413219 877.223686,510.709466 L876.053202,504.198556 C873.998806,492.770823 876.770904,481.592244 882.913534,472.757 C889.056164,463.921755 898.569326,457.429845 909.997059,455.37545 C912.452344,454.934056 914.942039,454.712046 917.436684,454.712046 Z" id="h5" transform="translate(971.058972, 511.212046) rotate(23.000000) translate(-971.058972, -511.212046) "></path>
            <rect id="h4" transform="translate(1052.226156, 329.814523) rotate(12.000000) translate(-1052.226156, -329.814523) " x="883.226156" y="273.314523" width="338" height="113" rx="56.5"></rect>
            <path d="M729.724595,305.178752 C753.17024,335.618539 768.545853,366.56864 768.545853,375.732934 C768.545853,384.897229 775.250613,432.198569 749.135224,432.198569 C723.019836,432.198569 665.958296,408.964619 653.621557,392.301751 C641.284817,375.638882 628.60731,328.911272 646.753519,305.178752 C664.899729,281.446231 706.278951,274.738965 729.724595,305.178752 Z" id="h3"></path>
            <path d="M533.726156,306.314523 C545.738349,306.314523 556.613349,311.183426 564.485301,319.055378 C572.357253,326.927329 577.226156,337.802329 577.226156,349.814523 L577.226156,371.814523 C577.226156,383.826716 572.357253,394.701716 564.485301,402.573668 C556.613349,410.445619 545.738349,415.314523 533.726156,415.314523 L433.214714,415.314523 C425.416061,415.314523 417.91585,413.226855 411.396586,409.447212 C404.877323,405.66757 399.339008,400.195953 395.464148,393.428055 L376.649513,360.566091 C371.676726,351.880537 370.695229,342.001622 373.128318,333.0509 C375.561406,324.100178 381.40908,316.077648 390.094635,311.104861 C395.577228,307.965883 401.785095,306.314523 408.10269,306.314523 Z" id="h2"></path>
            <path d="M1322.72616,92.3031439 L1209.93517,92.3031439 C1167.26294,83.8318483 1138.84936,77.1977399 1124.69445,72.4008189 C1103.46208,65.2054372 926.989461,1.45519152e-11 760.073742,1.45519152e-11 C593.158022,1.45519152e-11 356.597964,45.693454 204.66206,137.292804 C52.7261562,228.892153 1.13686838e-13,320.968443 1.13686838e-13,362.391433 C1.13686838e-13,403.814423 26.4805455,427.319745 100.313035,422.615806 C174.145524,417.911867 357.529098,121.807738 734.853678,121.807738 C1112.17826,121.807738 1095.0234,221.808087 1322.72616,221.808087" id="h1"></path>
        </g>
    </g>
</svg>