<?xml version="1.0" encoding="UTF-8"?>
<svg width="204px" height="117px" viewBox="0 0 204 117" version="1.1" xmlns="http://www.w3.org/2000/svg" xmlns:xlink="http://www.w3.org/1999/xlink">
    <!-- Generator: Sketch 54.1 (76490) - https://sketchapp.com -->
    <title>BEAST1000</title>
    <desc>Created with Sketch.</desc>
    <g id="Page-1" stroke="none" stroke-width="1" fill="none" fill-rule="evenodd">
        <g id="BEAST1000" transform="translate(1.000000, 0.000000)" stroke="#000000">
            <g id="hangboard" transform="translate(0.000000, 0.196000)">
                <path d="M203,10.1489476 L99.6220411,10.1489476 C99.6220411,10.1489476 91.7347606,12.6866255 90.6080062,9.89937264 C89.4812519,7.11211978 88.3344664,2.5568781 77.0038246,1.37189631 C46.3731328,-1.83064924 8.31387471,7.48648218 0.0510094756,55.8211604 C0.0510094756,55.8211604 -1.03468094,73.7076968 6.81153558,77.8666135 C6.81153558,77.8666135 12.3201124,107.982322 51.8817096,115.802003 L203,115.804" id="Fill-1" fill="#E5E6E7"></path>
                <path d="M203,9.6646 L99.9672,9.6646 C99.9672,9.6646 92.0922,12.2066 90.9672,9.4146 C89.8422,6.6226 88.6972,2.0596 77.3842,0.8726 C46.8012,-2.3354 8.8012,6.9976 0.5512,55.4146 C0.5512,55.4146 -0.5328,73.3316 7.3012,77.4976 L203,78.8040814" id="Fill-5" fill="#D0D2D3"></path>
            </g>
            <path d="M192.0919,103.1106 L166.5019,103.1106 C161.4829,103.1106 157.3769,99.0046 157.3769,93.9856 C157.3769,88.9666 161.4829,84.8606 166.5019,84.8606 L192.0919,84.8606 C197.1109,84.8606 201.2169,88.9666 201.2169,93.9856 C201.2169,99.0046 197.1109,103.1106 192.0919,103.1106" id="h12" fill="#D0D2D3"></path>
            <path d="M126.0924,103.1106 L137.5924,103.1106 C142.6114,103.1106 146.7174,99.0046 146.7174,93.9856 C146.7174,88.9666 142.6114,84.8606 137.5924,84.8606 L126.0924,84.8606 C121.0734,84.8606 116.9674,88.9666 116.9674,93.9856 C116.9674,99.0046 121.0734,103.1106 126.0924,103.1106" id="h11" fill="#D0D2D3"></path>
            <path d="M96.8424,103.1106 L52.7854,103.1106 C47.7674,103.1106 43.6604,99.0046 43.6604,93.9856 C43.6604,88.9666 47.7674,84.8606 52.7854,84.8606 L96.8424,84.8606 C101.8614,84.8606 105.9674,88.9666 105.9674,93.9856 C105.9674,99.0046 101.8614,103.1106 96.8424,103.1106" id="h10" fill="#D0D2D3"></path>
            <path d="M203,68.386 L179.1022,68.386 C174.3522,68.386 170.4652,64.499 170.4652,59.748 C170.4652,54.997 174.3522,51.111 179.1022,51.111 L203,51.111" id="h9" fill="#939597"></path>
            <path d="M123.4381,68.386 L154.2791,68.386 C159.0291,68.386 162.9171,64.499 162.9171,59.748 C162.9171,54.997 159.0291,51.111 154.2791,51.111 L123.4381,51.111 C118.6881,51.111 114.8001,54.997 114.8001,59.748 C114.8001,64.499 118.6881,68.386 123.4381,68.386" id="h8" fill="#A6A8AB"></path>
            <path d="M100.4962,68.386 L84.4382,68.386 C79.6872,68.386 75.8012,64.499 75.8012,59.748 C75.8012,54.997 79.6872,51.111 84.4382,51.111 L100.4962,51.111 C105.2472,51.111 109.1342,54.997 109.1342,59.748 C109.1342,64.499 105.2472,68.386 100.4962,68.386" id="h7" fill="#A6A8AB"></path>
            <path d="M15.4386,68.386 L60.3106,68.386 C65.0606,68.386 68.9476,64.499 68.9476,59.748 C68.9476,54.997 65.0606,51.111 60.3106,51.111 L15.4386,51.111 C10.6876,51.111 6.8006,54.997 6.8006,59.748 C6.8006,64.499 10.6876,68.386 15.4386,68.386" id="h6" fill="#A6A8AB"></path>
            <path d="M162.0679,41.8606 C157.3239,41.8606 153.4429,37.9796 153.4429,33.2356 C153.4429,28.4916 157.3239,24.6106 162.0679,24.6106 L188.5919,24.6106 C193.3359,24.6106 197.2169,28.4916 197.2169,33.2356 C197.2169,37.9796 193.3359,41.8606 188.5919,41.8606 L162.0679,41.8606 Z" id="h5" fill="#A6A8AB"></path>
            <path d="M26.8424,41.8606 L67.1754,41.8606 C71.9194,41.8606 75.8004,37.9796 75.8004,33.2356 C75.8004,28.4916 71.9194,24.6106 67.1754,24.6106 L26.8424,24.6106 C22.0984,24.6106 18.2174,28.4916 18.2174,33.2356 C18.2174,37.9796 22.0984,41.8606 26.8424,41.8606" id="h4" fill="#E5E6E7"></path>
            <polyline id="h3" fill="#BBBDBF" points="203 9.861 160.2171 9.861 152.2171 15.61 203 15.61"></polyline>
            <path d="M152.2174,15.6106 C152.2174,15.6106 151.7174,25.6106 142.9674,25.6106 C134.2174,25.6106 81.3424,24.6106 81.3424,24.6106 C81.3424,24.6106 79.8114,3.1416 86.1664,3.4516 C86.1664,3.4516 90.4724,6.0276 91.0944,9.8606 C91.0944,9.8606 91.7174,12.0276 99.9674,9.8606 L160.2174,9.8606 L152.2174,15.6106 Z" id="h2" fill="#BBBDBF"></path>
            <path d="M81.3081055,23.7929688 C80.4121055,5.27296871 85.1345215,3.196 85.1345215,3.196 C77.7715215,1.373 70.526,0.715 64.334,0.715 C30.364,0.717 13.4484863,23.5651855 13.4484863,23.5651855" id="h1" fill="#D0D2D3"></path>
        </g>
    </g>
</svg>