<?xml version="1.0" encoding="UTF-8"?>
<svg width="585px" height="332px" viewBox="0 0 585 332" version="1.1" xmlns="http://www.w3.org/2000/svg" xmlns:xlink="http://www.w3.org/1999/xlink">
    <!-- Generator: Sketch 54.1 (76490) - https://sketchapp.com -->
    <title>BEAST1000</title>
    <desc>Created with Sketch.</desc>
    <g id="Page-1" stroke="none" stroke-width="1" fill="none" fill-rule="evenodd">
        <g id="BEAST1000" transform="translate(293.000000, 166.000000) scale(-1, 1) translate(-293.000000, -166.000000) translate(1.000000, 1.000000)">
            <path d="M0.49,330 L453.64,330 C465.13,330 476.22,326.22 485.56,322.12 C511.646911,309.945663 534.126705,291.207906 550.8,267.74 C572.38181,238.766056 583.972904,203.568154 583.83,167.44 C583.83,120.63 564.94,78.44 534.71,48.77 C489.29,6.23 457.13,-0.89 403.71,0.1 L360.36,0.1 C353.983391,0.0999904566 348.811032,5.26340017 348.8,11.64 L348.8,23.56 C348.801099,25.4483543 347.924725,27.2300259 346.428261,28.3817547 C344.931798,29.5334834 342.985139,29.9245124 341.16,29.44 L333.46,27.44 C326.640426,25.632553 319.61503,24.718243 312.56,24.72 L0.49,24.72" id="Path" stroke="#292929" fill="#FFFFFF"></path>
            <path d="M116.3,242.59 L41,242.59 C31.3468298,242.403088 22.3458585,247.446038 17.4645093,255.776168 C12.58316,264.106298 12.58316,274.423702 17.4645093,282.753832 C22.3458585,291.083962 31.3468298,296.126912 41,295.94 L116.3,295.94 C125.95317,296.126912 134.954142,291.083962 139.835491,282.753832 C144.71684,274.423702 144.71684,264.106298 139.835491,255.776168 C134.954142,247.446038 125.95317,242.403088 116.3,242.59 L116.3,242.59 Z" id="h12" stroke="#292929" fill="#FFFFFF"></path>
            <path d="M234.21,242.59 L190.15,242.59 C180.49683,242.403088 171.495858,247.446038 166.614509,255.776168 C161.73316,264.106298 161.73316,274.423702 166.614509,282.753832 C171.495858,291.083962 180.49683,296.126912 190.15,295.94 L234.21,295.94 C243.86317,296.126912 252.864142,291.083962 257.745491,282.753832 C262.62684,274.423702 262.62684,264.106298 257.745491,255.776168 C252.864142,247.446038 243.86317,242.403088 234.21,242.59 L234.21,242.59 Z" id="h11" stroke="#292929" fill="#FFFFFF"></path>
            <path d="M441.31,242.59 L310.09,242.59 C300.43683,242.403088 291.435858,247.446038 286.554509,255.776168 C281.67316,264.106298 281.67316,274.423702 286.554509,282.753832 C291.435858,291.083962 300.43683,296.126912 310.09,295.94 L441.31,295.94 C450.96317,296.126912 459.964142,291.083962 464.845491,282.753832 C469.72684,274.423702 469.72684,264.106298 464.845491,255.776168 C459.964142,247.446038 450.96317,242.403088 441.31,242.59 L441.31,242.59 Z" id="h10" stroke="#292929" fill="#FFFFFF"></path>
            <path d="M0.49,195.290017 L65,195.29 C72.0811724,195.297962 78.8750444,192.490557 83.8850053,187.486223 C88.8949662,182.48189 91.7100045,175.691177 91.71,168.61 L91.71,168.61 C91.7073492,161.529638 88.8914589,154.740469 83.8820743,149.736711 C78.8726896,144.732953 72.0803604,141.924694 65,141.93 L0.49,141.929992" id="h9" stroke="#292929" fill="#FFFFFF"></path>
            <path d="M108.27,168.61 C108.267325,175.695464 111.084255,182.490764 116.099123,187.496252 C121.113991,192.501739 127.914553,195.305941 135,195.29 L216.4,195.29 C225.931846,195.29 234.739635,190.204821 239.505558,181.95 C244.271482,173.695179 244.271482,163.524821 239.505558,155.27 C234.739635,147.015179 225.931846,141.93 216.4,141.93 L135,141.93 C127.915365,141.916723 121.11635,144.721781 116.10206,149.726691 C111.087771,154.731602 108.269988,161.525352 108.27,168.61 Z" id="h8" stroke="#292929" fill="#FFFFFF"></path>
            <path d="M335,195.29 C344.531846,195.29 353.339635,190.204821 358.105558,181.95 C362.871482,173.695179 362.871482,163.524821 358.105558,155.27 C353.339635,147.015179 344.531846,141.93 335,141.93 L287.57,141.93 C272.835043,141.93 260.89,153.875043 260.89,168.61 C260.89,183.344957 272.835043,195.29 287.57,195.29 L335,195.29 Z" id="h7" stroke="#292929" fill="#FFFFFF"></path>
            <path d="M528.52,141.93 L402.35,141.93 C387.615043,141.93 375.67,153.875043 375.67,168.61 C375.67,183.344957 387.615043,195.29 402.35,195.29 L528.52,195.29 C538.051846,195.29 546.859635,190.204821 551.625558,181.95 C556.391482,173.695179 556.391482,163.524821 551.625558,155.27 C546.859635,147.015179 538.051846,141.93 528.52,141.93 Z" id="h6" stroke="#292929" fill="#FFFFFF"></path>
            <path d="M41,119.77 L116.3,119.77 C131.034957,119.77 142.98,107.824957 142.98,93.09 C142.98,78.3550429 131.034957,66.41 116.3,66.41 L41,66.41 C26.2650429,66.41 14.32,78.3550429 14.32,93.09 C14.32,107.824957 26.2650429,119.77 41,119.77 Z" id="h5" stroke="#292929" fill="#FFFFFF"></path>
            <path d="M388.4,119.77 L505.12,119.77 C519.854957,119.77 531.8,107.824957 531.8,93.09 C531.8,78.3550429 519.854957,66.41 505.12,66.41 L388.4,66.41 C373.665043,66.41 361.72,78.3550429 361.72,93.09 C361.72,107.824957 373.665043,119.77 388.4,119.77 L388.4,119.77 Z" id="h4" stroke="#292929" fill="#FFFFFF"></path>
            <path d="M0.49,25.0761719 L162.957031,25.0761719 C158.473619,29.1973607 155.394609,32.2486368 153.72,34.23 C152.045391,36.2113632 150.435391,38.7080299 148.89,41.72 L148.89,41.72 L0.49,41.72" id="h3" stroke="#292929" fill="#FFFFFF"></path>
            <path d="M163.47,24.69 L153.72,34.23 C148.936016,38.9038346 146.791623,45.6519261 148,52.23 L151,68.44 L347.79,68.44 C354.142894,68.4400024 359.294481,63.2928919 359.3,56.94 L359.3,0.09 C352.3,2.65221354 348.8,6.50221354 348.8,11.64 C348.8,19.3466797 349.394727,29.59 343.9,29.59 C338.405273,29.59 321.805664,25.0761719 313.305664,25.0761719 C307.638997,25.0761719 257.693776,24.9474479 163.47,24.69 Z" id="h2" stroke="#292929" fill="#FFFFFF"></path>
            <path d="M343.9,29.59 L343.9,68.45" id="Path" stroke="#292929" fill="#FFFFFF"></path>
            <path d="M475.987976,0.623962402 L543.480469,0.623962402 L543.480469,58.75 L359.816589,58.75 C368.547058,50.0117187 409.911804,0.623962402 475.987976,0.623962402 Z" id="h1" fill="#FEFEFE" transform="translate(451.648529, 29.686981) scale(-1, 1) translate(-451.648529, -29.686981) "></path>
        </g>
    </g>
</svg>