<?xml version="1.0" encoding="UTF-8"?>
<svg width="641px" height="304px" viewBox="0 0 641 304" version="1.1" xmlns="http://www.w3.org/2000/svg" xmlns:xlink="http://www.w3.org/1999/xlink">
    <!-- Generator: Sketch 54.1 (76490) - https://sketchapp.com -->
    <title>BEAST2000</title>
    <desc>Created with Sketch.</desc>
    <g id="Page-1" stroke="none" stroke-width="1" fill="none" fill-rule="evenodd">
        <g id="BEAST2000" transform="translate(321.000000, 152.000000) scale(-1, 1) translate(-321.000000, -152.000000) translate(1.000000, 0.000000)" stroke="#292929">
            <path d="M0,303.37 L581.89,303.37 C593.486998,303.37 604.608867,298.762427 612.808245,290.561173 C621.007623,282.35992 625.612653,271.236997 625.61,259.64 L625.56,191.08 C622.413712,194.645911 618.645893,197.610696 614.44,199.83 L614.44,199.83 L614.02,200.05 C612.398122,200.881302 610.720803,201.599675 609,202.2 L608.41,202.41 C607.89,202.58 607.41,202.73 606.85,202.88 L606.07,203.09 C605.18,203.32 604.29,203.52 603.39,203.68 C603.08,203.74 602.77,203.81 602.45,203.86 C602.13,203.91 601.6,203.98 601.17,204.03 C600.74,204.08 600.28,204.14 599.83,204.18 L598.7,204.28 C597.97,204.28 597.24,204.35 596.51,204.36 L0,204.36" id="Path" fill="#FFFFFF"></path>
            <path d="M0,204.37 L596.47,204.37 C597.2,204.37 597.93,204.37 598.66,204.29 L599.79,204.19 C600.24,204.19 600.68,204.1 601.13,204.04 C601.58,203.98 601.99,203.94 602.41,203.87 C602.83,203.8 603.04,203.75 603.35,203.69 C604.25,203.53 605.15,203.33 606.03,203.1 L606.81,202.89 C607.33,202.74 607.81,202.59 608.37,202.42 L608.96,202.21 C610.694427,201.611393 612.385165,200.892997 614.02,200.06 L614.44,199.84 C618.650912,197.615692 622.419565,194.640083 625.56,191.06 C628.37026,187.883033 630.643445,184.268905 632.29,180.36 L637,169.27 C638.99399,164.468675 640.013748,159.318897 640,154.12 L640,110.77 C639.995874,101.156141 637.832644,91.6659501 633.67,83 L431.73,83 C427.458101,82.9993208 423.703991,80.1674158 422.53,76.06 L416.53,54.99 L415.45,51.21 C414.892909,49.2694806 413.118901,47.9318384 411.1,47.93 L203.89,47.93 C199.408221,47.9342279 195.525113,44.8244156 194.55,40.45 L185.63,0.67 L0,0.67" id="Path" fill="#FFFFFF"></path>
            <g id="holds" transform="translate(0.000000, 0.630000)">
                <path d="M0,273.890029 L72.65,273.89 C79.8999903,273.900619 86.8566762,271.028012 91.9869492,265.905242 C97.1172223,260.782472 100.000008,253.829998 100,246.58 L100,246.58 C100.000008,239.330002 97.1172223,232.377528 91.9869492,227.254758 C86.8566762,222.131988 79.8999903,219.259381 72.65,219.27 L0,219.269971" id="Path" fill="#FFFFFF"></path>
                <path d="M194.38,219.27 L148.23,219.27 C133.147103,219.27 120.92,231.497103 120.92,246.58 C120.92,261.662897 133.147103,273.89 148.23,273.89 L194.38,273.89 C209.462897,273.89 221.69,261.662897 221.69,246.58 C221.69,231.497103 209.462897,219.27 194.38,219.27 L194.38,219.27 Z" id="h14" fill="#FFFFFF"></path>
                <path d="M314.18,219.27 L268,219.27 C252.917103,219.27 240.69,231.497103 240.69,246.58 C240.69,261.662897 252.917103,273.89 268,273.89 L314.14,273.89 C329.222897,273.89 341.45,261.662897 341.45,246.58 C341.45,231.497103 329.222897,219.27 314.14,219.27 L314.18,219.27 Z" id="h13" fill="#FFFFFF"></path>
                <path d="M389.38,219.91 C374.650566,219.91 362.71,231.850566 362.71,246.58 C362.71,261.309434 374.650566,273.25 389.38,273.25 C404.109434,273.25 416.05,261.309434 416.05,246.58 C416.05,231.850566 404.109434,219.91 389.38,219.91 L389.38,219.91 Z" id="h12" fill="#FFFFFF"></path>
                <path d="M578.19,219.27 L461.26,219.27 C446.177103,219.27 433.95,231.497103 433.95,246.58 C433.95,261.662897 446.177103,273.89 461.26,273.89 L578.19,273.89 C593.272897,273.89 605.5,261.662897 605.5,246.58 C605.5,231.497103 593.272897,219.27 578.19,219.27 L578.19,219.27 Z" id="h11" fill="#FFFFFF"></path>
                <path d="M-1.42108547e-14,169.07 L56.22,169.07 C71.3028965,169.07 83.53,156.842897 83.53,141.76 C83.53,126.677103 71.3028965,114.45 56.22,114.45 L56.22,114.45 L-1.42108547e-14,114.45" id="Path" fill="#FFFFFF"></path>
                <rect id="h9" fill="#FFFFFF" x="108.75" y="114.45" width="104.83" height="54.62" rx="27.31"></rect>
                <path d="M277.06,154.82 C277.054479,139.735486 264.824515,127.509999 249.74,127.51 L245.42,127.51 C242.791228,131.797253 241.406315,136.731005 241.42,141.76 L241.42,141.76 C241.417346,149.003876 244.293789,155.951823 249.415983,161.074017 C254.538177,166.196211 261.486124,169.072654 268.73,169.07 L273.09,169.07 C275.714408,164.780842 277.098967,159.848351 277.09,154.82 L277.06,154.82 Z" id="h8" fill="#FFFFFF"></path>
                <path d="M313.54,114.45 L268.69,114.45 C259.188217,114.45372 250.372908,119.401203 245.42,127.51 L249.74,127.51 C264.824515,127.509999 277.054479,139.735486 277.06,154.82 L277.06,154.82 C277.068967,159.848351 275.684408,164.780842 273.06,169.07 L313.55,169.07 C328.632897,169.07 340.86,156.842897 340.86,141.76 L340.86,141.76 C340.86,134.515205 337.981333,127.567283 332.857551,122.445377 C327.733769,117.323471 320.784795,114.447347 313.54,114.45 Z" id="h7" fill="#FFFFFF"></path>
                <path d="M389.38,104.45 C378.592082,104.450001 368.8666,110.94902 364.739178,120.916144 C360.611755,130.883268 362.89536,142.355294 370.525001,149.982074 C378.154641,157.608853 389.627523,159.888156 399.593098,155.756996 C409.558673,151.625836 416.054045,141.897917 416.05,131.11 C416.044479,116.384471 404.10553,104.449999 389.38,104.45 Z" id="h6" fill="#FFFFFF"></path>
                <rect id="h5" fill="#FFFFFF" x="442.11" y="114.45" width="178.26" height="54.62" rx="27.31"></rect>
                <rect id="h4" fill="#FFFFFF" x="15.24" y="33.74" width="142.13" height="54.62" rx="27.31"></rect>
                <path d="M-2.84217094e-14,8.29 L175.84,8.29 C182.633168,8.3068123 188.510655,13.022084 190,19.65 L191.1,24.55 L185.63,0.04 L-2.84217094e-14,0.04" id="h3"></path>
                <path d="M203.89,47.26 L411.05,47.26 C413.068901,47.2618384 414.842909,48.5994806 415.4,50.54 L416.48,54.37 L401,-3.55271368e-15 L185.63,-3.55271368e-15 L194.55,39.78 C195.525113,44.1544156 199.408221,47.2642279 203.89,47.26 Z" id="h2" fill="#FFFFFF"></path>
                <path d="M422.53,75.37 C423.703991,79.4774158 427.458101,82.3093208 431.73,82.31 L633.67,82.31 L610.73,35.01 C600.355342,13.6029961 578.658513,0.00849193197 554.87,0.01 L401,0.01 L416.48,54.37 L422.53,75.37 Z" id="h1" fill="#FFFFFF"></path>
            </g>
        </g>
    </g>
</svg>