<?xml version="1.0" encoding="UTF-8"?>
<svg width="226px" height="116px" viewBox="0 0 226 116" version="1.1" xmlns="http://www.w3.org/2000/svg" xmlns:xlink="http://www.w3.org/1999/xlink">
    <!-- Generator: Sketch 54.1 (76490) - https://sketchapp.com -->
    <title>BEAST2000</title>
    <desc>Created with Sketch.</desc>
    <g id="Page-1" stroke="none" stroke-width="1" fill="none" fill-rule="evenodd">
        <g id="BEAST2000" transform="translate(0.000000, 1.000000)" fill-rule="nonzero" stroke="#000000">
            <g id="hangboard" transform="translate(0.000000, 12.000000)">
                <path d="M226,102 L17.7055599,102 C7.90185331,102 3,96.5344393 3,85.603318 C3,74.6721967 3,62.1347463 3,59.3303223 C3,60.5901693 6.79622396,68.9812826 20.2501628,68.9812826 C33.7041016,68.9812826 88.2865764,69.2066361 226,69.2066361" id="Path" fill="#E5E6E7"></path>
                <path d="M226,0.546875 L160.516602,0.546875 C156.838867,0.805419922 155,2.79134115 155,6.50463867 C155,10.2179362 155,11.5643311 155,10.5438232 C155.147298,12.2469482 153.674967,13.0985107 150.583008,13.0985107 C145.945068,13.0985107 89.9721094,13.0985107 83.905,13.0985107 C79.8602604,13.0985107 77.8378906,14.6944173 77.8378906,17.8862305 C78.6212565,26.5950521 74.6617839,30.9494629 65.9594727,30.9494629 C57.2571615,30.9494629 37.6416016,30.9494629 7.11279297,30.9494629 C2.89982096,31.2430827 0.793334961,33.3495687 0.793334961,37.2689209 C0.793334961,41.1882731 0.793334961,43.1479492 0.793334961,43.1479492 L0.793334961,55.9448242 C3.19087728,64.7247721 9.59602865,69.1147461 20.0087891,69.1147461 C30.4215495,69.1147461 99.1396485,69.1147461 226,69.1147461" id="Path-3" fill="#D8D8D8"></path>
            </g>
            <path d="M226,104 L192,104 C187.581722,104 184,100.418278 184,96 L184,94 C184,89.581722 187.581722,86 192,86 L226,86" id="h15" fill="#D0D2D3"></path>
            <rect id="h14" fill="#D0D2D3" x="145.5" y="86.5" width="33" height="17" rx="8.5"></rect>
            <rect id="h13" fill="#D0D2D3" x="104.5" y="86.5" width="33" height="17" rx="8.5"></rect>
            <rect id="h12" fill="#D0D2D3" x="77.5" y="86.5" width="18" height="17" rx="8.5"></rect>
            <rect id="h11" fill="#D0D2D3" x="12.5" y="86.5" width="58" height="17" rx="8.5"></rect>
            <path d="M226,50.6120605 L199.166504,50.6120605 C194.075521,50.9859212 191.530029,54.144043 191.530029,60.0864258 C191.530029,66.0288086 194.075521,69 199.166504,69 L226,69" id="h10" fill="#939597"></path>
            <rect id="h9" fill="#A6A8AB" x="147.5" y="50.5" width="33" height="18" rx="9"></rect>
            <rect id="h8" fill="#A6A8AB" x="104.5" y="50.5" width="33" height="18" rx="9"></rect>
            <path d="M137.498834,57.4816762 C136.081028,56.2208581 134.187567,55.5 132.166667,55.5 C127.923941,55.5 124.5,58.6605614 124.5,62.5384615 C124.5,64.9854145 125.872614,67.2194565 128.089638,68.5 L130,68.5 C134.142136,68.5 137.5,65.1421356 137.5,61 L137.5,57.6153846 C137.5,57.5707652 137.499611,57.5261947 137.498834,57.4816762 Z" id="h7" fill="#939597"></path>
            <rect id="h6" fill="#939597" x="78.5" y="49.5" width="17" height="17" rx="8"></rect>
            <rect id="h5" fill="#A6A8AB" x="8.5" y="50.5" width="61" height="18" rx="9"></rect>
            <rect id="h4" fill="#A6A8AB" x="169.5" y="25.5" width="46" height="16" rx="8"></rect>
            <path d="M226,0 L153,0 C154.282967,3.12858073 154.829886,8.61621094 154.640758,16.4628906 C155.778359,17.79743 152.404891,12.465332 163.625817,12.465332 C171.106434,12.465332 192.152386,12.465332 226,12.465332" id="h3" fill="#BBBDBF"></path>
            <path d="M77,0 C78.6023763,14.4825846 78.9357096,24.203776 78,29.1635742 C78,29.1635742 76.4311523,24.918457 85.0856934,24.918457 C90.8553874,24.918457 112.575033,24.918457 150.244629,24.918457 C153.186876,25.2485352 154.772,24.4419759 155,22.4987793 C155.718424,14.0843913 155.179036,6.58479818 153.381836,0 L77,0 Z" id="h2" fill="#BBBDBF"></path>
            <path d="M77.206665,0 L14.3638916,0 C6.92574056,0.450520833 3.20666504,3.44270833 3.20666504,8.9765625 C3.20666504,14.5104167 2.47111003,28.0295097 1,49.5338416 C1.22306315,45.2827649 4.56408691,43.1572266 11.0230713,43.1572266 C17.4820557,43.1572266 36.7271729,43.1572266 68.7584229,43.1572266 C75.057251,42.1523185 78.206665,37.4877677 78.206665,29.1635742 C78.206665,20.8393807 77.8733317,11.1181893 77.206665,0 Z" id="h1" fill="#BBBDBF"></path>
        </g>
    </g>
</svg>