<?xml version="1.0" encoding="UTF-8"?>
<svg width="587px" height="332px" viewBox="0 0 587 332" version="1.1" xmlns="http://www.w3.org/2000/svg" xmlns:xlink="http://www.w3.org/1999/xlink">
    <title>BLANKSLATECHAMP</title>
    <g id="Page-1" stroke="none" stroke-width="1" fill="none" fill-rule="evenodd">
        <g id="BLANKSLATECHAMP" transform="translate(0.997520, 0.792845)" fill="#FFFFFF" stroke="#000000">
            <path d="M585.00248,264.558906 L14.9657612,264.558906 L14.9657612,322.235632 C14.8166791,327.680541 19.7995928,330.402996 29.9145022,330.402996 C40.0294115,330.402996 225.058737,329.42296 585.00248,327.462888" id="board"></path>
            <path d="M585.00248,195.39285 L8.23443974,195.39285 L8.23443974,255.295403 C7.5325017,261.471072 9.77627551,264.558906 14.9657612,264.558906 C20.1552468,264.558906 210.211611,264.558906 585.134853,264.558906" id="board"></path>
            <path d="M585.00248,2.24789076 L387.125303,0 L387.125303,13.5890532 C388.262362,44.5297348 383.005615,60.0000756 371.355064,60.0000756 C359.704512,60.0000756 235.919491,60.0000756 0,60.0000756 L0,187.516299 C0.131921132,192.767333 2.87673438,195.39285 8.23443974,195.39285 C13.5921451,195.39285 205.848158,195.39285 585.00248,195.39285" id="board"></path>
            <path d="M15.4582156,276.207155 L191.00248,276.207155 C199.839036,276.207155 207.00248,283.370599 207.00248,292.207155 C207.00248,301.043711 199.839036,308.207155 191.00248,308.207155 L15.4582156,308.207155" id="h11"></path>
            <rect id="h3" x="34.0024796" y="133.207155" width="61" height="41" rx="20.5"></rect>
            <rect id="h4" x="124.00248" y="133.207155" width="94" height="41" rx="20.5"></rect>
            <rect id="h5" x="247.00248" y="133.207155" width="175" height="41" rx="20.5"></rect>
            <rect id="h7" x="116.00248" y="201.207155" width="175" height="41" rx="20.5"></rect>
            <rect id="h8" x="319.00248" y="201.207155" width="60" height="41" rx="20.5"></rect>
            <rect id="h9" x="407.00248" y="201.207155" width="90" height="41" rx="20.5"></rect>
            <rect id="h14" x="415.00248" y="269.207155" width="60" height="41" rx="20.5"></rect>
            <rect id="h13" x="296.00248" y="269.207155" width="95" height="41" rx="20.5"></rect>
            <path d="M585.107799,242.207155 L585.107799,242.207155 L545.50248,242.207155 C534.180642,242.207155 525.00248,233.028992 525.00248,221.707155 C525.00248,210.385317 534.180642,201.207155 545.50248,201.207155 L585.134853,201.207155 L585.134853,201.207155" id="h10"></path>
            <path d="M585.005682,310.207155 L519.138853,310.207155 C508.090949,310.207155 499.134853,301.028992 499.134853,289.707155 C499.134853,278.385317 508.090949,269.207155 519.138853,269.207155 L585.134853,269.207155" id="h15"></path>
            <circle id="h6" cx="67.5024796" cy="221.707155" r="20.5"></circle>
            <circle id="h12" cx="251.50248" cy="289.707155" r="20.5"></circle>
            <path d="M386.804269,13.5890532 C388.518334,44.5297348 383.368599,60.0000756 371.355064,60.0000756 C359.341529,60.0000756 307.262636,60.0000756 215.118385,60.0000756 C207.481089,58.0492271 203.66244,52.1694912 203.66244,42.3608679 C203.66244,32.5522446 203.66244,22.9616397 203.66244,13.5890532 L386.804269,13.5890532 Z" id="h2"></path>
            <path d="M203.66244,13.5890532 L20.9739365,13.5890532 C6.99296521,13.5890532 0.0024795883,29.059394 0.0024795883,60.0000756 C0.0024795883,60.0000756 72.637339,60.0000756 217.907058,60.0000756 C208.410646,58.9115469 203.66244,53.6898103 203.66244,44.3348657 C203.66244,34.979921 203.66244,24.7313169 203.66244,13.5890532 Z" id="h1"></path>
        </g>
    </g>
</svg>