<?xml version="1.0" encoding="UTF-8"?>
<svg width="605px" height="375px" viewBox="0 0 605 375" version="1.1" xmlns="http://www.w3.org/2000/svg" xmlns:xlink="http://www.w3.org/1999/xlink">
    <title>BLANKSLATENINJA</title>
    <g id="Page-1" stroke="none" stroke-width="1" fill="none" fill-rule="evenodd">
        <g id="BLANKSLATENINJA" transform="translate(1.008130, 1.000000)" fill="#FFFFFF" stroke="#000000">
            <path d="M602.99187,-1.70530257e-13 L148.014787,-1.70530257e-13 C134.603078,0.742909427 124.499624,4.2830036 117.704425,10.6202825 C110.909226,16.9575614 72.1715364,51.3502102 1.49135637,113.798229 C-2.55422899,122.5973 1.63099549,126.996836 14.0470298,126.996836 C26.4630641,126.996836 222.778011,126.996836 602.99187,126.996836" id="board"></path>
            <path d="M602.99187,254.752193 L22.2501894,250.692989 C15.3901248,250.911819 11.9600925,248.518377 11.9600925,243.512663 C11.9600925,238.506949 11.9600925,201.860728 11.9600925,133.574 C11.1952879,129.189224 12.8485168,126.996836 16.9197794,126.996836 C20.991042,126.996836 216.348405,126.996836 602.99187,126.996836" id="board"></path>
            <path d="M602.99187,372.981239 L145.804765,372.981239 C136.767205,372.981239 130.235465,370.936222 126.209544,366.846187 C122.183623,362.756152 89.418632,335.302035 27.9145711,284.483838 L27.9145711,250.79215 L602.99187,254.752193" id="board"></path>
            <path d="M603.006873,336 L603.006873,336 L587.49187,336 C573.960893,336 562.99187,325.030976 562.99187,311.5 C562.99187,297.969024 573.960893,287 587.49187,287 L603.106105,287 L603.106105,287" id="h8"></path>
            <rect id="h7" x="380.99187" y="287" width="111" height="49" rx="24.5"></rect>
            <rect id="h6" x="104.99187" y="287" width="197" height="49" rx="24.5"></rect>
            <rect id="h5" x="426.99187" y="166" width="91" height="49" rx="24.5"></rect>
            <rect id="h4" x="272.99187" y="166" width="111" height="49" rx="24.5"></rect>
            <rect id="h3" x="33.9918698" y="166" width="205" height="49" rx="24.5"></rect>
            <rect id="h2" x="346.99187" y="39" width="205" height="49" rx="24.5"></rect>
            <rect id="h1" x="206.99187" y="38" width="111" height="49" rx="24.5"></rect>
        </g>
    </g>
</svg>