<?xml version="1.0" encoding="UTF-8"?>
<svg width="586px" height="311px" viewBox="0 0 586 311" version="1.1" xmlns="http://www.w3.org/2000/svg" xmlns:xlink="http://www.w3.org/1999/xlink">
    <title>BLANKSLATEPEACE</title>
    <g id="Page-1" stroke="none" stroke-width="1" fill="none" fill-rule="evenodd">
        <g id="BLANKSLATEPEACE" transform="translate(1.000000, 1.061777)" fill="#FFFFFF" stroke="#000000">
            <polyline id="board" points="585 308.560399 153 308.560399 153 229.988001 585 229.988001"></polyline>
            <polyline id="board" points="585 152.566594 153 152.566594 153 229.988001 585 229.988001"></polyline>
            <polyline id="board" points="585 152.566594 153 152.566594 153 76.9382225 585 76.9382225"></polyline>
            <polygon id="board" points="37.2502198 0.00236932381 37.2502198 230.002369 0 230.002369 0 0.00236932381"></polygon>
            <polygon id="board" points="37.2502198 230.002369 37.2502198 286.938223 153 286.938223 153 230.002369"></polygon>
            <polygon id="board" points="37.2502198 76.9382225 37.2502198 137.938223 153 137.938223 153 76.9382225"></polygon>
            <polygon id="board" points="37.2502198 152.566594 37.2502198 215.938223 153 215.938223 153 152.566594"></polygon>
            <circle id="h9" cx="184" cy="190.938223" r="25"></circle>
            <circle id="h14" cx="184" cy="261.938223" r="25"></circle>
            <rect id="h7" x="424" y="100.938223" width="148" height="37" rx="18.5"></rect>
            <rect id="h6" x="315" y="100.938223" width="81" height="37" rx="18.5"></rect>
            <rect id="h5" x="228" y="100.938223" width="61" height="37" rx="18.5"></rect>
            <rect id="h12" x="424" y="165.938223" width="148" height="50" rx="25"></rect>
            <rect id="h11" x="315" y="165.938223" width="81" height="50" rx="25"></rect>
            <rect id="h10" x="228" y="165.938223" width="61" height="50" rx="25"></rect>
            <rect id="h17" x="424" y="236.938223" width="148" height="50" rx="25"></rect>
            <rect id="h16" x="315" y="236.938223" width="81" height="50" rx="25"></rect>
            <rect id="h15" x="228" y="236.938223" width="61" height="50" rx="25"></rect>
            <circle id="h4" cx="181.5" cy="119.438223" r="18.5"></circle>
            <path d="M153,76.9382225 L37.2502198,76.9382225 L37.2502198,0.00236932381 L135.818479,0.00236932381 C147.272826,-0.114390841 153,4.08430054 153,12.5984435 C153,21.1125864 153,42.5591794 153,76.9382225 Z" id="h1"></path>
            <polyline id="h2" points="585 49.1474898 153 49.1474898 153 76.9382225 585 76.9382225"></polyline>
            <polygon id="h3" points="153 152.566594 37.2502198 152.566594 37.2502198 137.938223 153 137.938223"></polygon>
            <polygon id="h8" points="153 229.988001 37.2502198 229.988001 37.2502198 215.938223 153 215.938223"></polygon>
            <polygon id="h13" points="153 308.560399 37.2502198 308.560399 37.2502198 286.938223 153 286.938223"></polygon>
        </g>
    </g>
</svg>