<?xml version="1.0" encoding="UTF-8"?>
<svg width="594px" height="319px" viewBox="0 0 594 319" version="1.1" xmlns="http://www.w3.org/2000/svg" xmlns:xlink="http://www.w3.org/1999/xlink">
    <title>CANIGOBLACK</title>
    <g id="Page-1" stroke="none" stroke-width="1" fill="none" fill-rule="evenodd">
        <g id="CANIGOBLACK" transform="translate(1.968589, 0.555404)" fill="#FFFFFF" stroke="#000000">
            <path d="M591.031411,317 L2.4647375,315.123526 C0.829019716,314.914449 0.011160822,313.992515 0.011160822,312.357724 C0.011160822,310.722933 0.011160822,213.485105 0.011160822,20.6442398 C-0.091453432,19.2240345 1.16980121,18.5139319 3.79492475,18.5139319 C6.42004829,18.5139319 83.4886507,18.5139319 235.000732,18.5139319 L235.000732,45.7397176 L424.45603,45.7397176 L424.45603,18.5139319 L591.031411,18.5139319" id="board"></path>
            <path d="M591.031411,294.444596 L386.031411,294.444596 C374.433432,294.444596 365.031411,285.042576 365.031411,273.444596 C365.031411,261.846616 374.433432,252.444596 386.031411,252.444596 L591.031411,252.444596" id="h18"></path>
            <circle id="h17" cx="322.531411" cy="275.944596" r="27.5"></circle>
            <rect id="h16" x="193.031411" y="251.444596" width="86" height="42" rx="21"></rect>
            <rect id="h15" x="19.0314113" y="251.444596" width="260" height="42" rx="21"></rect>
            <path d="M591.031411,224.444596 L551.031411,224.444596 C539.433432,224.444596 530.031411,215.042576 530.031411,203.444596 C530.031411,191.846616 539.433432,182.444596 551.031411,182.444596 L591.031411,182.444596" id="h14"></path>
            <circle id="h13" cx="480.531411" cy="202.944596" r="27.5"></circle>
            <rect id="h12" x="232.031411" y="183.444596" width="197" height="42" rx="21"></rect>
            <rect id="h11" x="19.0314113" y="183.444596" width="197" height="42" rx="21"></rect>
            <path d="M591.031411,152.444596 L527.031411,152.444596 C515.433432,152.444596 506.031411,143.042576 506.031411,131.444596 C506.031411,119.846616 515.433432,110.444596 527.031411,110.444596 L591.031411,110.444596" id="h10"></path>
            <rect id="h9" x="365.031411" y="112.444596" width="120" height="42" rx="21"></rect>
            <circle id="h8" cx="322.531411" cy="132.944596" r="27.5"></circle>
            <rect id="h7" x="19.0314113" y="112.444596" width="263" height="42" rx="21"></rect>
            <path d="M591.031411,83.4445959 L549.031411,83.4445959 C537.433432,83.4445959 528.031411,74.0425757 528.031411,62.4445959 C528.031411,50.8466162 537.433432,41.4445959 549.031411,41.4445959 L591.031411,41.4445959" id="h6"></path>
            <circle id="h5" cx="480.531411" cy="61.9445959" r="27.5"></circle>
            <rect id="h4" x="19.0314113" y="41.4445959" width="197" height="42" rx="21"></rect>
            <polyline id="h3" points="591.031411 9.20845785e-13 436.022093 9.20845785e-13 424.826596 18.5139319 591.031411 18.5139319"></polyline>
            <polygon id="h2" points="247.778119 8.52651283e-13 235.000732 18.5139319 235.000732 45.7397176 424.45603 45.7397176 424.826596 18.5139319 436.022093 8.52651283e-13"></polygon>
            <polygon id="top" points="247.080385 2.08852589 235.000732 42.804337 235.000732 18.5139319"></polygon>
            <path d="M0,20.1129389 L15.570715,1.29257462 C16.134243,0.430858208 18.1932195,0 21.7476443,0 C25.3020692,0 100.645561,0 247.778119,0 L235.000732,18.5139319 L0,20.1129389 Z" id="h1"></path>
        </g>
    </g>
</svg>