<?xml version="1.0" encoding="UTF-8"?>
<svg width="874px" height="436px" viewBox="0 0 874 436" version="1.1" xmlns="http://www.w3.org/2000/svg" xmlns:xlink="http://www.w3.org/1999/xlink">
    <title>CANIGORESURRECTION</title>
    <g id="Page-1" stroke="none" stroke-width="1" fill="none" fill-rule="evenodd">
        <g id="CANIGORESURRECTION" transform="translate(1.000000, 0.572204)" fill="#FFFFFF" stroke="#000000">
            <path d="M872.269236,434 L872.269236,434 L15,434 C6.71572875,434 0,427.284271 0,419 L0,58 C0,49.7157288 6.71572875,43 15,43 L872.177446,43 L872.177446,43" id="board"></path>
            <path d="M872.040234,338 L203,338 C189.192881,338 178,326.807119 178,313 L178,225 C178,211.192881 189.192881,200 203,200 L872.040234,200" id="h4"></path>
            <rect id="h3" x="178" y="200" width="255" height="138" rx="25"></rect>
            <path d="M178,224.290185 C181.30872,208.026635 190.42458,199.89486 205.34758,199.89486 C220.27058,199.89486 390.0357,199.89486 714.642943,199.89486 C698.464414,195.450948 690.375149,187.878426 690.375149,177.177293 C690.375149,166.476161 690.375149,147.642817 690.375149,120.677263 C688.206733,104.47458 679.143444,96.3732387 663.185281,96.3732387 C647.227117,96.3732387 494.61455,96.3732387 205.34758,96.3732387 C187.11586,98.3120598 178,106.413401 178,120.677263 C178,134.941124 178,169.478765 178,224.290185 Z" id="h2"></path>
            <path d="M872.040234,43 L13.8628447,43 C4.62094823,45.3278121 5.68434189e-14,49.7808043 5.68434189e-14,56.3589767 C5.68434189e-14,56.3589767 3.51502495,39.2393178 10.5450749,5 C10.5450749,1.66666667 15.4775125,0 25.3423878,0 C35.2072631,0 317.759801,0 873,0" id="h1"></path>
        </g>
    </g>
</svg>