<?xml version="1.0" encoding="UTF-8"?>
<svg width="587px" height="126px" viewBox="0 0 587 126" version="1.1" xmlns="http://www.w3.org/2000/svg" xmlns:xlink="http://www.w3.org/1999/xlink">
    <title>CANIGOBLUE</title>
    <g id="Page-1" stroke="none" stroke-width="1" fill="none" fill-rule="evenodd">
        <g id="CANIGOBLUE" transform="translate(1.000000, 0.944534)" fill="#FFFFFF" stroke="#000000">
            <path d="M584.999544,124.055466 L584.999544,124.055466 L10,124.055466 C4.4771525,124.055466 0,119.578314 0,114.055466 L0,27.0554661 C0,21.5326186 4.4771525,17.0554661 10,17.0554661 L585.007733,17.0554661 L585.007733,17.0554661" id="board"></path>
            <path d="M584.966766,99.0554661 L559.5,99.0554661 C545.969024,99.0554661 535,88.0864425 535,74.5554661 C535,61.0244897 545.969024,50.0554661 559.5,50.0554661 L585.101032,50.0554661" id="h6"></path>
            <rect id="h5" x="373" y="50.0554661" width="139" height="49" rx="24.5"></rect>
            <rect id="h4" x="77" y="50.0554661" width="273" height="49" rx="24.5"></rect>
            <rect id="h3" x="77" y="50.0554661" width="186" height="49" rx="24.5"></rect>
            <rect id="h2" x="77" y="50.0554661" width="87" height="49" rx="24.5"></rect>
            <path d="M585,17.0554661 C212.572819,17.0554661 22.8306082,17.0554661 15.7733688,17.0554661 C8.71612932,17.0554661 4.53431755,17.9414177 3.22793346,19.713321 L21.5496737,2.26000604 C23.2228732,0.753335346 26.5779874,9.05941988e-14 31.6150162,9.05941988e-14 C36.6520451,9.05941988e-14 221.113706,9.05941988e-14 585,9.05941988e-14" id="h1"></path>
        </g>
    </g>
</svg>