<?xml version="1.0" encoding="UTF-8"?>
<svg width="588px" height="493px" viewBox="0 0 588 493" version="1.1" xmlns="http://www.w3.org/2000/svg" xmlns:xlink="http://www.w3.org/1999/xlink">
    <title>CLIMBNBOULDERBOARD</title>
    <g id="Page-1" stroke="none" stroke-width="1" fill="none" fill-rule="evenodd">
        <g id="CLIMBNBOULDERBOARD" transform="translate(0.000000, 1.000000)" fill="#FFFFFF" stroke="#000000">
            <path d="M588,491 L51,491 C23.3857625,491 1,468.614237 1,441 L1,75 C1,47.3857625 23.3857625,25 51,25 L588,25" id="board"></path>
            <path d="M588,140 L550,140 C537.849736,140 528,130.150264 528,118 C528,105.849736 537.849736,96 550,96 L588,96" id="h5"></path>
            <path d="M588,420 L550,420 C537.849736,420 528,410.150264 528,398 C528,385.849736 537.849736,376 550,376 L588,376" id="h14"></path>
            <rect id="h3" x="170" y="96" width="182" height="44" rx="22"></rect>
            <rect id="h6" x="54" y="190" width="274" height="44" rx="22"></rect>
            <rect id="h8" x="50" y="282" width="116" height="44" rx="22"></rect>
            <rect id="h12" x="170" y="374" width="182" height="44" rx="22"></rect>
            <rect id="h9" x="217" y="282" width="228" height="44" rx="22"></rect>
            <rect id="h7" x="376" y="190" width="185" height="44" rx="22"></rect>
            <path d="M588,327 L515,327 C502.849736,327 493,317.150264 493,305 C493,292.849736 502.849736,283 515,283 L588,283" id="h10"></path>
            <circle id="h2" cx="82" cy="100" r="40"></circle>
            <circle id="h4" cx="440" cy="114" r="40"></circle>
            <circle id="h13" cx="440" cy="404" r="40"></circle>
            <circle id="h11" cx="82" cy="422" r="40"></circle>
            <path d="M588,25 L52.8488544,25 C18.2829515,27.7797258 1,45.344505 1,77.6943376 C1,77.6943376 -0.455281464,0 52.8488544,0 C88.3849449,0 266.76866,0 588,0" id="h1"></path>
        </g>
    </g>
</svg>