<?xml version="1.0" encoding="UTF-8"?>
<svg width="589px" height="311px" viewBox="0 0 629 311" version="1.1" xmlns="http://www.w3.org/2000/svg" xmlns:xlink="http://www.w3.org/1999/xlink">
    <title>CONCEPTEDGE</title>
    <g id="Page-1" stroke="none" stroke-width="1" fill="none" fill-rule="evenodd">
        <g id="CONCEPTEDGE" transform="translate(1.082462, 1.000000)" fill="#FFFFFF" stroke="#000000">
            <path d="M0.917537827,208.423576 L0.917537827,285 C-1.88933981,301 2.77732686,309 14.9175378,309 C27.0577488,309 214.245632,309 576.481189,309 C582.827063,309 585.973871,302.952882 585.921612,290.858646 C585.863921,278.764409 585.863921,251.286053 585.921612,208.423576 L0.917537827,208.423576 Z" id="background"></path>
            <path d="M585.917538,126.010328 L585.917538,208.423576 C585.917538,216.141192 577.384653,220 560.318882,220 C543.253112,220 361.452664,220 14.9175378,220 C5.58420449,220 0.917537827,214.575818 0.917537827,203.727454 C0.917537827,192.87909 0.917537827,165.4258 0.917537827,121.367584 L585.917538,126.010328 Z" id="background"></path>
            <path d="M0.912164413,33 C0.912164413,86.4206628 0.912164413,115.261981 0.912164413,119.523955 C0.912164413,125.916916 0.912164413,135 18.1336314,135 C29.6110271,135 214.366326,135 572.399528,135 C581.411535,135 585.917538,131.291094 585.917538,123.873282 C585.917538,112.746564 585.917538,48.0340664 585.917538,48.0340664 C585.917538,48.0340664 523.422931,48.5681528 398.433717,49.6363255 C389.867514,49.5454418 385.584413,44 385.584413,33 C385.584413,33 257.36033,33 0.912164413,33 Z" id="background"></path>
            <path d="M211.583012,0 L191.65279,20.1648144 C184.844395,28.7216048 186.753192,33 197.37918,33 C208.005169,33 142.517955,33 0.917537827,33 C9.52257235,26.7306372 17.7724628,21.7825135 25.6672093,18.1556287 C33.5619557,14.528744 44.7344214,9.63865285 59.1846062,3.4853553 C65.6728456,1.1617851 72.3565635,0 79.2357599,0 C86.1149564,0 130.230707,0 211.583012,0 Z" id="h1"></path>
            <path d="M211.583012,0 L377.424712,0 L385.584413,33 L193.896742,33 C186.461217,31.3531334 185.596943,27.3040006 191.303921,20.8526018 C197.010899,14.401203 203.770596,7.45033572 211.583012,0 Z" id="h2"></path>
            <path d="M385.584413,33 C384.671182,44.0908837 389.815565,49.6363255 401.017561,49.6363255 C412.219557,49.6363255 473.852883,49.1022391 585.917538,48.0340664 L553.113279,9.97871685 C546.960346,3.32623895 537.790763,4.54747351e-13 525.60453,4.54747351e-13 C513.418298,4.54747351e-13 464.025025,4.54747351e-13 377.424712,4.54747351e-13 L385.584413,33 Z" id="h3"></path>
            <g id="Group-4" transform="translate(295.417538, 264.000000) scale(-1, 1) translate(-295.417538, -264.000000) translate(18.917538, 243.000000)">
                <rect id="h12" x="0" y="0" width="553" height="42" rx="15"></rect>
                <rect id="h11" x="0" y="0" width="363" height="42" rx="15"></rect>
                <rect id="h10" x="0" y="0" width="191" height="42" rx="15"></rect>
            </g>
            <g id="Group-3" transform="translate(291.417538, 177.000000) scale(-1, 1) translate(-291.417538, -177.000000) translate(14.917538, 156.000000)">
                <rect id="h9" x="0" y="0" width="553" height="42" rx="15"></rect>
                <rect id="h8" x="0" y="0" width="363" height="42" rx="15"></rect>
                <rect id="h7" x="1.42108547e-14" y="0" width="191" height="42" rx="15"></rect>
            </g>
            <g id="Group-2" transform="translate(291.417538, 85.000000) scale(-1, 1) translate(-291.417538, -85.000000) translate(14.917538, 64.000000)">
                <rect id="h6" x="0" y="0" width="553" height="42" rx="15"></rect>
                <rect id="h5" x="0" y="0" width="363" height="42" rx="15"></rect>
                <rect id="h4" x="0" y="0" width="191" height="42" rx="15"></rect>
            </g>
        </g>
    </g>
</svg>
