<?xml version="1.0" encoding="UTF-8"?>
<svg width="581px" height="284px" viewBox="0 0 581 284" version="1.1" xmlns="http://www.w3.org/2000/svg" xmlns:xlink="http://www.w3.org/1999/xlink">
    <title>CONCEPTQUARATINE</title>
    <g id="Page-1" stroke="none" stroke-width="1" fill="none" fill-rule="evenodd">
        <g id="CONCEPTQUARATINE" transform="translate(1.000000, 0.509833)" fill="#FFFFFF" stroke="#000000">
            <path d="M579.002585,282.490167 L579.002585,282.490167 L79.5,282.490167 C39.4593556,282.490167 7,250.030812 7,209.990167 L7,152.990167 C7,112.949523 39.4593556,80.4901672 79.5,80.4901672 L579.016982,80.4901672 L579.016982,80.4901672" id="board"></path>
            <path d="M579.042855,159.490167 L72.5,159.490167 C32.4593556,159.490167 0,127.030812 0,86.9901672 L0,79.9901672 C0,39.9495228 32.4593556,7.49016719 72.5,7.49016719 L578.5,7.49016719" id="board"></path>
            <path d="M579.117009,239.490167 L579.117009,239.490167 L488,239.490167 C479.715729,239.490167 473,232.774438 473,224.490167 L473,215.490167 C473,207.205896 479.715729,200.490167 488,200.490167 L579.130353,200.490167 L579.130353,200.490167" id="h5"></path>
            <rect id="h4" x="35" y="200.490167" width="403" height="39" rx="15"></rect>
            <path d="M579.017004,120.490167 L579.017004,120.490167 L486,120.490167 C477.715729,120.490167 471,113.774438 471,105.490167 L471,90.4901672 C471,82.2058959 477.715729,75.4901672 486,75.4901672 L579.042855,75.4901672 L579.042855,75.4901672" id="h3"></path>
            <rect id="h2" x="27" y="75.4901672" width="411" height="45" rx="15"></rect>
            <path d="M579,7.49016719 L81.8040606,7.49016719 C74.976321,7.49016719 69.5648831,7.61806214 65.569747,7.87385204 C61.5746108,8.12964193 55.7082165,9.41857653 47.9705641,11.7406558 C67.5264426,3.91355194 83.5471308,1.15463195e-14 96.0326289,1.15463195e-14 C97.5939163,1.15463195e-14 101.477358,1.15463195e-14 107.682953,1.15463195e-14 C136.629676,1.15463195e-14 293.735359,1.15463195e-14 579,1.15463195e-14" id="h1"></path>
        </g>
    </g>
</svg>