<?xml version="1.0" encoding="UTF-8"?>
<svg width="171px" height="122px" viewBox="0 0 171 122" version="1.1" xmlns="http://www.w3.org/2000/svg" xmlns:xlink="http://www.w3.org/1999/xlink">
    <!-- Generator: Sketch 54.1 (76490) - https://sketchapp.com -->
    <title>COREFINGER</title>
    <desc>Created with Sketch.</desc>
    <defs>
        <circle id="path-1" cx="139" cy="73" r="2"></circle>
        <filter x="-62.5%" y="-62.5%" width="225.0%" height="225.0%" filterUnits="objectBoundingBox" id="filter-2">
            <feGaussianBlur stdDeviation="1.5" in="SourceAlpha" result="shadowBlurInner1"></feGaussianBlur>
            <feOffset dx="0" dy="1" in="shadowBlurInner1" result="shadowOffsetInner1"></feOffset>
            <feComposite in="shadowOffsetInner1" in2="SourceAlpha" operator="arithmetic" k2="-1" k3="1" result="shadowInnerInner1"></feComposite>
            <feColorMatrix values="0 0 0 0 0   0 0 0 0 0   0 0 0 0 0  0 0 0 0.5 0" type="matrix" in="shadowInnerInner1"></feColorMatrix>
        </filter>
        <circle id="path-3" cx="65" cy="34" r="2"></circle>
        <filter x="-62.5%" y="-62.5%" width="225.0%" height="225.0%" filterUnits="objectBoundingBox" id="filter-4">
            <feGaussianBlur stdDeviation="1.5" in="SourceAlpha" result="shadowBlurInner1"></feGaussianBlur>
            <feOffset dx="0" dy="1" in="shadowBlurInner1" result="shadowOffsetInner1"></feOffset>
            <feComposite in="shadowOffsetInner1" in2="SourceAlpha" operator="arithmetic" k2="-1" k3="1" result="shadowInnerInner1"></feComposite>
            <feColorMatrix values="0 0 0 0 0   0 0 0 0 0   0 0 0 0 0  0 0 0 0.5 0" type="matrix" in="shadowInnerInner1"></feColorMatrix>
        </filter>
        <circle id="path-5" cx="45" cy="85" r="2"></circle>
        <filter x="-62.5%" y="-62.5%" width="225.0%" height="225.0%" filterUnits="objectBoundingBox" id="filter-6">
            <feGaussianBlur stdDeviation="1.5" in="SourceAlpha" result="shadowBlurInner1"></feGaussianBlur>
            <feOffset dx="0" dy="1" in="shadowBlurInner1" result="shadowOffsetInner1"></feOffset>
            <feComposite in="shadowOffsetInner1" in2="SourceAlpha" operator="arithmetic" k2="-1" k3="1" result="shadowInnerInner1"></feComposite>
            <feColorMatrix values="0 0 0 0 0   0 0 0 0 0   0 0 0 0 0  0 0 0 0.5 0" type="matrix" in="shadowInnerInner1"></feColorMatrix>
        </filter>
    </defs>
    <g id="Page-1" stroke="none" stroke-width="1" fill="none" fill-rule="evenodd">
        <g id="COREFINGER">
            <g id="hangboard" transform="translate(0.000000, 1.000000)">
                <path d="M171,0 C153.109803,0.815589583 140.591192,5.28792031 133.444168,13.4169922 C133.444168,13.4169922 122.880748,13.4169922 101.753906,13.4169922 C97.1699219,13.4169922 92.34375,11.1808268 87.2753906,6.70849609 C82.2070313,2.23616536 73.781901,0.333333333 62,1 C28,1.40690104 9.33333333,4.78678385 6,11.1396484 C2.66666667,17.492513 1.29085286,19.8964844 1.87255859,18.3515625 C0.0102539062,24.1959635 0.232584635,28.1263021 2.53955078,30.1425781 C4.84651693,32.1588542 6.66666667,33.5388997 8,34.2827148 C10.6203613,37.0323079 10.4267171,38.4071045 7.41906738,38.4071045 C2.90759277,38.4071045 2.00537109,46.121582 6,49.7294922 C9.99462891,53.3374023 13.4488525,55.2420654 17.5292969,56.7872314 C21.6097412,58.3323975 25.1717529,56.175415 19.3216553,59.6018066 C13.4715576,63.0281982 10.0078125,69.4179687 10.0078125,75.8662109 C10.0078125,82.3144531 17.7670898,95.3273926 28.3835449,95.3273926 C28.3835449,95.3273926 34.286096,94.4128375 33.9411621,98.7617188 C33.5962282,103.1106 28.3835449,100.920166 28.3835449,104.756592 C28.3835449,108.593018 34.2177734,117 47.2941895,117 C56.0118001,117 62.3654785,114.563232 66.3552246,109.689697 C75.1831868,116.689209 83.1328939,120.188965 90.2043457,120.188965 C97.2757975,120.188965 103.661133,117.82487 109.360352,113.09668 C121.55957,112.712077 130.003092,109.562256 134.690918,103.647217 C134.690918,103.647217 152.518066,116.919234 171,116.557617" id="Path-11" stroke="#000000" fill="#D0D2D3"></path>
                <path d="M33.8111572,98.5450439 C33.8111572,97.9602051 35.0877686,95.0646973 26.8474121,95.0646973 C18.6070557,95.0646973 11.1737061,84.8427734 10.0338135,75.4562988 C9.27388509,69.1986491 12.8192546,63.6420898 20.6699219,58.7866211 C29.3294271,56.2306315 36.7932943,56.5107422 43.0615234,59.6269531 C49.3297526,62.7431641 78.6214193,67.1839193 130.936523,72.9492188 C101.611654,79.8183594 80.0875651,92.0174967 66.3642578,109.546631 C51.484375,125 31.5373535,112.384766 29.6787109,108.771484 C27.8200684,105.158203 28.3217773,102.921143 31.0498047,102.036377 C33.777832,101.151611 33.8111572,99.1298828 33.8111572,98.5450439 Z" id="Path-14" stroke="#000000" fill-opacity="0.498754529" fill="#BBBDBF"></path>
                <g id="Oval">
                    <use fill="#000000" fill-rule="evenodd" xlink:href="#path-1"></use>
                    <use fill="black" fill-opacity="1" filter="url(#filter-2)" xlink:href="#path-1"></use>
                    <use stroke="#BBBDBF" stroke-width="1" xlink:href="#path-1"></use>
                </g>
                <g id="Oval">
                    <use fill="#000000" fill-rule="evenodd" xlink:href="#path-3"></use>
                    <use fill="black" fill-opacity="1" filter="url(#filter-4)" xlink:href="#path-3"></use>
                    <use stroke="#BBBDBF" stroke-width="1" xlink:href="#path-3"></use>
                </g>
                <g id="Oval">
                    <use fill="#000000" fill-rule="evenodd" xlink:href="#path-5"></use>
                    <use fill="black" fill-opacity="1" filter="url(#filter-6)" xlink:href="#path-5"></use>
                    <use stroke="#BBBDBF" stroke-width="1" xlink:href="#path-5"></use>
                </g>
                <rect id="Rectangle" stroke="#000000" fill="#BBBDBF" transform="translate(83.130799, 61.875993) rotate(6.000000) translate(-83.130799, -61.875993) " x="43.1307988" y="54.3759925" width="80" height="15" rx="3"></rect>
            </g>
            <ellipse id="h16" stroke="#000000" fill="#D8D8D8" cx="87" cy="107" rx="11" ry="7"></ellipse>
            <path d="M150,107 C161.59798,107 171,105.432997 171,103.5 C171,101.567003 161.59798,100 150,100" id="h15" stroke="#000000" fill="#C5C7C8" transform="translate(160.500000, 103.500000) scale(-1, 1) translate(-160.500000, -103.500000) "></path>
            <ellipse id="h14" stroke="#000000" fill="#D8D8D8" cx="113.5" cy="93.5" rx="12.5" ry="7.5"></ellipse>
            <path d="M29.2246094,96.0161133 C35.7415365,94.925293 40.6666667,94.3798828 44,94.3798828 C49,94.3798828 55.6401367,97.6333008 55.6401367,100 C55.6401367,102.366699 46.8504469,104.1106 43.8012,104.1106 C40.7519531,104.1106 30.0224609,103.314941 30.0224609,103.314941 C30.0224609,103.314941 33.9831543,102.700928 33.9831543,99.5854492 C33.9831543,97.5084635 32.3969727,96.3186849 29.2246094,96.0161133 Z" id="h13" stroke="#000000" fill="#D8D8D8" stroke-linejoin="round"></path>
            <path d="M144,89 C158.911688,89 171,86.9852814 171,84.5 C171,82.0147186 158.911688,80 144,80" id="h12" stroke="#000000" fill="#C5C7C8" transform="translate(157.500000, 84.500000) scale(-1, 1) translate(-157.500000, -84.500000) "></path>
            <ellipse id="h11" stroke="#000000" fill="#D8D8D8" cx="69" cy="81.5" rx="17" ry="10.5"></ellipse>
            <ellipse id="h10" stroke="#000000" fill="#D8D8D8" cx="27.5" cy="73.5" rx="13.5" ry="8.5"></ellipse>
            <path d="M143,70 C158.463973,70 171,67.7614237 171,65 C171,62.2385763 158.463973,60 143,60" id="h9" stroke="#000000" fill="#C5C7C8" transform="translate(157.000000, 65.000000) scale(-1, 1) translate(-157.000000, -65.000000) "></path>
            <rect id="h8" stroke="#000000" fill="#D8D8D8" opacity="0.900000036" transform="translate(101.429515, 64.749593) rotate(6.000000) translate(-101.429515, -64.749593) " x="84.9295145" y="60.2495934" width="33" height="9" rx="3"></rect>
            <rect id="h7" stroke="#000000" fill="#D8D8D8" transform="translate(62.429515, 60.749593) rotate(6.000000) translate(-62.429515, -60.749593) " x="45.9295145" y="56.2495934" width="33" height="9" rx="3"></rect>
            <path d="M137,49 C155.777681,49 171,46.7614237 171,44 C171,41.2385763 155.777681,39 137,39" id="h6" stroke="#000000" fill="#C5C7C8" transform="translate(154.000000, 44.000000) scale(-1, 1) translate(-154.000000, -44.000000) "></path>
            <ellipse id="h5" stroke="#000000" fill="#C5C7C8" transform="translate(89.637250, 42.632711) rotate(2.000000) translate(-89.637250, -42.632711) " cx="89.6372496" cy="42.6327107" rx="32.5" ry="3.5"></ellipse>
            <path d="M99.2182617,14.4238281 C79.0727539,7.83463542 64,13.9661458 54,32.8183594 C44,51.6705729 32.1416016,60.0644531 18.4248047,58 C8.53678385,53.8893229 3.59277344,49.6074219 3.59277344,45.1542969 C3.59277344,40.7011719 5.06184896,38.7820638 8,39.3969727 C9.28880815,39.1610717 9.93321222,38.3834024 9.93321222,37.0639648 C9.93321222,35.0848084 0.624794097,33.420907 0.624794097,25.6106 C0.624794097,17.800293 5.84127177,7.63134766 19.71875,5.41113281 C33.5962282,3.19091797 68.2684,0.796875 77.1342,3.10400391 C86,5.41113281 84.8303223,5.66796875 89,9.30981445 C91.7797852,11.7377116 95.1858724,13.4423828 99.2182617,14.4238281 Z" id="h4" stroke="#000000" fill="#BBBDBF"></path>
            <path d="M1.70214844,29.8178711 C5.17317708,31.0672258 9.55908203,29.6648021 14.8598633,25.6106 C22.8110352,19.5292969 32,16.5732422 37,19.6166992 C42,22.6601562 43.2480469,29.0874023 42,31.862793 C40.7519531,34.6381836 37.2741699,40.1225586 24,40.1225586 C15.1505534,40.1225586 7.7179362,36.6876628 1.70214844,29.8178711 Z" id="h3" stroke="#000000" fill="#D8D8D8" stroke-linejoin="round"></path>
            <path d="M133.531006,28.4484863 L133.531006,14.4238281 L101,14.4238281 C88.579975,11.9257812 80.6247083,11.3012695 77.1342,12.550293 C71.8984375,14.4238281 60.894043,20.8620605 58.0734863,26.2922363 C56.1931152,29.9123535 81.3456217,30.6311035 133.531006,28.4484863 Z" id="h2" stroke="#000000" fill="#BBBDBF"></path>
            <path d="M171,20.8251953 C159.579915,19.5043945 147.090251,22.0454915 133.531006,28.4484863 C133.531006,28.0968424 133.531006,23.3959961 133.531006,14.3459473 C141.926676,5.70825195 154.416341,1.25870768 171,0.997314453" id="h1" stroke="#000000" fill="#BBBDBF"></path>
        </g>
    </g>
</svg>