<?xml version="1.0" encoding="UTF-8"?>
<svg width="668px" height="306px" viewBox="0 0 668 306" version="1.1" xmlns="http://www.w3.org/2000/svg" xmlns:xlink="http://www.w3.org/1999/xlink">
    <title>CRAFTYSAPPHIRE</title>
    <g id="Page-1" stroke="none" stroke-width="1" fill="none" fill-rule="evenodd">
        <g id="CRAFTYSAPPHIRE" transform="translate(2.000000, 1.000000)" fill="#FFFFFF" stroke="#000000">
            <path d="M665,11 C595.941559,11 561.412337,11 561.412337,11 C561.412337,34.6279394 550.430505,47.4664486 528.46684,49.5155274 C408.896742,48.7651118 339.755081,48.577508 321.04186,48.9527157 C302.328638,49.3279235 292.431563,38.14031 291.350632,15.3898754 L0,15.3898754 L82.5201361,229.352484 L426.381485,304 L665,304" id="board" fill-rule="nonzero"></path>
            <polygon id="board" fill-rule="nonzero" points="427 304 37 288.158922 83.0953761 229"></polygon>
            <polygon id="board" fill-rule="nonzero" points="82 229.301143 36.2009334 288 0 16"></polygon>
            <path d="M665,87 C629.653776,87 601,115.653776 601,151 C601,186.346224 629.653776,215 665,215" id="h7"></path>
            <rect id="h6" fill-rule="nonzero" x="293" y="192" width="266" height="57" rx="24.5"></rect>
            <rect id="h5" fill-rule="nonzero" x="293" y="83" width="266" height="57" rx="24.5"></rect>
            <circle id="h4" fill-rule="nonzero" cx="173" cy="151" r="64"></circle>
            <polyline id="h3" fill-rule="nonzero" points="665 16 562 16 562 0 665 0"></polyline>
            <path d="M561.744999,0 C563.945395,33.3317352 551.905407,49.9976027 525.625038,49.9976027 C486.204482,49.9976027 359.558842,49.9976027 333.139966,49.9976027 C306.721089,49.9976027 292,51.1960744 292,0 C292,0 381.915,0 561.744999,0 Z" id="h2" fill-rule="nonzero"></path>
            <polygon id="h1" fill-rule="nonzero" points="291 0 0 0 0 16 291 16"></polygon>
        </g>
    </g>
</svg>