<?xml version="1.0" encoding="UTF-8"?>
<svg width="666px" height="203px" viewBox="0 0 666 203" version="1.1" xmlns="http://www.w3.org/2000/svg" xmlns:xlink="http://www.w3.org/1999/xlink">
    <title>CRAFTYTOPAZ</title>
    <g id="Page-1" stroke="none" stroke-width="1" fill="none" fill-rule="evenodd">
        <g id="CRAFTYTOPAZ" transform="translate(1.000000, 1.378906)">
            <polyline id="board" stroke="#000000" fill="#FFFFFF" points="665 201.105469 65.4550781 197.783203 -2.05946466e-14 132.914062 0 64.4121094 65.4550781 -4.53456435e-15 665 0"></polyline>
            <polyline id="board" stroke="#000000" fill="#FFFFFF" points="665 5.34960938 664.145824 5.34960937 65.1796875 43.9453125 26.6738281 80.5585937 26.6738281 119.167969 65.1796875 156.796875 535.328125 201.105469 665 201.105469"></polyline>
            <path d="M665,5.34960938 L664.145824,5.34960937 L65.1796875,43.9453125 C47.8251755,60.4971445 34.989889,72.7015715 26.6738281,80.5585938 C26.6738281,80.5585938 17.7825521,75.1764323 0,64.4121094 L65.1796875,0 L665,0" id="h1"></path>
            <polyline id="line" stroke="#CECECE" points="397.414063 0 58.4637596 21.9726563 11.7246094 72.2207031 11.7246094 126.909375 65.1796875 177.954146 327 198.483697"></polyline>
            <path d="M665,130.621094 L78,130.621094 C68.0588745,130.621094 60,122.562219 60,112.621094 L60,80.6210938 C60,70.6799683 68.0588745,62.6210938 78,62.6210938 L665,62.6210938" id="h4" stroke="#000000" fill="#FFFFFF"></path>
            <rect id="h3" stroke="#000000" fill="#FFFFFF" x="60.5" y="63.1210938" width="437" height="67" rx="18"></rect>
            <rect id="h2" stroke="#000000" fill="#FFFFFF" x="60.5" y="63.1210938" width="218" height="67" rx="18"></rect>
            <polyline id="line" stroke="#000000" points="65.1796875 43.9453125 58.8534251 22.0629822 55.4158487 10.1725204"></polyline>
            <line x1="26.6738281" y1="119.167969" x2="-1.79316739e-14" y2="132.914063" id="line" stroke="#979797"></line>
            <line x1="65.1796875" y1="198.483697" x2="65.1796875" y2="156.796875" id="line" stroke="#000000"></line>
        </g>
    </g>
</svg>