<?xml version="1.0" encoding="UTF-8"?>
<svg width="575px" height="263px" viewBox="0 0 575 263" version="1.1" xmlns="http://www.w3.org/2000/svg" xmlns:xlink="http://www.w3.org/1999/xlink">
    <title>CRAFTYSAPPHIRE</title>
    <g id="Page-1" stroke="none" stroke-width="1" fill="none" fill-rule="evenodd">
        <g id="CRAFTYSAPPHIRE" transform="translate(2.000000, 0.531937)" fill="#FFFFFF" stroke="#000000">
            <path d="M572,9.81765371 C512.599356,9.81765371 482.899033,9.81765371 482.899033,9.81765371 C482.899033,30.144576 473.453006,41.18944 454.560951,42.9522457 C351.712686,42.3066693 292.240461,42.1452753 276.144277,42.4680634 C260.048092,42.7908516 251.535119,33.1662396 250.605356,13.5942275 L0,13.5942275 L70.9797261,197.664503 L366.752195,261.883148 L572,261.883148" id="board"></path>
            <polygon id="board" points="366.752195 261.883148 31.3357602 248.319247 70.9797261 197.664503"></polygon>
            <polygon id="board" points="70.9797261 197.664503 31.3357602 248.319247 -3.94016631e-15 13.5942275"></polygon>
            <path d="M572,75.4680634 C541.624339,75.4680634 517,100.092402 517,130.468063 C517,160.843725 541.624339,185.468063 572,185.468063" id="h7"></path>
            <rect id="h6" x="252" y="165.468063" width="229" height="49" rx="24.5"></rect>
            <rect id="h5" x="252" y="71.4680634" width="229" height="49" rx="24.5"></rect>
            <circle id="h4" cx="149" cy="130.468063" r="55"></circle>
            <polyline id="h3" points="572 13.5942275 482.899033 13.5942275 482.899033 1.11910481e-13 572 1.11910481e-13"></polyline>
            <path d="M482.679644,1.0658141e-13 C484.572748,28.6334575 474.214181,42.9501862 451.603945,42.9501862 C417.68859,42.9501862 308.7294,42.9501862 286,42.9501862 C263.2706,42.9501862 250.605356,43.9797272 250.605356,1.0658141e-13 C250.605356,1.0658141e-13 327.963452,1.0658141e-13 482.679644,1.0658141e-13 Z" id="h2"></path>
            <polygon id="h1" points="250.605356 -1.13686838e-13 0 -1.13686838e-13 0 13.5942275 250.605356 13.5942275"></polygon>
        </g>
    </g>
</svg>