<?xml version="1.0" encoding="UTF-8"?>
<svg width="1331px" height="801px" viewBox="0 0 1331 801" version="1.1" xmlns="http://www.w3.org/2000/svg" xmlns:xlink="http://www.w3.org/1999/xlink">
    <title>CRIMPFACTORYEQUALIZER</title>
    <g id="Page-1" stroke="none" stroke-width="1" fill="none" fill-rule="evenodd">
        <g id="CRIMPFACTORYEQUALIZER" transform="translate(1.000000, 0.999723)" fill="#FFFFFF" stroke="#000000">
            <path d="M1330,688.617922 C1254.45285,688.617922 1209.23337,691.323755 1127.51349,688.617922 C1045.79361,685.912088 1012.0972,698.573555 994.110583,730.672108 C971.829185,770.435033 940.274432,799.000277 895,799.000277 L106,799.000277 C47.4578165,799.000277 1.13686838e-13,751.542461 1.13686838e-13,693.000277 L1.13686838e-13,595.000277 C1.13686838e-13,536.458094 1.13686838e-13,489.075738 1.13686838e-13,441.617922 L1330,441.617922" id="Path"></path>
            <path d="M1330,446.617922 C1254.45285,446.617922 1209.23337,449.323755 1127.51349,446.617922 C1045.79361,443.912088 1012.0972,456.573555 994.110583,488.672108 C971.829185,528.435033 940.274432,557.000277 895,557.000277 L106,557.000277 C47.4578165,557.000277 0,509.542461 0,451.000277 L0,353.000277 C0,294.458094 0,247.075738 0,199.617922 L1330,199.617922" id="Path"></path>
            <path d="M1330,199.617922 C1254.45285,199.617922 1209.23337,202.323755 1127.51349,199.617922 C1045.79361,196.912088 1012.0972,209.573555 994.110583,241.672108 C971.829185,281.435033 940.274432,310.000277 895,310.000277 L106,310.000277 C47.4578165,310.000277 0,262.542461 0,204.000277 L0,106.000277 C0,47.4580939 47.4578165,0.000136042567 106,0.000136042567 L1109.55427,0.000136042567 C1109.03303,5.42945134 1118.44709,8.14410899 1137.79645,8.14410899 C1157.14581,8.14410899 1221.21366,8.14410899 1330,8.14410899" id="Shape"></path>
            <path d="M1330,377.000277 L1112.5,377.000277 C1077.42992,377.000277 1049,348.570359 1049,313.500277 C1049,278.430196 1077.42992,250.000277 1112.5,250.000277 L1330,250.000277" id="h3"></path>
            <path d="M1330,620.000277 L1112.5,620.000277 C1077.42992,620.000277 1049,591.570359 1049,556.500277 C1049,521.430196 1077.42992,493.000277 1112.5,493.000277 L1330,493.000277" id="h6"></path>
            <rect id="h2" x="92.5" y="109.500277" width="831" height="140" rx="40"></rect>
            <rect id="h1" x="92.5" y="109.500277" width="415" height="140" rx="40"></rect>
            <rect id="h5" x="92.5" y="352.500277" width="831" height="140" rx="40"></rect>
            <rect id="h8" x="92.5" y="593.500277" width="831" height="140" rx="40"></rect>
            <rect id="h7" x="92.5" y="593.500277" width="415" height="140" rx="40"></rect>
            <rect id="h4" x="92.5" y="352.500277" width="415" height="140" rx="40"></rect>
        </g>
    </g>
</svg>