<?xml version="1.0" encoding="UTF-8"?>
<svg width="861px" height="381px" viewBox="0 0 861 381" version="1.1" xmlns="http://www.w3.org/2000/svg" xmlns:xlink="http://www.w3.org/1999/xlink">
    <!-- Generator: Sketch 64 (93537) - https://sketch.com -->
    <title>Group 4</title>
    <desc>Created with Sketch.</desc>
    <g id="Page-1" stroke="none" stroke-width="1" fill="none" fill-rule="evenodd">
        <g id="Group-4" transform="translate(1.000000, 1.000000)" fill="#FFFFFF" stroke="#000000">
            <path d="M860,379 L29,379 C21.2680135,379 15,372.731986 15,365 L15,14 C15,6.2680135 21.2680135,0 29,0 L860,0" id="hangboard"></path>
            <path d="M860,118 L14,118 C6.2680135,118 0,111.731986 0,104 L0,14 C0,6.2680135 6.2680135,7.27595761e-12 14,7.27595761e-12 L860,7.27595761e-12" id="h2"></path>
            <path d="M452.570681,118 L14,118 C6.2680135,118 0,111.731986 0,104 L0,14 C0,6.2680135 6.2680135,7.27595761e-12 14,7.27595761e-12 L452.570681,7.27595761e-12" id="h1"></path>
            <path d="M860,379 L14,379 C6.2680135,379 0,372.731986 0,365 L0,275 C0,267.268014 6.2680135,261 14,261 L860,261" id="h4"></path>
            <path d="M452.570681,379 L14,379 C6.2680135,379 0,372.731986 0,365 L0,275 C0,267.268014 6.2680135,261 14,261 L452.570681,261" id="h3"></path>
        </g>
    </g>
</svg>