<?xml version="1.0" encoding="UTF-8"?>
<svg width="639px" height="210px" viewBox="0 0 639 210" version="1.1" xmlns="http://www.w3.org/2000/svg" xmlns:xlink="http://www.w3.org/1999/xlink">
    <title>CRIMPTONITEFIXED</title>
    <g id="Page-1" stroke="none" stroke-width="1" fill="none" fill-rule="evenodd">
        <g id="CRIMPTONITEFIXED" transform="translate(1.000000, 1.000000)" fill="#FFFFFF" stroke="#000000">
            <path d="M638,33.3534411 L0,33.3534411 C0,11.1178137 11.6297661,0.100622914 34.8892983,0.301868741 C58.1488305,0.503114568 259.185731,0.402491654 638,0" id="h1"></path>
            <path d="M638,208 L16,208 C7.163444,208 0,200.836556 0,192 L0,31 C0,22.163444 7.163444,15 16,15 L638,15" id="hangboard" fill-rule="nonzero"></path>
            <rect id="h2" fill-rule="nonzero" x="28" y="47" width="187" height="50" rx="25"></rect>
            <rect id="h3" fill-rule="nonzero" x="28" y="122" width="187" height="50" rx="25"></rect>
            <rect id="h4" fill-rule="nonzero" x="245" y="47" width="187" height="50" rx="25"></rect>
            <rect id="h5" fill-rule="nonzero" x="245" y="122" width="187" height="50" rx="25"></rect>
        </g>
    </g>
</svg>