<?xml version="1.0" encoding="UTF-8"?>
<svg width="631px" height="313px" viewBox="0 0 631 313" version="1.1" xmlns="http://www.w3.org/2000/svg" xmlns:xlink="http://www.w3.org/1999/xlink">
    <!-- Generator: Sketch 64 (93537) - https://sketch.com -->
    <title>CRUSHERMISSION</title>
    <desc>Created with Sketch.</desc>
    <g id="Page-1" stroke="none" stroke-width="1" fill="none" fill-rule="evenodd">
        <g id="CRUSHERMISSION" transform="translate(0.000000, 1.000000)" stroke="#292929">
            <g transform="translate(315.500000, 155.500000) scale(-1, 1) translate(-315.500000, -155.500000) ">
                <path d="M0,0.329999565 L608.18,0.329999565 C612.48499,0.329999565 616.21919,3.30359909 617.18,7.5 L629.39,60.41 C630.008749,63.0791025 630.320001,65.8101172 630.320001,68.55 L630.320001,179 C630.302972,182.145729 629.967935,185.281676 629.32,188.36 L609.32,285.69 C608.200864,291.143095 605.105958,295.990239 600.63,299.3 L590.88,306.5 C586.998409,309.37087 582.297902,310.92 577.47,310.92 L0,310.92" id="hangboard" fill="#FFFFFF" fill-rule="nonzero"></path>
                <path d="M0,58.68 L246,58.68 C270.223209,58.68 289.86,78.3167909 289.86,102.54 L289.86,102.54 C289.854478,126.759304 270.219304,146.39 246,146.39 L0,146.39" id="h2"></path>
                <rect id="h1" x="312.13" y="63.88" width="292.62" height="69.56" rx="34.78"></rect>
                <path d="M0,171.88 L71.62,171.88 C83.9817406,171.88 95.8371765,176.790682 104.578247,185.531753 C113.319318,194.272824 118.23,206.128259 118.23,218.49 L118.23,218.49 C118.23,230.851741 113.319318,242.707176 104.578247,251.448247 C95.8371765,260.189318 83.9817406,265.1 71.62,265.1 L0,265.1" id="h6"></path>
                <path d="M526.54,191.11 C519.588355,190.90151 512.725135,192.711094 506.78,196.32 C501.844132,199.312253 495.484813,198.422282 491.56,194.19 C484.584821,186.457087 474.612889,182.108945 464.2,182.26 C444.146541,182.39531 427.99969,198.761541 428.134156,218.815 C428.27031,238.868459 444.636541,255.01531 464.69,254.88 C471.264674,254.887549 477.716647,253.099945 483.35,249.71 C488.356817,246.662857 494.820585,247.589247 498.77,251.92 C509.071344,263.130118 525.273406,266.721023 539.346508,260.913077 C553.419609,255.10513 562.373234,241.132513 561.77,225.92 C560.8385,206.932862 545.536944,191.813726 526.54,191.11 L526.54,191.11 Z" id="h3"></path>
                <path d="M248.09,256.46 C241.143314,256.664407 234.285345,254.858764 228.34,251.26 C223.405586,248.269294 217.049288,249.154665 213.12,253.38 C206.14248,261.109662 196.172099,265.457127 185.76,265.31 C165.706541,265.177452 149.557452,248.813459 149.68919,228.76 C149.822548,208.706541 166.186541,192.557452 186.24,192.69 C192.816378,192.679875 199.269891,194.471365 204.9,197.87 C209.913042,200.912084 216.377901,199.981949 220.33,195.65 C230.626835,184.427872 246.835316,180.829154 260.913776,186.639312 C274.992236,192.44947 283.944901,206.432153 283.33,221.65 C282.407469,240.645004 267.094898,255.77073 248.09,256.46 Z" id="h5"></path>
                <circle id="h4" cx="355.88" cy="218.49" r="40.73"></circle>
            </g>
        </g>
    </g>
</svg>