<?xml version="1.0" encoding="UTF-8"?>
<svg width="577px" height="267px" viewBox="0 0 577 267" version="1.1" xmlns="http://www.w3.org/2000/svg" xmlns:xlink="http://www.w3.org/1999/xlink">
    <title>DANGERBUDDYBOARDPLUS</title>
    <g id="Page-1" stroke="none" stroke-width="1" fill="none" fill-rule="evenodd">
        <g id="DANGERBUDDYBOARDPLUS" transform="translate(1.424370, 0.630158)" fill="#FFFFFF" stroke="#000000">
            <path d="M574.57563,265.767236 L44.4106513,265.767236 C15.5349056,265.854646 1.0970327,253.048658 1.0970327,227.34927 C1.0970327,201.649883 0.731355133,154.187191 0,84.9611936 L8.76037897,15.9265562 L574.57563,15.9265562" id="board"></path>
            <path d="M574.57563,245.369842 L62.0756298,245.369842 C50.2015077,245.369842 40.5756298,235.743964 40.5756298,223.869842 C40.5756298,211.99572 50.2015077,202.369842 62.0756298,202.369842 L574.57563,202.369842 L574.57563,245.369842 Z" id="h11"></path>
            <rect id="h10" x="40.5756298" y="202.369842" width="386" height="43" rx="21.5"></rect>
            <rect id="h9" x="40.5756298" y="202.369842" width="217" height="43" rx="21.5"></rect>
            <path d="M522.692624,183.369842 L352.07563,183.369842 C340.201508,183.369842 330.57563,173.743964 330.57563,161.869842 C330.57563,149.99572 340.201508,140.369842 352.07563,140.369842 L522.692624,140.369842 L522.692624,183.369842 Z" id="h8" transform="translate(426.634127, 161.869842) scale(-1, 1) translate(-426.634127, -161.869842) "></path>
            <path d="M330.692624,183.369842 L160.07563,183.369842 C148.201508,183.369842 138.57563,173.743964 138.57563,161.869842 C138.57563,149.99572 148.201508,140.369842 160.07563,140.369842 L330.692624,140.369842 L330.692624,183.369842 Z" id="h7"></path>
            <path d="M574.57563,101.369842 L440.07563,101.369842 C427.096938,101.369842 416.57563,90.8485333 416.57563,77.8698416 C416.57563,64.89115 427.096938,54.3698416 440.07563,54.3698416 L574.57563,54.3698416" id="Path"></path>
            <rect id="h5" x="205.57563" y="73.3698416" width="187" height="43" rx="21.5"></rect>
            <rect id="h4" x="32.5756298" y="97.3698416" width="103" height="43" rx="21.5"></rect>
            <path d="M574.57563,54.7056135 L372.795213,54.7056135 C381.756583,49.2288103 386.237268,31.5948307 386.237268,1.80367474 C386.237268,1.80367474 416.658891,1.80367474 477.502138,1.80367474 C477.38466,5.9346958 482.107747,8.00020633 491.671398,8.00020633 C501.235049,8.00020633 528.869793,8.00020633 574.57563,8.00020633" id="h3"></path>
            <path d="M386.237268,1.80367474 C384.420198,37.0716339 379.939513,54.7056135 372.795213,54.7056135 C365.650913,54.7056135 304.781949,54.7056135 190.188322,54.7056135 L200.840471,1.80367474 L386.237268,1.80367474 Z" id="h2"></path>
            <path d="M200.840471,1.80367474 L190.188322,54.7056135 C192.927198,73.3484543 179.549916,82.6698747 150.056476,82.6698747 C120.563035,82.6698747 70.5442102,83.4336477 0,84.9611936 L9.35281001,9.17940386 C9.36160694,3.05980129 14.1738534,1.0658141e-13 23.7895495,1.0658141e-13 C33.4052455,1.0658141e-13 92.4222194,0.601224913 200.840471,1.80367474 Z" id="h1"></path>
        </g>
    </g>
</svg>