<?xml version="1.0" encoding="UTF-8"?>
<svg width="1327px" height="815px" viewBox="0 0 1327 815" version="1.1" xmlns="http://www.w3.org/2000/svg" xmlns:xlink="http://www.w3.org/1999/xlink">
    <title>DUSZCNCGRAB</title>
    <g id="Page-1" stroke="none" stroke-width="1" fill="none" fill-rule="evenodd">
        <g id="DUSZCNCGRAB" transform="translate(0.915907, 4.000000)" fill="#FFFFFF" stroke="#000000">
            <path d="M1326.08409,613 L82,613 C36.7126505,613 0,576.287349 0,531 C0,529.725311 0.0297225161,528.450796 0.0891433145,527.177493 L12.6349674,258.338407 C15.1250051,204.980456 59.1102363,163 112.526256,163 L1326.08409,163" id="board"></path>
            <path d="M190.084093,114 C84.7507597,114 25.6010511,162.112802 12.6349674,258.338407 C15.1250051,204.980456 59.1102363,163 112.526256,163 L305.084093,163 L305.084093,114 C260.915723,114 222.58239,114 190.084093,114 Z" id="h1"></path>
            <path d="M1326.08409,810 L280.084093,810 C138.084093,810 67.084093,744.333333 67.084093,613 C67.084093,613 486.75076,613 1326.08409,613" id="board"></path>
            <rect id="h4" x="253.584093" y="209.5" width="225" height="111" rx="55.5"></rect>
            <rect id="h7" x="44.584093" y="448.5" width="404" height="111" rx="55.5"></rect>
            <rect id="h12" x="198.584093" y="656.5" width="280" height="111" rx="55.5"></rect>
            <rect id="h13" x="527.584093" y="655.5" width="111" height="111" rx="55.5"></rect>
            <rect id="h14" x="671.584093" y="655.5" width="127" height="111" rx="55.5"></rect>
            <rect id="h15" x="847.584093" y="655.5" width="204" height="111" rx="55.5"></rect>
            <path d="M1326.08416,781 C1240.08409,781 1206.08409,777 1155.08409,761 C1127.63393,752.388184 1100.08409,736.405802 1100.08409,705.724121 L1100.08409,703 C1100.08409,677.619818 1120.92285,652.153282 1146.30304,652.153282 C1149.25043,652.153282 1152.39072,652.175497 1155.08409,653 C1204.08409,668 1213.08409,685 1326.08416,685" id="h16"></path>
            <rect id="h8" x="497.584093" y="448.5" width="111" height="111" rx="55.5"></rect>
            <rect id="h9" x="673.584093" y="448.5" width="215" height="111" rx="55.5"></rect>
            <rect id="h10" x="937.584093" y="448.5" width="257" height="111" rx="55.5"></rect>
            <rect id="h11" x="1083.58409" y="448.5" width="111" height="111" rx="55.5"></rect>
            <rect id="h5" x="527.584093" y="209.5" width="257" height="111" rx="55.5"></rect>
            <rect id="h6" x="833.584093" y="209.5" width="426" height="111" rx="55.5"></rect>
            <polygon id="board" points="889.084093 163 889.084093 114 305.084093 114 305.084093 163"></polygon>
            <polygon id="h2" points="305.084093 114 366.084093 1.05523923e-11 924.084093 1.05523923e-11 889.084093 114"></polygon>
            <polyline id="h3" points="1326.08409 163 889.084093 163 924.084093 114 1326.08409 114"></polyline>
            <polygon id="Path-8" points="889.084093 163 889.084093 114 924.084093 4.45708748e-12 924.084093 114"></polygon>
        </g>
    </g>
</svg>