<?xml version="1.0" encoding="UTF-8"?>
<svg width="573px" height="323px" viewBox="0 0 573 323" version="1.1" xmlns="http://www.w3.org/2000/svg" xmlns:xlink="http://www.w3.org/1999/xlink">
    <title>EGURREDEABRU</title>
    <g id="Page-1" stroke="none" stroke-width="1" fill="none" fill-rule="evenodd">
        <g id="EGURREDEABRU" transform="translate(1.000000, 1.409748)" fill="#FFFFFF" stroke="#000000">
            <path d="M572,2.84217094e-14 L505.226361,2.84217094e-14 L505.226361,20.5193386 L341.937037,20.5193386 L341.937037,35.0276189 L180.876523,35.0276189 L180.876523,2.84217094e-14 L46.995603,2.84217094e-14 C15.665201,2.05399062 0,16.0564053 0,42.0072441 C0,67.9580828 0,107.859536 0,161.711604 C4.15516505,185.500315 16.4913605,199.212159 37.0085865,202.847137 C57.5258124,206.482115 84.4424919,212.206331 117.758625,220.019785 C139.642051,221.166661 157.073177,233.035323 170.052001,255.625771 C189.520237,289.511443 197.399494,320.802004 243,320.802004 C273.400337,320.802004 333.743941,320.802004 424.030811,320.802004 C440.30612,319.887336 455.584028,310.295511 469.864536,292.026531 C491.285299,264.62306 536.062878,246.661237 572,246.661237" id="board"></path>
            <path d="M572,210.840749 L74.5133067,210.840749 C114.361784,218.311815 136.026325,222.974093 139.506929,224.827583 C139.506929,224.827583 283.671286,224.827583 572,224.827583" id="board"></path>
            <rect id="h15" x="209" y="245.590252" width="229" height="48" rx="24"></rect>
            <rect id="h14" x="209" y="245.590252" width="125" height="48" rx="24"></rect>
            <path d="M572,180.590252 L486,180.590252 C472.745166,180.590252 462,169.845086 462,156.590252 C462,143.335418 472.745166,132.590252 486,132.590252 L572,132.590252" id="h13"></path>
            <rect id="h12" x="317" y="132.590252" width="125" height="48" rx="24"></rect>
            <rect id="h11" x="209" y="132.590252" width="88" height="48" rx="24"></rect>
            <rect id="h10" x="209" y="132.590252" width="48" height="48" rx="24"></rect>
            <rect id="h9" x="18" y="132.590252" width="171" height="48" rx="24"></rect>
            <path d="M572,104.590252 L486,104.590252 C472.745166,104.590252 462,93.8450861 462,80.5902522 C462,67.3354182 472.745166,56.5902522 486,56.5902522 L572,56.5902522" id="h8"></path>
            <rect id="h7" x="317" y="56.5902522" width="125" height="48" rx="24"></rect>
            <rect id="h6" x="209" y="56.5902522" width="88" height="48" rx="24"></rect>
            <rect id="h5" x="18" y="56.5902522" width="171" height="48" rx="24"></rect>
            <polyline id="h4" points="572 4.54747351e-13 505.226361 4.54747351e-13 505.226361 20.5193386 572 20.5193386"></polyline>
            <polygon id="h2" points="180.876523 4.47638053e-13 180.876523 35.0276189 341.937037 35.0276189 341.937037 4.54747351e-13"></polygon>
            <polygon id="h3" points="341.937037 4.54747351e-13 341.937037 20.5193386 505.226361 20.5193386 505.226361 4.54747351e-13"></polygon>
            <path d="M180.876523,4.54747351e-13 L180.876523,35.0276189 L0,35.0276189 C4.91467269,11.675873 20.5798737,4.54747351e-13 46.995603,4.54747351e-13 C73.4113323,4.54747351e-13 118.038306,4.54747351e-13 180.876523,4.54747351e-13 Z" id="h1"></path>
        </g>
    </g>
</svg>