<svg height="225" viewBox="0 0 213 225" width="213" xmlns="http://www.w3.org/2000/svg"><g fill="#fff" fill-rule="evenodd" transform="translate(1.132812 1.083412)"><g stroke="#000"><path d="m211.867188 60.6216664h-90.570375c-5.587077 1.0677083-10.966909-4.1809896-16.139496-15.7460938-7.7588795-17.3476562-8.1866139-39.76562495-29.5440357-44.10742183-14.2382813-2.89453125-30.7682292 2.39127604-49.5898438 15.85742183-14.5338542 10.5019532-22.24869792 19.2044271-23.14453125 26.1074219s-1.85546875 15.1526693-2.87890625 24.7490235c.04622396 8.796875 3.70670573 13.8333333 10.9814453 15.109375 10.9121094 1.9140625 41.7861328-2.4326172 41.7861328 12.8662109s-27.7910156 16.9277341-32.680664 26.2031251c-3.2597657 6.183594-1.2809245 11.894531 5.9365234 17.132812 18.2884115 5.451823 30.4557292 12.74056 36.5019531 21.866211 9.069336 13.688477 5.828125 42.009766 60.4414064 42.009766 54.613281 0 80.154297-1.761719 88.900391-1.761719"/><path d="m211.867188 200.907799c-13.597657.608399-47.197754.968587-100.800293 1.080567 2.839192 1.477539 3.789225 2.838053 2.850097 4.081543-1.408691 1.865234-5.496094 11.637695 4.326172 14.506836 6.548177 1.91276 21.241862 2.580078 44.081055 2.001953 26.005208-1.334636 42.519531-2.001953 49.542969-2.001953"/><path d="m211.867188 104.298424c-35.879558 4.410808-56.754232 10.123373-62.624024 17.137696-8.804687 10.521484-9.052734 23.474609 0 26.52246 6.035156 2.031902 26.909831 2.031902 62.624024 0"/><path d="m26.0234375 138.793541c18.2884115 5.451823 30.4557292 12.74056 36.5019531 21.866211 6.046224 9.125651 11.6416016 14.282552 16.7861328 15.470703 6.9088542 1.069662 11.1988933-1.636067 12.8701172-8.117187 2.506836-9.72168-5.5205078-29.820557-9.1953125-35.47168s-14.7929687-18.307617-22.5058593-15.518554c-7.7128907 2.789062-18.1757813 4.442627-21.5996094 12.492187-2.2825521 5.366374-6.5683594 8.459147-12.8574219 9.27832z"/><path d="m10.9814453 82.591393c10.9121094 1.9140625 41.7861328-2.4326172 41.7861328 12.8662109-.9361979 3.9181034-2.7001953 7.3106811-5.2919922 10.1777341 10.1998698-3.533854 15.2998047-7.7369789 15.2998047-12.6093747 0-7.3085938-2.7363281-22.8232422-10.0078125-22.8232422s-52.69824216 10.4746094-41.7861328 12.3886719z"/></g><path d="m9.29790645 38.2505726c-4.06025794 22.9508464-4.91948848 35.3567709-2.57769161 37.2177735 0 0 62.32177736-30.1967774 93.22119146-24.9609375 0 0-9.713379-27.871582-12.1899415-31.4243164s-7.2319335-17.16259768-30.809082-13.1230469c-15.7180989 2.69303386-31.5995911 13.456543-47.64447635 32.2905273z"/></g></svg>