<?xml version="1.0" encoding="UTF-8"?>
<svg width="1332px" height="827px" viewBox="0 0 1332 827" version="1.1" xmlns="http://www.w3.org/2000/svg" xmlns:xlink="http://www.w3.org/1999/xlink">
    <title>ENTREKINE</title>
    <g id="Page-1" stroke="none" stroke-width="1" fill="none" fill-rule="evenodd">
        <g id="ENTREKINE" transform="translate(1.000000, 1.000000)">
            <path d="M1330,825 C1203.49313,814.161364 1111.13429,782.529545 1046.69408,731.95 C950.033775,656.079545 839.941604,563.904545 791.957022,563.904545 C743.974714,563.904545 713.059603,560.315909 641.464679,588.447727 C569.872029,616.579545 511.488439,649.670455 479.313807,614.279545 C447.1369,578.888636 344.181259,496.915909 282.607942,496.915909 C241.559822,496.915909 190.396882,513.702273 129.121167,547.275 C82.3924691,575.675 48.9396724,578.893182 28.7634586,556.927273 C-1.50128729,523.977273 -11.8897309,450.288636 17.309885,401.836364 C36.7764244,369.536364 83.4207751,336.879545 157.243506,303.865909 C225.097378,287.527273 259.024882,274.061364 259.024882,263.463636 C259.024882,247.568182 227.807395,230.102273 196.792022,230.102273 C165.77574,230.102273 81.2350281,240.943182 57.9902656,230.102273 C34.7457304,219.259545 -31.7203948,174.94 28.7634586,75 C28.7634586,75 462.508063,75 1330,75" id="board" stroke="#000000" fill="#FFFFFF"></path>
            <path d="M1330,45.3790329 C1239.14038,22.0402894 1162.89776,9.40493818 1105.27442,9.40493818 C1047.65108,9.40493818 919.183959,46.2171262 719.870776,119.841411 C708.901826,39.9472129 664.807919,0 587.589055,0 C471.763031,0 172.354542,6.33082466 124.800918,21.9083044 C77.2472931,37.4857386 58.145689,29.5417862 29.4414825,74.6917125 C0.737360036,119.841411 -7.58415396,212.119405 58.6084841,230.04618 C102.736697,241.998728 142.717021,233.846886 178.549227,205.593837 C235.739761,178.011996 293.549399,182.828042 351.977007,220.041977 C439.621826,275.863903 485.517385,353.406486 512.439933,395.364365 C539.36248,437.31997 548.211705,471.010007 675.622376,462.744439 C803.033047,454.476596 969.366679,395.014091 1046.94224,399.786012 C1124.51553,404.557933 1187.5052,462.744439 1254.18451,462.744439 C1298.63966,462.744439 1325.24255,462.744439 1330,462.744439" id="board" stroke="#000000" fill="#FFFFFF"></path>
            <path d="M1330,593 C1168.00076,606.708382 1087,625.554559 1087,649.540809 C1087,673.529338 1168.00076,706.348309 1330,748" id="h7" stroke="#000000"></path>
            <path d="M965.64905,409.631876 C928.651479,421.025056 908.698115,430.565964 905.78669,438.259144 C901.420686,449.795506 891.2046,498.913681 978.231946,524.822767 C1065.25929,550.729582 1095.93705,558.461399 1121.829,539.415947 C1147.72094,520.372768 1138.74613,473.295503 1130.76977,456.409142 C1122.79115,439.525053 1099.57009,411.281876 1061.7919,402.968241 C1036.60569,397.42506 1004.55958,399.645514 965.64905,409.631876 Z" id="h6" stroke="#000000" fill="#FFFFFF" fill-rule="nonzero"></path>
            <path d="M1330,232.381574 C1208.66743,230.290045 1148,236.796772 1148,251.901757 C1148,274.560373 1201.2168,364 1330,364" id="h5" stroke="#000000"></path>
            <path d="M779.317858,243.047518 C715.04992,242.217596 676.82052,252.258748 664.629657,273.175534 C646.343363,304.548434 651.191072,330.203075 668.279644,341.003469 C679.672782,348.203732 724.981701,353.534389 804.204127,357 C848.424413,357 872.390231,351.667063 876.106126,341.003469 C881.678832,325.006938 875.487946,304.628234 850.378951,279.151433 C833.640378,262.167659 809.954105,250.131501 779.317858,243.047518 Z" id="h4" stroke="#000000" fill="#FFFFFF" fill-rule="nonzero"></path>
            <path d="M790.650307,564.060939 C742.746367,564.060939 711.880343,560.459352 640.405199,588.680505 C568.930055,616.901657 510.644237,650.096322 478.521114,614.592364 C446.39799,579.090682 343.611268,496.861652 282.140644,496.861652 C241.160986,496.861652 190.082241,513.700151 128.907819,547.379426 C82.2562053,575.869048 48.8589317,579.095233 28.7157713,557.060255 C-1.49879656,524.008926 -11.8700714,450.091075 17.2812941,401.486715 C36.7155226,369.083808 83.2830269,336.323701 156.983671,303.208667 C224.726158,286.818375 190.254325,291.671303 241.022318,291.671303 C291.792812,291.671303 368.878307,373.003919 456.55709,416.577888 C530.41004,453.280857 630.980355,464.317685 695.722169,490.277323 C773.421438,521.433439 838.554248,564.060939 790.650307,564.060939 Z" id="h3" stroke="#000000" fill="#FFFFFF" fill-rule="nonzero"></path>
            <path d="M844.953727,93.9962792 C810.338537,103.621368 798,106.628572 798,115.542971 C798,121.485676 961.715207,121.485676 1289.14562,115.542971 C1305.71445,116.957567 1314,113.331053 1314,104.663202 C1314,95.9951256 1314,80.500164 1314,58.177865 C1221.36095,36.0593637 1157.90204,25 1123.621,25 C1072.20058,25 879.568916,84.3714163 844.953727,93.9962792 Z" id="h2" fill="#FFFFFF" fill-rule="nonzero"></path>
            <path d="M137.04984,45.3604988 C99.6597365,51.9394773 58.031327,66.1152885 47.2434908,83.9983648 C36.4558819,101.881441 25,123.843416 25,158.737511 C25,182.000317 35.7148717,201.047951 57.1443877,215.880412 C97.1609863,216.648621 123.795986,213.715687 137.04984,207.082063 C150.303695,200.448439 173.820769,187.928767 207.601061,169.523499 C240.854464,136.507298 267.864969,119.999198 288.629167,119.999198 C309.395638,119.999198 443.518491,119.999198 691,119.999198 C668.383276,56.5376199 642.922983,24.806831 614.616846,24.806831 C594.700491,24.806831 500.378526,16.2414612 335.092328,24.806831 C265.47828,28.4143288 174.439944,38.7812934 137.04984,45.3604988 Z" id="h1" fill="#FFFFFF" fill-rule="nonzero"></path>
        </g>
    </g>
</svg>