<?xml version="1.0" encoding="UTF-8"?>
<svg width="586px" height="662px" viewBox="0 0 586 662" version="1.1" xmlns="http://www.w3.org/2000/svg" xmlns:xlink="http://www.w3.org/1999/xlink">
    <!-- Generator: Sketch 64 (93537) - https://sketch.com -->
    <title>ENTRETRAINING</title>
    <desc>Created with Sketch.</desc>
    <g id="Page-1" stroke="none" stroke-width="1" fill="none" fill-rule="evenodd">
        <g id="ENTRETRAINING" transform="translate(1.000000, 1.000000)" fill="#FFFFFF" fill-rule="nonzero">
            <path d="M585,660 L358.874164,660 C353.208558,657.479475 348.160484,656.219212 343.729944,656.219212 C339.299405,656.219212 273.31518,655.071833 145.777268,652.777075 C136.761329,652.170913 132.253359,647.602272 132.253359,639.071157 C132.253359,626.27448 138.650619,617.093859 138.650619,607.309076 C138.650619,597.524291 132.253359,583.238498 132.253359,574.846551 C132.253359,566.454602 138.650619,561.806282 138.650619,548.252313 C138.650619,534.698342 129.261467,487.613675 104.120748,448.504601 C87.3602682,422.431888 138.110932,397.609769 256.372739,374.038249 L585,370" id="Path-26" stroke="#000000"></path>
            <path d="M383,405 C322.447163,465.604851 277.120421,497.113997 247.019772,499.527437 C216.919121,501.940877 195.406379,495.110007 182.481544,479.034828 L109,405 L383,405 Z" id="Path-25" stroke="#000000"></path>
            <path d="M583,55.8020407 L287.156659,55.8020407 L255.606786,20.3790934 C246.463376,7.94111517 231.581726,1.72212607 210.961835,1.72212607 C180.031999,1.72212607 81.9814679,-2.15265759 66.706973,1.72212607 C51.4324779,5.59690972 29.2841699,14.0402257 19.2288961,43.008294 C9.17362231,71.9763622 21.6997532,117.172117 30.4499315,142.274683 C39.2001097,167.377248 49.5108293,217.315553 34.3698627,248.875317 C19.2288961,280.435084 -10.9926589,335.563742 4.11811859,353.02579 C19.2288961,370.487838 53.0986809,381.935853 59.9028268,399.989561 C66.706973,418.043267 75.733497,459.740116 113.678803,445.484625 C151.624108,431.229133 193.484701,399.611363 237.758095,412.430633 C282.031489,425.2499 367.958795,461 473.22567,461 C543.403584,461 581.995029,461 585,461" id="Path" stroke="#000000"></path>
            <path d="M585,370 C462.479032,371.512621 385.547939,372 360.206723,372 C322.194897,372 300.839435,356.835699 255.086582,324.078623 C209.33373,291.321549 214.145304,225.170404 214.145304,171.82529 C214.145304,136.26188 238.29361,97.3201173 286.590218,55 L585,55" id="Path" stroke="#000000"></path>
            <path d="M172.609083,598 C163.107807,598.807555 157.098168,600.570429 154.580168,603.288622 C150.803167,607.365911 146.50996,617.855444 154.580168,617.855444 C159.960306,617.855444 212.370446,617.855444 311.810589,617.855444 C319.936864,618.61559 324,616.377822 324,611.142143 C324,603.288622 316.580559,598 305.094115,598 C297.436486,598 253.274809,598 172.609083,598 Z" id="h15" stroke="#000000"></path>
            <path d="M173.609083,539 C164.107807,539.807558 158.098168,541.570431 155.580168,544.288622 C151.803167,548.365911 147.509961,558.855444 155.580168,558.855444 C160.960306,558.855444 213.370446,558.855444 312.810589,558.855444 C320.936864,559.61559 325,557.377822 325,552.142143 C325,544.288622 317.580559,539 306.094115,539 C298.436486,539 254.274809,539 173.609083,539 Z" id="h14" stroke="#000000"></path>
            <path d="M233.699874,418 C210.646404,420.481655 197.893817,429.122221 195.442113,443.921695 C192.99041,458.72117 200.735494,470.171186 218.677364,478.271739 C230.281784,479.242754 242.337546,479.242754 254.844651,478.271739 C273.60531,476.815217 281.755711,450.483583 271.582422,434.664196 C264.800232,424.117936 252.172714,418.563204 233.699874,418 Z" id="h13" stroke="#000000"></path>
            <path d="M256.458418,374.214965 C217.499603,362.356542 187.236026,358.403735 165.667688,362.356542 C133.315182,368.285752 118.178367,395.294543 85.7144916,389.076809 C64.0719082,384.931652 54.6636024,366.512512 57.4895743,333.819391 C71.3997912,306.025369 90.5976844,290.246585 115.083254,286.483036 C151.811609,280.837714 181.864823,285.609355 200.602549,292.881531 C213.094366,297.72965 236.713737,311.375601 271.460663,333.819391 C301.304288,358.059978 327.8174,370.93557 351,372.446165 C351,372.446165 319.486139,373.035765 256.458418,374.214965 Z" id="h12" stroke="#000000"></path>
            <path d="M216,234.944036 C309.62966,287.081923 389.629659,283.767246 456,225 C456,225 456.069757,315 341.804891,315 C265.628313,315 223.69335,288.31468 216,234.944036 Z" id="h11" stroke="#000000"></path>
            <path d="M6,310.719051 C31.3579708,286.229988 56.1439223,271.027715 80.3578545,265.112227 C116.678753,256.238997 163.651767,259.407009 186.013999,269.849118 C200.922155,276.810521 220.584155,291.860817 245,315 L177.391855,245.305743 C161.398569,231.983136 140.102865,226.824456 113.504744,229.829702 C86.9066228,232.834949 51.0717082,259.798066 6,310.719051 Z" id="h10" stroke="#000000"></path>
            <path d="M287.009977,55 L435.108619,55 C442.047242,74.7831304 446.344369,85.7831304 448,88 C448,88 383.333334,88 254,88 L287.009977,55 Z" id="h9" stroke="#000000"></path>
            <path d="M29.7626621,103 C19.8349997,58.232549 29.5526998,29.8330901 58.9157624,17.8016229 C88.2788248,5.77015583 137.237461,3.78969229 205.791671,11.8602323 C229.881748,16.9698283 245.951193,33.4371886 254,61.2623132 C254,61.2623132 148.411774,72.783951 125.998693,75.2245813 C113.516775,76.583776 81.4380976,85.8422491 29.7626621,103 Z" id="h8"></path>
            <path d="M585,595 L377.174504,595 C365.215203,596.902921 359.235554,601.443103 359.235554,608.620544 C359.235554,619.386705 355.568204,647 377.174504,647 C391.578703,647 462.187203,647 585,647" id="h7" stroke="#000000"></path>
            <path d="M585,529 L377.174504,529 C365.215203,530.902921 359.235554,535.443103 359.235554,542.620544 C359.235554,553.386705 355.568204,581 377.174504,581 C391.578703,581 462.187203,581 585,581" id="h6" stroke="#000000"></path>
            <path d="M585,428 L392.114699,428 C386.038234,428.687258 383,430.759822 383,434.217693 C383,437.675561 383,443.80388 383,452.602648 C419.489661,458.200883 449.343366,461 472.561113,461 C495.778858,461 535.258489,461 585,461" id="h5" stroke="#000000"></path>
            <path d="M585,264.640505 C535.705184,270.050465 504.750979,279.489806 496.137388,292.239535 C487.523796,304.989264 485.748452,318.033265 490.811355,331.371539 C495.663756,341.277668 506.592878,344.854625 523.598724,342.102406 C549.10749,337.974078 566.716433,331.012044 585,331.012044" id="h4" stroke="#000000"></path>
            <path d="M585,200.049327 L468.638806,200.049327 C460.212935,199.653316 456,201.64178 456,206.014719 C456,210.387658 456,215.742215 456,222.07839 C456.172177,230.02613 462.186778,234 474.043804,234 C485.900828,234 524.219561,234 585,234" id="h3" stroke="#000000"></path>
            <path d="M585,134 L502.692807,134.08055 C471.610804,133.549945 456.069802,135.640765 456.069802,140.353013 C456.069802,145.065261 456.069802,149.024906 456.069802,152.23195 C455.414024,161.41065 459.378921,166 467.964494,166 C476.550067,166 516.895234,165.383772 585,164.312416" id="h2" stroke="#000000"></path>
            <path d="M585,1 L444.410642,1 C433.470213,3.4797435 428,9.54468627 428,19.1948283 C428,33.6700414 447.933686,134 505.5,134 C543.877542,134 571.710873,134 585,134" id="h1" stroke="#000000"></path>
        </g>
    </g>
</svg>