<?xml version="1.0" encoding="UTF-8"?>
<svg width="217px" height="128px" viewBox="0 0 217 128" version="1.1" xmlns="http://www.w3.org/2000/svg" xmlns:xlink="http://www.w3.org/1999/xlink">
    <!-- Generator: Sketch 57.1 (83088) - https://sketch.com -->
    <title>ENTREHANG2</title>
    <desc>Created with Sketch.</desc>
    <g id="Page-1" stroke="none" stroke-width="1" fill="none" fill-rule="evenodd">
        <g id="ENTREHANG2">
            <path d="M217,14.1619865 C199.698405,13.8224596 186.507031,16.5673493 177.425878,22.3966556 C168.344724,28.2259619 159.333584,31.140615 150.392457,31.140615 L100.090909,31.140615 C91.8813867,30.6713291 86.2626719,25.0117863 83.2347644,14.1619865 C80.2068568,3.31218676 68.3449293,-0.829764154 47.648982,1.73613379 C16.5496607,5.89709254 1,13.3524764 1,24.1022854 C1,40.2269988 10.3881835,61.679816 13.3475232,69.0339312 C16.3068628,76.3880465 20.1603152,82.3458046 20.1603152,94.578065 C20.1603152,106.810325 19.9738811,124.202973 36.7254875,124.202973 C47.8932251,124.202973 89.6597543,124.202973 162.025075,124.202973 C181.190368,126.067658 194.437946,127 201.767807,127 C209.097669,127 214.175066,127 217,127" id="background" stroke="#000000" fill="#FFFFFF"></path>
            <rect id="h5" stroke="#000000" x="32" y="94" width="34" height="16" rx="8"></rect>
            <path d="M82.3135681,17.4914601 C79.4668604,7.19439433 68.3147894,3.26345166 48.8573549,5.69863206 C19.6191183,9.64761423 5,16.7231898 5,26.9253587 C5,42.228612 5.84288473,54.5532585 25.9716821,51.5449016 C48.5116156,46.6012285 62.9561573,42.1991162 69.3053071,38.3385649 C78.8290319,32.5477379 85.1602759,27.7885258 82.3135681,17.4914601 Z" id="h1" fill="#FFFDFD"></path>
            <rect id="h3" stroke="#000000" x="30" y="60" width="36" height="16" rx="8"></rect>
            <rect id="h6" stroke="#000000" x="85" y="95" width="70" height="16" rx="8"></rect>
            <path d="M217,110 L187,110 C182.581722,110 179,106.418278 179,102 L179,100 C179,95.581722 182.581722,92 187,92 L217,92" id="h7" stroke="#000000"></path>
            <rect id="h4" stroke="#000000" x="86" y="60" width="112" height="16" rx="8"></rect>
            <path d="M217,16.0463095 C197.926764,15.5155732 182.262199,19.5467647 170.006306,28.139884 C164.825609,32.8485879 181.138613,34 185.092486,34 C187.728401,34 198.364239,34 217,34 L217,16.0463095 Z" id="h2" fill="#FFFFFF"></path>
        </g>
    </g>
</svg>