<?xml version="1.0" encoding="UTF-8"?>
<svg width="247px" height="280px" viewBox="0 0 247 280" version="1.1" xmlns="http://www.w3.org/2000/svg" xmlns:xlink="http://www.w3.org/1999/xlink">
    <!-- Generator: Sketch 58 (84663) - https://sketch.com -->
    <title>Group 5</title>
    <desc>Created with Sketch.</desc>
    <g id="Page-1" stroke="none" stroke-width="1" fill="none" fill-rule="evenodd">
        <g id="Group-5" transform="translate(0.832672, 1.272244)" fill="#FFFFFF">
            <path d="M245.167328,278.031469 L150.943244,278.031469 C148.561383,276.97027 146.439137,276.43967 144.576507,276.43967 C142.713877,276.43967 114.973643,275.956597 61.3558041,274.990451 C57.5654395,274.735243 55.6702572,272.81174 55.6702572,269.219944 C55.6702572,263.832248 58.3597104,259.966995 58.3597104,255.847376 C58.3597104,251.727756 55.6702572,245.713108 55.6702572,242.179905 C55.6702572,238.646701 58.3597104,236.689651 58.3597104,230.983118 C58.3597104,225.276584 54.4124447,205.452854 43.8431088,188.987033 C36.7968848,178.00982 58.1328223,167.559136 107.850921,157.634983 L245.167328,155.934787" id="Path-26" stroke="#000000"></path>
            <path d="M161.225921,170.634006 C135.769541,196.170464 116.714203,209.447157 104.059906,210.464084 C91.4056088,211.481011 82.3616635,208.602756 76.9280697,201.829319 L46.0364682,170.634006 L161.225921,170.634006 Z" id="Path-25" stroke="#000000"></path>
            <path d="M245.167328,23.4865451 L120.757171,23.4865451 L107.489593,8.57736545 L107.489593,8.57736545 C103.644541,3.34233941 97.3864031,0.724826389 88.7151791,0.724826389 C75.7083432,0.724826389 34.475433,-0.906032986 28.0520932,0.724826389 C21.6287533,2.35568576 12.3147885,5.9093967 8.08627286,18.1017795 C3.85775724,30.2941623 9.12533536,49.3166233 12.8050229,59.882053 C16.4847104,70.4474826 20.8206479,91.4660373 14.4534604,104.74924 C8.08627286,118.032444 -4.62271151,141.235569 1.73178067,148.585178 C8.08627286,155.934787 22.3294369,160.753147 25.190765,168.35178 C28.0520932,175.950412 31.8479916,193.500217 47.8050229,187.500217 C63.7620541,181.500217 81.3655697,168.1926 99.9837338,173.588108 C118.601898,178.983615 154.736663,194.03049 199.004242,194.03049 C228.51596,194.03049 243.903656,194.03049 245.167328,194.03049" id="Path" stroke="#000000"></path>
            <path d="M245.167328,155.934787 C193.568316,156.571343 162.432655,156.889621 151.760345,156.889621 C135.75188,156.889621 126.758148,150.50803 107.489593,136.722873 C88.2210385,122.937717 90.2474057,95.0993381 90.2474057,72.6501194 C90.2474057,57.6839735 100.417328,41.2961155 120.757171,23.4865451 L245.167328,23.4865451" id="Path" stroke="#000000"></path>
            <path d="M72.6841136,251.727756 C68.6847646,252.060438 66.1551422,252.786675 65.0952464,253.906467 C63.5054027,255.586155 61.6982737,259.907444 65.0952464,259.907444 C67.3598948,259.907444 89.4207672,259.907444 131.277864,259.907444 C134.698437,260.220595 136.408723,259.29872 136.408723,257.141819 C136.408723,253.906467 133.285676,251.727756 128.450715,251.727756 C125.227408,251.727756 106.638541,251.727756 72.6841136,251.727756 Z" id="h15" stroke="#000000"></path>
            <path d="M72.9280697,226.863498 C68.9287208,227.196181 66.3990984,227.922418 65.3392025,229.042209 C63.7493588,230.721897 61.9422299,235.043186 65.3392025,235.043186 C67.603851,235.043186 89.6647234,235.043186 131.52182,235.043186 C134.942393,235.356337 136.652679,234.434462 136.652679,232.277561 C136.652679,229.042209 133.529632,226.863498 128.694671,226.863498 C125.471364,226.863498 106.882497,226.863498 72.9280697,226.863498 Z" id="h14" stroke="#000000"></path>
            <path d="M98.4124447,176.144748 C88.7522885,177.18967 83.4085385,180.827854 82.3811947,187.059299 C81.353851,193.290744 84.5992937,198.111871 92.1175229,201.522678 C96.9801531,201.931532 102.031911,201.931532 107.272796,201.522678 C115.134124,200.909397 118.549408,189.822238 114.286468,183.16135 C111.444509,178.720757 106.153167,176.38189 98.4124447,176.144748 Z" id="h13" stroke="#000000"></path>
            <path d="M107.850921,157.634983 C91.4531348,152.637912 78.7151791,150.972222 69.6370541,152.637912 C56.0198666,155.136447 49.6487729,166.517795 35.9847104,163.897678 C26.8753354,162.150933 22.9153744,154.389214 24.1048275,140.612522 C29.9596453,128.900282 38.0400489,122.251194 48.3460385,120.665256 C63.8050229,118.28635 76.4544369,120.297092 84.3411557,123.361545 C89.5989682,125.404514 99.5403744,131.154839 114.165374,140.612522 C126.726572,150.827365 137.885955,156.253065 147.643524,156.889621 C147.643524,156.889621 134.379323,157.138075 107.850921,157.634983 Z" id="h12" stroke="#000000"></path>
            <path d="M90.9856869,98.906467 C130.329111,120.741753 163.945317,119.35357 191.834305,94.7419162 C191.834305,94.7419162 191.863617,132.433811 143.849226,132.433811 C111.839632,132.433811 94.2184525,121.25803 90.9856869,98.906467 Z" id="h11" stroke="#000000"></path>
            <path d="M2.50131192,130.951389 C13.1510515,120.6773 23.5605567,114.299371 33.7298275,111.8176 C48.9837338,108.094944 68.7112729,109.424045 78.1028744,113.804905 C84.3639421,116.725477 92.6215105,123.039646 102.87558,132.747409 L74.4817807,103.50803 C67.7649838,97.9186921 58.8212989,95.7544307 47.650726,97.0152452 C36.4801531,98.2760598 21.4303484,109.588108 2.50131192,130.951389 Z" id="h10" stroke="#000000"></path>
            <path d="M120.757171,23.4865451 L182.983001,23.4865451 C185.898366,31.7321506 187.703867,36.3169488 188.399505,37.2409397 C188.399505,37.2409397 161.228851,37.2409397 106.887542,37.2409397 L120.757171,23.4865451 Z" id="h9" stroke="#000000"></path>
            <path d="M12.326019,43.2736545 C8.13949552,24.5101273 12.2374773,12.6069698 24.6199643,7.56418186 C37.0024512,2.52139395 57.6484473,1.69131583 86.5579525,5.07394748 C96.7168067,7.21554905 103.493337,14.1175673 106.887542,25.7800022 C106.887542,25.7800022 62.3606869,30.6091037 52.9090268,31.632053 C47.6453664,32.2017367 34.1176971,36.0822706 12.326019,43.2736545 Z" id="h8"></path>
            <path d="M245.391412,250.727756 L158.81231,250.727756 C153.781711,251.526584 151.266412,253.432509 151.266412,256.44553 C151.266412,260.965061 149.723766,272.556858 158.81231,272.556858 C164.871339,272.556858 193.73104,272.556858 245.391412,272.556858" id="h7" stroke="#000000"></path>
            <path d="M245.167328,222.917209 L158.588226,222.917209 C153.557627,223.716037 151.042328,225.621962 151.042328,228.634983 C151.042328,233.154514 149.499682,244.746311 158.588226,244.746311 C164.647255,244.746311 193.506956,244.746311 245.167328,244.746311" id="h6" stroke="#000000"></path>
            <path d="M245.167328,180.088108 L165.070648,180.088108 C162.507497,180.378472 161.225921,181.254123 161.225921,182.715061 C161.225921,184.175998 161.225921,186.765191 161.225921,190.482639 C176.617848,192.847873 189.210622,194.03049 199.004242,194.03049 C208.797861,194.03049 224.185557,194.03049 245.167328,194.03049" id="h5" stroke="#000000"></path>
            <path d="M245.167328,111.8176 C224.432953,114.091688 212.254242,117.90842 208.631195,123.267795 C205.008148,128.62717 204.261403,134.110243 206.39096,139.717014 C208.431976,143.881076 213.028981,145.384657 220.181976,144.227756 C230.911468,142.492405 237.476898,139.717014 245.167328,139.717014" id="h4" stroke="#000000"></path>
            <path d="M245.167328,84.4504123 L197.168304,84.4504123 C193.631846,84.2817925 191.863617,85.1284722 191.863617,86.9904514 C191.863617,88.8524306 191.863617,91.1323785 191.863617,93.8302951 C191.935882,97.2144097 194.460296,98.906467 199.436859,98.906467 C204.413421,98.906467 219.656911,98.906467 245.167328,98.906467" id="h3" stroke="#000000"></path>
            <path d="M245.167328,56.7687717 L211.442718,56.7687717 C198.389984,56.5474175 191.863617,57.4196506 191.863617,59.3854709 C191.863617,61.3512912 191.863617,63.0031467 191.863617,64.3410373 C191.588226,68.1701389 193.253265,70.0846897 196.858734,70.0846897 C200.464203,70.0846897 216.567067,69.8612196 245.167328,69.4142795" id="h2" stroke="#000000"></path>
            <path d="M245.167328,0.724826389 L186.967132,0.724826389 C182.372731,1.76974826 180.075531,4.32541233 180.075531,8.39181858 C180.075531,14.491428 188.446624,56.7687717 212.621429,56.7687717 C228.737966,56.7687717 239.586598,56.7687717 245.167328,56.7687717" id="h1" stroke="#000000"></path>
        </g>
    </g>
</svg>