<?xml version="1.0" encoding="UTF-8"?>
<svg width="547px" height="294px" viewBox="0 0 547 294" version="1.1" xmlns="http://www.w3.org/2000/svg" xmlns:xlink="http://www.w3.org/1999/xlink">
    <!-- Generator: Sketch 57.1 (83088) - https://sketch.com -->
    <title>ENTREHANG</title>
    <desc>Created with Sketch.</desc>
    <g id="Page-1" stroke="none" stroke-width="1" fill="none" fill-rule="evenodd">
        <g id="ENTREHANG">
            <g transform="translate(273.500000, 147.000000) scale(-1, 1) translate(-273.500000, -147.000000) ">
                <path d="M0,293.18 C0,293.18 161.41,284.18 205.43,282.95 C260.18,281.44 367.56,268.16 404,281.34 C436.74,293.18 468.42,272.73 480.92,243.76 C493.42,214.79 524.09,184.12 503.64,125 C503.64,125 487.8,84.11 510.49,80.13 C532.02,76.36 562.29,54.67 536.16,23.82 C533.434304,20.6170606 529.465015,18.738021 525.26,18.66 L385.49,16 C385.49,16 367.49,16.93 356.49,10 C353.860636,8.35631859 350.810305,7.51209246 347.71,7.57 L196.91,10.87 C187.302327,11.0458078 178.478779,16.2096106 173.62,24.5 C165.1,38.71 152.03,24.5 142.38,10.87 C132.73,-2.76 92.38,-6.74 70.24,27.87 C48.1,62.48 70.06,77.9 0,83" id="hangboard" stroke="#000000" fill="#FFFFFF" fill-rule="nonzero"></path>
                <path d="M256.54,248 L32.14,248 C20.3250118,247.994479 10.75,238.41499 10.75,226.6 L10.75,226.6 C10.75,214.786629 20.3266292,205.21 32.14,205.21 L265.75,205.21 C270.820821,205.209384 275.640224,207.418329 278.94991,211.2601 C282.259596,215.101871 283.731017,220.195102 282.98,225.21 L282.98,225.21 C281.028183,238.307006 269.781645,248.000977 256.54,248 L256.54,248 Z" id="h8" stroke="#292929"></path>
                <path d="M301.73,211.26 L301.73,211.26 C306.719519,202.16795 315.877882,196.127248 326.2,195.12 L326.2,195.12 C334.17854,194.338821 342.230725,194.841871 350.05,196.61 L350.53,196.72 C366.956755,200.419735 378.624561,215.01176 378.620001,231.85 L378.620001,231.85 C378.60897,240.76873 371.378735,247.994491 362.46,248 L314.39,248 C310.00689,248 305.803448,246.258133 302.705059,243.157869 C299.60667,240.057605 297.867347,235.853109 297.869997,231.47 L297.869997,226.34 C297.871426,221.069137 299.198828,215.883329 301.73,211.26 Z" id="h7" stroke="#292929"></path>
                <rect id="h6" stroke="#292929" x="398.33" y="203.05" width="71.42" height="44.96" rx="22.48"></rect>
                <path d="M289,172.58 L40,172.58 C29.8876662,172.58 21.69,164.382334 21.69,154.27 L21.69,154.27 C21.6948927,140.880297 31.1788514,129.367953 44.32,126.8 L96.21,116.61 C135.670651,108.875664 175.788524,104.987455 216,104.99997 L301.4,104.99997 C316.62907,105.0055 328.977938,117.340945 329.000001,132.57 L329.000001,132.57 C329.000001,143.180392 324.78955,153.357118 317.287807,160.860736 C309.786065,168.364354 299.610392,172.58 289,172.58 L289,172.58 Z" id="h5" stroke="#292929"></path>
                <rect id="h4" stroke="#292929" x="360.76" y="110.84" width="112.35" height="40.79" rx="20.39"></rect>
                <path d="M166,79.2792353 C165.917715,68.6753922 166.16457,56.1149128 166,34.9072266 C158.431657,36.4419054 149.038598,22.7253987 141.92311,12.6775608 C132.515236,-0.607375915 91.9675594,-5.01442697 71.5931547,29.247181 C51.21875,63.5087891 65.4716797,72.2724609 31.0380859,80 L166,79.2792353 Z" id="h3" fill="#FFFFFF" fill-rule="nonzero"></path>
                <path d="M350,35.3991183 L350,31.1163072 L350,78.028169 C350,79.1171812 349.104569,80 348,80 L169,80 C167.895431,80 167,79.1171812 167,78.028169 L167,11.971831 C167,10.8828188 167.895431,10 169,10 L225.052734,10 L320.030518,12.5584218 C325.568929,12.045566 331.367025,14.4959127 337.424805,19.9094617 C342.40804,25.9939274 346.599772,31.1571463 350,35.3991183 Z" id="h2" fill="#FFFFFF" transform="translate(258.500000, 45.000000) scale(-1, 1) translate(-258.500000, -45.000000) "></path>
                <path d="M509.959479,80.13 C531.41803,76.426481 561.587576,55.118967 535.544291,24.8129824 C532.82764,21.6665243 528.871524,19.8206201 524.680464,19.7439749 L385.374304,17.1308819 C385.374304,17.1308819 367.434038,18.0444821 356.470543,11.2366872 C352.574816,8.75774854 350.626953,8.46653507 350.626953,10.3630468 C350.626953,12.2595585 350.626953,35.5152096 350.626953,80.13 L509.959479,80.13 Z" id="h1" fill="#FFFFFF" fill-rule="nonzero"></path>
            </g>
        </g>
    </g>
</svg>