<svg width="587" height="662" viewBox="0 0 587 662" fill="none" xmlns="http://www.w3.org/2000/svg">
<g id="ENTRETRAINING">
<g id="Path-26">
<path d="M586 661H359.874C354.209 658.479 349.16 657.219 344.73 657.219C340.299 657.219 274.315 656.072 146.777 653.777C137.761 653.171 133.253 648.602 133.253 640.071C133.253 627.274 139.651 618.094 139.651 608.309C139.651 598.524 133.253 584.239 133.253 575.847C133.253 567.455 139.651 562.806 139.651 549.252C139.651 535.698 130.261 488.614 105.121 449.505C88.3603 423.432 139.111 398.61 257.373 375.038L586 371" fill="white"/>
<path d="M586 661H359.874C354.209 658.479 349.16 657.219 344.73 657.219C340.299 657.219 274.315 656.072 146.777 653.777C137.761 653.171 133.253 648.602 133.253 640.071C133.253 627.274 139.651 618.094 139.651 608.309C139.651 598.524 133.253 584.239 133.253 575.847C133.253 567.455 139.651 562.806 139.651 549.252C139.651 535.698 130.261 488.614 105.121 449.505C88.3603 423.432 139.111 398.61 257.373 375.038L586 371" stroke="black"/>
</g>
<path id="Path-25" d="M384 406C323.447 466.605 278.12 498.114 248.02 500.527C217.919 502.941 196.406 496.11 183.482 480.035L110 406H384Z" fill="white" stroke="black"/>
<g id="Path">
<path d="M584 56.802H288.157L256.607 21.3791C247.463 8.94112 232.582 2.72213 211.962 2.72213C181.032 2.72213 82.9815 -1.15266 67.707 2.72213C52.4325 6.59691 30.2842 15.0402 20.2289 44.0083C10.1736 72.9764 22.6998 118.172 31.4499 143.275C40.2001 168.377 50.5108 218.316 35.3699 249.875C20.2289 281.435 -9.99266 336.564 5.11812 354.026C20.2289 371.488 54.0987 382.936 60.9028 400.99C67.707 419.043 76.7335 460.74 114.679 446.485C152.624 432.229 194.485 400.611 238.758 413.431C283.031 426.25 368.959 462 474.226 462C544.404 462 582.995 462 586 462" fill="white"/>
<path d="M584 56.802H288.157L256.607 21.3791C247.463 8.94112 232.582 2.72213 211.962 2.72213C181.032 2.72213 82.9815 -1.15266 67.707 2.72213C52.4325 6.59691 30.2842 15.0402 20.2289 44.0083C10.1736 72.9764 22.6998 118.172 31.4499 143.275C40.2001 168.377 50.5108 218.316 35.3699 249.875C20.2289 281.435 -9.99266 336.564 5.11812 354.026C20.2289 371.488 54.0987 382.936 60.9028 400.99C67.707 419.043 76.7335 460.74 114.679 446.485C152.624 432.229 194.485 400.611 238.758 413.431C283.031 426.25 368.959 462 474.226 462C544.404 462 582.995 462 586 462" stroke="black"/>
</g>
<g id="Path_2">
<path d="M586 371C463.479 372.513 386.548 373 361.207 373C323.195 373 301.839 357.836 256.087 325.079C210.334 292.322 215.145 226.17 215.145 172.825C215.145 137.262 239.294 98.3201 287.59 56H586" fill="white"/>
<path d="M586 371C463.479 372.513 386.548 373 361.207 373C323.195 373 301.839 357.836 256.087 325.079C210.334 292.322 215.145 226.17 215.145 172.825C215.145 137.262 239.294 98.3201 287.59 56H586" stroke="black"/>
</g>
<path id="h15" d="M173.609 599C164.108 599.808 158.098 601.57 155.58 604.289C151.803 608.366 147.51 618.855 155.58 618.855C160.96 618.855 213.37 618.855 312.811 618.855C320.937 619.616 325 617.378 325 612.142C325 604.289 317.581 599 306.094 599C298.436 599 254.275 599 173.609 599Z" fill="white" stroke="black"/>
<path id="h14" d="M174.609 540C165.108 540.808 159.098 542.57 156.58 545.289C152.803 549.366 148.51 559.855 156.58 559.855C161.96 559.855 214.37 559.855 313.811 559.855C321.937 560.616 326 558.378 326 553.142C326 545.289 318.581 540 307.094 540C299.436 540 255.275 540 174.609 540Z" fill="white" stroke="black"/>
<path id="h13" d="M234.7 419C211.646 421.482 198.894 430.122 196.442 444.922C193.99 459.721 201.735 471.171 219.677 479.272C231.282 480.243 243.338 480.243 255.845 479.272C274.605 477.815 282.756 451.484 272.582 435.664C265.8 425.118 253.173 419.563 234.7 419Z" fill="white" stroke="black"/>
<path id="h12" d="M257.458 375.215C218.5 363.357 188.236 359.404 166.668 363.357C134.315 369.286 119.178 396.295 86.7145 390.077C65.0719 385.932 55.6636 367.513 58.4896 334.819C72.3998 307.025 91.5977 291.247 116.083 287.483C152.812 281.838 182.865 286.609 201.603 293.882C214.094 298.73 237.714 312.376 272.461 334.819C302.304 359.06 328.817 371.936 352 373.446C352 373.446 320.486 374.036 257.458 375.215Z" fill="white" stroke="black"/>
<path id="h11" d="M217 235.944C310.63 288.082 390.63 284.767 457 226C457 226 457.07 316 342.805 316C266.628 316 224.693 289.315 217 235.944Z" fill="white" stroke="black"/>
<path id="h10" d="M7 311.719C32.358 287.23 57.1439 272.028 81.3579 266.112C117.679 257.239 164.652 260.407 187.014 270.849C201.922 277.811 221.584 292.861 246 316L178.392 246.306C162.399 232.983 141.103 227.824 114.505 230.83C87.9066 233.835 52.0717 260.798 7 311.719Z" fill="white" stroke="black"/>
<path id="h9" d="M288.01 56H436.109C443.047 75.7831 447.344 86.7831 449 89C449 89 384.333 89 255 89L288.01 56Z" fill="white" stroke="black"/>
<path id="h8" d="M30.7627 104C20.835 59.2325 30.5527 30.8331 59.9158 18.8016C89.2788 6.77016 138.237 4.78969 206.792 12.8602C230.882 17.9698 246.951 34.4372 255 62.2623C255 62.2623 149.412 73.7839 126.999 76.2246C114.517 77.5838 82.4381 86.8422 30.7627 104Z" fill="white"/>
<g id="h7">
<path d="M586 596H378.175C366.215 597.903 360.236 602.443 360.236 609.621C360.236 620.387 356.568 648 378.175 648C392.579 648 463.187 648 586 648" fill="white"/>
<path d="M586 596H378.175C366.215 597.903 360.236 602.443 360.236 609.621C360.236 620.387 356.568 648 378.175 648C392.579 648 463.187 648 586 648" stroke="black"/>
</g>
<g id="h6">
<path d="M586 530H378.175C366.215 531.903 360.236 536.443 360.236 543.621C360.236 554.387 356.568 582 378.175 582C392.579 582 463.187 582 586 582" fill="white"/>
<path d="M586 530H378.175C366.215 531.903 360.236 536.443 360.236 543.621C360.236 554.387 356.568 582 378.175 582C392.579 582 463.187 582 586 582" stroke="black"/>
</g>
<g id="h5">
<path d="M586 429H393.115C387.038 429.687 384 431.76 384 435.218C384 438.676 384 444.804 384 453.603C420.49 459.201 450.343 462 473.561 462C496.779 462 536.258 462 586 462" fill="white"/>
<path d="M586 429H393.115C387.038 429.687 384 431.76 384 435.218C384 438.676 384 444.804 384 453.603C420.49 459.201 450.343 462 473.561 462C496.779 462 536.258 462 586 462" stroke="black"/>
</g>
<g id="h4">
<path d="M586 265.641C536.705 271.051 505.751 280.49 497.137 293.24C488.524 305.989 486.748 319.033 491.811 332.372C496.664 342.278 507.593 345.855 524.599 343.103C550.107 338.974 567.716 332.012 586 332.012" fill="white"/>
<path d="M586 265.641C536.705 271.051 505.751 280.49 497.137 293.24C488.524 305.989 486.748 319.033 491.811 332.372C496.664 342.278 507.593 345.855 524.599 343.103C550.107 338.974 567.716 332.012 586 332.012" stroke="black"/>
</g>
<g id="h3">
<path d="M586 201.049H469.639C461.213 200.653 457 202.642 457 207.015C457 211.388 457 216.742 457 223.078C457.172 231.026 463.187 235 475.044 235C486.901 235 525.22 235 586 235" fill="white"/>
<path d="M586 201.049H469.639C461.213 200.653 457 202.642 457 207.015C457 211.388 457 216.742 457 223.078C457.172 231.026 463.187 235 475.044 235C486.901 235 525.22 235 586 235" stroke="black"/>
</g>
<g id="h2">
<path d="M586 135L503.693 135.081C472.611 134.55 457.07 136.641 457.07 141.353C457.07 146.065 457.07 150.025 457.07 153.232C456.414 162.411 460.379 167 468.964 167C477.55 167 517.895 166.384 586 165.312" fill="white"/>
<path d="M586 135L503.693 135.081C472.611 134.55 457.07 136.641 457.07 141.353C457.07 146.065 457.07 150.025 457.07 153.232C456.414 162.411 460.379 167 468.964 167C477.55 167 517.895 166.384 586 165.312" stroke="black"/>
</g>
<g id="h1">
<path d="M586 2H445.411C434.47 4.47974 429 10.5447 429 20.1948C429 34.67 448.934 135 506.5 135C544.878 135 572.711 135 586 135" fill="white"/>
<path d="M586 2H445.411C434.47 4.47974 429 10.5447 429 20.1948C429 34.67 448.934 135 506.5 135C544.878 135 572.711 135 586 135" stroke="black"/>
</g>
</g>
</svg>
