<svg width="587" height="365" viewBox="0 0 587 365" fill="none" xmlns="http://www.w3.org/2000/svg">
<g id="ENTREKINE">
<g id="board">
<path d="M586 364C530.356 359.231 489.732 345.313 461.388 323.058C418.872 289.675 370.448 249.118 349.342 249.118C328.237 249.118 314.639 247.539 283.148 259.917C251.658 272.295 225.978 286.855 211.826 271.283C197.673 255.711 152.388 219.643 125.305 219.643C107.25 219.643 84.746 227.029 57.7939 241.801C37.2403 254.297 22.5261 255.713 13.6516 246.048C0.339663 231.55 -4.22969 199.127 8.61375 177.808C17.1761 163.596 37.6926 149.227 70.1635 134.701C100.009 127.512 114.932 121.587 114.932 116.924C114.932 109.93 101.201 102.245 87.5589 102.245C73.9164 102.245 36.7312 107.015 26.507 102.245C16.2829 97.4742 -12.9522 77.9736 13.6516 34C13.6516 34 204.434 34 586 34" fill="white"/>
<path d="M586 364C530.356 359.231 489.732 345.313 461.388 323.058C418.872 289.675 370.448 249.118 349.342 249.118C328.237 249.118 314.639 247.539 283.148 259.917C251.658 272.295 225.978 286.855 211.826 271.283C197.673 255.711 152.388 219.643 125.305 219.643C107.25 219.643 84.746 227.029 57.7939 241.801C37.2403 254.297 22.5261 255.713 13.6516 246.048C0.339663 231.55 -4.22969 199.127 8.61375 177.808C17.1761 163.596 37.6926 149.227 70.1635 134.701C100.009 127.512 114.932 121.587 114.932 116.924C114.932 109.93 101.201 102.245 87.5589 102.245C73.9164 102.245 36.7312 107.015 26.507 102.245C16.2829 97.4742 -12.9522 77.9736 13.6516 34C13.6516 34 204.434 34 586 34" stroke="black"/>
</g>
<g id="board_2">
<path d="M585 20.5265C545.008 10.2655 512.33 5.13493 486.967 5.13493C461.604 5.13493 405.059 21.3196 317.331 53.6889C312.503 18.563 293.095 1 259.107 1C208.126 1 76.3409 3.78338 55.4101 10.6321C34.4793 17.4808 26.0717 13.9882 13.4375 33.8386C0.803337 53.6889 -2.85939 94.2594 26.2754 102.141C45.6985 107.396 63.2959 103.812 79.0675 91.3904C104.24 79.2639 129.685 81.3813 155.402 97.7426C193.979 122.285 214.18 156.377 226.03 174.824C237.88 193.27 241.775 208.082 297.855 204.448C353.935 200.813 427.147 174.67 461.292 176.768C495.436 178.866 523.161 204.448 552.51 204.448C572.077 204.448 582.906 204.448 585 204.448" fill="white"/>
<path d="M585 20.5265C545.008 10.2655 512.33 5.13493 486.967 5.13493C461.604 5.13493 405.059 21.3196 317.331 53.6889C312.503 18.563 293.095 1 259.107 1C208.126 1 76.3409 3.78338 55.4101 10.6321C34.4793 17.4808 26.0717 13.9882 13.4375 33.8386C0.803337 53.6889 -2.85939 94.2594 26.2754 102.141C45.6985 107.396 63.2959 103.812 79.0675 91.3904C104.24 79.2639 129.685 81.3813 155.402 97.7426C193.979 122.285 214.18 156.377 226.03 174.824C237.88 193.27 241.775 208.082 297.855 204.448C353.935 200.813 427.147 174.67 461.292 176.768C495.436 178.866 523.161 204.448 552.51 204.448C572.077 204.448 582.906 204.448 585 204.448" stroke="black"/>
</g>
<g id="Path">
<path d="M586 262C514.667 268.014 479 276.282 479 286.805C479 297.329 514.667 311.727 586 330" fill="white"/>
<path d="M586 262C514.667 268.014 479 276.282 479 286.805C479 297.329 514.667 311.727 586 330" stroke="black"/>
</g>
<path id="h6" d="M425.608 181.238C409.304 186.251 400.511 190.449 399.228 193.834C397.304 198.91 392.802 220.522 431.153 231.922C469.504 243.321 483.023 246.723 494.433 238.343C505.843 229.964 501.888 209.25 498.373 201.82C494.857 194.391 484.624 181.964 467.976 178.306C456.877 175.867 442.755 176.844 425.608 181.238Z" fill="white" stroke="black"/>
<g id="Path_2">
<path d="M586 103.168C532.667 102.249 506 105.108 506 111.745C506 121.701 529.392 161 586 161" fill="white"/>
<path d="M586 103.168C532.667 102.249 506 105.108 506 111.745C506 121.701 529.392 161 586 161" stroke="black"/>
</g>
<path id="h4" d="M343.58 108.021C315.302 107.657 298.481 112.061 293.117 121.235C285.071 134.995 287.204 146.247 294.723 150.984C299.736 154.142 319.672 156.48 354.53 158C373.987 158 384.532 155.661 386.167 150.984C388.619 143.968 385.895 135.03 374.847 123.856C367.482 116.407 357.06 111.128 343.58 108.021Z" fill="white" stroke="black"/>
<path id="h3" d="M348.808 249.018C327.735 249.018 314.157 247.435 282.715 259.839C251.273 272.243 225.633 286.833 211.502 271.228C197.371 255.624 152.155 219.482 125.114 219.482C107.087 219.482 84.6174 226.883 57.7067 241.686C37.1846 254.208 22.4931 255.626 13.6321 245.941C0.340676 231.414 -4.22166 198.925 8.60206 177.562C17.1512 163.32 37.6363 148.921 70.0573 134.366C99.8573 127.162 84.6931 129.295 107.026 129.295C129.36 129.295 163.27 165.043 201.84 184.195C234.328 200.327 278.569 205.178 307.049 216.588C341.229 230.282 369.881 249.018 348.808 249.018Z" fill="white" stroke="black"/>
<path id="h2" d="M372.656 42.5036C357.428 46.7589 352 48.0884 352 52.0295C352 54.6568 424.022 54.6568 568.066 52.0295C575.355 52.6549 579 51.0516 579 47.2195C579 43.3873 579 36.5369 579 26.6681C538.246 16.8894 510.329 12 495.248 12C472.627 12 387.884 38.2484 372.656 42.5036Z" fill="white"/>
<path id="h1" d="M61.2952 20.7436C44.8458 23.6451 26.5318 29.897 21.7858 37.7839C17.0399 45.6708 12 55.3566 12 70.7458C12 81.0053 16.7139 89.4058 26.1416 95.9473C43.7465 96.2861 55.4643 94.9926 61.2952 92.067C67.1261 89.1414 77.4722 83.6199 92.3335 75.5027C106.963 60.9417 118.846 53.6612 127.981 53.6612C137.117 53.6612 196.123 53.6612 305 53.6612C295.05 25.673 283.849 11.6789 271.396 11.6789C262.634 11.6789 221.138 7.90135 148.422 11.6789C117.796 13.2699 77.7446 17.842 61.2952 20.7436Z" fill="white"/>
</g>
</svg>
