<?xml version="1.0" encoding="UTF-8"?>
<svg width="214px" height="134px" viewBox="0 0 214 134" version="1.1" xmlns="http://www.w3.org/2000/svg" xmlns:xlink="http://www.w3.org/1999/xlink">
    <!-- Generator: Sketch 58 (84663) - https://sketch.com -->
    <title>Group 3</title>
    <desc>Created with Sketch.</desc>
    <g id="Page-1" stroke="none" stroke-width="1" fill="none" fill-rule="evenodd">
        <g id="Group-3" transform="translate(0.580260, 0.673828)" fill="#FFFFFF">
            <path d="M213.41974,132.497803 C193.11961,130.756266 178.299297,125.673503 167.958803,117.545898 C152.44806,105.354492 134.782045,90.5429687 127.082338,90.5429687 C119.382631,90.5429687 114.421693,89.9663086 102.933412,94.4868164 C91.4451306,99.0073242 82.0764783,104.324707 76.9133924,98.6376953 C71.7503064,92.9506836 55.2293103,79.7788086 45.3489392,79.7788086 C38.7620252,79.7788086 30.552227,82.476237 20.7195447,87.8710937 C13.2211723,92.4345703 7.85317101,92.9514974 4.6155408,89.421875 C-0.240904508,84.1274414 -1.9078967,72.2866211 2.77765018,64.5009766 C5.9013481,59.3105469 13.3862114,54.0629883 25.23224,48.7583008 C36.1205864,46.1329753 41.5647596,43.9689128 41.5647596,42.2661133 C41.5647596,39.7119141 36.5554822,36.9052734 31.5784314,36.9052734 C26.6013806,36.9052734 13.0354627,38.6474609 9.30548221,36.9052734 C5.57550174,35.1630859 -5.0900256,28.0415039 4.6155408,11.9824219 C4.6155408,11.9824219 74.2169405,11.9824219 213.41974,11.9824219" id="Path" stroke="#000000"></path>
            <path d="M213.41974,7.125 C198.809714,3.38085938 186.871888,1.50878906 177.606263,1.50878906 C168.340638,1.50878906 147.683412,7.41438802 115.634584,19.2255859 C113.870586,6.40852865 106.780417,0 94.364076,0 C75.7395642,0 27.5955213,1.015625 19.9490369,3.51464844 C12.3025525,6.01367188 9.23108161,4.73925781 4.6155408,11.9824219 C1.26565425e-14,19.2255859 -1.33807248,34.0292969 9.30548221,36.9052734 C16.4011853,38.8225911 22.8298963,37.514974 28.591615,32.9824219 C37.7875786,28.5576172 47.0831515,29.3302409 56.4783338,35.300293 C70.5711072,44.2553711 77.95099,56.6953125 82.2800916,63.4262695 C86.6091931,70.1572266 88.0320447,75.5620117 108.519349,74.2358398 C129.006654,72.909668 155.752748,63.3701172 168.226381,64.1357422 C180.700013,64.9013672 190.828676,74.2358398 201.550599,74.2358398 C208.698549,74.2358398 212.654929,74.2358398 213.41974,74.2358398" id="Path" stroke="#000000"></path>
            <path d="M213.41974,95.3574219 C187.375469,97.5646159 174.353334,100.599447 174.353334,104.461914 C174.353334,108.324382 187.375469,113.609049 213.41974,120.315918" id="Path" stroke="#000000"></path>
            <path d="M154.976381,65.6142578 C149.027162,67.4521484 145.818503,68.9915365 145.350404,70.2324219 C144.648256,72.09375 143.005678,80.0175781 156.999818,84.1972656 C170.993959,88.3769531 175.927064,89.6240234 180.090638,86.5517578 C184.254213,83.4794922 182.810853,75.8846436 181.528138,73.1606445 C180.245424,70.4366455 176.511106,65.8803711 170.436342,64.5390625 C166.386499,63.6448568 161.233178,64.0032552 154.976381,65.6142578 Z" id="h6" stroke="#000000"></path>
            <path d="M213.41974,37.2186539 C193.976055,36.8853206 184.254213,37.9222992 184.254213,40.3295898 C184.254213,43.9405257 192.782045,58.1933594 213.41974,58.1933594" id="Path" stroke="#000000"></path>
            <path d="M125.060365,39.1572266 C114.777283,39.0250651 108.660451,40.6233724 106.70987,43.9521484 C103.783998,48.9453125 104.559412,53.0283203 107.293775,54.7470703 C109.116684,55.8929036 116.366192,56.7415365 129.042299,57.2929687 C136.117494,57.2929687 139.952292,56.4443359 140.546693,54.7470703 C141.438295,52.2011719 140.44806,48.9580078 136.430482,44.9033203 C133.752097,42.2001953 129.962058,40.2848307 125.060365,39.1572266 Z" id="h4" stroke="#000000"></path>
            <path d="M127.082338,90.5429687 C119.382631,90.5429687 114.421693,89.9663086 102.933412,94.4868164 C91.4451306,99.0073242 82.0764783,104.324707 76.9133924,98.6376953 C71.7503064,92.9506836 55.2293103,79.7788086 45.3489392,79.7788086 C38.7620252,79.7788086 30.552227,82.476237 20.7195447,87.8710937 C13.2211723,92.4345703 7.85317101,92.9514974 4.6155408,89.421875 C-0.240904508,84.1274414 -1.9078967,72.2866211 2.77765018,64.5009766 C5.9013481,59.3105469 13.3862114,54.0629883 25.23224,48.7583008 C36.1205864,46.1329753 30.5798963,46.9101562 38.7400525,46.9101562 C46.9002088,46.9101562 59.2905259,59.9384708 73.3831189,66.918457 C85.2535779,72.7978321 101.418435,74.5656373 111.824525,78.7241211 C124.313403,83.714929 134.782045,90.5429687 127.082338,90.5429687 Z" id="h3" stroke="#000000"></path>
            <path d="M135.651185,14.9628906 C130.10483,16.5076107 128.127748,16.9902344 128.127748,18.4208984 C128.127748,19.3746745 154.36017,19.3746745 206.825013,18.4208984 C209.479961,18.6479492 210.807435,18.065918 210.807435,16.6748047 C210.807435,15.2836914 210.807435,12.796875 210.807435,9.21435547 C195.963685,5.66455078 185.795391,3.88964844 180.302553,3.88964844 C172.063295,3.88964844 141.19754,13.4181705 135.651185,14.9628906 Z" id="h2"></path>
            <path d="M21.91974,7.18164062 C15.9083896,8.23539125 9.21563846,10.5058594 7.48126346,13.3701172 C5.74688846,16.234375 3.90509159,19.7519531 3.90509159,25.3408203 C3.90509159,29.0667318 5.62774784,32.117513 9.07306034,34.4931641 C15.5066541,34.6162109 19.7888806,34.1464844 21.91974,33.0839844 C24.0505994,32.0214844 27.8315239,30.016276 33.2625135,27.0683594 C38.6088676,21.7802734 42.9513155,19.1362305 46.2898572,19.1362305 C49.6283989,19.1362305 71.1918754,19.1362305 110.980287,19.1362305 C107.344219,8.97184245 103.250795,3.88964844 98.7000135,3.88964844 C95.4978738,3.88964844 80.3334796,2.51775929 53.7595838,3.88964844 C42.5674856,4.46744547 27.9310904,6.12789 21.91974,7.18164062 Z" id="h1"></path>
        </g>
    </g>
</svg>