<?xml version="1.0" encoding="UTF-8"?>
<svg width="547px" height="294px" viewBox="0 0 547 294" version="1.1" xmlns="http://www.w3.org/2000/svg" xmlns:xlink="http://www.w3.org/1999/xlink">
    <!-- Generator: Sketch 54.1 (76490) - https://sketchapp.com -->
    <title>ENTREHANG</title>
    <desc>Created with Sketch.</desc>
    <g id="Page-1" stroke="none" stroke-width="1" fill="none" fill-rule="evenodd">
        <g id="ENTREHANG" transform="translate(273.500000, 147.000000) scale(-1, 1) translate(-273.500000, -147.000000) " stroke="#292929">
            <path d="M0,293.18 C0,293.18 161.41,284.18 205.43,282.95 C260.18,281.44 367.56,268.16 404,281.34 C436.74,293.18 468.42,272.73 480.92,243.76 C493.42,214.79 524.09,184.12 503.64,125 C503.64,125 487.8,84.11 510.49,80.13 C532.02,76.36 562.29,54.67 536.16,23.82 C533.434304,20.6170606 529.465015,18.738021 525.26,18.66 L385.49,16 C385.49,16 367.49,16.93 356.49,10 C353.860636,8.35631859 350.810305,7.51209246 347.71,7.57 L196.91,10.87 C187.302327,11.0458078 178.478779,16.2096106 173.62,24.5 C165.1,38.71 152.03,24.5 142.38,10.87 C132.73,-2.76 92.38,-6.74 70.24,27.87 C48.1,62.48 70.06,77.9 0,83" id="Shape" fill="#FFFFFF"></path>
            <path d="M256.54,248 L32.14,248 C20.3250118,247.994479 10.7499987,238.41499 10.75,226.6 L10.75,226.6 C10.75,214.786629 20.3266292,205.21 32.14,205.21 L265.75,205.21 C270.820821,205.209384 275.640224,207.418329 278.94991,211.2601 C282.259596,215.101871 283.731017,220.195102 282.98,225.21 L282.98,225.21 C281.028183,238.307006 269.781645,248.000977 256.54,248 L256.54,248 Z" id="h5"></path>
            <rect id="h3" x="398.33" y="203.05" width="71.42" height="44.96" rx="22.48"></rect>
            <rect id="h1" x="360.76" y="110.84" width="112.35" height="40.79" rx="20.39"></rect>
            <path d="M289,172.58 L40,172.58 C29.8876662,172.58 21.69,164.382334 21.69,154.27 L21.69,154.27 C21.6948927,140.880297 31.1788514,129.367953 44.32,126.8 L96.21,116.61 C135.670651,108.875664 175.788524,104.987455 216,105 L301.4,105 C316.62907,105.0055 328.977938,117.340945 329,132.57 L329,132.57 C329.002653,143.180392 324.78955,153.357118 317.287807,160.860736 C309.786065,168.364354 299.610392,172.58 289,172.58 L289,172.58 Z" id="h2"></path>
            <path d="M301.73,211.26 L301.73,211.26 C306.719519,202.16795 315.877882,196.127248 326.2,195.12 L326.2,195.12 C334.17854,194.338821 342.230725,194.841871 350.05,196.61 L350.53,196.72 C366.956755,200.419735 378.624561,215.01176 378.62,231.85 L378.62,231.85 C378.60897,240.76873 371.378735,247.994491 362.46,248 L314.39,248 C310.00689,248.000001 305.803448,246.258133 302.705059,243.157869 C299.60667,240.057605 297.867347,235.853109 297.87,231.47 L297.87,226.34 C297.871426,221.069137 299.198828,215.883329 301.73,211.26 Z" id="h4"></path>
        </g>
    </g>
</svg>