<svg width="586" height="616" viewBox="0 0 586 616" fill="none" xmlns="http://www.w3.org/2000/svg">
<g id="ENTREGENESIS">
<g id="board">
<path fill-rule="evenodd" clip-rule="evenodd" d="M585 168.206H335.348C319.947 171.151 305.118 156.674 290.86 124.775C269.473 76.9271 268.294 15.0942 209.424 3.1187C170.177 -4.86495 124.613 9.71428 72.7321 46.8564C32.6704 75.8227 11.4049 99.8258 8.93554 118.866C6.46623 137.905 3.82105 160.659 1 187.128C1.12741 211.391 11.2173 225.283 31.2697 228.802C61.3484 234.082 146.451 222.093 146.451 264.29C146.451 306.487 69.8465 310.98 56.3685 336.563C47.3831 353.618 52.8377 369.37 72.7321 383.818C123.143 398.855 156.682 418.959 173.348 444.129C198.347 481.885 189.413 560 339.951 560C490.49 560 560.892 555.141 585 555.141" fill="white"/>
<path d="M585 168.206H335.348C319.947 171.151 305.118 156.674 290.86 124.775C269.473 76.9271 268.294 15.0942 209.424 3.1187C170.177 -4.86495 124.613 9.71428 72.7321 46.8564C32.6704 75.8227 11.4049 99.8258 8.93554 118.866C6.46623 137.905 3.82105 160.659 1 187.128C1.12741 211.391 11.2173 225.283 31.2697 228.802C61.3484 234.082 146.451 222.093 146.451 264.29C146.451 306.487 69.8465 310.98 56.3685 336.563C47.3831 353.618 52.8377 369.37 72.7321 383.818C123.143 398.855 156.682 418.959 173.348 444.129C198.347 481.885 189.413 560 339.951 560C490.49 560 560.892 555.141 585 555.141" stroke="black"/>
</g>
<g id="h5">
<path fill-rule="evenodd" clip-rule="evenodd" d="M585 555C547.499 556.669 454.832 557.657 307 557.964C314.83 562.017 317.45 565.75 314.86 569.161C310.975 574.277 299.703 601.085 326.792 608.956C344.851 614.203 385.375 616.034 448.364 614.448C520.085 610.787 565.63 608.956 585 608.956" fill="white"/>
<path d="M585 555C547.499 556.669 454.832 557.657 307 557.964C314.83 562.017 317.45 565.75 314.86 569.161C310.975 574.277 299.703 601.085 326.792 608.956C344.851 614.203 385.375 616.034 448.364 614.448C520.085 610.787 565.63 608.956 585 608.956" stroke="black"/>
</g>
<g id="h4">
<path fill-rule="evenodd" clip-rule="evenodd" d="M585 288C486.141 300.202 428.625 316.006 412.452 335.411C388.192 364.518 387.509 400.352 412.452 408.784C429.081 414.405 486.597 414.405 585 408.784" fill="white"/>
<path d="M585 288C486.141 300.202 428.625 316.006 412.452 335.411C388.192 364.518 387.509 400.352 412.452 408.784C429.081 414.405 486.597 414.405 585 408.784" stroke="black"/>
</g>
<path id="h3" fill-rule="evenodd" clip-rule="evenodd" d="M73 383.233C123.5 398.293 157.098 418.427 173.794 443.636C190.49 468.845 205.94 483.09 220.146 486.372C239.224 489.327 251.07 481.853 255.685 463.949C262.607 437.094 240.441 381.573 230.293 365.963C220.146 350.352 189.445 315.39 168.147 323.094C146.849 330.799 117.958 335.367 108.504 357.603C102.201 372.427 90.3662 380.97 73 383.233Z" fill="white" stroke="black"/>
<path id="h2" fill-rule="evenodd" clip-rule="evenodd" d="M31.6277 228.265C61.6232 233.559 146.49 221.537 146.49 263.85C143.917 274.687 139.068 284.07 131.944 292C159.981 282.226 174 270.601 174 257.125C174 236.911 166.478 194 146.49 194C126.502 194 1.63232 222.971 31.6277 228.265Z" fill="white" stroke="black"/>
<path id="h1" fill-rule="evenodd" clip-rule="evenodd" d="M26.6266 106.221C15.4562 169.601 13.0923 203.861 19.535 209C19.535 209 190.991 125.61 276 140.069C276 140.069 249.277 63.0998 242.464 53.2887C235.65 43.4776 222.568 5.89312 157.703 17.0486C114.461 24.4856 70.7684 54.2097 26.6266 106.221Z" fill="white"/>
</g>
</svg>
