<svg width="587" height="343" viewBox="0 0 587 343" fill="none" xmlns="http://www.w3.org/2000/svg">
<g id="ENTREHANG2">
<g id="background">
<path d="M586 36.6209C539.142 35.7021 503.415 43.1307 478.82 58.9068C454.225 74.683 429.82 82.571 405.605 82.571H269.371C247.137 81.301 231.92 65.9843 223.719 36.6209C215.519 7.25759 183.393 -3.95198 127.341 2.99224C43.1137 14.2532 1 34.4301 1 63.5229C1 107.162 26.4263 165.221 34.4412 185.124C42.4561 205.026 52.8925 221.15 52.8925 254.255C52.8925 287.36 52.3876 334.43 97.7565 334.43C128.002 334.43 241.12 334.43 437.11 334.43C489.016 339.477 524.894 342 544.746 342C564.598 342 578.349 342 586 342" fill="white"/>
<path d="M586 36.6209C539.142 35.7021 503.415 43.1307 478.82 58.9068C454.225 74.683 429.82 82.571 405.605 82.571H269.371C247.137 81.301 231.92 65.9843 223.719 36.6209C215.519 7.25759 183.393 -3.95198 127.341 2.99224C43.1137 14.2532 1 34.4301 1 63.5229C1 107.162 26.4263 165.221 34.4412 185.124C42.4561 205.026 52.8925 221.15 52.8925 254.255C52.8925 287.36 52.3876 334.43 97.7565 334.43C128.002 334.43 241.12 334.43 437.11 334.43C489.016 339.477 524.894 342 544.746 342C564.598 342 578.349 342 586 342" stroke="black"/>
</g>
<rect id="h5" x="85" y="253" width="92" height="43" rx="8" fill="white" stroke="black"/>
<path id="h1" d="M221.143 45.7535C213.442 17.9295 183.275 7.30762 130.64 13.8878C51.5466 24.5584 12 43.6776 12 71.2451C12 112.596 14.2801 145.899 68.7311 137.77C129.705 124.412 168.779 112.517 185.954 102.085C211.717 86.4375 228.844 73.5775 221.143 45.7535Z" fill="white"/>
<rect id="h3" x="80" y="161" width="97" height="43" rx="8" fill="white" stroke="black"/>
<rect id="h6" x="229" y="256" width="189" height="43" rx="8" fill="white" stroke="black"/>
<g id="h7">
<path fill-rule="evenodd" clip-rule="evenodd" d="M586 296H504.684C492.708 296 483 286.25 483 274.222V268.778C483 256.75 492.708 247 504.684 247H586" fill="white"/>
<path d="M586 296H504.684C492.708 296 483 286.25 483 274.222V268.778C483 256.75 492.708 247 504.684 247H586" stroke="black"/>
</g>
<rect id="h4" x="231" y="161" width="303" height="43" rx="8" fill="white" stroke="black"/>
<path id="h2" d="M586 41.1261C534.343 39.6813 491.918 50.6551 458.725 74.0475C444.694 86.8656 488.875 90 499.584 90C506.723 90 535.528 90 586 90V41.1261Z" fill="white"/>
</g>
</svg>
