<?xml version="1.0" encoding="UTF-8"?>
<svg width="634px" height="551px" viewBox="0 0 634 551" version="1.1" xmlns="http://www.w3.org/2000/svg" xmlns:xlink="http://www.w3.org/1999/xlink">
    <title>ERZIMEDIUM</title>
    <g id="Page-1" stroke="none" stroke-width="1" fill="none" fill-rule="evenodd">
        <g id="ERZIMEDIUM" transform="translate(1.792770, 1.745960)" fill="#FFFFFF" stroke="#000000">
            <path d="M617.20723,466.25404 L249.20723,474.25404 C192.298754,468.920706 146.800598,484.655181 112.71276,521.457463 C78.6249222,558.259746 42.6478457,535.329496 4.78153045,452.666714 C16.5336915,400.56858 17.7463398,359.269361 8.41947517,328.769055 C-0.907389416,298.268749 31.9926565,279.387579 107.119613,272.125544 L631.20723,263.785715" id="board-back"></path>
            <path d="M631.20723,42.2540398 C429.432825,50.1894607 321.199963,55.4540064 306.508645,58.047677 C291.817327,60.6413477 276.215642,55.3768019 259.70359,42.2540398 C245.829481,14.0846799 215.007044,0 167.23628,0 C119.465515,0 89.6272348,31.1111346 77.721438,93.3334039 C66.4205993,164.239932 51.1518823,207.104657 31.9152868,221.927576 C12.6786913,236.750496 2.04026238,259.071036 0,288.889195 C4.52281137,340.189846 23.538838,365.840172 57.0480798,365.840172 C107.311942,365.840172 114.490634,351.888656 150.272744,368.772557 C186.054854,385.656458 211.800588,414.357542 214.3241,429.712425 C216.847612,445.067308 220.179942,495.876554 285.825022,490.995513 C351.470101,486.114472 529.310399,490.995513 631.20723,490.995513" id="board"></path>
            <circle id="h12" cx="421.20723" cy="415.25404" r="29"></circle>
            <circle id="h13" cx="519.20723" cy="415.25404" r="29"></circle>
            <path d="M631.20723,393.039995 L630.850595,393.039995 C625.809631,388.80488 619.306321,386.25404 612.20723,386.25404 C596.190972,386.25404 583.20723,399.237782 583.20723,415.25404 C583.20723,431.270298 596.190972,444.25404 612.20723,444.25404 C619.333148,444.25404 625.858774,441.683884 630.907681,437.42 L631.20723,437.42" id="h14"></path>
            <path d="M323.20723,386.25404 C339.223487,386.25404 352.20723,399.237782 352.20723,415.25404 C352.20723,431.270298 339.223487,444.25404 323.20723,444.25404 C316.175396,444.25404 309.728108,441.751304 304.707534,437.588002 C299.687203,441.750974 293.239527,444.25404 286.20723,444.25404 C270.190972,444.25404 257.20723,431.270298 257.20723,415.25404 C257.20723,399.237782 270.190972,386.25404 286.20723,386.25404 C293.239527,386.25404 299.687203,388.757106 304.70792,392.920902 C309.728108,388.756775 316.175396,386.25404 323.20723,386.25404 Z" id="h11"></path>
            <circle id="h10" cx="74.2072297" cy="474.25404" r="74"></circle>
            <path d="M631.20723,353.25404 L274.20723,353.25404 C260.400111,353.25404 249.20723,342.061159 249.20723,328.25404 L249.20723,313.25404 C249.20723,299.446921 260.400111,288.25404 274.20723,288.25404 L631.20723,288.25404" id="h7"></path>
            <path d="M631.20723,353.25404 L417.20723,353.25404 C403.400111,353.25404 392.20723,342.061159 392.20723,328.25404 L392.20723,313.25404 C392.20723,299.446921 403.400111,288.25404 417.20723,288.25404 L631.20723,288.25404" id="h8"></path>
            <path d="M631.20723,353.25404 L554.20723,353.25404 C540.400111,353.25404 529.20723,342.061159 529.20723,328.25404 L529.20723,313.25404 C529.20723,299.446921 540.400111,288.25404 554.20723,288.25404 L631.20723,288.25404" id="h9"></path>
            <circle id="h6" cx="179.70723" cy="313.75404" r="33.5"></circle>
            <rect id="h5" x="463.20723" y="186.25404" width="161" height="65" rx="25"></rect>
            <rect id="h4" x="274.20723" y="186.25404" width="161" height="65" rx="25"></rect>
            <rect id="h3" x="77.2072297" y="186.25404" width="161" height="65" rx="25"></rect>
            <path d="M631.20723,149.25404 L285.70723,149.25404 C272.728538,149.25404 262.20723,138.732731 262.20723,125.75404 C262.20723,112.775348 272.728538,102.25404 285.70723,102.25404 L631.20723,102.25404" id="h2"></path>
            <circle id="h1" cx="177.20723" cy="102.25404" r="34"></circle>
        </g>
    </g>
</svg>