<?xml version="1.0" encoding="UTF-8"?>
<svg width="646px" height="311px" viewBox="0 0 646 311" version="1.1" xmlns="http://www.w3.org/2000/svg" xmlns:xlink="http://www.w3.org/1999/xlink">
    <!-- Generator: Sketch 64 (93537) - https://sketch.com -->
    <title>ESCAPEULTIMED</title>
    <desc>Created with Sketch.</desc>
    <g id="Page-1" stroke="none" stroke-width="1" fill="none" fill-rule="evenodd">
        <g id="ESCAPEULTIMED" transform="translate(1.425352, 1.003410)" fill="#FFFFFF" stroke="#000000">
            <path d="M644.574648,-4.40536496e-13 L48.5947817,-4.40536496e-13 C40.7967001,0.0761523619 35.779674,3.86097019 33.5437036,11.3544535 C31.3077331,18.8479368 20.6079526,58.0857995 1.44436196,129.068042 C-2.46531312,138.7073 1.56219774,143.526929 13.5268946,143.526929 C25.4915914,143.526929 235.840842,143.526929 644.574648,143.526929" id="Path-2"></path>
            <path d="M644.574648,232.379752 L29.3064262,232.379752 C21.0660427,232.691779 16.9458509,229.041095 16.9458509,221.4277 C16.9458509,213.814304 16.4053335,187.847381 15.3242986,143.526929 L644.574648,143.526929" id="Path-3"></path>
            <path d="M644.574648,309.354304 L41.4737722,309.354304 C36.9425473,309.711905 34.6769349,307.593742 34.6769349,302.999816 C34.6769349,298.405889 33.7907594,274.87201 32.0184085,232.398179 L644.574648,232.398179" id="Path-4"></path>
            <path d="M81.5746479,248.99659 L608.574648,248.99659 C620.724912,248.99659 630.574648,258.846325 630.574648,270.99659 C630.574648,283.146854 620.724912,292.99659 608.574648,292.99659 L81.5746479,292.99659 C69.4243834,292.99659 59.5746479,283.146854 59.5746479,270.99659 C59.5746479,258.846325 69.4243834,248.99659 81.5746479,248.99659 Z" id="h3"></path>
            <path d="M74.9182108,159.99659 L604.231085,159.99659 C610.71421,159.99659 615.060225,161.064084 618.808373,163.068616 C622.556522,165.073147 625.49809,168.014716 627.502622,171.762864 C629.507153,175.511012 630.574648,179.857027 630.574648,186.340152 L630.574648,189.653027 C630.574648,196.136152 629.507153,200.482167 627.502622,204.230315 C625.49809,207.978463 622.556522,210.920032 618.808373,212.924563 C615.060225,214.929095 610.71421,215.99659 604.231085,215.99659 L74.9182108,215.99659 C68.4350855,215.99659 64.0890704,214.929095 60.3409223,212.924563 C56.5927741,210.920032 53.6512055,207.978463 51.6466739,204.230315 C49.6421424,200.482167 48.5746479,196.136152 48.5746479,189.653027 L48.5746479,186.340152 C48.5746479,179.857027 49.6421424,175.511012 51.6466739,171.762864 C53.6512055,168.014716 56.5927741,165.073147 60.3409223,163.068616 C64.0890704,161.064084 68.4350855,159.99659 74.9182108,159.99659 Z" id="h2"></path>
            <path d="M74.2709775,51.9965896 L602.878318,51.9965896 C610.984764,51.9965896 615.060225,53.0640841 618.808373,55.0686157 C622.556522,57.0731472 625.49809,60.0147158 627.502622,63.762864 C629.507153,67.5110121 630.574648,71.5864739 630.574648,79.6929193 L630.574648,87.3002599 C630.574648,95.4067053 629.507153,99.482167 627.502622,103.230315 C625.49809,106.978463 622.556522,109.920032 618.808373,111.924563 C615.060225,113.929095 610.984764,114.99659 602.878318,114.99659 L74.2709775,114.99659 C66.1645322,114.99659 62.0890704,113.929095 58.3409223,111.924563 C54.5927741,109.920032 51.6512055,106.978463 49.6466739,103.230315 C47.6421424,99.482167 46.5746479,95.4067053 46.5746479,87.3002599 L46.5746479,79.6929193 C46.5746479,71.5864739 47.6421424,67.5110121 49.6466739,63.762864 C51.6512055,60.0147158 54.5927741,57.0731472 58.3409223,55.0686157 C62.0890704,53.0640841 66.1645322,51.9965896 74.2709775,51.9965896 Z" id="h1"></path>
        </g>
    </g>
</svg>