<?xml version="1.0" encoding="UTF-8"?>
<svg width="596px" height="309px" viewBox="0 0 596 309" version="1.1" xmlns="http://www.w3.org/2000/svg" xmlns:xlink="http://www.w3.org/1999/xlink">
    <title>EUROHOLDSASYM</title>
    <g id="Page-1" stroke="none" stroke-width="1" fill="none" fill-rule="evenodd">
        <g id="EUROHOLDSASYM" transform="translate(0.622431, 0.698273)" fill="#FFFFFF" stroke="#979797">
            <path d="M594.377569,84.0573781 L9.37210196,85.2992 L9.37210196,151.749332 C9.23286441,158.307801 14.6900787,161.587036 25.7464434,161.587036 C36.802808,161.587036 226.346517,161.587036 594.377569,161.587036" id="board"></path>
            <path d="M594.377569,161.587036 L21.6155646,161.587036 L21.6155646,217.822891 C21.3257996,227.926043 27.4325442,232.977619 39.9357983,232.977619 C52.4390523,232.977619 205.997679,232.977619 500.611679,232.977619 C539.763286,232.977619 559.972617,254.507898 561.23967,297.568457 C561.23967,303.215119 563.398292,307.245567 572.368775,307.245567 C578.349097,307.245567 585.685361,307.245567 594.377569,307.245567" id="board"></path>
            <path d="M37.8717267,232.980503 L37.8717267,290.801073 C38.1032747,298.445649 42.690648,302.267937 51.6338468,302.267937 C60.5770455,302.267937 230.655343,302.267937 561.868739,302.267937 C561.868739,255.559406 540.366114,232.463595 497.360862,232.980503 C454.355611,233.497411 301.192566,233.497411 37.8717267,232.980503 Z" id="board"></path>
            <path d="M594.377569,0.0561583442 L459.634718,0.0561583442 C443.841275,-0.596463331 435.944553,4.4390508 435.944553,15.1627007 C435.944553,25.8863507 435.944553,48.8512431 435.944553,84.0573781 L594.377569,84.0573781" id="board"></path>
            <rect id="h9" x="58.3775692" y="238.301727" width="434" height="43" rx="21.5"></rect>
            <rect id="h9" x="281.377569" y="238.301727" width="211" height="43" rx="21.5"></rect>
            <path d="M594.429567,209.301727 L594.429567,209.301727 L569.877569,209.301727 C558.003447,209.301727 548.377569,199.675849 548.377569,187.801727 C548.377569,175.927605 558.003447,166.301727 569.877569,166.301727 L594.518418,166.301727 L594.518418,166.301727" id="h8"></path>
            <rect id="h6" x="32.3775692" y="166.301727" width="454" height="43" rx="21.5"></rect>
            <rect id="h7" x="265.377569" y="166.301727" width="221" height="43" rx="21.5"></rect>
            <path d="M594.429567,132.301727 L594.429567,132.301727 L569.877569,132.301727 C558.003447,132.301727 548.377569,122.675849 548.377569,110.801727 C548.377569,98.9276051 558.003447,89.3017272 569.877569,89.3017272 L594.518418,89.3017272 L594.518418,89.3017272" id="h5"></path>
            <rect id="h3" x="32.3775692" y="89.3017272" width="454" height="43" rx="21.5"></rect>
            <rect id="h4" x="265.377569" y="89.3017272" width="221" height="43" rx="21.5"></rect>
            <polygon id="h2" points="435.944553 84.0573781 435.944553 12.7527926 252.135253 12.7527926 172.236967 85.2992"></polygon>
            <path d="M252.135253,12.7527926 L76.2983968,12.7527926 C66.5426743,12.2956706 57.9817952,16.3597494 50.6157595,24.9450292 C43.2497239,33.530309 28.875331,48.5998464 7.49258101,70.1536415 C-2.497527,80.2506805 -2.497527,85.2992 7.49258101,85.2992 C17.482689,85.2992 72.3974843,85.2992 172.236967,85.2992 L252.135253,12.7527926 Z" id="h1"></path>
        </g>
    </g>
</svg>