<svg width="581" height="120" viewBox="0 0 581 120" fill="none" xmlns="http://www.w3.org/2000/svg">
<g id="EUROHOLDSMARTIE">
<g id="board">
<path fill-rule="evenodd" clip-rule="evenodd" d="M581 119H5C2.79086 119 1 117.209 1 115V24.0002C1 21.7911 2.79086 20.0002 5 20.0002H581" fill="white"/>
<path d="M581 119H5C2.79086 119 1 117.209 1 115V24.0002C1 21.7911 2.79086 20.0002 5 20.0002H581" stroke="black"/>
</g>
<g id="h1">
<path fill-rule="evenodd" clip-rule="evenodd" d="M581 20.0002L2.5 20.5L13.5 1.99992C15.5 0.5 16.299 0.5 18.5082 0.5H581" fill="white"/>
<path d="M581 20.0002L2.5 20.5L13.5 1.99992C15.5 0.5 16.299 0.5 18.5082 0.5H581" stroke="black"/>
</g>
<rect id="h2" x="65.5" y="44.5002" width="191" height="46" rx="23" fill="white" stroke="black"/>
<rect id="h3" x="320.5" y="44.5002" width="191" height="46" rx="23" fill="white" stroke="black"/>
</g>
</svg>
