<svg width="581" height="110" viewBox="0 0 581 110" fill="none" xmlns="http://www.w3.org/2000/svg">
<g id="EUROHOLDSMARTIE">
<g id="board">
<path fill-rule="evenodd" clip-rule="evenodd" d="M581 109H5C2.79086 109 1 107.209 1 105V14C1 11.7909 2.79086 10 5 10H581" fill="white"/>
<path d="M581 109H5C2.79086 109 1 107.209 1 105V14C1 11.7909 2.79086 10 5 10H581" stroke="black"/>
</g>
<g id="h1">
<path fill-rule="evenodd" clip-rule="evenodd" d="M581 10H3.57693L9.73995 4.85559C14.8727 1 16.299 1 18.5082 1L581 1" fill="white"/>
<path d="M581 10H3.57693L9.73995 4.85559C14.8727 1 16.299 1 18.5082 1L581 1" stroke="black"/>
</g>
<rect id="h2" x="65.5" y="34.5" width="191" height="46" rx="23" fill="white" stroke="black"/>
<rect id="h3" x="320.5" y="34.5" width="191" height="46" rx="23" fill="white" stroke="black"/>
</g>
</svg>
