<?xml version="1.0" encoding="UTF-8"?>
<svg width="334px" height="124px" viewBox="0 0 334 124" version="1.1" xmlns="http://www.w3.org/2000/svg" xmlns:xlink="http://www.w3.org/1999/xlink">
    <!-- Generator: Sketch 64 (93537) - https://sketch.com -->
    <title>FINGERSCHINDERCLASSIC</title>
    <desc>Created with Sketch.</desc>
    <g id="Page-1" stroke="none" stroke-width="1" fill="none" fill-rule="evenodd">
        <g id="FINGERSCHINDERCLASSIC" transform="translate(1.000000, 1.000000)" stroke="#000000">
            <path d="M333,122 L30,122 C13.4314575,122 2.84217094e-14,108.568542 2.84217094e-14,92 L2.84217094e-14,84.953125 L333,85" id="h5" fill="#FFFFFF"></path>
            <path d="M333,85 L3,85 C1.34314575,85 2.84217094e-14,83.6568542 2.84217094e-14,82 L2.84217094e-14,50 C2.84217094e-14,48.3431458 1.34314575,47 3,47 L333,47" id="h4" fill="#DDDDDD"></path>
            <path d="M333,85 L60.4774775,85 C59.1092044,85 58,83.6568542 58,82 L58,50 C58,48.3431458 59.1092044,47 60.4774775,47 L333,47" id="h3" fill="#EEEEEE"></path>
            <path d="M333,85 L115.972973,85 C114.88333,85 114,83.6568542 114,82 L114,50 C114,48.3431458 114.88333,47 115.972973,47 L333,47" id="h2" fill="#FFFFFF"></path>
            <path d="M333,46.749276 L0,46.749276 L0,28.7028545 C0,12.8507057 13.4314575,0 30,0 L333,0" id="h1" fill="#FFFFFF"></path>
        </g>
    </g>
</svg>