<?xml version="1.0" encoding="UTF-8"?>
<svg width="1325px" height="1642px" viewBox="0 0 1325 1642" version="1.1" xmlns="http://www.w3.org/2000/svg" xmlns:xlink="http://www.w3.org/1999/xlink">
    <title>FIXEINDOOR3</title>
    <g id="Page-1" stroke="none" stroke-width="1" fill="none" fill-rule="evenodd">
        <g id="FIXEINDOOR3" transform="translate(0.736388, 1.315570)" fill="#FFFFFF" stroke="#000000">
            <path d="M1323.26361,175.066289 L26.5280591,171.312129 C8.84268638,214.922517 0,254.754517 0,290.80813 C0,326.861742 29.9101381,421.49758 89.7304143,574.715644 C99.0538743,605.349247 100.522564,634.401018 94.1364835,661.870955 C84.5573628,703.075861 84.4888239,832.075775 94.1364835,894.658276 C103.784143,957.240777 131.42162,1014.06928 169.039659,1051.78197 C206.657699,1089.49465 206.262416,1072.23065 217.763014,1135.56237 C229.263612,1198.89408 327.090691,1444.39079 385.86394,1489.95657 C444.637189,1535.52235 428.695052,1516.82105 468.832681,1524.13299 C508.97031,1531.44493 489.020035,1551.88715 538.887819,1555.2359 C588.755602,1558.58466 1190.95268,1639.9758 1323.26361,1639.9758" id="board"></path>
            <ellipse id="h17" cx="1133.76361" cy="1396.68443" rx="117" ry="60.5"></ellipse>
            <path d="M910.245132,1188.18443 L910.245132,1532.87872 L850.765952,1532.87872 L850.765952,1360.53158 C849.753334,1337.10452 834.252555,1325.39099 804.263612,1325.39099 C774.27467,1325.39099 674.182178,1325.39099 503.986137,1325.39099 C484.087467,1325.39099 474.138133,1320.78495 474.138133,1311.57287 C474.138133,1302.36079 474.138133,1293.24924 474.138133,1284.23822 C472.802583,1272.9774 482.751918,1267.34699 503.986137,1267.34699 C525.220355,1267.34699 625.312847,1267.34699 804.263612,1267.34699 C835.265172,1267.41081 850.765952,1257.70311 850.765952,1238.22389 C850.765952,1218.74466 850.765952,1202.06484 850.765952,1188.18443 L910.245132,1188.18443 Z" id="h16"></path>
            <rect id="h15" x="989.763612" y="1131.18443" width="155" height="114" rx="41"></rect>
            <rect id="h14" x="433.763612" y="1103.18443" width="370" height="84" rx="8"></rect>
            <path d="M1323.26361,927.68443 C1231.03206,927.68443 1156.26361,954.99506 1156.26361,988.68443 C1156.26361,1022.3738 1231.03206,1049.68443 1323.26361,1049.68443" id="h13"></path>
            <rect id="h11" x="605.763612" y="928.18443" width="397" height="84" rx="8"></rect>
            <path d="M1323.26361,905.68443 L1117.53414,905.68443 C1112.96646,905.68443 1109.26361,902.527658 1109.26361,898.633582 L1109.26361,808.735277 C1109.26361,804.841202 1112.96646,801.68443 1117.53414,801.68443 L1323.26361,801.68443" id="h10"></path>
            <rect id="h9" x="605.763612" y="794.18443" width="397" height="84" rx="8"></rect>
            <path d="M88.1656918,822.68443 C88.1656918,822.68443 200.531665,822.68443 425.263612,822.68443 C429.68189,822.68443 433.263612,826.266152 433.263612,830.68443 L433.263612,937.68443 C433.263612,942.102708 429.68189,945.68443 425.263612,945.68443 L107.263612,945.68443 C97.1960082,921.711447 90.8300347,880.711447 88.1656918,822.68443 Z" id="h8"></path>
            <path d="M1323.26361,734.68443 L1117.53414,734.68443 C1112.96646,734.68443 1109.26361,731.102708 1109.26361,726.68443 L1109.26361,624.68443 C1109.26361,620.266152 1112.96646,616.68443 1117.53414,616.68443 L1323.26361,616.68443" id="h7"></path>
            <ellipse id="h6" cx="785.263612" cy="642.68443" rx="166.5" ry="60.5"></ellipse>
            <rect id="h5" x="250.763612" y="630.18443" width="155" height="114" rx="41"></rect>
            <path d="M1323.26361,354.825523 L967.108194,354.825523 C914.89357,355.604465 888.786259,334.362345 888.786259,291.099165 C888.786259,247.835985 888.786259,209.15836 888.786259,175.066289 L1323.26361,175.066289" id="h4"></path>
            <path d="M1323.26361,0 L973.362727,0 C951.451905,0 923.259749,5.68010177 888.786259,17.0403053 C888.786259,52.7753817 888.786259,105.45071 888.786259,175.066289 L1323.26361,175.066289" id="h3"></path>
            <path d="M888.786259,175.066289 L397.263612,172.265114 L397.263612,21.8127729 C423.269018,29.6198664 444.400183,38.3043627 460.657108,47.8662617 C485.042495,62.2091101 510.88111,75.3531871 550.132394,75.3531871 C589.383678,75.3531871 714.795817,77.8608064 753.024468,75.3531871 C791.253118,72.8455678 793.307262,67.4258899 815.080683,57.9738278 C838.929506,47.6208124 833.04996,34.0806106 888.786259,17.0403053 C888.786259,34.6124574 888.786259,87.2877855 888.786259,175.066289 Z" id="h2"></path>
            <path d="M397.263612,172.265114 L26.5280591,171.312129 C76.6179905,82.5994578 133.285286,34.0204064 196.529945,25.5749749 C259.774605,17.1295435 326.685827,15.8754761 397.263612,21.8127729 L397.263612,172.265114 Z" id="h1"></path>
        </g>
    </g>
</svg>