<?xml version="1.0" encoding="UTF-8"?>
<svg width="1322px" height="433px" viewBox="0 0 1322 433" version="1.1" xmlns="http://www.w3.org/2000/svg" xmlns:xlink="http://www.w3.org/1999/xlink">
    <title>FIXESTONE</title>
    <g id="Page-1" stroke="none" stroke-width="1" fill="none" fill-rule="evenodd">
        <g id="FIXESTONE" transform="translate(0.997686, 1.373864)" fill="#FFFFFF" stroke="#000000">
            <path d="M1321.00231,430.872227 C1254.20438,430.872227 1153.05516,394.203067 1118.57991,380.785584 C1095.5964,371.840595 1068.46262,366.12078 1037.17856,363.626136 L63.0023145,363.626136 C28.2083752,363.626136 0.00231445231,335.420076 0.00231445231,300.626136 L0.00231445231,108.626136 C0.00231445231,73.8321972 28.2083752,45.6261365 63.0023145,45.6261365 L1321.00231,45.6261365" id="board"></path>
            <path d="M1321.00231,166.626136 C1242.0256,166.626136 1178.00231,193.936767 1178.00231,227.626136 C1178.00231,261.315506 1242.0256,288.626136 1321.00231,288.626136" id="h7"></path>
            <circle id="h3" cx="287.002314" cy="178.626136" r="59.5"></circle>
            <rect id="h2" x="51.5023145" y="119.126136" width="132" height="119" rx="18"></rect>
            <rect id="h4" x="408.502314" y="119.126136" width="252" height="119" rx="18"></rect>
            <rect id="h5" x="725.502314" y="119.126136" width="132" height="119" rx="18"></rect>
            <rect id="h6" x="922.502314" y="119.126136" width="194" height="119" rx="18"></rect>
            <path d="M1321.00231,0 C553.56629,0 142.351869,0 87.3590511,0 C32.3662332,0 3.24654947,36.2087122 0,108.626136 C0,73.8321972 28.2083752,45.6261365 63.0023145,45.6261365 L1321.00231,45.6261365" id="h1"></path>
        </g>
    </g>
</svg>