<?xml version="1.0" encoding="UTF-8"?>
<svg width="666px" height="349px" viewBox="0 0 666 349" version="1.1" xmlns="http://www.w3.org/2000/svg" xmlns:xlink="http://www.w3.org/1999/xlink">
    <title>FREEROCKJUMBO</title>
    <g id="Page-1" stroke="none" stroke-width="1" fill="none" fill-rule="evenodd">
        <g id="FREEROCKJUMBO" transform="translate(1.000000, 1.000000)" fill="#FFFFFF">
            <path d="M665,347 L33.441092,347 C14.9720869,347 0,331.329966 0,312 L0,35 C0,15.6700338 14.9720869,0 33.441092,0 L665,0" id="board" stroke="#000000"></path>
            <path d="M665,234 L33.441092,234 C14.9720869,234 0,218.329966 0,199 L0,35 C0,15.6700338 14.9720869,0 33.441092,0 L665,0" id="board" stroke="#000000"></path>
            <rect id="h6" stroke="#000000" x="27.5" y="155.5" width="182" height="46" rx="23"></rect>
            <rect id="h11" stroke="#000000" x="27.5" y="268.5" width="182" height="46" rx="23"></rect>
            <rect id="h8" stroke="#000000" x="433.5" y="155.5" width="91" height="46" rx="23"></rect>
            <rect id="h9" stroke="#000000" x="478.5" y="155.5" width="46" height="46" rx="23"></rect>
            <rect id="h7" stroke="#000000" x="236.5" y="155.5" width="170" height="46" rx="23"></rect>
            <path d="M665,202 L574.5,202 C561.521308,202 551,191.478692 551,178.5 C551,165.521308 561.521308,155 574.5,155 L665,155" id="Path" stroke="#000000"></path>
            <path d="M665,315 L574.5,315 C561.521308,315 551,304.478692 551,291.5 C551,278.521308 561.521308,268 574.5,268 L665,268" id="Path" stroke="#000000"></path>
            <rect id="h13" stroke="#000000" x="309.5" y="268.5" width="97" height="46" rx="23"></rect>
            <rect id="h14" stroke="#000000" x="433.5" y="268.5" width="91" height="46" rx="23"></rect>
            <rect id="h12" stroke="#000000" x="236.5" y="268.5" width="46" height="46" rx="23"></rect>
            <rect id="h5" stroke="#000000" x="486.5" y="77.5" width="170" height="46" rx="23"></rect>
            <rect id="h4" stroke="#000000" x="27.5" y="77.5" width="182" height="46" rx="23"></rect>
            <polyline id="h3" stroke="#000000" points="665 44 459 44 459 0 665 0"></polyline>
            <rect id="h2" stroke="#000000" x="230.5" y="0.5" width="228" height="81"></rect>
            <path d="M1,35 C1,16.2223185 15.9069908,1 34.2956959,1 L230,1 L230,35 L1,35 Z" id="h1"></path>
        </g>
    </g>
</svg>