<?xml version="1.0" encoding="UTF-8"?>
<svg width="676px" height="424px" viewBox="0 0 676 424" version="1.1" xmlns="http://www.w3.org/2000/svg" xmlns:xlink="http://www.w3.org/1999/xlink">
    <title>FRICTITIOUSHANG</title>
    <g id="Page-1" stroke="none" stroke-width="1" fill="none" fill-rule="evenodd">
        <g id="FRICTITIOUSHANG" transform="translate(1.063155, 1.145959)" fill="#FFFFFF">
            <path d="M673.936845,0 L14.8431811,0 C11.6195509,-0.0209192631 9.65077212,2.86507953 8.93684487,8.65799638 C8.22291761,14.4509132 7.31426946,24.5162614 6.2109004,38.8540408 L2.71868626,153.120775 L673.936845,153.120775" id="board" stroke="#000000"></path>
            <polyline id="board" stroke="#000000" points="673.936845 153.120775 2.71868626 153.120775 15.3430465 198.247096 673.936845 198.247096"></polyline>
            <polyline id="board" stroke="#000000" points="673.936845 198.247096 15.3430465 198.247096 15.3430465 241.446083 673.936845 241.446083"></polyline>
            <polyline id="board" stroke="#000000" points="673.936845 286.65437 1.50016141 286.65437 12.1527104 323.900367 673.936845 323.900367"></polyline>
            <polyline id="board" stroke="#000000" points="673.936845 323.900367 12.1527104 323.900367 12.1527104 359.672782 673.936845 359.672782"></polyline>
            <path d="M673.936845,134.854041 L588.436845,134.854041 C572.144445,134.854041 558.936845,121.646441 558.936845,105.354041 C558.936845,89.0616407 572.144445,75.8540408 588.436845,75.8540408 L673.936845,75.8540408" id="h4" stroke="#000000"></path>
            <path d="M673.936845,241.446083 L4.92304108,241.446083 C2.6411213,243.534194 1.50016141,246.64468 1.50016141,250.777544 C1.50016141,254.910407 1.50016141,266.869349 1.50016141,286.65437 L673.936845,286.65437" id="h5" stroke="#000000"></path>
            <path d="M673.936845,359.672782 L3.45315191,359.672782 C0.627216641,370.161482 -0.464235825,382.352484 0.178794516,396.245788 C0.821824858,410.139092 7.4649216,418.648099 20.1080847,421.77281 L673.936845,421.77281" id="h6" stroke="#000000"></path>
            <rect id="h2" stroke="#000000" x="51.4368449" y="39.3540408" width="415" height="81" rx="28"></rect>
            <rect id="h3" stroke="#000000" x="266.436845" y="39.3540408" width="200" height="81" rx="28"></rect>
            <path d="M673.936845,0.853928778 L15.5597407,0.853928778 C12.3396151,0.833395064 10.3729768,3.65593696 9.65982572,9.32155446 C8.94667464,14.987172 8.03901436,24.8313341 6.93684487,38.8540408 L673.936845,38.8540408" id="h1"></path>
        </g>
    </g>
</svg>