<?xml version="1.0" encoding="UTF-8"?>
<svg width="1331px" height="477px" viewBox="0 0 1331 477" version="1.1" xmlns="http://www.w3.org/2000/svg" xmlns:xlink="http://www.w3.org/1999/xlink">
    <title>FRICTITIOUSEZ</title>
    <g id="Page-1" stroke="none" stroke-width="1" fill="none" fill-rule="evenodd">
        <g id="FRICTITIOUSEZ" transform="translate(1.000000, 1.000000)" fill="#FFFFFF" stroke="#000000">
            <path d="M1330,475 L237.5,475 C106.332372,475 0,368.667628 0,237.5 C0,106.332372 106.332372,0 237.5,0 L1330,0" id="board"></path>
            <rect id="h3" x="74.5" y="122.5" width="610" height="208" rx="104"></rect>
            <path d="M630.204927,232.5 C639.633185,232.5 648.168871,236.321557 654.347492,242.500178 C660.526114,248.678799 664.34767,257.214485 664.34767,266.642743 C664.34767,271.707995 663.220655,276.709789 661.048317,281.285565 C653.913352,296.314534 642.770822,308.618143 629.252875,317.164509 C615.734928,325.710876 599.841563,330.5 583.204927,330.5 L167.387733,330.5 C151.357101,330.5 136.128746,325.634808 123.406708,317.053798 C110.684671,308.472788 100.468951,296.175961 94.4635896,281.312691 C90.7901549,272.22094 91.1496441,262.500951 94.7004298,254.13554 C98.2512154,245.77013 104.993298,238.759299 114.085049,235.085864 C118.312163,233.377939 122.828621,232.5 127.387733,232.5 Z" id="h2"></path>
            <path d="M665,0 C665,28.1665222 650.673112,51 633,51 L256,51 C238.326888,51 224,28.1665222 224,0" id="h1"></path>
        </g>
    </g>
</svg>