<?xml version="1.0" encoding="UTF-8"?>
<svg width="1318px" height="804px" viewBox="0 0 1318 804" version="1.1" xmlns="http://www.w3.org/2000/svg" xmlns:xlink="http://www.w3.org/1999/xlink">
    <title>GARMORIGLOS</title>
    <g id="Page-1" stroke="none" stroke-width="1" fill="none" fill-rule="evenodd">
        <g id="GARMORIGLOS" transform="translate(0.996911, 0.849453)" fill="#FFFFFF" stroke="#000000">
            <path d="M1316.00309,802.150547 L30.0030887,802.150547 C13.4345462,802.150547 0.00308871487,788.71909 0.00308871487,772.150547 L0.00308871487,61.1505471 C0.00308871487,44.5820046 13.4345462,31.1505471 30.0030887,31.1505471 L1316.00309,31.1505471" id="board"></path>
            <path d="M1316.00309,721.150547 L1141.50309,721.150547 C1120.24013,721.150547 1103.00309,703.91351 1103.00309,682.650547 C1103.00309,661.387584 1120.24013,644.150547 1141.50309,644.150547 L1316.00309,644.150547" id="h22"></path>
            <circle id="h21" cx="1002.50309" cy="682.650547" r="47"></circle>
            <circle id="h20" cx="853.503089" cy="674.650547" r="57"></circle>
            <rect id="h19" x="580.503089" y="644.650547" width="171" height="76" rx="38"></rect>
            <circle id="h18" cx="488.503089" cy="691.650547" r="47"></circle>
            <rect id="h17" x="225.503089" y="644.650547" width="171" height="76" rx="38"></rect>
            <circle id="h16" cx="115.503089" cy="673.650547" r="57"></circle>
            <rect id="h15" x="922.503089" y="510.650547" width="374" height="76" rx="38"></rect>
            <polyline id="h14" points="1316.00309 454.747656 922.003089 454.747656 922.003089 382.286011 1316.00309 379.747656"></polyline>
            <path d="M617.817635,510.150547 C617.817635,511.769049 617.817635,536.321074 617.817635,583.806622 L922.003089,454.747656 L922.003089,382.286011 C719.212786,467.529035 617.817635,510.150547 617.817635,510.150547 Z" id="h13"></path>
            <path d="M617.817635,583.806622 L199.503089,587.150547 C178.240126,587.150547 161.003089,569.91351 161.003089,548.650547 C161.003089,527.387584 178.240126,510.150547 199.503089,510.150547 L617.817635,510.150547 L617.817635,583.806622 Z" id="h12"></path>
            <rect id="h11" x="225.503089" y="376.650547" width="374" height="76" rx="38"></rect>
            <circle id="h10" cx="115.503089" cy="414.650547" r="57"></circle>
            <rect id="h9" x="993.503089" y="242.650547" width="219" height="76" rx="38"></rect>
            <circle id="h8" cx="886.503089" cy="280.650547" r="57"></circle>
            <rect id="h7" x="412.503089" y="242.650547" width="374" height="76" rx="38"></rect>
            <rect id="h6" x="147.503089" y="242.650547" width="219" height="76" rx="38"></rect>
            <rect id="h5" x="907.503089" y="108.650547" width="374" height="76" rx="38"></rect>
            <rect id="h4" x="642.503089" y="108.650547" width="219" height="76" rx="38"></rect>
            <rect id="h3" x="222.503089" y="108.650547" width="374" height="76" rx="38"></rect>
            <circle id="h2" cx="115.503089" cy="164.650547" r="57"></circle>
            <path d="M1316.00309,0 C500.130028,0 76.7966943,0 46.0030887,0 C15.2094831,0 -0.124879806,20.3835157 0,61.1505471 C0,44.5820046 13.4345462,31.1505471 30.0030887,31.1505471 L1316.00309,31.1505471" id="h1"></path>
        </g>
    </g>
</svg>