<?xml version="1.0" encoding="UTF-8"?>
<svg width="1366px" height="583px" viewBox="0 0 1366 583" version="1.1" xmlns="http://www.w3.org/2000/svg" xmlns:xlink="http://www.w3.org/1999/xlink">
    <title>GARMOURRIELLU</title>
    <g id="Page-1" stroke="none" stroke-width="1" fill="none" fill-rule="evenodd">
        <g id="GARMOURRIELLU" transform="translate(1.000000, 0.657534)" fill="#FFFFFF" stroke="#000000">
            <path d="M1365,581.342466 L70,581.342466 C31.3400675,581.342466 0,550.002398 0,511.342466 L0,122.342466 C0,83.6825335 31.3400675,52.342466 70,52.342466 L1365,52.342466" id="board"></path>
            <path d="M1365,498.342466 L1266.5,498.342466 C1240.81876,498.342466 1220,477.523707 1220,451.842466 C1220,426.161225 1240.81876,405.342466 1266.5,405.342466 L1365,405.342466" id="h11"></path>
            <circle id="h10" cx="1117.5" cy="461.842466" r="46"></circle>
            <rect id="h9" x="659.5" y="415.842466" width="355" height="92" rx="46"></rect>
            <rect id="h8" x="247.5" y="415.842466" width="355" height="92" rx="46"></rect>
            <circle id="h7" cx="132.5" cy="438.842466" r="63"></circle>
            <path d="M1365,352.342466 L313.971336,352.342466 C301.98053,352.342466 292.260062,342.621998 292.260062,330.631192 C292.260062,321.622524 297.823307,313.54972 306.241717,310.342466 L409.260268,271.094355 C414.035613,269.275039 419.102883,268.342466 424.213052,268.342466 L1365,268.342466" id="h6"></path>
            <path d="M1365,215.342466 L1201.5,215.342466 C1175.81876,215.342466 1155,194.523707 1155,168.842466 C1155,143.161225 1175.81876,122.342466 1201.5,122.342466 L1365,122.342466" id="h5"></path>
            <rect id="h4" x="876.5" y="122.842466" width="229" height="92" rx="46"></rect>
            <rect id="h3" x="471.5" y="122.842466" width="355" height="92" rx="46"></rect>
            <rect id="h2" transform="translate(247.000000, 210.842466) rotate(-16.000000) translate(-247.000000, -210.842466) " x="69.5" y="164.842466" width="355" height="92" rx="46"></rect>
            <path d="M1365,0 C578.790861,0 155.457528,0 95,0 C34.5424721,0 2.8758054,40.780822 0,122.342466 C0,83.6825335 31.3400675,52.342466 70,52.342466 L1365,52.342466" id="h1"></path>
        </g>
    </g>
</svg>