<?xml version="1.0" encoding="UTF-8"?>
<svg width="655px" height="512px" viewBox="0 0 655 512" version="1.1" xmlns="http://www.w3.org/2000/svg" xmlns:xlink="http://www.w3.org/1999/xlink">
    <title>GETOUTB08D6Z977X</title>
    <g id="Page-1" stroke="none" stroke-width="1" fill="none" fill-rule="evenodd">
        <g id="GETOUTB08D6Z977X" transform="translate(1.000000, 1.000000)" fill="#FFFFFF" fill-rule="nonzero">
            <path d="M653.957542,91.8362485 L538.957542,91.8362485 C461.456072,93.6461104 401.456072,72.8856754 358.957542,29.5549435 C316.459013,-13.7757884 252.762323,-9.46087871 167.867475,42.4996726 C80.3237848,121.143254 30.1730954,201.483175 17.415407,283.519436 C-1.72112567,406.573828 -9.56061709,479.717547 17.415407,495.523026 C44.391431,511.328505 106.008769,515.932746 124.820289,497.821654 C143.63181,479.710563 150.148621,436.543101 176.991983,436.543101 C203.835346,436.543101 236.935104,440.637916 251.984063,440.637916 C267.033023,440.637916 307.9645,446.939211 322.228364,421.328655 C336.492227,395.718099 338.325401,395.335814 362.447866,395.335814 C378.52951,395.335814 420.318932,395.335814 487.816134,395.335814 C541.717411,391.923 568.668049,381.273241 568.668049,363.386536 C568.668049,336.556479 568.143817,295.912277 609.408935,295.912277 C636.919014,295.912277 651.76855,295.912277 653.957542,295.912277" id="board" stroke="#000000"></path>
            <ellipse id="h8" stroke="#000000" cx="55.9575424" cy="436.412655" rx="34.5" ry="41"></ellipse>
            <ellipse id="h2" stroke="#000000" transform="translate(148.721503, 153.271512) rotate(-45.000000) translate(-148.721503, -153.271512) " cx="148.721503" cy="153.271512" rx="117" ry="25.5"></ellipse>
            <path d="M291.157692,246.953602 C296.888497,246.809906 301.809548,247.596035 305.715382,249.666396 C309.289284,251.56081 312.0014,254.535299 313.703479,258.841494 C315.752146,264.024542 320.787974,279.550491 320.784999,285.848283 C320.795478,304.800041 315.497057,319.462801 300.693918,329.110505 C287.183145,337.91593 265.818133,342.55103 233.514425,342.55103 C202.434665,342.55103 182.959599,339.174781 171.398123,333.416101 C165.072532,330.265374 161.139098,326.405599 158.996094,321.989861 C156.566271,316.983122 156.440396,311.276272 157.672442,305.1288 C159.540794,295.806396 164.63529,289.38861 173.283359,283.971749 C183.940683,277.296358 199.947923,272.138552 221.938852,265.041165 C223.407186,264.567273 224.902148,264.084787 226.423929,263.592686 C228.952891,262.774892 231.461259,261.957611 233.944389,261.148552 C256.152894,253.912531 276.336247,247.32524 291.157692,246.953602 Z" id="h6" stroke="#000000"></path>
            <ellipse id="h4" stroke="#000000" cx="381.957542" cy="195.912655" rx="49.5" ry="29.5"></ellipse>
            <ellipse id="h5" stroke="#000000" cx="539.957542" cy="210.412655" rx="80.5" ry="44"></ellipse>
            <ellipse id="h7" stroke="#000000" cx="443.957542" cy="331.912655" rx="107.5" ry="36.5"></ellipse>
            <path d="M653.305136,94.0836908 L653.305136,149.84722 L393,149.84722 C393,104.035599 393,74.6830714 393,61.7896374 C433.761127,82.6457207 477.535602,93.4104052 524.323424,94.0836908" id="h3" stroke="#FFFFFF"></path>
            <path d="M180.941479,51.8016888 L365.957542,51.8016888 C339.0617,23.8889528 311.789667,9.93258476 284.141445,9.93258476 C256.493222,9.93258476 222.093234,23.8889528 180.941479,51.8016888 Z" id="h1" stroke="#FFFFFF"></path>
        </g>
    </g>
</svg>