<?xml version="1.0" encoding="UTF-8"?>
<svg width="666px" height="353px" viewBox="0 0 666 353" version="1.1" xmlns="http://www.w3.org/2000/svg" xmlns:xlink="http://www.w3.org/1999/xlink">
    <title>GIMMEKRAFTGOLD</title>
    <g id="Page-1" stroke="none" stroke-width="1" fill="none" fill-rule="evenodd">
        <g id="GIMMEKRAFTGOLD" transform="translate(1.000000, 0.955832)" fill="#FFFFFF" stroke="#000000">
            <path d="M665,236.044168 L18.8024737,236.044168 C6.9341579,226.931067 1,214.555152 1,198.916425 C1,183.277697 0.666666667,131.820278 0,44.5441684 C99.568495,44.5441684 170.235162,44.5441684 212,44.5441684 C221.273351,44.5441684 211.01945,88.3706107 234.834328,89.0441684 C257.367719,89.6814816 445.19883,89.6814816 445.19883,89.6814816 C445.19883,89.6814816 454.624835,88.2548761 454.624835,80.882943 C454.624835,75.9683209 454.624835,61.6887294 454.624835,38.0441684 L665,38.1300782" id="board"></path>
            <path d="M665,351.044168 L47.8245197,351.044168 C28.6081732,351.044168 19,340.484941 19,319.366487 C19,298.248033 19,270.140593 19,235.044168 L665,235.044168" id="board"></path>
            <path d="M665,328.044168 L571.949153,328.044168 C557.065547,328.044168 545,315.955857 545,301.044168 C545,286.13248 557.065547,274.044168 571.949153,274.044168 L665,274.044168" id="h14"></path>
            <rect id="h13" x="419.5" y="274.544168" width="96" height="53" rx="26.5"></rect>
            <rect id="h12" x="311.5" y="274.544168" width="86" height="53" rx="26.5"></rect>
            <rect id="h11" x="229.5" y="274.544168" width="53" height="53" rx="26.5"></rect>
            <rect id="h10" x="36.5" y="274.544168" width="170" height="53" rx="26.5"></rect>
            <path d="M665,205.044168 L570.945378,205.044168 C556.063857,205.044168 544,192.955857 544,178.044168 C544,163.13248 556.063857,151.044168 570.945378,151.044168 L665,151.044168" id="h9"></path>
            <rect id="h8" x="411.5" y="151.544168" width="96" height="53" rx="26.5"></rect>
            <rect id="h7" x="302.5" y="151.544168" width="86" height="53" rx="26.5"></rect>
            <rect id="h6" x="212.5" y="151.544168" width="53" height="53" rx="26.5"></rect>
            <rect id="h5" x="20.5" y="151.544168" width="170" height="53" rx="26.5"></rect>
            <rect id="h15" x="20.5" y="56.5441684" width="170" height="53" rx="26.5"></rect>
            <rect id="h4" x="495.5" y="68.5441684" width="132" height="53" rx="26.5"></rect>
            <polyline id="h3" points="665 38.0441684 455 38.0441684 474.587897 7.04416836 665 7.04416836"></polyline>
            <path d="M474,6.77552391 L454.392268,37.600102 L454.392268,74.5102098 C455.511083,84.1186555 451.74114,88.9228784 443.08244,88.9228784 C434.42374,88.9228784 361.377907,88.9228784 223.944941,88.9228784 C215.981647,90.0374446 212,83.4704733 212,69.2219644 C212,54.9734556 212,41.1804695 212,27.8430061 C212,13.798018 214.870104,4.99581964 220.610312,1.43641108 C229.220624,-3.90270174 239.662079,6.77552391 239.662079,22.187813 C239.662079,37.600102 247.849341,42.4116622 257.965213,42.4116622 C268.081085,42.4116622 297.751665,32.8858691 308.857714,22.187813 C319.963763,11.4897568 320.251031,6.77552391 337.639631,6.77552391 C349.23203,6.77552391 394.685487,6.77552391 474,6.77552391 Z" id="h2"></path>
            <path d="M1.13686838e-13,44.522116 C1.13686838e-13,44.522116 70.6666667,44.522116 212,44.522116 L212.045692,27.8126829 C212.045692,10.9383079 216.030462,1.66741359 224,7.27595761e-12 C224,7.27595761e-12 112.499937,-0.00191396904 68.6128814,0.0441683634 C4.44911854,0.111541665 1.13686838e-13,0.111541665 1.13686838e-13,44.522116 Z" id="h1"></path>
        </g>
    </g>
</svg>