<?xml version="1.0" encoding="UTF-8"?>
<svg width="1328px" height="625px" viewBox="0 0 1328 625" version="1.1" xmlns="http://www.w3.org/2000/svg" xmlns:xlink="http://www.w3.org/1999/xlink">
    <title>GOUPBASIC</title>
    <g id="Page-1" stroke="none" stroke-width="1" fill="none" fill-rule="evenodd">
        <g id="GOUPBASIC" transform="translate(1.000000, 1.000000)" fill="#FFFFFF" stroke="#000000">
            <rect id="h5" x="160.5" y="292.5" width="180" height="292"></rect>
            <path d="M1159,102 L7,93 C2.33333333,93 1,91 3,87 C5,83 4,85 0,93 L44,623 L167,623 C195.666667,531 210,466.333333 210,429 C210,373 205,304 268,304 C310,304 331.333333,326.333333 332,371 L288,623 L832,616 C854,616 866.666667,605 870,583 C873.333333,561 969.666667,400.666667 1159,102 Z" id="board"></path>
            <path d="M1327,144 C1237,144 1129,206 1018,406 C998,445 1001,441 1025,454 C1049,467 1070,493 1056,530 C1046.66667,554.666667 1026,566.666667 994,566 C972,565.333333 960.333333,571 959,583 C957,601 948,616 994,616 C1024.66667,616 1135.66667,616 1327,616" id="board"></path>
            <rect id="h2" x="123.5" y="137.5" width="432" height="119" rx="59.5"></rect>
            <rect id="h6" x="401.5" y="300.5" width="419" height="119" rx="59.5"></rect>
            <rect id="h7" x="386.5" y="463.5" width="393" height="119" rx="59.5"></rect>
            <rect id="h3" x="649.5" y="137.5" width="247" height="119" rx="59.5"></rect>
            <rect id="h8" x="1090.5" y="308.5" width="119" height="119" rx="59.5"></rect>
            <path d="M1327,578 L1252,578 C1218.86292,578 1192,551.137085 1192,518 C1192,484.862915 1218.86292,458 1252,458 L1327,458" id="h9"></path>
            <path d="M1327,144 C1303,144 1257,168 1168,231 C1079,294 1027.7446,386.998033 1018,406 C998,445 1001,441 1025,454 C1049,467 1070,493 1056,530 C1046.66667,554.666667 1026,566.666667 994,566 C972,565.333333 960.333333,571 959,583 L870,583 C898.666667,393 966.333333,254 1073,166 C1233,34 1295,34.9970836 1327,34.9970836" id="h4"></path>
            <path d="M1327,0 L547,0 C529.666667,0.666666667 519.666667,8 517,22 C513,43 494,56 450,56 C420.666667,56 283.666667,56 39,56 C30.3333333,54.6666667 23,58.3333333 17,67 C8,80 -5,93 7,93 C15,93 399,96 1159,102 C1242.33333,57.3333333 1298.33333,35 1327,35" id="h1"></path>
        </g>
    </g>
</svg>