<?xml version="1.0" encoding="UTF-8"?>
<svg width="582px" height="271px" viewBox="0 0 582 271" version="1.1" xmlns="http://www.w3.org/2000/svg" xmlns:xlink="http://www.w3.org/1999/xlink">
    <title>GRIPMONKEYSHANGBOARD</title>
    <g id="Page-1" stroke="none" stroke-width="1" fill="none" fill-rule="evenodd">
        <g id="GRIPMONKEYSHANGBOARD" transform="translate(1.000000, 1.000000)" fill="#FFFFFF" stroke="#000000">
            <rect id="board" x="334" y="49" width="165" height="212"></rect>
            <rect id="board" x="167" y="49" width="166" height="212"></rect>
            <rect id="board" x="15" y="49" width="152" height="212"></rect>
            <polyline id="board" points="580 261 500 261 500 49 580 49"></polyline>
            <rect id="h1" x="0" y="0" width="178" height="60" rx="14"></rect>
            <path d="M188.091938,5 L339.407335,5 C343.273328,5 346.407335,8.13400675 346.407335,12 C346.407335,12.7408411 346.28973,13.4769857 346.05891,14.1809515 L332.277773,56.2113533 C331.339905,59.07171 328.678386,61.0121913 325.668251,61.0302755 L173.992508,61.9415066 C170.126585,61.9647321 166.973807,58.8496099 166.950581,54.9836864 C166.946028,54.2257118 167.064614,53.4720292 167.301708,52.752076 L181.443191,9.8104431 C182.388559,6.9397647 185.069602,5 188.091938,5 Z" id="h2"></path>
            <path d="M167,54 L334,54 L333.072278,130.073165 C333.032218,133.358092 330.357896,136 327.072725,136 L173,136 C169.686292,136 167,133.313708 167,130 L167,54 L167,54 Z" id="board-top"></path>
            <path d="M354.992735,4 L492,4 C495.865993,4 499,7.13400675 499,11 L499,54 C499,57.8659932 495.865993,61 492,61 L340.461991,61 C336.595997,61 333.461991,57.8659932 333.461991,54 C333.461991,53.2379343 333.58643,52.4809823 333.830398,51.7590237 L348.361142,8.75902374 C349.322324,5.91465262 351.990349,4 354.992735,4 Z" id="h3"></path>
            <rect id="h6" x="333" y="103" width="166" height="33" rx="6"></rect>
            <rect id="h5" x="0" y="103" width="166" height="33" rx="6"></rect>
            <rect id="h10" x="333" y="171" width="166" height="33" rx="6"></rect>
            <rect id="h9" x="167" y="171" width="166" height="33" rx="6"></rect>
            <rect id="h8" x="1" y="170" width="166" height="33" rx="6"></rect>
            <rect id="h14" x="333" y="236" width="166" height="33" rx="6"></rect>
            <rect id="h13" x="167" y="236" width="166" height="33" rx="6"></rect>
            <rect id="h12" x="1" y="236" width="166" height="33" rx="6"></rect>
            <path d="M580,62.4828262 L505,62.4828262 C501.686292,62.4828262 499,59.7965347 499,56.4828262 L499,15 C498.881836,1.82736443 498.881836,1.82736443 514.881836,1.82736443 L580,0.310190658" id="h4"></path>
            <path d="M580,136 L505,136 C501.686292,136 499,133.604118 499,130.648649 L499,108.351351 C499,105.395882 501.686292,103 505,103 L580,103" id="h7"></path>
            <path d="M580,203.307322 L505,203.307322 C501.686292,203.307322 499,200.621031 499,197.307322 L499,177 C499,173.686292 501.686292,171 505,171 L580,171" id="h11"></path>
            <path d="M580,268.307322 L505,268.307322 C501.686292,268.307322 499,265.621031 499,262.307322 L499,242 C499,238.686292 501.686292,236 505,236 L580,236" id="h15"></path>
        </g>
    </g>
</svg>