<?xml version="1.0" encoding="UTF-8"?>
<svg width="24px" height="24px" viewBox="0 0 24 24" version="1.1" xmlns="http://www.w3.org/2000/svg" xmlns:xlink="http://www.w3.org/1999/xlink">
    <title>hangboard-menu</title>
    <g id="hangboard-menu" stroke="none" stroke-width="1" fill="none" fill-rule="evenodd">
        <g transform="translate(1.000000, 6.000000)" stroke="#1F4457" stroke-width="2">
            <path d="M1.3336726,0 C1.26522881,0 1.19688658,0.00557886353 1.12925179,0.0166871435 C0.401494596,0.136213327 -0.0969468685,0.857705944 0.015951628,1.628186 L1.36058051,10.8046566 C1.46137941,11.4925625 2.02076762,12 2.67830148,12 L19.3183243,12 C19.9756553,12 20.5349345,11.4928675 20.6359631,10.8052167 L21.984156,1.62874611 C21.9947029,1.55695832 22,1.48441571 22,1.41176471 C22,0.632068588 21.4029794,0 20.6665172,0 L1.3336726,0 Z" id="Rectangle"></path>
            <line x1="4" y1="8" x2="6" y2="8" id="Line" stroke-linecap="square"></line>
            <line x1="9" y1="8" x2="13" y2="8" id="Line" stroke-linecap="square"></line>
            <line x1="16" y1="8" x2="18" y2="8" id="Line" stroke-linecap="square"></line>
            <line x1="4" y1="4" x2="5" y2="4" id="Line" stroke-linecap="square"></line>
            <line x1="8" y1="4" x2="14" y2="4" id="Line" stroke-linecap="square"></line>
            <line x1="17" y1="4" x2="18" y2="4" id="Line" stroke-linecap="square"></line>
        </g>
    </g>
</svg>