<?xml version="1.0" encoding="UTF-8"?>
<svg width="341px" height="349px" viewBox="0 0 341 349" version="1.1" xmlns="http://www.w3.org/2000/svg" xmlns:xlink="http://www.w3.org/1999/xlink">
    <!-- Generator: Sketch 58 (84663) - https://sketch.com -->
    <title>HOLDZFINGER1</title>
    <desc>Created with Sketch.</desc>
    <g id="Page-1" stroke="none" stroke-width="1" fill="none" fill-rule="evenodd">
        <g id="HOLDZFINGER1" transform="translate(0.830078, 0.062753)" fill="#FFFFFF">
            <path d="M340.169922,7.52709106 C298.351562,7.52709106 244.744141,42.3845129 209.373047,42.3845129 C185.792318,42.3845129 153.401042,30.7653723 112.199219,7.52709106 C78.8085938,-3.56014853 56.9791667,-0.522388109 46.7109375,16.6403723 C31.3085938,42.3845129 0,103.009513 0,163.85131 C0,224.693107 29.0214844,288.530997 35.6933594,297.308341 C42.3652344,306.085685 71.375,347.72045 117.244141,347.72045 C163.113281,347.72045 192.925781,324.466544 225.705078,324.466544 C258.484375,324.466544 291.410156,342.798575 340.169922,342.798575" id="Path-23" stroke="#000000"></path>
            <path d="M340.169922,256.92028 C315.593251,256.92028 296.169922,268.801701 296.169922,283.437247 C296.169922,298.072793 315.593251,309.975089 340.169922,309.975089" id="h8" stroke="#000000"></path>
            <path d="M196.510742,248.847404 C185.952148,249.800529 180.672852,254.926505 180.672852,264.225333 C180.672852,273.524161 185.952148,278.304109 196.510742,278.565177 L217.897461,278.565177 C229.215169,278.565177 234.874023,276.085359 234.874023,271.125724 C234.874023,263.686271 236.014648,248.847404 219.458008,248.847404 C208.420247,248.847404 200.771159,248.847404 196.510742,248.847404 Z" id="h7" stroke="#000000"></path>
            <path d="M145.966797,291.954825 C142.014974,273.868888 133.066406,265.371492 119.121094,266.462638 C105.175781,267.553784 87.6064453,269.340893 66.4130859,271.823966 C53.4007161,273.57006 52.4026693,278.093497 63.4189453,285.394279 C79.9433594,296.34545 117.1875,312.105216 132.887695,308.091544 C143.354492,305.415763 147.714193,300.036857 145.966797,291.954825 Z" id="h6" stroke="#000000"></path>
            <path d="M92.8520508,207.809806 C85.409668,206.610913 69.7890625,204.906648 45.9902344,202.697013 C28.1279297,200.416414 24.6443685,206.204663 35.5395508,220.061759 C46.4347331,233.918855 60.8489583,244.055737 78.7822266,250.472404 C99.7021484,253.030997 112.170898,248.135489 116.188477,235.78588 C122.214844,217.261466 104.015625,209.608146 92.8520508,207.809806 Z" id="h5" stroke="#000000"></path>
            <path d="M228.396484,185.006583 C231.274414,190.975333 232.490234,209.82006 214.30957,214.3767 C196.128906,218.933341 165.144531,215.682364 157.639648,207.505118 C150.134766,199.327872 137.381348,180.964103 157.639648,172.212638 C166.724192,168.288169 185.641884,161.273207 203.848145,166.48754 C212.708216,169.025094 225.518555,179.037833 228.396484,185.006583 Z" id="h4" stroke="#000000"></path>
            <path d="M103.279785,163.552482 C100.430827,174.360225 89.6044922,177.962806 70.8007812,174.360225 C51.9970703,170.757644 36.0882161,163.686801 23.0742187,153.147697 C16.9534505,145.496004 20.3069661,141.352775 33.1347656,140.718009 C52.3764648,139.765861 68.3374023,136.53881 87.6865234,143.436271 C100.585937,148.034578 105.783691,154.739982 103.279785,163.552482 Z" id="h3" stroke="#000000"></path>
            <path d="M340.169922,103.352119 C314.020182,103.352119 300.945313,93.5354427 300.945313,73.9020911 C300.945313,73.9020911 292.587652,87.2501649 278.754883,93.6501379 C267.371294,98.9169545 251.073943,98.0304843 243.105469,93.6501379 C231.337891,87.1813879 226.991927,77.3044348 230.067577,64.0192786 C204.196354,73.0362056 187.731445,73.0362056 180.672852,64.0192786 C170.084961,50.4938879 158.381836,41.6735754 197.533203,35.6013098 C223.634115,31.5531327 237.724284,29.5290442 239.803711,29.5290442 C255.188477,17.541414 270.340495,13.0918697 285.259766,16.1804114 C285.259766,16.1804114 295.253906,0.763419182 314.605469,6.72240356 C314.605469,6.72240356 324.014648,0.999298096 340.169922,0.999298096" id="h2" stroke="#000000"></path>
            <path d="M34.5820312,52.3356848 C47.8040477,21.9268306 60.7316221,6.72240356 73.3647545,6.72240356 C85.9978869,6.72240356 101.652995,11.5023515 120.330078,21.0622473 C160.913488,41.9112056 169.712335,52.3356848 146.72662,52.3356848 C123.740904,52.3356848 86.359375,52.3356848 34.5820312,52.3356848 Z" id="h1"></path>
        </g>
    </g>
</svg>