<?xml version="1.0" encoding="UTF-8"?>
<svg width="519.055162px" height="548.325752px" viewBox="0 0 519.055162 548.325752" version="1.1" xmlns="http://www.w3.org/2000/svg" xmlns:xlink="http://www.w3.org/1999/xlink">
    <title>HRTBUTTERFLY</title>
    <g id="Page-1" stroke="none" stroke-width="1" fill="none" fill-rule="evenodd">
        <g id="HRTBUTTERFLY" transform="translate(0.7067, 0.5202)" fill="#FFFFFF" stroke="#000000">
            <path d="M517.772303,135.430521 C421.886384,52.1804823 347.074279,7.48768013 293.335988,1.35211454 C212.728551,-7.85123384 42.343106,29.4733704 3.97903932e-13,127.293421 C3.97903932e-13,127.293421 30.2263479,133.077558 90.6790436,144.645831 C122.274512,86.9194311 179.477962,60.9636744 262.289394,66.778561 C345.100827,72.5934477 420.561368,125.967199 488.671019,226.899813 L517.772303,135.430521 Z" id="h1"></path>
            <path d="M488.671019,226.899813 C488.671019,245.62824 488.671019,267.305142 488.671019,291.930521 C429.139434,242.682461 389.002098,218.05843 368.259013,218.05843 C368.259013,218.05843 345.671125,170.252509 276.020214,170.252509 C206.369304,170.252509 89.689202,168.685949 72.3120978,264.998568 C72.3120978,264.998568 102.021871,149.289626 0,127.293421 C0,127.293421 30.2263479,133.077558 90.6790436,144.645831 C258.978888,156.285985 346.640352,139.671108 353.663437,94.8011988 C353.663437,94.8011988 426.098304,130.393073 488.671019,226.899813 Z" id="board"></path>
            <path d="M488.671019,291.930521 C490.047581,330.392418 495.997903,374.110328 506.521984,423.084252 L483.772303,435.830881 C439.896629,312.171658 373.891098,253.899017 285.755712,261.012957 C197.620326,268.126898 153.552633,297.663701 153.552633,349.623366 C153.552633,285.345417 126.472455,257.137151 72.3120978,264.998568 C72.3120978,264.998568 77.7668123,230.263045 93.1262122,220.463421 C84.8497203,226.899813 100.243402,243.430521 134.208603,243.430521 C156.852071,243.430521 230.320195,243.430521 354.612978,243.430521 C363.710335,240.052238 368.259013,231.594874 368.259013,218.05843 C368.259013,218.05843 392.555562,212.826537 488.671019,291.930521 Z" id="board"></path>
            <path d="M233.332375,167.3794 C278.306014,167.3794 309.244577,172.910208 330.009,180.786362 C342.832934,185.650609 351.763287,191.404837 357.710387,197.299902 C364.960769,204.486847 367.759013,211.871215 367.759013,218.05843 C367.759013,225.177374 367.449348,230.431914 365.798902,234.281525 C364.386286,237.576406 361.971245,239.808364 357.917921,241.30557 C348.618307,244.740634 330.925188,244.371212 297.451453,243.716828 C279.582131,243.367498 257.228528,242.930521 229.272303,242.930521 L227.947793,242.930743 C203.302515,242.938981 183.070884,243.17547 166.465229,243.36958 C154.956038,243.504115 145.192348,243.619635 136.91089,243.624721 L135.375422,243.624358 C118.674932,243.605641 108.209724,243.092841 101.669963,241.283879 C97.3588628,240.091386 94.7931354,238.33857 93.303792,235.732547 C91.5682248,232.695687 91.2723026,228.547397 91.2723026,222.930521 C91.2723026,220.304977 96.7382118,211.248075 109.617563,201.206015 C117.788359,194.835226 128.95597,188.079109 143.670324,182.293787 C165.312422,173.784645 194.617264,167.3794 233.332375,167.3794 Z" id="h3"></path>
            <path d="M483.772303,435.830881 C464.454916,444.731102 452.396888,458.91863 447.598221,478.393464 C447.598221,478.393464 324.190723,449.719469 264.756358,546.48875 C264.756358,546.48875 248.527798,553.487419 248.527798,526.275644 C257.169111,403.501214 225.510723,344.617121 153.552633,349.623366 C153.552633,349.623366 155.251429,318.132014 164.186749,310.177285 C161.612872,324.674112 164.439132,329.436943 192.459383,329.436943 C289.417041,329.436943 348.503435,328.447839 378.757111,328.447839 C409.579691,328.447839 422.620278,326.908953 411.535687,308.287015 C432.91406,328.107078 456.992932,370.6217 483.772303,435.830881 Z" id="board"></path>
            <path d="M335.025453,374.784379 C356.478218,374.784379 376.413637,379.769603 391.473824,386.82889 C399.893949,390.775726 406.787963,395.368971 411.559839,400.102984 C416.193651,404.700027 418.830732,409.420375 418.830732,413.801499 C418.830732,417.172731 417.363761,419.783177 414.656288,421.795406 C411.652657,424.027744 407.157614,425.531118 401.45475,426.530521 C386.898664,429.081411 364.543254,428.309523 338.753163,427.425659 L336.969901,427.364581 C326.736216,427.014491 317.008505,426.965175 308.058553,426.919859 C290.280879,426.829846 275.580855,426.763375 266.105793,424.361624 C262.376321,423.416273 259.466766,422.114211 257.530655,420.279026 C255.764476,418.604915 254.830732,416.48455 254.830732,413.801499 C254.830732,409.33928 257.305401,404.52142 261.73185,399.842277 C266.212912,395.105404 272.696162,390.518768 280.716191,386.591269 C294.875031,379.657524 313.81589,374.784379 335.025453,374.784379 Z" id="h5" transform="translate(336.8307, 401.5246) rotate(-4) translate(-336.8307, -401.5246)"></path>
            <path d="M288.530992,260.634715 C358.167176,260.634715 398.542606,292.008712 414.83457,312.363868 C416.865751,314.901622 418.277658,317.107169 418.939311,319.026366 C419.515234,320.696891 419.513417,322.138333 418.784689,323.370819 C417.27177,325.929594 412.868234,327.556278 405.048318,328.650597 C386.876531,331.193557 350.371687,330.552145 287.321061,329.451593 C269.666782,329.143436 254.493956,328.948256 241.455355,328.780532 C202.990579,328.285733 183.126855,328.037263 172.924496,325.818528 C168.483154,324.852657 165.912261,323.531189 164.471274,321.592018 C162.781612,319.318198 162.652001,316.233969 162.724855,312.060155 C162.815821,306.848753 167.25298,300.598124 174.987206,294.26708 C182.601123,288.034519 193.429425,281.743116 206.638457,276.313689 C228.61999,267.278422 257.188429,260.634715 288.530992,260.634715 Z" id="h4" transform="translate(291.0322, 295.5257) rotate(-1) translate(-291.0322, -295.5257)"></path>
            <path d="M517.772303,135.430521 C498.994621,135.430521 483.772303,201.692378 483.772303,283.430521 C483.772303,365.168664 498.994621,431.430521 517.772303,431.430521" id="board"></path>
            <path d="M142.150901,84.6467789 C163.846829,73.7357886 190.846979,65.7332304 220.745374,66.7646361 C296.445562,69.3760675 336.486481,80.8056931 353.965832,106.552445 C355.974006,109.510447 356.885612,112.389426 356.77094,115.170409 C356.652776,118.036091 355.445304,120.788165 353.274788,123.407325 C348.658657,128.977606 339.737706,133.929714 327.488643,138.054388 C302.83596,146.355781 264.739485,151.252238 220.775806,150.764177 C142.073307,143.877062 93.3392917,133.634578 88.5493825,132.602047 C88.6993399,127.92966 94.9394464,119.041534 105.717724,109.277327 C114.83616,101.016795 127.241276,92.1449034 142.150901,84.6467789 Z" id="h2" transform="translate(222.6637, 108.7368) rotate(-5) translate(-222.6637, -108.7368)"></path>
        </g>
    </g>
</svg>