<?xml version="1.0" encoding="UTF-8"?>
<svg width="429px" height="426px" viewBox="0 0 475 426" version="1.1" xmlns="http://www.w3.org/2000/svg" xmlns:xlink="http://www.w3.org/1999/xlink">
    <title>HRTVARIO</title>
    <g id="Page-1" stroke="none" stroke-width="1" fill="none" fill-rule="evenodd">
        <g id="HRTVARIO" transform="translate(1.114085, 1.016376)" fill="#FFFFFF" stroke="#000000">
            <path d="M10.1995232,255.483624 C6.76299861,281.930557 7.66374121,298.010933 12.901751,303.724752 C12.901751,303.724752 1.01309103,329.65753 15.1370958,341.267345 C29.2611006,352.87716 34.1131408,362.825441 68.4108997,369.304339 C91.2760722,373.623604 108.195232,373.623604 119.168378,369.304339 C134.163317,367.049824 146.864975,365.922566 157.273351,365.922566 C172.885915,365.922566 205.792448,376.140428 226.885915,400.721099 C240.948225,417.108213 263.916032,424.726616 295.789333,423.576307 C340.011171,419.133614 370.861686,410.470271 388.340878,397.586277 C414.559665,378.260286 416.100421,377.803695 421.604477,372.509576 C427.108533,367.215456 428.982804,362.244952 421.604477,351.756149 C414.22615,341.267345 383.67653,302.494751 376.101987,269.740016 C368.527443,236.98528 365.134467,216.922686 368.90328,200.062427 C371.415822,188.822255 370.330724,173.156727 365.647986,153.065844 L277.623503,153.065844 L188.776477,90.4607296 L99.174267,99.6681206 L46.5277832,138.846952 L10.1995232,233.617544 L10.1995232,255.483624 Z" id="board"></path>
            <path d="M203.385915,189.984094 C231.851824,189.964282 234.669262,184.181482 234.669262,164.54273 C234.669262,144.903978 222.992023,133.983624 203.385915,133.983624 C183.779806,133.983624 167.885915,144.903978 167.885915,164.54273 C167.885915,184.181482 174.920005,190.002966 203.385915,189.984094 Z" id="board"></path>
            <path d="M202.385915,176.01224 C215.916891,176.01224 226.885915,172.014601 226.885915,158.483624 C226.885915,144.952648 215.916891,133.983624 202.385915,133.983624 C188.854938,133.983624 177.885915,144.952648 177.885915,158.483624 C177.885915,172.014601 188.854938,176.01224 202.385915,176.01224 Z" id="h5"></path>
            <path d="M43.5255912,28.9366324 C68.7302831,50.5898476 83.9589275,65.6336395 89.2115245,74.068008 C95.4660552,84.1112335 88.1585393,100.418395 89.2115245,101.793397 C92.7806866,106.454056 96.4056504,108.522986 102.708659,112.20767 C123.787043,124.529909 158.682874,87.2279952 160.999268,97.132739 C165.480423,116.293855 177.544421,117.075323 197.19126,99.4771425 C200.996064,95.6602785 204.817004,93.7518465 208.654079,93.7518465 C208.654079,93.7518465 204.990642,83.6839023 211.043539,69.9275349 C217.096437,56.1711674 218.674297,41.4800633 218.674297,36.259032 L217.55883,36.3237515 C159.463961,29.4700363 115.308448,25.4018921 85.09229,24.1193189 C54.8761324,22.8367458 41.0205662,24.442517 43.5255912,28.9366324 Z" id="board"></path>
            <path d="M172.400197,49.7748229 C198.247059,55.0599754 213.33325,51.549974 217.658771,39.2448185 C224.147052,20.7870854 198.325357,2.33537068 174.900429,0.298122973 C151.475501,-1.73912474 84.5924835,7.07290266 63.412393,14.3127904 C49.2923328,19.1393822 42.2323026,23.0484331 42.2323026,26.0399431 C42.9560312,29.9562626 47.0486,31.2494571 54.5100089,29.9195264 C65.7021222,27.9246305 83.8072289,25.8242607 95.9310756,27.8718936 C108.054922,29.9195264 118.600315,35.9161813 135.670619,39.2448185 C147.050822,41.46391 159.294014,44.9739115 172.400197,49.7748229 Z" id="h1"></path>
            <path d="M135.670619,39.2448185 C112.352629,72.6562559 100.693634,105.502859 100.693634,137.784626 C100.693634,137.784626 149.439985,128.270193 169.842754,141.676641 C169.842754,141.676641 146.750808,64.2079058 169.842754,49.3085638 C169.842754,49.3085638 164.459912,46.5107228 152.573723,43.0102222 C149.527499,42.1131047 143.893131,40.8579701 135.670619,39.2448185 Z" id="h2"></path>
            <path d="M291.736309,162.646267 C279.787037,149.688309 276.427255,135.699881 281.656963,120.680985 C289.501525,98.1526401 311.976442,86.3828357 347.958939,90.4607296 C371.94727,93.1793255 390.208963,101.27009 402.744019,114.733024 C405.867988,118.820408 405.867988,123.900336 402.744019,129.972809 C398.058064,139.081518 370.419477,189.893898 368.90328,200.062427 C368.90328,200.062427 345.572854,178.030908 329.187201,173.930972 C312.801548,169.831037 300.691824,168.632587 296.841897,166.485513 C294.275279,165.05413 292.573416,163.774382 291.736309,162.646267 Z" id="h7"></path>
            <path d="M169.842754,141.676641 C168.085995,163.128922 165.571494,175.225902 162.299251,177.967583 C157.390887,182.080104 154.351693,181.96834 144.809943,181.96834 C138.448777,181.96834 112.280095,180.634754 66.3038965,177.967583 C59.5080259,178.507164 57.8090583,176.581403 61.2069936,172.1903 C66.3038965,165.603646 84.5484838,139.928913 100.693634,137.784626 C111.095103,136.403176 124.49154,133.751809 144.809943,134.343333 C150.467245,134.508033 158.811515,136.952468 169.842754,141.676641 Z" id="board"></path>
            <path d="M102.708659,112.20767 L100.693634,137.784626 C87.0190008,141.932209 73.8567875,153.400767 61.2069936,172.1903 C59.5080259,174.712097 59.2468248,178.144777 53.8183314,176.751171 C48.389838,175.357565 31.9102111,174.220695 26.7148243,182.922801 C23.251233,188.724206 20.477777,190.960408 18.3944561,189.631407 C7.46787888,169.578037 7.46787888,150.579683 18.3944561,132.636345 C29.3210334,114.693008 45.003161,101.85958 65.4408391,94.1360601 C71.6868245,91.958901 76.8258378,92.4388216 80.8578791,95.5758218 C83.7861785,97.8540912 88.1573555,102.357917 94.5157152,107.175275 C96.1134541,108.385789 98.8444352,110.063254 102.708659,112.20767 Z" id="h3"></path>
            <path d="M157.127726,233.833554 C158.921656,244.195858 144.141192,248.43733 112.786335,246.55797 C81.4314779,244.67861 63.6720415,243.650379 59.5080259,243.473279 C51.8452802,243.816755 49.9295938,241.151216 53.7609666,235.476662 C59.5080259,226.96483 83.1390615,213.427357 106.796181,213.427357 C130.4533,213.427357 149.183212,220.175434 153.155469,224.371577 C155.80364,227.169005 157.127726,230.322998 157.127726,233.833554 Z" id="h9"></path>
            <path d="M165.135224,170.054411 C166.836791,180.242773 152.817315,184.413047 123.076794,182.565234 C93.3362731,180.717421 76.4911992,179.706451 72.5415722,179.532324 C65.2733507,179.870034 63.4562953,177.249239 67.090406,171.669938 C72.5415722,163.300986 94.9559401,149.990753 117.395049,149.990753 C139.834157,149.990753 157.599741,156.625557 161.367482,160.751263 C163.87931,163.501734 165.135224,166.602783 165.135224,170.054411 Z" id="h4"></path>
            <path d="M148.127726,302.833554 C149.921656,313.195858 135.141192,317.43733 103.786335,315.55797 C72.4314779,313.67861 54.6720415,312.650379 50.5080259,312.473279 C42.8452802,312.816755 40.9295938,310.151216 44.7609666,304.476662 C50.5080259,295.96483 74.1390615,282.427357 97.7961808,282.427357 C121.4533,282.427357 140.183212,289.175434 144.155469,293.371577 C146.80364,296.169005 148.127726,299.322998 148.127726,302.833554 Z" id="h12"></path>
            <path d="M298.846347,190.002966 C277.674071,168.598385 262.837816,153.55156 254.337582,144.862491 C245.837348,136.173422 229.445963,126.130267 205.163426,114.733024 C196.500533,110.548313 194.334809,104.891554 198.666256,97.7627452 C202.997703,90.6339366 215.799895,92.7400543 237.072832,104.081098 C251.319658,112.458249 261.91404,120.842224 268.855978,129.233025 C279.268884,141.819226 287.237651,161.10884 293.929479,164.945159 C296.184745,166.238066 298.689836,171.686309 301.434109,175.484062 C306.83265,182.95501 312.421673,190.726799 313.707776,194.743735 C315.001025,198.782994 310.047216,197.202738 298.846347,190.002966 Z" id="h6"></path>
            <path d="M191.435713,334.653299 C222.125183,334.632321 224.209115,326.915171 227.246632,305.742376 C230.284149,284.569581 214.657248,272.796205 193.519646,272.796205 C172.382044,272.796205 155.246632,284.569581 155.246632,305.742376 C155.246632,326.915171 160.746244,334.674027 191.435713,334.653299 Z" id="board"></path>
            <path d="M193.385915,315.01224 C206.916891,315.01224 217.885915,311.014601 217.885915,297.483624 C217.885915,283.952648 206.916891,272.983624 193.385915,272.983624 C179.854938,272.983624 168.885915,283.952648 168.885915,297.483624 C168.885915,311.014601 179.854938,315.01224 193.385915,315.01224 Z" id="h13"></path>
            <path d="M198.385915,257.984094 C226.851824,257.964282 229.669262,252.181482 229.669262,232.54273 C229.669262,212.903978 217.992023,201.983624 198.385915,201.983624 C178.779806,201.983624 162.885915,212.903978 162.885915,232.54273 C162.885915,252.181482 169.920005,258.002966 198.385915,257.984094 Z" id="board"></path>
            <path d="M197.385915,244.01224 C210.916891,244.01224 221.885915,240.014601 221.885915,226.483624 C221.885915,212.952648 210.916891,201.983624 197.385915,201.983624 C183.854938,201.983624 172.885915,212.952648 172.885915,226.483624 C172.885915,240.014601 183.854938,244.01224 197.385915,244.01224 Z" id="h10"></path>
            <path d="M58.5222013,176.183761 C24.5342138,218.56159 8.42665447,244.994877 10.1995232,255.483624 C10.1995232,255.483624 -4.88583168,223.73328 1.63562523,215.747932 C5.98326318,210.424367 14.3429962,199.482656 26.7148243,182.922801 C30.8063237,178.430108 35.406322,176.183761 40.5148191,176.183761 C44.2795763,176.183761 48.1944095,175.528487 52.9456144,176.902777 C54.0761669,177.22979 55.9350292,176.990118 58.5222013,176.183761 Z" id="h8"></path>
            <path d="M250.237136,226.021551 L332.563623,229.983859 C341.994349,230.389718 345.199121,228.061075 342.17794,222.997932 C337.646168,215.403217 309.667256,207.497461 293.205764,207.497461 C276.744273,207.497461 250.913983,215.26585 247.548831,216.987048 C245.976201,217.791411 241.955604,220.361633 243.468445,222.997932 C243.898647,223.747608 246.154877,224.755481 250.237136,226.021551 Z" id="h11"></path>
            <path d="M245.794396,292.517355 L334.579666,297.441318 C344.750263,297.945679 348.20646,295.051874 344.948257,288.759903 C340.060953,279.321948 309.887004,269.497461 292.134054,269.497461 C274.381104,269.497461 246.524344,279.151241 242.895185,281.290175 C241.199177,282.289758 236.86315,285.483773 238.494679,288.759903 C238.958631,289.691526 241.391871,290.94401 245.794396,292.517355 Z" id="h14"></path>
            <path d="M243.219971,359.628051 L336.937755,365.431292 C347.673386,366.025718 351.321594,362.615162 347.88238,355.199625 C342.723559,344.07632 310.873279,332.497461 292.134054,332.497461 C273.394829,332.497461 243.990471,343.87513 240.159692,346.396016 C238.369462,347.574096 233.792544,351.338472 235.514714,355.199625 C236.004441,356.297609 238.57286,357.773751 243.219971,359.628051 Z" id="h15"></path>
        </g>
    </g>
</svg>
