<?xml version="1.0" encoding="UTF-8"?>
<svg width="584px" height="284px" viewBox="0 0 584 284" version="1.1" xmlns="http://www.w3.org/2000/svg" xmlns:xlink="http://www.w3.org/1999/xlink">
    <title>ISECLIMBORBIT</title>
    <g id="Page-1" stroke="none" stroke-width="1" fill="none" fill-rule="evenodd">
        <g id="ISECLIMBORBIT" transform="translate(0.284496, 0.628534)" fill="#FFFFFF" stroke="#000000">
            <path d="M582.715504,282.076029 L19.0548985,282.076029 C7.15511798,282.69201 1.13681848,279.786918 1,273.360753 C0.863181519,266.934588 0.931590759,187.877738 1.20522772,36.1902024 C8.25065632,14.0488141 26.4736026,2.97811997 55.8740665,2.97811997 C85.2745304,2.97811997 199.006008,2.21679688 397.0685,0.694150715 C398.948204,3.30268588 408.395506,4.60695346 425.410407,4.60695346 C442.425307,4.60695346 494.955172,4.60695346 583,4.60695346" id="board"></path>
            <path d="M583,253 L278.5,253 C265.521308,253 255,242.478692 255,229.5 C255,216.521308 265.521308,206 278.5,206 L583,206" id="h13"></path>
            <path d="M582.715504,253 L508,253 C501.372583,253 496,247.627417 496,241 L496,218 C496,211.372583 501.372583,206 508,206 L582.715504,206" id="h14"></path>
            <circle id="h12" cx="278.5" cy="229.5" r="23.5"></circle>
            <path d="M50,282.5 C50,237.488793 86.4887929,201 131.5,201 C176.511207,201 213.090611,237.145642 213.090611,282.156849 L184.181385,282.156849 C184.181385,252.885758 160.271092,229 131,229 C101.728908,229 78,252.728908 78,282 L50.0906111,281.813699" id="h11"></path>
            <rect id="h10" x="461" y="141" width="87" height="42" rx="18"></rect>
            <rect id="h9" x="304" y="141" width="116" height="42" rx="18"></rect>
            <circle id="h8" cx="255.5" cy="161.5" r="23.5"></circle>
            <rect id="h7" x="41" y="127" width="156" height="42" rx="18"></rect>
            <rect id="h6" x="393" y="66" width="87" height="42" rx="18"></rect>
            <rect id="h5" x="237" y="53" width="116" height="42" rx="18"></rect>
            <rect id="h4" x="29" y="53" width="168" height="42" rx="18"></rect>
            <path d="M582.715504,4.44678098 L414.58667,4.44678098 C405.109605,4.23112225 399.270215,2.9802455 397.0685,0.694150715 C397.0685,0.694150715 394.927695,12.5261679 390.646085,36.1902024 C393.906883,47.3911832 398.778123,52.9916735 405.259804,52.9916735 C411.741486,52.9916735 470.893386,52.9916735 582.715504,52.9916735" id="h3"></path>
            <path d="M397.0685,0.694150715 L390.646085,36.1902024 L212.506853,36.1902024 C198.914204,31.3776849 192.570516,24.5562555 193.475789,15.7259145 C194.833698,2.48040284 187.921245,0.694150715 215.494331,0.694150715 C233.876388,0.694150715 294.401111,0.694150715 397.0685,0.694150715 Z" id="h2"></path>
            <path d="M210.164927,0.694150715 C136.635552,1.81558717 85.2052654,2.57691025 55.8740665,2.97811997 C26.5428676,3.37932968 8.31992135,14.4500238 1.20522772,36.1902024 L212.506853,36.1902024 C199.76295,31.6877756 193.390999,25.1560752 193.390999,16.5951012 C193.390999,3.75364021 194.441956,3.92041838 197.72507,2.3763054 C199.913813,1.34689674 204.060432,0.786178516 210.164927,0.694150715 Z" id="h1"></path>
        </g>
    </g>
</svg>