<?xml version="1.0" encoding="UTF-8"?>
<svg width="591px" height="288px" viewBox="0 0 591 288" version="1.1" xmlns="http://www.w3.org/2000/svg" xmlns:xlink="http://www.w3.org/1999/xlink">
    <title>ISECLIMBTRLUX</title>
    <g id="Page-1" stroke="none" stroke-width="1" fill="none" fill-rule="evenodd">
        <g id="ISECLIMBTRLUX" transform="translate(1.284496, 1.628534)" fill="#FFFFFF" stroke="#000000">
            <path d="M588.715504,285.076029 L17.7733706,285.076029 C6.52440158,285.054172 0.899917064,277.787205 0.899917064,263.275129 C0.899917064,248.763053 0.607221601,174.068078 0.0218306748,39.1902024 L0.0218306748,17.1908721 C-0.385192669,5.73029071 4.89936261,2.84217094e-14 15.8754965,2.84217094e-14 C26.8516304,2.84217094e-14 156.128327,2.84217094e-14 403.705586,2.84217094e-14 C405.3242,2.99277306 414.640957,4.48915959 431.655858,4.48915959 C448.670758,4.48915959 501.023974,4.48915959 588.715504,4.48915959" id="board"></path>
            <path d="M588.715504,4.73795868 L420.982326,4.73795868 C411.666215,3.86541434 405.907302,2.28609478 403.705586,-5.68434189e-14 C403.705586,-5.68434189e-14 401.352419,13.0634008 396.646085,39.1902024 C399.906883,50.3911832 404.778123,55.9916735 411.259804,55.9916735 C417.741486,55.9916735 476.893386,55.9916735 588.715504,55.9916735" id="h3"></path>
            <path d="M403.705586,-5.68434189e-14 L396.646085,39.1902024 L218.506853,39.1902024 C204.914204,34.3776849 198.570516,27.5562555 199.475789,18.7259145 C200.833698,5.48040284 194.122795,-5.68434189e-14 221.695881,-5.68434189e-14 C240.077938,-5.68434189e-14 300.74784,-5.68434189e-14 403.705586,-5.68434189e-14 Z" id="h2"></path>
            <path d="M216.702492,-4.97379915e-14 L10.5555574,-4.97379915e-14 C3.53307291,1.32518591 0.0218306748,7.05547661 0.0218306748,17.1908721 C0.0218306748,27.3262676 0.0218306748,34.6593777 0.0218306748,39.1902024 L218.506853,39.1902024 C205.76295,34.6877756 199.390999,28.1560752 199.390999,19.5951012 C199.390999,11.0341272 199.390999,7.21640476 199.390999,8.14193388 C200.450014,4.86482307 202.073893,2.71156334 204.262636,1.68215468 C206.451379,0.652746028 210.597997,0.0920278006 216.702492,-4.97379915e-14 Z" id="h1"></path>
            <rect id="h4" x="59.715504" y="85.3714659" width="162" height="52" rx="18"></rect>
            <rect id="h5" x="275.715504" y="85.3714659" width="83" height="52" rx="18"></rect>
            <rect id="h6" x="412.715504" y="85.3714659" width="120" height="52" rx="18"></rect>
            <path d="M588.715504,238.371466 L334.715504,238.371466 C324.774379,238.371466 316.715504,230.312591 316.715504,220.371466 L316.715504,210.371466 C316.715504,200.43034 324.774379,192.371466 334.715504,192.371466 L588.715504,192.371466" id="h10"></path>
            <rect id="h9" x="316.715504" y="192.371466" width="81" height="46" rx="18"></rect>
            <rect id="h8" x="118.715504" y="192.371466" width="162" height="46" rx="18"></rect>
            <circle id="h7" cx="62.715504" cy="215.371466" r="24"></circle>
        </g>
    </g>
</svg>