<?xml version="1.0" encoding="UTF-8"?>
<svg width="597px" height="177px" viewBox="0 0 597 177" version="1.1" xmlns="http://www.w3.org/2000/svg" xmlns:xlink="http://www.w3.org/1999/xlink">
    <title>IURAWARMUP180</title>
    <g id="Page-1" stroke="none" stroke-width="1" fill="none" fill-rule="evenodd">
        <g id="IURAWARMUP180" transform="translate(299.000000, 88.673888) scale(1, -1) translate(-299.000000, -88.673888) translate(1.000000, 0.673888)" stroke="#000000">
            <path d="M596,162.326112 L23,162.326112 C10.2974508,162.326112 0,152.028661 0,139.326112 L0,23.3261117 C0,10.6235625 10.2974508,0.326111749 23,0.326111749 L596,0.326111749" id="board" fill="#FFFFFF"></path>
            <path d="M74.0924463,162.326112 L23,162.326112 C10.2974508,162.326112 0,152.028661 0,139.326112 L0,23.3261117 C0,10.6235625 10.2974508,0.326111749 23,0.326111749 L74.0924463,0.326111749 L74.0924463,162.326112 Z" id="board" fill="#CCCCCC"></path>
            <rect id="h2" fill="#FFFFFF" x="100" y="39.3261117" width="307" height="69" rx="34.5"></rect>
            <path d="M596,108.326112 L484.5,108.326112 C465.446176,108.326112 450,92.8799356 450,73.8261117 C450,54.7722879 465.446176,39.3261117 484.5,39.3261117 L596,39.3261117" id="h3" fill="#FFFFFF"></path>
            <path d="M596,173.326112 L21.931881,173.326112 L14.6410018,175.001 C29.8223067,165.667 41.6111091,161 50.007409,161 C58.4037088,161 240.401239,161 596,161" id="h1" fill="#FFFFFF" transform="translate(305.320501, 168.000500) scale(1, -1) translate(-305.320501, -168.000500) "></path>
            <path d="M596,162.326112 L74.0924463,162.326112 L74.0924463,0.326111749 L88.6348473,0.326111749 C96.2116158,0.527925178 100,3.92556002 100,10.5190163 C100,17.1124725 100,38.2148377 100,73.8261117 C101.762718,96.8261117 114.408708,108.326112 137.93797,108.326112 C161.467232,108.326112 314.154575,108.326112 596,108.326112" id="board" fill="#FFFFFF"></path>
        </g>
    </g>
</svg>