<?xml version="1.0" encoding="UTF-8"?>
<svg width="598px" height="228px" viewBox="0 0 598 228" version="1.1" xmlns="http://www.w3.org/2000/svg" xmlns:xlink="http://www.w3.org/1999/xlink">
    <title>JOODBOARD</title>
    <g id="Page-1" stroke="none" stroke-width="1" fill="none" fill-rule="evenodd">
        <g id="JOODBOARD" transform="translate(1.010248, 1.485207)" stroke="#000000">
            <path d="M595.989752,27.6215562 L519.601017,27.6215562 C518.85599,31.826395 518.127746,34.8732228 517.416287,36.7620397 C516.704828,38.6508566 515.484862,40.7762306 513.75639,43.1381615 L461.808306,43.1381615 C461.448856,42.7185558 460.976044,41.9206279 460.38987,40.7443777 C459.803696,39.5681276 459.05711,37.6103418 458.150114,34.8710204 L451.52891,33.8897195 L446.58277,38.6896141 L283.279353,38.6896141 C264.856635,38.9459818 246.939017,28.0188542 229.526499,5.90823128 C229.526499,5.90823128 220.678366,5.90823128 202.9821,5.90823128 L202.9821,27.6215562 L109.76166,27.6215562 L109.76166,47.6781823 C36.5650625,85.0940683 -0.0221574913,103.802011 -0.000139985495,103.802011 C0.0140347203,103.802011 8.04213623,139.016444 12.6087587,141.556086 C15.6531737,143.249181 48.0374741,171.228352 109.76166,225.493598 L595.989752,225.493598" id="Path" fill="#FFFFFF"></path>
            <path d="M0.00267414414,105.555904 C4.95445607,152.86183 19.4515404,178.990516 43.493927,183.941964 C79.557507,191.369135 76.83163,195.217601 84.737255,205.744914 C92.64288,216.272227 90.3481571,225.493598 118.698535,225.493598 C137.598787,225.493598 296.695859,225.493598 595.989752,225.493598" id="board" fill="#FFFFFF"></path>
            <rect id="h9" fill="#FFFFFF" fill-rule="nonzero" x="154.989752" y="176.514793" width="79" height="32" rx="6"></rect>
            <rect id="h8" fill="#FFFFFF" fill-rule="nonzero" x="96.9897525" y="176.514793" width="32" height="32" rx="6"></rect>
            <rect id="h10" fill="#FFFFFF" fill-rule="nonzero" x="259.989752" y="176.514793" width="52" height="32" rx="6"></rect>
            <rect id="h11" fill="#FFFFFF" fill-rule="nonzero" x="337.989752" y="176.514793" width="27" height="32" rx="6"></rect>
            <rect id="h12" fill="#FFFFFF" fill-rule="nonzero" x="390.989752" y="176.514793" width="79" height="32" rx="6"></rect>
            <path d="M595.989752,210.514793 L539.989752,210.514793 C538.885183,210.514793 537.989752,209.619362 537.989752,208.514793 L537.989752,172.514793 C537.989752,171.410223 538.885183,170.514793 539.989752,170.514793 L595.989752,170.514793" id="brand" fill="#FFFFFF" fill-rule="nonzero"></path>
            <path d="M595.989752,16.2454943 L533.131578,16.2454943 C524.111204,16.2295015 519.601017,19.7853694 519.601017,26.9130982 C519.601017,37.6046914 534.5015,40.7603239 534.5015,74.6774762 C534.5015,108.594628 522.586969,126.267357 471.625167,126.267357 C437.650633,126.267357 419.386135,126.267357 416.831673,126.267357 C413.577499,134.138725 404.72229,140.067324 390.266047,144.053154 C397.020423,144.053154 465.594991,144.053154 595.989752,144.053154" id="h5" fill="#FFFFFF"></path>
            <path d="M595.989752,144.053154 L390.266047,144.053154 C366.026002,149.750214 345.918788,152.598743 329.944408,152.598743 C313.970027,152.598743 402.651808,152.598743 595.989752,152.598743" id="h7" fill="#FFFFFF"></path>
            <path d="M498.183695,101.745832 C498.183695,101.745832 469.846109,84.959743 464.010574,68.9883601 C460.120217,58.3407716 458.175039,47.7785813 458.175039,37.3017894 C458.459038,32.8841461 457.203769,30.6753244 454.409233,30.6753244 C450.217428,30.6753244 450.682434,32.5779174 450.332421,39.4749742 C449.915495,47.7785545 447.673308,59.5360363 443.083206,68.9883601 C438.493105,78.4406839 428.008897,107.870083 403.181174,114.013572 C460.595949,117.568287 492.263456,113.47904 498.183695,101.745832 Z" id="h4" fill="#FFFFFF"></path>
            <path d="M457.929751,32.8998386 C460.467752,47.3503843 470.746296,54.5756572 488.765384,54.5756572 C506.784472,54.5756572 517.063017,45.3548042 519.601017,26.9130982" id="line"></path>
            <path d="M450.682434,33.8897195 C446.007704,40.7590561 440.522603,44.7243757 434.227131,45.7856785 C424.783924,47.3776327 421.429244,42.1298334 416.345639,42.9304827 C411.262033,43.7311321 380.01266,70.3367392 376.955689,85.9820367 C373.898717,101.627334 396.73812,117.449935 406.455936,113.420883" id="line" fill="#FFFFFF"></path>
            <path d="M285.01798,73.973312 C284.640435,62.7745388 283.295363,55.5803735 280.982765,52.3908159 C277.513868,47.6064797 273.046954,40.7443777 293.602797,40.7443777 C307.306693,40.7443777 348.220973,41.4730794 416.345639,42.9304827 C399.875979,54.264715 388.722839,64.6123247 382.886218,73.973312" id="h3" fill="#FFFFFF"></path>
            <path d="M595.989752,161.551853 L101.670892,159.97724 C96.0655214,161.224709 91.8284687,163.000426 88.9597335,165.304391" id="Path" fill="#FFFFFF"></path>
            <path d="M416.831673,126.267357 C402.484693,132.653033 391.850318,136.696171 384.928549,138.396772 C353.029088,146.23411 326.768082,146.92147 309.1852,146.92147 C285.879432,146.92147 217.267936,145.965365 103.350711,144.053154 C95.4004396,143.638689 90.6034473,141.152442 88.9597335,136.594414" id="line" fill="#FFFFFF"></path>
            <path d="M135.234011,105.727128 C145.844088,105.727128 158.235983,89.6043669 172.409695,57.3588448 C157.348051,61.107754 148.964218,57.4065025 147.258196,46.2550902 C145.552173,35.103678 144.660301,29.0338481 144.582578,28.0456007 C142.610053,20.5152282 134.526394,16.9929039 120.3316,17.4786278 C103.23485,18.0636521 21.3746158,14.5348078 8.68935617,53.8443884 C4.77867723,65.9629539 0.332207775,86.5722811 0.00267414414,105.727128" id="h1" fill="#FFFFFF"></path>
            <path d="M128.989752,144.053154 C116.171024,142.518062 109.76166,138.010796 109.76166,130.531355 C109.76166,119.312194 113.440229,113.64457 128.989752,113.64457 C160.799889,114.268274 158.615725,121.472048 200.448941,121.472048 C228.337752,121.472048 259.551839,121.472048 294.091203,121.472048 C313.111812,120.674402 325.190388,118.202687 330.326931,114.056904 C338.031747,107.83823 342.482493,102.038147 351.489752,102.038147 C360.497012,102.038147 362.349683,118.372512 356.042192,127.939027 C354.631063,130.079274 348.788565,136.539119 345.022965,138.560565 C331.957025,145.574609 311.239202,146.921766 301.682083,146.921766 C293.474431,146.921766 235.910321,145.965562 128.989752,144.053154 Z" id="h6" fill="#FFFFFF"></path>
            <path d="M229.526499,5.90823128 C224.748888,4.29322618 220.876448,6.92674735 217.909178,13.8087948 C213.458273,24.1318659 206.447777,63.622412 212.178478,80.7687635 C217.909178,97.915115 233.001342,115.704161 257.303346,121.400199 C257.303346,121.400199 232.200016,121.400199 195.669899,121.400199 C159.139782,121.400199 154.048986,113.617735 131.625931,113.617735 C116.677227,113.617735 109.389137,117.834276 109.76166,126.267357 C110.951999,113.455041 119.442783,106.608298 135.234011,105.727128 C151.025239,104.845958 165.58555,81.2767227 178.914945,35.0194224 C182.5628,11.6731408 187.36891,-9.9475983e-14 193.333276,-9.9475983e-14 C202.279824,-9.9475983e-14 200.500932,3.52503016 204.888408,3.52503016 C209.275884,3.52503016 211.908681,2.60123809 218.750664,1.53254643 C223.311986,0.820085326 226.903931,2.27864694 229.526499,5.90823128 Z" id="h2" fill="#FFFFFF"></path>
        </g>
    </g>
</svg>