<?xml version="1.0" encoding="UTF-8"?>
<svg width="587px" height="225px" viewBox="0 0 587 225" version="1.1" xmlns="http://www.w3.org/2000/svg" xmlns:xlink="http://www.w3.org/1999/xlink">
    <title>JOODBOARD</title>
    <g id="Page-1" stroke="none" stroke-width="1" fill="none" fill-rule="evenodd">
        <g id="JOODBOARD" transform="translate(0.996556, 0.893792)" fill="#FFFFFF" stroke="#000000">
            <path d="M585.003444,121.105292 L137.396493,118.305725 L137.396493,34.366732 L179.653379,34.366732 L182.691328,5.68434189e-14 C196.012496,5.68434189e-14 207.565167,5.68434189e-14 217.349343,5.68434189e-14 C232.025607,5.68434189e-14 235.873169,13.4365454 238.414322,21.2723667 C240.108424,26.4962477 246.235286,30.8610361 256.794908,34.366732 L425.973796,34.366732 L585.003444,34.366732" id="board"></path>
            <path d="M585.003444,121.106208 L391.200399,119.684934 L0,121.106208 C0,159.992262 13.3938129,179.435289 40.1814387,179.435289 C80.3594332,179.435289 76.7826699,180.149199 76.7826699,193.949039 C76.7826699,207.748879 76.4549181,223.106208 89.4962545,223.106208 C98.1904788,223.106208 263.359542,223.106208 585.003444,223.106208" id="board"></path>
            <path d="M585.003444,9.1062084 L523.943676,9.1062084 C514.232446,9.57343726 509.376832,12.2455572 509.376832,17.1225683 C509.376832,24.4380849 523.943676,34.6564636 523.943676,59.6272556 C523.943676,59.6272556 544.296932,59.6272556 585.003444,59.6272556" id="h5"></path>
            <path d="M465.293055,112.931552 C465.293055,112.931552 443.574921,112.931552 400.138652,112.931552 C412.488549,102.883234 419.805373,95.3558787 422.089124,90.3494869 C428.228393,76.8911132 433.954246,65.5945059 434.583141,53.2183581 C436.013068,25.0785446 438.900674,26.1383093 440.308224,26.1383093 C441.715773,26.1383093 443.984894,39.7102534 446.991815,53.2183581 C449.998735,66.7264627 478.749989,95.66508 508.655897,97.3954303 C490.737036,107.752845 476.282756,112.931552 465.293055,112.931552 Z" id="h4"></path>
            <path d="M430.623955,40.5447391 C424.022326,84.9528327 410.88114,107.156879 391.200399,107.156879 C361.679287,107.156879 364.954525,79.4516194 375.438635,63.7042397 C385.922744,47.9568601 399.981141,40.5447391 412.648764,40.5447391 C421.093847,40.5447391 427.085577,40.5447391 430.623955,40.5447391 Z" id="h3"></path>
            <path d="M111.114424,121.106208 C102.687913,121.039242 98.4746579,124.643482 98.4746579,131.918928 C98.4746579,142.832098 133.649798,142.832098 147.720003,142.832098 C157.10014,142.832098 224.709519,142.832098 350.548138,142.832098 C367.878528,142.832098 376.543723,139.194375 376.543723,131.918928 C376.543723,124.643482 370.319869,121.039242 357.87216,121.106208 L111.114424,121.106208 Z" id="h6"></path>
            <path d="M507.711315,96.8160684 C493.241048,107.559724 477.657612,112.931552 460.961006,112.931552 C444.2644,112.931552 423.990282,112.931552 400.138652,112.931552 C394.186874,115.314969 391.210984,118.039855 391.210984,121.106208 C391.210984,125.705738 390.079869,137.288328 411.202777,137.288328 C425.284715,137.288328 444.142258,137.288328 467.775406,137.288328 C503.40039,137.288328 522.123147,111.401304 523.943676,59.6272556 C523.943676,76.2744503 518.532889,88.6707212 507.711315,96.8160684 Z" id="h7"></path>
            <rect id="h8" x="85.0034442" y="175.106208" width="33" height="29" rx="6"></rect>
            <rect id="h9" x="139.003444" y="175.106208" width="81" height="29" rx="6"></rect>
            <rect id="h10" x="241.003444" y="175.106208" width="55" height="29" rx="6"></rect>
            <rect id="h11" x="317.003444" y="175.106208" width="33" height="29" rx="6"></rect>
            <rect id="h12" x="371.003444" y="175.106208" width="83" height="29" rx="6"></rect>
            <path d="M169.809644,40.5447391 C165.262363,52.3762295 159.614188,57.7049288 152.865121,56.530837 C142.74152,54.7696995 139.648689,44.8200324 139.648689,31.0829923 C139.648689,17.3459521 128.267362,14.8807139 120.294628,14.8807139 C114.979473,14.8807139 96.7673054,14.8807139 65.6581266,14.8807139 C21.8883383,17.7498473 0.00344419702,38.3276868 0.00344419702,76.6142326 C0.00344419702,114.900778 0.00344419702,129.731437 0.00344419702,121.106208 L169.809644,121.106208 L169.809644,40.5447391 Z" id="h1"></path>
            <path d="M182.691328,-2.13162821e-14 C178.480021,1.91714191 174.914446,11.9249384 171.994603,30.0233895 C167.614838,57.1710661 139.743761,91.9975219 127.156503,106.551407 C114.569246,121.105292 102.39798,122.763617 105.887298,121.571524 C109.376616,120.379432 121.340083,121.106208 133.609595,121.106208 C148.167541,121.106208 195.922436,121.106208 276.874281,121.106208 C292.665927,121.106208 300.561749,120.27634 300.561749,118.616605 C300.561749,116.956869 292.665927,116.302848 276.874281,116.654542 C229.752257,116.343292 205.018523,105.534475 202.673079,84.2280922 C200.327636,62.9217093 201.20342,40.2942272 205.300433,16.3456457 C207.627923,5.44854858 211.644227,-2.13162821e-14 217.349343,-2.13162821e-14 C223.05446,-2.13162821e-14 211.501788,-2.13162821e-14 182.691328,-2.13162821e-14 Z" id="h2"></path>
        </g>
    </g>
</svg>