<?xml version="1.0" encoding="UTF-8"?>
<svg width="1289px" height="537px" viewBox="0 0 1289 537" version="1.1" xmlns="http://www.w3.org/2000/svg" xmlns:xlink="http://www.w3.org/1999/xlink">
    <title>KONGMARKII</title>
    <g id="Page-1" stroke="none" stroke-width="1" fill="none" fill-rule="evenodd">
        <g id="KONGMARKII" transform="translate(0.919596, 1.330155)" fill="#FFFFFF" stroke="#000000">
            <path d="M690.198571,104.698564 C685.651421,80.9868822 663.278698,69.1310414 623.080404,69.1310414 C582.88211,69.1310414 402.51024,69.1310414 81.9647944,69.1310414 C41.6508672,75.489226 14.3560704,94.1642353 0.0804041766,125.156069 C2.64414173,22.4344623 32.9459574,0 119.080404,0 C176.503369,0 361.357618,0 673.643151,0 C710.159008,0 737.647374,11.1878396 756.108251,33.5635189 C756.108251,33.5635189 734.138357,57.2752006 690.198571,104.698564 Z" id="h1"></path>
            <path d="M1288.0804,104.698564 L690.198571,104.698564 C685.651421,80.9868822 663.278698,69.1310414 623.080404,69.1310414 C582.88211,69.1310414 321.503925,69.1310414 89.7022189,69.1310414 C14.7362377,67.9433023 14.7362377,91.0904024 0.0804041766,125.156069 L0.0804041766,432.273709 C-2.0360512,500.389263 37.6306155,534.44704 119.080404,534.44704 C200.530193,534.44704 590.19686,534.44704 1288.0804,534.44704" id="board"></path>
            <rect id="h8" x="989.580404" y="394.169845" width="229" height="102" rx="51"></rect>
            <rect id="h7" x="608.580404" y="394.169845" width="330" height="102" rx="51"></rect>
            <rect id="h6" x="77.5804042" y="394.169845" width="481" height="102" rx="51"></rect>
            <rect id="h5" x="988.580404" y="251.169845" width="229" height="102" rx="51"></rect>
            <rect id="h4" x="608.580404" y="251.169845" width="330" height="102" rx="51"></rect>
            <rect id="h3" x="77.5804042" y="251.169845" width="481" height="102" rx="51"></rect>
            <polyline id="h2" points="1288.0804 104.698564 690.198571 104.698564 756.108251 33.5635189 1288.0804 33.5635189"></polyline>
        </g>
    </g>
</svg>