<?xml version="1.0" encoding="UTF-8"?>
<svg width="640px" height="292px" viewBox="0 0 640 292" version="1.1" xmlns="http://www.w3.org/2000/svg" xmlns:xlink="http://www.w3.org/1999/xlink">
    <!-- Generator: Sketch 58 (84663) - https://sketch.com -->
    <title>Group 8</title>
    <desc>Created with Sketch.</desc>
    <defs>
        <path d="M639,290.773438 L259.999926,290.773438 C258.895397,290.773438 258,289.878007 258,288.773438 L258,262.773438 C258,261.668868 258.895397,260.773438 259.999926,260.773438 C512.666642,260.773438 638.99528,260.773438 638.98584,260.773438" id="path-1"></path>
        <filter x="-0.7%" y="-8.3%" width="101.2%" height="116.7%" filterUnits="objectBoundingBox" id="filter-2">
            <feGaussianBlur stdDeviation="1.5" in="SourceAlpha" result="shadowBlurInner1"></feGaussianBlur>
            <feOffset dx="0" dy="1" in="shadowBlurInner1" result="shadowOffsetInner1"></feOffset>
            <feComposite in="shadowOffsetInner1" in2="SourceAlpha" operator="arithmetic" k2="-1" k3="1" result="shadowInnerInner1"></feComposite>
            <feColorMatrix values="0 0 0 0 0   0 0 0 0 0   0 0 0 0 0  0 0 0 0.5 0" type="matrix" in="shadowInnerInner1"></feColorMatrix>
        </filter>
    </defs>
    <g id="Page-1" stroke="none" stroke-width="1" fill="none" fill-rule="evenodd">
        <g id="Group-8" transform="translate(1.000000, 0.226562)">
            <path d="M639,12.7734375 L388.444123,12.7734375 L159.752754,134.372381 L159.752754,247.857436 C156.677204,265.13477 163.026056,273.773438 178.79931,273.773438 C194.572564,273.773438 347.972794,273.773438 639,273.773438" id="Path-18" stroke="#000000" fill="#FFFFFF"></path>
            <g id="Path">
                <use fill="#FFFFFF" fill-rule="evenodd" xlink:href="#path-1"></use>
                <use fill="black" fill-opacity="1" filter="url(#filter-2)" xlink:href="#path-1"></use>
                <use stroke="#000000" stroke-width="1" xlink:href="#path-1"></use>
            </g>
            <path d="M639,225.773438 L256,225.773438 C254.895431,225.773438 254,224.878007 254,223.773438 L254,197.773438 C254,196.668868 254.895431,195.773438 256,195.773438 L639,195.773438" id="Shape" stroke="#000000" fill="#FFFFFF"></path>
            <path d="M639,154.773438 L249.878261,154.773438 C240.319905,103.901721 224.693818,67.1810312 203,44.6113687 C203,44.6113687 203,35.5808305 203,17.5197541 C203.354716,13.8926732 205.886147,12.0791328 210.594294,12.0791328 C215.302441,12.0791328 222.897393,12.0791328 233.379151,12.0791328 L240.85734,0.7734375 L535.874843,0.7734375 L545.301516,12.0791328 L639,12.2890625" id="Shape" stroke="#000000" fill="#FFFFFF"></path>
            <path d="M639,83.7734375 L546.213918,83.7734375 C546.213918,93.846545 537.384211,98.8830988 519.724799,98.8830988 C502.065386,98.8830988 461.81328,98.8830988 398.968482,98.8830988 L398.968482,123.97875 C397.449848,132.252299 391.10463,136.389074 379.932826,136.389074 C368.761023,136.389074 324.116747,136.389074 246,136.389074 L249.92594,154.773438 L639,154.773438" id="Shape" stroke="#000000" fill="#FFFFFF"></path>
            <path d="M388.446089,12.7734375 C395.48203,15.1591417 399,24.2587874 399,40.0723748 C399,55.8859621 399,75.6125989 399,99.252285 L399,124.372461 C397.277631,132.639779 391.878123,136.773438 382.801476,136.773438 C373.724829,136.773438 328.151036,136.773438 246.080095,136.773438 C233.95135,90.6979803 219.592867,60.1881689 203.004645,45.2440035 C203.004645,45.2440035 203.004645,36.578418 203.004645,19.2472468 C202.876138,14.9313739 205.414038,12.7734375 210.618346,12.7734375 C215.822655,12.7734375 275.098569,12.7734375 388.446089,12.7734375 Z" id="h1" stroke="#000000" fill="#FFFFFF"></path>
            <path d="M546,11.7734375 L546,83.557865 C545.710129,93.6940511 536.914492,98.7621442 519.613089,98.7621442 C502.311687,98.7621442 461.964145,98.7659086 398.570463,98.7734375 L398.570463,44.6694778 C397.346642,22.7387843 393.823154,11.7734375 388,11.7734375 C388,11.7734375 440.666667,11.7734375 546,11.7734375 Z" id="h2" stroke="#000000" fill="#FFFFFF"></path>
            <polyline id="h3" stroke="#000000" fill="#FFFFFF" points="639 12.7734375 546 12.7734375 546 83.7734375 639 83.7734375"></polyline>
            <circle id="h4" stroke="#000000" fill="#FFFFFF" cx="114" cy="158.773438" r="114"></circle>
            <path d="M261,154.773438 L375.586466,154.773438 C382.442272,154.773438 388,160.593736 388,167.773438 L388,182.773438 C388,189.953139 382.442272,195.773438 375.586466,195.773438 L261,195.773438 L261,154.773438 Z" id="h5" stroke="#000000"></path>
            <path d="M511.965829,154.773438 C519.164403,154.773438 525,160.593736 525,167.773438 L525,182.773438 C525,189.953139 519.164403,195.773438 511.965829,195.773438 L377.186705,195.773438 C384.155495,193.131836 387.639891,189.635091 387.639891,185.283203 C387.639891,180.931315 387.639891,174.417155 387.639891,165.740723 C384.707724,158.429199 380.827761,154.773438 376,154.773438 L511.965829,154.773438 Z" id="h6" stroke="#000000"></path>
            <path d="M639,154.773438 L512.49375,154.773438 C521.126723,156.682943 525.443209,160.089844 525.443209,164.994141 C525.443209,169.898437 525.443209,176.645833 525.443209,185.236328 C522.418556,192.261068 518.102069,195.773438 512.49375,195.773438 C506.885431,195.773438 549.054181,195.773438 639,195.773438" id="h7" stroke="#000000"></path>
            <path d="M261,225.773438 L394,225.773438 C394,225.773438 394,260.773438 394,260.773438 L261,259.773438" id="h8" stroke="#000000" transform="translate(327.500000, 243.273438) rotate(180.000000) translate(-327.500000, -243.273438) "></path>
            <path d="M517.965829,226.773438 C525.164403,226.773438 531,231.600026 531,237.553925 L531,249.99295 C531,255.946849 525.164403,260.773438 517.965829,260.773438 L383.186705,260.773438 C390.155495,258.582841 393.639891,255.683101 393.639891,252.074219 C393.639891,248.465336 393.639891,243.06335 393.639891,235.868259 C390.707724,229.805045 386.827761,226.773438 382,226.773438 L517.965829,226.773438 Z" id="h9" stroke="#000000" transform="translate(456.500000, 243.773438) rotate(180.000000) translate(-456.500000, -243.773438) "></path>
            <path d="M519,225.773438 L626.001534,225.773438 C633.180388,225.773438 639,230.600026 639,236.553925 L639,248.99295 C639,254.946849 633.180388,259.773438 626.001534,259.773438 L519,260.773438" id="h10" stroke="#000000" transform="translate(579.000000, 243.273438) rotate(180.000000) translate(-579.000000, -243.273438) "></path>
        </g>
    </g>
</svg>