<?xml version="1.0" encoding="UTF-8"?>
<svg width="587px" height="475px" viewBox="0 0 587 475" version="1.1" xmlns="http://www.w3.org/2000/svg" xmlns:xlink="http://www.w3.org/1999/xlink">
    <!-- Generator: Sketch 64 (93537) - https://sketch.com -->
    <title>KRAXLCLASSIC</title>
    <desc>Created with Sketch.</desc>
    <g id="Page-1" stroke="none" stroke-width="1" fill="none" fill-rule="evenodd">
        <g id="KRAXLCLASSIC" transform="translate(1.000000, 1.000000)" fill="#FFFFFF" fill-rule="nonzero" stroke="#000000">
            <path d="M586,1 L367.252697,1 C358.145619,1.96056666 351.475894,3.43973238 347.243523,5.43749717 C340.894967,8.43414436 313.427309,9.87499435 305.847518,9.87499435 C300.794323,9.87499435 218.811913,9.87499435 59.900286,9.87499435 C18.8548401,20.106544 -1.09644154,40.4755471 0.0464410664,70.9820036 C1.76076497,116.741688 17.7294143,178.780037 17.7294142,227.750759 C17.7294142,276.721481 11.1222133,423.698872 7.24360887,437.348186 C3.36500448,450.9975 13.479943,473 42.9291206,473 C62.5619057,473 244.315153,473 586,473" id="hangboard"></path>
            <path d="M586,303 C506.894838,303 473.274978,314.243876 347.864809,343.041585 C264.25803,362.240057 177.837793,370.65014 88.604101,368.271833 C72.8738346,366.679659 65.0087014,371.062399 65.0087014,381.420049 C65.0087014,391.777701 65.0087014,399.832387 65.0087014,405.58411 C64.700768,419.316598 72.5659011,426.182841 88.604101,426.182841 C112.6614,426.182841 184.523228,433.290044 347.864809,405.58411 C511.20639,377.878177 525.98078,368.271833 586,368.271833" id="h11"></path>
            <path d="M586,208 C535.001884,212.443462 502.030177,216.726663 489.266798,220.644923 C476.503419,224.563184 470.428562,235.021419 471.042227,252.01963 C478.375847,272.107514 488.872297,280.546514 502.531579,277.336631 C523.020502,272.521807 539.670426,267.374959 586,267.374959" id="h10"></path>
            <circle id="h9" cx="412.5" cy="267.5" r="26.5"></circle>
            <path d="M230.169023,276.585332 C169.449589,275.385216 129.122568,271.410216 107.387023,259.65364 C85.6514769,247.897064 69.9234738,267.750523 68.3468214,273.759819 C66.7701691,279.769116 61.0643675,304.070459 95.2210663,314.985369 C117.992198,322.261976 158.569997,327.600186 216.954461,331 C285.563894,328.636849 327.156057,323.298639 341.730951,314.985369 C363.593293,302.515464 357.813661,286.143633 355.735176,277.547916 C353.656692,268.952201 340.481186,253.683913 313.217459,263.721866 C285.953732,273.759819 290.888457,277.785449 230.169023,276.585332 Z" id="h8"></path>
            <path d="M230.340252,276.585332 C169.557099,275.385216 129.18776,271.410216 107.429405,259.65364 C85.6710496,247.897064 69.9265416,267.750523 68.3482347,273.759819 C66.7699279,279.769116 61.0581387,304.070459 95.2506814,314.985369 C118.045709,322.261976 158.66609,327.600186 217.111823,331 C231.929449,330.9533 240.285853,325.61509 242.181034,314.985369 C245.023808,299.040787 246.419487,290.751402 242.949034,284.671521 C240.635398,280.618267 236.43247,277.922871 230.340252,276.585332 Z" id="h7"></path>
            <rect id="h6" x="268" y="163" width="159" height="54" rx="18"></rect>
            <rect id="h5" x="59" y="164" width="175" height="59" rx="18"></rect>
            <path d="M585.383959,67.0050353 L64.6160721,67.0050353 C54.2054422,66.8225108 49,71.6022141 49,81.3441452 C49,91.0860764 49,100.006502 49,108.105423 C48.9747844,118.795964 56.4967069,124.141235 71.5658948,124.141235 C86.6350828,124.141235 206.003345,124.141235 429.670683,124.141235 C442.046854,127.30442 450.842684,134.687088 456.058173,146.289237 C463.881406,163.69246 467.461748,165 484.028721,165 C495.07337,165 529.063796,165 586,165" id="h2"></path>
            <path d="M585.383589,66.2730382 C382.922032,65.9089873 273.34271,65.9089873 256.645621,66.2730382 C231.599989,66.8191144 234.066808,77.7173882 234.066808,83.3802411 C234.066808,87.1554763 234.066808,96.0650968 234.066808,110.109103 C234.041104,118.871686 241.567376,123.252978 256.645621,123.252978 C271.723867,123.252978 329.367564,123.252978 429.576712,123.252978 C441.960322,126.407513 450.76144,133.76999 455.980064,145.340408 C463.808,162.696037 467.390494,164 483.967425,164 C495.018713,164 529.029571,164 586,164" id="h3"></path>
            <path d="M586,66.1680112 L442.1997,66.2851036 C427.177325,65.2249264 419.666137,67.1215052 419.666137,71.9748399 C419.666137,79.254842 418.167329,100.307554 419.666137,108.188074 C420.665343,113.441754 423.913587,118.44949 429.410872,123.211283 C441.769664,126.369046 450.553143,133.739057 455.761309,145.321314 C463.573556,162.694701 467.148871,164 483.69258,164 C494.72172,164 529.143746,164 586,164" id="h4"></path>
            <path d="M586,0 L367.413572,0 C358.313191,0.968031612 351.648372,2.45869252 347.419113,4.47198276 C341.075227,7.49191809 291.574216,9.49137929 284,9.49137929 C314.615842,23.163793 339.960419,30 360.03373,30 C380.107042,30 456.158217,30 586,30" id="h1"></path>
        </g>
    </g>
</svg>