<?xml version="1.0" encoding="UTF-8"?>
<svg width="536px" height="434px" viewBox="0 0 536 434" version="1.1" xmlns="http://www.w3.org/2000/svg" xmlns:xlink="http://www.w3.org/1999/xlink">
    <!-- Generator: Sketch 64 (93537) - https://sketch.com -->
    <title>KRAXLCLASSIC</title>
    <desc>Created with Sketch.</desc>
    <g id="Page-1" stroke="none" stroke-width="1" fill="none" fill-rule="evenodd">
        <g id="KRAXLCLASSIC" transform="translate(0.000000, 1.000000)" fill="#FFFFFF" fill-rule="nonzero" stroke="#000000">
            <path d="M535,0.48046875 L336.126953,0.48046875 C327.805664,1.3577474 321.711426,2.70865885 317.844238,4.53320312 C312.043457,7.27001953 286.945801,8.5859375 280.02002,8.5859375 C275.402832,8.5859375 200.494141,8.5859375 55.2939453,8.5859375 C17.7900391,17.9303385 -0.439778646,36.5332031 0.604492188,64.3945312 C2.17089844,106.186523 16.7617188,162.845703 16.7617187,207.570312 C16.7617187,252.294922 10.7246094,386.52832 7.18066406,398.994141 C3.63671875,411.459961 12.8789062,431.554687 39.7871094,431.554687 C57.7259115,431.554687 222.796875,431.554687 535,431.554687" id="hangboard"></path>
            <path d="M535.562058,276.373047 C463.311616,276.373047 433.042969,286.601563 318.5,312.978516 C242.138021,330.563151 163.20638,338.266276 81.7050781,336.087891 C67.3378906,334.629557 60.1542969,338.64388 60.1542969,348.130859 C60.1542969,357.617839 60.1542969,364.995443 60.1542969,370.263672 C59.8730469,382.841797 67.0566406,389.130859 81.7050781,389.130859 C103.677734,389.130859 169.3125,395.640625 318.5,370.263672 C467.6875,344.886719 480.181641,336.087891 535,336.087891" id="h11"></path>
            <path d="M535,189.976562 C488.253906,194.019531 459.03125,197.823568 447.332031,201.388672 C435.632812,204.953776 430.064453,214.469401 430.626953,229.935547 C437.349124,248.212891 446.970422,255.891276 459.490847,252.970703 C478.271484,248.589844 492.533203,244 535,244" id="h10"></path>
            <circle id="h9" cx="378" cy="244" r="24"></circle>
            <path d="M210.68457,252.695312 C155.267704,251.599443 118.462402,247.969727 98.625,237.234375 C78.7875977,226.499023 64.4331055,244.62793 62.9941406,250.115234 C61.5551758,255.602539 56.3476562,277.792969 87.5214844,287.759766 C108.304036,294.404297 145.338216,299.278809 198.624023,302.383301 C261.241862,300.225423 299.201823,295.350911 312.503906,287.759766 C332.457031,276.373047 327.182129,261.42334 325.285156,253.574282 C323.388184,245.725225 311.363281,231.783203 286.480469,240.949219 C261.597656,250.115234 266.101436,253.791182 210.68457,252.695312 Z" id="h8"></path>
            <path d="M210.68457,252.695312 C155.267704,251.599443 118.462402,247.969727 98.625,237.234375 C78.7875977,226.499023 64.4331055,244.62793 62.9941406,250.115234 C61.5551758,255.602539 56.3476562,277.792969 87.5214844,287.759766 C108.304036,294.404297 145.338216,299.278809 198.624023,302.383301 C212.133464,302.340658 219.752116,297.466146 221.47998,287.759766 C224.071777,273.200195 225.344238,265.630859 222.180176,260.079102 C220.070801,256.37793 216.238932,253.916667 210.68457,252.695312 Z" id="h7"></path>
            <rect id="h6" x="246" y="149" width="145" height="49" rx="18"></rect>
            <rect id="h5" x="55" y="150" width="160" height="54" rx="18"></rect>
            <path d="M535,60.7851562 L59.8662109,60.7851562 C50.3678487,60.6184343 45.6186094,64.9843197 45.6186094,73.8828125 C45.6186094,82.7813053 45.6186094,90.9294173 45.6186094,98.3271484 C45.5955455,108.092122 52.4583333,112.974609 66.2070312,112.974609 C79.9557292,112.974609 188.863932,112.974609 392.931641,112.974609 C404.223307,115.863932 412.248372,122.607422 417.006836,133.205078 C424.144531,149.101562 427.411133,150.295898 442.526367,150.295898 C452.60319,150.295898 483.615087,150.295898 535.562058,150.295898" id="h2"></path>
            <path d="M535,60.7851563 C350.390812,60.4517123 250.47382,60.4517123 235.249023,60.7851563 C212.411829,61.2853221 214.661133,71.267343 214.661133,76.4541016 C214.661133,79.9119406 214.661133,88.0725007 214.661133,100.935782 C214.637695,108.961667 221.500326,112.974609 235.249023,112.974609 C248.997721,112.974609 301.558594,112.974609 392.931641,112.974609 C404.223307,115.863932 412.248372,122.607422 417.006836,133.205078 C424.144531,149.101563 427.411133,150.295898 442.526367,150.295898 C452.60319,150.295898 483.615087,150.295898 535.562058,150.295898" id="h3"></path>
            <path d="M535,60.7851562 L404.616211,60.8876953 C390.890951,59.9176432 384.02832,61.6529948 384.02832,66.09375 C384.02832,72.7548828 382.658928,92.0179149 384.02832,99.2285156 C384.941249,104.035583 387.909022,108.617614 392.931641,112.974609 C404.223307,115.863932 412.248372,122.607422 417.006836,133.205078 C424.144531,149.101562 427.411133,150.295898 442.526367,150.295898 C452.60319,150.295898 483.615087,150.295898 535.562058,150.295898" id="h4"></path>
            <path d="M535,0.48046875 L336.126953,0.48046875 C327.805664,1.3577474 321.711426,2.70865885 317.844238,4.53320313 C312.043457,7.27001953 266.780273,9.08203125 259.854492,9.08203125 C287.849284,21.4726562 311.024089,27.6679688 329.378906,27.6679688 C347.733724,27.6679688 416.274089,27.6679688 535,27.6679688" id="h1"></path>
        </g>
    </g>
</svg>