<?xml version="1.0" encoding="UTF-8"?>
<svg width="468px" height="159px" viewBox="0 0 468 159" version="1.1" xmlns="http://www.w3.org/2000/svg" xmlns:xlink="http://www.w3.org/1999/xlink">
    <!-- Generator: Sketch 58 (84663) - https://sketch.com -->
    <title>Group 6</title>
    <desc>Created with Sketch.</desc>
    <g id="Page-1" stroke="none" stroke-width="1" fill="none" fill-rule="evenodd">
        <g id="Group-6" transform="translate(0.601924, 1.408203)" fill="#FFFFFF">
            <path d="M466.398076,74.1035156 L0,74.1035156 C0.280357946,28.25 8.39970359,5.32324219 24.3580369,5.32324219 C40.3163703,5.32324219 187.66305,3.54882812 466.398076,0" id="Path-13" stroke="#000000"></path>
            <path d="M466.398076,119.735352 L3.19104473,119.735352 L3.19104473,151.493164 C3.97164369,155.064128 6.19234681,156.849609 9.85315411,156.849609 C13.5139614,156.849609 165.695602,156.849609 466.398076,156.849609" id="Path-17" stroke="#000000"></path>
            <path d="M466.398076,119.735352 C458.646763,119.735352 5.22742168,118.552734 3.18786165,119.735352 C16.5623826,112.546875 26.6588182,112.546875 26.6588182,97.6337891 C26.6588182,87.6917318 26.6588182,79.8483073 26.6588182,74.1035156 L466.398076,74.1035156" id="Shape" stroke="#000000"></path>
            <path d="M133.101201,74.103389 C142.057907,75.0653875 146.53626,79.8574219 146.53626,88.4794922 C146.53626,101.412598 147.824346,119.735352 113.464482,119.735352 C79.1046189,119.735352 3.18786165,119.735352 3.19104473,119.735352 C19.7760057,111.274902 26.5338182,112.549316 26.5338182,99.1391602 C26.5338182,90.199056 26.5754848,81.8537989 26.6588182,74.103389 L133.101201,74.103389 Z" id="h4" stroke="#000000"></path>
            <path d="M466.730748,74.1035156 L266.654424,74.1035156 C264.283004,104.52474 273.328415,119.735352 293.790654,119.735352 C314.252894,119.735352 371.788701,119.735352 466.398076,119.735352" id="h6" stroke="#000000"></path>
            <path d="M466.398076,74.1035156 L404.061906,74.1035156 C404.014535,96.3261719 411.243128,107.651042 425.747685,108.078125 C440.252243,108.505208 453.802373,108.505208 466.398076,108.078125" id="h7" stroke="#000000"></path>
            <polyline id="h3" stroke="#000000" points="466.398076 0 356.853154 0 359.767217 41.609375 466.398076 41.609375"></polyline>
            <path d="M199.398076,3.71484375 C188.859013,29.0169271 187.150029,48.8313802 194.271123,63.1582031 C194.54439,63.1582031 243.486447,63.1582031 341.097295,63.1582031 C350.002071,62.6621094 356.225378,55.4791667 359.767217,41.609375 C363.309055,27.7395833 363.309055,13.8697917 359.767217,0 L199.398076,3.71484375 Z" id="h2" stroke="#000000"></path>
            <path d="M7.81653301,63.1582031 L179.161748,63.1582031 C175.928675,33.5579427 178.493128,15.6315104 186.855107,9.37890625 C186.855107,9.37890625 133.43779,10.0480143 26.6031541,11.3862305 C22.1962531,11.3100586 18.6070604,13.9617513 15.835576,19.3413086 C11.6783494,27.4106445 8.55920879,49.9394531 7.81653301,56.5488281 C7.32141582,60.9550781 7.32141582,63.1582031 7.81653301,63.1582031 Z" id="h1"></path>
        </g>
    </g>
</svg>