<?xml version="1.0" encoding="UTF-8"?>
<svg width="629px" height="215px" viewBox="0 0 629 215" version="1.1" xmlns="http://www.w3.org/2000/svg" xmlns:xlink="http://www.w3.org/1999/xlink">
    <!-- Generator: Sketch 64 (93537) - https://sketch.com -->
    <title>KRAXLTOGO</title>
    <desc>Created with Sketch.</desc>
    <g id="Page-1" stroke="none" stroke-width="1" fill="none" fill-rule="evenodd">
        <g id="KRAXLTOGO" transform="translate(1.292433, 0.687396)" fill="#FFFFFF" stroke="#000000">
            <path d="M627.707567,213.212982 L15.954287,208.402755 C6.34200291,205.731088 1.53586088,200.885116 1.53586088,193.864839 C1.53586088,186.844563 4.28722674,181.299915 9.78995846,177.230895 C18.0881772,177.230895 22.2372865,171.534152 22.2372865,160.140666 C22.2372865,148.747179 16.7722628,137.97593 5.84221546,127.826918 C1.94740515,124.047597 0,120.32343 0,116.654416 C0,112.985403 11.3741849,91.0362864 34.1225547,50.8070669 C36.8865811,46.6457381 40.6822979,44.5650737 45.5097052,44.5650737 C50.3371125,44.5650737 59.6881368,43.523412 73.5627781,41.4400886 L34.1225547,116.654416 L286.041822,80.39571 C289.452241,104.568181 298.722895,116.654416 313.853784,116.654416 C328.984672,116.654416 385.228356,114.468953 482.584837,110.098025 C504.525543,110.098025 515.495896,102.347717 515.495896,86.8470992 C515.495896,86.8470992 552.899786,86.8470992 627.707567,86.8470992" id="hangboard"></path>
            <rect id="h6" x="264.707567" y="138.312604" width="112" height="51" rx="25.5"></rect>
            <path d="M627.707567,188.312604 L563.076885,188.312604 C548.513513,188.312604 536.707567,176.895865 536.707567,162.812604 C536.707567,148.729343 548.513513,137.312604 563.076885,137.312604 L627.707567,137.312604" id="h10"></path>
            <circle id="h7" cx="351.707567" cy="164.312604" r="25"></circle>
            <rect id="h5" x="44.7075672" y="139.312604" width="192" height="51" rx="25.5"></rect>
            <rect id="h9" transform="translate(462.711372, 157.899759) rotate(-5.000000) translate(-462.711372, -157.899759) " x="406.711372" y="132.399759" width="112" height="51" rx="25.5"></rect>
            <circle id="h8" cx="431.707567" cy="160.312604" r="25"></circle>
            <circle id="h4" cx="249.707567" cy="117.312604" r="25"></circle>
            <polyline id="h3" points="627.707567 0 515.495896 0 515.495896 86.8470992 627.707567 86.8470992"></polyline>
            <path d="M515.495896,0 L515.495896,86.8470992 C517.326245,100.919146 506.355892,108.669454 482.584837,110.098025 C458.813783,111.526596 402.570098,113.931673 313.853784,117.313257 C298.406641,115.81887 289.135987,103.513021 286.041822,80.39571 C282.947656,57.2783991 290.057633,43.1487266 307.371752,38.0066924 C315.595629,31.3595797 319.707567,18.6906822 319.707567,0 C319.707567,0 384.970343,0 515.495896,0 Z" id="h2"></path>
            <path d="M73.5627781,41.4400886 L34.1225547,116.654416 L286.041822,80.39571 C301.454961,50.3296852 308.564938,36.2000127 307.371752,38.0066924 C305.581974,40.716712 106.023923,62.13844 91.7555635,61.4460224 C86.6850783,59.8575789 80.6208165,53.1889343 73.5627781,41.4400886 Z" id="h1"></path>
        </g>
    </g>
</svg>