<?xml version="1.0" encoding="UTF-8"?>
<svg width="585px" height="269px" viewBox="0 0 585 269" version="1.1" xmlns="http://www.w3.org/2000/svg" xmlns:xlink="http://www.w3.org/1999/xlink">
    <title>LATTICETEST</title>
    <g id="Page-1" stroke="none" stroke-width="1" fill="none" fill-rule="evenodd">
        <g id="LATTICETEST" transform="translate(0.841453, 1.281261)">
            <polyline id="board" stroke="#000000" fill="#FFFFFF" points="583.158547 149.766456 37.7239529 149.766456 37.7239529 198.962191 583.158547 198.962191"></polyline>
            <path d="M583.158547,266.738906 L28.1962248,266.738906 C23.462395,266.702579 20.5457264,264.39383 19.4462189,259.812661 C18.3467114,255.231491 16.1710115,245.195884 12.9191191,229.70584 C11.9579436,218.625842 13.8665354,210.755952 18.6448945,206.096171 C23.4232536,201.436389 29.7829397,199.058396 37.7239529,198.962191 L583.158547,198.962191" id="h2" stroke="#000000" fill="#FFFFFF"></path>
            <path d="M583.158547,0 L16.7044547,0 C5.56815156,2.34931635 0,25.1172179 0,68.3037047 C0,107.312734 0.998098645,118.685759 16.7044547,131.931938 C27.1753587,140.762725 34.1818581,146.707564 37.7239529,149.766456 L583.158547,149.766456" id="h1" stroke="#000000" fill="#FFFFFF"></path>
            <line x1="583.158547" y1="74.8832279" x2="-5.68434189e-14" y2="74.8832279" id="board" stroke="#979797"></line>
        </g>
    </g>
</svg>