<?xml version="1.0" encoding="UTF-8"?>
<svg width="587px" height="426px" viewBox="0 0 587 426" version="1.1" xmlns="http://www.w3.org/2000/svg" xmlns:xlink="http://www.w3.org/1999/xlink">
    <title>MAKAKBOARD5</title>
    <g id="Page-1" stroke="none" stroke-width="1" fill="none" fill-rule="evenodd">
        <g id="MAKAKBOARD5" transform="translate(0.527862, 1.003118)" fill="#FFFFFF">
            <path d="M585.472138,0.336374371 C562.92473,0.336374371 534.851369,-6.5204363 506.674793,41.6817843 C489.763095,65.4603682 472.393856,77.3496601 454.567076,77.3496601 C427.826907,77.3496601 394.072253,69.9061536 386.213187,68.4283804 C378.354122,66.9506073 320.146554,46.2849023 263.933618,74.0201161 C234.493894,83.0512339 215.423143,91.6616352 194.668875,82.5624345 C173.914607,73.4632339 150.363498,61.545779 141.785055,54.5930487 C133.206612,47.6403183 119.080506,45.0514187 99.4067378,46.8263499 C58.6796403,55.9539283 31.4133921,81.1822176 17.6079931,122.511218 C-3.10010545,184.504718 -5.05487519,241.177634 9.17949483,280.206358 C23.4138648,319.235082 58.5752124,397.563398 82.8993105,412.652431 C107.223409,427.741464 112.39306,425.507678 143.57927,420.354978 C174.76548,415.202279 246.103675,401.659077 314.913311,396.318595 C383.722948,390.978112 431.398639,384.868775 488.133093,384.868775 C544.867546,384.868775 569.448969,388.114921 585.472138,388.114921" id="board" stroke="#000000"></path>
            <path d="M445.227524,281.807058 C507.877495,280.64707 539.20248,285.986087 539.20248,297.824112 C539.20248,315.581148 521.299301,334.494126 476.041904,336.750517 C430.784507,339.006908 392.380686,343.626287 374.289754,336.750517 C356.198822,329.874747 346.564074,320.421404 346.564074,310.570053 C346.564074,300.718702 356.28499,288.518281 380.037363,285.845581 C395.872278,284.06378 417.602331,282.717606 445.227524,281.807058 Z" id="h8" stroke="#000000"></path>
            <ellipse id="h7" stroke="#000000" cx="250.972138" cy="314.996882" rx="24.5" ry="25"></ellipse>
            <path d="M133.509108,298.664456 C111.982503,302.238038 96.9511696,310.139919 88.4151092,322.3701 C75.6110186,340.715372 88.6978507,340.925383 91.7513589,339.021568 C94.8048671,337.117754 113.135304,334.086068 130.85105,335.28978 C148.566797,336.493491 155.643931,337.809116 162.988619,337.151303 C170.333306,336.493491 179.878484,328.844595 179.878484,322.3701 C179.878484,315.895605 180.182063,298.664456 159.68306,298.664456 C146.017058,298.664456 137.292407,298.664456 133.509108,298.664456 Z" id="h6" stroke="#000000"></path>
            <path d="M319.434083,203.053207 C330.241918,184.979981 357.071285,175.943368 399.922185,175.943368 C464.198535,175.943368 515.042523,171.279902 523.317981,189.498288 C531.593438,207.716673 457.561707,209.845088 399.922185,209.845088 C361.495838,209.845088 334.66647,207.581127 319.434083,203.053207 Z" id="h5" stroke="#000000"></path>
            <path d="M74.5951033,225.205063 C78.1390793,206.298751 92.0151826,194.606127 116.223413,190.127192 C152.535759,183.408788 160.993702,190.127192 167.202698,194.577987 C173.411694,199.028783 182.378581,205.751721 169.634672,209.845088 C156.890763,213.938454 135.256737,218.873136 113.504126,222.151435 C99.0023848,224.336967 86.0327107,225.354843 74.5951033,225.205063 Z" id="h4" stroke="#000000"></path>
            <path d="M585.472138,0.515498723 C557.982259,-0.857837808 537.729641,5.66579727 524.714283,20.086404 C505.191247,41.717314 488.074317,65.6851093 488.074317,77.1205686 C488.074317,88.5560278 509.509395,102.905922 536.773227,105.526994 C554.949115,107.274376 571.182085,108.203339 585.472138,108.313884" id="h3"></path>
            <path d="M330.097007,62.2775714 C295.08398,62.2775714 272.401265,71.3421537 255.655152,77.3496601 C238.909039,83.3571666 276.85132,84.6488963 297.061494,84.6488963 C310.534943,84.6488963 340.077058,84.6488963 385.68784,84.6488963 C395.165552,84.1420015 399.904407,81.7089227 399.904407,77.3496601 C399.904407,70.8107663 365.110034,62.2775714 330.097007,62.2775714 Z" id="h2"></path>
            <path d="M194.994581,82.7691877 C168.100007,70.9378254 150.363498,61.545779 141.785055,54.5930487 C133.206612,47.6403183 119.080506,45.0514187 99.4067378,46.8263499 C58.6796403,55.9539283 31.4133921,81.1822176 17.6079931,122.511218 C-3.10010545,184.504718 9.4987395,184.326155 17.6079931,189.63373 C25.7172467,194.941306 61.0514612,127.498406 110.158489,143.258793 C159.265516,159.019179 193.323043,115.245786 198.105631,103.25405 C201.294023,95.2595591 200.257006,88.4312717 194.994581,82.7691877 Z" id="h1"></path>
        </g>
    </g>
</svg>