<?xml version="1.0" encoding="UTF-8"?>
<svg width="591px" height="377px" viewBox="0 0 591 377" version="1.1" xmlns="http://www.w3.org/2000/svg" xmlns:xlink="http://www.w3.org/1999/xlink">
    <title>MAKAKBOARD3</title>
    <g id="Page-1" stroke="none" stroke-width="1" fill="none" fill-rule="evenodd">
        <g id="MAKAKBOARD3" transform="translate(0.691690, 0.938516)" fill="#FFFFFF">
            <path d="M589.30831,58.4875259 C534.155263,58.4875259 365.755597,37.8925368 332.654805,37.8925368 C299.554013,37.8925368 280.943363,67.6994287 272.316889,74.8385905 C263.690414,81.9777523 263.179051,69.1382676 259.919296,43.9649411 C256.659541,18.7916145 236.97913,-6.10746368 166.716936,1.33955562 C36.6969692,21.5840676 -17.2725728,58.1162988 4.80831044,110.936249 C14.149255,129.333175 28.1298578,138.531638 46.7501188,138.531638 C74.6805102,138.531638 117.287305,122.741621 130.474708,131.810032 C143.662111,140.878443 153.407791,157.605859 141.941249,181.616704 C134.296888,197.623934 116.904513,224.029418 89.7641236,260.833155 C67.4563368,288.790796 66.4783749,313.277618 86.830238,334.29362 C117.358033,365.817625 163.901484,334.29362 250.717507,334.29362 C337.533531,334.29362 396.947961,330.058965 460.700374,346.875827 C503.201983,358.087069 546.071295,367.578736 589.30831,375.350828" id="board" stroke="#000000"></path>
            <path d="M115.120554,225.972518 L106.992506,279.717702 C105.275452,289.587806 109.399376,293.258966 119.364279,290.731184 C134.311634,286.939511 162.287663,293.318833 169.668233,297.699235 C177.048803,302.079638 205.041594,335.398475 189.126341,338.116395 C178.516172,339.928342 162.223728,343.066868 140.249009,347.531974 C114.049528,350.02727 96.6695617,345.917662 88.1091106,335.203151 C75.268434,319.131385 73.0131454,315.540389 73.0131454,309.450598 C73.0131454,303.360807 70.3046256,287.701996 82.6375725,270.547143 C90.8595371,259.110574 101.687197,244.252366 115.120554,225.972518 Z" id="h7"></path>
            <path d="M589.30831,121.778055 C513.834319,123.443438 456.088169,131.465626 416.069859,145.844619 C376.05155,160.223612 344.88975,171.807108 322.584458,180.595108 C389.225638,139.912775 432.690538,116.004316 452.979159,108.869729 C483.412091,98.167848 552.502204,83.9886629 589.30831,83.9886629" id="h5" stroke="#000000"></path>
            <path d="M284.332575,132.291885 C250.320934,123.993767 222.767886,125.585923 201.673431,137.068355 C180.578977,148.550786 164.361247,169.831864 153.020242,200.911588 C185.213254,187.194313 208.974334,176.33041 224.303482,168.319878 C239.632631,160.309346 259.642329,148.300015 284.332575,132.291885 Z" id="h4" stroke="#000000"></path>
            <path d="M301.550025,155.341647 C227.601943,185.742319 185.033865,206.097444 173.845791,216.407022 C157.06368,231.87139 133.852323,250.3594 115.120554,279.717702 C115.120554,279.717702 234.293328,219.710347 256.80439,211.944746 C271.811764,206.767679 286.726976,187.89998 301.550025,155.341647 Z" id="h6" stroke="#000000"></path>
            <path d="M169.668233,279.717702 C298.755896,215.147837 386.774077,178.97567 433.722775,171.201203 C504.145822,159.539503 493.834882,156.280731 544.603975,156.280731 C595.373067,156.280731 578.168807,171.277057 568.973777,180.595108 C559.778748,189.913159 533.182869,196.295613 494.856211,199.073844 C481.646041,200.031426 444.701838,203.661108 387.202946,217.999216 C351.392653,226.928986 278.881082,247.501815 169.668233,279.717702 Z" id="h8" stroke="#000000"></path>
            <path d="M589.30831,226.479622 C568.604082,228.666553 552.728902,238.526784 541.682772,256.060316 C525.113577,282.360613 502.953593,310.54578 522.318182,307.823078 C541.682772,305.100376 559.324876,289.620037 589.30831,289.620037" id="h11" stroke="#000000"></path>
            <path d="M464.65787,246.784285 L498.053049,243.0374 C509.206793,242.567856 514.783665,245.369162 514.783665,251.441318 C514.783665,260.549552 515.05713,295.613594 489.012196,295.613594 C462.967261,295.613594 455.946384,264.557821 455.946384,256.644776 C455.946384,251.369412 458.850213,248.082582 464.65787,246.784285 Z" id="h10" stroke="#000000"></path>
            <path d="M439.176271,297.699235 C428.479335,270.897829 410.617638,257.497125 385.591179,257.497125 C348.051491,257.497125 311.150522,262.945202 301.550025,266.122711 C295.149693,268.24105 256.836358,278.071345 186.610017,295.613594 C248.656905,293.889298 296.253052,293.164004 329.398458,293.437712 C362.543864,293.71142 399.136469,295.131928 439.176271,297.699235 Z" id="h9" stroke="#000000"></path>
            <path d="M589.30831,60.2772441 C520.81352,63.2309933 478.667816,63.2309933 462.871198,60.2772441 C439.176271,55.8466203 353.513662,37.8925368 335.644502,37.8925368 C317.775342,37.8925368 288.060708,56.5433564 277.556429,71.7664432 C270.553577,81.9151677 278.551442,89.3752693 301.550025,94.146748 C354.050559,95.5228378 401.90419,92.1368094 445.110916,83.9886629 C488.317643,75.8405164 536.383441,71.7664432 589.30831,71.7664432" id="h3"></path>
            <path d="M259.848752,56.1535709 C261.032917,26.6337121 247.308802,10.3278367 218.676409,7.23594478 C175.727819,2.59810691 122.71931,8.26265552 96.842094,16.8537646 C70.9648779,25.4448738 -18.2832211,46.838479 4.80831044,110.936249 C4.80831044,110.936249 125.12742,7.23594478 186.610017,58.2550114 C194.15261,69.7121364 204.044858,74.4269844 216.286759,72.3995553 C229.201687,71.9359889 239.798293,71.0374918 248.076576,69.7040642 C256.354859,68.3706365 260.278918,63.8538054 259.848752,56.1535709 Z" id="h1"></path>
            <path d="M4.80831044,110.936249 C67.4657983,64.7891101 112.200737,42.4905247 139.013128,44.0404928 C179.231713,46.3654451 190.691429,53.9861221 188.650723,68.590779 C186.610017,83.1954359 175.870768,95.8897218 141.551833,95.8897218 C107.232898,95.8897218 100.808429,85.4132316 60.2378231,91.5568052 C33.1907528,95.6525209 14.7142486,102.112336 4.80831044,110.936249 Z" id="h2" stroke="#000000"></path>
        </g>
    </g>
</svg>