<?xml version="1.0" encoding="UTF-8"?>
<svg width="546px" height="303px" viewBox="0 0 546 303" version="1.1" xmlns="http://www.w3.org/2000/svg" xmlns:xlink="http://www.w3.org/1999/xlink">
    <title>MAKAKBOARD2</title>
    <g id="Page-1" stroke="none" stroke-width="1" fill="none" fill-rule="evenodd">
        <g id="MAKAKBOARD2" transform="translate(1.447146, 1.379475)" fill="#FFFFFF" stroke="#000000">
            <path d="M543.552854,260.839341 C508.657571,261.583396 479.863801,271.330796 457.171544,290.081541 C457.171544,290.081541 352.082495,282.074579 299.483697,277.898112 C246.8849,273.721644 256.786835,306.959321 181.378171,299.98394 C131.105728,295.333686 102.558829,294.298623 95.7374738,296.878751 C72.7274789,294.016801 61.2224814,282.003665 61.2224814,260.839341 C61.2224814,239.675017 62.4986457,222.094084 65.0509742,208.096541 L61.2224814,171.645117 L60.2404,154.253921 L51.9456655,129.330321 L43.1165353,108.816627 L55.8358564,56.1557513 L543.552854,55.3662073" id="board"></path>
            <path d="M543.552854,112.911109 C495.664283,111.473789 462.909571,107.27023 445.288719,100.300432 C418.857442,89.8457343 482.052854,68.91487 543.552854,68.91487" id="h5"></path>
            <path d="M356.932602,106.998762 C301.868759,101.251408 265.091377,83.8403869 249.730432,83.8403869 C249.730432,83.8403869 272.327935,69.723198 274.198391,55.3662073 C274.198391,55.3662073 364.589768,80.8387958 430.441448,73.9428321 C418.144779,99.8116874 393.64183,110.830331 356.932602,106.998762 Z" id="h4"></path>
            <path d="M274.198391,55.3662073 C270.331589,67.000522 262.175603,76.4919152 249.730432,83.8403869 C249.730432,83.8403869 124.184737,90.7400992 90.4314252,97.1062825 C67.9292176,101.350405 52.1575876,105.253853 43.1165353,108.816627 C32.1208424,92.1862478 23.8285877,80.4874358 18.2397713,73.7201912 C9.85654662,63.5693244 0.152396435,52.1330645 0.152396435,39.9607242 C28.7951557,33.1692287 62.2636781,29.773481 100.557964,29.773481 C121.377771,29.773481 177.691658,32.2762966 203.092998,36.844895 C217.902666,39.5085113 241.604463,45.6822821 274.198391,55.3662073 Z" id="h3"></path>
            <path d="M0.152396435,39.9607242 C-1.30659074,18.105522 7.71027533,6.25819301 27.2029947,4.41873706 C56.4420736,1.65955313 181.54274,-3.966752 206.04136,4.41873706 C222.373773,10.0090631 246.712841,21.1066634 279.058564,37.7115379 C276.46538,47.5043561 274.845322,53.3892459 274.198391,55.3662073 C274.198391,55.3662073 244.445504,44.749401 206.04136,37.7115379 C184.533533,33.7700585 160.098108,32.4232819 137.175394,31.1213353 C123.306637,30.3336285 111.592219,29.8276629 101.710296,29.773481 C76.6656312,29.6361628 61.927033,30.6195123 47.8608934,32.1894951 C41.560447,32.8927153 35.2291812,33.3022934 28.4532982,34.4918754 C13.2702453,37.1574298 3.83661134,38.9803795 0.152396435,39.9607242 Z" id="h1"></path>
            <path d="M51.9456655,129.330321 C71.5620197,120.727009 88.1251113,116.980349 101.63494,118.090339 C121.899684,119.755324 139.529282,125.615621 139.529282,134.202305 C139.529282,142.788989 130.331811,152.206559 121.758315,152.206559 C113.184819,152.206559 106.959195,149.171964 92.244204,149.171964 C77.529213,149.171964 68.5351345,151.028565 60.2404,154.253921 C60.2404,154.253921 57.4754885,145.946054 51.9456655,129.330321 Z" id="h6"></path>
            <path d="M406.489265,131.618134 C346.127879,133.73841 306.155632,137.554352 286.572526,143.06596 C257.197866,151.333373 220.931872,153.160643 202.275276,150.360301 C189.837545,148.493406 174.675239,146.061959 156.788358,143.06596 C161.374176,126.288701 186.700248,119.363465 232.766572,122.29025 C278.832897,125.217035 336.740461,128.32633 406.489265,131.618134 Z" id="h7"></path>
            <path d="M543.552854,68.91487 C518.77527,69.4586532 481.071468,71.1346406 430.441448,73.9428321 C379.811428,76.7510236 327.730409,70.5588153 274.198391,55.3662073 L279.058564,37.7115379 C298.045214,46.4320806 323.608676,50.792352 355.74895,50.792352 C403.959361,50.792352 486.653742,41.771611 512.73875,41.771611 C530.128756,41.771611 540.400124,41.771611 543.552854,41.771611" id="h2"></path>
            <path d="M61.2224814,171.645117 C100.121247,166.972613 118.872909,172.696934 117.477466,188.818081 C116.082024,204.939228 98.6065264,211.365381 65.0509742,208.096541 L61.2224814,171.645117 Z" id="h8"></path>
            <path d="M175.201225,170.070192 C159.732268,170.070192 133.989626,173.502507 133.989626,183.286887 C133.989626,193.071266 134.094371,202.561685 156.788358,197.56064 C179.482344,192.559595 181.209424,196.34769 192.571974,200.051157 C203.934525,203.754625 213.45175,203.376583 215.590048,195.393967 C217.728347,187.411351 212.15665,178.410941 204.145864,175.355817 C199.220763,173.4775 190.670181,170.070192 175.201225,170.070192 Z" id="h9"></path>
            <path d="M543.552854,161.521631 C455.090634,156.566569 387.268329,161.412227 340.08594,176.058604 C292.903552,190.704982 261.945525,194.082625 247.21186,186.191532 C240.893419,176.665455 246.417918,169.733256 263.785357,165.394935 C289.836514,158.887454 355.815079,145.602247 403.444135,141.372167 C435.19684,138.552113 481.899746,136.965254 543.552854,136.61159" id="h10"></path>
            <path d="M244.683601,255.647051 C221.271243,252.314856 195.397893,249.193024 167.063552,246.281553 C124.56204,241.914348 72.505788,248.233664 65.6009935,253.355362 C58.696199,258.47706 71.128899,222.64495 113.958628,220.517275 C156.788358,218.3896 185.766288,222.854475 198.016158,227.176204 C203.935807,229.264644 215.218789,232.426238 228.903428,240.657152 C232.366296,242.739967 237.626353,246.972703 244.683601,253.355362" id="h11"></path>
            <path d="M260.471069,229.092855 C279.97409,211.301164 317.541601,198.382186 373.173603,190.33592 C428.805604,182.289654 461.0445,187.804076 469.89029,206.879185 C431.796126,213.156785 399.55723,217.520303 373.173603,219.969739 C346.789975,222.419175 310.032227,225.460214 262.900358,229.092855" id="h12"></path>
            <path d="M543.552854,178.141426 C504.382006,180.275748 479.074784,194.539595 467.63119,220.932968 C467.63119,220.932968 522.508381,211.347928 543.552854,211.347928" id="h13"></path>
            <path d="M267.129334,253.29902 C284.71165,244.179651 310.750268,237.865448 345.245188,234.356411 C379.740108,230.847374 411.028679,229.092855 439.110902,229.092855 C449.485175,229.885831 454.672311,231.64035 454.672311,234.356411 C454.672311,238.430502 435.161023,247.891503 416.723536,247.891503 C404.431878,247.891503 354.567144,249.694009 267.129334,253.29902 Z" id="h14"></path>
        </g>
    </g>
</svg>