<?xml version="1.0" encoding="UTF-8"?>
<svg width="624px" height="282px" viewBox="0 0 624 282" version="1.1" xmlns="http://www.w3.org/2000/svg" xmlns:xlink="http://www.w3.org/1999/xlink">
    <title>MAMMUTDIAMOND</title>
    <g id="Page-1" stroke="none" stroke-width="1" fill="none" fill-rule="evenodd">
        <g id="MAMMUTDIAMOND" transform="translate(312.500000, 141.500000) scale(-1, 1) translate(-312.500000, -141.500000) translate(1.000000, 1.000000)" stroke="#292929">
            <path d="M0,2.77 L271.77,2.77 C279.123291,2.76568482 286.469742,2.32155848 293.77,1.44 L293.77,1.44 C301.069809,0.553486436 308.416558,0.10999927 315.77,0.10999927 L574,0.10999927 C575.336116,0.10999927 576.510342,0.996036775 576.88,2.28 L587.3,38.55 C587.472474,39.1529944 587.352102,39.801975 586.974854,40.3030075 C586.597606,40.8040399 586.007175,41.0990944 585.38,41.1 L581.3,41.1 C580.982896,41.0890368 580.679407,41.2292128 580.482159,41.477745 C580.284911,41.7262772 580.217314,42.0536701 580.3,42.36 L606.84,139.26 C606.960664,139.709218 607.375131,140.015924 607.84,140 L614.34,140 C615.238187,139.998079 616.027491,140.595169 616.27,141.46 L622.66,164.46 C622.734677,164.680516 622.734677,164.919484 622.66,165.14 L609.5,194.36 C609.176339,195.080025 608.459422,195.542299 607.67,195.54 L576,195.54 C566.830988,195.53288 558.239434,200.015429 553,207.54 L510.73,268.25 C505.490566,275.774571 496.899012,280.25712 487.73,280.25 L327.37,280.25 C319.089956,280.253663 311.232885,276.5924 305.91,270.25 L282.12,241.86 C279.435833,238.661721 275.475372,236.813262 271.3,236.81 L169,236.81 C165.633578,236.808717 162.377622,238.01108 159.82,240.2 L120.88,273.53 C115.806834,277.873206 109.348357,280.26 102.67,280.26 L0,280.26" id="Path" fill="#FFFFFF"></path>
            <path d="M0,65.82 L242.23,65.82 L242.23,65.82 C250.229179,65.8186502 257.830739,62.3318634 263.05,56.27 L296,18.08 C305.777051,6.72152885 320.013166,0.180216232 335,0.16 L392.24,0.16 L574,0.16 L576.88,2.28 L587,37.6408691 L585.38,41.0999693 L350.92,41.0999693 C342.241242,41.0987061 334.106294,45.3266402 329.12,52.43 L322,62.5 C315.301093,72.0519718 304.366856,77.74 292.7,77.74 L0,77.74" id="h1" fill="#FFFFFF"></path>
            <path d="M0,65.82 L239.6,65.82 C248.485927,66.0322075 256.919729,63.8977934 264,54.7382813 L286.78,28.7407227 C296.145417,17.5096029 303.048014,10.6432292 307.487793,8.14160156 C311.927572,5.63997396 319.451416,3.1015625 330.059326,0.526367187 C314.958252,-1.27675648e-15 309.062355,-0.297849653 292.66,1.57 L292.66,1.57 L286.78,2.91 C280.113635,4.43625331 274.025729,7.84464742 269.24,12.73 L256.28,26 C251.888319,30.48257 245.87537,33.0059898 239.6,33 L0,33" id="h2" fill="#FFFFFF"></path>
            <path d="M607.85,140 L507.77,140 C497.275011,139.992107 487.380952,135.102365 481,126.77 L455.68,93.77 C449.292635,85.4292667 439.385535,80.5385603 428.88,80.54 L319.35,80.54 C314.931722,80.54 311.35,76.958278 311.35,72.54 C306.725925,75.3591351 301.064252,77.3285798 293.5,77.74 L106.81,78.16 L106.81,132.41 L422.597656,132.52 C434.713927,132.792763 441.385792,139.360649 445.755859,148.59 C452.722314,159.977793 461.497791,165.750749 472.449219,164.77 L622.716008,164.77 L616.27,141.46 C615.441162,140.185 616.830322,140 607.85,140 Z" id="h3" fill="#FFFFFF"></path>
            <path d="M360.12,125.05 C349.74257,125.05 341.33,116.63743 341.33,106.26 C341.33,95.8825696 349.74257,87.47 360.12,87.47 L377.12,87.47 C387.49743,87.47 395.91,95.8825696 395.91,106.26 C395.91,116.63743 387.49743,125.05 377.12,125.05 L360.12,125.05 Z" id="h4" fill="#FFFFFF"></path>
            <path d="M260.27,132.41 C257.603781,132.412098 255.190969,133.990268 254.120593,136.432199 C253.050217,138.874129 253.524746,141.717912 255.33,143.68 L292.87,184.47 C299.727609,191.929229 309.397533,196.172969 319.53,196.17 L510.77,196.17 C520.132874,196.169497 528.784992,191.176424 533.47,183.07 L539.47,172.77 C540.425043,171.119953 540.426032,169.085452 539.472594,167.434477 C538.519156,165.783503 536.756503,164.767504 534.85,164.77 L622.558105,165.665161 L609.703369,194.022705 C608.952637,195.14624 608.301955,195.547288 606.793701,195.579346 L575.147217,195.579346 C565.802899,195.81783 559.40472,200.117818 554.121826,205.955322 L513.032471,264.967041 C506.438989,274.661899 497.987263,280.844815 485.95459,280.26 L326.996826,280.26 C320.622236,279.560845 314.374504,278.613157 309.954834,274.083984 L283.942383,244.022217 C280.413253,240.584454 243.653913,196.861679 242.966309,192.525635 L233.958252,181.032227 C226.686618,174.564586 219.336406,168.220653 208.01416,168.129982 L171.8,168.129982 L171.8,132.41 L260.27,132.41 Z" id="h5" fill="#FFFFFF"></path>
            <polyline id="h6" fill="#FFFFFF" points="0 132.41 69.24 132.41 69.24 168.13 0 168.13"></polyline>
            <path d="M351.05,255.32 C340.838693,255.084447 332.683561,246.739024 332.683561,236.525 C332.683561,226.310976 340.838693,217.965553 351.05,217.73 L474.4,217.73 C481.21816,217.572719 487.586799,221.120229 491.042091,227.00011 C494.497384,232.87999 494.497384,240.17001 491.042091,246.04989 C487.586799,251.929771 481.21816,255.477281 474.4,255.32 L351.05,255.32 Z" id="h7" fill="#FFFFFF"></path>
            <path d="M0,280.26 L101.2,280.26 C108.666944,280.744587 115.411079,277.637653 121.560993,271.578125 L153.890625,244.9 C157.59925,241.006467 161.272004,237.079502 168,236 L271.3,236.81 C275.374799,236.627983 278.773868,239.192377 282.15,241.85 L241.93,191.15 C243.246709,192.821935 243.493534,195.098792 242.565698,197.014049 C241.637863,198.929307 239.698164,200.146914 237.57,200.15 L138.51,200.15 C127.930578,200.151028 118.054014,205.44781 112.2,214.26 L101.2,230.79 C95.3447407,239.600821 85.4689707,244.897177 74.89,244.9 L0,244.9" id="h8" fill="#FFFFFF"></path>
            <path d="M0,132.41 L423.18,132.41 C430.65301,132.413296 437.647408,136.088066 441.89,142.24 L450.65,154.94 C454.888226,161.091684 461.879675,164.766868 469.35,164.77 L622.77,164.77" id="Path"></path>
            <path d="M0,168.129982 L205.5,168.129982 C216.992864,168.118705 227.859755,173.364282 235,182.37 L282.15,241.85" id="Path"></path>
            <polyline id="Path" points="106.81 132.41 106.81 77.73 59.83 92.53 0 92.53"></polyline>
            <polyline id="Shape" fill="#FFFFFF" points="0 92 60 92 60 132 0 132"></polyline>
            <path d="M59.83,92.52 L59.83,132.41" id="Path"></path>
            <path d="M179.79,126.78 L179.79,84.6713765 C179.79,84.1790828 180.237715,83.78 180.79,83.78 L305.49,83.78 C306.042285,83.78 306.49,84.1790828 306.49,84.6713765 L306.49,126.78 L179.79,126.78 Z" id="Path" fill="#FFFFFF"></path>
            <polyline id="Path" points="306.13 84.51 264.34 103.03 214.02 103.03 180.16 84.51"></polyline>
            <path d="M214.02,103.03 L214.02,126.78" id="Path"></path>
            <path d="M264.34,103.03 L264,126.78" id="Path"></path>
            <path d="M171.8,168.13 L171.8,132.41" id="Path"></path>
        </g>
    </g>
</svg>