<?xml version="1.0" encoding="UTF-8"?>
<svg width="666px" height="276px" viewBox="0 0 666 276" version="1.1" xmlns="http://www.w3.org/2000/svg" xmlns:xlink="http://www.w3.org/1999/xlink">
    <title>MAXONEFINGER</title>
    <g id="Page-1" stroke="none" stroke-width="1" fill="none" fill-rule="evenodd">
        <g id="MAXONEFINGER" transform="translate(0.999706, 1.113922)" fill="#FFFFFF" stroke="#000000">
            <path d="M0,58.6080939 C0.743944037,39.4600833 9.42239412,29.7969108 26.0353502,29.6185764 C42.6483064,29.4402421 73.9375415,29.5294093 119.903056,29.8860779 C136.161801,30.8754028 144.291173,26.2465642 144.291173,15.9995621 C144.291173,5.75256005 158.174497,0.629058999 185.941144,0.629058999 L185.000294,58.6080939 L0,58.6080939 Z" id="h1"></path>
            <path d="M665.000294,261.886078 L42.0002938,261.886078 C14.0002938,263.816212 0.000293831405,255.479594 0.000293831405,236.876224 C0.000293831405,208.971169 0.000293831405,80.5238521 0.000293831405,62.8939453 C0.000293831405,45.2640386 0.000293831405,45.2640386 48.817323,45.2640386 C81.362009,45.2640386 109.589666,45.2640386 133.500294,45.2640386 C148.04669,44.6066522 155.319888,37.8501814 155.319888,24.994626 C155.319888,5.71129296 165.05202,1.45519152e-11 203.241362,1.45519152e-11 C228.700923,1.45519152e-11 382.620567,1.45519152e-11 665.000294,1.45519152e-11" id="board"></path>
            <circle id="h6" cx="378.500294" cy="200.386078" r="22"></circle>
            <rect id="h5" x="236.500294" y="178.386078" width="90" height="44" rx="22"></rect>
            <rect id="h4" x="36.5002938" y="178.386078" width="169" height="44" rx="22"></rect>
            <rect id="h3" x="31.5002938" y="88.3860779" width="379" height="55" rx="27.5"></rect>
            <rect id="h2" x="31.5002938" y="88.3860779" width="204" height="55" rx="27.5"></rect>
            <path d="M665.000294,221.886078 L451.000294,221.886078 C439.954599,221.886078 431.000294,212.931773 431.000294,201.886078 L431.000294,144.886078 C431.000294,133.840383 439.954599,124.886078 451.000294,124.886078 L665.000294,124.886078" id="board"></path>
            <path d="M665.000294,162.223637 L475.243289,162.223637 C464.208197,161.381445 458.690651,164.225831 458.690651,170.756794 C458.690651,177.287756 457.263268,208.739634 454.408502,265.112425 C453.818178,270.966464 457.545875,273.893483 465.591591,273.893483 C473.637306,273.893483 540.106874,273.893483 665.000294,273.893483" id="h7"></path>
            <path d="M185.941144,48.3860779 L185.941144,0.629058999 C190.921353,0.209686333 195.193518,7.27595761e-12 198.757638,7.27595761e-12 C202.321758,7.27595761e-12 220.219047,7.27595761e-12 252.449506,7.27595761e-12 L252.449506,48.3860779 L185.941144,48.3860779 Z" id="board"></path>
            <polygon id="board" points="274.542873 48 274.542873 1.45495333e-11 341.542873 1.45519152e-11 341.542873 48"></polygon>
            <polygon id="board" points="364.000294 48 364.000294 1.45495333e-11 431.000294 1.2143572e-11 430.499873 48.3860779"></polygon>
            <rect id="board" x="274.500294" y="30.3860779" width="67" height="36" rx="18"></rect>
            <polyline id="board" points="665.000294 48.3860779 630.000294 48.3860779 630.000294 2.59239215e-11 665.000294 1.86479639e-11"></polyline>
            <rect id="board" x="185.500294" y="30.3860779" width="67" height="36" rx="18"></rect>
            <polygon id="Path-5" points="452.509344 48 452.509344 1.53108019e-11 519.463506 1.53108019e-11 519.463506 48"></polygon>
            <polygon id="board" points="541.517558 48.3860779 541.517558 1.86479639e-11 608.574611 1.86479639e-11 608.574611 48.3860779"></polygon>
            <rect id="board" x="452.500294" y="30.3860779" width="67" height="36" rx="18"></rect>
            <path d="M665.000294,66.8860779 L648.500294,66.8860779 C638.283026,66.8860779 630.000294,58.6033458 630.000294,48.3860779 C630.000294,38.1688101 638.283026,29.8860779 648.500294,29.8860779 L665.000294,29.8860779" id="board"></path>
            <rect id="board" x="541.500294" y="30.3860779" width="67" height="36" rx="18"></rect>
            <rect id="board" x="363.500294" y="30.3860779" width="67" height="36" rx="18"></rect>
        </g>
    </g>
</svg>