<?xml version="1.0" encoding="UTF-8"?>
<svg width="923px" height="365px" viewBox="0 0 923 365" version="1.1" xmlns="http://www.w3.org/2000/svg" xmlns:xlink="http://www.w3.org/1999/xlink">
    <!-- Generator: Sketch 57.1 (83088) - https://sketch.com -->
    <title>MAXSPINCHSOLO</title>
    <desc>Created with Sketch.</desc>
    <g id="Page-1" stroke="none" stroke-width="1" fill="none" fill-rule="evenodd">
        <g id="MAXSPINCHSOLO" transform="translate(1.000000, 0.000000)" fill="#FFFFFF" stroke="#000000">
            <g id="Group-2" transform="translate(0.466480, 0.570012)">
                <path d="M921.53352,31.4143629 L597.931957,31.4143629 C571.957999,31.77504 549.394197,25.9111077 530.240551,13.822566 C511.086905,1.73402433 431.910473,-2.42548088 292.711254,1.34405037 L181.726879,1.34405037 C172.816723,-0.0908454636 164.875968,0.979467036 157.904613,4.55498787 C150.933259,8.1305087 103.860994,34.0510816 16.6878165,82.3167066 C-1.19369391,99.4221754 -4.70476161,118.692358 6.15461339,140.127253 C17.0139884,161.562149 54.8388582,226.482722 119.629223,334.888972 C128.883129,354.227514 149.582348,363.896785 181.726879,363.896785 C213.87141,363.896785 321.187165,363.896785 503.674145,363.896785 C512.128572,363.334285 519.707999,361.52504 526.412426,358.46905 C536.469067,353.885066 559.959301,345.082332 594.24641,345.082332 C617.104483,345.082332 726.200186,345.082332 921.53352,345.082332" id="Path-2"></path>
                <path d="M597.931957,31.4143629 C571.957999,31.77504 549.394197,25.9111077 530.240551,13.822566 C511.086905,1.73402433 431.910473,-2.42548088 292.711254,1.34405037 L181.726879,1.34405037 C172.816723,-0.0908454636 164.875968,0.979467036 157.904613,4.55498787 C150.933259,8.1305087 103.860994,34.0510816 16.6878165,82.3167066 C-1.19369391,99.4221754 -4.70476161,118.692358 6.15461339,140.127253 C17.0139884,161.562149 54.8388582,226.482722 119.629223,334.888972 C128.883129,354.227514 149.582348,363.896785 181.726879,363.896785 C213.87141,363.896785 321.187165,363.896785 503.674145,363.896785 C512.128572,363.334285 519.707999,361.52504 526.412426,358.46905 C536.469067,353.885066 559.959301,345.082332 594.24641,345.082332 C594.24641,336.903295 590.820629,327.237605 583.969067,316.085261 C577.117504,304.932918 569.282869,300.722306 560.46516,303.453425 C539.620759,305.620743 522.648754,306.704402 509.549145,306.704402 C496.449535,306.704402 379.785147,306.704402 159.555981,306.704402 C150.85546,307.017553 143.895499,302.86586 138.676098,294.249324 C133.456697,285.632787 105.266267,236.15004 54.1048087,145.801082 C49.4804597,134.715795 51.226228,126.492813 59.3421134,121.132136 C67.4579988,115.771459 91.3229077,101.355118 130.93684,77.8831129 C136.729158,74.7190504 145.718415,73.1370191 157.904613,73.1370191 C170.090811,73.1370191 301.592113,74.7190504 552.40852,77.8831129 C559.94628,78.416967 566.114574,75.1392978 570.913402,68.0501051 C575.712231,60.9609123 584.718415,48.7489983 597.931957,31.4143629 Z" id="Path"></path>
            </g>
            <rect id="h8" x="753" y="216" width="105" height="49" rx="18"></rect>
            <rect id="h7" x="539" y="222" width="156" height="48" rx="18"></rect>
            <rect id="h6" x="278" y="222" width="203" height="48" rx="18"></rect>
            <circle id="h5" cx="189.5" cy="249.5" r="27.5"></circle>
            <circle id="h4" cx="805.5" cy="127.5" r="26.5"></circle>
            <rect id="h3" x="523" y="101" width="197" height="53" rx="18"></rect>
            <rect id="h2" x="306" y="101" width="155" height="53" rx="18"></rect>
            <rect id="h1" x="137" y="101" width="106" height="46" rx="18"></rect>
        </g>
    </g>
</svg>