<?xml version="1.0" encoding="UTF-8"?>
<svg width="923px" height="365px" viewBox="0 0 923 365" version="1.1" xmlns="http://www.w3.org/2000/svg" xmlns:xlink="http://www.w3.org/1999/xlink">
    <!-- Generator: Sketch 64 (93537) - https://sketch.com -->
    <title>MAXSPINCHSOLO</title>
    <desc>Created with Sketch.</desc>
    <g id="Page-1" stroke="none" stroke-width="1" fill="none" fill-rule="evenodd">
        <g id="MAXSPINCHSOLO" transform="translate(462.500000, 182.500000) scale(1, -1) translate(-462.500000, -182.500000) translate(1.000000, 0.000000)" stroke="#000000">
            <path d="M922,31.9843749 L598.398437,31.9843749 C572.424479,32.345052 549.860677,26.4811197 530.707031,14.392578 C511.553385,2.30403633 432.376953,-1.85546888 293.177734,1.91406237 L182.193359,1.91406237 C173.283203,0.479166536 165.342448,1.54947904 158.371093,5.12499987 C151.399739,8.7005207 104.327474,34.6210936 17.1542965,82.8867186 C-0.72721391,99.9921874 -4.23828161,119.26237 6.62109339,140.697265 C17.4804684,162.132161 55.3053382,227.052734 120.095703,335.458984 C129.349609,354.797526 150.048828,364.466797 182.193359,364.466797 C214.33789,364.466797 321.653645,364.466797 504.140625,364.466797 C512.595052,363.904297 520.174479,362.095052 526.878906,359.039062 C536.935547,354.455078 560.425781,345.652344 594.71289,345.652344 C617.570963,345.652344 726.666666,345.652344 922,345.652344" id="hangboard" fill="#FFFFFF" fill-rule="nonzero"></path>
            <path d="M922.004835,31.9843749 L562,31.9843749 C565.270396,33.5848308 567.633682,35.3507716 569.089858,37.2821971 C576.781406,47.4840191 586.933427,62.8060795 598.403272,77 C598.403272,77 706.27046,77 922.004835,77" id="h14" transform="translate(742.002418, 54.492187) scale(1, -1) translate(-742.002418, -54.492187) "></path>
            <path d="M598.398437,31.9843749 C572.424479,32.345052 549.860677,26.4811197 530.707031,14.392578 C511.553385,2.30403633 432.376953,-1.85546888 293.177734,1.91406237 L182.193359,1.91406237 C173.637075,1.91406237 165.342448,1.54947904 158.371093,5.12499987 C151.399739,8.7005207 146.184895,73.7070311 158.371093,73.7070311 C170.557291,73.7070311 302.058593,75.2890624 552.875,78.4531249 C560.41276,78.986979 566.581054,75.7093098 571.379882,68.6201171 C576.178711,61.5309243 585.184895,49.3190103 598.398437,31.9843749 Z" id="h13" fill="#FFFFFF" fill-rule="nonzero"></path>
            <path d="M166.505355,2.57172134 C150.944866,1.55658566 104.327474,34.6210936 17.1542965,82.8867186 C-0.72721391,99.9921874 -4.23828161,119.26237 6.62109339,140.697265 C17.4804684,162.132161 105.732747,236.720052 54.5712887,146.371094 C49.9469397,135.285807 51.692708,127.062825 59.8085934,121.702148 C67.9244788,116.341471 91.7893877,101.92513 131.40332,78.4531249 C137.195638,75.2890624 150.098676,73.7356312 162.284874,73.7356312 C173.028084,73.7356312 170.402913,25.2569614 170.402913,8.4677821 C170.402913,4.144732 168.3479,2.69192529 166.505355,2.57172134 Z" id="h12" fill="#FFFFFF" fill-rule="nonzero"></path>
            <path d="M3.0522235,132.165724 C8.79293238,148.605184 55.3053382,227.052734 120.095703,335.458984 C122.653872,340.804971 139.142578,364.466797 163.387892,361.913777 C176.967696,360.483829 166.19657,307.270867 157.62527,307.270867 C152.111882,307.270867 140.204348,296.572176 139.142578,294.819336 C133.923177,286.202799 105.732747,236.720052 54.5712887,146.371094 C52.0459453,142.137525 51.9129288,137.649609 51.9129288,132.165724 C51.9129288,126.681838 39.8290564,125.541945 36.1594056,125.541945 C22.2457973,125.541945 0.177038838,123.932161 3.0522235,132.165724 Z" id="h11" fill="#FFFFFF" fill-rule="nonzero"></path>
            <path d="M922,307.347656 L595.106145,308 C594.258946,321.449877 588.556898,334.000659 578,345.652344 C578,345.652344 692.404497,345 922,345" id="h10" transform="translate(750.000000, 326.500000) scale(1, -1) translate(-750.000000, -326.500000) "></path>
            <path d="M154.408172,339.080886 C154.408172,359.039062 150.048828,364.466797 182.193359,364.466797 C214.33789,364.466797 321.653645,364.466797 504.140625,364.466797 C512.595052,363.904297 520.174479,362.095052 526.878906,359.039062 C536.935547,354.455078 560.425781,345.652344 594.712891,345.652344 C594.712891,337.473307 591.287109,327.807617 584.435547,316.655273 C577.583984,305.50293 569.749349,301.292318 560.93164,304.023437 C540.087239,306.190755 523.115234,307.274414 510.015625,307.274414 C496.916015,307.274414 380.251627,307.274414 160.022461,307.274414 C151.32194,307.587565 154.408172,308 154.408172,339.080886 Z" id="h9" fill="#FFFFFF" fill-rule="nonzero"></path>
            <rect id="h8" fill="#FFFFFF" fill-rule="nonzero" x="753" y="216" width="105" height="49" rx="18"></rect>
            <rect id="h7" fill="#FFFFFF" fill-rule="nonzero" x="539" y="222" width="156" height="48" rx="18"></rect>
            <rect id="h6" fill="#FFFFFF" fill-rule="nonzero" x="278" y="222" width="203" height="48" rx="18"></rect>
            <circle id="h5" fill="#FFFFFF" fill-rule="nonzero" cx="189.5" cy="249.5" r="27.5"></circle>
            <circle id="h4" fill="#FFFFFF" fill-rule="nonzero" cx="805.5" cy="127.5" r="26.5"></circle>
            <rect id="h3" fill="#FFFFFF" fill-rule="nonzero" x="523" y="101" width="197" height="53" rx="18"></rect>
            <rect id="h2" fill="#FFFFFF" fill-rule="nonzero" x="306" y="101" width="155" height="53" rx="18"></rect>
            <rect id="h1" fill="#FFFFFF" fill-rule="nonzero" x="137" y="101" width="106" height="46" rx="18"></rect>
        </g>
    </g>
</svg>