<?xml version="1.0" encoding="UTF-8"?>
<svg width="352px" height="165px" viewBox="0 0 352 165" version="1.1" xmlns="http://www.w3.org/2000/svg" xmlns:xlink="http://www.w3.org/1999/xlink">
    <!-- Generator: Sketch 63.1 (92452) - https://sketch.com -->
    <title>METOLIUSCOMPACT</title>
    <desc>Created with Sketch.</desc>
    <g id="Page-1" stroke="none" stroke-width="1" fill="none" fill-rule="evenodd">
        <g id="METOLIUSCOMPACT" transform="translate(0.757682, 0.855469)" fill="#FFFFFF" stroke="#000000">
            <path d="M351.242318,163.066406 L90.8731775,163.066406 C86.8451827,163.066406 82.3562504,162.568359 77.4063806,161.572266 C72.4565108,160.576172 59.3474613,157.667155 38.0792322,152.845215 C32.2846358,151.48877 28.9262374,148.484049 28.0040369,143.831055 C27.0818363,139.17806 17.9849939,100.568685 0.713509522,28.0029297 C-0.554068603,20.1692708 0.411751709,14.1508789 3.61097046,9.94775391 C8.40979858,3.64306641 12.8365564,1.96435547 21.1739587,1.96435547 C29.5113611,1.96435547 36.0142908,7.09667969 43.8087244,7.99609375 C49.0050134,8.59570312 67.295378,9.24625651 98.6798181,9.94775391 C156.816537,12.1557617 191.927051,8.83984375 204.011361,0 C204.011361,0 253.088347,0 351.242318,0" id="hangboard"></path>
            <rect id="h7" x="217.242318" y="109.144531" width="106" height="38" rx="19"></rect>
            <rect id="h6" x="125.242318" y="109.144531" width="80" height="38" rx="19"></rect>
            <path d="M43.7526327,105.552723 L54.5427304,107.448242 L54.5427304,107.448242 L70.2291208,108.131413 C79.7262899,108.545033 87.2130212,116.364922 87.2130212,125.871094 C87.2130212,134.850811 79.933522,142.13031 70.9538046,142.13031 C70.7124066,142.13031 70.4710385,142.124934 70.2298799,142.114186 L54.5427304,141.415039 L54.5427304,141.415039 L42.9791808,138.307556 C35.0274313,136.170674 29.3569992,129.155192 28.9350851,120.932141 L28.8233728,118.754883 C28.4627927,111.727224 33.867528,105.737873 40.895187,105.377293 C41.8512347,105.328239 42.8097655,105.387087 43.7526327,105.552723 Z" id="h5"></path>
            <rect id="h4" x="146.242318" y="69.1445312" width="113" height="25" rx="12.5"></rect>
            <rect id="h3" x="87.2423181" y="69.1445312" width="49" height="25" rx="12.5"></rect>
            <polyline id="h2" points="351.242318 0.14453125 204.246957 0.14453125 201.242318 37.328125 351.242318 37.328125"></polyline>
            <path d="M201.242318,37.328125 C153.051166,41.4036458 120.474419,42.984375 103.512078,42.0703125 C78.0685663,40.6992188 -2.91786845,42.4660201 0.173943582,21.2330101 C2.2351516,7.07767002 10.6254561,0.711914063 25.3448572,2.13574219 C35.5873784,7.2014974 48.2009852,9.734375 63.1856775,9.734375 C77.9871709,9.734375 128.562835,11.824852 165.242318,9.734375 C184.263035,8.65032557 199.260426,4.18797982 204.246957,0.14453125 C204.246957,0.14453125 203.245411,12.5390625 201.242318,37.328125 Z" id="h1"></path>
        </g>
    </g>
</svg>