<?xml version="1.0" encoding="UTF-8"?>
<svg width="587px" height="404px" viewBox="0 0 587 404" version="1.1" xmlns="http://www.w3.org/2000/svg" xmlns:xlink="http://www.w3.org/1999/xlink">
    <title>METOLIUSSIMU3D</title>
    <g id="Page-1" stroke="none" stroke-width="1" fill="none" fill-rule="evenodd">
        <g id="METOLIUSSIMU3D" transform="translate(1.000000, 1.000000)" fill="#FFFFFF" fill-rule="nonzero">
            <path d="M586,374.266064 C553.689873,374.266064 516.375606,355.8444 516.375606,355.8444 C461.460318,350.145339 229.071215,393.094744 197.438275,400.464756 C176.349649,405.378097 159.448501,398.498074 146.734832,379.824687 C80.5350282,293.751522 40.2218641,241.522326 25.7953391,223.137101 C11.3688142,204.751878 2.77036778,188.084418 0,173.134719 C0,169.938021 0,161.108696 0,146.646744 C0,132.184793 8.59844638,118.361957 25.7953391,105.178236 C51.110653,94.0105332 67.7759892,87.2790768 75.7913476,84.9838671 C83.806706,82.6886574 92.4880506,82.6886574 101.835381,84.9838671 C119.993445,96.5619497 132.64046,104.847466 139.776425,109.840416 C146.912391,114.833366 154.716583,116.054974 163.189001,113.505239 C259.211988,96.2625745 310.54725,86.7554505 317.194788,84.9838671 C323.842327,83.2122835 335.293478,80.075011 351.548245,75.5720496 L491.086058,64.453121 C503.248565,64.3533293 511.01467,59.2050854 514.384369,49.0083893 C519.438918,33.7133451 532.7592,0.861124105 586,0" id="hangboard" stroke="#000000"></path>
            <path d="M367.126258,147.114995 L487.954556,147.112007 C490.71598,147.111815 492.954612,149.350335 492.95468,152.111759 C492.95468,152.1118 492.95468,152.111842 492.954556,152.111883 L492.954556,188.611823 C492.954433,191.373198 490.715932,193.611754 487.954556,193.611946 L367.126258,193.614935 C364.364834,193.615127 362.126202,191.376606 362.126134,188.615182 C362.126134,188.615141 362.126134,188.615099 362.126258,188.615058 L362.126258,152.115119 C362.126381,149.353743 364.364882,147.115187 367.126258,147.114995 Z" id="h9" stroke="#000000" transform="translate(427.540407, 170.363471) rotate(-3.000000) translate(-427.540407, -170.363471) "></path>
            <path d="M217.455416,162.614732 L338.283315,162.607815 C341.044739,162.607085 343.283443,164.845533 343.283601,167.606957 C343.283601,167.607148 343.283601,167.607339 343.283029,167.607529 L343.28094,204.107203 C343.28021,206.868403 341.041855,209.106758 338.280654,209.107489 L217.452755,209.114405 C214.691332,209.115135 212.452627,206.876687 212.452469,204.115263 C212.452469,204.115073 212.452469,204.114882 212.453041,204.114691 L212.45513,167.615018 C212.45586,164.853818 214.694216,162.615462 217.455416,162.614732 Z" id="h8" stroke="#000000" transform="translate(277.868035, 185.861110) rotate(-7.000000) translate(-277.868035, -185.861110) "></path>
            <path d="M586,194 L553.427025,194 C543.802345,194 536,185.941124 536,176 C536,166.058874 543.802345,158 553.427025,158 L585.942654,158" id="h10" stroke="#000000"></path>
            <path d="M586,271 L556.034415,271 C547.178851,271 540,263.612698 540,254.5 C540,245.3873 547.178851,238 556.034415,238 L585.947237,238" id="h14" stroke="#000000"></path>
            <path d="M586,340 L562.553707,340 C555.620486,340 550,332.612698 550,323.5 C550,314.3873 555.620486,307 562.553707,307 L585.958692,307" id="h18" stroke="#000000"></path>
            <path d="M124.589672,266.465277 L213.04095,266.456103 C218.563797,266.453456 223.041414,270.930144 223.041987,276.452992 C223.041987,276.453683 223.041987,276.454375 223.039913,276.455066 L223.038415,290.898686 C223.035769,296.420723 218.559416,300.897076 213.037379,300.899723 L124.586101,300.908897 C119.063254,300.911544 114.585637,296.434855 114.585064,290.912008 C114.585064,290.911317 114.585064,290.910625 114.587138,290.909934 L114.588635,276.466314 C114.591282,270.944277 119.067635,266.467924 124.589672,266.465277 Z" id="h11" stroke="#000000" transform="translate(168.813525, 283.682500) rotate(-13.000000) translate(-168.813525, -283.682500) "></path>
            <path d="M265.490367,245.281211 L353.940303,245.274744 C359.46315,245.272878 363.94063,249.749703 363.941034,255.272551 C363.941034,255.273038 363.941034,255.273525 363.939572,255.274012 L363.938517,269.718058 C363.936651,275.240335 359.460062,279.716924 353.937786,279.718789 L265.487849,279.725256 C259.965002,279.727122 255.487522,275.250297 255.487118,269.727449 C255.487118,269.726962 255.487118,269.726475 255.48858,269.725988 L255.489636,255.281942 C255.491502,249.759665 259.96809,245.283076 265.490367,245.281211 Z" id="h12" stroke="#000000" transform="translate(309.714076, 262.500000) rotate(-9.000000) translate(-309.714076, -262.500000) "></path>
            <path d="M360.44356,302.170857 L404.13638,302.167662 C409.659227,302.165797 414.136707,306.642622 414.137111,312.165469 C414.137111,312.165957 414.137111,312.166444 414.135649,312.166931 L414.134593,326.610977 C414.132728,332.133254 409.656139,336.609842 404.133862,336.611708 L360.441043,336.614903 C354.918195,336.616769 350.440716,332.139943 350.440312,326.617096 C350.440312,326.616609 350.440312,326.616121 350.441774,326.615634 L350.442829,312.171588 C350.444695,306.649312 354.921284,302.172723 360.44356,302.170857 Z" id="h16" stroke="#000000" transform="translate(382.288711, 319.391283) rotate(-9.000000) translate(-382.288711, -319.391283) "></path>
            <path d="M404.924196,228.057051 L493.373126,228.054139 C498.895973,228.053299 503.373273,232.530304 503.373455,238.053151 C503.373455,238.053371 503.373455,238.05359 503.372797,238.05381 L503.372321,252.498175 C503.371481,258.020765 498.894582,262.497664 493.371992,262.498504 L404.923062,262.501417 C399.400214,262.502257 394.922915,258.025252 394.922733,252.502404 C394.922733,252.502185 394.922733,252.501965 394.923391,252.501746 L394.923867,238.057381 C394.924707,232.53479 399.401605,228.057892 404.924196,228.057051 Z" id="h13" stroke="#000000" transform="translate(449.148094, 245.277778) rotate(-4.000000) translate(-449.148094, -245.277778) "></path>
            <path d="M453.173977,293.220226 L500.309029,293.218674 C505.831876,293.217834 510.309176,297.694839 510.309358,303.217686 C510.309358,303.217906 510.309358,303.218125 510.3087,303.218345 L510.308224,317.66271 C510.307384,323.1853 505.830485,327.662199 500.307895,327.663039 L453.172843,327.664591 C447.649996,327.665432 443.172696,323.188426 443.172514,317.665579 C443.172514,317.665359 443.172514,317.66514 443.173172,317.664921 L443.173648,303.220555 C443.174488,297.697965 447.651387,293.221066 453.173977,293.220226 Z" id="h17" stroke="#000000" transform="translate(476.740936, 310.441633) rotate(-4.000000) translate(-476.740936, -310.441633) "></path>
            <path d="M193.190794,327.950783 L307.463804,327.93893 C312.986651,327.936284 317.464268,332.412972 317.464841,337.935819 C317.464841,337.936511 317.464841,337.937202 317.462767,337.937893 L317.461269,352.381513 C317.458623,357.903551 312.98227,362.379904 307.460233,362.382551 L193.187223,362.394403 C187.664375,362.397049 183.186759,357.920361 183.186186,352.397514 C183.186186,352.396823 183.186186,352.396131 183.188259,352.39544 L183.189757,337.95182 C183.192404,332.429783 187.668756,327.95343 193.190794,327.950783 Z" id="h15" stroke="#000000" transform="translate(250.325513, 345.166667) rotate(-13.000000) translate(-250.325513, -345.166667) "></path>
            <path d="M71.1357962,186.728512 L191.965452,186.716883 C194.726876,186.715656 196.965667,188.954016 196.965933,191.71544 C196.965933,191.715761 196.965933,191.716082 196.964971,191.716402 L196.96146,228.215452 C196.960232,230.976499 194.722027,233.214705 191.960979,233.215933 L71.1313233,233.227561 C68.3698997,233.228789 66.131108,230.990428 66.1308422,228.229004 C66.1308422,228.228683 66.1308422,228.228363 66.1318043,228.228042 L66.1353153,191.728993 C66.1365431,188.967945 68.3747483,186.729739 71.1357962,186.728512 Z" id="h7" stroke="#000000" transform="translate(131.548388, 209.972222) rotate(-12.000000) translate(-131.548388, -209.972222) "></path>
            <path d="M586,113 L548.863636,113 C537.893254,113 529,104.045695 529,93 C529,81.954305 537.893254,73 548.863636,73 L585.934638,73" id="h6" stroke="#000000"></path>
            <path d="M35.5429544,138.504525 L115.665539,138.496215 C120.636101,138.493833 124.665956,142.522852 124.666472,147.493415 C124.666472,147.494037 124.666472,147.494659 124.664606,147.495281 L124.663258,160.494539 C124.660876,165.464373 120.632158,169.493091 115.662325,169.495473 L35.5397405,169.503783 C30.569178,169.506165 26.5393228,165.477146 26.5388073,160.506583 C26.5388072,160.505961 26.5388072,160.505339 26.5406737,160.504717 L26.5420214,147.505459 C26.5444034,142.535625 30.5731208,138.506907 35.5429544,138.504525 Z" id="h5" stroke="#000000" transform="translate(75.602640, 153.999999) rotate(-13.000000) translate(-75.602640, -153.999999) "></path>
            <path d="M583,4 C545.232722,8.68767644 522.89939,28.6876765 516,64 C516,64 538.333333,64 583,64 L583,4 Z" id="h4"></path>
            <polygon id="h3" points="360 118 502 107.397792 502 68 360 78.6841753"></polygon>
            <polygon id="h2" points="154 123.135233 154 154 345 123.135233 345 88"></polygon>
            <path d="M7,142 L124,105.730448 L98.3204732,88.2218345 C88.8140024,87.7241529 82.4835648,88.0638759 79.3291602,89.2410031 C74.5975535,91.0066942 39.5615596,103.292593 27.9851767,110.951062 C16.4087938,118.609531 7,127.813557 7,142 Z" id="h1"></path>
        </g>
    </g>
</svg>