<?xml version="1.0" encoding="UTF-8"?>
<svg width="580px" height="401px" viewBox="0 0 580 401" version="1.1" xmlns="http://www.w3.org/2000/svg" xmlns:xlink="http://www.w3.org/1999/xlink">
    <title>METOLIUSDELUXEII</title>
    <g id="Page-1" stroke="none" stroke-width="1" fill="none" fill-rule="evenodd">
        <g id="METOLIUSDELUXEII" transform="translate(1.000000, 1.000000)" fill="#FFFFFF" fill-rule="nonzero">
            <polygon id="h12" stroke="#000000" points="58 287.250769 76.2411116 385 259 385 238.350496 285"></polygon>
            <path d="M235,268.909159 C235,268.909159 216.315039,176 216.315039,176 C216.315039,176 148.191918,175.888344 38,180.350711 L55.8479566,276 L235,268.909159 Z" id="h8" stroke="#000000"></path>
            <polygon id="h4" stroke="#000000" points="215 165.932155 191.754953 54 15 54 36.9578452 171"></polygon>
            <path d="M578.963015,4.73502901 L215.303118,6.59120663 C206.451016,6.59120663 201.374529,7.85316511 200.073657,10.3770821 C198.772784,12.900999 193.968484,13.3046715 185.660753,11.5880996 C181.788993,3.86269987 173.38787,0 160.457387,0 C147.526905,0 112.639177,0 55.7942023,0 C48.0369047,0.694877232 39.4726918,2.79994647 30.1015632,6.31520773 C16.0448705,11.5880996 -1.3301207,19.0755913 0.0806727208,33.8523183 C1.02120167,43.7034696 4.70810818,53.6851399 11.1413923,63.797329 C18.2160213,65.3800777 26.7805098,66.1714522 36.834858,66.1714522 C51.91638,66.1714522 176.881106,66.1714522 179.211766,66.1714522 C181.542427,66.1714522 186.687236,67.2238644 187.878187,72.1868885 C188.672155,75.4955713 194.501284,98.4283553 205.365578,140.985241 C205.116535,144.895302 201.184439,146.850333 193.569296,146.850333 C185.954152,146.850333 138.173959,146.850333 50.2287174,146.850333 C35.1527051,146.828855 27.6146988,153.999411 27.6146988,168.362002 C27.6146988,189.905889 48.9683425,193.063126 82.6158069,193.063126 C105.04745,193.063126 144.897612,193.063126 202.166292,193.063126 C208.350532,193.716821 212.729474,198.543819 215.303118,207.544119 C217.876763,216.544419 221.741636,230.110679 226.89774,248.2429 C229.320966,255.106984 225.456092,258.539027 215.303118,258.539027 C205.150143,258.539027 159.172494,259.126086 77.3701679,260.300207 C60.0874664,260.223107 51.4461156,264.900036 51.4461156,274.330993 C51.4461156,288.477429 55.1115337,304.201658 66.2408507,304.201658 C73.6603955,304.201658 123.347818,304.201658 215.303118,304.201658 C226.454475,303.573295 233.304852,308.634345 235.854254,319.38481 C238.403655,330.135275 241.060222,341.084823 243.823955,352.233455 C245.924305,359.843756 242.345943,363.648906 233.088867,363.648906 C223.831793,363.648906 176.715536,363.648906 91.7400948,363.648906 C76.9302075,363.201176 69.5252637,365.659008 69.5252637,371.0224 C69.5252637,379.067488 64.874687,400.158689 91.7400948,398.95015 C109.650367,398.144457 272.070335,398.144457 579,398.95015" id="hangboard" stroke="#000000"></path>
            <path d="M579,362 L579,362 L512.931225,362 C503.580369,362 496,354.35153 496,344.916667 L496,338.083333 C496,328.648468 503.580369,321 512.931225,321 L512.931225,321 L579,321 L579,321" id="h15" stroke="#000000"></path>
            <rect id="h14" stroke="#000000" x="393" y="323" width="81" height="41" rx="10"></rect>
            <rect id="h13" stroke="#000000" x="260" y="323" width="118" height="41" rx="10"></rect>
            <path d="M579,254 L579,254 L512.931225,254 C503.580369,254 496,246.35153 496,236.916667 L496,230.083333 C496,220.648468 503.580369,213 512.931225,213 L512.931225,213 L579,213 L579,213" id="h11" stroke="#000000"></path>
            <rect id="h10" stroke="#000000" x="387" y="215" width="81" height="41" rx="10"></rect>
            <rect id="h9" stroke="#000000" x="245" y="215" width="118" height="41" rx="10"></rect>
            <path d="M579,146 L579,146 L512.931225,146 C503.580369,146 496,138.351531 496,128.916667 L496,122.083333 C496,112.648469 503.580369,105 512.931225,105 L512.931225,105 L579,105 L579,105" id="h7" stroke="#000000"></path>
            <rect id="h6" stroke="#000000" x="378" y="105" width="81" height="41" rx="10"></rect>
            <rect id="h5" stroke="#000000" x="228" y="105" width="118" height="41" rx="10"></rect>
            <polyline id="h3" points="578.962978 10 385.816053 10 374 44 579 44"></polyline>
            <polygon id="h2" points="363 10 347.378109 44 200 44 221.79446 10"></polygon>
            <path d="M58.4780479,11 L166.792312,11 C172.264103,11.7821351 175,13.9640523 175,17.5457516 C175,21.1274509 172.264103,28.9455338 166.792312,41 L11.9828867,41 C8.00570443,35.5871459 8.00570443,31.1595861 11.9828867,27.7173202 C17.9486602,22.5539215 34.4449901,11 58.4780479,11 Z" id="h1"></path>
        </g>
    </g>
</svg>