<?xml version="1.0" encoding="UTF-8"?>
<svg width="357px" height="183px" viewBox="0 0 357 183" version="1.1" xmlns="http://www.w3.org/2000/svg" xmlns:xlink="http://www.w3.org/1999/xlink">
    <title>METOLIUSPROJECT</title>
    <g id="Page-1" stroke="none" stroke-width="1" fill="none" fill-rule="evenodd">
        <g id="METOLIUSPROJECT" transform="translate(0.824547, 1.310457)" fill="#FFFFFF">
            <path d="M356.175453,15.3848551 C228.91113,18.8028238 158.406573,21.6726155 144.661781,23.9942301 C124.044594,27.4766519 122.83268,28.0596597 115.353188,19.6895426 C107.873695,11.3194254 98.7770157,-1.53506682 67.7711563,0.150480059 C47.1005834,1.27417798 29.3943659,5.91284985 14.6525039,14.0664957 C1.42626697,24.4314045 -2.84586845,36.0953043 1.8360977,49.0581949 C8.85904691,68.5025308 67.5817032,165.793058 72.8512344,170.756437 C78.1207657,175.719816 80.0450821,181.926847 93.6979141,180.616789 C107.350746,179.30673 224.286781,167.236906 356.175453,167.236906" id="hangboard" stroke="#000000"></path>
            <path d="M356.175453,140.689543 L252.175453,140.689543 C246.652606,140.689543 242.175453,136.21239 242.175453,130.689543 L242.175453,120.689543 C242.175453,115.166695 246.652606,110.689543 252.175453,110.689543 L356.175453,110.689543" id="h10" stroke="#000000"></path>
            <rect id="h9" stroke="#000000" transform="translate(193.675453, 131.189543) rotate(-5.000000) translate(-193.675453, -131.189543) " x="171.175453" y="118.689543" width="45" height="25" rx="10"></rect>
            <rect id="h8" stroke="#000000" transform="translate(115.234435, 136.540457) rotate(-5.000000) translate(-115.234435, -136.540457) " x="77.2344353" y="124.040457" width="76" height="25" rx="10"></rect>
            <path d="M356.175453,89.6895426 L252.175453,89.6895426 C246.652606,89.6895426 242.175453,85.2123901 242.175453,79.6895426 L242.175453,69.6895426 C242.175453,64.1666951 246.652606,59.6895426 252.175453,59.6895426 L356.175453,59.6895426" id="h7" stroke="#000000"></path>
            <rect id="h6" stroke="#000000" transform="translate(193.793418, 77.891371) rotate(-5.000000) translate(-193.793418, -77.891371) " x="171.293418" y="65.3913706" width="45" height="25" rx="10"></rect>
            <rect id="h5" stroke="#000000" transform="translate(98.529474, 86.101946) rotate(-5.000000) translate(-98.529474, -86.101946) " x="45.0294742" y="73.601946" width="107" height="25" rx="10"></rect>
            <rect id="h4" x="246.175453" y="20.6895426" width="107" height="25" rx="10"></rect>
            <rect id="h3" transform="translate(176.678152, 38.832698) rotate(-6.000000) translate(-176.678152, -38.832698) " x="123.178152" y="26.3326982" width="107" height="25" rx="10"></rect>
            <rect id="h2" stroke="#000000" transform="translate(58.675453, 42.189543) rotate(-8.000000) translate(-58.675453, -42.189543) " x="20.1754532" y="29.6895426" width="77" height="25" rx="10"></rect>
            <path d="M7.37906645,26.1324137 C12.3949404,18.5374549 19.7384414,14.7671793 27.2574844,11.348234 C32.2701797,9.06893709 44.5841446,6.28166495 64.1993789,2.98641756 C79.0701472,2.27417798 89.2776667,3.63420402 94.8219375,7.06649568 C103.138344,12.2149332 110.379805,16.0472021 100.870766,17.1639013 C91.3617266,18.2806005 16.2988198,30.4287018 13.0485,30.8697183 C9.79818024,31.3107349 2.36319252,33.7273725 7.37906645,26.1324137 Z" id="h1"></path>
        </g>
    </g>
</svg>