<?xml version="1.0" encoding="UTF-8"?>
<svg width="342px" height="265px" viewBox="0 0 342 265" version="1.1" xmlns="http://www.w3.org/2000/svg" xmlns:xlink="http://www.w3.org/1999/xlink">
    <!-- Generator: Sketch 58 (84663) - https://sketch.com -->
    <title>METOLIUSFOUNDY</title>
    <desc>Created with Sketch.</desc>
    <g id="Page-1" stroke="none" stroke-width="1" fill="none" fill-rule="evenodd">
        <g id="METOLIUSFOUNDY" transform="translate(0.877859, 0.556580)" fill="#FFFFFF">
            <path d="M340.122141,5.15533366 C267.234121,6.84218261 228.230865,8.76568522 223.112376,10.9258415 C215.434641,14.1660758 216.388499,12.0463785 213.964671,9.16924967 C211.540843,6.29212087 205.948802,-0.562439781 186.762522,0.0369254531 C167.576243,0.636290687 153.848216,4.12994303 142.042552,13.8565055 C130.236887,23.583068 92.0557351,60.5479118 78.8706765,75.0029899 C65.6856179,89.458068 21.8789773,148.111877 12.4317117,170.448791 C2.98444605,192.785705 -3.89348364,211.475646 2.46637964,227.679748 C8.82624292,243.883849 21.3911843,259.901427 39.3047585,263.192443 C51.2471414,265.386453 68.8446349,262.54547 92.097239,254.669494 C115.278229,241.16689 132.322499,233.144754 143.230052,230.603088 C154.137604,228.061421 219.7683,224.386779 340.122141,219.579162" id="hangboard" stroke="#000000"></path>
            <path d="M115.864329,235.191466 C90.6585997,249.921935 69.569407,257.28717 52.5967507,257.28717 C35.6240945,257.28717 22.5375059,249.921935 13.3369851,235.191466 C7.74193303,225.87506 5.86823511,216.955138 7.71589136,208.431701 C10.4873757,195.646545 7.52448511,186.240295 18.3838601,190.94342 C29.2432351,195.646545 98.6592635,220.394174 115.864329,223.499851 C127.334372,225.570303 127.334372,229.467508 115.864329,235.191466 Z" id="h11"></path>
            <path d="M340.180491,189.44342 L245.122141,189.44342 C240.703863,189.44342 237.122141,185.861698 237.122141,181.44342 L237.122141,169.44342 C237.122141,165.025142 240.703863,161.44342 245.122141,161.44342 L340.149973,161.44342" id="h10" stroke="#000000"></path>
            <rect id="h9" stroke="#000000" transform="translate(202.622141, 187.443420) rotate(-5.000000) translate(-202.622141, -187.443420) " x="181.122141" y="175.44342" width="43" height="24" rx="8"></rect>
            <rect id="h7" stroke="#000000" transform="translate(202.622141, 144.443420) rotate(-5.000000) translate(-202.622141, -144.443420) " x="181.122141" y="132.44342" width="43" height="24" rx="8"></rect>
            <rect id="h6" stroke="#000000" transform="translate(131.122141, 150.943420) rotate(-5.000000) translate(-131.122141, -150.943420) " x="99.1221414" y="140.44342" width="64" height="21" rx="8"></rect>
            <rect id="h8" stroke="#000000" transform="translate(132.122141, 190.943420) rotate(-5.000000) translate(-132.122141, -190.943420) " x="100.122141" y="180.44342" width="64" height="21" rx="8"></rect>
            <path d="M340.180491,135.44342 L245.122141,135.44342 C240.703863,135.44342 237.122141,129.814999 237.122141,122.871991 L237.122141,104.014848 C237.122141,97.0718399 240.703863,91.4434196 245.122141,91.4434196 L340.149973,91.4434196" id="h5" stroke="#000000"></path>
            <rect id="h4" stroke="#000000" transform="translate(177.947830, 104.451030) rotate(-5.000000) translate(-177.947830, -104.451030) " x="133.94783" y="92.4510302" width="88" height="24" rx="8"></rect>
            <path d="M340.180491,70.4434196 L245.122141,70.4434196 C240.703863,70.4434196 237.122141,66.8616976 237.122141,62.4434196 L237.122141,50.4434196 C237.122141,46.0251416 240.703863,42.4434196 245.122141,42.4434196 L340.149973,42.4434196" id="h3" stroke="#000000"></path>
            <path d="M340.122141,18.036193 C272.369537,18.833068 235.210683,19.989318 228.645579,21.504943 C222.080475,23.020568 219.094798,20.0628857 219.688548,12.6318962 C222.131256,11.3210238 225.579498,10.3348584 230.033274,9.67340006 C236.713938,8.68121256 323.674876,5.15533366 340.122141,5.15533366" id="h2"></path>
            <path d="M214.424876,17.2647087 C212.651438,10.9027295 207.254628,6.86627116 198.234446,5.15533366 C164.915507,2.36627116 153.240305,12.6963493 148.839915,14.9942008 C144.439524,17.2920524 114.563548,42.4434196 124.476634,42.4434196 C134.389719,42.4434196 198.978587,38.9883415 208.263743,38.9883415 C214.453847,38.9883415 216.507558,31.7471305 214.424876,17.2647087 Z" id="h1"></path>
        </g>
    </g>
</svg>