<svg height="165" viewBox="0 0 352 165" width="352" xmlns="http://www.w3.org/2000/svg"><g fill="#fff" fill-rule="evenodd" stroke="#000" transform="translate(.757682 .855469)"><path d="m351.242318 163.066406h-260.3691405c-4.0279948 0-8.5169271-.498047-13.4667969-1.49414-4.9498698-.996094-18.0589193-3.905111-39.3271484-8.727051-5.7945964-1.356445-9.1529948-4.361166-10.0751953-9.01416-.9222006-4.652995-10.019043-43.26237-27.29052738-115.8281253-1.26757812-7.8336589-.30175781-13.8520508 2.89746094-18.05517579 4.79882812-6.3046875 9.22558594-7.98339844 17.56298824-7.98339844 8.3374024 0 14.8403321 5.13232422 22.6347657 6.03173828 5.196289.59960937 23.4866536 1.25016276 54.8710937 1.95166016 58.1367189 2.20800779 93.2472329-1.10791016 105.3315429-9.94775391h147.230957"/><rect height="38" rx="19" width="106" x="217.242318" y="109.144531"/><rect height="38" rx="19" width="80" x="125.242318" y="109.144531"/><path d="m43.7526327 105.552723 10.7900977 1.895519 15.6863904.683171c9.4971691.41362 16.9839004 8.233509 16.9839004 17.739681 0 8.979717-7.2794992 16.259216-16.2592166 16.259216-.241398 0-.4827661-.005376-.7239247-.016124l-15.6871495-.699147-11.5635496-3.107483c-7.9517495-2.136882-13.6221816-9.152364-14.0440957-17.375415l-.1117123-2.177258c-.3605801-7.027659 5.0441552-13.01701 12.0718142-13.37759.9560477-.049054 1.9145785.009794 2.8574457.17543z"/><rect height="25" rx="12.5" width="113" x="146.242318" y="69.144531"/><rect height="25" rx="12.5" width="49" x="87.242318" y="69.144531"/><path d="m351.242318.14453125h-146.995361l-3.004639 37.18359375h150"/><path d="m201.242318 37.328125c-48.191152 4.0755208-80.767899 5.65625-97.73024 4.7421875-25.4435117-1.3710937-106.42994645.3957076-103.33813442-20.8373024 2.06120802-14.15534008 10.45151252-20.52109604 25.17091362-19.09726791 10.2425212 5.06575521 22.856128 7.59863281 37.8408203 7.59863281 14.8014934 0 65.3771575 2.090477 102.0566405 0 19.020717-1.08404943 34.018108-5.54639518 39.004639-9.58984375 0 0-1.001546 12.39453125-3.004639 37.18359375z"/></g></svg>