<?xml version="1.0" encoding="UTF-8"?>
<svg width="344px" height="182px" viewBox="0 0 344 182" version="1.1" xmlns="http://www.w3.org/2000/svg" xmlns:xlink="http://www.w3.org/1999/xlink">
    <!-- Generator: Sketch 58 (84663) - https://sketch.com -->
    <title>METOLIUSCOMPACTII</title>
    <desc>Created with Sketch.</desc>
    <g id="Page-1" stroke="none" stroke-width="1" fill="none" fill-rule="evenodd">
        <g id="METOLIUSCOMPACTII" transform="translate(1.000000, 1.000000)" fill="#FFFFFF">
            <path d="M138.666314,159.088379 C138.666314,159.088379 127.63852,104.342531 127.63852,104.342531 C127.63852,104.342531 87.43251,104.276588 22.3976535,106.906003 L32.9314505,163.266602 L138.666314,159.088379 Z" id="h8" stroke="#000000"></path>
            <polygon id="h4" stroke="#000000" points="126.421358 98.4466806 112.707329 32.0117188 8.42607937 32.0117188 21.3806897 101.454593"></polygon>
            <path d="M342.051079,2.79882813 L127.200982,3.89599609 C121.971164,3.89599609 118.971978,4.64192708 118.203423,6.13378906 C117.434868,7.62565104 114.59649,7.86425781 109.688286,6.84960938 C107.400852,2.28320313 102.437473,2.27373675e-13 94.7981497,2.27373675e-13 C87.1588268,2.27373675e-13 66.5471731,2.27373675e-13 32.9631887,2.27373675e-13 C28.3801809,0.410734958 23.3204479,1.65502026 17.7839895,3.73285591 C9.47930203,6.84960938 -0.785834688,11.2753906 0.0476614058,20.0097656 C0.603325468,25.8326823 2.78154812,31.7327474 6.58232937,37.7099609 C10.7620169,38.6455078 15.8219127,39.1132813 21.7620169,39.1132813 C30.6721731,39.1132813 104.501275,39.1132813 105.878228,39.1132813 C107.255181,39.1132813 110.294732,39.7353516 110.998345,42.6689453 C111.467421,44.6246745 114.911268,58.180013 121.329888,83.3349609 C121.182753,85.6461589 118.859673,86.8017578 114.36065,86.8017578 C109.861626,86.8017578 81.6331106,86.8017578 29.6751028,86.8017578 C20.7682018,86.7890625 16.3147512,91.0275065 16.3147512,99.5170898 C16.3147512,112.251465 28.9304739,114.117676 48.8093802,114.117676 C62.0619843,114.117676 85.6054414,114.117676 119.439751,114.117676 C123.093397,114.504069 125.680474,117.357259 127.200982,122.677246 C128.72149,127.997233 131.004855,136.016113 134.051079,146.733887 C135.48272,150.791178 133.199354,152.819824 127.200982,152.819824 C121.202609,152.819824 94.0390351,153.166829 45.7102591,153.86084 C35.4996471,153.815267 30.3943411,156.579753 30.3943411,162.154297 C30.3943411,170.516113 32.5598684,179.810547 39.1350637,179.810547 C43.5185273,179.810547 72.8738333,179.810547 127.200982,179.810547 L343,180" id="hangboard" stroke="#000000"></path>
            <path d="M342.07293,149.949219 L342.07293,149.949219 L303.051079,149.949219 C297.528232,149.949219 293.051079,145.472066 293.051079,139.949219 L293.051079,135.949219 C293.051079,130.426371 297.528232,125.949219 303.051079,125.949219 L303.051079,125.949219 L342.07293,125.949219 L342.07293,125.949219" id="h11" stroke="#000000"></path>
            <rect id="h10" stroke="#000000" x="228.051079" y="126.949219" width="48" height="24" rx="10"></rect>
            <rect id="h9" stroke="#000000" x="144.051079" y="126.949219" width="70" height="24" rx="10"></rect>
            <path d="M342.07293,85.9492188 L342.07293,85.9492188 L303.051079,85.9492188 C297.528232,85.9492188 293.051079,81.4720662 293.051079,75.9492188 L293.051079,71.9492188 C293.051079,66.4263713 297.528232,61.9492188 303.051079,61.9492188 L303.051079,61.9492188 L342.07293,61.9492188 L342.07293,61.9492188" id="h7" stroke="#000000"></path>
            <rect id="h6" stroke="#000000" x="223.051079" y="61.9492188" width="48" height="24" rx="10"></rect>
            <rect id="h5" stroke="#000000" x="134.051079" y="61.9492188" width="70" height="24" rx="10"></rect>
            <polyline id="h3" points="342.051079 6.13378906 228.051079 6.13378906 221.076958 26.1162109 342.07293 26.1162109"></polyline>
            <polygon id="h2" points="214.051079 6.13378906 204.800103 26.1162109 117.525689 26.1162109 130.431939 6.13378906"></polygon>
            <path d="M34.0890451,6.13378906 L98.1135794,6.13378906 C101.347954,6.60123698 102.965142,7.90527344 102.965142,10.0458984 C102.965142,12.1865234 101.347954,16.8590495 98.1135794,24.0634766 L6.60576687,24.0634766 C4.25485542,20.8284505 4.25485542,18.1822917 6.60576687,16.125 C10.1321341,13.0390625 19.8831106,6.13378906 34.0890451,6.13378906 Z" id="h1"></path>
        </g>
    </g>
</svg>