<svg height="179" viewBox="0 0 339 179" width="339" xmlns="http://www.w3.org/2000/svg"><g fill="#fff" fill-rule="evenodd" stroke="#000" transform="translate(1.15697 .537109)"><path d="m337.84303 177.697266h-319.484375l-18.05273437-113.8437504c-3.69140625-42.5690104 26.02408857-63.8535156 89.14648437-63.8535156h248.390625"/><rect height="33" rx="16.5" width="92" x="203.84303" y="129.462891"/><rect height="33" rx="16.5" width="92" x="179.84303" y="81.462891"/><rect height="33" rx="16.5" width="92" x="100.84303" y="129.462891"/><rect height="33" rx="16.5" width="64" x="100.84303" y="81.462891"/><rect height="33" rx="16.5" width="49" x="22.84303" y="129.462891"/><rect height="33" rx="16.5" width="49" x="22.84303" y="81.462891"/><rect height="23" rx="11.5" width="46" x="220.84303" y="46.462891"/><rect height="23" rx="11.5" width="75" x="136.84303" y="46.462891"/><path d="m337.84303 16.9238281h-191c-3.532389-11.28255206-10.441406-16.9238281-20.727051-16.9238281h211.727051"/><path d="m3.54176047 36.8378906c12.06738283-30.45117185 53.55093553-36.8378906 85.91064453-36.8378906h43.390625c9.333333 5.6484375 14 11.2897135 14 16.9238281 0 0-70.3589175-3.0581397-105.0722656 2.190918-35.72207863 5.4015894-36.13406214 17.7231445-38.22900393 17.7231445z"/></g></svg>