<?xml version="1.0" encoding="UTF-8"?>
<svg width="582px" height="453px" viewBox="0 0 582 453" version="1.1" xmlns="http://www.w3.org/2000/svg" xmlns:xlink="http://www.w3.org/1999/xlink">
    <!-- Generator: Sketch 64 (93537) - https://sketch.com -->
    <title>METOLIUSFOUNDRY</title>
    <desc>Created with Sketch.</desc>
    <g id="Page-1" stroke="none" stroke-width="1" fill="none" fill-rule="evenodd">
        <g id="METOLIUSFOUNDRY" transform="translate(1.000000, 1.000000)" fill="#FFFFFF" fill-rule="nonzero">
            <path d="M581,8.81004922 C456.491964,11.692738 389.866217,14.9798487 381.122764,18.6713815 C368.007581,24.2086804 369.636971,20.5862888 365.496564,15.6695078 C361.356157,10.7527268 351.803777,-0.961164201 319.029584,0.0631026197 C286.255393,1.08736944 262.805042,7.05773938 242.63849,23.6796498 C222.471936,40.3015602 157.250516,103.471495 134.727668,128.174057 C112.204821,152.87662 37.3738851,253.111246 21.2359727,291.28323 C5.09806022,329.455213 -6.6508872,361.394814 4.21309406,389.086317 C15.0770753,416.777818 36.5406323,444.150566 67.1407766,449.774647 C87.540873,453.524033 117.601085,448.669023 157.321413,435.209615 C196.919409,412.134754 226.034599,398.425571 244.666989,394.082069 C263.299377,389.738565 375.41038,383.458899 581,375.243069" id="hangboard" stroke="#000000"></path>
            <path d="M198.276534,402.397046 C155.136249,427.465681 119.041528,440 89.9923691,440 C60.9432107,440 38.5451616,427.465681 22.7982224,402.397046 C13.22214,386.542182 10.0152555,371.362063 13.177569,356.85669 C17.9210391,335.098631 12.849972,319.090869 31.4360849,327.09475 C50.0221979,335.098631 168.829601,377.21469 198.276534,382.5 C217.907822,386.02354 217.907822,392.655889 198.276534,402.397046 Z" id="h11"></path>
            <path d="M581,324 L418.662163,324 C411.116759,324 405,317.859905 405,310.285714 L405,289.714286 C405,282.140095 411.116759,276 418.662163,276 L580.947882,276" id="h10" stroke="#000000"></path>
            <path d="M317.782181,299.861787 L375.207746,299.856405 C379.626024,299.854492 383.208082,303.435878 383.208496,307.854156 C383.208496,307.854656 383.208496,307.855155 383.206997,307.855655 L383.204654,332.880934 C383.202741,337.298627 379.621598,340.879771 375.203905,340.881684 L317.77834,340.887066 C313.360062,340.888979 309.778004,337.307593 309.77759,332.889315 C309.77759,332.888815 309.77759,332.888316 309.779089,332.887816 L309.781432,307.862537 C309.783345,303.444844 313.364489,299.8637 317.782181,299.861787 Z" id="h9" stroke="#000000" transform="translate(346.493043, 320.371736) rotate(-5.000000) translate(-346.493043, -320.371736) "></path>
            <path d="M317.782181,226.35756 L375.207746,226.352177 C379.626024,226.350264 383.208082,229.931651 383.208496,234.349929 C383.208496,234.350428 383.208496,234.350928 383.206997,234.351427 L383.204654,259.376707 C383.202741,263.794399 379.621598,267.375543 375.203905,267.377456 L317.77834,267.382839 C313.360062,267.384752 309.778004,263.803365 309.77759,259.385087 C309.77759,259.384588 309.77759,259.384088 309.779089,259.383589 L309.781432,234.358309 C309.783345,229.940617 313.364489,226.359473 317.782181,226.35756 Z" id="h7" stroke="#000000" transform="translate(346.493043, 246.867508) rotate(-5.000000) translate(-346.493043, -246.867508) "></path>
            <path d="M177.762098,240.034424 L271.04666,240.025681 C275.464938,240.023768 279.046995,243.605154 279.04741,248.023432 C279.04741,248.023932 279.04741,248.024431 279.045911,248.024931 L279.044048,267.92205 C279.042135,272.339743 275.460991,275.920887 271.043299,275.9228 L177.758737,275.931544 C173.340459,275.933456 169.758401,272.35207 169.757987,267.933792 C169.757987,267.933293 169.757987,267.932793 169.759486,267.932293 L169.761349,248.035174 C169.763261,243.617481 173.344405,240.036337 177.762098,240.034424 Z" id="h6" stroke="#000000" transform="translate(224.402698, 257.978612) rotate(-5.000000) translate(-224.402698, -257.978612) "></path>
            <path d="M179.469654,308.41045 L272.754216,308.401706 C277.172494,308.399794 280.754552,311.98118 280.754966,316.399458 C280.754966,316.399957 280.754966,316.400457 280.753467,316.400957 L280.751604,336.298076 C280.749692,340.715769 277.168548,344.296913 272.750855,344.298826 L179.466293,344.307569 C175.048016,344.309482 171.465958,340.728096 171.465544,336.309818 C171.465544,336.309318 171.465544,336.308819 171.467043,336.308319 L171.468905,316.4112 C171.470818,311.993507 175.051962,308.412363 179.469654,308.41045 Z" id="h8" stroke="#000000" transform="translate(226.110255, 326.354638) rotate(-5.000000) translate(-226.110255, -326.354638) "></path>
            <path d="M581,232 L418.662163,232 C411.116759,232 405,222.278182 405,210.285714 L405,177.714285 C405,165.721817 411.116759,156 418.662163,156 L580.947882,156" id="h5" stroke="#000000"></path>
            <path d="M237.229028,157.998144 L371.495301,157.985559 C375.913579,157.983646 379.495636,161.565033 379.49605,165.983311 C379.49605,165.98381 379.49605,165.98431 379.494552,165.984809 L379.492209,191.010089 C379.490296,195.427781 375.909152,199.008926 371.49146,199.010839 L237.225187,199.023423 C232.806909,199.025336 229.224851,195.44395 229.224437,191.025672 C229.224437,191.025172 229.224437,191.024673 229.225936,191.024173 L229.228279,165.998894 C229.230192,161.581201 232.811335,158.000057 237.229028,157.998144 Z" id="h4" stroke="#000000" transform="translate(304.360244, 178.504491) rotate(-5.000000) translate(-304.360244, -178.504491) "></path>
            <path d="M581,121 L418.662163,121 C411.116759,121 405,114.859905 405,107.285714 L405,86.7142857 C405,79.1400949 411.116759,73 418.662163,73 L580.947882,73" id="h3" stroke="#000000"></path>
            <path d="M581,31.3215158 C465.181143,32.7024375 401.660396,34.7061278 390.437759,37.3325866 C379.215123,39.9590455 374.111294,34.8336148 375.126272,21.9562946 C379.30193,19.6846559 385.196485,17.9757089 392.809937,16.8294536 C404.230116,15.1100707 552.884425,9 581,9" id="h2"></path>
            <path d="M366.660058,29.6598944 C363.638601,18.709022 354.443901,11.7610678 339.075958,8.81603176 C282.309524,4.01521953 262.418147,21.7963791 254.921076,25.7516701 C247.424003,29.7069611 196.523444,73 213.412654,73 C230.301862,73 340.343772,67.0527754 356.163159,67.0527754 C366.709417,67.0527754 370.208384,54.5884816 366.660058,29.6598944 Z" id="h1"></path>
        </g>
    </g>
</svg>