<?xml version="1.0" encoding="UTF-8"?>
<svg width="968px" height="719px" viewBox="0 0 968 968" version="1.1" xmlns="http://www.w3.org/2000/svg" xmlns:xlink="http://www.w3.org/1999/xlink">
    <title>METOLIUSROCKWOOD</title>
    <g id="Page-1" stroke="none" stroke-width="1" fill="none" fill-rule="evenodd">
        <g id="METOLIUSROCKWOOD" transform="translate(0.990998, 1.415533)" fill="#FFFFFF" stroke="#000000">
            <path d="M938.138742,0 C919.886996,0 614.33801,0 21.4917846,0 C7.16535512,1.85057102 0.00214038593,23.2415921 0.00214038593,64.1730634 C0.00214038593,105.104535 0.00214038593,313.104696 0.00214038593,688.173547 C-0.0868310974,707.441939 2.59796992,717.076135 8.05654342,717.076135 C13.5151169,717.076135 332.66839,717.076135 965.516361,717.076135 L965.516361,64.1730634 C965.516361,21.3910211 956.390488,0 938.138742,0 Z" id="board"></path>
            <rect id="h3" x="142.509002" y="460.084467" width="662" height="129" rx="64.5"></rect>
            <rect id="h2" x="142.509002" y="191.084467" width="662" height="157" rx="78.5"></rect>
            <path d="M965.516361,64.1730634 C965.516361,21.3910211 956.390488,7.27595761e-12 938.138742,7.27595761e-12 C919.886996,7.27595761e-12 614.33801,7.27595761e-12 21.4917846,7.27595761e-12 C7.16535512,1.85057102 0,23.2415921 0,64.1730634 C0,64.1730634 321.838787,64.1730634 965.516361,64.1730634 Z" id="h1"></path>
        </g>
    </g>
</svg>