<?xml version="1.0" encoding="UTF-8"?>
<svg width="582px" height="308px" viewBox="0 0 582 308" version="1.1" xmlns="http://www.w3.org/2000/svg" xmlns:xlink="http://www.w3.org/1999/xlink">
    <!-- Generator: Sketch 64 (93537) - https://sketch.com -->
    <title>METOLIUSCOMPACTII</title>
    <desc>Created with Sketch.</desc>
    <g id="Page-1" stroke="none" stroke-width="1" fill="none" fill-rule="evenodd">
        <g id="METOLIUSCOMPACTII" transform="translate(1.000000, 1.000000)" fill="#FFFFFF" fill-rule="nonzero">
            <path d="M235,270.83825 C235,270.83825 216.315039,177 216.315039,177 C216.315039,177 148.191918,176.887227 38,181.394218 L55.8479566,278 L235,270.83825 Z" id="h8" stroke="#000000"></path>
            <polygon id="h4" stroke="#000000" points="214 166.88884 190.754953 54 14 54 35.9578452 172"></polygon>
            <path d="M581,4.76302098 L216.060627,6.63017172 C207.17738,6.63017172 202.083032,7.89959049 200.777583,10.438428 C199.472133,12.9772656 194.65093,13.3833244 186.313969,11.6566047 C182.428587,3.88553491 173.997907,0 161.02193,0 C148.045954,0 113.035479,0 55.990505,0 C48.2059146,0.698985122 39.6115699,2.81649885 30.2074706,6.3525412 C16.1013218,11.6566047 -1.33480051,19.1883601 0.0809565545,34.0524423 C1.02479459,43.9618305 4.72467288,54.0025091 11.1805914,64.1744782 C18.2801114,65.7665837 26.8747326,66.5626365 36.9644553,66.5626365 C52.0990392,66.5626365 177.503433,66.5626365 179.842293,66.5626365 C182.181154,66.5626365 187.344064,67.6212702 188.539205,72.6136341 C189.335966,75.9418767 195.185605,99.010232 206.088123,141.8187 C205.838203,145.751876 201.892274,147.718464 194.250338,147.718464 C186.6084,147.718464 138.660101,147.718464 50.4054388,147.718464 C35.2763841,147.69686 27.7118566,154.909806 27.7118566,169.357304 C27.7118566,191.028551 49.1406295,194.204453 82.9064769,194.204453 C105.417042,194.204453 145.40741,194.204453 202.877581,194.204453 C209.083579,194.862013 213.477927,199.717546 216.060627,208.771053 C218.643326,217.82456 222.521797,231.471019 227.696042,249.710432 C230.127794,256.615094 226.249322,260.067426 216.060627,260.067426 C205.87193,260.067426 159.732516,260.657956 77.642382,261.839018 C60.2988741,261.761462 51.6271202,266.46604 51.6271202,275.95275 C51.6271202,290.182814 55.3054345,306 66.4739082,306 C73.9195574,306 123.781797,306 216.060627,306 L581,306" id="hangboard" stroke="#000000"></path>
            <path d="M581,255 L581,255 L514.135216,255 C504.671698,255 497,247.538078 497,238.333333 L497,231.666667 C497,222.46192 504.671698,215 514.135216,215 L514.135216,215 L581,215 L581,215" id="h11" stroke="#000000"></path>
            <rect id="h10" stroke="#000000" x="387" y="217" width="82" height="40" rx="10"></rect>
            <rect id="h9" stroke="#000000" x="245" y="217" width="119" height="40" rx="10"></rect>
            <path d="M581,146 L581,146 L514.135216,146 C504.671698,146 497,138.538079 497,129.333333 L497,122.666667 C497,113.461921 504.671698,106 514.135216,106 L514.135216,106 L581,106 L581,106" id="h7" stroke="#000000"></path>
            <rect id="h6" stroke="#000000" x="379" y="106" width="82" height="40" rx="10"></rect>
            <rect id="h5" stroke="#000000" x="227" y="106" width="119" height="40" rx="10"></rect>
            <polyline id="h3" points="580.962978 9 387.816053 9 376 43 581 43"></polyline>
            <polygon id="h2" points="364 9 348.18643 43 199 43 221.061877 9"></polygon>
            <path d="M57.4780479,10 L165.792312,10 C171.264103,10.7821351 174,12.9640523 174,16.5457516 C174,20.1274509 171.264103,27.9455338 165.792312,40 L10.9828867,40 C7.00570443,34.5871459 7.00570443,30.1595861 10.9828867,26.7173202 C16.9486602,21.5539215 33.4449901,10 57.4780479,10 Z" id="h1"></path>
        </g>
    </g>
</svg>