<?xml version="1.0" encoding="UTF-8"?>
<svg width="240px" height="200px" viewBox="0 0 240 200" version="1.1" xmlns="http://www.w3.org/2000/svg" xmlns:xlink="http://www.w3.org/1999/xlink">
    <title>METOLIUSROCK</title>
    <g id="Page-1" stroke="none" stroke-width="1" fill="none" fill-rule="evenodd">
        <g id="METOLIUSROCK" transform="translate(0.781117, 0.221349)" fill="#FFFFFF">
            <path d="M36.1487252,8.0558014 C31.9533558,13.0851178 30.1444095,14.2890226 28.9479607,15.4182569 C27.7515119,16.5474913 8.86176556,25.5081682 12.7436128,54.78089 C16.6254601,84.0536119 12.8546911,64.1991995 18.449344,91.4200266 C22.1791126,109.567245 26.7282356,132.786106 32.0967128,161.076609 C34.5036851,170.879978 36.7444027,176.956664 38.8188657,179.306668 C41.9305601,182.831674 53.6517591,199.778651 81.6993921,199.778651 C109.562812,199.778651 119.507206,182.831674 122.618901,179.306668 C124.693364,176.956664 126.934081,170.879978 129.341054,161.076609 C134.709531,132.786106 139.258654,109.567245 142.988422,91.4200266 C148.583075,64.1991995 144.812306,84.0536119 148.694154,54.78089 C152.576001,25.5081682 133.686255,16.5474913 132.489806,15.4182569 C131.293357,14.2890226 129.484411,13.0851178 125.289041,8.0558014 C121.093672,3.026485 104.261341,0.778650693 81.6993921,0.778650693 C59.1374429,0.778650693 40.3440946,3.026485 36.1487252,8.0558014 Z" id="board" stroke="#000000"></path>
            <path d="M36.2188832,8.00430848 C32.1224144,12.9980376 30.3561117,14.1934236 29.1878677,15.3146675 C28.0196237,16.4359114 9.5751796,25.3331828 13.3655172,54.3987717 C17.1558547,83.4643606 13.4739769,63.7504375 18.9367429,90.7786507 C7.41534563,73.3140563 1.37183756,58.8589378 0.806218653,47.4132953 C-0.0422097141,30.2448315 -1.28651874,4.24417013 7.71796958,2.51141041 C13.7209618,1.35623727 18.6258318,0.778650693 22.4325797,0.778650693 C25.6424488,3.55343671 27.7655047,5.201902 28.8017475,5.72404655 C30.3561117,6.50726337 31.1865578,7.19802765 36.2188832,8.00430848 Z" id="board" stroke="#000000"></path>
            <path d="M162.218883,8.00430848 C158.122414,12.9980376 156.356112,14.1934236 155.187868,15.3146675 C154.019624,16.4359114 135.57518,25.3331828 139.365517,54.3987717 C143.155855,83.4643606 139.473977,63.7504375 144.936743,90.7786507 C133.415346,73.3140563 127.371838,58.8589378 126.806219,47.4132953 C125.95779,30.2448315 124.713481,4.24417013 133.71797,2.51141041 C139.720962,1.35623727 144.625832,0.778650693 148.43258,0.778650693 C151.642449,3.55343671 153.765505,5.201902 154.801748,5.72404655 C156.356112,6.50726337 157.186558,7.19802765 162.218883,8.00430848 Z" id="board" stroke="#000000" transform="translate(144.218883, 45.778651) scale(-1, 1) translate(-144.218883, -45.778651) "></path>
            <rect id="h4" stroke="#000000" x="58.2188832" y="147.778651" width="47" height="31" rx="15.5"></rect>
            <rect id="h3" stroke="#000000" x="45.2188832" y="100.778651" width="70" height="31" rx="15.5"></rect>
            <rect id="h2" stroke="#000000" x="36.2188832" y="42.7786507" width="92" height="31" rx="15.5"></rect>
            <path d="M52.7188832,9.77865069 L111.718883,9.77865069 C120.831582,9.77865069 128.218883,17.1659523 128.218883,26.2786507 L128.218883,29.7786507 L128.218883,29.7786507 L36.2188832,29.7786507 L36.2188832,26.2786507 C36.2188832,17.1659523 43.6061848,9.77865069 52.7188832,9.77865069 Z" id="h1"></path>
        </g>
    </g>
</svg>
