<?xml version="1.0" encoding="UTF-8"?>
<svg width="342px" height="235px" viewBox="0 0 342 235" version="1.1" xmlns="http://www.w3.org/2000/svg" xmlns:xlink="http://www.w3.org/1999/xlink">
    <!-- Generator: Sketch 58 (84663) - https://sketch.com -->
    <title>METOLIUSSIMU3D</title>
    <desc>Created with Sketch.</desc>
    <g id="Page-1" stroke="none" stroke-width="1" fill="none" fill-rule="evenodd">
        <g id="METOLIUSSIMU3D" transform="translate(1.440430, 0.039062)" fill="#FFFFFF">
            <path d="M340.55957,217.8125 C321.782227,217.8125 300.09668,207.116211 300.09668,207.116211 C268.182129,203.807129 133.126953,228.745117 114.743164,233.024414 C102.487305,235.877279 92.6650391,231.882487 85.2763672,221.040039 C46.8037109,171.062826 23.3753255,140.736654 14.9912109,130.061523 C6.60709635,119.386393 1.61002604,109.708659 0,101.02832 C0,99.1722005 0,94.0455729 0,85.6484375 C0,77.2513021 4.99707031,69.2252604 14.9912109,61.5703125 C29.7034505,55.0859375 39.3886719,51.1774089 44.046875,49.8447266 C48.7050781,48.5120443 53.7503255,48.5120443 59.1826172,49.8447266 C69.7353516,56.5673828 77.0852865,61.3782552 81.2324219,64.2773438 C85.3795573,67.1764323 89.9150391,67.8857422 94.8388672,66.4052734 C150.643555,56.3935547 180.477539,50.8733724 184.34082,49.8447266 C188.204102,48.8160807 194.859049,46.9944661 204.305664,44.3798828 L285.399414,37.9238281 C292.467773,37.8658854 296.98112,34.8766276 298.939453,28.9560547 C301.876953,20.0751953 309.618164,1 340.55957,0.5" id="hangboard" stroke="#000000"></path>
            <rect id="h9" stroke="#000000" transform="translate(248.507234, 99.462308) rotate(-3.000000) translate(-248.507234, -99.462308) " x="210.507234" y="85.962308" width="76" height="27" rx="5"></rect>
            <rect id="h8" stroke="#000000" transform="translate(161.559570, 108.460938) rotate(-7.000000) translate(-161.559570, -108.460938) " x="123.55957" y="94.9609375" width="76" height="27" rx="5"></rect>
            <path d="M340.55957,112.960938 L321.691897,112.960938 C316.116867,112.960938 311.597412,108.259927 311.597412,102.460938 C311.597412,96.6619476 316.116867,91.9609375 321.691897,91.9609375 L340.526353,91.9609375" id="h10" stroke="#000000"></path>
            <path d="M340.55957,157.960938 L322.995726,157.960938 C317.80518,157.960938 313.597412,153.707643 313.597412,148.460938 C313.597412,143.214232 317.80518,138.960938 322.995726,138.960938 L340.528644,138.960938" id="h14" stroke="#000000"></path>
            <path d="M340.55957,197.960938 L326.907212,197.960938 C322.870121,197.960938 319.597412,193.707643 319.597412,188.460938 C319.597412,183.214232 322.870121,178.960938 326.907212,178.960938 L340.535517,178.960938" id="h18" stroke="#000000"></path>
            <rect id="h11" stroke="#000000" transform="translate(98.207632, 165.260454) rotate(-13.000000) translate(-98.207632, -165.260454) " x="66.7076316" y="155.260454" width="63" height="20" rx="10"></rect>
            <rect id="h12" stroke="#000000" transform="translate(180.059570, 152.960938) rotate(-9.000000) translate(-180.059570, -152.960938) " x="148.55957" y="142.960938" width="63" height="20" rx="10"></rect>
            <rect id="h16" stroke="#000000" transform="translate(222.219622, 185.994586) rotate(-9.000000) translate(-222.219622, -185.994586) " x="203.719622" y="175.994586" width="37" height="20" rx="10"></rect>
            <rect id="h13" stroke="#000000" transform="translate(261.059570, 142.960938) rotate(-4.000000) translate(-261.059570, -142.960938) " x="229.55957" y="132.960938" width="63" height="20" rx="10"></rect>
            <rect id="h17" stroke="#000000" transform="translate(277.088802, 180.798015) rotate(-4.000000) translate(-277.088802, -180.798015) " x="257.588802" y="170.798015" width="39" height="20" rx="10"></rect>
            <rect id="h15" stroke="#000000" transform="translate(145.559570, 200.960938) rotate(-13.000000) translate(-145.559570, -200.960938) " x="106.55957" y="190.960938" width="78" height="20" rx="10"></rect>
            <rect id="h7" stroke="#000000" transform="translate(76.559570, 122.460938) rotate(-12.000000) translate(-76.559570, -122.460938) " x="38.5595703" y="108.960938" width="76" height="27" rx="5"></rect>
            <path d="M340.55957,65.9609375 L319.05957,65.9609375 C312.708296,65.9609375 307.55957,60.8122121 307.55957,54.4609375 C307.55957,48.1096629 312.708296,42.9609375 319.05957,42.9609375 L340.521729,42.9609375" id="h6" stroke="#000000"></path>
            <rect id="h5" stroke="#000000" transform="translate(44.059570, 89.960938) rotate(-13.000000) translate(-44.059570, -89.960938) " x="15.5595703" y="80.9609375" width="57" height="18" rx="9"></rect>
            <path d="M338.673584,3.01855469 C316.740153,5.75488281 303.77002,17.4294434 299.763184,38.0422363 C299.763184,38.0422363 312.733317,38.0422363 338.673584,38.0422363 L338.673584,3.01855469 Z" id="h4"></path>
            <polygon id="h3" points="209.55957 69.1503906 291.759766 62.9609375 291.759766 39.9609375 209.55957 46.1982422"></polygon>
            <polygon id="h2" points="89.8789062 72.1162109 89.8789062 89.9609375 200.696289 72.1162109 200.696289 51.8024784"></polygon>
            <path d="M4.31591797,83.1843262 L72.5515137,62.1064453 L57.5749512,51.9313965 C52.0306803,51.6421712 48.3387044,51.8395996 46.4990234,52.5236816 C43.739502,53.5498047 23.3061523,60.6896973 16.5546875,65.1403809 C9.80322266,69.5910645 4.31591797,74.9399414 4.31591797,83.1843262 Z" id="h1"></path>
        </g>
    </g>
</svg>