<?xml version="1.0" encoding="UTF-8"?>
<svg width="228px" height="149px" viewBox="0 0 228 149" version="1.1" xmlns="http://www.w3.org/2000/svg" xmlns:xlink="http://www.w3.org/1999/xlink">
    <!-- Generator: Sketch 57.1 (83088) - https://sketch.com -->
    <title>METOLIUSCONTACT</title>
    <desc>Created with Sketch.</desc>
    <g id="Page-1" stroke="none" stroke-width="1" fill="none" fill-rule="evenodd">
        <g id="CONTACT" transform="translate(-18.516640, -20.873047)" fill="#FFFFFF">
            <g id="METOLIUSCONTACT" transform="translate(20.000000, 22.000000)">
                <path d="M226.51664,1.296875 C200.678099,1.296875 185.243203,1.296875 180.211953,1.296875 C172.665078,1.296875 173.706338,0 171.642373,0 C169.578408,0 142.233437,1.296875 139.638222,1.296875 C137.043008,1.296875 129.731972,2.61108398 117.274941,1.296875 C108.970254,0.420735677 103.13334,1.44596354 99.7641989,4.37255859 C75.8732484,25.1899414 62.4097067,37.2347005 59.3735739,40.5068359 C54.8193747,45.4150391 16.4619528,84.5429688 6.25492157,105.888672 C-3.95210968,127.234375 -0.76265655,139.097656 9.30765595,144.371094 C16.0211976,147.886719 26.4463278,147.886719 40.5830466,144.371094 C53.6784242,137.994792 66.815794,134.335938 79.9951559,133.394531 C93.1745179,132.453125 142.007444,131.539607 226.509072,130.667862" id="background" stroke="#000000"></path>
                <path d="M226.51664,115.873047 L178.01664,115.873047 C173.874505,115.873047 170.51664,112.515182 170.51664,108.373047 C170.51664,104.230911 173.874505,100.873047 178.01664,100.873047 L226.51664,100.873047" id="h18" stroke="#000000"></path>
                <path d="M226.512734,54.8730469 L178.51664,54.8730469 C174.098362,54.8730469 170.51664,51.758506 170.51664,47.9165251 L170.51664,41.8295686 C170.51664,37.9875877 174.098362,34.8730469 178.51664,34.8730469 L226.517922,34.8840332" id="h16" stroke="#000000"></path>
                <path d="M226.51664,87.8730469 L178.51664,87.8730469 C174.098362,87.8730469 170.51664,84.2913249 170.51664,79.8730469 L170.51664,75.8730469 C170.51664,71.4547689 174.098362,67.8730469 178.51664,67.8730469 L226.51664,67.8730469" id="h17" stroke="#000000"></path>
                <path d="M226.51664,16.8730469 L176.005919,16.8730469 C172.974274,16.8730469 170.51664,14.410613 170.51664,11.3730469 C170.51664,8.33548075 172.974274,5.87304687 176.005919,5.87304687 L226.51664,5.87304687" id="h15" stroke="#000000"></path>
                <rect id="h14" stroke="#000000" x="135.51664" y="104.873047" width="24" height="13" rx="6.5"></rect>
                <rect id="h13" stroke="#000000" transform="translate(111.516640, 113.373047) rotate(-3.000000) translate(-111.516640, -113.373047) " x="95.5166403" y="107.873047" width="32" height="11" rx="5.5"></rect>
                <rect id="h12" stroke="#000000" transform="translate(67.016640, 115.373047) rotate(-3.000000) translate(-67.016640, -115.373047) " x="47.5166403" y="109.873047" width="39" height="11" rx="5.5"></rect>
                <path d="M28.5383787,75.0276081 C25.8158191,77.9926189 23.0686674,81.2917866 18.1470114,88.2558594 C15.0651143,92.6166997 10.4183666,98.4042133 6.59741363,106.478815 C-3.32543551,127.448205 -0.224782495,139.102342 9.56515439,144.282812 C16.091779,147.736458 23.3158764,147.736458 37.0590035,144.282812 C39.8033251,142.548954 40.6947866,139.849673 39.7333879,136.184971 C38.29129,130.687917 29.8877251,105.313259 43.5166403,84.8513134 C43.5166403,77.3712193 38.5238864,74.0966508 28.5383787,75.0276081 Z" id="h11"></path>
                <rect id="h10" stroke="#000000" x="135.51664" y="83.8730469" width="24" height="13" rx="6.5"></rect>
                <rect id="h9" stroke="#000000" transform="translate(112.516640, 91.873047) rotate(-3.000000) translate(-112.516640, -91.873047) " x="96.5166403" y="85.8730469" width="32" height="12" rx="6"></rect>
                <rect id="h8" stroke="#000000" transform="translate(68.009788, 96.111367) rotate(-3.000000) translate(-68.009788, -96.111367) " x="48.509788" y="90.6113671" width="39" height="11" rx="5.5"></rect>
                <rect id="h7" stroke="#000000" x="139.51664" y="60.8730469" width="24" height="13" rx="6.5"></rect>
                <rect id="h5" stroke="#000000" transform="translate(73.018696, 72.451551) rotate(-3.000000) translate(-73.018696, -72.451551) " x="58.518696" y="66.9515508" width="29" height="11" rx="5.5"></rect>
                <rect id="h6" stroke="#000000" transform="translate(112.490472, 69.373732) rotate(-3.000000) translate(-112.490472, -69.373732) " x="96.4904723" y="63.8737321" width="32" height="11" rx="5.5"></rect>
                <rect id="h4" stroke="#000000" x="139.51664" y="36.8730469" width="24" height="13" rx="6.5"></rect>
                <rect id="h3" stroke="#000000" transform="translate(109.190952, 45.365436) rotate(-5.000000) translate(-109.190952, -45.365436) " x="86.6909518" y="39.8654363" width="45" height="11" rx="5.5"></rect>
                <path d="M163.51664,5.87304687 C167.58679,5.71377768 168.717649,8.07557171 166.909218,12.958429 C164.196572,20.2827148 163.51664,24.922773 147.51664,24.922773 C136.849974,24.922773 130.614003,24.922773 128.808729,24.922773 C122.086866,25.5094139 120.952394,23.3977865 125.405312,18.5878906 C132.084689,11.3730469 133.641382,5.87304687 139.51664,5.87304687 C143.433479,5.87304687 151.433479,5.87304687 163.51664,5.87304687 Z" id="h2"></path>
                <path d="M132.103555,4.84172685 C135.469135,1.84130459 129.796339,3.12335515 117.580217,1.84130459 C109.436137,0.986604212 103.712104,1.98674496 100.408121,4.84172685 C94.8476983,9.6614537 90.0737245,14.0478852 85.4547893,17.8547931 C76.8679541,24.9320284 94.1358186,23.4077625 94.1358186,23.4077625 C94.1358186,23.4077625 111.196825,24.9823989 119.967226,13.2175028 C120.376793,12.6680971 124.422236,9.87617179 132.103555,4.84172685 Z" id="h1"></path>
            </g>
        </g>
    </g>
</svg>