<?xml version="1.0" encoding="UTF-8"?>
<svg width="585px" height="296px" viewBox="0 0 585 296" version="1.1" xmlns="http://www.w3.org/2000/svg" xmlns:xlink="http://www.w3.org/1999/xlink">
    <title>MOONARM</title>
    <g id="Page-1" stroke="none" stroke-width="1" fill="none" fill-rule="evenodd">
        <g id="MOONARM" transform="translate(0.816183, 1.390720)" fill="#FFFFFF" stroke="#000000">
            <polyline id="board" points="583.183817 40.7276053 117.067655 40.7276053 117.067655 293.60928 583.183817 293.60928"></polyline>
            <polygon id="board" points="194.875267 1.44243508 203.410015 22.8093665 199.142641 293.60928 178.35839 293.60928 178.35839 17.9989473"></polygon>
            <polyline id="board" points="583.183817 293.60928 440.183817 293.60928 440.183817 200.60928 583.183817 200.60928"></polyline>
            <polyline id="board" points="583.183817 200.60928 440.183817 200.60928 440.183817 84.6092803 583.183817 84.6092803"></polyline>
            <path d="M226.637563,101.998947 L432.183817,101.998947 L432.183817,208.60928 C432.183817,213.027558 428.602095,216.60928 424.183817,216.60928 L234.637563,216.60928 C230.219285,216.60928 226.637563,213.027558 226.637563,208.60928 L226.637563,101.998947 L226.637563,101.998947 Z" id="board"></path>
            <path d="M226.637563,17.9989473 L432.183817,17.9989473 L432.183817,124.60928 C432.183817,129.027558 428.602095,132.60928 424.183817,132.60928 L234.637563,132.60928 C230.219285,132.60928 226.637563,129.027558 226.637563,124.60928 L226.637563,17.9989473 L226.637563,17.9989473 Z" id="board"></path>
            <rect id="board" x="0.183816957" y="195.60928" width="186" height="98" rx="8"></rect>
            <rect id="board" x="0.183816957" y="142.60928" width="186" height="98" rx="8"></rect>
            <rect id="board" x="0.183816957" y="83.6092803" width="186" height="98" rx="8"></rect>
            <path d="M583.183817,53.6092803 C563.853851,53.6092803 548.183817,69.2793141 548.183817,88.6092803 C548.183817,107.939247 563.853851,123.60928 583.183817,123.60928" id="board"></path>
            <path d="M583.183817,11.0845085 C513.569051,14.528795 476.638779,18.5213048 472.393001,23.062038 C472.393001,23.062038 474.219801,34.3202115 477.8734,56.8365585 L548.129182,56.8365585 C554.821608,46.622324 566.506486,41.5152067 583.183817,41.5152067" id="board"></path>
            <path d="M-1.42108547e-14,17.9989473 L186.143052,17.9989473 L186.180068,96.9989482 C186.185886,101.417224 182.605843,105.000624 178.187565,105.002694 C178.186316,105.002695 178.185066,105.002695 178.183817,104.998947 L8.1669321,104.998947 C3.75525357,104.998947 0.176271105,101.427519 0.166949961,97.01585 L-1.42108547e-14,17.9989473 L-1.42108547e-14,17.9989473 Z" id="board"></path>
            <polygon id="board" points="432.183817 205.11219 432.183817 293.60928 343.881309 293.60928 343.881309 205.11219"></polygon>
            <polygon id="board" points="343.881309 205.11219 226.637563 205.11219 226.637563 293.60928 343.881309 293.60928"></polygon>
            <polygon id="board" points="440.409832 2.84487369 440.409832 293.60928 432.183817 293.60928 432.183817 17.9989473"></polygon>
            <path d="M583.183817,286.60928 L508.183817,286.60928 C503.765539,286.60928 500.183817,283.027558 500.183817,278.60928 L500.183817,251.60928 C500.183817,247.191002 503.765539,243.60928 508.183817,243.60928 L583.183817,243.60928" id="h13"></path>
            <path d="M583.183817,178.60928 L508.183817,178.60928 C503.765539,178.60928 500.183817,175.027558 500.183817,170.60928 L500.183817,143.60928 C500.183817,139.191002 503.765539,135.60928 508.183817,135.60928 L583.183817,135.60928" id="h12"></path>
            <path d="M583.183817,0 C511.239994,4.63562023 474.309722,8.66207872 472.393001,12.0793755 C472.393001,12.0793755 472.393001,15.740263 472.393001,23.062038 C484.870238,17.3612661 521.80051,13.3687562 583.183817,11.0845085" id="h11"></path>
            <rect id="h10" x="361.183817" y="227.60928" width="53" height="53" rx="26.5"></rect>
            <rect id="h9" x="250.183817" y="227.60928" width="83" height="53" rx="26.5"></rect>
            <rect id="h8" x="245.183817" y="142.60928" width="163" height="53" rx="26.5"></rect>
            <rect id="h7" x="231.183817" y="29.6092803" width="195" height="89" rx="44.5"></rect>
            <path d="M432.616969,17.9989473 L226.637563,17.9989473 C225.99405,6.96127249 232.176135,1.44243508 245.183817,1.44243508 C258.191499,1.44243508 323.266838,1.44243508 440.409832,1.44243508 L432.616969,17.9989473 Z" id="h6"></path>
            <rect id="h5" x="18.183817" y="247.60928" width="153" height="38" rx="19"></rect>
            <rect id="h4" x="8.18381696" y="189.60928" width="163" height="38" rx="19"></rect>
            <rect id="h3" x="8.18381696" y="118.60928" width="163" height="49" rx="24.5"></rect>
            <rect id="h2" x="8.18381696" y="33.6092803" width="163" height="56" rx="28"></rect>
            <path d="M186.143052,17.9989473 L0.00860981486,17.9989473 C-0.213540043,6.96127249 3.86323176,1.44243508 12.2389252,1.44243508 C20.6146187,1.44243508 81.4933994,1.44243508 194.875267,1.44243508 L186.143052,17.9989473 Z" id="h1"></path>
        </g>
    </g>
</svg>