<?xml version="1.0" encoding="UTF-8"?>
<svg width="561px" height="211px" viewBox="0 0 561 211" version="1.1" xmlns="http://www.w3.org/2000/svg" xmlns:xlink="http://www.w3.org/1999/xlink">
    <!-- Generator: Sketch 58 (84663) - https://sketch.com -->
    <title>MOONFINGER</title>
    <desc>Created with Sketch.</desc>
    <g id="Page-1" stroke="none" stroke-width="1" fill="none" fill-rule="evenodd">
        <g id="MOONFINGER" transform="translate(1.000000, 0.000000)" fill="#FFFFFF" fill-rule="nonzero">
            <path d="M560,1.91015589 C474.044271,2.08463506 423.44987,4.03190069 408.216797,7.75195277 C392.983724,11.4720049 373.579427,13.9251299 350.003906,15.1113278 C319.416667,14.099609 298.761068,11.646484 288.03711,7.75195277 C271.951172,1.91015589 196.177735,1.91015589 178.958985,1.91015589 C161.740235,1.91015589 100.298828,-2.19921911 79.4375001,4.70898402 C58.576172,11.6171871 0.466797,33.7753903 0.466797,75.8945309 C0.466797,118.013672 11.1171876,154.945312 27.388672,170.583984 C43.6601564,186.222656 74.1054689,206.853515 114.367188,206.853515 C154.628906,206.853515 252.044922,204.576172 280.233399,197.917968 C308.421875,191.259765 374.154297,186.035156 394.822266,186.035156 C415.490235,186.035156 462.882813,188.982422 480.941406,197.917968 C492.980469,203.875 519.333333,207.742838 560,209.521484" id="hangboard" stroke="#000000"></path>
            <path d="M560,126.795898 C538.936849,126.985677 528.405274,133.050781 528.405274,144.991211 C528.405274,162.901855 549.037598,166.442871 560,166.442871" id="h5" stroke="#000000"></path>
            <path d="M337.112305,109.897461 C315.415039,110.713216 302.466471,111.667968 298.266602,112.761718 C291.966797,114.402343 280.233399,116.011718 280.233399,126.623047 C280.233399,137.234375 287.860352,143.694336 298.266602,143.694336 C305.204102,143.694336 327.570313,143.252278 365.365235,142.368164 C377.756511,140.987304 385.444987,138.91927 388.430664,136.164062 C392.90918,132.03125 394.816406,122.737304 390.495117,116.317382 C387.614258,112.037435 369.819987,109.897461 337.112305,109.897461 Z" id="h4" stroke="#000000"></path>
            <path d="M88.0859376,139.000976 C82.5322267,139.000976 71.1767579,140.337402 69.5166017,144.991211 C67.8564454,149.645019 67.8564454,151.410474 69.5166017,155.690429 C71.1767579,159.970385 87.3632814,167.05664 112.931641,167.05664 C129.977214,167.05664 145.819011,166.365234 160.457031,164.982422 C179.269531,162.616536 190.729818,159.519205 194.837891,155.690429 C201,149.947265 199.263672,146.853027 199.263672,144.991211 C199.263672,143.129394 195.054199,131.815918 177.760742,137.208007 C160.467285,142.600097 142.904982,142.161132 133.941505,142.161132 C124.978027,142.161132 116.444336,142.161132 113.949707,142.161132 C100.409668,140.054362 91.7884116,139.000976 88.0859376,139.000976 Z" id="h3" stroke="#808080"></path>
            <path d="M297.814453,47.236668 C292.260742,47.236668 280.905274,48.5730938 279.245117,53.2269024 C277.584961,57.880711 277.584961,59.6461659 279.245117,63.9261211 C280.905274,68.2060764 297.091797,75.2923321 322.660156,75.2923321 C339.705729,75.2923321 355.547526,74.6009258 370.185547,73.2181133 C388.998047,70.8522279 400.458333,67.7548972 404.566406,63.9261211 C410.728516,58.1829571 408.992188,55.0887188 408.992188,53.2269024 C408.992188,51.365086 404.782715,40.0516094 387.489258,45.4436992 C370.195801,50.8357891 352.633498,50.3968242 343.67002,50.3968242 C334.706543,50.3968242 326.172852,50.3968242 323.678223,50.3968242 C310.138184,48.2900534 301.516927,47.236668 297.814453,47.236668 Z" id="h2" stroke="#808080"></path>
            <path d="M139.090798,42.9999996 C115.023918,44.0137537 100.661204,45.2002424 96.0026557,46.5594657 C89.0148331,48.5983006 76.0000001,50.5983006 76.0000001,63.7851938 C76.0000001,76.972087 84.4599124,84.9999996 96.0026557,84.9999996 C103.697818,84.9999996 128.5067,84.4506469 170.429302,83.3519414 C184.173862,81.635922 192.702016,79.0659382 196.013767,75.6419899 C200.981393,70.5060676 203.096912,58.9563103 198.303684,50.978155 C195.108199,45.6593848 175.37057,42.9999996 139.090798,42.9999996 Z" id="h1" stroke="#000000"></path>
        </g>
    </g>
</svg>