<?xml version="1.0" encoding="UTF-8"?>
<svg width="561px" height="211px" viewBox="0 0 561 211" version="1.1" xmlns="http://www.w3.org/2000/svg" xmlns:xlink="http://www.w3.org/1999/xlink">
    <!-- Generator: Sketch 57.1 (83088) - https://sketch.com -->
    <title>MOONFINGER</title>
    <desc>Created with Sketch.</desc>
    <g id="Page-1" stroke="none" stroke-width="1" fill="none" fill-rule="evenodd">
        <g id="MOONFINGER" transform="translate(1.466797, 0.697090)" fill="#FFFFFF" stroke="#000000">
            <path d="M559.533203,1.21306589 C473.577474,1.38754506 422.983073,3.33481069 407.75,7.05486277 C392.516927,10.7749149 373.11263,13.2280399 349.537109,14.4142378 C318.94987,13.402519 298.294271,10.949394 287.570313,7.05486277 C271.484375,1.21306589 195.710938,1.21306589 178.492188,1.21306589 C161.273438,1.21306589 99.8320313,-2.89630911 78.9707031,4.01189402 C58.109375,10.9200971 0,33.0783003 0,75.1974409 C0,117.316582 10.6503906,154.248222 26.921875,169.886894 C43.1933594,185.525566 73.6386719,206.156425 113.900391,206.156425 C154.162109,206.156425 251.578125,203.879082 279.766602,197.220878 C307.955078,190.562675 373.6875,185.338066 394.355469,185.338066 C415.023438,185.338066 462.416016,188.285332 480.474609,197.220878 C492.513672,203.17791 518.866536,207.045748 559.533203,208.824394" id="hangboard"></path>
            <path d="M559.533203,126.098808 C538.470052,126.288587 527.938477,132.353691 527.938477,144.294121 C527.938477,162.204765 548.570801,165.745781 559.533203,165.745781" id="h5"></path>
            <path d="M336.645508,109.200371 C314.948242,110.016126 301.999674,110.970878 297.799805,112.064628 C291.5,113.705253 279.766602,115.314628 279.766602,125.925957 C279.766602,136.537285 287.393555,142.997246 297.799805,142.997246 C304.737305,142.997246 327.103516,142.555188 364.898438,141.671074 C377.289714,140.290214 384.97819,138.22218 387.963867,135.466972 C392.442383,131.33416 394.349609,122.040214 390.02832,115.620292 C387.147461,111.340345 369.35319,109.200371 336.645508,109.200371 Z" id="h4"></path>
            <path d="M87.6191406,138.303886 C82.0654297,138.303886 70.7099609,139.640312 69.0498047,144.294121 C67.3896484,148.947929 67.3896484,150.713384 69.0498047,154.993339 C70.7099609,159.273295 86.8964844,166.35955 112.464844,166.35955 C129.510417,166.35955 145.352214,165.668144 159.990234,164.285332 C178.802734,161.919446 190.263021,158.822115 194.371094,154.993339 C200.533203,149.250175 198.796875,146.155937 198.796875,144.294121 C198.796875,142.432304 194.587402,131.118828 177.293945,136.510917 C160.000488,141.903007 142.438185,141.464042 133.474708,141.464042 C124.51123,141.464042 115.977539,141.464042 113.48291,141.464042 C99.9428711,139.357272 91.3216146,138.303886 87.6191406,138.303886 Z" id="h3" stroke-opacity="0.25"></path>
            <path d="M297.347656,46.539578 C291.793945,46.539578 280.438477,47.8760038 278.77832,52.5298124 C277.118164,57.183621 277.118164,58.9490759 278.77832,63.2290311 C280.438477,67.5089864 296.625,74.5952421 322.193359,74.5952421 C339.238932,74.5952421 355.080729,73.9038358 369.71875,72.5210233 C388.53125,70.1551379 399.991536,67.0578072 404.099609,63.2290311 C410.261719,57.4858671 408.525391,54.3916288 408.525391,52.5298124 C408.525391,50.667996 404.315918,39.3545194 387.022461,44.7466092 C369.729004,50.1386991 352.166701,49.6997342 343.203223,49.6997342 C334.239746,49.6997342 325.706055,49.6997342 323.211426,49.6997342 C309.671387,47.5929634 301.05013,46.539578 297.347656,46.539578 Z" id="h2" stroke-opacity="0.25"></path>
            <path d="M138.624001,42.3029096 C114.557121,43.3166637 100.194407,44.5031524 95.5358587,45.8623757 C88.5480361,47.9012106 75.5332031,49.9012106 75.5332031,63.0881038 C75.5332031,76.274997 83.9931154,84.3029096 95.5358587,84.3029096 C103.231021,84.3029096 128.039903,83.7535569 169.962505,82.6548514 C183.707065,80.938832 192.235219,78.3688482 195.54697,74.9448999 C200.514596,69.8089776 202.630115,58.2592203 197.836887,50.281065 C194.641402,44.9622948 174.903773,42.3029096 138.624001,42.3029096 Z" id="h1"></path>
        </g>
    </g>
</svg>