<?xml version="1.0" encoding="UTF-8"?>
<svg width="344px" height="146px" viewBox="0 0 344 146" version="1.1" xmlns="http://www.w3.org/2000/svg" xmlns:xlink="http://www.w3.org/1999/xlink">
    <!-- Generator: Sketch 58 (84663) - https://sketch.com -->
    <title>MOONPHAT</title>
    <desc>Created with Sketch.</desc>
    <g id="Page-1" stroke="none" stroke-width="1" fill="none" fill-rule="evenodd">
        <g id="MOONPHAT" transform="translate(0.000000, 1.000000)" fill="#FFFFFF">
            <path d="M344,0.1796875 C316.66276,3.69270833 295.872396,7.35481771 281.628906,11.1660156 C260.263672,16.8828125 234.564453,20.2646484 219.974609,20.2646484 C210.248047,20.2646484 183.874674,16.9171549 140.854492,10.222168 C115.428711,6.09619141 91.5683594,5.22200521 69.2734375,7.59960938 C46.9785156,9.97721354 30.1923828,17.0445964 18.9150391,28.8017578 C6.90722656,44.070638 0.903320312,58.6409505 0.903320312,72.5126953 C0.903320312,86.3844401 6.25846354,99.5126953 16.96875,111.897461 C36.7688802,130.316081 57.6761068,140.213216 79.6904297,141.588867 C101.704753,142.964518 126.719727,140.830404 154.735352,135.186523 C180.857096,127.504883 201.24349,123.664062 215.894531,123.664062 C230.545573,123.664063 254.679362,127.504883 288.295898,135.186523 C312.855794,141.187174 331.423828,144.1875 344,144.1875" id="hangboard" stroke="#000000"></path>
            <rect id="h1" stroke="#000000" x="45" y="32" width="81" height="28" rx="14"></rect>
            <rect id="h2" stroke="#000000" x="164" y="69" width="81" height="28" rx="14"></rect>
            <ellipse id="h4" stroke="#000000" cx="299" cy="98" rx="20" ry="15"></ellipse>
            <rect id="h3" stroke="#808080" x="42" y="83" width="81" height="28" rx="14"></rect>
        </g>
    </g>
</svg>