<?xml version="1.0" encoding="UTF-8"?>
<svg width="665px" height="355px" viewBox="0 0 665 355" version="1.1" xmlns="http://www.w3.org/2000/svg" xmlns:xlink="http://www.w3.org/1999/xlink">
    <title>MOUNTAINROCK2002</title>
    <g id="Page-1" stroke="none" stroke-width="1" fill="none" fill-rule="evenodd">
        <g id="MOUNTAINROCK2002" transform="translate(1.000000, 1.000000)" fill="#FFFFFF" stroke="#000000">
            <path d="M664,238 L17.8024737,238 C5.9341579,228.886898 0,216.510984 0,200.872256 C0,185.233529 0,148.821881 0,91.6373133 C296.132553,91.6373133 444.19883,91.6373133 444.19883,91.6373133 C444.19883,91.6373133 453.624835,90.2107077 453.624835,82.8387746 C453.624835,77.9241526 453.624835,63.644561 453.624835,40 L664,40.0859098" id="board"></path>
            <path d="M664,353 L46.8245197,353 C27.6081732,353 18,342.440773 18,321.322319 C18,300.203864 18,272.096425 18,237 L664,237" id="board"></path>
            <path d="M664,330 L570.949153,330 C556.065547,330 544,317.911688 544,303 C544,288.088312 556.065547,276 570.949153,276 L664,276" id="h14"></path>
            <rect id="h13" x="418.5" y="276.5" width="96" height="53" rx="26.5"></rect>
            <rect id="h12" x="310.5" y="276.5" width="86" height="53" rx="26.5"></rect>
            <rect id="h11" x="228.5" y="276.5" width="53" height="53" rx="26.5"></rect>
            <rect id="h10" x="35.5" y="276.5" width="170" height="53" rx="26.5"></rect>
            <path d="M664,207 L569.945378,207 C555.063857,207 543,194.911688 543,180 C543,165.088312 555.063857,153 569.945378,153 L664,153" id="h9"></path>
            <rect id="h8" x="410.5" y="153.5" width="96" height="53" rx="26.5"></rect>
            <rect id="h7" x="301.5" y="153.5" width="86" height="53" rx="26.5"></rect>
            <rect id="h6" x="211.5" y="153.5" width="53" height="53" rx="26.5"></rect>
            <rect id="h5" x="19.5" y="153.5" width="170" height="53" rx="26.5"></rect>
            <rect id="h4" x="494.5" y="70.5" width="132" height="53" rx="26.5"></rect>
            <polyline id="h3" points="664 40 454 40 473.587897 9 664 9"></polyline>
            <path d="M473,8.73135555 L453.392268,39.5559336 L453.392268,76.4660414 C454.511083,86.0744872 450.74114,90.87871 442.08244,90.87871 C433.42374,90.87871 360.377907,90.87871 222.944941,90.87871 C214.981647,91.9932762 211,85.4263049 211,71.1777961 C211,56.9292872 211,43.1363011 211,29.7988377 C211,15.7538496 213.870104,6.95165127 219.610312,3.39224272 C228.220624,-1.94687011 238.662079,8.73135555 238.662079,24.1436446 C238.662079,39.5559336 246.849341,44.3674938 256.965213,44.3674938 C267.081085,44.3674938 296.751665,34.8417007 307.857714,24.1436446 C318.963763,13.4455885 319.251031,8.73135555 336.639631,8.73135555 C348.23203,8.73135555 393.685487,8.73135555 473,8.73135555 Z" id="h2"></path>
            <path d="M0,91 C0,91 74.3333333,90.95955 223,90.8786499 C215.030462,91.9937684 211.045692,85.4235433 211.045692,71.1679748 C211.045692,56.9124063 211.045692,43.1125862 211.045692,29.7685145 C211.045692,12.8941395 215.030462,3.62326916 223,1.95590344 C223,1.95590344 161.75423,-3.26279555 116.893869,3.34883597 C53.8104133,12.6462326 0,39.7757749 0,91 Z" id="h1"></path>
        </g>
    </g>
</svg>