<?xml version="1.0" encoding="UTF-8"?>
<svg width="581px" height="378px" viewBox="0 0 581 378" version="1.1" xmlns="http://www.w3.org/2000/svg" xmlns:xlink="http://www.w3.org/1999/xlink">
    <title>MOUNTAINROCK2003</title>
    <g id="Page-1" stroke="none" stroke-width="1" fill="none" fill-rule="evenodd">
        <g id="MOUNTAINROCK2003" transform="translate(1.045701, 0.454938)" fill="#FFFFFF">
            <path d="M578.954299,376.294727 L31.9055291,376.294727 C10.6351764,377.69549 0,370.351264 0,354.262048 C0,338.172832 0,243.449663 0,70.0925391 C1.25522023,23.6674719 20.4173169,0.636625503 57.4862901,1 C94.5552632,1.3633745 142.630028,1.3633745 201.710585,1 C211.753722,0.555513399 217.362884,2.3793484 218.538071,6.471505 C220.300851,12.6097399 224.788188,31.1938495 233.463063,31.1938495 C239.246313,31.1938495 247.047788,25.8633429 256.867486,15.2023297 C259.533494,11.9574191 264.476529,10.3349638 271.696589,10.3349638 C278.916649,10.3349638 381.335886,10.3349638 578.954299,10.3349638" id="board" stroke="#000000"></path>
            <path d="M578.954299,34.5277294 C510.112916,34.5277294 470.482887,34.5277294 460.064212,34.5277294 C444.4362,34.5277294 444.913773,37.7566258 444.913773,49.1629502 C444.913773,56.7671665 438.51226,60.1971627 425.709233,59.4529389 C308.090125,59.8440274 248.817485,60.0395717 247.891311,60.0395717 C208.594024,60.0395717 218.538071,11.2850672 218.538071,6.471505 C218.538071,3.39600854 212.928909,1.57217354 201.710585,1 C140.573946,1.3633745 91.4106889,1.54506175 54.2208128,1.54506175 C17.0309367,1.54506175 -0.964889654,28.708797 0.23333366,83.0362675 L0.23333366,163.265689 C0.240319202,174.588528 9.07296075,180.249948 26.7312583,180.249948 C44.3895559,180.249948 140.103301,180.249948 313.872493,180.249948 C327.64735,181.06577 334.534778,170.734195 334.534778,149.255224 C334.534778,127.776254 334.534778,114.922926 334.534778,110.695242 C334.702446,102.776158 341.741918,98.8166157 355.653193,98.8166157 C369.564469,98.8166157 444.013404,98.8166157 579,98.8166157" id="board" stroke="#000000"></path>
            <path d="M29.1267284,180.294727 C7.98054636,180.294727 -1.65144307,173.603439 0.230760139,160.220862 L0.230760139,259.958382 C0.230760139,272.15166 9.06425953,278.248299 26.7312583,278.248299 C44.3982571,278.248299 140.112002,278.248299 313.872493,278.248299 C327.64735,279.094153 334.534778,268.38226 334.534778,246.112621 C334.534778,223.842982 334.534778,210.516507 334.534778,206.133196 L334.534778,153.018106 C334.534778,171.20252 326.528455,180.294727 310.51581,180.294727 C286.496841,180.294727 60.8460016,180.294727 29.1267284,180.294727 Z" id="board" stroke="#000000"></path>
            <path d="M29.1267284,278.294727 C7.98054636,278.294727 -1.65144307,271.603439 0.230760139,258.220862 L0.230760139,357.958382 C0.230760139,370.15166 9.06425953,376.248299 26.7312583,376.248299 C44.3982571,376.248299 140.112002,376.248299 313.872493,376.248299 C327.64735,377.094153 334.534778,366.38226 334.534778,344.112621 C334.534778,321.842982 334.534778,308.516507 334.534778,304.133196 L334.534778,251.018106 C334.534778,269.20252 326.528455,278.294727 310.51581,278.294727 C286.496841,278.294727 60.8460016,278.294727 29.1267284,278.294727 Z" id="board" stroke="#000000"></path>
            <rect id="h4" stroke="#000000" x="10.9542992" y="107.545062" width="136" height="45" rx="22.5"></rect>
            <rect id="h7" stroke="#000000" x="10.9542992" y="208.545062" width="136" height="45" rx="22.5"></rect>
            <rect id="h10" stroke="#000000" x="10.9542992" y="306.545062" width="136" height="45" rx="22.5"></rect>
            <rect id="h5" stroke="#000000" x="166.954299" y="107.545062" width="85" height="45" rx="22.5"></rect>
            <rect id="h8" stroke="#000000" x="166.954299" y="208.545062" width="85" height="45" rx="22.5"></rect>
            <rect id="h11" stroke="#000000" x="166.954299" y="306.545062" width="85" height="45" rx="22.5"></rect>
            <rect id="h6" stroke="#000000" x="271.954299" y="107.545062" width="45" height="45" rx="22.5"></rect>
            <rect id="h9" stroke="#000000" x="271.954299" y="208.545062" width="45" height="45" rx="22.5"></rect>
            <rect id="h12" stroke="#000000" x="271.954299" y="306.545062" width="45" height="45" rx="22.5"></rect>
            <circle id="h13" stroke="#000000" cx="449.454299" cy="272.045062" r="94.5"></circle>
            <path d="M578.954299,10.1522299 L449.454299,10.1522299 L444.779783,43.9869637 C444.463559,37.6808075 448.705613,34.5277294 457.505944,34.5277294 C466.306275,34.5277294 506.804293,34.5277294 579,34.5277294" id="h3" stroke="#000000"></path>
            <path d="M449.454299,10.1522299 L444.76333,43.9869637 C446.686343,54.4411429 441.263179,59.6682325 428.493837,59.6682325 C415.724495,59.6682325 356.877983,59.6682325 251.954299,59.6682325 C224.749837,62.8399336 213.508092,45.6939115 218.229064,8.23016612 C218.229064,8.23016612 223.387277,33.07469 233.463063,31.1938495 C240.180254,29.9399559 248.459676,24.166478 258.301329,13.873416 C260.676105,11.3926253 266.033115,10.1522299 274.372357,10.1522299 C282.7116,10.1522299 341.072248,10.1522299 449.454299,10.1522299 Z" id="h2" stroke="#000000"></path>
            <path d="M205.177233,48.9284998 L10.9542992,48.9284998 C17.0326594,20.6422949 33.3594142,6.64375766 59.9345636,6.93288803 C86.509713,7.2220184 134.923936,7.36658359 205.177233,7.36658359 L205.177233,48.9284998 Z" id="h1"></path>
        </g>
    </g>
</svg>