<?xml version="1.0" encoding="UTF-8"?>
<svg width="666px" height="355px" viewBox="0 0 666 355" version="1.1" xmlns="http://www.w3.org/2000/svg" xmlns:xlink="http://www.w3.org/1999/xlink">
    <title>MOUNTAINROCK2001</title>
    <g id="Page-1" stroke="none" stroke-width="1" fill="none" fill-rule="evenodd">
        <g id="MOUNTAINROCK2001" transform="translate(1.000000, 0.700485)" fill="#FFFFFF">
            <polyline id="board" stroke="#000000" points="665 351.36752 99.3196044 351.36752 98 257.972168 665 256.36752"></polyline>
            <path d="M665,1.67370437 L353.821334,0.000360771638 L297.201148,77.470653 L272.023021,0.000360771638 L139.725593,0.000360771638 C46.5751978,5.26738298 0,53.8178166 0,145.651662 C0,237.485507 0,298.835676 0,329.702171 C0,345.191642 5.97964523,352.936377 17.9389357,352.936377 C29.8982261,352.936377 61.6389641,352.413425 113.16115,351.36752 C125.572877,350.466746 131.77874,342.377474 131.77874,327.099702 C131.77874,311.821931 131.77874,293.800458 131.77874,273.035284 C131.810525,262.924668 138.329741,257.86936 151.336387,257.86936 C164.343032,257.86936 335.564237,257.86936 665,257.86936" id="board" stroke="#000000"></path>
            <path d="M272.106946,0.401008923 L140.303133,0.401008923 C74.0780903,4.14015345 31.4824762,29.8068201 12.5162912,77.4010089 C12.5162912,77.3336967 106.516291,77.3000407 294.516291,77.3000407 C271.476555,77.6318759 259.956686,67.5290364 259.956686,46.991522 C259.956686,26.4540076 259.956686,15.23495 259.956686,13.3343492 L272.106946,0.401008923 Z" id="h1"></path>
            <path d="M498,1.67370437 L498,46.8332947 C498.253238,67.2582002 490.95248,77.470653 476.097724,77.470653 C461.242969,77.470653 399.429626,77.470653 290.657694,77.470653 C270.10407,76.5382084 259.827258,66.3257556 259.827258,46.8332947 C259.827258,17.5946034 259.827258,14.6419345 259.827258,11.0053891 C259.827258,0 266.988841,0 272.023021,0 C277.684611,0 275.47416,32.1501643 297.290157,32.1501643 C311.834155,32.1501643 320.574387,25.3617832 323.510854,11.785021 C326.040024,3.92834033 335.258737,0 351.166994,0 C367.075251,0 416.019586,0.557901458 498,1.67370437 Z" id="h2" stroke="#000000"></path>
            <polyline id="h3" stroke="#000000" points="665 1.67370437 498 1.67370437 498 46.8332947 665 46.8332947"></polyline>
            <rect id="h4" stroke="#000000" x="60.5" y="84.7995153" width="187" height="56" rx="28"></rect>
            <rect id="h6" stroke="#000000" x="43.5" y="167.799515" width="199" height="56" rx="28"></rect>
            <rect id="h11" stroke="#000000" x="148.5" y="275.799515" width="199" height="56" rx="28"></rect>
            <rect id="h10" stroke="#000000" x="21.5" y="275.799515" width="56" height="56" rx="28"></rect>
            <rect id="h12" stroke="#000000" x="377.5" y="275.799515" width="102" height="56" rx="28"></rect>
            <rect id="h13" stroke="#000000" x="504.5" y="275.799515" width="136" height="56" rx="28"></rect>
            <rect id="h7" stroke="#000000" x="267.5" y="167.799515" width="102" height="56" rx="28"></rect>
            <rect id="h8" stroke="#000000" x="394.5" y="167.799515" width="139" height="56" rx="28"></rect>
            <rect id="h5" stroke="#000000" x="501.5" y="86.7995153" width="139" height="56" rx="28"></rect>
            <path d="M665,224.299515 L584.5,224.299515 C568.759885,224.299515 556,211.539631 556,195.799515 C556,180.0594 568.759885,167.299515 584.5,167.299515 L665,167.299515" id="h9" stroke="#000000"></path>
        </g>
    </g>
</svg>