<?xml version="1.0" encoding="UTF-8"?>
<svg width="635px" height="379px" viewBox="0 0 635 379" version="1.1" xmlns="http://www.w3.org/2000/svg" xmlns:xlink="http://www.w3.org/1999/xlink">
    <title>NATURESTOAK</title>
    <g id="Page-1" stroke="none" stroke-width="1" fill="none" fill-rule="evenodd">
        <g id="NATURESTOAK" transform="translate(1.000000, 1.000000)" stroke="#000000">
            <path d="M634,23.132051 L5.68434189e-14,23.132051 L5.68434189e-14,316.662995 C0.319782006,356.887665 26.4811063,376.927095 78.4839729,376.781286 C130.48684,376.635477 315.658849,376.708381 634,377" id="board" fill="#FFFFFF"></path>
            <rect id="h4" fill="#FFFFFF" x="97" y="258" width="444" height="68" rx="34"></rect>
            <rect id="h2" fill="#DDDDDD" x="97" y="139" width="444" height="68" rx="34"></rect>
            <rect id="h3" fill="#AAAAAA" x="324" y="139" width="217" height="68" rx="34"></rect>
            <path d="M634,0.162832622 L18.357438,0.162832622 C6.43892799,0.594773604 0.479673009,3.78846714 0.479673009,9.74391323 C0.479673009,18.6770824 48.1288005,34.7862773 112.897349,34.7862773 C156.076381,34.7862773 329.777265,34.7862773 634,34.7862773 M634,100.02878 L112.897349,100.02878 C53.2814491,102.138757 15.8088906,93.1514629 0.479673009,73.0668994 C0.479673009,73.0668994 0.479673009,53.096625 0.479673009,10.8813008 C18.6928245,26.5513407 56.1653831,34.3863607 112.897349,34.3863607 C169.629314,34.3863607 343.330198,34.3863607 634,34.3863607" id="h1" fill="#DDDDDD"></path>
        </g>
    </g>
</svg>