<?xml version="1.0" encoding="UTF-8"?>
<svg width="1331px" height="527px" viewBox="0 0 1331 527" version="1.1" xmlns="http://www.w3.org/2000/svg" xmlns:xlink="http://www.w3.org/1999/xlink">
    <title>NATURESTOAKII</title>
    <g id="Page-1" stroke="none" stroke-width="1" fill="none" fill-rule="evenodd">
        <g id="NATURESTOAKII" transform="translate(1.000000, 1.000000)" stroke="#000000">
            <path d="M1330,525 L55,525 C22.4151998,525 2.27373675e-13,498.5848 2.27373675e-13,466 L2.27373675e-13,342 L1330,342" id="board" fill="#FFFFFF"></path>
            <path d="M1330,411 L57,411 C24.4151998,411 2.27373675e-13,383.5848 2.27373675e-13,351 L2.27373675e-13,228 L1330,228" id="h2" fill="#FFFFFF"></path>
            <path d="M1330,299 L58,299 C25.4151998,299 1.13686838e-13,273.5848 1.13686838e-13,241 L1.13686838e-13,111 L1330,116" id="board" fill="#FFFFFF"></path>
            <path d="M1330,178 L59,178 C26.4151998,178 0,151.5848 0,119 L0,60 C0,92.5848002 26.4151998,119 59,119 L1330,119 M1330,118 L59,118 C26.5906564,118 0.284650264,91.8685057 0,59.52583 L0,60 L0,56 L0.0749286804,56.0004231 C1.63682666,24.8094278 27.4211372,0 59,0 L1330,0" id="Shape" fill="#DDDDDD"></path>
        </g>
    </g>
</svg>