<?xml version="1.0" encoding="UTF-8"?>
<svg width="588px" height="241px" viewBox="0 0 588 241" version="1.1" xmlns="http://www.w3.org/2000/svg" xmlns:xlink="http://www.w3.org/1999/xlink">
    <title>NECPORTABLE</title>
    <g id="Page-1" stroke="none" stroke-width="1" fill="none" fill-rule="evenodd">
        <g id="NECPORTABLE" transform="translate(1.000000, 1.279574)" fill="#FFFFFF" stroke="#000000">
            <path d="M587,238.720426 L10,238.720426 C4.4771525,238.720426 0,234.243273 0,228.720426 L0,28.7204257 C0,23.1975782 4.4771525,18.7204257 10,18.7204257 L587,18.7204257" id="board"></path>
            <rect id="h2" x="42" y="50.7204257" width="122" height="59" rx="29.5"></rect>
            <rect id="h4" x="42" y="133.720426" width="206" height="59" rx="29.5"></rect>
            <rect id="h5" x="282" y="133.720426" width="98" height="59" rx="29.5"></rect>
            <rect id="h6" x="400" y="133.720426" width="61" height="59" rx="29.5"></rect>
            <rect id="h3" x="282" y="50.7204257" width="189" height="59" rx="29.5"></rect>
            <path d="M587,168.720426 L510.5,168.720426 C494.2076,168.720426 481,155.512826 481,139.220426 C481,122.928026 494.2076,109.720426 510.5,109.720426 L587,109.720426" id="h7"></path>
            <path d="M587,0 C125.092423,0 18.138635,0 18.138635,0 C6.04621167,0 4.54747351e-13,9.57347522 4.54747351e-13,28.7204257 C4.54747351e-13,23.1975782 4.4771525,18.7204257 10,18.7204257 L587,18.7204257" id="h1"></path>
        </g>
    </g>
</svg>