<?xml version="1.0" encoding="UTF-8"?>
<svg width="606px" height="466px" viewBox="0 0 606 466" version="1.1" xmlns="http://www.w3.org/2000/svg" xmlns:xlink="http://www.w3.org/1999/xlink">
    <title>NICROSWARRIOR</title>
    <g id="Page-1" stroke="none" stroke-width="1" fill="none" fill-rule="evenodd">
        <g id="NICROSWARRIOR" transform="translate(1.465434, 1.648029)" fill="#FFFFFF" stroke="#000000">
            <path d="M603.534566,13.6413158 L584.651455,13.6413158 L507.993835,39.7232177 L306.962689,77.1895145 L167.165207,91.7236038 C119.624477,97.5186508 82.2701802,106.540152 55.102318,118.788108 C27.9344559,131.036063 9.56701651,152.878843 2.27373675e-13,184.316447 C10.759988,230.880976 27.9648662,257.452468 51.6146344,264.030922 C75.2644026,270.609377 103.469244,263.750719 136.229157,243.454948 C177.948553,225.635592 210.191709,222.767933 232.958624,234.851971 C255.725539,246.936009 269.940604,264.203893 275.60382,286.655623 C278.797299,297.383629 275.64747,304.828744 266.154332,308.990968 C251.914626,315.234304 181.392841,345.127405 171.695111,354.764631 C161.997382,364.401856 149.085051,365.899986 153.516307,398.152533 C156.470478,419.654231 161.020111,437.242903 167.165207,450.918547 C172.736831,462.996537 185.527277,466.016034 205.536544,459.977039 C225.545812,453.938045 244.119645,448.589145 261.258044,443.930342 C272.602972,442.449311 284.008841,428.715354 295.475654,402.728473 C306.942466,376.741591 325.294452,357.033528 350.53161,343.604284 C382.179556,333.251095 413.877045,324.314926 445.624077,316.795776 C477.371109,309.276627 512.046023,300.119936 549.648817,289.325702 C558.067579,285.765597 566.142884,284.875571 573.874734,286.655623 C585.47251,289.325702 587.673656,291.78557 603.534566,291.78557" id="board"></path>
            <path d="M197.338919,379.603845 C174.907621,387.848991 161.977803,389.70562 158.549466,385.173732 C153.40696,378.375899 152.753501,374.546644 158.549466,367.203677 C162.413443,362.308366 171.135005,355.51464 184.714152,346.822499 C211.000136,332.134639 233.980629,321.35721 253.655631,314.490212 C283.168133,304.189715 315.705284,293.480391 321.971541,300.406308 C328.237797,307.332225 329.595208,309.124689 331.168986,312.423683 C332.742764,315.722678 333.341764,325.843727 326.637835,330.543601 C322.168549,333.67685 279.06891,350.030265 197.338919,379.603845 Z" id="h8"></path>
            <rect id="h7" transform="translate(466.029961, 224.496848) rotate(-11.000000) translate(-466.029961, -224.496848) " x="414.029961" y="198.496848" width="104" height="52" rx="25.5"></rect>
            <rect id="h6" transform="translate(342.034566, 234.851971) rotate(-21.000000) translate(-342.034566, -234.851971) " x="316.534566" y="195.351971" width="51" height="79" rx="25.5"></rect>
            <path d="M603.534566,128.910872 C555.668318,126.794644 520.377792,124.224269 497.662988,121.199749 C463.590781,116.662968 455.686069,106.175358 424.832887,108.300796 C404.264099,109.717755 394.325225,117.74101 395.016265,132.370562 C396.046285,148.4792 407.057142,156.533519 428.048838,156.533519 C449.040533,156.533519 468.68576,155.024612 486.984517,152.006797 C510.515165,145.394458 549.365181,143.067079 603.534566,145.024662" id="h5"></path>
            <path d="M145.266375,104.510012 C167.043031,105.91338 177.93136,114.047 177.93136,128.910872 C177.93136,143.774743 172.487196,157.78365 161.598867,170.937592 C123.420108,199.878664 94.7253785,213.803454 75.5146782,212.71196 C56.3039779,211.620465 40.0304222,206.981697 26.6940113,198.795655 C21.7475792,196.024457 19.6232276,190.907494 20.3209565,183.444765 C21.3675498,172.250671 35.282896,146.156235 50.6584132,134.649208 C56.7621193,130.081199 69.837631,119.193617 91.0361261,112.941334 C100.637123,110.109616 118.713873,107.299176 145.266375,104.510012 Z" id="h4"></path>
            <path d="M603.534566,0.0369966508 C563.781816,-0.68799649 524.9318,9.24233409 486.984517,29.8279884 C486.984517,29.8279884 531.55486,50.5431482 603.534566,50.5431482" id="h3"></path>
            <path d="M603.534566,50.5431482 C563.126632,51.4262698 524.276616,44.5212165 486.984517,29.8279884 C439.178888,19.950934 398.234744,26.8559872 364.152087,50.5431482 C351.785985,56.7489071 340.402889,61.7620516 330.002798,65.5825817 C319.602708,69.4031119 285.242734,80.7289695 226.922876,99.5601547 C222.146126,101.302929 220.330265,103.512502 221.475293,106.188875 C222.620321,108.865247 225.680399,109.475585 230.655528,108.01989 C309.258302,92.4522708 353.757155,88.1460455 364.152087,95.1012141 C374.54702,102.056383 394.773953,106.456243 424.832887,108.300796 C436.80347,106.556045 451.59037,108.793533 469.193586,115.013258 C486.796802,121.232983 522.852405,125.449044 577.360395,127.661441 L603.534566,128.910872" id="h2"></path>
            <path d="M364.152087,50.5431482 C268.78994,70.9955505 213.415318,81.2217517 198.028222,81.2217517 C174.947579,81.2217517 104.080069,78.5511574 62.0601389,100.414767 C20.0402084,122.278376 0,144.64084 0,175.713915 C0,206.786989 18.1386475,198.837564 19.9240956,194.876826 C21.7095437,190.916088 17.8018117,183.304533 24.2998278,169.919026 C30.7978439,156.533519 51.0782096,115.461076 116.95039,107.70248 C182.822571,99.943884 186.741896,102.747182 211.504526,100.414767 C228.012946,98.8598231 243.888992,95.156012 259.132665,89.3033332 C291.07846,79.1367214 314.701838,71.2298042 330.002798,65.5825817 C345.303758,59.9353592 356.686855,54.9222147 364.152087,50.5431482 Z" id="h1"></path>
        </g>
    </g>
</svg>