<?xml version="1.0" encoding="UTF-8"?>
<svg width="609px" height="267px" viewBox="0 0 609 267" version="1.1" xmlns="http://www.w3.org/2000/svg" xmlns:xlink="http://www.w3.org/1999/xlink">
    <title>OWLCIRCLE</title>
    <g id="Page-1" stroke="none" stroke-width="1" fill="none" fill-rule="evenodd">
        <g id="OWLCIRCLE" transform="translate(1.151226, 1.118842)" fill="#FFFFFF" stroke="#979797">
            <path d="M606.848774,123.892284 L6.55524351,123.892284 C2.18508117,123.69575 0,121.262754 0,116.593296 C0,109.589107 0,9.02389274e-13 64.8171122,9.02389274e-13 C108.02852,9.02389274e-13 166.505975,9.02389274e-13 240.249477,9.02389274e-13 C254.318863,3.41813864 262.018629,19.8785246 263.348774,49.3811579 C263.348774,49.3811579 377.848774,49.4687127 606.848774,49.6438224" id="Path-5"></path>
            <path d="M606.848774,187.364424 L22.5757002,187.364424 C13.8554559,188.105843 9.49533376,185.147719 9.49533376,178.490053 C9.49533376,171.832387 9.49533376,153.633131 9.49533376,123.892284 L606.848774,123.892284" id="Path-8"></path>
            <path d="M606.848774,262.42311 L40.4479536,264.5444 C26.0485006,257.521161 18.8487741,251.869909 18.8487741,247.590645 C18.8487741,243.31138 18.8487741,223.27312 18.8487741,187.475864 L606.848774,187.475864" id="Path-9"></path>
            <circle id="h8" cx="251.848774" cy="153.881158" r="20"></circle>
            <circle id="h12" cx="251.848774" cy="217.881158" r="20"></circle>
            <circle id="h4" cx="246.848774" cy="86.8811579" r="20"></circle>
            <path d="M9.49533376,50.2679536 C19.9447179,16.7559845 32.7211659,-1.13686838e-13 47.8246777,-1.13686838e-13 C62.9281895,-1.13686838e-13 125.29665,-1.13686838e-13 238.476338,-1.13686838e-13 C226.203406,6.52007326 221.171811,22.9010836 219.553029,49.8929794" id="h1"></path>
            <line x1="219.348774" y1="49.3811579" x2="263.348774" y2="49.3811579" id="Path-6"></line>
            <polyline id="h2" points="606.848774 49.6438224 219.348774 49.3811579 263.348774 41.125203 606.848774 41.125203"></polyline>
            <rect id="h3" x="25.8487741" y="66.8811579" width="177" height="40" rx="20"></rect>
            <rect id="h7" x="30.8487741" y="133.881158" width="177" height="40" rx="20"></rect>
            <rect id="h11" x="35.8487741" y="197.881158" width="177" height="40" rx="20"></rect>
            <rect id="h5" x="289.848774" y="66.8811579" width="88" height="40" rx="20"></rect>
            <rect id="h9" x="290.848774" y="133.881158" width="88" height="40" rx="20"></rect>
            <rect id="h13" x="290.848774" y="197.881158" width="88" height="40" rx="20"></rect>
            <rect id="h6" x="425.848774" y="66.8811579" width="171" height="40" rx="20"></rect>
            <rect id="h10" x="425.848774" y="133.881158" width="171" height="40" rx="20"></rect>
            <rect id="h14" x="425.848774" y="197.881158" width="171" height="40" rx="20"></rect>
        </g>
    </g>
</svg>