<?xml version="1.0" encoding="UTF-8"?>
<svg width="590px" height="205px" viewBox="0 0 590 205" version="1.1" xmlns="http://www.w3.org/2000/svg" xmlns:xlink="http://www.w3.org/1999/xlink">
    <title>OWLPOKER</title>
    <g id="Page-1" stroke="none" stroke-width="1" fill="none" fill-rule="evenodd">
        <g id="OWLPOKER" transform="translate(0.993547, 1.381591)" fill="#FFFFFF" stroke="#000000">
            <path d="M588.006453,22.7927608 L10.441421,22.7927608 C3.48477553,22.5506095 0.00645277988,25.2516558 0.00645277988,30.8958999 C0.00645277988,36.540144 0.00645277988,90.9686866 0.00645277988,194.181528 C-0.0961429769,199.758866 3.38217978,202.547535 10.441421,202.547535 C17.5006623,202.547535 210.02234,202.547535 588.006453,202.547535" id="Path-7"></path>
            <circle id="h5" cx="75.0064528" cy="145.618409" r="22"></circle>
            <rect id="h4" x="53.0064528" y="60.6184091" width="164" height="44" rx="22"></rect>
            <rect id="h6" x="130.006453" y="123.618409" width="87" height="44" rx="22"></rect>
            <path d="M0,31.1280677 C5.10575584,10.3760226 13.04143,6.28830321e-13 23.8070226,6.28830321e-13 C34.5726151,6.28830321e-13 118.115876,6.28830321e-13 274.436804,6.28830321e-13 L241.615851,22.7778186 L10.103599,22.7778186 C6.68576559,22.7778186 4.19223852,23.3362315 2.62301774,24.4530573 C1.05379696,25.5698831 0.179457709,27.7948865 0,31.1280677 Z" id="h1"></path>
            <polyline id="h3" points="588.006453 1.77635684e-15 505.196875 6.49585581e-13 472.375922 22.7778186 588.006453 22.7927608"></polyline>
            <polygon id="Path-12" points="273.843016 0.738487916 240.507306 140.937061 242.026604 23.2204006"></polygon>
            <polygon id="h2" points="472.375922 22.7778186 472.375922 144.561388 240.507306 144.561388 274.436804 9.09494702e-13 505.196875 9.09494702e-13"></polygon>
            <path d="M588.080875,174.618409 L588.080875,174.618409 L525.506453,174.618409 C514.184615,174.618409 505.006453,165.440247 505.006453,154.118409 C505.006453,142.796572 514.184615,133.618409 525.506453,133.618409 L588.090708,133.618409 L588.090708,133.618409" id="h7"></path>
        </g>
    </g>
</svg>