<?xml version="1.0" encoding="UTF-8"?>
<svg width="595px" height="264px" viewBox="0 0 595 264" version="1.1" xmlns="http://www.w3.org/2000/svg" xmlns:xlink="http://www.w3.org/1999/xlink">
    <title>OWLSQUARE</title>
    <g id="Page-1" stroke="none" stroke-width="1" fill="none" fill-rule="evenodd">
        <g id="OWLSQUARE" transform="translate(0.770871, 0.892228)" fill="#FFFFFF" stroke="#000000">
            <path d="M593.229129,5.22063279 L11.2767286,5.22063279 C3.75890954,4.85633753 0,9.21563653 0,18.2985298 C0,27.381423 0.43147821,55.8526569 1.29443463,103.712231 C1.32963957,108.065793 4.6570709,110.242574 11.2767286,110.242574 C17.8963864,110.242574 211.88052,110.242574 593.229129,110.242574" id="Path-2"></path>
            <path d="M593.229129,190.377207 L18.8553556,190.377207 C13.4391246,190.512954 10.7310091,188.668431 10.7310091,184.843638 C10.7310091,181.018846 10.2240476,156.151824 9.21012475,110.242574 L593.229129,110.242574" id="Path-3"></path>
            <path d="M593.229129,261.968987 L24.3645914,261.968987 C18.9706436,262.647482 16.2736697,260.59225 16.2736697,255.803292 C16.2736697,251.014334 15.9254896,229.207965 15.2291293,190.384186 L593.229129,190.384186" id="Path-4"></path>
            <rect id="h4" x="259.229129" y="39.1077719" width="85" height="42" rx="21"></rect>
            <rect id="h8" x="267.229129" y="129.107772" width="85" height="42" rx="21"></rect>
            <rect id="h12" x="267.229129" y="204.107772" width="85" height="42" rx="21"></rect>
            <circle id="h3" cx="225.229129" cy="60.1077719" r="21"></circle>
            <circle id="h7" cx="230.229129" cy="150.107772" r="21"></circle>
            <circle id="h11" cx="230.229129" cy="225.107772" r="21"></circle>
            <path d="M593.229129,5.19956128 C207.856622,5.19956128 14.8325736,5.19956128 14.1569837,5.19956128 C13.4813938,5.19956128 10.5054423,5.56893449 5.22912928,6.3076809 C12.6218466,2.1025603 17.9561366,-5.68434189e-14 21.2319993,-5.68434189e-14 C24.507862,-5.68434189e-14 215.173572,-5.68434189e-14 593.229129,-5.68434189e-14" id="h1"></path>
            <rect id="h2" x="25.2291293" y="39.1077719" width="160" height="42" rx="21"></rect>
            <rect id="h5" x="425.229129" y="39.1077719" width="156" height="42" rx="21"></rect>
            <rect id="h9" x="425.229129" y="129.107772" width="156" height="42" rx="21"></rect>
            <rect id="h13" x="425.229129" y="204.107772" width="156" height="42" rx="21"></rect>
            <rect id="h6" x="33.2291293" y="129.107772" width="160" height="42" rx="21"></rect>
            <rect id="h10" x="33.2291293" y="204.107772" width="160" height="42" rx="21"></rect>
        </g>
    </g>
</svg>