<?xml version="1.0" encoding="UTF-8"?>
<svg width="1331px" height="514px" viewBox="0 0 1331 514" version="1.1" xmlns="http://www.w3.org/2000/svg" xmlns:xlink="http://www.w3.org/1999/xlink">
    <title>PROBLEMMOTION</title>
    <g id="Page-1" stroke="none" stroke-width="1" fill="none" fill-rule="evenodd">
        <g id="PROBLEMMOTION" transform="translate(1.000000, 1.000000)" fill="#FFFFFF" stroke="#000000">
            <path d="M1330,512 L169.906778,512 C76.0698558,512 0,435.928028 0,342.088496 L0,169.911504 C0,76.0719718 76.0698558,0 169.906778,0 L1330,0" id="h1" fill-rule="nonzero"></path>
            <path d="M1330,381 L1330,381 L242.672733,381 C206.402684,381 177,351.578126 177,315.284404 L177,199.715596 C177,163.421875 206.402684,134 242.672733,134 L1329.86591,134 L1329.86591,134" id="h2" fill-rule="nonzero"></path>
            <path d="M1330,383 L248,383 C208.235498,383 176,350.764502 176,311 L176,309 C176,269.235498 208.235498,237 248,237 L1330,237" id="h3"></path>
            <rect id="h4" x="176.5" y="237.5" width="621" height="145" rx="72"></rect>
        </g>
    </g>
</svg>