<?xml version="1.0" encoding="UTF-8"?>
<svg width="360px" height="275px" viewBox="0 0 360 275" version="1.1" xmlns="http://www.w3.org/2000/svg" xmlns:xlink="http://www.w3.org/1999/xlink">
    <!-- Generator: Sketch 58 (84663) - https://sketch.com -->
    <title>PROBLEMTRAINING</title>
    <desc>Created with Sketch.</desc>
    <g id="Page-1" stroke="none" stroke-width="1" fill="none" fill-rule="evenodd">
        <g id="PROBLEMTRAINING" transform="translate(0.000000, 1.000000)" fill="#FFFFFF" fill-rule="nonzero" stroke="#000000">
            <path d="M358.936551,273 L54.573491,273 C1.02140518e-14,273 1,238.805747 1,196.625 L1,76.375 C1,34.1942522 9.14648437,0 54.573491,0 L359,0" id="hangboard"></path>
            <path d="M360,245 L55.6195462,245 C43.6794006,245 34,235.338194 34,223.419753 L34,220.580247 C34,208.661806 43.6794006,199 55.6195462,199 L360,199" id="h4"></path>
            <path d="M360,245 L253.607462,245 C241.67399,245 232,235.338194 232,223.419753 L232,220.580247 C232,208.661806 241.67399,199 253.607462,199 L360,199" id="h5"></path>
            <path d="M360,175 L55.6195462,175 C43.6794006,175 34,165.338194 34,153.419753 L34,150.580247 C34,138.661806 43.6794006,129 55.6195462,129 L360,129" id="h2"></path>
            <path d="M360,175 L253.607462,175 C241.67399,175 232,165.338194 232,153.419753 L232,150.580247 C232,138.661806 241.67399,129 253.607462,129 L360,129" id="h3"></path>
            <rect id="h1" x="25" y="60" width="210" height="46" rx="23"></rect>
        </g>
    </g>
</svg>