<?xml version="1.0" encoding="UTF-8"?>
<svg width="630px" height="338px" viewBox="0 0 630 338" version="1.1" xmlns="http://www.w3.org/2000/svg" xmlns:xlink="http://www.w3.org/1999/xlink">
    <!-- Generator: Sketch 64 (93537) - https://sketch.com -->
    <title>PROBLEMHANZO</title>
    <desc>Created with Sketch.</desc>
    <g id="Page-1" stroke="none" stroke-width="1" fill="none" fill-rule="evenodd">
        <g id="PROBLEMHANZO" transform="translate(1.000000, 1.000000)" fill="#FFFFFF" fill-rule="nonzero" stroke="#000000">
            <path d="M628.004486,336 L94,336 C42.0852335,336 0,293.914766 0,242 L0,94 C0,42.0852335 42.0852335,0 94,0 L628.004486,0" id="hangboard"></path>
            <path d="M628.004486,281 L93,281 C72.0131795,281 55,263.98682 55,243 L55,238 C55,217.01318 72.0131795,200 93,200 L628.004486,200" id="h2"></path>
            <path d="M628,281 L441,281 C420.01318,281 403,263.98682 403,243 L403,238 C403,217.01318 420.01318,200 441,200 L627.892578,200" id="h3"></path>
            <rect id="h1" x="55" y="46" width="369" height="81" rx="40.5"></rect>
        </g>
    </g>
</svg>