<?xml version="1.0" encoding="UTF-8"?>
<svg width="1328px" height="1014px" viewBox="0 0 1328 1014" version="1.1" xmlns="http://www.w3.org/2000/svg" xmlns:xlink="http://www.w3.org/1999/xlink">
    <title>PROBLEMTRAINING</title>
    <g id="Page-1" stroke="none" stroke-width="1" fill="none" fill-rule="evenodd">
        <g id="PROBLEMTRAINING" transform="translate(1.000000, 1.000000)" fill="#FFFFFF" fill-rule="nonzero" stroke="#000000">
            <path d="M1326.76481,1012 L198.588933,1012 C-3.69742994,1012 0,885.243282 0,728.880952 L0,283.119048 C0,126.756715 30.2056432,0 198.588933,0 L1327,0" id="hangboard"></path>
            <path d="M1327,908 L199.111693,908 C154.867227,908 119,872.083286 119,827.777777 L119,817.222223 C119,772.916714 154.867227,737 199.111693,737 L1327,737" id="h4"></path>
            <path d="M1327,908 L933.015133,908 C888.823994,908 853,872.083286 853,827.777777 L853,817.222223 C853,772.916714 888.823994,737 933.015133,737 L1327,737" id="h5"></path>
            <path d="M1327,649 L199.111693,649 C154.867227,649 119,613.083286 119,568.777777 L119,558.222223 C119,513.916714 154.867227,478 199.111693,478 L1327,478" id="h2"></path>
            <path d="M1327,649 L933.015133,649 C888.823994,649 853,613.083286 853,568.777777 L853,558.222223 C853,513.916714 888.823994,478 933.015133,478 L1327,478" id="h3"></path>
            <rect id="h1" x="89" y="222" width="778" height="171" rx="23"></rect>
        </g>
    </g>
</svg>