<?xml version="1.0" encoding="UTF-8"?>
<svg width="359px" height="275px" viewBox="0 0 359 275" version="1.1" xmlns="http://www.w3.org/2000/svg" xmlns:xlink="http://www.w3.org/1999/xlink">
    <title>PROBLEMTRAINING</title>
    <g id="Page-1" stroke="none" stroke-width="1" fill="none" fill-rule="evenodd">
        <g id="PROBLEMTRAINING" transform="translate(1.000000, 1.000000)" fill="#FFFFFF" fill-rule="nonzero" stroke="#000000">
            <path d="M357.936551,273 L53.573491,273 C-1,273 -0.00124978133,238.805747 -0.00124978133,196.625 L-0.00124978133,76.375 C-0.00124978133,34.1942522 8.14648437,0 53.573491,0 L358,0" id="hangboard"></path>
            <path d="M358,245 L53.6195462,245 C41.6794006,245 32,235.338194 32,223.419753 L32,220.580247 C32,208.661806 41.6794006,199 53.6195462,199 L358,199" id="h4"></path>
            <path d="M358,245 L251.607462,245 C239.67399,245 230,235.338194 230,223.419753 L230,220.580247 C230,208.661806 239.67399,199 251.607462,199 L358,199" id="h5"></path>
            <path d="M358,175 L53.6195462,175 C41.6794006,175 32,165.338194 32,153.419753 L32,150.580247 C32,138.661806 41.6794006,129 53.6195462,129 L358,129" id="h2"></path>
            <path d="M358,175 L251.607462,175 C239.67399,175 230,165.338194 230,153.419753 L230,150.580247 C230,138.661806 239.67399,129 251.607462,129 L358,129" id="h3"></path>
            <rect id="h1" x="24" y="60" width="210" height="46" rx="23"></rect>
        </g>
    </g>
</svg>