<?xml version="1.0" encoding="UTF-8"?>
<svg width="606px" height="335px" viewBox="0 0 606 335" version="1.1" xmlns="http://www.w3.org/2000/svg" xmlns:xlink="http://www.w3.org/1999/xlink">
    <title>ROCKRUNPRAXIS</title>
    <g id="Page-1" stroke="none" stroke-width="1" fill="none" fill-rule="evenodd">
        <g id="ROCKRUNPRAXIS" transform="translate(0.863670, 0.586272)" fill="#FFFFFF" stroke="#000000">
            <path d="M605.13633,49.9035006 C504.484732,49.9035006 454.158934,49.9035006 454.158934,49.9035006 C452.021421,66.6582694 442.927189,76.1743987 426.876238,78.4518884 L0,78.4518884 L7.75863685,318.366343 C8.20218264,328.236932 12.4783584,333.172226 20.5871641,333.172226 C28.6959698,333.172226 56.4355093,333.172226 103.805783,333.172226 C109.346337,332.990616 112.116614,328.055322 112.116614,318.366343 C112.116614,308.677365 112.116614,288.342205 112.116614,257.360864 C111.063263,251.415867 115.010297,248.443369 123.957716,248.443369 C132.905134,248.443369 293.298006,248.443369 605.13633,248.443369" id="board"></path>
            <path d="M605.13633,323.206444 L120.808142,322.303831 C116.639663,322.838849 113.091974,325.191556 110.165077,329.361952 C110.165077,329.361952 112.116614,325.399759 112.116614,321.207058 C112.116614,314.824256 112.116614,293.542191 112.116614,257.360864 C109.948549,251.538265 113.607629,248.626965 123.093855,248.626965 C132.580081,248.626965 293.260906,248.626965 605.13633,248.626965" id="board"></path>
            <polyline id="h3" points="605.13633 49.9035006 454.158934 49.9035006 441.883017 6.83551607e-13 605.13633 6.82121026e-13"></polyline>
            <path d="M441.883017,0 L454.158934,49.9035006 C451.529565,68.9357591 440.684852,78.4518884 421.624794,78.4518884 C402.564736,78.4518884 351.723171,78.4518884 269.100098,78.4518884 C244.527485,74.3658525 232.241179,61.2905378 232.241179,39.2259442 C232.241179,39.2259442 234.214777,28.9561683 238.161974,8.41661642 C242.403703,9.94253055 244.524567,12.1669194 244.524567,15.089783 C244.524567,19.4740784 249.582553,32.2219348 269.100098,32.2219348 C282.111794,32.2219348 291.976013,23.0505813 298.692756,4.70787431 C299.659487,1.56929144 303.256645,0 309.484228,0 C315.711812,0 359.844741,0 441.883017,0 Z" id="h2"></path>
            <path d="M232.241179,39.2259442 L238.161974,8.41661642 L84.1090159,8.41661642 C70.6488006,8.22935147 59.3259364,11.8504285 50.1404234,19.2798476 C36.3621539,30.4239762 -2.84217094e-14,56.2122573 -2.84217094e-14,78.4518884 C-2.84217094e-14,78.4518884 321.915224,78.4518884 278.095551,78.4518884 C248.882437,78.4518884 233.597646,65.3765737 232.241179,39.2259442 Z" id="h1"></path>
            <rect id="h7" x="244.63633" y="165.913728" width="129" height="51" rx="25.5"></rect>
            <rect id="h8" x="398.63633" y="165.913728" width="87" height="51" rx="25.5"></rect>
            <path d="M605.13633,217.413728 L536.13633,217.413728 C521.776927,217.413728 510.13633,205.773131 510.13633,191.413728 C510.13633,177.054324 521.776927,165.413728 536.13633,165.413728 L605.13633,165.413728" id="h9"></path>
            <rect id="h12" x="338.63633" y="257.913728" width="129" height="51" rx="25.5"></rect>
            <path d="M605.13633,309.413728 L518.13633,309.413728 C503.776927,309.413728 492.13633,297.773131 492.13633,283.413728 C492.13633,269.054324 503.776927,257.413728 518.13633,257.413728 L605.13633,257.413728" id="h13"></path>
            <circle id="h10" cx="57.1363302" cy="283.413728" r="25.5"></circle>
            <rect id="h11" x="136.63633" y="257.913728" width="177" height="51" rx="25.5"></rect>
            <rect id="h6" x="42.6363302" y="165.913728" width="177" height="51" rx="25.5"></rect>
            <rect id="h4" x="55.6363302" y="87.9137277" width="169" height="51" rx="25.5"></rect>
            <rect id="h5" x="282.63633" y="103.913728" width="136.307692" height="41" rx="20.5"></rect>
        </g>
    </g>
</svg>