<?xml version="1.0" encoding="UTF-8"?>
<svg width="582px" height="334px" viewBox="0 0 582 334" version="1.1" xmlns="http://www.w3.org/2000/svg" xmlns:xlink="http://www.w3.org/1999/xlink">
    <title>SANINGRAVIDO</title>
    <g id="Page-1" stroke="none" stroke-width="1" fill="none" fill-rule="evenodd">
        <g id="SANINGRAVIDO" transform="translate(1.077055, 0.874514)" fill="#FFFFFF" stroke="#000000">
            <path d="M580.258823,44.2842261 L0,44.2842261 L11.4820347,279.999817 C12.0805618,314.459406 30.8036786,331.689201 67.6513852,331.689201 C104.499092,331.689201 275.368238,331.689201 580.258823,331.689201" id="board"></path>
            <rect id="h3" x="19.9229451" y="59.1254858" width="236" height="65" rx="32.5"></rect>
            <rect id="h4" x="285.922945" y="59.1254858" width="236" height="65" rx="32.5"></rect>
            <rect id="h5" x="23.9229451" y="153.125486" width="236" height="65" rx="32.5"></rect>
            <rect id="h6" x="289.922945" y="153.125486" width="236" height="65" rx="32.5"></rect>
            <rect id="h9" x="261.922945" y="242.125486" width="236" height="65" rx="32.5"></rect>
            <rect id="h8" x="122.922945" y="242.125486" width="118" height="65" rx="32.5"></rect>
            <rect id="h7" x="31.9229451" y="242.125486" width="65" height="65" rx="32.5"></rect>
            <path d="M580.922945,307.125486 L554.422945,307.125486 C536.473691,307.125486 521.922945,292.57474 521.922945,274.625486 C521.922945,256.676231 536.473691,242.125486 554.422945,242.125486 L580.922945,242.125486" id="h10"></path>
            <path d="M580.922945,44.2842261 L307.230932,44.2842261 C291.720481,41.0060037 283.965255,32.7068276 283.965255,19.3866978 C283.965255,6.06656807 286.692446,-0.370340843 292.146828,0.0759710994 C302.594998,17.8327303 313.182024,26.7111099 323.907905,26.7111099 C339.996727,26.7111099 338.079671,23.8340593 345.792166,23.8340593 C350.933829,23.8340593 429.310756,23.2791217 580.922945,22.1692464" id="h2"></path>
            <path d="M308.135946,44.9693327 C292.632927,41.8628078 283.965255,32.7831916 283.965255,19.2622697 C283.965255,5.74134766 286.524918,-0.661436067 291.644243,0.0539184636 L59.1822662,0.0539184636 C19.7274221,1.61617475 0.905014255,18.2056129 0.905014255,45.9407443" id="h1"></path>
        </g>
    </g>
</svg>