<?xml version="1.0" encoding="UTF-8"?>
<svg width="590px" height="381px" viewBox="0 0 590 381" version="1.1" xmlns="http://www.w3.org/2000/svg" xmlns:xlink="http://www.w3.org/1999/xlink">
    <title>SANMULTIDAM</title>
    <g id="Page-1" stroke="none" stroke-width="1" fill="none" fill-rule="evenodd">
        <g id="SANMULTIDAM" transform="translate(0.999365, 1.143816)" fill="#FFFFFF" stroke="#000000">
            <path d="M588.824164,56.5447605 L0,56.5447605 C2.31985759,224.53937 5.112797,317.380618 8.37881822,335.068503 C13.2778501,361.600331 27.6866022,378.725252 78.0006348,378.725252 C111.543323,378.725252 281.817833,378.725252 588.824164,378.725252" id="board"></path>
            <path d="M588.824164,13.4725144 L313.482909,13.4725144 C308.055697,13.4744452 304.940364,14.0605494 304.136911,15.2308272 C298.545136,23.3755886 286.819067,23.3755886 281.868339,23.3755886 C271.508297,23.3755886 263.682424,17.7841089 258.390719,6.60114943 C254.593778,0.65755261 250.312259,-1.27238603 245.546162,0.811333491 C238.397016,3.93691278 240.996496,35.7879046 245.546162,41.9678223 C250.095828,48.14774 255.303845,56.5447605 280.676044,56.5447605 C297.590844,56.5447605 400.365707,56.5447605 589.000635,56.5447605" id="h2"></path>
            <path d="M247.800351,0 L48.1786487,0 C16.0599728,1.92745727 0.0006348295,15.5474778 0.0006348295,40.8600615 C0.0006348295,66.1726453 0.0006348295,71.4008783 0.0006348295,56.5447605 L274.026854,56.5447605 C263.867512,54.8672462 257.059369,52.8536786 253.602427,50.5040576 C245.24254,44.8219944 241.106225,34.9549173 241.106225,24.7651967 C241.106225,8.25506558 243.3376,0 247.800351,0 Z" id="h1"></path>
            <rect id="h3" x="16.0006348" y="70.8561841" width="208" height="56" rx="28"></rect>
            <rect id="h9" x="20.0006348" y="226.856184" width="208" height="56" rx="28"></rect>
            <rect id="h6" x="17.0006348" y="149.856184" width="208" height="56" rx="28"></rect>
            <rect id="h13" x="101.000635" y="303.856184" width="200" height="51" rx="25.5"></rect>
            <rect id="h14" x="322.000635" y="303.856184" width="196" height="51" rx="25.5"></rect>
            <rect id="h7" x="252.000635" y="149.856184" width="208" height="56" rx="28"></rect>
            <rect id="h10" x="252.000635" y="226.856184" width="208" height="56" rx="28"></rect>
            <rect id="h4" x="252.000635" y="70.8561841" width="208" height="56" rx="28"></rect>
            <path d="M589.000635,126.856184 L515.000635,126.856184 C499.536662,126.856184 487.000635,114.320157 487.000635,98.8561841 C487.000635,83.3922111 499.536662,70.8561841 515.000635,70.8561841 L589.000635,70.8561841" id="h5"></path>
            <path d="M589.000635,205.856184 L515.000635,205.856184 C499.536662,205.856184 487.000635,193.320157 487.000635,177.856184 C487.000635,162.392211 499.536662,149.856184 515.000635,149.856184 L589.000635,149.856184" id="h8"></path>
            <path d="M589.000635,282.856184 L515.000635,282.856184 C499.536662,282.856184 487.000635,270.320157 487.000635,254.856184 C487.000635,239.392211 499.536662,226.856184 515.000635,226.856184 L589.000635,226.856184" id="h11"></path>
            <path d="M588.824164,353.856184 L563.000635,353.856184 C549.193516,353.856184 538.000635,342.663303 538.000635,328.856184 C538.000635,315.049065 549.193516,303.856184 563.000635,303.856184 L588.824164,303.856184" id="h15"></path>
            <rect id="h12" x="35.0006348" y="305.856184" width="49" height="49" rx="24.5"></rect>
        </g>
    </g>
</svg>