<?xml version="1.0" encoding="UTF-8"?>
<svg width="581px" height="355px" viewBox="0 0 581 355" version="1.1" xmlns="http://www.w3.org/2000/svg" xmlns:xlink="http://www.w3.org/1999/xlink">
    <title>SCALLYDAPPER</title>
    <g id="Page-1" stroke="none" stroke-width="1" fill="none" fill-rule="evenodd">
        <g id="SCALLYDAPPER" transform="translate(1.000000, 1.000000)" fill="#FFFFFF" stroke="#000000">
            <path d="M580,353 L18,353 C8.0588745,353 0,344.941125 0,335 L0,18 C0,8.0588745 8.0588745,0 18,0 L580,0" id="board"></path>
            <path d="M282,306 L72,306 C65.9248678,306 61,301.075132 61,295 L61,241 C61,234.924868 65.9248678,230 72,230 L282,230 L293,230 L293,306 L282,306 Z" id="h5"></path>
            <path d="M282,306 L72,306 C65.9248678,306 61,301.075132 61,295 L61,272 C61,265.924868 65.9248678,261 72,261 L282,261 L293,261 L293,306 L282,306 Z" id="h7"></path>
            <path d="M304,230 L514,230 C520.075132,230 525,234.924868 525,241 L525,264 C525,270.075132 520.075132,275 514,275 L293,275 L293,230 L304,230 Z" id="h6"></path>
            <path d="M514,261 C520.075132,261 525,265.924868 525,272 L525,295 C525,301.075132 520.075132,306 514,306 C366.666667,306 293,306 293,306 L293,261 L514,261 Z" id="h8"></path>
            <path d="M580,177 L450,177 C443.924868,177 439,172.075132 439,166 L439,112 C439,105.924868 443.924868,101 450,101 L580,101" id="h4"></path>
            <path d="M580,146 L450,146 C443.924868,146 439,141.075132 439,135 L439,112 C439,105.924868 443.924868,101 450,101 L580,101" id="h3"></path>
            <rect id="h2" x="61" y="46" width="290" height="76" rx="11"></rect>
            <rect id="h1" x="61" y="46" width="290" height="45" rx="11"></rect>
        </g>
    </g>
</svg>