<?xml version="1.0" encoding="UTF-8"?>
<svg width="586px" height="450px" viewBox="0 0 586 450" version="1.1" xmlns="http://www.w3.org/2000/svg" xmlns:xlink="http://www.w3.org/1999/xlink">
    <title>SCALLYSWANK180</title>
    <g id="Page-1" stroke="none" stroke-width="1" fill="none" fill-rule="evenodd">
        <g id="SCALLYSWANK180" transform="translate(293.000000, 225.000000) scale(1, -1) translate(-293.000000, -225.000000) translate(0.000000, 1.000000)" fill="#FFFFFF" fill-rule="nonzero" stroke="#000000">
            <path d="M586,416 L71,416 C32.3400675,416 1,384.659932 1,346 L1,70 C1,31.3400675 32.3400675,0 71,0 L586,0" id="board"></path>
            <rect id="h4" x="285" y="269" width="269" height="91" rx="45.5"></rect>
            <rect id="h3" x="76" y="269" width="179" height="91" rx="45.5"></rect>
            <rect id="h2" x="76" y="53" width="418" height="91" rx="45.5"></rect>
            <path d="M586,346 C289.582217,346 117.91555,346 71,346 C24.0844498,346 0.751116456,380 1,448 C1,409.340067 32.3400675,378 71,378 L586,378" id="h1" transform="translate(293.496121, 397.000000) scale(1, -1) translate(-293.496121, -397.000000) "></path>
        </g>
    </g>
</svg>