<?xml version="1.0" encoding="UTF-8"?>
<svg width="645px" height="551px" viewBox="0 0 645 551" version="1.1" xmlns="http://www.w3.org/2000/svg" xmlns:xlink="http://www.w3.org/1999/xlink">
    <!-- Generator: Sketch 64 (93537) - https://sketch.com -->
    <title>Path 3</title>
    <desc>Created with Sketch.</desc>
    <g id="Page-1" stroke="none" stroke-width="1" fill="none" fill-rule="evenodd">
        <g id="Path-3" transform="translate(0.728871, 0.679830)" fill="#FFFFFF">
            <path d="M643.271129,473.7796 C519.639803,473.7796 430.327252,487.196765 375.333476,514.031096 C320.339699,540.865426 274.34836,552.613158 237.35946,549.274292 C208.709825,549.274292 181.90547,537.52656 156.946394,514.031096 C131.987319,490.535631 110.159016,464.047114 91.4614868,434.565544 C77.3320639,412.616332 69.4525483,398.975889 67.82294,393.644214 C65.3785275,385.646703 49.5452024,354.05726 37.277981,341.720115 C25.0107595,329.38297 3.3009386,269.822631 3.3009386,237.044487 C3.3009386,215.192391 2.20546887,184.226433 0.0145294252,144.146614 C-0.604100198,98.402013 18.5321438,61.2288795 57.4232613,32.6272138 C96.3143789,4.02554818 144.136294,-5.77152503 200.889006,3.2359942 C226.488813,8.86387279 249.895738,18.660946 271.109781,32.6272138 C302.930846,53.5766156 309.500063,63.537815 375.333476,63.537815 C441.166889,63.537815 489.870132,59.872653 529.859147,79.9567502 C569.848163,100.040847 573.320124,92.5823301 643.271129,92.5823301" id="hangbaord" stroke="#000000"></path>
            <ellipse id="h9" stroke="#000000" cx="266.271129" cy="467.82017" rx="51" ry="36.5"></ellipse>
            <path d="M643.271129,473.7796 L561.259918,475.768307 L561.259918,431.32017 C560.250627,422.575143 553.775627,418.202629 541.834918,418.202629 C529.894209,418.202629 464.421054,418.202629 345.415453,418.202629 L345.415453,385.444659 L345.415453,317.471246 L489.271129,317.471246 L561.259918,363.405658 L643.271129,363.405658" id="h8" stroke="#000000"></path>
            <path d="M345.415453,385.444659 L110.252426,389.573841 C101.495263,389.555058 94.4348517,385.494748 89.0711934,377.392911 C83.707535,369.291073 74.1562578,353.607068 60.4173617,330.340896 C53.6804398,321.76113 63.231717,317.471246 89.0711934,317.471246 C114.91067,317.471246 200.358756,317.471246 345.415453,317.471246 L345.415453,385.444659 Z" id="h7" stroke="#000000"></path>
            <path d="M644,259.208768 C584.077105,259.208768 537.271129,270.542489 537.271129,289.32017 C537.271129,308.097852 584.077105,317.471246 644,317.471246" id="h6" stroke="#000000"></path>
            <rect id="h5" stroke="#000000" x="322.271129" y="214.32017" width="167" height="68" rx="34"></rect>
            <rect id="h4" stroke="#000000" x="58.2711285" y="183.32017" width="225" height="83" rx="34"></rect>
            <path d="M643.271129,192.32017 L554.271129,192.32017 C537.702586,192.32017 524.271129,178.888713 524.271129,162.32017 C524.271129,145.751628 537.702586,132.32017 554.271129,132.32017 L643.271129,132.32017" id="h3" stroke="#000000"></path>
            <rect id="h2" stroke="#000000" x="322" y="119" width="167" height="68" rx="34"></rect>
            <path d="M271.109781,144.146614 L0.0145294252,144.146614 C-0.604100198,98.402013 18.5321438,61.2288795 57.4232613,32.6272138 C96.3143789,4.02554818 144.136294,-5.77152503 200.889006,3.2359942 C226.488813,8.86387279 249.895738,18.660946 271.109781,32.6272138 C292.323824,46.5934817 292.323824,83.7666152 271.109781,144.146614 Z" id="h1"></path>
        </g>
    </g>
</svg>