<?xml version="1.0" encoding="UTF-8"?>
<svg width="644px" height="551px" viewBox="0 0 644 551" version="1.1" xmlns="http://www.w3.org/2000/svg" xmlns:xlink="http://www.w3.org/1999/xlink">
    <!-- Generator: Sketch 64 (93537) - https://sketch.com -->
    <title>SIMONDBALLSY</title>
    <desc>Created with Sketch.</desc>
    <g id="Page-1" stroke="none" stroke-width="1" fill="none" fill-rule="evenodd">
        <g id="SIMONDBALLSY" fill="#FFFFFF" fill-rule="nonzero">
            <path d="M644,474.45943 C520.368674,474.45943 431.056123,487.876595 376.062347,514.710926 C321.06857,541.545256 275.077231,553.292988 238.088331,549.954122 C209.438696,549.954122 182.634341,538.20639 157.675265,514.710926 C132.71619,491.215461 110.887887,464.726944 92.1903578,435.245374 C78.0609349,413.296162 70.1814193,399.655719 68.551811,394.324044 C66.1073985,386.326533 50.2740734,354.73709 38.006852,342.399945 C25.7396305,330.0628 4.0298096,270.502461 4.0298096,237.724317 C4.0298096,215.872221 2.93433987,184.906263 0.743400425,144.826444 C0.124770802,99.081843 19.2610148,61.9087095 58.1521323,33.3070438 C97.0432499,4.70537818 144.865165,-5.09169503 201.617877,3.9158242 C227.217684,9.54370279 250.624609,19.340776 271.838652,33.3070438 C303.659717,54.2564456 310.228934,64.217645 376.062347,64.217645 C441.89576,64.217645 490.599003,60.552483 530.588018,80.6365802 C570.577034,100.720677 574.048995,93.2621601 644,93.2621601" id="hangbaord" stroke="#000000"></path>
            <path d="M644,96.889523 C633.022789,96.889523 590.479144,98.367193 575.442195,98.3952648 C560.405245,98.4233365 549.726679,93.9989778 546.784945,92.8306021 C544.82379,92.051685 539.501365,89.8443781 530.817671,86.2086814 C526.272469,84.9701018 523.999868,88.3144599 523.999868,96.2417557 C523.999868,104.169052 523.999868,119.18133 523.999868,116.944392 C524.666623,120.981464 528.062231,123 534.186692,123 C540.311154,123 576.91559,123 644,123" id="h11"></path>
            <path d="M463.116403,68.6852219 C481.219554,68.9689549 490.180753,72.2658884 490,78.5760226 C489.819247,84.8861567 489.819247,92.7510083 490,102.170577 C489.819247,107.635855 480.858048,110.368494 463.116403,110.368494 C445.374757,110.368494 409.213823,110.368494 354.6336,110.368494 C333.363781,112.291827 322.607393,108.241116 322.364436,98.2163621 C322,83.1792306 322,81.2399919 322,75.4785665 C322,69.7171412 328.711539,66.4203168 345.630078,66.4203168 C362.548617,66.4203168 393.081188,67.1149982 406.092449,67.1149982 C414.766623,67.1149982 433.774607,67.6384061 463.116403,68.6852219 Z" id="h10"></path>
            <rect id="h9" stroke="#000000" x="193" y="440" width="113" height="73" rx="36.5"></rect>
            <path d="M644,474.45943 L561.988789,476.448137 L561.988789,432 C560.979498,423.254973 554.504498,418.882459 542.563789,418.882459 C530.62308,418.882459 465.149925,418.882459 346.144324,418.882459 L346.144324,386.124489 L346.144324,318.151076 L490,318.151076 L561.988789,364.085488 L644,364.085488" id="h8" stroke="#000000"></path>
            <path d="M346.144324,386.124489 L110.981297,390.253671 C102.224134,390.234888 95.1637227,386.174578 89.8000644,378.072741 C84.436406,369.970903 74.8851288,354.286898 61.1462327,331.020726 C54.4093108,322.44096 63.960588,318.151076 89.8000644,318.151076 C115.639541,318.151076 201.087627,318.151076 346.144324,318.151076 L346.144324,386.124489 Z" id="h7" stroke="#000000"></path>
            <path d="M644,260.001433 C584.077105,260.001433 537,271.333721 537,290.111402 C537,308.889084 584.077105,318.263911 644,318.263911" id="h6" stroke="#000000"></path>
            <rect id="h5" stroke="#000000" x="323" y="215" width="167" height="68" rx="34"></rect>
            <rect id="h4" stroke="#000000" x="58.9999995" y="184" width="225" height="83" rx="34"></rect>
            <path d="M644,193 L555,193 C538.431457,193 525,179.568543 525,163 C525,146.431458 538.431457,133 555,133 L644,133" id="h3" stroke="#000000"></path>
            <rect id="h2" stroke="#000000" x="322.728871" y="119.67983" width="167" height="68" rx="34"></rect>
            <path d="M268.283246,144.826444 L4.76330767,144.826444 C4.16196464,100.397762 22.7634776,64.2939743 60.5678464,36.5150824 C98.3722153,8.73619068 144.857825,-0.77905364 200.024676,7.96934951 C224.909138,13.4353329 247.661995,22.9505772 268.283246,36.5150824 C288.904497,50.0795877 288.904497,86.183375 268.283246,144.826444 Z" id="h1"></path>
        </g>
    </g>
</svg>