<svg width="576" height="226" viewBox="0 0 576 226" fill="none" xmlns="http://www.w3.org/2000/svg">
<g id="SMOGSMALL">
<path id="board" fill="white" d="M576 17.9994H343.5C276.5 17.9994 276.7 1.09942 199.5 1.49942C96 2.03574 0.500015 10.9995 0.5 61.9995V161.5C0.833333 178.667 14.2 213.6 65 216C115.8 218.4 210 219 210 219C210 219 319.4 203.1 371 203.5C506 203.5 489 225 576 225" stroke="black"/>
<path id="h1" d="M195.5 69C195.5 77.8001 187.751 85.9258 174.849 91.8805C161.989 97.8157 144.189 101.5 124.5 101.5C104.811 101.5 87.0109 97.8157 74.1514 91.8805C61.2494 85.9258 53.5 77.8001 53.5 69C53.5 60.1999 61.2494 52.0742 74.1514 46.1195C87.0109 40.1843 104.811 36.5 124.5 36.5C144.189 36.5 161.989 40.1843 174.849 46.1195C187.751 52.0742 195.5 60.1999 195.5 69Z" fill="white" stroke="black"/>
<rect id="h2" x="270.5" y="32.5" width="130" height="39" rx="19.5" fill="white" stroke="black"/>
<rect id="h3" x="53.5" y="135.5" width="130" height="39" rx="19.5" fill="white" stroke="black"/>
<path id="h4" d="M400.5 136.5C400.5 139.388 398.745 142.218 395.386 144.865C392.033 147.508 387.15 149.909 381.072 151.936C368.92 155.986 352.101 158.5 333.5 158.5C314.899 158.5 298.08 155.986 285.928 151.936C279.85 149.909 274.967 147.508 271.614 144.865C268.255 142.218 266.5 139.388 266.5 136.5C266.5 133.612 268.255 130.782 271.614 128.135C274.967 125.492 279.85 123.091 285.928 121.064C298.08 117.014 314.899 114.5 333.5 114.5C352.101 114.5 368.92 117.014 381.072 121.064C387.15 123.091 392.033 125.492 395.386 128.135C398.745 130.782 400.5 133.612 400.5 136.5Z" fill="white" stroke="black"/>
<path id="h5" d="M576 179C556.67 179 541 168.703 541 156C541 143.297 556.67 133 576 133" fill="white" stroke="black"/>
</g>
</svg>
