<?xml version="1.0" encoding="UTF-8"?>
<svg width="569.365869px" height="352.655573px" viewBox="0 0 569.365869 352.655573" version="1.1" xmlns="http://www.w3.org/2000/svg" xmlns:xlink="http://www.w3.org/1999/xlink">
    <title>SMOGCHANGE</title>
    <g id="Page-1" stroke="none" stroke-width="1" fill="none" fill-rule="evenodd">
        <g id="SMOGCHANGE" transform="translate(0.4968, 0.5008)">
            <path d="M568.756754,32.7690806 C527.144218,32.7690806 473.537991,32.7690806 407.938073,32.7690806 C309.538196,32.7690806 285.250295,15.0680539 263.94993,15.0680539 C242.649565,15.0680539 224.577452,15.0680539 207.18101,15.0680539 C189.784567,15.0680539 153.143813,21.6559031 135.579012,21.6559031 C123.869145,21.6559031 114.416153,20.5100142 107.220037,18.2182364 L43.4506795,333.37022 C61.6058261,345.559909 92.3152704,351.654754 135.579012,351.654754 C178.842754,351.654754 323.269919,351.654754 568.860505,351.654754" id="hangboard" stroke="#000000" fill="#FFFFFF"></path>
            <path d="M568.689764,284.371057 C523.370896,284.371057 438.626523,279.965525 372.777169,279.965525 C328.8776,279.965525 286.849366,281.418837 246.692467,284.32546 L246.692467,316.422533 C292.468346,319.550891 328.361108,321.115071 354.370753,321.115071 C393.385221,321.115071 568.756754,321.115071 568.756754,321.115071" id="h9" stroke="#979797"></path>
            <path d="M246.692467,316.422533 L246.692467,284.32546 L94.4318518,284.32546 C86.8458715,284.52081 82.7272712,286.116957 82.0760508,289.113903 C81.4248304,292.110848 80.4081416,298.179457 79.0259844,307.319731 C77.9918337,312.164872 80.4211287,315.199139 86.3138694,316.422533 C90.1706177,317.223233 118.135353,321.362473 162.74343,321.115071 C178.442616,321.028001 206.425628,319.463821 246.692467,316.422533 Z" id="h8" stroke="#979797"></path>
            <path d="M568.756754,226.962783 L472.099233,226.962783 C420.216526,230.71493 394.006726,238.001901 393.469832,248.823694 C392.664492,265.056383 397.696446,263.442002 404.799452,265.056383 C409.534789,266.132638 464.221807,267.570192 568.860505,269.369045" id="h7" stroke="#000000" fill="#FFFFFF"></path>
            <path d="M255.732636,268.675905 C243.32673,268.675905 185.2965,268.675905 81.6419467,268.675905 C70.084447,269.16862 65.7258845,264.534577 68.5662593,254.773776 C71.4066341,245.012976 73.2834721,239.048876 74.1967734,236.881479 C75.5960803,230.672087 84.4635388,227.567392 100.799149,227.567392 C117.134759,227.567392 177.41647,227.567392 281.644283,227.567392 C291.863284,228.327787 296.56853,234.323243 295.76002,245.553759 C294.547256,262.399534 274.341496,268.675905 255.732636,268.675905 Z" id="h6" stroke="#000000" fill="#FFFFFF"></path>
            <path d="M568.756754,165.771507 C533.807533,165.771507 496.651473,165.771507 457.288576,165.771507 C398.24423,165.771507 369.275558,159.636978 369.275558,159.636978 C369.275558,159.636978 365.982001,151.133105 372.608907,146.677135 C379.235813,142.221165 400.756281,127.838436 412.659905,127.838436 C420.595654,127.838436 472.627937,127.838436 568.756754,127.838436" id="h5" stroke="#000000" fill="#FFFFFF"></path>
            <path d="M252.715277,134.568409 L111.205831,131.703016 C104.823426,132.314338 100.658211,135.109529 98.710185,140.088591 C96.762159,145.067653 95.5192719,148.355001 94.9815236,149.950635 C92.7082917,156.357395 97.4859716,160.14713 109.314564,161.319839 C127.057451,163.078901 139.773639,164.403836 158.89185,164.403836 C171.637324,164.403836 202.9118,161.176843 252.715277,154.722855 C258.847283,153.729853 261.913285,150.122528 261.913285,143.900881 C261.913285,137.679233 258.847283,134.568409 252.715277,134.568409 Z" id="h4" stroke="#000000" fill="#FFFFFF"></path>
            <path d="M568.756754,32.7690806 C527.144218,32.7690806 473.537991,32.7690806 407.938073,32.7690806 C309.538196,32.7690806 285.250295,15.0680539 263.94993,15.0680539 C242.649565,15.0680539 369.451788,97.7276174 447.012601,97.7276174 C498.719809,97.7276174 539.301194,97.7276174 568.756754,97.7276174" id="h3" stroke="#000000" fill="#FFFFFF"></path>
            <ellipse id="h2" stroke="#000000" fill="#FFFFFF" cx="210.756754" cy="74.4278148" rx="85.5" ry="29"></ellipse>
            <path d="M107.220037,18.2182364 L43.4506795,333.37022 C26.5579398,320.362796 17.3582429,309.425966 15.8515887,300.55973 C14.3449345,291.693494 9.06107163,230.498917 0,116.975997 C6.80886322,57.3713565 20.5168045,20.9851917 41.1238239,7.81750242 C61.7308434,-5.35018685 83.7629142,-1.88327551 107.220037,18.2182364 Z" id="h1" stroke="#000000" fill="#FFFFFF"></path>
        </g>
    </g>
</svg>