<?xml version="1.0" encoding="UTF-8"?>
<svg width="582px" height="385px" viewBox="0 0 582 385" version="1.1" xmlns="http://www.w3.org/2000/svg" xmlns:xlink="http://www.w3.org/1999/xlink">
    <title>SMOGGRANDE</title>
    <g id="Page-1" stroke="none" stroke-width="1" fill="none" fill-rule="evenodd">
        <g id="SMOGGRANDE" transform="translate(1.056304, 0.905115)" fill="#FFFFFF" stroke="#000000">
            <path d="M580,33.6300634 L262.067986,27.2526012 C249.042845,23.505509 238.512533,19.0480494 230.47705,13.8802225 C218.423825,6.12848206 201.40988,-1.68835696 143.591251,0.319102998 C85.7726229,2.32656295 1.7857564,32.354496 0.0338566163,127.094885 C-1.13407657,190.255144 27.9151548,226.672031 87.1815507,236.345544 L118.270745,239.063997 L159.930065,379.069002 L580,383" id="board"></path>
            <path d="M579.443696,336.43598 C528.824481,331.697117 493.826695,329.327686 474.450336,329.327686 C403.63951,329.327686 397.536606,336.43598 350.463336,336.43598 C331.346953,336.43598 296.498513,334.066548 245.918016,329.327686 L227.835323,379.069002 L578.943696,382.154709" id="h8"></path>
            <path d="M230.996021,282.370576 L193.85148,190.946583 C190.450344,178.609896 186.010855,172.441552 180.533015,172.441552 C175.055175,172.441552 166.929252,178.794368 156.155246,191.5 C137.307292,210.822582 120.808001,228.0739 106.657374,243.253951 C85.4314323,266.024029 41.6455864,308.294568 41.6455864,338.871287 C41.6455864,369.448005 57.7277328,379.069002 99.322305,379.069002 C127.05202,379.069002 169.213937,379.069002 225.808056,379.069002 C240.902205,379.069002 248.947419,373.092991 249.943696,361.140969 C250.939974,349.188973 244.624082,322.932175 230.996021,282.370576 Z" id="board"></path>
            <path d="M579.443696,218.296419 L278.067528,212.697945 C259.318307,212.037163 249.943696,218.663419 249.943696,232.576715 C249.943696,253.446659 263.407229,276.58856 304.433619,278.89243 C331.784545,280.428344 423.454571,280.428344 579.443696,278.89243" id="h6"></path>
            <path d="M354.443696,336.094885 C392.128758,336.094885 395.943696,325.797434 395.943696,313.094885 C395.943696,300.392336 377.363513,290.094885 354.443696,290.094885 C331.523879,290.094885 312.943696,300.392336 312.943696,313.094885 C312.943696,325.797434 316.758634,336.094885 354.443696,336.094885 Z" id="h6"></path>
            <path d="M579.443696,290.094885 C556.523879,290.094885 537.943696,300.392336 537.943696,313.094885 C537.943696,325.797434 541.758634,336.094885 579.443696,336.094885" id="h7"></path>
            <path d="M170.377344,218.078263 C180.533378,218.078263 196.676753,249.750471 218.807469,313.094885 C222.422943,333.406464 201.067667,343.562254 154.741642,343.562254 C85.2526038,343.562254 59.4193729,342.410682 74.1810708,313.094885 C88.9427688,283.779088 155.143293,218.078263 170.377344,218.078263 Z" id="h5"></path>
            <path d="M578.943696,114.868965 C420.504443,114.153684 314.879207,109.590505 262.067986,101.179428 C262.067986,101.179428 262.067986,118.32247 262.067986,152.608555 C277.744201,161.918434 299.982665,166.573374 328.783377,166.573374 C357.584089,166.573374 440.804195,166.573374 578.443696,166.573374" id="h4"></path>
            <path d="M262.067986,101.179428 C248.380558,96.2114146 224.036398,93.727408 189.035505,93.727408 C154.034613,93.727408 132.620859,101.347697 124.794245,116.588276 C124.85758,128.113693 113.553044,133.876401 90.8806379,133.876401 C68.2082314,133.876401 55.3364622,122.97741 52.2653303,101.179428 L2.75524856,101.179428 C-7.7603037,167.293149 14.3596873,200.350009 69.1152216,200.350009 C123.870756,200.350009 153.31516,182.579576 157.448433,147.038709 C157.786249,133.742826 164.274629,127.094885 176.913571,127.094885 C189.552513,127.094885 217.937318,135.599442 262.067986,152.608555 L262.067986,101.179428 Z" id="h3"></path>
            <path d="M579.443696,32.7360657 L262.067986,27.2526012 L262.067986,53.4127855 C385.413587,61.0498298 490.872157,64.5350186 578.443696,63.8683519" id="h2"></path>
            <path d="M262.067986,27.2526012 L262.067986,53.4127855 C171.545264,64.9630726 113.947473,68.4750232 89.2746162,63.9486373 C64.601759,59.4222514 52.2653303,71.8325149 52.2653303,101.179428 L2.75524856,101.179428 C22.6562602,33.7264759 74.0807509,0 157.028721,0 C189.425592,0 217.066588,2.99333294 242.975135,20.2372572 C246.408835,22.5226211 252.773119,24.8610691 262.067986,27.2526012 Z" id="h1"></path>
        </g>
    </g>
</svg>