<?xml version="1.0" encoding="UTF-8"?>
<svg width="584.587674px" height="348.199251px" viewBox="0 0 584.587674 348.199251" version="1.1" xmlns="http://www.w3.org/2000/svg" xmlns:xlink="http://www.w3.org/1999/xlink">
    <title>SMOGLARGE</title>
    <g id="Page-1" stroke="none" stroke-width="1" fill="none" fill-rule="evenodd">
        <g id="SMOGLARGE" transform="translate(0.5143, 0.5)" fill="#FFFFFF" stroke="#000000">
            <path d="M583.56716,320.363507 C543.309958,320.363507 422.466703,345.196943 387.528187,345.196943 C352.589671,345.196943 338.518134,336.6262 338.518134,336.6262 C338.518134,336.6262 324.785591,347.199251 257.06716,347.199251 C189.34873,347.199251 181.968148,336.6262 169.346053,336.6262 C156.723959,336.6262 158.102453,349.531407 111.677873,336.6262 C65.2532929,323.720993 48.8653426,304.70876 57.0593178,284.390275 C65.2532929,264.07179 62.9198978,255.188163 53.9797742,246.375375 C45.0396505,237.562587 37.1585801,230.121417 41.0991153,213.197957 C43.7261388,201.91565 41.2583693,194.046669 33.6958067,189.591015 C13.5294401,179.219936 2.67278104,165.927304 1.12582955,149.713121 C-1.19459768,125.391846 -1.31902775,116.608699 14.7300388,102.745931 C30.7791053,88.8831634 73.0974743,54.3546749 114.678477,44.4212369 C156.25948,34.4877988 175.936317,33.6926988 215.450746,40.4606945 C254.965175,47.2286903 312.075753,43.4837461 336.416313,29.4752413 C360.756874,15.4667366 384.211835,6.92994512 412.689388,11.1983408 C431.674423,14.043938 488.63368,13.8749381 583.56716,10.6913411" id="board"></path>
            <ellipse id="h11" cx="401.56716" cy="289.959064" rx="50.5" ry="22.5"></ellipse>
            <rect id="h10" x="198.06716" y="279.459064" width="118" height="37" rx="18.5"></rect>
            <ellipse id="h9" cx="127.06716" cy="288.959064" rx="36" ry="21.5"></ellipse>
            <path d="M583.56716,278.959064 C507.854835,280.881411 469.384415,262.89385 468.155899,224.996379 C466.313127,168.150173 504.276694,138.200936 583.56716,139.697647" id="h8"></path>
            <path d="M583.56716,226.959064 C552.639214,226.959064 527.56716,238.599661 527.56716,252.959064 C527.56716,267.318468 552.639214,278.959064 583.56716,278.959064" id="h9"></path>
            <rect id="h7" x="170.06716" y="202.459064" width="254" height="39" rx="19.5"></rect>
            <rect id="h6" x="170.06716" y="134.459064" width="254" height="39" rx="19.5"></rect>
            <ellipse id="h5" transform="translate(110.0672, 201.9591) rotate(-15) translate(-110.0672, -201.9591)" cx="110.06716" cy="201.959064" rx="33" ry="22.5"></ellipse>
            <path d="M584.06716,113.149576 C524.489586,113.895713 486.982948,115.643192 471.547246,118.392013 C448.393694,122.515245 427.171587,112.394088 420.154016,99.2436175 C413.136444,86.0931473 390.318404,11.0538793 407.244835,10.6913411 C415.450267,10.6913411 414.85686,12.6498429 426.327092,12.6498429 C449.636266,12.6498429 450.80814,-1.13686838e-13 477.709836,-1.13686838e-13 C504.611532,-1.13686838e-13 551.814747,10.6913411 583.56716,10.6913411" id="h3"></path>
            <path d="M583.56716,42.9590641 C551.101376,42.9590641 528.56716,61.5249017 528.56716,72.2944543 C528.56716,83.064007 551.101376,81.9590641 583.56716,81.9590641" id="h4"></path>
            <path d="M96.7488962,141.319437 C70.7481566,156.872044 3.44625679,174.034396 1.12582955,149.713121 C-1.19459768,125.391846 -1.31902775,116.608699 14.7300388,102.745931 C30.7791053,88.8831634 73.0974743,54.3546749 114.678477,44.4212369 C156.25948,34.4877988 175.936317,33.6926988 215.450746,40.4606945 C254.965175,47.2286903 312.075753,43.4837461 336.416313,29.4752413 C360.756874,15.4667366 363.733057,21.2591654 363.733057,40.4606945 C363.733057,59.6622237 374.030549,111.953249 340.339603,111.953249 C306.648657,111.953249 273.097559,82.1886568 215.450746,87.7041319 C157.803934,93.219607 122.749636,125.766831 96.7488962,141.319437 Z" id="h2"></path>
            <path d="M206.048725,75.5784296 C153.152789,70.9151544 122.026506,89.3959192 102.502938,102.745931 C82.9793691,116.095943 44.746734,149.715464 17.7208672,149.715464 C-9.30499965,149.715464 -1.31902775,116.608699 14.7300388,102.745931 C30.7791053,88.8831634 73.0974743,54.3546749 114.678477,44.4212369 C156.25948,34.4877988 175.936317,33.6926988 215.450746,40.4606945 C254.965175,47.2286903 258.944661,80.2417048 206.048725,75.5784296 Z" id="h1"></path>
        </g>
    </g>
</svg>