<?xml version="1.0" encoding="UTF-8"?>
<svg width="337px" height="293px" viewBox="0 0 337 293" version="1.1" xmlns="http://www.w3.org/2000/svg" xmlns:xlink="http://www.w3.org/1999/xlink">
    <!-- Generator: Sketch 58 (84663) - https://sketch.com -->
    <title>SOILLBOOST</title>
    <desc>Created with Sketch.</desc>
    <g id="Page-1" stroke="none" stroke-width="1" fill="none" fill-rule="evenodd">
        <g id="SOILLBOOST" transform="translate(0.999719, 1.466309)">
            <path d="M335.000281,8.71337891 L218.194617,8.71337891 C208.472612,8.95817057 200.205359,7.06266276 193.392859,3.02685547 C186.580359,-1.00895182 171.868771,-1.00895182 149.258094,3.02685547 C136.086219,6.81787109 123.826453,8.71337891 112.478797,8.71337891 C95.4573126,8.71337891 50.3479376,9.78076172 36.5823126,18.5522461 C22.8166876,27.3237305 4.63114069,38.7446289 4.63114069,56.6665039 C4.63114069,68.6144206 10.0995652,82.8803711 21.0364141,99.4643555 C24.4107631,105.86735 26.0979376,116.65153 26.0979376,131.816895 C26.0979376,146.982259 17.9859584,178.431478 1.76200007,226.164551 C-2.91508326,245.409342 1.71903132,258.381348 15.6643438,265.080566 C29.6096563,271.779785 47.7899949,274.072103 70.2053594,271.95752 C86.6767136,270.592936 98.5692917,271.67041 105.883094,275.189941 C116.853797,280.469238 138.103797,290.258301 155.353797,290.258301 C172.603797,290.258301 199.844031,284.967285 213.353797,284.967285 C226.863563,284.967285 269.788367,284.967285 295.292274,284.967285 C320.79618,284.967285 314.625281,282.946777 335.000281,282.946777" id="hangboard" stroke="#000000" fill="#FFFFFF"></path>
            <path d="M13.4465704,212.645996 C4.01427872,236.003418 3.54552872,250.467611 12.0403204,256.038574 C20.535112,261.609538 26.9026251,262.202311 31.1428594,257.816895 C34.5673386,248.907389 34.5673386,242.146322 31.1428594,237.533691 C27.7183803,232.921061 26.495073,226.047689 27.4729376,216.913574 C25.6199674,213.392255 23.7827278,211.354494 21.9612188,210.800293 C20.1397098,210.246092 17.3014937,210.861326 13.4465704,212.645996 Z" id="h19" fill="#FFFFFF"></path>
            <path d="M220.23368,11.8481445 C212.682899,12.2944102 208.907508,15.3034375 208.907508,20.8752266 C208.907508,29.2329102 205.467078,37.923793 220.23368,37.923793 C230.078081,37.923793 260.31506,37.923793 310.944617,37.923793 C319.867794,37.8961471 324.329383,34.5291341 324.329383,27.8227539 C324.329383,17.7631836 320.635047,11.8481445 313.000281,11.8481445 C307.910438,11.8481445 276.988237,11.8481445 220.23368,11.8481445 Z" id="h18"></path>
            <path d="M185.461219,4.56787109 C182.408484,3.57958984 174.254839,3.57958984 161.000281,4.56787109 C147.879188,6.29378255 141.318641,8.89664714 141.318641,12.3764648 C141.318641,17.5961914 141.053016,29.8276367 147.427039,33.9135742 C151.676388,36.6375326 157.649695,37.9737956 165.346961,37.9223633 C181.895138,37.0161133 191.525021,35.6798503 194.236609,33.9135742 C198.303992,31.2641602 202.371375,28.362793 198.303992,17.206543 C194.236609,6.05029297 190.04032,6.05029297 185.461219,4.56787109 Z" id="h17" fill="#FFFFFF"></path>
            <path d="M73.0675942,14.9897461 C69.017268,15.9605542 66.992105,18.2317392 66.992105,21.8033014 C66.992105,27.1606445 65.6312377,38.2348633 73.0675942,38.2348633 C78.0251652,38.2348633 90.8248881,38.6541341 111.466763,39.4926758 C126.614701,38.4757487 132.904385,34.3919271 130.335814,27.2412109 C126.482957,16.5151367 127.291027,16.2504883 117.469192,14.9897461 C110.921301,14.1492513 96.1207688,14.1492513 73.0675942,14.9897461 Z" id="h16" fill="#FFFFFF"></path>
            <path d="M33.7112188,26.5756836 C20.9273647,37.0131836 13.9358282,44.4025065 12.7366094,48.7436523 C10.9377813,55.2553711 5.27762507,55.2553711 17.6604376,75.7084961 C25.9156459,89.3439128 33.7675339,88.2677409 41.2161016,72.4799805 C44.9218308,66.1726625 45.8482631,60.6397783 43.9953985,55.8813279 C41.2161016,48.7436523 46.0315313,42.597168 47.7297735,40.4145508 C49.4280157,38.2319336 61.6223516,25.6274414 54.0002813,22.6879883 C48.9189011,20.7283529 42.1558803,22.0242513 33.7112188,26.5756836 Z" id="h15" fill="#FFFFFF"></path>
            <rect id="h14" stroke="#000000" fill="#FFFFFF" x="247.000281" y="224.533691" width="57" height="26" rx="13"></rect>
            <rect id="h13" stroke="#000000" fill="#FFFFFF" x="133.000281" y="224.533691" width="93" height="26" rx="13"></rect>
            <rect id="h12" stroke="#000000" fill="#FFFFFF" x="39.0002813" y="223.533691" width="66" height="26" rx="13"></rect>
            <path d="M335.000281,193.533691 L304.000281,193.533691 C296.82058,193.533691 291.000281,187.713393 291.000281,180.533691 C291.000281,173.35399 296.82058,167.533691 304.000281,167.533691 L335.000281,167.533691" id="h11" stroke="#000000" fill="#FFFFFF"></path>
            <rect id="h10" stroke="#000000" fill="#FFFFFF" x="235.000281" y="166.533691" width="27" height="27" rx="13.5"></rect>
            <rect id="h9" stroke="#000000" fill="#FFFFFF" x="149.000281" y="167.533691" width="57" height="26" rx="13"></rect>
            <rect id="h8" stroke="#000000" fill="#FFFFFF" x="50.0002813" y="167.533691" width="66" height="26" rx="13"></rect>
            <path d="M335.189734,135.533691 L320.000281,135.533691 C312.82058,135.533691 307.000281,129.713393 307.000281,122.533691 C307.000281,115.35399 312.82058,109.533691 320.000281,109.533691 L335.01493,109.533691" id="h7" stroke="#000000" fill="#FFFFFF"></path>
            <rect id="h6" stroke="#000000" fill="#FFFFFF" x="192.000281" y="109.533691" width="93" height="26" rx="13"></rect>
            <rect id="h5" stroke="#000000" fill="#FFFFFF" x="146.000281" y="109.533691" width="26" height="26" rx="13"></rect>
            <rect id="h4" stroke="#000000" fill="#FFFFFF" x="60.0002813" y="110.533691" width="66" height="26" rx="13"></rect>
            <rect id="h3" stroke="#000000" fill="#FFFFFF" x="226.000281" y="52.5336914" width="93" height="26" rx="13"></rect>
            <rect id="h2" stroke="#000000" fill="#FFFFFF" x="161.000281" y="52.5336914" width="26" height="26" rx="13"></rect>
            <rect id="h1" stroke="#000000" fill="#FFFFFF" x="54.0002813" y="52.5336914" width="66" height="26" rx="13"></rect>
        </g>
    </g>
</svg>