<?xml version="1.0" encoding="UTF-8"?>
<svg width="344px" height="302px" viewBox="0 0 344 302" version="1.1" xmlns="http://www.w3.org/2000/svg" xmlns:xlink="http://www.w3.org/1999/xlink">
    <!-- Generator: Sketch 58 (84663) - https://sketch.com -->
    <title>SOILLIRONPALM</title>
    <desc>Created with Sketch.</desc>
    <g id="Page-1" stroke="none" stroke-width="1" fill="none" fill-rule="evenodd">
        <g id="SOILLIRONPALM" transform="translate(1.029134, 0.633789)">
            <path d="M342.970866,187.734375 C213.121908,185.955078 144.994955,185.06543 138.590007,185.06543 C128.982585,185.06543 120.80485,189.411133 120.80485,201.007812 C120.80485,208.738932 124.909994,212.919271 133.12028,213.548828 L342.947474,217.915787 M342.94221,264.638977 C267.624848,261.196269 218.953613,256.658203 196.87614,251.035156 C163.759929,242.600586 125.311686,227.977539 114.18278,235.289062 C103.053874,242.600586 102.075358,253.379883 103.483561,262.671875 C104.891765,271.963867 111.445475,290.277344 103.483561,293.771484 C98.1756187,296.100911 93.2109377,298.046061 88.5895184,299.606934 C78.4947919,300.961426 68.5628257,300.571126 58.79362,298.436035 C44.1398114,295.233398 37.7425892,294.445313 37.7425892,286.125977 C37.7425892,277.806641 44.1520184,264.906738 46.6324872,260.072754 C48.286133,256.850098 53.0861005,248.810384 61.0323895,235.953613 L52.29362,230.000977 L34.6886395,254.723145 C33.7524416,257.083742 30.7823895,258.037803 25.7784833,257.585329 C20.774577,257.132856 15.3335777,256.010093 9.45548523,254.217041 C0.145914921,248.7771 -2.28922505,241.917643 2.15006531,233.638672 C6.58935568,225.359701 22.3077802,200.602214 49.3053387,159.366211 C51.0229494,156.652913 50.3828127,154.758626 47.3849286,153.68335 C42.8881024,152.070435 2.02673722,135.995117 0.0627665023,80.8789062 C-1.90120422,25.7626953 61.0323895,-8.24229573e-13 88.5895184,-8.24229573e-13 C102.370707,-8.24229573e-13 127.212101,8.20406597 145.001387,24.7480469 C162.783898,41.2857267 173.517313,66.1605188 171.485433,80.8789062 C168.775743,100.507161 158.56939,120.214518 140.866374,140.000977 C136.639486,146.166992 135.370931,150.727783 137.06071,153.68335 C139.595378,158.116699 144.228679,160.008301 149.433268,160.008301 C152.902995,160.008301 217.388519,160.836243 342.94221,162.48175" id="Shape" stroke="#000000" fill="#FFFFFF"></path>
            <path d="M49.3053387,154.75293 C50.5784507,155.932617 50.5784507,157.470378 49.3053387,159.366211 C48.0322268,161.262044 33.7849937,183.069824 6.56363953,224.789551 C-0.546386512,236.536621 -1.82421854,244.40332 2.73014344,248.389648 C9.56168641,254.369141 8.19840516,253.970703 12.8253583,255.001953 C17.4523114,256.033203 32.1173505,259.848633 34.2223309,255.67627 C35.6256512,252.894694 41.6494143,244.336263 52.29362,230.000977 C49.8597007,224.819336 51.6274416,216.225911 57.5968427,204.220703 C63.5662437,192.215495 70.6814781,177.263997 78.9425458,159.366211 C71.7057617,159.154572 66.2650065,158.765086 62.6202802,158.197754 C58.9755538,157.630422 54.53724,156.482147 49.3053387,154.75293 Z" id="h7" stroke="#000000" fill="#FFFFFF"></path>
            <path d="M42.0577802,269.588867 C37.712077,280.84668 33.6993817,291.94043 45.656413,295.467773 C57.6134442,298.995117 89.1525067,302.342773 89.1525067,298.905273 C89.1525067,295.467773 93.0113934,295.771527 82.562663,273.224121 C75.5968427,258.192517 76.2714846,239.655082 84.5865887,217.611816 C86.1233726,208.700358 85.4487307,203.16569 82.562663,201.007812 C58.4565432,239.223307 44.9549156,262.083659 42.0577802,269.588867 Z" id="h6" stroke="#000000" fill="#FFFFFF"></path>
            <path d="M339.417155,223.1875 L137.224772,218.230957 L137.224772,230.821777 C144.592611,232.144368 166.021647,237.675781 201.511882,247.416016 C218.000365,251.941252 257.862468,255.446289 275.306804,256.875977 C286.936361,257.829102 308.306478,258.827474 339.417155,259.871094 L339.417155,223.1875 Z" id="h5" stroke="#FFFFFF"></path>
            <polygon id="h4" stroke="#FFFFFF" points="339.417155 183.491211 339.417155 166.237305 137.224772 163.915527 137.224772 180.637695"></polygon>
            <path d="M342.970866,99.7587891 L162.520182,96.7006836 C143.078451,115.219564 139.818522,124.902995 152.740397,125.750977 C165.662272,126.598958 229.072429,128.264323 342.970866,130.74707" id="h3" stroke="#000000" fill="#FFFFFF"></path>
            <path d="M342.970866,46.8193359 L192.470866,46.8662109 C173.483236,48.3489583 161.530762,49.7207031 156.613444,50.9814453 C152.254557,50.9814453 156.536784,76.6811523 173.431804,76.6811523 C184.69515,76.6811523 241.208171,77.5563151 342.970866,79.3066406" id="h2" stroke="#000000" fill="#FFFFFF"></path>
            <ellipse id="h1" stroke="#000000" fill="#FFFFFF" cx="86" cy="81" rx="86" ry="81"></ellipse>
        </g>
    </g>
</svg>