<?xml version="1.0" encoding="UTF-8"?>
<svg width="212px" height="163px" viewBox="0 0 212 163" version="1.1" xmlns="http://www.w3.org/2000/svg" xmlns:xlink="http://www.w3.org/1999/xlink">
    <!-- Generator: Sketch 57.1 (83088) - https://sketch.com -->
    <title>SoiLL</title>
    <desc>Created with Sketch.</desc>
    <g id="Page-1" stroke="none" stroke-width="1" fill="none" fill-rule="evenodd">
        <g id="SoiLL" transform="translate(1.000000, 1.000000)" fill="#FFFFFF">
            <path d="M211,10.9644853 L152.717457,10.9644853 C150.444033,10.0703214 148.936927,9.36891696 148.196138,8.86027191 C144.447683,6.28648557 142.238814,4.47564447 139.445901,4.47564447 C135.825063,4.47564447 117.358887,4.47564447 84.047372,4.47564447 C59.6291434,1.49188149 44.0300094,0 37.2499698,0 C27.0799105,0 9.10519258,1.25306708 4.83481507,16.1776923 C1.98789673,26.1274425 2.99796843,34.0207912 7.86503015,39.8577386 C10.8205688,43.8278335 12.2983381,47.4358193 12.2983381,50.681696 C12.2983381,55.5505109 4.83481507,68.2995688 4.83481507,78.9895555 C4.83481507,89.6795423 19.4680044,93.3991329 19.4680044,100.608346 C19.4680044,107.81756 0,140.942942 0,148.697996 C0,153.868033 7.03292116,157.9687 21.0987635,161 C34.392141,160.28549 41.0388297,157.309496 41.0388297,152.072019 C41.0388297,146.834542 40.1628362,141.126408 38.4108492,134.947617 L38.4108492,123.534807 C38.9272804,119.645289 41.1867279,117.70053 45.1891915,117.70053 C49.1916551,117.70053 62.8860549,117.70053 86.2723907,117.70053 C89.5922107,118.467606 91.9660974,119.131149 93.3940508,119.691159 C98.0405877,121.513423 101.637368,123.534807 104.331483,123.534807 C108.267514,123.534807 122.596179,123.534807 147.317477,123.534807 C150.164396,123.286282 152.529069,122.167918 154.411497,120.179716 C156.293926,118.191513 159.515438,117.365118 164.076036,117.70053 L178.276419,117.70053 C181.640268,118.028479 184.26268,118.854874 186.143653,120.179716 C188.024627,121.504557 196.310076,122.166978 211,122.166978" id="hangboard" stroke="#000000"></path>
            <path d="M211,57 C198.297451,57 188,67.2974508 188,80 C188,92.7025492 198.297451,103 211,103 L211,103" id="goat" stroke="#000000"></path>
            <path d="M211,112.420237 L194.671186,112.420237 C190.991394,111.610205 188.717811,110.726228 187.850436,109.768306 C186.706687,108.505158 187.125007,109.280317 185.919179,106.662299 C185.115294,104.916954 183.705456,104.546014 181.689665,105.549479 C180.391708,107.336358 179.841544,109.439035 180.039172,111.85751 C180.335616,115.485224 184.757945,118.153435 186.706687,119.378478 C188.262878,120.35675 196.29718,121.350769 211,121.192261" id="h14" stroke="#FFFFFF"></path>
            <path d="M11.3125177,121 C5.98317613,132.196506 0,144.342127 0,148.657533 C0,153.844574 7.02626682,157.95873 21.0788004,161 C34.3596001,160.28314 41,157.297357 41,152.042653 C41,146.78795 40.1248353,141.061041 38.3745059,134.861927 L38.3745059,123.411579" id="h13" stroke="#000000"></path>
            <rect id="h12" stroke="#000000" x="97" y="95" width="52" height="13" rx="6.5"></rect>
            <rect id="h11" stroke="#000000" x="37" y="95" width="52" height="13" rx="6.5"></rect>
            <path d="M157,95.7294603 C158.064193,99.2431534 160.229447,101 163.495763,101 C166.762079,101 171.378973,100.664709 177.346445,99.9941283 C179.782148,100.525006 181,98.461789 181,93.8044773 C181,86.8185099 178.219873,69 169.673981,69 C161.128088,69 158.209526,70.9774738 157,74.7972929 L157,95.7294603 Z" id="h10" stroke="#000000"></path>
            <rect id="h9" stroke="#000000" x="82" y="69" width="59" height="14" rx="7"></rect>
            <rect id="h8" stroke="#000000" x="52" y="67" width="19" height="17" rx="8"></rect>
            <rect id="h7" stroke="#000000" x="16" y="69" width="28" height="14" rx="7"></rect>
            <path d="M211,47.7382394 C198.327795,48.9870143 189.148517,51.1105171 183.462165,54.108748 C177.775813,57.1069788 172.115343,57.7733337 166.480757,56.1078125 C162.826919,54.2710058 161,52.215578 161,49.9415292 C161,46.530456 163.091361,43.181602 169.772727,42.1868276 C173.052183,41.6985564 179.772828,40.0198826 193.12198,39.1549252 C196.309992,38.9483583 202.269332,38.9483583 211,39.1549252 L211,39.1549252" id="h6" stroke="#000000"></path>
            <rect id="h5" stroke="#000000" x="83" y="45" width="64" height="14" rx="7"></rect>
            <rect id="h4" stroke="#000000" x="20" y="44" width="55" height="14" rx="7"></rect>
            <polyline id="h3" stroke="#FFFFFF" points="211 31.0355147 147 31.0355147 153.441406 12 211 12"></polyline>
            <polygon id="h2" stroke="#FFFFFF" points="84.047372 6 71 35.7909571 129.152344 35.7909571 141 6"></polygon>
            <path d="M18.3941094,30 L58.351155,30 C62.1170517,29.7432581 64,27.2570831 64,22.5414751 C64,17.8258671 56.3990182,14.3696691 41.1970547,12.1728811 C25.7480592,11.4046189 16.6334589,13.1969034 13.8532536,17.5497345 C11.0730484,21.9025657 11.4209395,25.6550233 14.8969269,28.8071073 L18.3941094,30 Z" id="h1" stroke="#000000"></path>
        </g>
    </g>
</svg>