<?xml version="1.0" encoding="UTF-8"?>
<svg width="583px" height="588px" viewBox="0 0 583 588" version="1.1" xmlns="http://www.w3.org/2000/svg" xmlns:xlink="http://www.w3.org/1999/xlink">
    <!-- Generator: Sketch 64 (93537) - https://sketch.com -->
    <title>SOILLSLOPEY</title>
    <desc>Created with Sketch.</desc>
    <g id="Page-1" stroke="none" stroke-width="1" fill="none" fill-rule="evenodd">
        <g id="SOILLSLOPEY" transform="translate(1.000000, 1.000000)" fill="#FFFFFF" fill-rule="nonzero" stroke="#000000">
            <path d="M581.939957,0.663798599 C504.398209,-4.63279033 418.687386,21.7675703 324.807488,79.8648803 C324.807488,79.8648803 253.754816,74.496197 179.41376,91.3691525 C135.642447,101.30379 90.533973,121.87974 58.6470505,147.929844 C-27.396516,218.223357 1.18344579,293.260814 20.6360067,316.82607 C40.0885676,340.391328 48.8469704,343.294552 44.1712982,348.569748 C39.4956259,353.844945 23.2877033,360.735117 14.9335019,361.518844 C9.36403431,362.041327 11.2648693,369.985946 20.6360067,385.352699 C65.4801599,464.920803 157.036925,493.271869 295.306303,470.405897 C295.306303,470.405897 338.357775,532.281671 406.988026,574.693703 C413.418094,578.667348 421.205638,579.926294 428.329687,583.115686 C460.973926,597.730299 460.973926,553.357844 502.693405,527.370546 C526.342992,512.639085 552.664379,501.987933 581.657563,495.417093 L582,495.417093" id="Path-19"></path>
            <path d="M582,0.663712061 C504.450252,-4.63218636 418.730585,21.7647325 324.841001,79.8544685 C324.841001,79.8544685 253.780998,74.4864851 179.432272,91.3572409 C135.656442,101.290583 90.543314,121.863851 58.6531016,147.910559 C-27.3993427,218.194907 1.1835679,293.222582 20.6381359,316.784766 C40.0927039,340.346951 48.8520103,343.249798 44.1758557,348.524305 C39.4997009,353.798815 23.2901061,360.688089 14.9350427,361.471713 C9.36500047,361.994129 11.2660315,369.937711 20.6381359,385.302461 C65.486916,464.860193 157.053128,493.207562 295.336772,470.344571" id="Path-19"></path>
            <path d="M582,0.662808396 C504.444797,-4.62587949 418.719102,21.7350991 324.822914,79.7457441 C324.822914,79.7457441 285.714208,128.931188 285.714208,250.655924 C285.714208,372.38066 277.995295,442.987922 295.31661,469.704182 C312.637925,496.420443 343.091065,526.993988 395.238267,566.314209 C430.00307,592.52769 455.511059,589.601398 471.762236,557.535332 C543.930174,515.622314 580.550372,494.665807 581.622826,494.665807" id="Path-19"></path>
            <path d="M14.2673078,361.454229 C52.7900446,372.389588 82.0749971,353.777472 102.122165,305.617878 C102.122165,305.617878 141.242569,299.4681 219.483375,287.168543 C238.503384,280.83491 251.90176,288.375191 259.678502,309.789387 C271.343617,341.910679 283.303146,381.859065 283.303146,391.218653 C283.303146,400.578241 282.504212,444.492786 295,470.329661 C295,470.329661 149.840926,497.093163 83.3801809,450.634643 C44.4899455,423.44893 17.2674286,391.096324 11.1505801,365.829815 C10.5825793,363.483607 11.6214885,362.025079 14.2673078,361.454229 Z" id="h6"></path>
            <path d="M437.681218,584 C385.065105,519.107204 382.28286,467.486375 429.33448,429.137509 C476.386102,390.788641 513.274608,375.242476 540,382.49901 C516.763724,318.833003 477.324826,287 421.683304,287 C338.221023,287 284.367202,367.30229 284.367202,399.338525 C284.367202,409.414872 280.514473,438.432831 297.768188,472.346458 C305.062088,486.683229 321.037568,501.899616 334.721162,516.922146 C346.430247,529.776964 369.484639,550.670516 404.579279,570.621285 C411.228453,574.401239 422.262432,578.86081 437.681218,584 Z" id="h5"></path>
            <path d="M582,374 L581.318433,374 C536.231954,284.235794 486.792475,239.353691 433,239.353691 C379.207523,239.353691 329.540857,258.294678 284,296.176655 L287.106865,221.183457 C391.060349,163.026259 488.925031,167.996899 580.700908,236.095377 C581.112591,236.87966 581.545622,237.2718 582,237.2718" id="h4"></path>
            <path d="M287,220.858921 C390.936657,164.412778 488.936656,169.459805 581,236 C581,233.589881 532.497812,172.693792 434.457743,170.06086 C394.396817,168.984996 339.385877,182.196536 287,207.849084" id="path"></path>
            <path d="M582,87 C559.62996,87 523.342549,89.995326 500.185294,99.1544141 C484.747125,105.260473 512.018692,108.205298 582,107.988889" id="h2"></path>
            <path d="M582,49.7688315 C456.840648,53.6485574 361.507316,88.3922801 296,154 C296,154 299.830843,141.241561 307.49253,115.724684 C397.742949,50.6533068 489.231988,19.1076481 581.959647,21.0877081" id="h1"></path>
        </g>
    </g>
</svg>