<?xml version="1.0" encoding="UTF-8"?>
<svg width="587px" height="511px" viewBox="0 0 587 511" version="1.1" xmlns="http://www.w3.org/2000/svg" xmlns:xlink="http://www.w3.org/1999/xlink">
    <!-- Generator: Sketch 64 (93537) - https://sketch.com -->
    <title>SOILLBOOST</title>
    <desc>Created with Sketch.</desc>
    <g id="Page-1" stroke="none" stroke-width="1" fill="none" fill-rule="evenodd">
        <g id="SOILLBOOST" transform="translate(1.000000, 1.000000)">
            <path d="M586,15.2798726 L381.677428,15.2798726 C364.671189,15.7091418 350.209678,12.3851595 338.292896,5.30792548 C326.376115,-1.76930849 300.641837,-1.76930849 261.090059,5.30792548 C238.049127,11.9558902 216.603703,15.2798726 196.75379,15.2798726 C166.97892,15.2798726 88.0712438,17.1516463 63.9916931,32.5334133 C39.9121424,47.9151803 8.10103334,67.9429875 8.10103334,99.3709754 C8.10103334,120.322967 17.6666873,145.339888 36.797995,174.421737 C42.7005826,185.650095 45.6518764,204.561346 45.6518764,231.155489 C45.6518764,257.74963 31.4619785,312.899311 3.08218261,396.604528 C-5.09921599,430.352395 3.00701943,453.100241 27.4008889,464.84806 C51.7947583,476.595881 83.5967568,480.615713 122.806884,476.907559 C151.619438,474.51461 172.422557,476.404079 185.216242,482.575966 C204.406769,491.833796 241.57838,509 271.752981,509 C301.927583,509 349.577624,499.721619 373.209612,499.721619 C396.841601,499.721619 471.927912,499.721619 516.540679,499.721619 C561.153444,499.721619 550.358985,496.178435 586,496.178435" id="hangboard" stroke="#000000" fill="#FFFFFF" fill-rule="nonzero"></path>
            <path d="M23.8955347,372.587157 C7.55596892,413.605159 6.74395295,439.005749 21.4594868,448.788925 C36.1750205,458.572102 47.2054681,459.613072 54.5508291,451.911837 C60.483057,436.26584 60.483057,424.392721 54.5508291,416.292473 C48.6186015,408.192227 46.4994653,396.121889 48.1934209,380.081456 C44.9835193,373.897663 41.8008678,370.319148 38.6454664,369.345915 C35.490065,368.372682 30.5734212,369.453095 23.8955347,372.587157 Z" id="h19" fill="#FFFFFF" fill-rule="nonzero"></path>
            <path d="M386.368949,21 C373.193994,21.7701422 366.606515,26.9629652 366.606515,36.5784695 C366.606515,51.0017258 360.603492,66 386.368949,66 C403.545921,66 456.304816,66 544.645634,66 C560.215211,65.9522901 568,60.141674 568,48.5681513 C568,31.2078673 561.55395,21 548.232453,21 C539.351457,21 485.396955,21 386.368949,21 Z" id="h18"></path>
            <path d="M324.744056,7.30429313 C319.436914,5.56523562 305.261904,5.56523562 282.219019,7.30429313 C259.408163,10.3413429 248.002733,14.9215484 248.002733,21.0449095 C248.002733,30.2299515 247.540947,51.7533659 258.622107,58.9433032 C266.009547,63.7365949 276.394067,66.0879885 289.775668,65.9974842 C318.544468,64.4027754 335.2859,62.0513818 339.999962,58.9433032 C347.071057,54.2811857 354.142151,49.1757115 347.071057,29.5442955 C339.999962,9.91287941 332.704766,9.91287941 324.744056,7.30429313 Z" id="h17" fill="#FFFFFF" fill-rule="nonzero"></path>
            <path d="M127.803077,26.1035689 C120.715006,27.803129 117.17097,31.779214 117.17097,38.0318244 C117.17097,47.4107395 114.789453,66.7979912 127.803077,66.7979912 C136.478826,66.7979912 158.878341,67.5319941 195.001622,69 C221.510513,67.2197009 232.51746,60.0702958 228.022461,47.5517843 C221.279961,28.7740174 222.694083,28.3107066 205.505872,26.1035689 C194.047063,24.6321437 168.146132,24.6321437 127.803077,26.1035689 Z" id="h16" fill="#FFFFFF" fill-rule="nonzero"></path>
            <path d="M58.9337027,46.4328787 C36.4420309,64.8761147 24.1412534,77.9331711 22.0313705,85.6040479 C18.8665462,97.1103632 8.90817411,97.1103632 30.694261,133.251375 C45.2183188,157.345383 59.0327824,155.443769 72.137652,127.546534 C78.657442,116.401399 80.2873896,106.6247 77.0274945,98.2164393 C72.137652,85.6040479 80.6098282,74.743108 83.5976835,70.8863871 C86.5855388,67.0296662 108.040023,44.757319 94.6298967,39.5632565 C85.6898122,36.1005482 73.7910809,38.3904222 58.9337027,46.4328787 Z" id="h15" fill="#FFFFFF" fill-rule="nonzero"></path>
            <rect id="h14" stroke="#000000" fill="#FFFFFF" fill-rule="nonzero" x="432" y="394" width="100" height="45" rx="13"></rect>
            <rect id="h13" stroke="#000000" fill="#FFFFFF" fill-rule="nonzero" x="232" y="394" width="163" height="45" rx="13"></rect>
            <rect id="h12" stroke="#000000" fill="#FFFFFF" fill-rule="nonzero" x="69" y="392" width="115" height="45" rx="13"></rect>
            <path d="M586,339 L531.75,339 C519.185523,339 509,328.926407 509,316.5 C509,304.073594 519.185523,294 531.75,294 L586,294" id="h11" stroke="#000000" fill="#FFFFFF" fill-rule="nonzero"></path>
            <rect id="h10" stroke="#000000" fill="#FFFFFF" fill-rule="nonzero" x="411" y="292" width="47" height="47" rx="13.5"></rect>
            <rect id="h9" stroke="#000000" fill="#FFFFFF" fill-rule="nonzero" x="260" y="294" width="100" height="45" rx="13"></rect>
            <rect id="h8" stroke="#000000" fill="#FFFFFF" fill-rule="nonzero" x="88" y="294" width="115" height="45" rx="13"></rect>
            <path d="M586,237 L559.597104,237 C547.117069,237 537,226.926407 537,214.5 C537,202.073594 547.117069,192 559.597104,192 L585.696149,192" id="h7" stroke="#000000" fill="#FFFFFF" fill-rule="nonzero"></path>
            <rect id="h6" stroke="#000000" fill="#FFFFFF" fill-rule="nonzero" x="336" y="192" width="163" height="45" rx="13"></rect>
            <rect id="h5" stroke="#000000" fill="#FFFFFF" fill-rule="nonzero" x="255" y="192" width="45" height="45" rx="13"></rect>
            <rect id="h4" stroke="#000000" fill="#FFFFFF" fill-rule="nonzero" x="105" y="194" width="115" height="45" rx="13"></rect>
            <rect id="h3" stroke="#000000" fill="#FFFFFF" fill-rule="nonzero" x="396" y="93" width="163" height="45" rx="13"></rect>
            <rect id="h2" stroke="#000000" fill="#FFFFFF" fill-rule="nonzero" x="282" y="93" width="45" height="45" rx="13"></rect>
            <rect id="h1" stroke="#000000" fill="#FFFFFF" fill-rule="nonzero" x="95" y="93" width="115" height="45" rx="13"></rect>
        </g>
    </g>
</svg>