<?xml version="1.0" encoding="UTF-8"?>
<svg width="337px" height="339px" viewBox="0 0 337 339" version="1.1" xmlns="http://www.w3.org/2000/svg" xmlns:xlink="http://www.w3.org/1999/xlink">
    <!-- Generator: Sketch 58 (84663) - https://sketch.com -->
    <title>Group 10</title>
    <desc>Created with Sketch.</desc>
    <g id="Page-1" stroke="none" stroke-width="1" fill="none" fill-rule="evenodd">
        <g id="Group-10" transform="translate(0.989684, -0.278199)" fill="#FFFFFF" stroke="#000000">
            <path d="M334.975754,1.3220526 C290.341243,-1.72541241 241.004456,13.4643968 186.965394,46.8914801 C186.965394,46.8914801 146.066119,43.8025346 103.273987,53.5106207 C78.078383,59.2266505 52.113084,71.0653055 33.7583624,86.0535895 C-15.7699579,126.497925 0.681213991,169.671754 11.8784796,183.230347 C23.0757452,196.788941 28.1172491,198.459351 25.4258429,201.494507 C22.7344366,204.529664 13.4048468,208.494019 8.59600891,208.944947 C5.39011699,209.245565 6.48427389,213.81661 11.8784796,222.658082 C37.6916307,268.438681 90.3934536,284.750855 169.983948,271.594605 C169.983948,271.594605 194.765198,307.195679 234.270081,331.598023 C237.971351,333.884314 242.45401,334.608666 246.554749,336.443726 C265.345396,344.852444 265.345396,319.322144 289.359925,304.369996 C302.973079,295.894048 318.124172,289.765762 334.813203,285.985139 L335.010316,285.985139" id="Path-19"></path>
            <path d="M334.975754,1.3220526 C290.341243,-1.72541241 241.004456,13.4643968 186.965394,46.8914801 C186.965394,46.8914801 146.066119,43.8025346 103.273987,53.5106207 C78.078383,59.2266505 52.113084,71.0653055 33.7583624,86.0535895 C-15.7699579,126.497925 0.681213991,169.671754 11.8784796,183.230347 C23.0757452,196.788941 28.1172491,198.459351 25.4258429,201.494507 C22.7344366,204.529664 13.4048468,208.494019 8.59600891,208.944947 C5.39011699,209.245565 6.48427389,213.81661 11.8784796,222.658082 C37.6916307,268.438681 90.3934536,284.750855 169.983948,271.594605" id="Path-19"></path>
            <path d="M334.975754,1.3220526 C290.341243,-1.72541241 241.004456,13.4643968 186.965394,46.8914801 C186.965394,46.8914801 164.457581,75.233277 164.457581,145.373902 C164.457581,215.514527 160.015198,256.200074 169.983948,271.594605 C179.952698,286.989136 197.479066,304.606324 227.490784,327.26355 C247.498597,342.368368 262.178935,340.68217 271.5318,322.204957 C313.065837,298.053701 334.141465,285.978074 334.758683,285.978074" id="Path-19"></path>
            <path d="M8.59600891,208.944947 C30.742005,215.237427 47.5773728,204.527548 59.1021124,176.815308 C59.1021124,176.815308 81.5916958,173.276571 126.570862,166.199097 C137.505107,162.554566 145.207581,166.893433 149.678284,179.215699 C156.384339,197.699097 163.259647,220.686402 163.259647,226.072144 C163.259647,231.457886 162.800355,256.727418 169.983948,271.594605 C169.983948,271.594605 86.5347296,286.994996 48.3276984,260.261597 C25.9704343,244.618255 10.3207219,226.001753 6.80426087,211.462769 C6.47772787,210.112702 7.07497722,209.273428 8.59600891,208.944947 Z" id="h6"></path>
            <path d="M251.724183,337.454515 C221.436422,300.036189 219.83486,270.270712 246.919495,248.158082 C274.004131,226.045451 295.238506,217.081259 310.62262,221.265504 C297.246969,184.554566 274.544495,166.199097 242.515198,166.199097 C194.471253,166.199097 163.471022,212.502808 163.471022,230.975464 C163.471022,236.785663 161.25325,253.517928 171.18512,273.073121 C175.383756,281.339955 184.579827,290.113991 192.456605,298.776246 C199.196783,306.18856 212.467735,318.236149 232.669495,329.740113 C236.497003,331.919701 242.848565,334.491168 251.724183,337.454515 Z" id="h5"></path>
            <path d="M335.010316,216.170533 L334.617982,216.170533 C308.664617,164.390123 280.205512,138.499918 249.240669,138.499918 C218.275825,138.499918 189.685943,149.426011 163.471022,171.278199 L165.259443,128.018433 C225.098729,94.4705003 281.433086,97.3378098 334.262513,136.620362 C334.499492,137.072775 334.74876,137.298981 335.010316,137.298981" id="h4"></path>
            <path d="M165.259443,128.018433 C225.084508,95.4228928 281.492483,98.3373622 334.483369,136.761841 C334.483369,135.370087 306.565918,100.204869 250.134879,98.6844488 C227.076147,98.0631779 195.412313,105.692349 165.259443,120.505738" id="path"></path>
            <path d="M335.010316,50.9907606 C322.162629,50.9907606 301.321839,52.7479254 288.022034,58.1209723 C279.155498,61.7030035 294.818258,63.4305426 335.010316,63.3035895" id="h2"></path>
            <path d="M335.010316,29.2870795 C262.88206,31.5207424 207.942282,51.5236415 170.19098,89.295777 C170.19098,89.295777 172.398662,81.9503994 176.814026,67.2596442 C228.824565,29.7962958 281.54891,11.6346085 334.987061,12.7745825" id="h1"></path>
        </g>
    </g>
</svg>