<?xml version="1.0" encoding="UTF-8"?>
<svg width="588px" height="450px" viewBox="0 0 588 450" version="1.1" xmlns="http://www.w3.org/2000/svg" xmlns:xlink="http://www.w3.org/1999/xlink">
    <!-- Generator: Sketch 64 (93537) - https://sketch.com -->
    <title>SOILLALLCHALK</title>
    <desc>Created with Sketch.</desc>
    <g id="Page-1" stroke="none" stroke-width="1" fill="none" fill-rule="evenodd">
        <g id="SOILLALLCHALK" transform="translate(1.000000, 1.000000)" fill="#FFFFFF" fill-rule="nonzero">
            <path d="M587,30.5098721 L424.858518,30.5098721 C418.533874,28.0217639 414.341119,26.0700298 412.280251,24.6546697 C401.852085,17.4928294 395.707032,12.4539672 387.937175,12.4539672 C377.864038,12.4539672 326.491311,12.4539672 233.818992,12.4539672 C165.887712,4.15132241 122.491069,0 103.629063,0 C75.3360543,0 25.3305595,3.48679535 13.4504097,45.0161873 C5.53030986,72.7024487 8.34031976,94.6665494 21.8804393,110.90849 C30.1027198,121.955711 34.21386,131.995323 34.21386,141.027328 C34.21386,154.575335 13.4504097,190.050974 13.4504097,219.797024 C13.4504097,249.543074 54.1598037,259.893239 54.1598037,279.953658 C54.1598037,300.01408 0,392.189056 0,413.768337 C0,428.154527 19.56552,439.565078 58.6965601,448 C95.6786103,446.011798 114.169635,437.730771 114.169635,423.156922 C114.169635,408.583073 111.73263,392.69957 106.858618,375.506413 L106.858618,343.749028 C108.295325,332.926022 114.581087,327.514518 125.715902,327.514518 C136.850718,327.514518 174.948409,327.514518 240.008973,327.514518 C249.244681,329.648991 255.848811,331.495371 259.821364,333.05366 C272.747986,338.124307 282.754194,343.749028 290.249197,343.749028 C301.199198,343.749028 341.061408,343.749028 409.835825,343.749028 C417.755926,343.05748 424.334424,339.945511 429.571321,334.413123 C434.808221,328.880732 443.770437,326.581198 456.457977,327.514518 L495.963308,327.514518 C505.321504,328.427072 512.617029,330.726606 517.849878,334.413123 C523.08273,338.099637 546.132771,339.942895 587,339.942895" id="hangboard" stroke="#000000"></path>
            <path d="M587,159 C551.653777,159 523,187.653776 523,223 C523,258.346224 551.653777,287 587,287 L587,287" id="goat" stroke="#000000"></path>
            <path d="M587,312.600309 L541.70071,312.600309 C531.492255,310.351471 525.184895,307.897345 522.778629,305.23793 C519.605648,301.731136 520.766149,303.883159 517.420949,296.61493 C515.190816,291.769445 511.279652,290.739629 505.687458,293.525482 C502.086674,298.486275 500.560413,304.323797 501.108671,311.038048 C501.931064,321.109429 514.199461,328.517005 519.605648,331.91801 C523.922823,334.633922 546.211532,337.39355 587,336.953495" id="h14" stroke="#FFFFFF"></path>
            <path d="M31.4543175,337 C16.6361483,368.070304 0,401.774402 0,413.749654 C0,428.143693 19.5364492,439.560476 58.6093475,448 C95.5364491,446.010714 114,437.725166 114,423.143362 C114,408.561561 111.566615,392.669389 106.699846,375.466847 L106.699846,343.692132" id="h13" stroke="#000000"></path>
            <rect id="h12" stroke="#000000" x="270" y="264" width="145" height="36" rx="6.5"></rect>
            <rect id="h11" stroke="#000000" x="102" y="264" width="145" height="36" rx="6.5"></rect>
            <path d="M437,266.341311 C439.970872,276.11377 446.01554,281 455.134005,281 C464.252471,281 477.1413,280.067472 493.800492,278.202419 C500.600163,279.678923 504,273.940601 504,260.987452 C504,241.557731 496.238812,192 472.38153,192 C448.524246,192 440.376593,197.499849 437,208.123721 L437,266.341311 Z" id="h10" stroke="#000000"></path>
            <rect id="h9" stroke="#000000" x="228" y="192" width="164" height="39" rx="7"></rect>
            <rect id="h8" stroke="#000000" x="145" y="186" width="53" height="48" rx="8"></rect>
            <rect id="h7" stroke="#000000" x="45" y="192" width="77" height="39" rx="7"></rect>
            <path d="M587,132.272887 C551.77127,135.741706 526.252877,141.640325 510.444819,149.968744 C494.63676,158.297163 478.900654,160.148149 463.236504,155.521701 C453.078835,150.419461 448,144.709939 448,138.393137 C448,128.917933 453.813984,119.615561 472.388181,116.852299 C481.505069,115.49599 500.188462,110.833007 537.299104,108.430348 C546.161778,107.856551 562.728743,107.856551 587,108.430348 L587,108.430348" id="h6" stroke="#000000"></path>
            <rect id="h5" stroke="#000000" x="231" y="125" width="178" height="39" rx="7"></rect>
            <rect id="h4" stroke="#000000" x="56" y="122" width="153" height="39" rx="7"></rect>
            <polyline id="h3" stroke="#FFFFFF" points="587 87 409 87 426.91516 34 587 34"></polyline>
            <polygon id="h2" stroke="#FFFFFF" points="233.346251 17 197 99 358.995815 99 392 17"></polygon>
            <path d="M50.8297281,84 L162.248413,84 C172.749471,83.2868281 178,76.3807864 178,63.2818753 C178,50.1829641 156.804955,40.5824141 114.414864,34.4802253 C71.3359343,32.3461636 45.9202219,37.3247316 38.1677264,49.4159291 C30.4152311,61.5071269 31.3853121,71.9306203 41.0779692,80.6864092 L50.8297281,84 Z" id="h1" stroke="#000000"></path>
        </g>
    </g>
</svg>