<?xml version="1.0" encoding="UTF-8"?>
<svg width="336px" height="329px" viewBox="0 0 336 329" version="1.1" xmlns="http://www.w3.org/2000/svg" xmlns:xlink="http://www.w3.org/1999/xlink">
    <!-- Generator: Sketch 58 (84663) - https://sketch.com -->
    <title>SOILLREMEDY</title>
    <desc>Created with Sketch.</desc>
    <g id="Page-1" stroke="none" stroke-width="1" fill="none" fill-rule="evenodd">
        <g id="SOILLREMEDY" transform="translate(1.000000, 1.000000)" fill="#FFFFFF">
            <path d="M334.699219,-5.96855898e-13 C320.00651,0.560546875 311.073568,2.6171875 307.900391,6.16992187 C299.785156,6.16992187 232.348633,9.05761719 197.777344,45.3085937 C174.729818,69.4759115 131.980469,112.423503 69.5292969,174.151367 C23.1764323,230.010742 0,270.448893 0,295.46582 C0,320.482747 10.6894531,330.549154 32.0683594,325.665039 L80.765625,314.645508 C83.938151,308.898763 88.7838542,305.022461 95.3027344,303.016602 C105.081055,300.007812 230.679688,263.588867 254.400391,263.588867 C270.214193,263.588867 281.895833,262.695312 289.445312,260.908203 C303.847005,263.634766 318.931641,264.998047 334.699219,264.998047" id="hangboard-2" stroke="#000000"></path>
            <path d="M334.699219,-6.53699317e-13 C320.00651,0.560546875 311.073568,2.6171875 307.900391,6.16992187 C299.785156,6.16992187 232.348633,9.05761719 197.777344,45.3085937 C174.729818,69.4759115 131.980469,112.423503 69.5292969,174.151367 C23.1764323,230.010742 0,270.448893 0,295.46582 C0,320.482747 10.6894531,330.549154 32.0683594,325.665039 L80.765625,314.645508 C83.938151,308.898763 88.7838542,305.022461 95.3027344,303.016602 C99.6486545,301.679362 104.413628,291.999674 109.597656,273.977539 C113.158203,260.663737 121.244141,255.503255 133.855469,258.496094 C152.772461,262.985352 171.951172,276.951172 177.193359,272.416992 C182.435547,267.882812 183.369141,254.179687 193.852539,256.337891 C204.335938,258.496094 216.550781,261.132812 220.753906,258.496094 C224.957031,255.859375 230.25293,246.925781 257.614258,252.710937 C284.975586,258.496094 295.644531,264.998047 334.699219,264.998047" id="hangboard-1" stroke="#000000"></path>
            <path d="M33.8027344,233 C49.1991652,228.790262 60.4979933,224.278217 67.6992188,219.463867 C79.3046875,211.705078 101.720703,195.285156 108.923828,185.027344 C121.861456,166.603151 126.985724,147.594036 124.296632,128 C102.462356,150.364219 85.8048854,168.206832 74.3242188,181.527841 C62.8435521,194.84885 49.3363906,212.006236 33.8027344,233 Z" id="h11"></path>
            <path d="M132.493897,123 C160.280174,119.249405 181.348614,110.477269 195.699219,96.6835938 C210.049823,82.8899182 217.981383,61.9953869 219.493897,34 C198.502626,52.9563377 182.488287,68.080077 171.450879,79.3712177 C160.413472,90.6623585 147.427811,105.205286 132.493897,123 Z" id="h10"></path>
            <path d="M335,3.45556641 C320.291016,4.59847005 312.027995,7.72265625 310.210938,12.828125 C289.460937,13.6139323 276.598307,14.5130208 271.623047,15.5253906 C264.160156,17.0439453 260.674805,17.0439453 264.882812,26.4541016 C267.688151,32.7275391 269.718913,37.3211263 270.975098,40.2348633 L335,40.2348633" id="h9"></path>
            <rect id="h8" stroke="#000000" x="265.699219" y="219.463867" width="38" height="19" rx="9.5"></rect>
            <circle id="h7" stroke="#000000" cx="209.699219" cy="233.463867" r="14"></circle>
            <rect id="h6" stroke="#000000" transform="translate(67.699219, 263.463867) rotate(-17.000000) translate(-67.699219, -263.463867) " x="40.6992188" y="248.463867" width="54" height="30" rx="15"></rect>
            <rect id="h5" stroke="#000000" transform="translate(123.995850, 208.507094) rotate(-24.000000) translate(-123.995850, -208.507094) " x="92.4958504" y="193.507094" width="63" height="30" rx="15"></rect>
            <path d="M334.775391,189.463867 L244.699219,189.463867 C237.519517,189.463867 231.699219,183.643569 231.699219,176.463867 C231.699219,169.284165 237.519517,163.463867 244.699219,163.463867 L334.717773,163.463867" id="h4" stroke="#000000"></path>
            <rect id="h3" stroke="#000000" transform="translate(179.699219, 149.963867) rotate(-16.000000) translate(-179.699219, -149.963867) " x="138.699219" y="134.463867" width="82" height="31" rx="15.5"></rect>
            <path d="M334.775391,128.463867 L237.774746,128.463867 C230.043116,128.463867 223.775391,122.643569 223.775391,115.463867 C223.775391,108.284165 230.043116,102.463867 237.774746,102.463867 L334.713344,102.463867" id="h2" stroke="#000000"></path>
            <path d="M334.699219,76.4638672 L237.698575,76.4638672 C229.966944,76.4638672 223.699219,70.6435689 223.699219,63.4638672 C223.699219,56.2841654 229.966944,50.4638672 237.698575,50.4638672 L334.637172,50.4638672" id="h1" stroke="#000000"></path>
        </g>
    </g>
</svg>