<?xml version="1.0" encoding="UTF-8"?>
<svg width="455px" height="630px" viewBox="0 0 455 630" version="1.1" xmlns="http://www.w3.org/2000/svg" xmlns:xlink="http://www.w3.org/1999/xlink">
    <title>SURFACEGRESSION</title>
    <g id="Page-1" stroke="none" stroke-width="1" fill="none" fill-rule="evenodd">
        <g id="SURFACEGRESSION" transform="translate(1.000000, 1.000000)" fill="#FFFFFF" stroke="#000000">
            <path d="M454,628 L17.3509934,628 C13.2911518,628 10,624.707668 10,620.64637 L10,7.35362998 C10,3.29233228 13.2911518,0 17.3509934,0 L454,0" id="Path"></path>
            <path d="M454,90 L12.8425738,90 C11.4310546,90 10.2189471,88.9969992 9.95564145,87.6111066 L0.0521143514,35.4845243 C-0.250621482,33.8910936 0.796486284,32.3540975 2.39089501,32.0515473 C2.57159535,32.0172582 2.75511792,32 2.93904672,32 L454,32" id="h1"></path>
            <path d="M454,163 L12.4039096,163 C10.9933358,163 9.78204012,162.187223 9.51891081,161.064173 L1.05207945,118.823666 C0.749546375,117.532438 1.79595283,116.286941 3.38929367,116.041771 C3.56987299,116.013985 3.75327264,116 3.93707825,116 L454,116" id="h2"></path>
            <path d="M454,229 L13.0025484,229 C11.591541,229 10.3798731,228.308275 10.1166629,227.352487 L2.05209545,191.40312 C1.7494694,190.304202 2.79619746,189.244205 4.39002801,189.03555 C4.57066283,189.011902 4.75411885,189 4.93798095,189 L454,189" id="h3"></path>
            <path d="M454,291 L13.1011082,291 C11.6904162,291 10.479019,290.429327 10.2158677,289.640802 L4.05208381,259.982574 C3.74952539,259.075967 4.79601951,258.201469 6.38949385,258.029329 C6.5700883,258.009819 6.75350332,258 6.93732433,258 L454,258" id="h4"></path>
            <path d="M454,352 L13.2578363,352 C11.8476457,352 10.6366792,351.515793 10.3736214,350.846741 L5.0520653,325.682184 C4.74961443,324.912942 5.79573655,324.170944 7.38864445,324.024885 C7.5691747,324.008332 7.75252452,324 7.93628019,324 L454,324" id="h5"></path>
            <path d="M454,408 L11.8296482,408 C10.4172401,408 9.20436918,407.584965 8.9408977,407.011492 L6.05214717,385.441872 C5.74922068,384.782521 6.7969879,384.146523 8.39240076,384.02133 C8.57321491,384.007141 8.75685306,384 8.9408977,384 L454,384" id="h6"></path>
            <path d="M454,465 L12.8261954,465 C11.4146238,465 10.2024713,464.584965 9.93915584,464.011492 L7.05211629,442.441872 C6.74936921,441.782521 7.79651585,441.146523 9.39098377,441.02133 C9.57169082,441.007141 9.75522021,441 9.93915584,441 L454,441" id="h7"></path>
            <path d="M454,510 L13.4280185,510 C12.0173182,510 10.8059139,509.584965 10.542761,509.011492 L8.05208412,487.441872 C7.74952392,486.782521 8.79602418,486.146523 10.3895078,486.02133 C10.5701034,486.007141 10.7535194,486 10.9373415,486 L454,486" id="h8"></path>
            <path d="M454,555 L11.9374886,555 C10.5267177,555 9.31525279,554.584965 9.05208672,554.011492 L9.05208672,532.441872 C8.74951139,531.782521 9.79606402,531.146523 11.3896275,531.02133 C11.570232,531.007141 11.7536573,531 11.9374886,531 L454,531" id="h9"></path>
        </g>
    </g>
</svg>