<?xml version="1.0" encoding="UTF-8"?>
<svg width="335px" height="169px" viewBox="0 0 335 169" version="1.1" xmlns="http://www.w3.org/2000/svg" xmlns:xlink="http://www.w3.org/1999/xlink">
    <!-- Generator: Sketch 58 (84663) - https://sketch.com -->
    <title>TARGETLINEBASE</title>
    <desc>Created with Sketch.</desc>
    <g id="Page-1" stroke="none" stroke-width="1" fill="none" fill-rule="evenodd">
        <g id="TARGETLINEBASE" transform="translate(0.572510, 1.193000)">
            <polyline id="Path-28" stroke="#000000" fill="#FFFFFF" points="334.42749 166.595819 100.89624 166.595819 100.89624 114.595819 334.42749 114.595819"></polyline>
            <path d="M334.42749,15.825555 L247.628662,15.825555 C243.499268,15.8891943 241.43457,16.8939143 241.43457,18.8397151 C241.43457,20.7855159 241.43457,22.0380387 241.43457,22.5972835 C239.528158,24.6456233 237.734619,25.6697932 236.053955,25.6697932 C234.373291,25.6697932 201.165771,25.6697932 136.431396,25.6697932 C133.150472,25.8375992 131.51001,23.5609065 131.51001,18.8397151 C131.51001,11.757928 130.58667,0.0562678427 121.203369,0.0562678427 C114.947835,0.0562678427 85.0422363,0.0562678427 31.4865723,0.0562678427 C27.3246257,0.553826436 23.8591309,2.55488438 21.0900879,6.05944167 C16.9365234,11.3162776 0.850830078,29.1063167 0.850830078,54.8402034 C0.850830078,71.9961279 6.62491862,87.8053727 18.1730957,102.267938 C19.0046387,103.381382 19.4204102,104.662795 19.4204102,106.112176 C19.4204102,107.561558 19.4204102,108.523716 19.4204102,108.998651 C19.3530273,110.311476 18.1612142,112.177199 15.8449707,114.595819 C12.3706055,118.223748 0,128.859735 0,139.816522 C0,150.773309 8.56225586,166.595819 26.4274902,166.595819 C30.9360753,166.595819 22.7172164,166.595819 100.89624,166.595819 C160.757568,166.595819 138.898193,114.595819 165.270264,114.595819 C194.189535,114.595819 250.575277,114.595819 334.42749,114.595819" id="Path-27" stroke="#000000" fill="#FFFFFF"></path>
            <path d="M166.015198,114.595952 L36.6154785,114.595952 C29.7764486,114.611 21.9641113,108.205601 13.1784668,95.3797542" id="Path-29" stroke="#000000"></path>
            <rect id="h13" stroke="#000000" fill="#FFFFFF" x="261.42749" y="123.807" width="66" height="28" rx="14"></rect>
            <rect id="h12" stroke="#000000" fill="#FFFFFF" x="161.42749" y="123.807" width="90" height="28" rx="14"></rect>
            <rect id="h11" stroke="#000000" fill="#FFFFFF" x="77.4274902" y="119.807" width="50" height="28" rx="14"></rect>
            <path d="M334.411865,86.8070003 L278.42749,86.8070003 C270.695504,86.8070003 264.42749,80.5389868 264.42749,72.8070003 C264.42749,65.0750138 270.695504,58.8070003 278.42749,58.8070003 C315.760824,58.8070003 334.42749,58.8070003 334.42749,58.8070003" id="h10" stroke="#000000" fill="#FFFFFF"></path>
            <rect id="h9" stroke="#000000" fill="#FFFFFF" x="16.4274902" y="119.807" width="50" height="28" rx="14"></rect>
            <rect id="h8" stroke="#000000" fill="#FFFFFF" x="205.42749" y="60.8070003" width="50" height="28" rx="14"></rect>
            <rect id="h7" stroke="#000000" fill="#FFFFFF" x="127.42749" y="60.8070003" width="67" height="28" rx="14"></rect>
            <rect id="h6" stroke="#000000" fill="#FFFFFF" x="26.4274902" y="60.8070003" width="92" height="28" rx="14"></rect>
            <rect id="h5" stroke="#000000" fill="#FFFFFF" x="255.42749" y="22.8070003" width="67" height="26" rx="13"></rect>
            <rect id="h4" stroke="#000000" fill="#FFFFFF" x="19.4274902" y="23.8070003" width="92" height="28" rx="14"></rect>
            <path d="M334.42749,8.48473464 L248.310303,8.48473464 C243.72701,7.99978998 241.435364,11.4492936 241.435364,18.8332454 C241.435364,18.8332454 240.792419,15.6063777 248.856689,15.718072 C254.232869,15.7925349 282.75647,15.8297664 334.42749,15.8297664" id="h3" stroke="#000000" fill="#FFFFFF"></path>
            <path d="M241.43457,22.5972835 L241.43457,33.5892268 C242.04834,39.0107763 238.81014,41.721551 231.719971,41.721551 C224.629801,41.721551 191.914144,41.721551 133.572998,41.721551 C127.207438,41.8706396 124.024658,37.0037776 124.024658,27.1209651 C124.024658,12.2967464 126.170166,0.0562678427 121.203369,0.0562678427 C121.203369,0.0562678427 131.551514,-2.07044114 131.551514,19.825555 C131.551514,19.825555 131.141357,25.6697932 136.431396,25.6697932 C141.721436,25.6697932 233.479736,25.6697932 236.053955,25.6697932 C237.770101,25.6697932 239.563639,24.6456233 241.43457,22.5972835 Z" id="h2" stroke="#000000" fill="#FFFFFF"></path>
            <rect id="h1" fill="#FFFFFF" x="26.4274902" y="3.80700026" width="92" height="15" rx="5"></rect>
        </g>
    </g>
</svg>