<?xml version="1.0" encoding="UTF-8"?>
<svg width="324px" height="205px" viewBox="0 0 324 205" version="1.1" xmlns="http://www.w3.org/2000/svg" xmlns:xlink="http://www.w3.org/1999/xlink">
    <!-- Generator: Sketch 64 (93537) - https://sketch.com -->
    <title>Group 2</title>
    <desc>Created with Sketch.</desc>
    <g id="Page-1" stroke="none" stroke-width="1" fill="none" fill-rule="evenodd">
        <g id="Group-2" transform="translate(1.207031, 0.680664)" stroke="#000000">
            <path d="M322.792969,203.217773 L36.4414063,203.217773 C13.9752604,194.614909 2.7421875,182.118815 2.7421875,165.729492 C2.7421875,141.145508 17.5351562,140.491211 17.5351562,130.481445 C17.5351562,123.808268 16.0852865,118.754232 13.1855469,115.319336 C11.6634115,107.37793 33.9654948,103.407227 80.0917969,103.407227 C126.218099,103.407227 207.11849,103.407227 322.792969,103.407227" id="Path-4" fill="#FFFFFF"></path>
            <path d="M322.792969,130.293945 L56.75,130.293945 C18.9166667,129.349935 0,114.629883 0,86.1337891 C0,43.3896484 21.1289063,8.60839844 35.4453125,3.79785156 C44.9895833,0.590820312 100.233073,0.590820312 201.175781,3.79785156 L201.175781,34.0361328 L322.792969,34.0361328" id="Path-5" fill="#FFFFFF"></path>
            <path d="M322.792969,178.319336 L297.292969,178.319336 C287.075701,178.319336 278.792969,170.036604 278.792969,159.819336 C278.792969,149.602068 287.075701,141.319336 297.292969,141.319336 L322.792969,141.319336" id="h9"></path>
            <rect id="h8" x="199.792969" y="141.319336" width="66" height="37" rx="18.5"></rect>
            <circle id="h7" cx="170.792969" cy="160.319336" r="18"></circle>
            <rect id="h6" x="18.7929688" y="142.319336" width="120" height="37" rx="18.5"></rect>
            <path d="M322.792969,105.319336 L281.292969,105.319336 C271.075701,105.319336 262.792969,97.0366038 262.792969,86.8193359 C262.792969,76.6020681 271.075701,68.3193359 281.292969,68.3193359 L322.792969,68.3193359" id="h5"></path>
            <rect id="h4" x="158.792969" y="69.3193359" width="90" height="37" rx="18.5"></rect>
            <rect id="h3" x="25.7929688" y="69.3193359" width="120" height="37" rx="18.5"></rect>
            <polyline id="h2" points="322.792969 34.0361328 201.175781 34.0361328 186.328125 49.4775391 322.792969 49.4775391"></polyline>
            <path d="M201.175781,3.79785156 C191.277344,10.7652995 186.328125,25.991862 186.328125,49.4775391 C186.328125,49.4775391 126.013672,49.4775391 5.38476562,49.4775391 C12.9654948,24.0882161 22.9856771,8.86165365 35.4453125,3.79785156 C47.9049479,-1.26595052 103.148438,-1.26595052 201.175781,3.79785156 Z" id="h1"></path>
        </g>
    </g>
</svg>