<?xml version="1.0" encoding="UTF-8"?>
<svg width="666px" height="369px" viewBox="0 0 666 369" version="1.1" xmlns="http://www.w3.org/2000/svg" xmlns:xlink="http://www.w3.org/1999/xlink">
    <title>TENSIONSIMPLEJ2015</title>
    <g id="Page-1" stroke="none" stroke-width="1" fill="none" fill-rule="evenodd">
        <g id="TENSIONSIMPLEJ2015" transform="translate(1.667917, 0.860342)" fill="#FFFFFF" stroke="#000000">
            <path d="M663.332083,0.280062937 L31.7763318,0.280062937 C24.808998,-1.11717256 20.7613282,2.71370348 19.6333222,11.772691 C18.5053163,20.8316786 17.071529,35.2606646 15.3319602,55.0596489 C15.7822933,57.9911887 19.9920284,59.4569586 27.9611653,59.4569586 C35.9303023,59.4569586 247.720608,59.4569586 663.332083,59.4569586" id="h1"></path>
            <path d="M663.332083,91.8276107 L33.1247299,91.8276107 L15.3256557,55.0596489 C16.1229639,57.9911887 19.7242746,59.4569586 26.1295877,59.4569586 C35.7375575,59.4569586 663.332083,59.4569586 663.332083,59.4569586" id="board"></path>
            <polyline id="board" points="663.332083 91.8276107 33.1247299 91.8276107 29.8038021 127.583422 663.332083 130.453857"></polyline>
            <path d="M663.332083,164.838393 L7.7126996,159.473141 L9.69423719,135.733211 C9.81081697,130.300018 16.5140053,127.583422 29.8038021,127.583422 C43.0935989,127.583422 254.269693,128.540233 663.332083,130.453857" id="h2"></path>
            <polyline id="board" points="663.332083 164.838393 7.7126996 159.473141 26.9263505 206.426313 663.332083 206.426313"></polyline>
            <polyline id="board" points="663.332083 206.426313 26.9263505 206.426313 15.3319602 292.229877 663.332083 292.229877"></polyline>
            <path d="M663.332083,292.229877 L15.3256557,292.229877 C7.65351105,292.229877 3.53281061,293.99875 2.96355435,297.536495 C2.39429809,301.074241 1.40644664,309.021891 0,321.379444 L663.332083,323.993682" id="h3"></path>
            <path d="M663.332083,366.737565 L28.7772534,360.684565 C19.7705659,359.2834 13.7894412,355.347425 10.8338791,348.876641 C7.87831703,342.405856 4.26702399,333.240124 0,321.379444 L663.332083,323.993682" id="board"></path>
        </g>
    </g>
</svg>