<?xml version="1.0" encoding="UTF-8"?>
<svg width="588px" height="334px" viewBox="0 0 588 334" version="1.1" xmlns="http://www.w3.org/2000/svg" xmlns:xlink="http://www.w3.org/1999/xlink">
    <!-- Generator: Sketch 64 (93537) - https://sketch.com -->
    <title>TENSIONGRINDPRO</title>
    <desc>Created with Sketch.</desc>
    <g id="Page-1" stroke="none" stroke-width="1" fill="none" fill-rule="evenodd">
        <g id="TENSIONGRINDPRO" transform="translate(1.000000, 1.000000)" fill="#FFFFFF" fill-rule="nonzero">
            <path d="M0,161 L586.915685,161 L586.915685,294.674358 C588.13795,319.55812 576.071385,332 550.715988,332 C525.36059,332 474.405907,332 397.851936,332 C388.745952,332 381.591372,329.482772 376.388198,324.448317 C368.583436,316.896632 362.211154,314.757691 350.540081,314.757691 C338.869008,314.757691 333.484738,318.687069 328.425667,324.448317 C325.052954,328.289148 316.395864,330.806375 302.454399,332 C208.87903,332 162.091346,332 162.091346,332 C148.749741,332 145.885679,326.742559 140.237819,322.772268 C134.58996,318.801976 129.234774,314.757691 117.707885,314.757691 C105.801189,314.757691 100.507708,316.879855 93.3706494,322.772268 C88.6126102,326.700542 80.690171,329.776454 69.6033321,332 L0,332" id="Path-20" stroke="#000000" transform="translate(293.500000, 246.500000) scale(-1, 1) translate(-293.500000, -246.500000) "></path>
            <path d="M0,0 L273.000573,0 L347.764994,17.2508172 L558.296824,17.2508172 L587,36.8822404 L586.915685,190.79703 C588.13795,215.599011 576.071385,228 550.715988,228 C525.36059,228 474.405907,228 397.851936,228 C388.745952,228 381.591372,225.491045 376.388198,220.473136 C368.583436,212.946269 362.211154,210.814358 350.540081,210.814358 C338.869008,210.814358 333.484738,214.730822 328.425667,220.473136 C325.052954,224.301344 316.395864,226.810298 302.454399,228 L283.837517,228 C277.024612,228 271.767112,225.491045 268.06502,220.473136 C262.511879,212.946269 253.322449,210.814358 245.564249,210.814358 C238.906757,210.814358 228.855076,216.082008 224.463343,220.473136 C220.07161,224.864263 217.197825,228 211.624385,228 C178.60236,228 162.091346,228 162.091346,228 C148.749741,228 145.885679,222.759838 140.237819,218.802595 C134.58996,214.845352 129.234774,210.814358 117.707885,210.814358 C105.801189,210.814358 100.507708,212.929548 93.3706494,218.802595 C88.6126102,222.717959 80.690171,225.783762 69.6033321,228 L0,228" id="Path-20" stroke="#000000" transform="translate(293.500000, 114.000000) scale(-1, 1) translate(-293.500000, -114.000000) "></path>
            <rect id="h7" stroke="#000000" x="352" y="140" width="99" height="48" rx="13.5"></rect>
            <path d="M586.967324,190 L519.618568,190 C506.574393,190 496,179.254835 496,166 C496,152.745166 506.574393,142 519.618568,142 L587,142" id="h8" stroke="#000000"></path>
            <path d="M586.967324,306 L519.618568,306 C506.574393,306 496,295.254836 496,282 C496,268.745166 506.574393,258 519.618568,258 L587,258" id="h11" stroke="#000000"></path>
            <circle id="h6" stroke="#000000" cx="287" cy="164" r="24"></circle>
            <rect id="h5" stroke="#000000" x="33" y="140" width="188" height="48" rx="13.5"></rect>
            <rect id="h9" stroke="#000000" x="31" y="258" width="188" height="48" rx="13.5"></rect>
            <rect id="h10" stroke="#000000" x="263" y="258" width="188" height="48" rx="13.5"></rect>
            <path d="M585.992095,50 L518.625,50 C505.577273,50 495,28.5096679 495,2 C495,2 525.333333,2 586,2" id="h4"></path>
            <path d="M437.339371,91.3355706 L37.8057884,92.9733899 C12.6092424,93.6337279 0.0109694518,82.0041909 0.0109694518,58.0847789 C0.0109694518,22.2056608 -1.52713706,11.8967997 31.8231253,11.8967997 C54.0566334,11.8967997 112.30419,11.8967997 206.565794,11.8967997 C218.544832,11.1039411 226.9978,9.29169281 231.9247,6.46005486 C239.315047,2.21259795 253.910643,0.00731832266 266.443842,0.00731832266 C274.799309,0.00731832266 331.764485,0.00731832266 437.339371,0.00731832266 C464.446457,-0.373253817 478,14.0892426 478,43.3948075 C478,72.7003726 464.446457,88.6806268 437.339371,91.3355706 Z" id="h1" stroke="#000000"></path>
            <rect id="h2" stroke="#000000" x="31" y="26" width="188" height="48" rx="13.5"></rect>
            <rect id="h3" stroke="#000000" x="263" y="24" width="188" height="48" rx="13.5"></rect>
        </g>
    </g>
</svg>