<?xml version="1.0" encoding="UTF-8"?>
<svg width="1318px" height="586px" viewBox="0 0 1318 586" version="1.1" xmlns="http://www.w3.org/2000/svg" xmlns:xlink="http://www.w3.org/1999/xlink">
    <title>TENSIONWHETSTONE</title>
    <g id="Page-1" stroke="none" stroke-width="1" fill="none" fill-rule="evenodd">
        <g id="TENSIONWHETSTONE" transform="translate(1.213723, 1.312397)" fill="#FFFFFF" stroke="#000000">
            <path d="M1181.25571,452.032318 C1015.87072,439.514441 1049.04141,576.93415 940.859242,581.500127 C868.737795,584.544112 668.958451,584.544112 341.521208,581.500127 C290.84774,581.500127 257.088689,562.887815 240.244056,525.663192 C214.977107,469.826256 196.065903,393.569171 127.525379,393.569171 C81.8316956,393.569171 126.722742,360.044022 262.198519,292.993725 L1006.11571,283.187603 C1233.13237,404.095997 1291.51237,460.377569 1181.25571,452.032318 Z" id="board"></path>
            <path d="M1316.78628,452.032318 C1284.1889,452.032318 1226.52067,452.032318 1143.78159,452.032318 C1019.67297,452.032318 1046.41573,335.299774 911.245693,335.299774 C776.075651,335.299774 417.720764,335.299774 318.738785,335.299774 C219.756806,335.299774 251.008373,393.666046 155.781328,393.666046 C60.5542843,393.666046 0,395.497155 0,310.446746 C0,253.746474 5.54557374,175.110935 16.6367212,74.5401297 L231.547553,31.013402 L368.403709,52.7767659 L587.117962,52.7767659 L726.365442,31.013402 L1316.78628,37.2700649" id="board"></path>
            <rect id="h10" x="308.286277" y="388.187603" width="682" height="127" rx="44"></rect>
            <rect id="h9" x="308.286277" y="388.187603" width="372" height="127" rx="44"></rect>
            <path d="M1316.78628,377.687603 L1123.28628,377.687603 C1086.55934,377.687603 1056.78628,347.914539 1056.78628,311.187603 C1056.78628,274.460667 1086.55934,244.687603 1123.28628,244.687603 L1316.78628,244.687603" id="h8"></path>
            <path d="M936.026571,133.187603 C947.804563,133.187603 958.512587,137.875187 966.357523,145.506144 C974.202458,153.1371 979.184305,163.711429 979.509942,175.484918 L979.891571,189.2828 L982.967669,210.424279 C984.697238,222.311304 981.4449,233.774033 974.788413,242.697397 C968.131926,251.620761 958.071291,258.004761 946.184265,259.73433 C944.110137,260.036117 942.016909,260.187603 939.920941,260.187603 L341.786277,260.187603 C329.774083,260.187603 318.899083,255.318699 311.027132,247.446748 C303.15518,239.574796 298.286277,228.699796 298.286277,216.687603 L298.286277,176.687603 C298.286277,164.675409 303.15518,153.800409 311.027132,145.928458 C318.899083,138.056506 329.774083,133.187603 341.786277,133.187603 Z" id="h7"></path>
            <rect id="h6" x="298.286277" y="133.187603" width="382" height="127" rx="44"></rect>
            <path d="M165.635584,135.141993 C178.853395,133.133392 191.913274,135.72432 202.979839,141.891886 C214.046406,148.059454 223.119659,157.803661 228.364213,170.101617 C232.79964,180.502276 234.080028,189.535206 232.16304,197.201231 C229.670397,207.169303 230.51641,229.380764 234.73884,263.8418 C237.073447,282.891187 231.465808,301.083509 220.512172,315.097167 C209.558557,329.110799 193.258964,338.945782 174.20963,341.280533 C170.057574,341.789423 165.868052,341.922415 161.692073,341.677994 L117.573594,339.095767 C98.4145141,337.973835 81.5239529,329.192382 69.703634,315.901641 C57.8833227,302.610909 51.1332471,284.810894 52.255125,265.651824 C52.2997844,264.889144 52.3570166,264.127252 52.4268726,263.366426 C54.1437961,244.650101 57.1387418,229.688423 61.4221681,218.484507 C76.0880518,194.934373 93.1092269,174.0149 112.486269,155.726474 C122.76851,146.019285 135.767856,139.680937 149.747834,137.556321 Z" id="h5"></path>
            <polyline id="h4" points="1316.78628 71.184701 839.656075 71.184701 850.185357 19.3783038 1316.78628 19.3783038"></polyline>
            <path d="M839.656075,71.184701 C839.656075,71.184701 850.185357,19.3783038 850.185357,19.3783038 C809.926605,17.04565 779.046253,7.27595761e-12 735.376595,7.27595761e-12 C691.706938,7.27595761e-12 626.621584,31.013402 587.117962,31.013402 C587.117962,31.013402 558.541495,74.5401297 558.541495,74.5401297 C631.424613,71.735016 650.966539,45.2815024 706.449696,45.2815024 C761.932852,45.2815024 762.2142,68.2186989 839.656075,71.184701 Z" id="h3"></path>
            <polygon id="h2" points="558.541495 74.5401297 323.3995 74.5401297 356.786277 32.2856634 587.117962 31.013402"></polygon>
            <path d="M323.3995,74.5401297 L356.786277,32.2856634 C314.32688,18.4528923 276.660213,11.5365068 243.786277,11.5365068 C194.475371,11.5365068 152.143238,43.0100339 60.5764341,43.0644311 C31.2832922,43.0281109 16.6367212,53.5200104 16.6367212,74.5401297 C23.428132,74.5401297 49.7015982,74.5401297 95.4571198,74.5401297 C164.090402,74.5401297 186.711499,46.0597499 234.071958,46.0597499 C265.645598,46.0597499 295.421445,55.5532098 323.3995,74.5401297 Z" id="h1"></path>
        </g>
    </g>
</svg>