<?xml version="1.0" encoding="UTF-8"?>
<svg width="336px" height="191px" viewBox="0 0 336 191" version="1.1" xmlns="http://www.w3.org/2000/svg" xmlns:xlink="http://www.w3.org/1999/xlink">
    <!-- Generator: Sketch 58 (84663) - https://sketch.com -->
    <title>Group 11</title>
    <desc>Created with Sketch.</desc>
    <g id="Page-1" stroke="none" stroke-width="1" fill="none" fill-rule="evenodd">
        <g id="Group-11" transform="translate(0.000000, 1.000000)" fill="#FFFFFF">
            <path d="M0.994663515,91.7746329 L335.097203,91.7746329 L335.097203,167.635961 C335.792979,181.757706 328.924071,188.818578 314.490477,188.818578 C300.056883,188.818578 271.050861,188.818578 227.472411,188.818578 C222.288817,188.818578 218.216063,187.39003 215.254149,184.532934 C210.811278,180.247289 207.183848,179.033422 200.540074,179.033422 C193.8963,179.033422 190.831297,181.263377 187.951414,184.532934 C186.031493,186.712638 181.103433,188.141186 173.167235,188.818578 C119.899331,188.818578 93.2653793,188.818578 93.2653793,188.818578 C85.6706527,188.818578 84.0402816,185.834936 80.8252299,183.581762 C77.6101782,181.328588 74.5617317,179.033422 68.0000346,179.033422 C61.2221321,179.033422 58.2088111,180.237768 54.1460307,183.581762 C51.4375105,185.811091 46.9276514,187.556697 40.6164535,188.818578 L0.994663515,188.818578" id="Path-20" stroke="#000000" transform="translate(168.069931, 140.296606) scale(-1, 1) translate(-168.069931, -140.296606) "></path>
            <path d="M1.13986265,0 L156.400605,0 L198.960352,9.82226562 L318.805878,9.82226562 L335.145199,21 L335.097203,108.635961 C335.792979,122.757706 328.924071,129.818578 314.490477,129.818578 C300.056883,129.818578 271.050861,129.818578 227.472411,129.818578 C222.288817,129.818578 218.216063,128.39003 215.254149,125.532934 C210.811278,121.247289 207.183848,120.033422 200.540074,120.033422 C193.8963,120.033422 190.831297,122.263377 187.951414,125.532934 C186.031493,127.712638 181.103433,129.141186 173.167235,129.818578 L162.56955,129.818578 C158.691295,129.818578 155.698456,128.39003 153.591035,125.532934 C150.429902,121.247289 145.198807,120.033422 140.782441,120.033422 C136.992655,120.033422 131.270722,123.032715 128.770722,125.532934 C126.270722,128.033153 124.634816,129.818578 121.462128,129.818578 C102.664296,129.818578 93.2653793,129.818578 93.2653793,129.818578 C85.6706527,129.818578 84.0402816,126.834936 80.8252299,124.581762 C77.6101782,122.328588 74.5617317,120.033422 68.0000346,120.033422 C61.2221321,120.033422 58.2088111,121.237768 54.1460307,124.581762 C51.4375105,126.811091 46.9276514,128.556697 40.6164535,129.818578 L0.994663515,129.818578" id="Path-20" stroke="#000000" transform="translate(168.069931, 64.909289) scale(-1, 1) translate(-168.069931, -64.909289) "></path>
            <rect id="h7" stroke="#000000" x="202.129854" y="80.0185294" width="56" height="27" rx="13.5"></rect>
            <path d="M335.125338,108.018529 L296.629854,108.018529 C289.17401,108.018529 283.129854,101.974374 283.129854,94.5185294 C283.129854,87.0626853 289.17401,81.0185294 296.629854,81.0185294 L335.144015,81.0185294" id="h8" stroke="#000000"></path>
            <path d="M335.125338,174.018529 L296.629854,174.018529 C289.17401,174.018529 283.129854,167.974374 283.129854,160.518529 C283.129854,153.062685 289.17401,147.018529 296.629854,147.018529 L335.144015,147.018529" id="h11" stroke="#000000"></path>
            <circle id="h6" stroke="#000000" cx="164.5" cy="93.5" r="13.5"></circle>
            <rect id="h5" stroke="#000000" x="20.1298545" y="80.0185294" width="107" height="27" rx="13.5"></rect>
            <rect id="h9" stroke="#000000" x="19.1298545" y="147.018529" width="107" height="27" rx="13.5"></rect>
            <rect id="h10" stroke="#000000" x="151.129854" y="147.018529" width="107" height="27" rx="13.5"></rect>
            <path d="M334.995483,28 L296.5,28 C289.044156,28 283,15.9116882 283,1 C283,1 300.333333,1 335,1" id="h4"></path>
            <path d="M250.191052,52.4989982 L22.5413128,53.4404044 C8.18460445,53.8199617 1.00625027,47.1353914 1.00625027,33.3866935 C1.00625027,12.7636466 0.129854487,6.83819089 19.1324587,6.83819089 C31.8008614,6.83819089 64.9896635,6.83819089 118.698865,6.83819089 C125.524386,6.38246173 130.340792,5.34079506 133.148084,3.71319089 C137.359021,1.27178464 145.675427,0.00420651676 152.816703,0.00420651676 C157.577554,0.00420651676 190.03567,0.00420651676 250.191052,0.00420651676 C265.636365,-0.214543483 273.359021,8.09839054 273.359021,24.9430086 C273.359021,41.7876267 265.636365,50.9729565 250.191052,52.4989982 Z" id="h1" stroke="#000000"></path>
            <rect id="h2" stroke="#000000" x="19" y="15" width="107" height="27" rx="13.5"></rect>
            <rect id="h3" stroke="#000000" x="151.129854" y="14.0185294" width="107" height="27" rx="13.5"></rect>
        </g>
    </g>
</svg>