<?xml version="1.0" encoding="UTF-8"?>
<svg width="327px" height="185px" viewBox="0 0 327 185" version="1.1" xmlns="http://www.w3.org/2000/svg" xmlns:xlink="http://www.w3.org/1999/xlink">
    <title>TENSIONGRINDMK2</title>
    <g id="Page-1" stroke="none" stroke-width="1" fill="none" fill-rule="evenodd">
        <g id="TENSIONGRINDMK2" transform="translate(0.966732, 0.690430)" fill="#FFFFFF" stroke="#000000">
            <path d="M320.41608,139.850586 L285.248112,140.129883 C271.493554,142.188151 264.616276,146.665527 264.616276,153.562012 C264.616276,160.458496 264.616276,164.414225 264.616276,165.429199 C264.149804,177.333171 256.921289,183.285156 242.930729,183.285156 C228.940169,183.285156 155.014876,183.285156 21.15485,183.285156 C7.05947238,183.782552 0.0117835744,177.830566 0.0117835744,165.429199 C0.0117835744,153.027832 0.0117835744,133.704915 0.0117835744,107.460449 L242.930729,110.720703 L320.41608,139.850586 Z" id="Path-21"></path>
            <path d="M326.033268,31.4072266 C303.231185,31.4072266 286.002669,31.4072266 274.347721,31.4072266 C256.865299,31.4072266 245.642643,56.5566406 233.482487,56.5566406 C225.375716,56.5566406 155.352604,56.5566406 23.4131508,56.5566406 L0.0117835744,35.8115234 L0.0117835744,107.460449 C1.71165337,115.161947 10.4763018,119.012695 26.3057289,119.012695 C50.0498695,119.012695 228.160221,119.012695 242.486393,119.012695 C256.812565,119.012695 273.923893,139.850586 288.633854,139.850586 C298.440495,139.850586 310.906966,139.850586 326.033268,139.850586" id="Path-22"></path>
            <path d="M326.033268,35.4326172 C302.230534,35.4326172 285.399804,35.4326172 275.54108,35.4326172 C260.752995,35.4326172 254.038151,57.6230469 238.738346,57.6230469 C228.538476,57.6230469 155.480859,57.6230469 19.5654945,57.6230469 C6.52968722,53.6054687 0.0117835744,46.2086589 0.0117835744,35.4326172 C0.0117835744,24.6565755 0.0117835744,17.2910156 0.0117835744,13.3359375 C-0.296810176,4.4453125 5.45579399,8.49098569e-13 17.2695961,8.49098569e-13 C29.0833982,8.49098569e-13 132.004622,8.49098569e-13 326.033268,8.49098569e-13" id="h1"></path>
            <path d="M326.033268,104.30957 L282.033268,104.30957 C275.958136,104.30957 271.033268,99.3847026 271.033268,93.3095703 L271.033268,80.3095703 C271.033268,74.2344381 275.958136,69.3095703 282.033268,69.3095703 L282.033268,69.3095703 L326.033268,69.3095703 L326.033268,69.3095703" id="h6"></path>
            <rect id="h7" x="20.0332679" y="134.30957" width="226" height="35" rx="11"></rect>
            <path d="M235.033268,134.30957 C241.1084,134.30957 246.033268,139.234438 246.033268,145.30957 L246.033268,158.30957 C246.033268,164.384703 241.1084,169.30957 235.033268,169.30957 L131.033268,169.30957 C137.1084,169.30957 142.033268,164.384703 142.033268,158.30957 L142.033268,158.30957 L142.033268,145.30957 C142.033268,139.234438 137.1084,134.30957 131.033268,134.30957 L131.033268,134.30957 L235.033268,134.30957 Z" id="h8"></path>
            <rect id="h4" x="20.0332679" y="69.3095703" width="226" height="35" rx="11"></rect>
            <path d="M235.033268,69.3095703 C241.1084,69.3095703 246.033268,74.2344381 246.033268,80.3095703 L246.033268,93.3095703 C246.033268,99.3847026 241.1084,104.30957 235.033268,104.30957 L131.033268,104.30957 C137.1084,104.30957 142.033268,99.3847026 142.033268,93.3095703 L142.033268,93.3095703 L142.033268,80.3095703 C142.033268,74.2344381 137.1084,69.3095703 131.033268,69.3095703 L131.033268,69.3095703 L235.033268,69.3095703 Z" id="h5"></path>
            <rect id="h2" x="20.0332679" y="15.3095703" width="226" height="31" rx="11"></rect>
            <path d="M235.033268,15.3095703 C241.1084,15.3095703 246.033268,20.2344381 246.033268,26.3095703 L246.033268,35.3095703 C246.033268,41.3847026 241.1084,46.3095703 235.033268,46.3095703 L131.033268,46.3095703 C137.1084,46.3095703 142.033268,41.3847026 142.033268,35.3095703 L142.033268,35.3095703 L142.033268,26.3095703 C142.033268,20.2344381 137.1084,15.3095703 131.033268,15.3095703 L131.033268,15.3095703 L235.033268,15.3095703 Z" id="h3"></path>
        </g>
    </g>
</svg>