<?xml version="1.0" encoding="UTF-8"?>
<svg width="666px" height="369px" viewBox="0 0 666 369" version="1.1" xmlns="http://www.w3.org/2000/svg" xmlns:xlink="http://www.w3.org/1999/xlink">
    <title>TENSIONSIMPLEJ1086</title>
    <g id="Page-1" stroke="none" stroke-width="1" fill="none" fill-rule="evenodd">
        <g id="TENSIONSIMPLEJ1086" transform="translate(1.667917, 0.860342)" fill="#FFFFFF" stroke="#000000">
            <path d="M663.332083,0.280062937 L31.7763318,0.280062937 C24.808998,-1.11717256 20.7613282,2.71370348 19.6333222,11.772691 C18.5053163,20.8316786 17.071529,35.2606646 15.3319602,55.0596489 C15.7822933,57.9911887 19.9920284,59.4569586 27.9611653,59.4569586 C35.9303023,59.4569586 247.720608,59.4569586 663.332083,59.4569586" id="h1"></path>
            <path d="M663.332083,91.8276107 L33.1247299,91.8276107 L15.3256557,55.0596489 C16.1229639,57.9911887 19.7242746,59.4569586 26.1295877,59.4569586 C35.7375575,59.4569586 663.332083,59.4569586 663.332083,59.4569586" id="board"></path>
            <polyline id="board" points="663.332083 91.8276107 33.1247299 91.8276107 29.8038021 127.583422 663.332083 130.453857"></polyline>
            <path d="M663.332083,164.838393 L7.7126996,159.473141 L9.69423719,135.733211 C9.81081697,130.300018 16.5140053,127.583422 29.8038021,127.583422 C43.0935989,127.583422 254.269693,128.540233 663.332083,130.453857" id="h2"></path>
            <polyline id="board" points="663.332083 164.838393 7.7126996 159.473141 27.7140236 187.107187 663.332083 187.107187"></polyline>
            <polyline id="board" points="663.332083 187.107187 27.7140236 187.107187 23.6382282 220.749139 663.332083 220.749139"></polyline>
            <path d="M663.332083,306.229877 L16.6269622,306.229877 C8.97022451,306.229877 4.85779913,307.232267 4.28968603,309.237046 C3.72157293,311.241825 2.42035117,315.289291 0.386020735,321.379444 L663.332083,323.993682" id="h4"></path>
            <path d="M663.332083,366.737565 L28.7772534,360.684565 C19.7705659,359.2834 13.7894412,355.347425 10.8338791,348.876641 C7.87831703,342.405856 4.26702399,333.240124 0,321.379444 L663.332083,323.993682" id="board"></path>
            <path d="M663.332083,220.749139 L23.6382282,220.749139 C13.6590331,220.691653 8.35052356,223.311754 7.7126996,228.609443 C7.07487563,233.907131 6.42867272,239.784063 5.77409086,246.240239 L663.332083,247.583458" id="h3"></path>
            <polyline id="board" points="663.332083 247.583458 5.77409086 246.240239 17.1650396 266.297542 663.332083 266.297542"></polyline>
            <polyline id="board" points="663.332083 266.297542 17.1650396 266.297542 12.929839 306.229877 663.332083 306.229877"></polyline>
        </g>
    </g>
</svg>