<?xml version="1.0" encoding="UTF-8"?>
<svg width="576px" height="293px" viewBox="0 0 576 293" version="1.1" xmlns="http://www.w3.org/2000/svg" xmlns:xlink="http://www.w3.org/1999/xlink">
    <title>TOPOUTPROJECT</title>
    <g id="Page-1" stroke="none" stroke-width="1" fill="none" fill-rule="evenodd">
        <g id="TOPOUTPROJECT" transform="translate(0.994987, 0.917599)" fill="#FFFFFF" stroke="#000000">
            <path d="M574.005013,18.0564593 L85.2919624,18.0564593 C69.6260776,17.1698447 54.4126197,26.7255146 39.6515888,46.7234691 C17.5100425,76.7204008 0,117.600099 0,167.150077 C0,216.700055 3.74383208,220.258761 22.6392606,253.884117 C35.236213,276.30102 50.8959375,288.779505 69.6184342,291.31957 L574.005013,291.31957" id="hangboard"></path>
            <polyline id="phone" points="574.005013 18.0564593 531.918338 18 531.918338 9.02599425 574.005013 9.02599425"></polyline>
            <rect id="h9" x="57.0050134" y="214.082401" width="158" height="41" rx="20.5"></rect>
            <rect id="h10" x="57.0050134" y="214.082401" width="312" height="41" rx="20.5"></rect>
            <rect id="h11" x="57.0050134" y="214.082401" width="467" height="41" rx="20.5"></rect>
            <rect id="h8" x="441.005013" y="134.082401" width="83" height="41" rx="20.5"></rect>
            <rect id="h7" x="240.005013" y="134.082401" width="158" height="41" rx="20.5"></rect>
            <rect id="h6" x="39.0050134" y="134.082401" width="158" height="41" rx="20.5"></rect>
            <rect id="h5" x="408.005013" y="53.082401" width="116" height="41" rx="20.5"></rect>
            <rect id="h4" x="215.005013" y="55.082401" width="158" height="41" rx="20.5"></rect>
            <rect id="h3" x="64.0050134" y="55.082401" width="116" height="41" rx="20.5"></rect>
            <path d="M393.114458,18 L393.114458,7.26962082 C403.445664,2.45786594 411.539443,0.0519885074 417.395796,0.0519885074 C423.252148,0.0519885074 461.426328,0.0519885074 531.918338,0.0519885074 L531.918338,6.29021162 L531.918338,18 L393.114458,18 Z" id="h2"></path>
            <path d="M77.959435,18 C106.244078,10.8464139 124.225023,7.26962082 131.902272,7.26962082 C139.579521,7.26962082 226.65025,7.26962082 393.114458,7.26962082 L393.114458,18 L77.959435,18 Z" id="h1"></path>
        </g>
    </g>
</svg>