<?xml version="1.0" encoding="UTF-8"?>
<svg width="576px" height="275px" viewBox="0 0 576 275" version="1.1" xmlns="http://www.w3.org/2000/svg" xmlns:xlink="http://www.w3.org/1999/xlink">
    <title>TOPOUTPROJECT</title>
    <g id="Page-1" stroke="none" stroke-width="1" fill="none" fill-rule="evenodd">
        <g id="TOPOUTPROJECT" transform="translate(0.994987, 0.917599)" fill="#FFFFFF" stroke="#000000">
            <path d="M574.005013,0.0564593031 L85.2919624,0.0564593031 C69.6260776,-0.830155313 54.4126197,8.72551462 39.6515888,28.7234691 C17.5100425,58.7204008 0,99.6000991 0,149.150077 C0,198.700055 3.74383208,202.258761 22.6392606,235.884117 C35.236213,258.30102 50.8959375,270.779505 69.6184342,273.31957 L574.005013,273.31957" id="hangboard"></path>
            <rect id="h7" x="57.0050134" y="196.082401" width="158" height="41" rx="20.5"></rect>
            <rect id="h8" x="57.0050134" y="196.082401" width="312" height="41" rx="20.5"></rect>
            <rect id="h9" x="57.0050134" y="196.082401" width="467" height="41" rx="20.5"></rect>
            <rect id="h6" x="441.005013" y="116.082401" width="83" height="41" rx="20.5"></rect>
            <rect id="h5" x="240.005013" y="116.082401" width="158" height="41" rx="20.5"></rect>
            <rect id="h4" x="39.0050134" y="116.082401" width="158" height="41" rx="20.5"></rect>
            <rect id="h3" x="408.005013" y="35.082401" width="116" height="41" rx="20.5"></rect>
            <rect id="h2" x="215.005013" y="37.082401" width="158" height="41" rx="20.5"></rect>
            <rect id="h1" x="64.0050134" y="37.082401" width="116" height="41" rx="20.5"></rect>
        </g>
    </g>
</svg>