<?xml version="1.0" encoding="UTF-8"?>
<svg width="202px" height="137px" viewBox="0 0 222 137" version="1.1" xmlns="http://www.w3.org/2000/svg" xmlns:xlink="http://www.w3.org/1999/xlink">
    <title>TRANGOROCK</title>
    <desc></desc>
    <g id="Page-1" stroke="none" stroke-width="1" fill="none" fill-rule="evenodd">
        <g id="TRANGO" transform="translate(-223.000000, -461.000000)" fill="#FFFFFF">
            <g id="TRANGOROCK" transform="translate(337.189453, 529.629883) scale(-1, 1) translate(-337.189453, -529.629883) translate(223.689453, 461.629883)">
                <g id="hangboard" transform="translate(27.000000, 0.000000)" stroke="#000000">
                    <path d="M1.42108547e-14,7.10542736e-14 L1.42108547e-14,72.2275391 C1.45572917,81.1191406 5.48193359,85.5649414 12.0786133,85.5649414 C18.675293,85.5649414 24.1276042,85.5649414 28.4355469,85.5649414 L29.1826172,122.319336 C30.9348958,131.137695 37.1310221,135.546875 47.7709961,135.546875 C58.4109701,135.546875 73.5450846,135.546875 93.1733398,135.546875 C99.9864909,135.822917 103.393066,132.820475 103.393066,126.539551 C103.393066,120.258626 103.393066,115.716634 103.393066,112.913574 L112.197754,112.913574 C119.067546,111.536621 122.502441,107.940267 122.502441,102.124512 C122.502441,96.3087565 122.502441,90.7888997 122.502441,85.5649414 C123.26416,85.2120768 123.64502,84.3665365 123.64502,83.0283203 C123.64502,81.6901042 123.64502,74.8613281 123.64502,62.5419922 L170.037109,81.2333984 C173.805339,81.6715495 176.033203,80.2801107 176.720703,77.059082 C177.751953,72.2275391 174.610352,74.7089844 176.720703,69.3491211 C181.880493,71.6361084 185.737305,69.3491211 187.054199,66.2543945 C187.932129,64.1912435 191.787272,52.3374023 198.619629,30.6928711 C199.891764,27.8722331 199.080729,25.9651693 196.186523,24.9716797 C193.292318,23.9781901 179.6014,18.9274089 155.11377,9.81933594 C153.36735,9.22167969 151.412923,9.55501302 149.250488,10.8193359 C147.006836,9.81933594 132.807129,3.43896484 122.502441,3.43896484 C115.63265,3.43896484 96.0371094,3.43896484 63.7158203,3.43896484 C62.8632813,1.14632161 61.9038086,7.10542736e-14 60.8374023,7.10542736e-14 C59.7709961,7.10542736e-14 39.491862,7.10542736e-14 1.42108547e-14,7.10542736e-14 Z" id="Path-12"></path>
                    <path d="M28.4355469,85.5649414 L29.1826172,122.319336 C30.9348958,131.137695 37.1310221,135.546875 47.7709961,135.546875 C58.4109701,135.546875 73.5450846,135.546875 93.1733398,135.546875 C99.9864909,135.822917 103.393066,132.820475 103.393066,126.539551 C103.393066,120.258626 103.393066,115.716634 103.393066,112.913574 L112.197754,112.913574 C119.067546,111.536621 122.502441,107.940267 122.502441,102.124512 C122.502441,96.3087565 122.502441,90.7888997 122.502441,85.5649414 L28.4355469,85.5649414 Z" id="Path"></path>
                    <path d="M29.1826172,122.319336 C30.9348958,131.137695 37.1310221,135.546875 47.7709961,135.546875 C58.4109701,135.546875 73.5450846,135.546875 93.1733398,135.546875 C99.9864909,135.822917 103.393066,132.820475 103.393066,126.539551 C103.393066,120.258626 103.393066,115.716634 103.393066,112.913574 L29.1826172,112.913574 L29.1826172,122.319336 Z" id="Path"></path>
                </g>
                <g id="holds" transform="translate(27.000000, 0.000000)" stroke="#000000">
                    <path d="M89.8105469,116.370117 C93.9526825,116.370117 97.3105469,119.280266 97.3105469,122.870117 C97.3105469,126.459968 93.9526825,129.370117 89.8105469,129.370117 C87.4541249,129.370117 85.3515217,128.428287 83.9765712,126.955282 C82.8776041,128.428378 81.1955932,129.370117 79.3105469,129.370117 C75.9968384,129.370117 73.3105469,126.459968 73.3105469,122.870117 C73.3105469,119.280266 75.9968384,116.370117 79.3105469,116.370117 C81.1955932,116.370117 82.8776041,117.311856 83.9775676,118.784739 C85.3515217,117.311948 87.4541249,116.370117 89.8105469,116.370117 Z" id="h12"></path>
                    <rect id="h11" transform="translate(50.310547, 123.870117) rotate(5.000000) translate(-50.310547, -123.870117) " x="36.3105469" y="117.370117" width="28" height="13" rx="6.5"></rect>
                    <path d="M104.310547,92.3701172 C107.624255,92.3701172 110.310547,95.2802663 110.310547,98.8701172 C110.310547,102.459968 107.624255,105.370117 104.310547,105.370117 C102.22295,105.370117 100.384366,104.215123 99.3095798,102.462819 C98.236728,104.215123 96.3981436,105.370117 94.3105469,105.370117 C92.5182514,105.370117 90.9095027,104.518772 89.8100744,103.169002 C88.7115911,104.518772 87.1028424,105.370117 85.3105469,105.370117 C81.9968384,105.370117 79.3105469,102.459968 79.3105469,98.8701172 C79.3105469,95.2802663 81.9968384,92.3701172 85.3105469,92.3701172 C87.1028424,92.3701172 88.7115911,93.2214627 89.8110193,94.5712325 C90.9095027,93.2214627 92.5182514,92.3701172 94.3105469,92.3701172 C96.3981436,92.3701172 98.236728,93.5251116 99.311514,95.2774154 C100.384366,93.5251116 102.22295,92.3701172 104.310547,92.3701172 Z" id="h10"></path>
                    <rect id="h9" transform="translate(50.342892, 99.129293) rotate(5.000000) translate(-50.342892, -99.129293) " x="36.3428919" y="92.6292934" width="28" height="13" rx="6.5"></rect>
                    <rect id="h8" x="58.3105469" y="70.3701172" width="46" height="11"></rect>
                    <rect id="h7" transform="translate(29.930414, 70.124711) rotate(5.000000) translate(-29.930414, -70.124711) " x="7.43041389" y="63.6247113" width="45" height="13" rx="6.5"></rect>
                    <rect id="h6" transform="translate(62.310547, 54.870117) rotate(5.000000) translate(-62.310547, -54.870117) " x="8.31054688" y="48.3701172" width="108" height="13" rx="6.5"></rect>
                    <rect id="h5" transform="translate(63.310547, 34.870117) rotate(5.000000) translate(-63.310547, -34.870117) " x="9.31054688" y="28.3701172" width="108" height="13" rx="6.5"></rect>
                    <path d="M140.342041,33.473999 C138.512923,31.3949788 137.201644,31.1652018 136.408203,32.784668 C135.614763,34.4041341 131.360368,44.3232422 123.64502,62.5419922 L170.037109,81.2333984 C173.71639,81.6775716 175.944255,80.2861328 176.720703,77.059082 C177.885376,72.2185059 175.390137,73.3503418 176.05542,71.3497314 C176.498942,70.0159912 176.720703,69.3491211 176.720703,69.3491211 L137.456543,51.7419434 C135.339355,50.2477214 134.810059,48.225708 135.868652,45.6759033 C136.927246,43.1260986 138.418376,39.0587972 140.342041,33.473999 Z" id="h4"></path>
                    <path d="M149.185059,10.9277344 L140.520266,33.5414772 L135.949219,45.4711914 C134.686849,48.4552409 135.059082,50.4731445 137.065918,51.5249023 C139.072754,52.5766602 152.291016,58.5180664 176.720703,69.3491211 C182.000977,71.8732096 186.127604,69.5335286 189.100586,62.3300781 C192.073568,55.1266276 195.440797,43.9474284 199.202273,28.7924805 C199.889364,27.1814779 198.884115,25.9078776 196.186523,24.9716797 C192.140137,23.5673828 157.946112,10.6656342 155.11377,9.81933594 C153.225541,9.25513708 151.249304,9.62460323 149.185059,10.9277344 Z" id="h3"></path>
                    <path d="M147.885864,10.5112305 L63.7158203,9.56363367 L63.7158203,3.43896484 C97.8450521,3.43896484 117.821452,3.43896484 123.64502,3.43896484 C129.468587,3.43896484 137.548869,5.79638672 147.885864,10.5112305 Z" id="h2"></path>
                    <path d="M63.7158203,3.43896484 C63.7158203,4.8063151 63.7158203,10.2781576 63.7158203,19.8544922 C63.1386719,21.1884766 61.8390299,21.8554687 59.8168945,21.8554687 C57.7947591,21.8554687 37.8557943,21.6080729 0,21.1132812 L0,5.32907052e-14 L60.8374023,5.32907052e-14 C62.7563477,0.925292969 63.7158203,2.07161458 63.7158203,3.43896484 Z" id="h1"></path>
                </g>
            </g>
        </g>
    </g>
</svg>
