<?xml version="1.0" encoding="UTF-8"?>
<svg width="323px" height="149px" viewBox="0 0 343 149" version="1.1" xmlns="http://www.w3.org/2000/svg" xmlns:xlink="http://www.w3.org/1999/xlink">
    <!-- Generator: Sketch 58 (84663) - https://sketch.com -->
    <title>TRANGOROCKFORGE</title>
    <desc>Created with Sketch.</desc>
    <g id="Page-1" stroke="none" stroke-width="1" fill="none" fill-rule="evenodd">
        <g id="TRANGO" transform="translate(-13.000000, -556.000000)" fill="#FFFFFF">
            <g id="TRANGOROCKFORGE" transform="translate(14.165527, 556.739258)">
                <path d="M320.586914,50.7041016 L320.586914,13.3974609 C319.930664,9.19205729 317.409668,7.08935547 313.023926,7.08935547 C308.638184,7.08935547 274.829753,7.08935547 211.598633,7.08935547 L202.382812,8.52651283e-14 L85.230957,8.52651283e-14 L15.315918,25.269043 L0,41.5229492 L120.604004,105.060547 L131.094238,105.060547 C139.422363,119.648437 148.724772,126.942383 159.001465,126.942383 C169.278158,126.942383 179.949707,126.942383 191.016113,126.942383 C198.041504,125.722982 203.680501,121.771159 207.933105,115.086914 C212.18571,108.402669 216.542155,105.060547 221.002441,105.060547 L239.22998,105.060547 C242.700684,105.627604 245.391439,107.44043 247.302246,110.499023 C249.213053,113.557617 254.796387,114.641602 264.052246,113.750977 L288.958496,113.750977 C296.300293,111.816732 300.728678,108.919922 302.243652,105.060547 C303.758626,101.201172 304.20638,92.9427083 303.586914,80.2851562 C303.123372,74.6204427 305.84082,69.4215495 311.739258,64.6884766 C317.637695,59.9554036 320.586914,55.2939453 320.586914,50.7041016 Z" id="Path-31" stroke="#000000"></path>
                <path d="M38.4711914,139.386719 C40.773763,146.681803 44.8037109,149.130534 50.5610352,146.73291 C56.3183594,144.335286 78.6805013,136.138753 117.647461,122.143311 C123.029785,120.51766 124.194987,115.400798 121.143066,106.792725 C118.091146,98.1846517 112.241699,82.999349 103.594727,61.2368164 L30.1733398,85.8120117 L38.4711914,139.386719 Z" id="Path-32" stroke="#000000"></path>
                <path d="M131.583496,105.159169 C136.789551,99.6591762 142.984863,96.9091797 150.169434,96.9091797 C157.354004,96.9091797 173.033854,96.9091797 197.208984,96.9091797 C207.287679,99.3398297 214.11381,102.089826 217.687378,105.159169 C218.077026,105.159169 218.734375,105.159169 218.734375,105.159169 C218.734375,100.593665 218.734375,95.6564941 218.734375,90.3476562 C208.321126,81.5685479 203.114502,75.1739759 203.114502,71.1639404 C203.114502,65.1488872 202.382812,65.1035991 206.651855,65.2285156 C209.497884,65.3117933 221.317708,65.3117933 242.111328,65.2285156 C244.006185,78.5537109 248.975911,85.2163086 257.020508,85.2163086 C265.065104,85.2163086 276.762695,84.210612 292.113281,82.1992187 L309.429199,66.777832 C310.251628,45.8844401 308.203044,32.3597005 303.283447,26.2036133 C295.904053,16.9694824 287.849121,12.3613281 283.769531,12.3613281 C279.689941,12.3613281 251.056641,7.98242187 221.725586,27.4018555 C221.725586,27.4018555 178.169759,27.4018555 91.0581055,27.4018555 L120.106934,105.159169 L131.583496,105.159169 Z" id="Path-33" stroke="#000000"></path>
                <polygon id="h1" stroke="#000000" points="85.230957 3.16191517e-13 85.230957 10.8520508 1.04077148 40.5872803 15.315918 25.269043"></polygon>
                <rect id="h10" stroke="#000000" transform="translate(272.834473, 95.760742) rotate(-5.000000) translate(-272.834473, -95.760742) " x="252.834473" y="88.2607422" width="40" height="15" rx="7.5"></rect>
                <path d="M188.784473,101.260742 C193.230365,101.260742 196.834473,104.394749 196.834473,108.260742 C196.834473,112.126735 193.230365,115.260742 188.784473,115.260742 C185.395621,115.260742 182.495859,113.439838 181.308549,110.861823 C180.123086,113.439838 177.223324,115.260742 173.834473,115.260742 C170.445621,115.260742 167.545859,113.439838 166.358549,110.861823 C165.173086,113.439838 162.273324,115.260742 158.884473,115.260742 C154.43858,115.260742 150.834473,112.126735 150.834473,108.260742 C150.834473,104.394749 154.43858,101.260742 158.884473,101.260742 C162.273324,101.260742 170.445621,101.260742 173.834473,101.260742 C177.223324,101.260742 185.395621,101.260742 188.784473,101.260742 Z" id="h9" stroke="#000000"></path>
                <rect id="h8" stroke="#000000" transform="translate(277.081817, 66.425865) rotate(-5.000000) translate(-277.081817, -66.425865) " x="257.081817" y="57.9258655" width="40" height="17" rx="8.5"></rect>
                <path d="M203.114502,71.1639404 L128.037598,71.1639404 C125.472005,71.124471 124.189209,71.8045247 124.189209,73.2041016 C124.189209,74.6036784 124.189209,78.6638997 124.189209,85.3847656 C124.189209,87.0867513 125.310791,87.9377441 127.553955,87.9377441 C129.797607,87.9377441 155.17863,87.9377441 203.697021,87.9377441 C206.085368,87.9729004 207.279541,86.8103027 207.279541,84.4499512 C207.279541,80.9094238 207.279541,80.9094238 207.279541,79.5504173 C205.170329,77.5194099 203.781982,74.7239176 203.114502,71.1639404 Z" id="h7" stroke="#000000"></path>
                <rect id="h6" stroke="#000000" transform="translate(207.939107, 42.757088) rotate(-5.000000) translate(-207.939107, -42.757088) " x="122.939107" y="34.2570883" width="170" height="17" rx="8.5"></rect>
                <path d="M2.84217094e-14,41.5229492 C4.76790365,74.6417643 7.52237956,93.8445638 8.26342773,99.1313477 C9.375,107.061523 24.3583984,126.934082 30.4973145,123.685303 C34.5899251,121.51945 58.9886068,112.942871 103.693359,97.9555664 C108.752279,96.2420247 110.342285,93.1041667 108.463379,88.5419922 C106.584473,83.9798177 103.177572,75.6228841 98.2426758,63.4711914 L103.693359,61.2368164 L85.230957,10.8520508 L2.84217094e-14,41.5229492 Z" id="h5" stroke="#000000"></path>
                <path d="M227.343262,26.8811952 L293.412035,22.3087622 C282.525223,15.8167879 272.469096,13.6650391 263.243652,15.8535156 C254.018209,18.0419922 242.051412,21.7178854 227.343262,26.8811952 Z" id="h4"></path>
                <path d="M202.382782,1.83053572e-12 C203.761302,1.83053572e-12 207.958415,1.18359375 214.974121,3.55078125 C277.919759,3.55078125 310.725016,3.55078125 313.389893,3.55078125 C317.387207,3.55078125 320.586914,6.64593925 320.586914,12.5708008 C320.586914,12.5708008 318.906135,7.21728516 314.524902,7.21728516 C310.14367,7.21728516 212.876709,7.21728516 211.675049,7.21728516 C210.473389,7.21728516 205.123779,2.37121582 202.382782,1.83053572e-12 Z" id="h3" stroke="#000000"></path>
                <path d="M202.382812,1.43174361e-12 L85.230957,1.43174361e-12 L85.230957,10.8520508 L89.3637695,22.1904297 L192.604004,22.1904297 C199.12321,22.7988281 202.382812,21.0611979 202.382812,16.9775391 C202.382812,12.8938802 202.382812,7.23470052 202.382812,1.43174361e-12 Z" id="h2" stroke="#000000"></path>
            </g>
        </g>
    </g>
</svg>
