<?xml version="1.0" encoding="UTF-8"?>
<svg width="425px" height="355px" viewBox="0 0 425 355" version="1.1" xmlns="http://www.w3.org/2000/svg" xmlns:xlink="http://www.w3.org/1999/xlink">
    <title>TRANGOROCKNATURAL</title>
    <g id="Page-1" stroke="none" stroke-width="1" fill="none" fill-rule="evenodd">
        <g id="TRANGOROCKNATURAL" transform="translate(0.8988, 0.5167)" fill="#FFFFFF" fill-rule="nonzero" stroke="#000000" stroke-width="0.7829233">
            <rect id="board" x="0.101164876" y="24.4833224" width="316.301013" height="329.610709" rx="54.804631"></rect>
            <path d="M368.365412,0 C383.391194,0 396.994487,6.09040143 406.841333,15.9372483 C416.688181,25.7840952 422.778582,39.3873875 422.778582,54.4131693 L422.879747,75.4660268 L0.101164876,75.4660268 L0,54.4131693 C0,39.3873875 6.09040143,25.7840952 15.9372483,15.9372483 C25.7840952,6.09040143 39.3873875,0 54.4131693,0 L368.365412,0 Z" id="h1"></path>
            <path d="M368.466577,24.4833224 C383.492359,24.4833224 397.095651,30.5737238 406.942498,40.4205707 C416.789346,50.2674175 422.879747,63.8707099 422.879747,78.8964917 L422.879747,215.125146 C422.879747,230.150928 416.789346,243.75422 406.942498,253.601067 C397.095651,263.447914 383.492359,269.538316 368.466577,269.538316 L227.633118,269.538316 C225.827536,269.534063 224.861665,269.553709 224.381529,269.122869 C223.903033,268.693501 223.96828,267.828674 223.967811,266.290363 L223.967861,264.750192 L223.967913,264.289092 L223.968546,261.412274 L223.968705,260.914485 L223.96927,259.389641 L223.969488,258.870896 L223.970234,257.283198 L223.971116,255.648348 L223.971778,254.53225 C223.978479,243.642024 223.99363,229.814776 224.017229,213.049954 C224.017229,212.702497 224.000095,212.355252 223.965891,212.009484 C223.678574,209.104983 222.241175,206.59191 220.14948,204.876791 C218.057786,203.161672 215.311796,202.244508 212.407295,202.531826 L21.3740096,221.429131 C18.6700079,221.696615 16.287759,222.967547 14.5815107,224.850908 C12.8752623,226.734269 11.8450144,229.230059 11.8450144,231.947258 L11.8450144,235.03938 C11.8450144,237.958057 13.028042,240.600423 14.9407389,242.51312 C16.8534357,244.425817 19.4958018,245.608845 22.4144789,245.608845 C24.3602636,245.608845 67.4701281,245.608845 151.744072,245.608845 C155.131377,245.608845 157.148528,244.587913 158.383231,243.097376 C160.114626,241.007233 160.287526,237.928516 160.411819,235.243835 C160.485643,233.649292 160.537927,232.204833 160.977544,231.258994 C161.122613,230.946877 161.311379,230.694018 161.573632,230.527205 C161.816999,230.372405 162.120308,230.294675 162.494633,230.294675 C166.360006,230.294675 169.395907,233.918817 173.240664,238.373482 C174.748515,240.120529 176.374381,242.003963 178.209442,243.876972 L178.786379,244.458332 C180.626224,246.288125 183.799442,250.626466 183.799442,253.054216 L183.799537,267.129187 C183.798779,268.192765 183.774862,268.822036 183.459288,269.167814 C183.094661,269.567342 182.355618,269.533741 181.047009,269.538316 L11.1910134,269.538316 L9.86794052,269.538316 C5.1303034,269.532637 2.64308908,269.506297 1.35441748,268.689508 C0.112852778,267.902577 0.1096797,266.331343 0.101164876,263.491533 L0.101164876,78.8964917 C0.101164876,63.8707099 6.1915663,50.2674175 16.0384132,40.4205707 C25.88526,30.5737238 39.4885524,24.4833224 54.5143342,24.4833224 L368.466577,24.4833224 Z" id="board"></path>
            <rect id="h9" transform="translate(242.7865, 308.9898) rotate(-5) translate(-242.7865, -308.9898)" x="200.508676" y="286.284977" width="84.5557164" height="45.4095514" rx="22.7047757"></rect>
            <path d="M124.58597,289.894321 C130.85572,289.894321 136.531914,292.43564 140.640671,296.544396 C144.749426,300.653152 147.290745,306.329346 147.290745,312.599097 C147.290745,318.868847 144.749426,324.545041 140.640671,328.653798 C136.531914,332.762553 130.85572,335.303872 124.58597,335.303872 C117.20466,335.303872 110.646088,331.781532 106.499189,326.326154 C106.393644,326.187306 106.289723,326.047287 106.186966,325.907127 C106.084911,326.047939 105.981221,326.18762 105.875915,326.326135 C101.728474,331.781521 95.1698962,335.303872 87.7885744,335.303872 C81.0591122,335.303872 75.0134658,332.376196 70.8557559,327.725125 C70.7572946,327.614981 70.6599119,327.503892 70.5633705,327.392767 C70.4673404,327.504489 70.3702228,327.615289 70.272032,327.725151 C66.1150323,332.37621 60.0693952,335.303872 53.3399492,335.303872 C47.0701985,335.303872 41.3940046,332.762553 37.2852484,328.653798 C33.1764922,324.545041 30.6351736,318.868847 30.6351736,312.599097 C30.6351736,306.329346 33.1764922,300.653152 37.2852484,296.544396 C41.3940046,292.43564 47.0701985,289.894321 53.3399492,289.894321 L124.58597,289.894321 Z" id="h8"></path>
            <path d="M87.7885744,289.894321 C94.0583252,289.894321 99.7345191,292.43564 103.843276,296.544396 C107.952031,300.653152 110.49335,306.329346 110.49335,312.599097 C110.49335,318.868847 107.952031,324.545041 103.843276,328.653798 C99.7345191,332.762553 94.0583252,335.303872 87.7885744,335.303872 C81.0591122,335.303872 75.0134658,332.376196 70.8557559,327.725125 C70.7572946,327.614981 70.6599119,327.503892 70.5633705,327.392767 C70.4673404,327.504489 70.3702228,327.615289 70.272032,327.725151 C66.1150323,332.37621 60.0693952,335.303872 53.3399492,335.303872 C47.0701985,335.303872 41.3940046,332.762553 37.2852484,328.653798 C33.1764922,324.545041 30.6351736,318.868847 30.6351736,312.599097 C30.6351736,306.329346 33.1764922,300.653152 37.2852484,296.544396 C41.3940046,292.43564 47.0701985,289.894321 53.3399492,289.894321 L87.7885744,289.894321 Z" id="h7"></path>
            <circle id="h6" cx="53.3399492" cy="312.599097" r="22.7047757"></circle>
            <path d="M227.633118,269.538316 C225.827536,269.534063 224.861665,269.553709 224.381529,269.122869 C223.903033,268.693501 223.96828,267.828674 223.967811,266.290363 L223.967861,264.750192 L223.967913,264.289092 L223.968546,261.412274 L223.968705,260.914485 L223.96927,259.389641 L223.969488,258.870896 L223.970234,257.283198 L223.971116,255.648348 L223.971778,254.53225 C223.978479,243.642024 223.99363,229.814776 224.017229,213.049954 C224.017229,212.702497 224.000095,212.355252 223.965891,212.009484 C223.678574,209.104983 222.241175,206.59191 220.14948,204.876791 C218.057786,203.161672 215.311796,202.244508 212.407295,202.531826 L21.3740096,221.429131 C18.6700079,221.696615 16.287759,222.967547 14.5815107,224.850908 C12.8752623,226.734269 11.8450144,229.230059 11.8450144,231.947258 L11.8450144,235.03938 C11.8450144,237.958057 13.028042,240.600423 14.9407389,242.51312 C16.8534357,244.425817 19.4958018,245.608845 22.4144789,245.608845 C24.3602636,245.608845 67.4701281,245.608845 151.744072,245.608845 C155.131377,245.608845 157.148528,244.587913 158.383231,243.097376 C160.114626,241.007233 160.287526,237.928516 160.411819,235.243835 C160.485643,233.649292 160.537927,232.204833 160.977544,231.258994 C161.122613,230.946877 161.311379,230.694018 161.573632,230.527205 C161.816999,230.372405 162.120308,230.294675 162.494633,230.294675 C166.360006,230.294675 169.395907,233.918817 173.240664,238.373482 C174.748515,240.120529 176.374381,242.003963 178.209442,243.876972 L178.786379,244.458332 C180.626224,246.288125 183.799442,250.626466 183.799442,253.054216 L183.799537,267.129187 C183.798779,268.192765 183.774862,268.822036 183.459288,269.167814" id="h5"></path>
            <rect id="h4" x="243.569456" y="197.031718" width="148.755427" height="45.4095514" rx="22.7047757"></rect>
            <rect id="h3" transform="translate(204.8148, 162.5831) rotate(-5) translate(-204.8148, -162.5831)" x="18.8704701" y="139.87832" width="371.888567" height="45.4095514" rx="22.7047757"></rect>
            <rect id="h2" transform="translate(204.8148, 99.1663) rotate(-5) translate(-204.8148, -99.1663)" x="18.87047" y="76.4615321" width="371.888567" height="45.4095514" rx="22.7047757"></rect>
        </g>
    </g>
</svg>