<?xml version="1.0" encoding="UTF-8"?>
<svg width="305px" height="175px" viewBox="0 0 325 175" version="1.1" xmlns="http://www.w3.org/2000/svg" xmlns:xlink="http://www.w3.org/1999/xlink">
    <title>TRANGOPIVOT</title>
    <g id="Page-1" stroke="none" stroke-width="1" fill="none" fill-rule="evenodd">
        <g id="TRANGOPIVOT" transform="translate(152.253503, 87.461814) rotate(180.000000) translate(-152.253503, -87.461814) translate(0.753503, 0.461814)" fill="#FFFFFF" stroke="#000000">
            <path d="M18.4444891,114.646902 C24.1416649,114.004378 28.9739572,117.115549 32.9413659,123.980415 C36.9087747,130.845281 41.7198242,138.445296 47.3745145,146.78046 C50.9619712,150.884976 56.1504882,152.937235 62.9400656,152.937235 C64.9941583,152.937235 73.0899786,152.793656 87.2706594,152.480931 C91.7854451,152.381367 96.5698364,163.611731 102.319575,163.477051 C108.740627,163.327633 118.626601,154.89706 130.243231,154.068492 C135.629646,153.6843 142.499392,159.23044 151.735979,158.764954 C157.075768,158.495851 165.091029,150.005337 174.938416,149.243837 C190.471644,148.042651 226.248601,147.520959 282.269286,147.678761 C283.555397,147.36404 285.489503,146.148941 288.071606,144.033463 C290.653709,141.917985 292.846193,130.999402 294.649059,111.277714 L299.750369,66.294358 L288.071606,18.9649975 L260.012052,3.62546049 L219.468743,3.62546049 L204.006655,9.36621944 C199.761255,11.4619511 197.009994,12.7397492 195.752871,13.1996135 C194.431372,13.6830274 190.838152,16.2605817 187.439762,16.4563548 C185.988895,16.5399357 182.964665,14.697778 181.019457,13.9355049 C176.038241,11.9835044 169.74175,11.7014491 166.15463,13.1996135 C164.459396,13.9076298 161.764443,15.4541868 159.346637,15.436672 C156.648359,15.4171254 154.251677,13.7612961 153.082741,13.1996135 C150.866374,12.1346326 145.64013,10.647645 140.213932,12.6727115 C136.596467,14.0227558 130.651478,15.7644743 122.378967,17.8978669 L18.4444891,114.646902 Z" id="background"></path>
            <path d="M122.600626,52.9162993 C124.874167,53.4688428 126.637326,55.2118718 127.890101,58.1453863 C129.142877,61.0789009 129.557816,69.6574668 129.134918,83.8810842 C100.197715,87.0313809 82.9184726,90.5073912 77.297192,94.3091151 C71.3803269,97.6006009 66.0254476,100.853474 61.232554,104.067734 C50.8283195,109.935469 43.8222692,113.164517 40.214403,113.754878 C36.6065368,114.345239 28.8530199,114.893024 16.9538522,115.398234 L96.5904639,64.1104889 C97.8044114,63.2828151 98.9491141,62.6395415 100.024572,62.180668 C101.10003,61.7217946 108.625381,58.6336717 122.600626,52.9162993 Z" id="background"></path>
            <path d="M278.81443,63.0700914 L282.607447,63.0700914 C283.678185,63.0629954 284.213555,63.5960187 284.213555,64.6691613 C284.213555,65.7423038 284.721944,76.4731418 285.738721,96.8616753 L294.514801,96.8616753" id="path"></path>
            <path d="M129.134918,83.8810842 C129.319445,89.3058713 131.660286,92.0182648 136.157441,92.0182648 C140.654596,92.0182648 145.389208,92.0182648 150.361277,92.0182648" id="path"></path>
            <path d="M174.166644,151.699287 L181.796474,158.046362 C182.583516,158.669284 184.649045,158.980745 187.993062,158.980745 C191.33708,158.980745 218.966447,159.911617 270.881164,161.773361 C274.340473,161.773361 277.059656,160.094348 279.038714,156.736324 C281.017772,153.378299 285.319787,147.909861 291.94476,140.331011 C287.948103,145.269549 282.293475,147.738819 274.980876,147.738819 C267.668277,147.738819 234.965831,147.738819 176.873539,147.738819 L174.166644,151.699287 Z" id="h13"></path>
            <path d="M85.5739074,153.711683 L100.261208,172.798604 C101.423286,174.069371 102.830921,174.069371 104.484115,172.798604 C106.13731,171.527837 112.578251,167.389294 123.80694,160.382975 C129.76422,157.383948 133.699646,157.383948 135.61322,160.382975 C138.483581,164.881515 141.567745,168.489758 146.046365,168.489758 C150.524985,168.489758 159.144846,162.612937 165.629409,157.370385 C169.952452,153.87535 174.171533,150.930711 178.286653,148.536468 C177.374291,146.934895 175.393306,146.428862 172.343698,147.018369 C169.29409,147.607875 162.745598,150.661643 152.698223,156.179673 C151.115215,157.354884 149.44514,157.354884 147.687997,156.179673 C145.930855,155.004463 143.301448,153.160593 139.799776,150.648066 C137.008739,148.544128 132.868386,148.544128 127.378717,150.648066 C121.889048,152.752003 114.37737,156.392625 104.843685,161.569932 C103.414133,162.439173 102.187718,162.439173 101.16444,161.569932 C100.141161,160.70069 95.4807852,156.677666 87.1833111,149.500859 C86.006471,148.739205 85.2281952,148.548791 84.8484834,148.929618 C84.2789158,149.500859 83.2331981,150.497517 83.7700586,151.446698 C84.1279657,152.079486 84.7292486,152.834481 85.5739074,153.711683 Z" id="h12"></path>
            <path d="M274.230134,111.277714 C275.104621,107.801605 276.856276,105.667851 279.485097,104.876453 C283.42833,103.689356 287.952226,104.876453 290.347664,106.632692 C292.743103,108.388932 297.584345,116.290363 297.584345,124.418381 C297.584345,129.83706 295.704484,135.14127 291.94476,140.331011 C286.908728,145.250912 281.652478,147.710862 276.176009,147.710862 C270.69954,147.710862 237.777475,147.710862 177.409815,147.710862 L195.869147,134.277714 L274.966741,134.277714 C279.835104,134.247363 282.269286,132.205602 282.269286,128.152431 C282.269286,124.09926 282.269286,120.265516 282.269286,116.6512 C281.506371,113.068876 279.331379,111.277714 275.744309,111.277714 C275.444759,111.277714 274.940034,111.277714 274.230134,111.277714 Z" id="h11"></path>
            <rect id="h10" x="53.2692857" y="111.277714" width="229" height="23" rx="6"></rect>
            <path d="M145.472898,111.277714 L255.626418,111.277714 L255.626418,96.3593989 C254.966399,93.8107578 253.699325,91.6275827 251.825197,89.8098735 C249.951068,87.9921643 248.119409,86.1356662 246.33022,84.2403792 C243.150478,80.5273829 241.622132,80.5273829 241.745182,84.2403792 C241.929756,89.8098735 241.755163,92.020308 236.300293,92.020308 C232.663713,92.020308 203.984861,92.020308 150.263736,92.020308 C147.069844,91.8011139 145.472898,92.229575 145.472898,93.3056913 L145.472898,111.277714 Z" id="h9"></path>
            <circle id="h8" cx="156.746497" cy="74.0381859" r="12.5"></circle>
            <path d="M280.41774,63.0107687 L188.937054,61.5381859 C185.126216,61.4519305 183.220796,62.235446 183.220796,63.8887323 C183.220796,65.5420186 183.220796,67.2907987 183.220796,69.1350726 C183.04856,70.7387739 182.543037,71.5406246 181.704229,71.5406246 C180.446017,71.5406246 179.726755,70.9879574 177.961402,69.1350726 C176.784501,67.899816 173.879532,64.7434888 169.246497,59.6660911 C168.79565,59.6660911 168.570226,58.3605523 168.570226,55.7494746 C168.570226,53.138397 168.570226,51.4305361 168.570226,50.6258921 C168.650372,49.3014233 169.68269,48.6391889 171.667179,48.6391889 C173.651668,48.6391889 189.839598,48.6391889 220.230969,48.6391889 L223.089622,48.6391889 C241.065483,50.7495969 252.487499,52.0684334 257.355671,52.5956986 C259.904336,52.8717412 263.343065,54.135364 266.273019,51.1424495 C268.667214,50.9784071 273.087889,50.9784071 279.535044,51.1424495 C280.800762,51.2161113 281.43362,51.7005277 281.43362,52.5956986 C281.43362,53.938455 281.43362,60.0656032 281.43362,61.5381859 C281.43362,62.5199078 281.094994,63.0107687 280.41774,63.0107687 Z" id="h7"></path>
            <path d="M204.006655,9.36621944 C215.149841,6.69777094 224.57264,5.36354669 232.275051,5.36354669 C243.828668,5.36354669 255.223516,5.36354669 260.553999,7.36488307 C265.884482,9.36621944 285.142292,18.7919865 285.980451,22.737147 C286.81861,26.6823074 293.20207,44.1159912 294.114305,53.8805738 C294.722462,60.3902956 295.389078,69.0050987 296.114152,79.7249831 C295.257713,87.5931294 294.829493,92.7312097 294.829493,95.139224 C294.829493,97.5472383 294.829493,102.312492 294.829493,109.434985 L301.794222,76.0516456 C302.587442,64.9586139 302.587442,56.5659942 301.794222,50.8737863 C301.001003,45.1815785 297.770148,35.4386979 292.101656,21.6451445 C291.537681,18.1158389 286.932809,14.0228639 278.287042,9.36621944 C265.318392,2.38125272 260.901474,0 253.197896,0 C248.062177,0 242.312616,0 235.949214,0 C224.378627,0.681627669 217.830173,1.27347863 216.303852,1.77555287 C214.01437,2.52866425 206.00524,4.42903992 205.449116,5.89696149 C205.078366,6.87557588 204.597546,8.03199519 204.006655,9.36621944 Z" id="h6"></path>
            <rect id="h5" transform="translate(246.330220, 40.281441) rotate(7.000000) translate(-246.330220, -40.281441) " x="224.33022" y="29.2814406" width="44" height="22" rx="6"></rect>
            <path d="M136.022676,47.5552148 L204.006655,48.6391889 C206.92097,48.6777193 208.378128,47.2234386 208.378128,44.2763471 C208.378128,41.3292555 208.378128,37.7669903 208.378128,33.5895517 C208.065835,27.2367633 205.209857,24.0603691 199.810195,24.0603691 C191.710701,24.0603691 190.891218,29.0448755 187.031775,29.0448755 C183.172332,29.0448755 183.936229,24.0603691 173.730466,24.0603691 C163.524703,24.0603691 164.014523,29.0448755 159.806379,29.0448755 C155.598234,29.0448755 154.969348,24.0603691 147.637801,24.0603691 C145.336711,24.0603691 140.66375,25.5731914 138.813038,29.0448755 C137.42614,31.6465059 136.49602,37.816619 136.022676,47.5552148 Z" id="h3"></path>
            <rect id="h4" x="193.246497" y="29.5381859" width="15" height="19" rx="4"></rect>
            <path d="M5.1131683,99.2463438 L0.407984288,81.7004008 C-0.43675142,80.0785743 0.0302884178,78.7491203 1.8091038,77.7120387 C3.58791918,76.6749571 29.2561282,59.3762886 78.8137308,25.8160332 C86.3413816,19.9859612 93.2367073,17.0709251 99.4997081,17.0709251 C105.762709,17.0709251 111.662349,17.0709251 117.19863,17.0709251 C120.347214,16.903761 122.317742,17.5275728 123.110214,18.9423605 C123.902686,20.3571482 126.711714,25.2836853 131.537297,33.7219718 L124.298922,39.8385361 L94.3053017,40.6956349 C91.6833552,40.851783 89.7405801,41.3425148 88.4769765,42.1678304 C87.2133728,42.9931459 60.0027893,61.2151728 6.84522576,96.8339111 C6.27579094,97.2479287 5.89041177,97.5951405 5.68908824,97.8755466 C5.48776471,98.1559527 5.2957914,98.6128851 5.1131683,99.2463438 Z" id="h2"></path>
            <path d="M122.600626,52.9162993 L98.5862092,62.7756721 L18.9886748,114.35887 C15.7306476,116.218799 13.2057145,115.963653 11.4138756,113.593433 C9.62203676,111.223213 8.48548576,109.753074 8.00422264,109.183015 C7.16712282,107.690192 6.58000878,106.231873 6.24288053,104.808058 C5.90575228,103.384243 5.52918154,101.530338 5.1131683,99.2463438 C5.1131683,98.6915258 5.69052079,97.8873816 6.84522576,96.8339111 C7.99993074,95.7804406 35.2105143,77.5584137 88.4769765,42.1678304 C90.6872198,41.1857619 92.9246528,40.6947277 95.1892753,40.6947277 C97.4538979,40.6947277 107.157114,40.4093305 124.298922,39.8385361 L122.600626,52.9162993 Z" id="h1"></path>
        </g>
    </g>
</svg>
