<?xml version="1.0" encoding="UTF-8"?>
<svg width="541px" height="422px" viewBox="0 0 691 422" version="1.1" xmlns="http://www.w3.org/2000/svg" xmlns:xlink="http://www.w3.org/1999/xlink">
    <title>TRANGOROCKNATURAL</title>
    <g id="Page-1" stroke="none" stroke-width="1" fill="none" fill-rule="evenodd">
        <g id="TRANGOROCKNATURAL" transform="translate(-0, 0)" fill="#FFFFFF" stroke="#000000">
            <rect id="board" x="0.5" y="0.5" width="404" height="421" rx="70"></rect>
            <path d="M471,0.5 C490.191895,0.5 507.566895,8.27905247 520.143921,20.8560787 C532.720948,33.4331049 540.5,50.8081049 540.5,70 L540.5,244 C540.5,263.191895 532.720948,280.566895 520.143921,293.143921 C507.566895,305.720948 490.191895,313.5 471,313.5 L291.118447,313.500001 C288.812241,313.494569 287.578569,313.519662 286.965308,312.969365 C286.354142,312.420949 286.43748,311.316336 286.436881,309.351506 L286.436944,307.384301 L286.437011,306.795355 L286.43782,303.120898 L286.438022,302.485089 L286.438744,300.537461 L286.439023,299.874886 L286.439976,297.846976 L286.441102,295.758841 L286.441948,294.333288 C286.450507,280.423591 286.469858,262.76254 286.5,241.349431 C286.5,240.905637 286.478116,240.462114 286.434429,240.020476 C286.067448,236.310661 284.23151,233.100802 281.559863,230.910142 C278.888216,228.719482 275.380861,227.548021 271.671046,227.915002 L27.6710457,252.051855 C24.2173207,252.393503 21.1745592,254.016819 18.9952291,256.422369 C16.8158989,258.827919 15.5,262.015702 15.5,265.486284 L15.5,269.435741 C15.5,273.163663 17.011039,276.538663 19.4540585,278.981682 C21.8970779,281.424702 25.2720779,282.935741 29,282.935741 L194.188076,282.935741 C198.514559,282.935741 201.090994,281.631741 202.668037,279.727932 C204.879486,277.058267 205.100324,273.125931 205.25908,269.696884 C205.353372,267.660231 205.420153,265.815275 205.98166,264.607189 C206.166951,264.208533 206.408055,263.885565 206.743022,263.672501 C207.053866,263.47478 207.441271,263.375498 207.919383,263.375498 C212.856486,263.375498 216.734135,268.004486 221.644906,273.694271 C223.57083,275.925711 225.647491,278.331354 227.991349,280.723682 L228.728249,281.466232 C231.078218,283.803362 235.131256,289.34457 235.131256,292.445448 L235.131377,310.422907 C235.130409,311.781377 235.099861,312.585122 234.69679,313.026772 C234.231064,313.537075 233.287111,313.494158 231.615672,313.499323 L14.6646679,313.5 L12.9747541,313.499405 C6.92353923,313.492747 3.74670911,313.459104 2.10073484,312.415849 C0.51492854,311.41073 0.510875681,309.403849 0.500938527,305.776661 L0.5,70 C0.5,50.8081049 8.27905247,33.4331049 20.8560787,20.8560787 C33.4331049,8.27905247 50.8081049,0.5 70,0.5 Z" id="board"></path>
            <path d="M159.5,339.5 C167.508129,339.5 174.758129,342.745936 180.006097,347.993903 C185.254064,353.241871 188.5,360.491871 188.5,368.5 C188.5,376.508129 185.254064,383.758129 180.006097,389.006097 C174.758129,394.254064 167.508129,397.5 159.5,397.5 C150.072117,397.5 141.695087,393.001041 136.398401,386.033081 C136.263592,385.855735 136.130857,385.676894 135.999609,385.497872 C135.869258,385.677727 135.736819,385.856136 135.602315,386.033057 C130.304936,393.001026 121.927899,397.5 112.5,397.5 C103.904698,397.5 96.1828095,393.760583 90.872315,387.819937 C90.7465538,387.679253 90.6221704,387.537363 90.4988615,387.395427 C90.3762057,387.538126 90.2521609,387.679647 90.1267453,387.819969 C84.8171578,393.760602 77.0952812,397.5 68.5,397.5 C60.4918711,397.5 53.2418711,394.254064 47.9939033,389.006097 C42.7459356,383.758129 39.5,376.508129 39.5,368.5 C39.5,360.491871 42.7459356,353.241871 47.9939033,347.993903 C53.2418711,342.745936 60.4918711,339.5 68.5,339.5 Z" id="h7"></path>
            <path d="M112.5,339.5 C120.508129,339.5 127.758129,342.745936 133.006097,347.993903 C138.254064,353.241871 141.5,360.491871 141.5,368.5 C141.5,376.508129 138.254064,383.758129 133.006097,389.006097 C127.758129,394.254064 120.508129,397.5 112.5,397.5 C103.904698,397.5 96.1828095,393.760583 90.872315,387.819937 C90.7465538,387.679253 90.6221704,387.537363 90.4988615,387.395427 C90.3762057,387.538126 90.2521609,387.679647 90.1267453,387.819969 C84.8171578,393.760602 77.0952812,397.5 68.5,397.5 C60.4918711,397.5 53.2418711,394.254064 47.9939033,389.006097 C42.7459356,383.758129 39.5,376.508129 39.5,368.5 C39.5,360.491871 42.7459356,353.241871 47.9939033,347.993903 C53.2418711,342.745936 60.4918711,339.5 68.5,339.5 Z" id="h6"></path>
            <circle id="h5" cx="68.5" cy="368.5" r="29"></circle>
            <rect id="h4" transform="translate(310.4734, 363.8899) rotate(-5) translate(-310.4734, -363.8899)" x="256.473363" y="334.88991" width="108" height="58" rx="29"></rect>
            <rect id="h3" x="311.473363" y="220.88991" width="190" height="58" rx="29"></rect>
            <rect id="h2" transform="translate(261.9734, 176.8899) rotate(-5) translate(-261.9734, -176.8899)" x="24.4733629" y="147.88991" width="475" height="58" rx="29"></rect>
            <rect id="h1" transform="translate(261.9734, 95.8899) rotate(-5) translate(-261.9734, -95.8899)" x="24.4733629" y="66.8899098" width="475" height="58" rx="29"></rect>
        </g>
    </g>
</svg>