<?xml version="1.0" encoding="UTF-8"?>
<svg width="664px" height="321px" viewBox="0 0 664 321" version="1.1" xmlns="http://www.w3.org/2000/svg" xmlns:xlink="http://www.w3.org/1999/xlink">
    <title>TRENIRAJZNARAVOFINGERPEG</title>
    <g id="Page-1" stroke="none" stroke-width="1" fill="none" fill-rule="evenodd">
        <g id="TRENIRAJZNARAVOFINGERPEG" transform="translate(0.700676, 0.852909)" fill="#FFFFFF" stroke="#000000">
            <path d="M662.299324,319.623881 L145.991841,319.623881 C136.863496,319.446716 132.299324,315.552472 132.299324,307.941147 C132.299324,300.329823 146.46599,290.682268 174.799324,278.998483 C181.799324,275.673044 185.299324,270.72258 185.299324,264.147091 C185.299324,254.283857 178.597065,247.571536 174.799324,245.792933 C174.799324,245.792933 208.90534,254.283857 275.95997,254.283857 C320.663057,254.283857 449.442841,254.283857 662.299324,254.283857" id="board"></path>
            <path d="M662.424324,254.283857 L275.95997,254.283857 C228.388335,252.153767 199.119415,250.444525 188.153209,249.156132 C171.7039,247.223542 178.473166,242.669321 135.427711,237.10718 C92.382255,231.545039 52.143514,225.249074 52.143514,211.501114 C52.143514,197.753155 117.650861,196.668491 117.650861,172.809188 C117.650861,160.797897 111.291899,153.627743 98.5739741,151.298725 C237.590799,169.529182 358.841237,178.644411 462.325287,178.644411 C565.809337,178.644411 632.467349,178.644411 662.299324,178.644411" id="board"></path>
            <path d="M662.299324,178.644411 L454.238943,178.644411 C351.688811,176.715298 280.995277,174.082592 242.158342,170.746292 C135.489729,161.58289 46.906041,141.509026 19.8964325,136.424393 C6.63214417,133.927355 0,124.307004 0,107.563342 L0,20.1135007 L213.359659,20.1135007 L213.359659,30.4391254 L662.299324,29.7752281" id="board"></path>
            <rect id="h16" x="417.799324" y="264.647091" width="211" height="37" rx="18.5"></rect>
            <rect id="h15" x="354.799324" y="264.647091" width="149" height="37" rx="18.5"></rect>
            <rect id="h14" x="222.799324" y="264.647091" width="211" height="37" rx="18.5"></rect>
            <rect id="h13" x="544.799324" y="195.647091" width="84" height="37" rx="18.5"></rect>
            <rect id="h12" x="376.799324" y="195.647091" width="121" height="37" rx="18.5"></rect>
            <rect id="h11" x="185.799324" y="195.647091" width="144" height="37" rx="18.5"></rect>
            <path d="M662.424324,160.147091 L622.299324,160.147091 C611.805913,160.147091 603.299324,151.640501 603.299324,141.147091 C603.299324,130.653681 611.805913,122.147091 622.299324,122.147091 L662.424324,122.147091" id="h10"></path>
            <circle id="h9" cx="537.299324" cy="125.147091" r="32.5"></circle>
            <rect id="h8" x="349.799324" y="122.647091" width="121" height="37" rx="18.5"></rect>
            <circle id="h7" cx="283.299324" cy="125.147091" r="32.5"></circle>
            <rect id="h6" x="132.799324" y="103.647091" width="84" height="37" rx="18.5"></rect>
            <path d="M662.424324,83.1470908 L609.299324,83.1470908 C598.805913,83.1470908 590.299324,74.640501 590.299324,64.1470908 C590.299324,53.6536805 598.805913,45.1470908 609.299324,45.1470908 L662.424324,45.1470908" id="h5"></path>
            <circle id="h4" cx="70.2993237" cy="80.1470908" r="32.5"></circle>
            <polyline id="h3" points="662.299324 29.7752281 460.005367 29.7752281 468.493421 9.72117812 662.299324 9.72117812"></polyline>
            <path d="M468.493421,9.72117812 L460.005367,29.7752281 C459.740717,50.4741184 450.594191,60.8235635 432.56579,60.8235635 C414.53739,60.8235635 346.284127,60.8235635 227.806001,60.8235635 C218.234733,61.5001342 213.449099,55.8989909 213.449099,44.0201339 C213.449099,26.2018483 212.51146,3.80174037 216.707984,0.461698251 C219.505667,-1.7649965 225.036113,4.06254574 233.299324,17.944325 C237.794302,25.2957269 241.798091,28.4096327 245.31069,27.2860422 C248.823289,26.1624517 255.197656,23.6498387 264.43379,19.7482031 C272.336219,15.3282302 278.717677,13.1182438 283.578165,13.1182438 C288.438652,13.1182438 350.077071,11.9858886 468.493421,9.72117812 Z" id="h2"></path>
            <path d="M37.1785533,0.461698251 C12.3928511,-0.392944909 0,6.15765591 0,20.1135007 C0,20.1135007 71.1198864,20.1135007 213.359659,20.1135007 C213.359659,8.32518121 214.753981,1.62068098 217.542624,-3.63797881e-12 C218.193784,-3.63797881e-12 158.072427,0.153899417 37.1785533,0.461698251 Z" id="h1"></path>
        </g>
    </g>
</svg>