<?xml version="1.0" encoding="UTF-8"?>
<svg width="1329px" height="643px" viewBox="0 0 1329 643" version="1.1" xmlns="http://www.w3.org/2000/svg" xmlns:xlink="http://www.w3.org/1999/xlink">
    <title>TRENIRAJZNARAVOFINGERPEG</title>
    <g id="Page-1" stroke="none" stroke-width="1" fill="none" fill-rule="evenodd">
        <g id="TRENIRAJZNARAVOFINGERPEG" transform="translate(1.000000, 1.000000)" fill="#FFFFFF" fill-rule="nonzero" stroke="#000000">
            <path d="M1328,641 L292.462539,641 C274.154179,640.644859 265,632.838537 265,617.581032 C265,602.323528 293.413521,582.984238 350.240566,559.563163 C364.280189,552.897056 371.3,542.973458 371.3,529.792368 C371.3,510.020732 357.857545,496.565351 350.240566,493 C350.240566,493 418.645651,510.020732 553.134465,510.020732 C642.793676,510.020732 901.082186,510.020732 1328,510.020732" id="board"></path>
            <path d="M1328,510 L552.893915,510 C457.482622,505.739205 398.779878,502.320227 376.785682,499.743069 C343.794387,495.877331 357.371057,486.767574 271.037625,475.641686 C184.704191,464.515798 104,451.92205 104,424.422161 C104,396.922273 235.383769,394.752632 235.383769,347.027137 C235.383769,323.001087 222.630018,308.658708 197.122514,304 C475.939398,340.466178 718.448861,357 926,357 C1133.55114,357 1268.16797,358 1328,358" id="board"></path>
            <path d="M1328,357 L910.810708,357 C705.18378,353.142526 563.433654,347.878141 485.56033,341.206842 C271.675289,322.883611 94.052976,282.743711 39.8950465,272.576428 C13.2983489,267.583326 0,248.346375 0,214.865581 L0,40 L427.815063,40 L427.815063,60.6472228 L1328,59.3196871" id="board"></path>
            <rect id="h16" x="838" y="531" width="423" height="74" rx="18.5"></rect>
            <rect id="h15" x="712" y="531" width="298" height="74" rx="18.5"></rect>
            <rect id="h14" x="447" y="531" width="423" height="74" rx="18.5"></rect>
            <rect id="h13" x="1093" y="393" width="168" height="74" rx="18.5"></rect>
            <rect id="h12" x="756" y="393" width="242" height="74" rx="18.5"></rect>
            <rect id="h11" x="373" y="393" width="288" height="74" rx="18.5"></rect>
            <path d="M1328,321 L1247.91966,321 C1226.97721,321 1210,303.98682 1210,283 C1210,262.01318 1226.97721,245 1247.91966,245 L1328,245" id="h10"></path>
            <circle id="h9" cx="1078" cy="251" r="65"></circle>
            <rect id="h8" x="702" y="246" width="242" height="74" rx="18.5"></rect>
            <circle id="h7" cx="568" cy="251" r="65"></circle>
            <rect id="h6" x="267" y="208" width="168" height="74" rx="18.5"></rect>
            <path d="M1328,166 L1221.93414,166 C1200.98369,166 1184,148.98682 1184,128 C1184,107.013179 1200.98369,90 1221.93414,90 L1328,90" id="h5"></path>
            <circle id="h4" cx="141" cy="160" r="65"></circle>
            <polyline id="h3" points="1328 60 922 60 939.035358 20 1328 20"></polyline>
            <path d="M940,19.4812386 L922.966254,59.66955 C922.435157,101.150121 904.079996,121.890407 867.900773,121.890407 C831.721552,121.890407 694.751554,121.890407 456.990781,121.890407 C437.783252,123.246254 428.179487,112.021564 428.179487,88.2163378 C428.179487,52.5084977 426.297842,7.6186868 434.719387,0.925243186 C440.33375,-3.53705256 451.432197,8.1413407 468.01473,35.960423 C477.035208,50.6926307 485.069974,56.9328972 492.119024,54.6812221 C499.168074,52.429547 511.960093,47.3942711 530.495079,39.5753943 C546.353598,30.7177697 559.159847,26.2889574 568.913828,26.2889574 C578.667807,26.2889574 702.363198,24.0197179 940,19.4812386 Z" id="h2"></path>
            <path d="M74.6825459,0.918185766 C24.894182,-0.781455033 0,12.2458164 0,40 C0,40 142.862315,40 428.586943,40 C428.586943,16.5564042 431.387793,3.22307092 436.989489,0 C438.297509,0 317.528527,0.306061922 74.6825459,0.918185766 Z" id="h1"></path>
        </g>
    </g>
</svg>