<?xml version="1.0" encoding="UTF-8"?>
<svg width="592px" height="592px" viewBox="0 0 592 592" version="1.1" xmlns="http://www.w3.org/2000/svg" xmlns:xlink="http://www.w3.org/1999/xlink">
    <title>TRIPOINTMCFAT</title>
    <g id="Page-1" stroke="none" stroke-width="1" fill="none" fill-rule="evenodd">
        <g id="TRIPOINTMCFAT" transform="translate(1.000000, 1.435664)" fill="#FFFFFF" stroke="#000000">
            <path d="M590,59.4470544 L307.939027,59.4470544 L305.841188,71.6374321 C297.770124,74.4945922 280.264685,75.2088822 253.32487,73.7803021 C226.385054,72.3517221 143.813311,206.09553 5.60963824,475.011726 C9.41294981,504.354246 19.9054286,525.813439 37.0870747,539.389306 C62.8595438,559.753107 203.791188,565.263766 277,565.263766 C325.805875,565.263766 430.139208,566.998061 590,570.466651" id="board"></path>
            <path d="M342.078849,59.4470544 L313,49.383543 L304.940322,78.9356608 C302.062763,116.477256 296.385542,143.04182 287.90866,158.629353 C279.431777,174.216885 247.75312,213.71804 192.872689,277.132818 C243.541812,267.678363 286.063644,269.245821 320.438186,281.835191 C372,300.719247 379.103937,309.857478 416.232995,309.857478 C431.790778,309.857478 396.846972,311.600138 374.631435,293.011161 C365.878255,285.686887 359.069354,259.871395 354.204734,215.564685 C345.769194,161.555184 350.563081,127.959474 368.586395,114.777557 C386.609708,101.595639 377.773859,83.1521384 342.078849,59.4470544 Z" id="background"></path>
            <rect id="h11" x="131" y="462.564336" width="364" height="62" rx="31"></rect>
            <rect id="h10" x="131" y="359.564336" width="401" height="48" rx="24"></rect>
            <path d="M590,332.570198 C515.165416,332.570198 454,390.095746 454,461.064336 C454,532.032927 515.165416,589.570198 590,589.570198" id="background"></path>
            <path d="M590,493.564336 C526.836627,493.468344 484.743517,498.611012 463.720669,508.992342 C487.899467,560.642074 528.825911,587.499405 586.5,589.564336" id="h15"></path>
            <path d="M590,438.187477 C518.228341,436.88079 473.060379,441.335676 454.496113,451.552133 C454.496113,451.552133 455.082342,447.097248 456.2548,438.187477 C475.512207,425.432431 520.093941,419.471843 590,420.305713" id="h14"></path>
            <path d="M590,380.25008 C526.561717,379.417655 487.92175,384.218573 474.0801,394.652834 C483.372843,380.25008 512.252476,335.420224 590,332.570198" id="13"></path>
            <path d="M590,255.202621 L565.709444,255.202621 C525.258366,272.060489 500.20344,281.542996 490.544665,283.650143 C476.056502,286.810864 442.703846,299.517246 397.066733,286.435575 C351.42962,273.353904 361.156406,227.161762 351.42962,191.847218 C351.42962,232.349188 347.875007,289.064336 375.008858,301.733557 C402.142709,314.402778 451.332488,310.094213 488.613801,305.959226 C513.46801,303.202569 539.166558,301.794012 565.709444,301.733557 L589.206346,282.660689 L590,282.660689" id="h8"></path>
            <circle id="h7" cx="300.5" cy="217.064336" r="27.5"></circle>
            <path d="M590,43.6652287 C575.187407,43.6652287 552.63975,40.4711725 531.719065,29.3579544 C510.798381,18.2447362 461.653132,-2.54798281 415.907293,0.257643258 C370.161454,3.06326933 326.177927,14.0965727 314.565332,39.253311 C302.952737,64.4100493 302.758575,92.7063731 311.180874,105.475538 C319.603172,118.244703 395.274132,113.812704 444.534423,113.812704 C493.794715,113.812704 489.148916,107.418268 510.490529,94.1084723 C531.832141,80.7986771 548.698504,82.0827379 567.386401,82.0827379 C579.844999,82.0827379 587.382866,82.0827379 590,82.0827379" id="h3"></path>
            <path d="M351.42962,186.646738 C360.290121,220.47365 376.597546,239.779517 400.351895,244.564336 C435.983419,251.741566 492.879758,254.30172 522.077932,254.30172 C541.543382,254.30172 556.087219,254.60202 565.709444,255.202621 L544.176776,264.078808 C473.713626,261.70563 433.769367,260.048124 424.343999,259.106291 C410.205947,257.693542 363.42099,258.284123 357.394323,229.406119 C353.376545,210.154117 351.388311,195.90099 351.42962,186.646738 Z" id="h6"></path>
            <path d="M590,142.713872 L561.563271,142.713872 C526.931274,141.866546 499.219694,140.529259 478.428533,138.70201 C457.637371,136.874761 438.842626,136.41655 422.044296,137.327376 C394.086197,138.736005 374.460981,144.592891 363.168646,154.898031 C351.876311,165.203172 347.963517,175.786074 351.430264,186.646738 C364.794461,165.480934 388.332472,154.898031 422.044296,154.898031 C455.756121,154.898031 511.741355,154.898031 590,154.898031" id="h5"></path>
            <rect id="h4" x="372" y="38.5643364" width="124" height="62" rx="31"></rect>
            <circle id="h1" cx="138.5" cy="150.564336" r="138.5"></circle>
            <ellipse id="h2" cx="113.5" cy="101.564336" rx="54.5" ry="31"></ellipse>
            <path d="M273.143947,179.62051 C251.511292,204.978825 222.412471,224.179975 185.847482,237.223958 C131,256.789933 83.9562733,277.76812 67.9037447,295.705469 C51.8512162,313.642818 15.8793409,353.127284 10.5193,397.322148 C5.15925899,441.517012 -4.37653388,503.316937 25.0834238,507.195283 C54.5433814,511.073629 66.2788214,508.943286 76.8402058,498.165507 C87.4015901,487.387727 113.5,441.906183 113.5,407.564336 C113.5,373.22249 114.359479,330.650619 131,309.857478 C147.640521,289.064336 185.360203,288.74482 213.024952,267.305047 C223.496858,259.189475 231.467262,252.227 246.998037,237.223958 C257.789883,226.798817 266.505186,207.597667 273.143947,179.62051 Z" id="h9"></path>
        </g>
    </g>
</svg>