<?xml version="1.0" encoding="UTF-8"?>
<svg width="593px" height="555px" viewBox="0 0 593 555" version="1.1" xmlns="http://www.w3.org/2000/svg" xmlns:xlink="http://www.w3.org/1999/xlink">
    <title>TRIPOINTANTHI</title>
    <g id="Page-1" stroke="none" stroke-width="1" fill="none" fill-rule="evenodd">
        <g id="TRIPOINTANTHI" transform="translate(0.997240, 1.000000)" fill="#FFFFFF">
            <path d="M591.00276,15.9104735 C488.73889,13.7845923 432.910419,12.0642625 423.517347,10.7494842 C409.427738,8.77731669 377.650069,9.1668897 364.013577,16.9874713 C350.377086,24.8080529 346.701494,29.1444743 341.71232,29.1444743 C338.386205,29.1444743 333.670673,27.4910993 327.565725,24.1843494 C305.099498,10.5118768 281.092955,3.40341633 255.546097,2.85896791 C217.22581,2.04229526 187.983483,16.4219089 172.916805,38.7931925 C157.850126,61.1644761 155.501455,80.4684377 159.148139,105.76178 C162.794823,131.055122 189.935109,166.565273 188.400346,190.715851 C187.37717,206.816237 176.350979,224.126503 155.321773,242.64665 C130.749214,261.369527 111.96876,273.849553 98.9804112,280.086726 C79.4978881,289.442486 34.9245643,318.297712 23.3496942,340.463868 C11.7748241,362.630023 1,376.804484 1,405.957428 C1,435.110372 5.07796625,493.124959 49.7532528,525.176706 C94.4285394,557.228453 130.274122,552.990583 151.144973,552.990583 C165.058873,552.990583 311.678136,550.802343 591.00276,546.425865" id="hangboard" stroke="#000000"></path>
            <path d="M327.892764,145.800196 C292.771108,174.718407 268.750306,198.867819 255.83036,218.248434 L152.831242,375.755165 C136.308804,396.214623 138.032644,412.962901 158.00276,426 C177.972877,439.037099 210.582077,455.319302 255.83036,474.846609 C274.633818,485.318045 281.093791,497.99803 275.210279,512.886564 C269.326767,527.775099 264.590227,541.20489 261.000657,553.175937 L128.452083,553.175937 C69.6372343,546.922161 31.3848974,520.812385 13.6950725,474.846609 C-3.99475234,428.880833 -2.94676308,388.026473 16.8390403,352.283529 C24.7291989,328.206639 49.3671055,306.041192 90.7527601,285.787187 C152.831242,255.406179 186.047585,215.691556 187.00276,202.752483 C187.957935,189.813411 190.94765,180.913015 176.568322,151.39112 C162.188994,121.869225 158.00276,105.133146 158.00276,91.0535644 C158.00276,76.9739832 380.575249,102.42288 327.892764,145.800196 Z" id="h11" stroke="#000000"></path>
            <ellipse id="h7" stroke="#000000" transform="translate(23.002760, 426.000000) rotate(-15.000000) translate(-23.002760, -426.000000) " cx="23.0027601" cy="426" rx="16" ry="27"></ellipse>
            <ellipse id="h8" stroke="#000000" cx="99.0027601" cy="460.5" rx="34" ry="32.5"></ellipse>
            <ellipse id="h9" stroke="#000000" transform="translate(187.957935, 496.138357) rotate(15.000000) translate(-187.957935, -496.138357) " cx="187.957935" cy="496.138357" rx="46.5" ry="28"></ellipse>
            <ellipse id="h5" stroke="#000000" transform="translate(90.752760, 342.566987) rotate(-30.000000) translate(-90.752760, -342.566987) " cx="90.7527601" cy="342.566987" rx="59" ry="31.5"></ellipse>
            <path d="M384.573316,164 L528.134584,164 C544.296726,164 557.836502,176.231868 559.472741,192.310972 L559.797262,195.5 C561.396599,211.216467 549.952403,225.253699 534.235936,226.853036 C533.273757,226.950949 532.30723,227 531.340082,227 L380.735669,227 C365.215629,227 352.634151,214.418522 352.634151,198.898481 C352.634151,197.762527 352.703029,196.627617 352.840407,195.5 L353.304516,191.69052 C355.230258,175.883725 368.649646,164 384.573316,164 Z" id="h4" stroke="#000000"></path>
            <path d="M300.318673,444.686519 L536.730625,442.356115 C557.533953,443.533568 567.935617,451.397582 567.935617,465.948158 C567.935617,480.498734 558.816284,488.909356 540.577619,491.180024 L310.26323,497.801647 C288.778117,498.66834 277.168728,490.732787 275.435065,473.994988 C273.701401,457.25719 281.995937,447.4877 300.318673,444.686519 Z" id="h10" stroke="#000000"></path>
            <path d="M551.725961,359.200657 C565.075727,357.712889 569.902437,351.379917 566.206091,340.20174 C562.509745,329.023562 560.128385,322.521402 559.062009,320.69526 C555.326048,312.503527 547.138683,308.40766 534.499915,308.40766 C515.541762,308.40766 368.796908,303.403616 332.399144,305.497819 C308.133968,306.893955 288.572671,305.49278 273.715252,301.294294 L254.201515,294.000854 C246.562394,291.499528 241.038365,291.914002 237.629426,295.244278 C232.516019,300.239691 213.758603,325.88952 213.758603,340.20174 C213.758603,354.513959 216.334715,359.14898 220.902763,360.546137 C225.470811,361.943293 238.336011,356.016132 252.405978,356.016132 C266.475944,356.016132 325.344729,354.178357 374.514261,359.200657 C407.293949,362.548856 466.364516,362.548856 551.725961,359.200657 Z" id="h6" stroke="#000000"></path>
            <path d="M590.966523,23.0922887 C483.72471,23.9643841 422.315375,23.9643841 406.738518,23.0922887 C383.373231,21.7841456 374.051954,27.3856016 359.26359,31.9437634 C349.404681,34.982538 345.917045,39.5771177 348.800681,45.7275024 L369.640912,105 C374.066691,113.081186 381.047552,117.121779 390.583495,117.121779 C400.119437,117.121779 466.925859,117.121779 591.00276,117.121779" id="h3"></path>
            <ellipse id="h1" stroke="#000000" cx="257.00276" cy="86" rx="99" ry="86"></ellipse>
            <ellipse id="h2" stroke="#000000" cx="238.50276" cy="74.5" rx="51.5" ry="30.5"></ellipse>
        </g>
    </g>
</svg>