<?xml version="1.0" encoding="UTF-8"?>
<svg width="586px" height="292px" viewBox="0 0 586 292" version="1.1" xmlns="http://www.w3.org/2000/svg" xmlns:xlink="http://www.w3.org/1999/xlink">
    <title>TRIPOINTWOODOO</title>
    <g id="Page-1" stroke="none" stroke-width="1" fill="none" fill-rule="evenodd">
        <g id="TRIPOINTWOODOO" transform="translate(0.975578, 0.761150)" fill="#FFFFFF" stroke="#000000">
            <path d="M584.024422,290.001678 L42.3425069,290.001678 C34.797117,290.56668 31.0244221,288.312404 31.0244221,283.23885 C31.0244221,278.165296 31.0244221,261.066055 31.0244221,231.941128 L584.024422,231.941128" id="board"></path>
            <path d="M584.024422,231.94282 L11.2485825,231.94282 C7.88057788,231.973168 6.19657557,229.448298 6.19657557,224.36821 C6.19657557,219.288122 4.13105038,196.316113 0,155.452184 L60.3229416,27.6162731 L121.840229,7.98723727 L203.506551,7.98723727 L210.805927,61.8093588 L583.024422,61.8093588" id="board"></path>
            <path d="M584.024422,158.40092 L278.223691,160.37172 C246.453181,124.404994 230.567926,100.950633 230.567926,90.0086352 C230.567926,90.0086352 291.04977,90.0086352 412.013456,90.0086352 C422.82398,90.1378381 428.229242,86.4192261 428.229242,78.8527991 C428.229242,71.2863721 428.229242,65.6052254 428.229242,61.8093588 L583.024422,61.8093588" id="board"></path>
            <polygon id="board" points="211.856313 61.8093588 210.805927 61.8093588 203.506551 7.98723727 218.105303 19.6719554"></polygon>
            <path d="M121.840229,7.98723727 L49.7264014,132.989824 L11.2485825,132.989824 L61.2578408,25.4422 C69.0506983,13.8055582 80.8052384,7.98723727 96.5214612,7.98723727 C112.237684,7.98723727 120.677273,7.98723727 121.840229,7.98723727 Z" id="h1"></path>
            <path d="M203.506551,145.23885 C207.715531,163.07665 175.796978,160.37172 167.024422,160.37172 C150.353815,160.37172 108.693984,160.37172 93.6269482,160.37172 C78.5599122,160.37172 74.7735282,156.859165 74.7735282,151.179583 C74.7735282,147.393194 99.7077164,99.6624124 149.576093,7.98723727 C152.010322,2.66241242 155.527131,0 160.12652,0 C165.709222,0 166.525659,2.23218346 168.163828,7.98723727 C178.349516,43.7705976 199.297571,127.40105 203.506551,145.23885 Z" id="h2"></path>
            <circle id="h3" cx="144.524422" cy="110.73885" r="22.5"></circle>
            <path d="M428.229242,61.8093588 C428.229242,63.3647034 428.229242,68.5552117 428.229242,77.3808837 C428.229242,86.2065558 422.82398,90.4158063 412.013456,90.0086352 L230.567926,90.0086352 L230.567926,61.8093588 L211.856313,61.8093588 L218.105303,19.6719554 L443.267708,19.6719554 L428.229242,61.8093588 Z" id="h4"></path>
            <polyline id="h5" points="584.024422 19.6719554 443.267708 19.6719554 428.229242 61.8093588 583.024422 61.8093588"></polyline>
            <rect id="h6" x="275.024422" y="104.23885" width="153" height="41" rx="20.5"></rect>
            <rect id="h7" x="31.0244221" y="175.23885" width="153" height="41" rx="20.5"></rect>
            <circle id="h8" cx="214.524422" cy="195.73885" r="20.5"></circle>
            <rect id="h9" x="251.024422" y="175.23885" width="80" height="41" rx="20.5"></rect>
            <rect id="h10" x="347.024422" y="175.23885" width="80" height="41" rx="20.5"></rect>
            <path d="M584.024422,216.23885 L512.524422,216.23885 C501.202585,216.23885 492.024422,207.060687 492.024422,195.73885 C492.024422,184.417013 501.202585,175.23885 512.524422,175.23885 L584.024422,175.23885" id="h11"></path>
            <rect id="h12" x="71.0244221" y="242.23885" width="80" height="41" rx="20.5"></rect>
            <rect id="h13" x="167.024422" y="242.23885" width="146" height="41" rx="20.5"></rect>
            <rect id="h14" x="329.024422" y="242.23885" width="80" height="41" rx="20.5"></rect>
            <rect id="h15" x="425.024422" y="242.23885" width="80" height="41" rx="20.5"></rect>
        </g>
    </g>
</svg>