<?xml version="1.0" encoding="UTF-8"?>
<svg width="674px" height="342px" viewBox="0 0 674 342" version="1.1" xmlns="http://www.w3.org/2000/svg" xmlns:xlink="http://www.w3.org/1999/xlink">
    <title>TWOSTONESHB2024</title>
    <g id="Page-1" stroke="none" stroke-width="1" fill="none" fill-rule="evenodd">
        <g id="TWOSTONESHB2024" transform="translate(1.492838, 0.719914)" fill="#FFFFFF">
            <path d="M672.507162,258.716015 L25.1012019,258.716015 C15.7615127,258.544827 11.0916682,260.52153 11.0916682,264.646124 C11.0916682,268.770719 13.594581,292.105491 18.6004066,334.65044 C17.6734942,338.485167 22.3653656,340.40253 32.6760209,340.40253 C42.9866762,340.40253 256.263723,340.40253 672.507162,340.40253" id="board" stroke="#000000"></path>
            <path d="M672.507162,183.162366 L26.3706598,183.162366 L5.07575385,156.233083 C3.10970416,156.467127 2.12667931,152.830813 2.12667931,145.324141 C2.12667931,137.81747 1.41778621,104.415102 0,45.1170375 C1.42324016,15.0390125 6.17416017,1.8189894e-12 14.25276,1.8189894e-12 C22.3313599,1.8189894e-12 241.749494,1.8189894e-12 672.507162,1.8189894e-12" id="board" stroke="#000000"></path>
            <path d="M672.507162,45.1170375 L2.50716212,45.1170375 C3.92509633,17.1170375 8.65830452,3.11703751 16.7067867,3.11703751 C24.7552689,3.11703751 243.355394,3.11703751 672.507162,3.11703751" id="h1"></path>
            <rect id="h3" stroke="#000000" x="169.007162" y="57.7800861" width="345" height="69" rx="34"></rect>
            <rect id="h2" stroke="#000000" x="169.007162" y="57.7800861" width="172" height="69" rx="34"></rect>
            <path d="M672.507162,258.716015 L25.1012019,258.716015 C16.6009435,258.716015 11.931099,260.491739 11.0916682,264.043189 C13.3110807,255.576757 26.931366,254.661147 26.931366,239.895758 C26.931366,230.052166 26.931366,211.141035 26.931366,183.162366 L672.507162,183.162366" id="h4" stroke="#000000"></path>
        </g>
    </g>
</svg>