<?xml version="1.0" encoding="UTF-8"?>
<svg width="1325px" height="798px" viewBox="0 0 1325 798" version="1.1" xmlns="http://www.w3.org/2000/svg" xmlns:xlink="http://www.w3.org/1999/xlink">
    <title>TWOSTONESHB2101</title>
    <g id="Page-1" stroke="none" stroke-width="1" fill="none" fill-rule="evenodd">
        <g id="TWOSTONESHB2101" transform="translate(1.057692, 1.000000)" fill="#FFFFFF" stroke="#000000">
            <path d="M302.942308,127 C295.608974,103.666667 272.275641,95.3333333 232.942308,102 C193.608974,108.666667 128.942308,124.666667 38.9423077,150 C8.94230769,161.333333 -3.72435897,187.333333 0.942307692,228 C5.60897436,268.666667 -21.0576923,115 60.9423077,93 C115.608974,78.3333333 172.942308,63.6666667 232.942308,49 C279.608974,40.3333333 307.275641,44.6666667 315.942308,62 C321.609346,73.3340771 360.942308,170 363.942308,175 C374.053367,191.851765 382.334514,204.240852 406.334514,197.240852 C422.334514,192.574186 451.870445,184.160568 494.942308,172 L505.942308,219 L356.942308,247 L335.942308,233 L302.942308,127 Z" id="h1"></path>
            <path d="M1323.94231,77 L1138.94231,77 C1131.60897,77.6666667 1127.94231,74.6666667 1127.94231,68 C1127.94231,64.5898361 1127.62952,59.9008167 1126.72097,55.2009077 C1124.94231,46 1118.75791,37 1102.94231,37 C1086.94231,37 889.608974,37 510.942308,37 C496.275641,36.3333333 488.942308,68 488.942308,68 C488.942308,68 488.942308,0 543.942308,0 C574.608974,0 765.275641,0 1115.94231,0 C1142.60897,0 1155.94231,9.33333333 1155.94231,28 C1155.94231,36.4210811 1155.94231,30 1155.94231,37 C1155.94231,44 1157.83954,49 1168.94231,49 C1190.94231,49 1323.94231,49 1323.94231,49" id="h2"></path>
            <path d="M1323.94231,77 L1138.94231,77 C1131.60897,77.6666667 1127.94231,74.6666667 1127.94231,68 C1127.94231,58 1126.94231,37 1102.94231,37 C1086.94231,37 889.608974,37 510.942308,37 C496.275641,36.3333333 488.942308,46.6666667 488.942308,68 C488.942308,100 494.942308,85 494.942308,133 C494.942308,181 498.942308,199 457.942308,210 C430.608974,217.333333 399.275641,225 363.942308,233 C355.275641,234.333333 347.608974,229.666667 340.942308,219 C334.275641,208.333333 321.608974,177.666667 302.942308,127 C295.608974,103.666667 272.275641,95.3333333 232.942308,102 C193.608974,108.666667 128.942308,124.666667 38.9423077,150 C8.94230769,161.333333 -3.72435897,187.333333 0.942307692,228 C5.60897436,268.666667 34.9423077,451 88.9423077,775 C89.6089744,789 96.275641,796 108.942308,796 C127.942308,796 161.942308,796 190.942308,796 C219.942308,796 219.942308,794 219.942308,784 C219.942308,777.333333 219.942308,676 219.942308,480 C220.608974,434.666667 241.608974,412 282.942308,412 C344.942308,412 350.942308,452 352.942308,480 C354.275641,498.666667 354.275641,600 352.942308,784 C352.942308,792 364.275641,796 386.942308,796 C409.608974,796 721.942308,796 1323.94231,796" id="board"></path>
            <path d="M1323.94231,251 L1211.94231,251 C1199.23976,251 1188.94231,240.702549 1188.94231,228 L1188.94231,204 C1188.94231,191.297451 1199.23976,181 1211.94231,181 L1323.94231,181" id="board"></path>
            <path d="M219.942308,787 C219.942308,777.666667 219.942308,667.333333 219.942308,480 C220.608974,434.666667 241.608974,412 282.942308,412 C344.942308,412 350.942308,452 352.942308,480 C354.275641,498.666667 354.275641,609 352.942308,787 L219.942308,787 Z" id="h13"></path>
            <rect id="h12" x="930.442308" y="642.5" width="371" height="115" rx="57.5"></rect>
            <rect id="h11" x="700.442308" y="640.5" width="185" height="115" rx="57.5"></rect>
            <rect id="h10" x="404.442308" y="640.5" width="254" height="115" rx="57.5"></rect>
            <rect id="h9" x="927.442308" y="480.5" width="371" height="115" rx="57.5"></rect>
            <rect id="h8" x="700.442308" y="480.5" width="185" height="115" rx="57.5"></rect>
            <rect id="h7" x="404.442308" y="480.5" width="254" height="115" rx="57.5"></rect>
            <rect id="h6" x="927.442308" y="318.5" width="371" height="115" rx="57.5"></rect>
            <rect id="h5" x="700.442308" y="318.5" width="185" height="115" rx="57.5"></rect>
            <rect id="h4" x="404.442308" y="318.5" width="254" height="115" rx="57.5"></rect>
            <circle id="h3" cx="139.442308" cy="304.5" r="53"></circle>
        </g>
    </g>
</svg>