<?xml version="1.0" encoding="UTF-8"?>
<svg width="676px" height="406px" viewBox="0 0 676 406" version="1.1" xmlns="http://www.w3.org/2000/svg" xmlns:xlink="http://www.w3.org/1999/xlink">
    <title>TWOSTONESHB2112</title>
    <g id="Page-1" stroke="none" stroke-width="1" fill="none" fill-rule="evenodd">
        <g id="TWOSTONESHB2112" transform="translate(0.961903, 0.711724)" fill="#FFFFFF" stroke="#000000">
            <rect id="h17" x="205.538097" y="340.788276" width="74" height="63"></rect>
            <path d="M675.038097,403.771411 C411.605812,403.771411 278.857504,403.771411 276.793171,403.771411 C274.728838,403.771411 273.770103,402.296085 273.916966,399.345433 L272.98993,364.702827 C272.98993,349.400613 262.837335,341.749507 242.532146,341.749507 C222.226957,341.749507 211.963725,349.400613 211.74245,364.702827 C211.74245,384.985349 211.74245,396.532884 211.74245,399.345433 C211.74245,402.157981 210.558376,403.633307 208.190227,403.771411 L55.0681516,403.771411 C47.144228,403.907289 42.478984,400.362363 41.0724197,393.136631 C39.6658554,385.9109 37.9894085,373.15711 36.0430789,354.875262 C35.368729,348.317982 36.5921129,343.694177 39.7132305,341.003848 C39.7132305,341.003848 34.9973751,319.985474 25.5656643,277.948727 C21.1766819,267.644974 18.8772261,260.635601 18.6672969,256.920607 C18.3524031,251.348115 22.7254428,244.896634 23.6674215,243.69587 C23.6674215,243.69587 18.3077507,222.780156 7.58840919,180.948727 C2.8205839,171.369253 0.608205689,164.802571 0.951274555,161.248678 C1.46587786,155.917839 3.43920659,151.875555 10.0380972,146.69587 C10.0380972,146.69587 8.08358615,125.780156 4.17456407,83.9487266 L675.038097,83.9487266" id="board"></path>
            <polygon id="board" points="161.535683 31.2148868 161.535683 83.9487266 417.827698 83.9487266 417.827698 31.2148868"></polygon>
            <rect id="h6" x="264.538097" y="107.788276" width="150" height="59" rx="29.5"></rect>
            <path d="M675.038097,167.288276 L621.038097,167.288276 C604.469555,167.288276 591.038097,153.856818 591.038097,137.288276 C591.038097,120.719733 604.469555,107.288276 621.038097,107.288276 L675.038097,107.288276" id="h8"></path>
            <path d="M675.038097,261.288276 L621.038097,261.288276 C604.469555,261.288276 591.038097,247.856818 591.038097,231.288276 C591.038097,214.719733 604.469555,201.288276 621.038097,201.288276 L675.038097,201.288276" id="h12"></path>
            <path d="M675.038097,355.288276 L621.038097,355.288276 C604.469555,355.288276 591.038097,341.856818 591.038097,325.288276 C591.038097,308.719733 604.469555,295.288276 621.038097,295.288276 L675.038097,295.288276" id="h16"></path>
            <rect id="h7" x="453.538097" y="107.788276" width="99" height="59" rx="29.5"></rect>
            <rect id="h11" x="458.538097" y="201.788276" width="99" height="59" rx="29.5"></rect>
            <rect id="h15" x="463.538097" y="295.788276" width="99" height="59" rx="29.5"></rect>
            <rect id="h10" x="271.538097" y="201.788276" width="150" height="59" rx="29.5"></rect>
            <rect id="h14" x="279.538097" y="295.788276" width="150" height="59" rx="29.5"></rect>
            <polyline id="h4" points="675.038097 10.855735 575.683597 10.855735 575.683597 83.9487266 675.038097 83.9487266"></polyline>
            <polygon id="h3" points="575.683597 10.855735 565.860483 1.97375671 417.827698 1.97375671 417.827698 83.9487266 575.683597 83.9487266"></polygon>
            <path d="M417.827698,1.97375671 L417.827698,42.9612417 C417.439822,58.5735866 408.688039,66.3797591 391.572349,66.3797591 C374.456659,66.3797591 309.471167,66.3797591 196.615874,66.3797591 C173.228675,66.7178222 161.535076,54.9961981 161.535076,31.2148868 C161.535076,14.5638139 161.535076,3.22622181 161.535076,0.0414201025 C161.535076,0.0414201025 166.880221,-0.525646271 171.038097,2.53660528 C175.195973,5.59885684 180.712628,20.1006472 192.228359,20.1006472 C203.74409,20.1006472 205.935855,13.269315 232.752096,13.269315 C250.62959,13.269315 303.569675,13.269315 391.572349,13.269315 C400.565717,12.6601637 406.377751,10.6794821 409.008452,7.32727021 C411.639153,3.9750583 414.578901,2.19055381 417.827698,1.97375671 Z" id="h2"></path>
            <path d="M161.535683,83.9487266 L4.17456407,83.6511325 C0.955455043,79.9229625 -0.401903377,76.6811226 0.102488814,73.9256127 C2.38484826,61.4570139 16.5170092,33.2382434 46.2563791,15.750424 C61.602782,6.72618709 86.5511264,0.0414201025 105.577261,0.0414201025 C142.841496,0.0414201025 161.494304,0.0414201025 161.535683,0.0414201025 L161.535683,83.9487266 Z" id="h1"></path>
            <path d="M10.0380972,146.69587 L221.32512,146.69587 C234.307672,146.142073 239.736502,140.837713 237.61161,130.78279 C235.486718,120.727868 231.972569,109.9545 227.069163,98.462686 C223.239801,88.7867131 215.405393,83.9487266 203.565938,83.9487266 C191.726484,83.9487266 125.262692,83.9487266 4.17456407,83.9487266 L10.0380972,146.69587 Z" id="h5"></path>
            <path d="M23.6674215,243.69587 L221.32512,243.69587 C234.307672,243.142073 239.736502,237.837713 237.61161,227.78279 C235.486718,217.727868 231.972569,206.9545 227.069163,195.462686 C223.239801,185.786713 215.405393,180.948727 203.565938,180.948727 C191.726484,180.948727 126.400641,180.948727 7.58840919,180.948727 L23.6674215,243.69587 Z" id="h9"></path>
            <path d="M39.7526734,340.69587 L192.32512,340.69587 C205.307672,340.142073 210.736502,334.837713 208.61161,324.78279 C206.486718,314.727868 202.972569,303.9545 198.069163,292.462686 C194.239801,282.786713 186.405393,277.948727 174.565938,277.948727 C162.726484,277.948727 113.059726,277.948727 25.5656643,277.948727 L39.7526734,340.69587 Z" id="h13"></path>
        </g>
    </g>
</svg>