<?xml version="1.0" encoding="UTF-8"?>
<svg width="568px" height="246px" viewBox="0 0 568 246" version="1.1" xmlns="http://www.w3.org/2000/svg" xmlns:xlink="http://www.w3.org/1999/xlink">
    <title>TWOSTONESHB2055</title>
    <g id="Page-1" stroke="none" stroke-width="1" fill="none" fill-rule="evenodd">
        <g id="TWOSTONESHB2055" transform="translate(1.000000, 0.771795)" fill="#FFFFFF" stroke="#000000">
            <path d="M567,244.228205 L16,244.228205 C7.163444,244.228205 0,237.064761 0,228.228205 L0,27.2282049 C0,18.3916489 7.163444,11.2282049 16,11.2282049 L567,11.2282049" id="board"></path>
            <path d="M567,-1.0658141e-13 C213.436626,-1.0658141e-13 31.1286188,-1.0658141e-13 20.0759783,-1.0658141e-13 C9.02333777,-1.0658141e-13 2.33134501,9.07606829 0,27.2282049 C0,18.3916489 7.163444,11.2282049 16,11.2282049 L567,11.2282049" id="h1"></path>
            <rect id="h2" x="44" y="53.2282049" width="100" height="56" rx="28"></rect>
            <rect id="h3" x="272" y="53.2282049" width="176" height="56" rx="28"></rect>
            <rect id="h4" x="44" y="139.228205" width="190" height="56" rx="28"></rect>
            <rect id="h5" x="272" y="139.228205" width="84" height="56" rx="28"></rect>
            <rect id="h6" x="385" y="139.228205" width="56" height="56" rx="28"></rect>
            <path d="M567,171.228205 L493,171.228205 C477.536027,171.228205 465,158.692178 465,143.228205 C465,127.764232 477.536027,115.228205 493,115.228205 L567,115.228205" id="h7"></path>
        </g>
    </g>
</svg>