<?xml version="1.0" encoding="UTF-8"?>
<svg width="581px" height="376px" viewBox="0 0 581 376" version="1.1" xmlns="http://www.w3.org/2000/svg" xmlns:xlink="http://www.w3.org/1999/xlink">
    <title>TWOSTONESHB2003BX</title>
    <g id="Page-1" stroke="none" stroke-width="1" fill="none" fill-rule="evenodd">
        <g id="TWOSTONESHB2003BX" transform="translate(1.045701, 1.454938)" fill="#FFFFFF" stroke="#000000">
            <path d="M578.954299,374 L25.1765492,373.294727 C8.39218307,373.764909 0,366.447015 0,351.341046 C0,336.235076 0,244.606748 0,76.45606 L20.7745139,1.13686838e-13 L578.954299,1.13686838e-13" id="board"></path>
            <path d="M578.954299,0 L20.7745139,0 L0.230760139,76.45606 L0.230760139,159.638829 C0.239461361,171.378476 9.07296075,177.248299 26.7312583,177.248299 C44.3895559,177.248299 140.103301,177.248299 313.872493,177.248299 C327.64735,178.094153 334.534778,167.38226 334.534778,145.112621 C334.534778,122.842982 334.534778,109.516507 334.534778,105.133196 C334.702446,96.9226007 341.741918,92.8173029 355.653193,92.8173029 C369.564469,92.8173029 443.998171,92.8173029 578.954299,92.8173029" id="board"></path>
            <path d="M29.1267284,177.294727 C7.98054636,177.294727 -1.65144307,170.603439 0.230760139,157.220862 L0.230760139,256.958382 C0.230760139,269.15166 9.06425953,275.248299 26.7312583,275.248299 C44.3982571,275.248299 140.112002,275.248299 313.872493,275.248299 C327.64735,276.094153 334.534778,265.38226 334.534778,243.112621 C334.534778,220.842982 334.534778,207.516507 334.534778,203.133196 L334.534778,150.018106 C334.534778,168.20252 326.528455,177.294727 310.51581,177.294727 C286.496841,177.294727 60.8460016,177.294727 29.1267284,177.294727 Z" id="board"></path>
            <path d="M29.1267284,275.294727 C7.98054636,275.294727 -1.65144307,268.603439 0.230760139,255.220862 L0.230760139,354.958382 C0.230760139,367.15166 9.06425953,373.248299 26.7312583,373.248299 C44.3982571,373.248299 140.112002,373.248299 313.872493,373.248299 C327.64735,374.094153 334.534778,363.38226 334.534778,341.112621 C334.534778,318.842982 334.534778,305.516507 334.534778,301.133196 L334.534778,248.018106 C334.534778,266.20252 326.528455,275.294727 310.51581,275.294727 C286.496841,275.294727 60.8460016,275.294727 29.1267284,275.294727 Z" id="board"></path>
            <rect id="h4" x="10.9542992" y="104.545062" width="136" height="45" rx="22.5"></rect>
            <rect id="h7" x="10.9542992" y="205.545062" width="136" height="45" rx="22.5"></rect>
            <rect id="h10" x="10.9542992" y="303.545062" width="136" height="45" rx="22.5"></rect>
            <rect id="h5" x="166.954299" y="104.545062" width="85" height="45" rx="22.5"></rect>
            <rect id="h8" x="166.954299" y="205.545062" width="85" height="45" rx="22.5"></rect>
            <rect id="h11" x="166.954299" y="303.545062" width="85" height="45" rx="22.5"></rect>
            <rect id="h6" x="271.954299" y="104.545062" width="45" height="45" rx="22.5"></rect>
            <rect id="h9" x="271.954299" y="205.545062" width="45" height="45" rx="22.5"></rect>
            <rect id="h12" x="271.954299" y="303.545062" width="45" height="45" rx="22.5"></rect>
            <circle id="h13" cx="449.454299" cy="269.045062" r="94.5"></circle>
            <polyline id="h3" points="578.954299 25.10788 395.962161 25.10788 395.962161 5.68434189e-14 578.954299 5.68434189e-14"></polyline>
            <path d="M395.962188,6.03961325e-14 L395.962188,25.10788 C394.377262,40.7032781 385.502629,48.5009771 369.338288,48.5009771 C353.173947,48.5009771 293.829192,48.5009771 191.304021,48.5009771 L204.53641,6.03961325e-14 L395.962188,6.03961325e-14 Z" id="h2"></path>
            <path d="M204.53641,1.13686838e-13 L191.304021,48.5009771 C193.370884,67.1376991 185.762682,76.45606 168.479417,76.45606 C151.196153,76.45606 95.1141247,76.45606 0.23333366,76.45606 L20.7745139,1.13686838e-13 L204.53641,1.13686838e-13 Z" id="h1"></path>
        </g>
    </g>
</svg>