<?xml version="1.0" encoding="UTF-8"?>
<svg width="640px" height="438px" viewBox="0 0 640 438" version="1.1" xmlns="http://www.w3.org/2000/svg" xmlns:xlink="http://www.w3.org/1999/xlink">
    <title>TWOSTONESHB2053</title>
    <g id="Page-1" stroke="none" stroke-width="1" fill="none" fill-rule="evenodd">
        <g id="TWOSTONESHB2053" transform="translate(1.000000, 1.231363)" fill="#FFFFFF" stroke="#000000">
            <path d="M639,435.768637 L27.7877113,434.976619 C9.26257045,435.504631 0,427.286675 0,410.322753 C0,393.358829 0,290.460707 0,101.628384 L0,69.7686372 C151.190885,69.7686372 253.526269,69.7686372 307.006151,69.7686372 C332.245546,69.7686372 355.921382,15.7686372 376.515252,15.7686372 C462.126222,15.7686372 549.621138,15.7686372 639,15.7686372" id="board" fill-rule="nonzero"></path>
            <path d="M639,15.7686372 C567.318778,15.7686372 486.278501,15.7686372 395.87917,15.7686372 C366.47049,15.7686372 344,69.7686372 304.270998,69.7686372 C248.805829,69.7686372 147.382163,69.7686372 0,69.7686372 L0,101.584816 L0,194.951219 C0.00960749042,208.12809 9.76315254,214.716525 29.2606352,214.716525 C48.7581178,214.716525 154.440847,214.716525 346.308823,214.716525 C361.518388,215.665933 369.12317,203.642638 369.12317,178.646643 C369.12317,153.650648 369.12317,138.692682 369.12317,133.772745 C369.308302,124.556969 377.080964,119.949081 392.441156,119.949081 C407.801349,119.949081 489.987631,119.949081 639,119.949081" id="board" fill-rule="nonzero"></path>
            <path d="M32.1274901,214.468727 C8.80273682,214.468727 -1.82158189,206.937621 0.254534048,191.875406 L0.254534048,304.130911 C0.254534048,317.854558 9.99809881,324.716382 29.4852283,324.716382 C48.9723579,324.716382 154.546947,324.716382 346.208997,324.716382 C361.402999,325.668399 369,313.612064 369,288.547378 C369,263.482693 369,248.483621 369,243.550164 L369,183.768637 C369,204.235364 360.168831,214.468727 342.506494,214.468727 C316.012987,214.468727 67.1146203,214.468727 32.1274901,214.468727 Z" id="board" fill-rule="nonzero"></path>
            <path d="M32.1274901,324.468727 C8.80273682,324.468727 -1.82158189,316.937621 0.254534048,301.875406 L0.254534048,414.130911 C0.254534048,427.854558 9.99809881,434.716382 29.4852283,434.716382 C48.9723579,434.716382 154.546947,434.716382 346.208997,434.716382 C361.402999,435.668399 369,423.612064 369,398.547378 C369,373.482693 369,358.483621 369,353.550164 L369,293.768637 C369,314.235364 360.168831,324.468727 342.506494,324.468727 C316.012987,324.468727 67.1146203,324.468727 32.1274901,324.468727 Z" id="board" fill-rule="nonzero"></path>
            <rect id="h4" fill-rule="nonzero" x="12" y="132.768637" width="150" height="51" rx="22.5"></rect>
            <rect id="h7" fill-rule="nonzero" x="12" y="246.768637" width="150" height="51" rx="22.5"></rect>
            <rect id="h10" fill-rule="nonzero" x="12" y="356.768637" width="150" height="51" rx="22.5"></rect>
            <rect id="h5" fill-rule="nonzero" x="184" y="132.768637" width="94" height="51" rx="22.5"></rect>
            <rect id="h8" fill-rule="nonzero" x="184" y="246.768637" width="94" height="51" rx="22.5"></rect>
            <rect id="h11" fill-rule="nonzero" x="184" y="356.768637" width="94" height="51" rx="22.5"></rect>
            <rect id="h6" fill-rule="nonzero" x="300" y="132.768637" width="50" height="51" rx="22.5"></rect>
            <rect id="h9" fill-rule="nonzero" x="300" y="246.768637" width="50" height="51" rx="22.5"></rect>
            <rect id="h12" fill-rule="nonzero" x="300" y="356.768637" width="50" height="51" rx="22.5"></rect>
            <ellipse id="h13" fill-rule="nonzero" cx="496.5" cy="317.768637" rx="104.5" ry="106"></ellipse>
            <polyline id="h3" fill-rule="nonzero" points="639 43.7686372 437 43.7686372 437 15.7686372 639 15.7686372"></polyline>
            <path d="M437,15.7686372 L437,43.7232394 C435.249797,61.0868379 425.449714,69.7686372 407.599749,69.7686372 C389.749785,69.7686372 324.216536,69.7686372 211,69.7686372 C210.333333,23.2562124 215.282839,0 225.848518,0 C236.073932,0 235.682116,34.6136203 254.593325,34.8843186 C279.511615,35.2410033 280.791585,15.7686372 300,15.7686372 C312.80561,15.7686372 358.472277,15.7686372 437,15.7686372 Z" id="h2" fill-rule="nonzero"></path>
            <path d="M211,69.7686372 C210.631825,23.2562124 215.581331,0 225.848518,0 C225.848518,0 170.087301,0 58.5648671,0 C19.5216224,4.32205275 0,27.5782651 0,69.7686372 C0,69.7686372 70.3333333,69.7686372 211,69.7686372 Z" id="h1"></path>
        </g>
    </g>
</svg>