<?xml version="1.0" encoding="UTF-8"?>
<svg width="562px" height="495px" viewBox="0 0 562 495" version="1.1" xmlns="http://www.w3.org/2000/svg" xmlns:xlink="http://www.w3.org/1999/xlink">
    <title>UCRAFTEVO</title>
    <g id="Page-1" stroke="none" stroke-width="1" fill="none" fill-rule="evenodd">
        <g id="UCRAFTEVO" transform="translate(1.244675, 1.282013)" fill="#FFFFFF">
            <path d="M231.255325,492.094187 C55.2045652,492.094187 55.2045652,421.6203 55.2045652,400.030639 C55.2045652,378.440979 60.1531496,356.423434 63.8185397,342.531488 C67.4839298,328.639541 71.4134647,288.487935 73.3949217,249.155277 C75.3763787,209.822619 62.5867161,160.2721 37.2017316,140.061179 C20.2784086,126.587231 9.50094651,112.005418 4.8693454,96.3157386 C1.62311513,53.2898447 -2.84217094e-14,26.5361448 -2.84217094e-14,16.0546389 C-2.84217094e-14,5.57313299 4.79590806,0.300055118 14.3877242,0.235405277 L35.7055,0.235405277 C50.1658389,-1.05370138 57.3960084,2.9516654 57.3960084,12.2515056 C57.3960084,21.5513459 65.3833039,25.6780194 81.3578948,24.6315263 L231.255325,24.6315263 L228,24.6315263 L377.89743,24.6315263 C393.872021,25.6780194 401.859317,21.5513459 401.859317,12.2515056 C401.859317,2.9516654 409.089486,-1.05370138 423.549825,0.235405277 L444.867601,0.235405277 C454.459417,0.300055118 459.255325,5.57313299 459.255325,16.0546389 C459.255325,26.5361448 457.63221,53.2898447 454.38598,96.3157386 C449.754379,112.005418 438.976917,126.587231 422.053594,140.061179 C396.668609,160.2721 383.878947,209.822619 385.860404,249.155277 C387.841861,288.487935 391.771395,328.639541 395.436786,342.531488 C399.102176,356.423434 404.05076,378.440979 404.05076,400.030639 C404.05076,421.6203 404.05076,492.094187 228,492.094187" id="board" stroke="#000000"></path>
            <rect id="h4" stroke="#000000" x="90.7553252" y="363.717987" width="281" height="85" rx="42.5"></rect>
            <rect id="h3" stroke="#000000" x="98.7553252" y="233.717987" width="265" height="85" rx="42.5"></rect>
            <rect id="h2" stroke="#000000" x="90.7553252" y="103.717987" width="281" height="85" rx="42.5"></rect>
            <rect id="h1" x="89.7553252" y="25.7179873" width="281" height="51"></rect>
        </g>
    </g>
</svg>
