<?xml version="1.0" encoding="UTF-8"?>
<svg width="635px" height="393px" viewBox="0 0 635 393" version="1.1" xmlns="http://www.w3.org/2000/svg" xmlns:xlink="http://www.w3.org/1999/xlink">
    <!-- Generator: Sketch 64 (93537) - https://sketch.com -->
    <title>Group 6</title>
    <desc>Created with Sketch.</desc>
    <g id="Page-1" stroke="none" stroke-width="1" fill="none" fill-rule="evenodd">
        <g id="Group-6" transform="translate(0.824961, 1.307628)" fill="#FFFFFF" stroke="#000000">
            <path d="M633.675039,-6.82121026e-13 L102.088671,-6.82121026e-13 C39.6794792,16.5789486 6.59157586,60.5090453 2.82496108,131.79029 C-0.941653694,203.071534 -0.941653694,278.758278 2.82496108,358.85052 C2.51368974,379.920846 18.0627651,390.456009 49.4721872,390.456009 C80.8816093,390.456009 275.615893,390.456009 633.675039,390.456009" id="hangboard"></path>
            <path d="M633.675039,355.692372 L573.675039,355.692372 C559.591778,355.692372 548.175039,344.275634 548.175039,330.192372 C548.175039,316.109111 559.591778,304.692372 573.675039,304.692372 L633.675039,304.692372" id="h14"></path>
            <rect id="h8" x="48.1750389" y="214.692372" width="521" height="47" rx="23.5"></rect>
            <rect id="h7" x="48.1750389" y="214.692372" width="345" height="47" rx="23.5"></rect>
            <rect id="h6" x="48.1750389" y="214.692372" width="173" height="47" rx="23.5"></rect>
            <rect id="h9" x="48.1750389" y="304.692372" width="120" height="43" rx="21.5"></rect>
            <rect id="h10" x="206.175039" y="305.692372" width="83" height="43" rx="21.5"></rect>
            <rect id="h13" x="415.175039" y="305.692372" width="83" height="43" rx="21.5"></rect>
            <circle id="h11" cx="352.675039" cy="330.192372" r="25.5"></circle>
            <circle id="h12" cx="437.175039" cy="327.692372" r="22"></circle>
            <path d="M633.675039,173.692372 L569.675039,173.692372 C557.800917,173.692372 548.175039,164.066495 548.175039,152.192372 C548.175039,140.31825 557.800917,130.692372 569.675039,130.692372 L633.675039,130.692372" id="h5"></path>
            <rect id="h4" x="323.175039" y="130.692372" width="175" height="43" rx="5"></rect>
            <path d="M633.675039,86.6923724 L573.675039,86.6923724 C559.591778,86.6923724 548.175039,75.2756336 548.175039,61.1923724 C548.175039,47.1091113 559.591778,35.6923724 573.675039,35.6923724 L633.675039,35.6923724" id="h3"></path>
            <path d="M286.916627,2.27373675e-13 L286.916627,86.6923724 C287.536036,91.8237328 290.836257,94.389413 296.81729,94.389413 C302.798322,94.389413 363.645152,94.389413 479.357777,94.389413 C485.842241,94.6394615 489.084473,92.0737813 489.084473,86.6923724 C489.084473,81.3109636 489.780341,52.4135061 491.172078,2.27373675e-13 L286.916627,2.27373675e-13 Z" id="h2"></path>
            <path d="M286.660052,7.95807864e-13 L102.088671,7.95807864e-13 C39.6794792,16.5789486 6.59157586,60.5090453 2.82496108,131.79029 C2.82496108,131.79029 97.522183,131.424317 286.916627,130.692372 L286.660052,7.95807864e-13 Z" id="h1"></path>
        </g>
    </g>
</svg>