<?xml version="1.0" encoding="UTF-8"?>
<svg width="587px" height="364px" viewBox="0 0 587 364" version="1.1" xmlns="http://www.w3.org/2000/svg" xmlns:xlink="http://www.w3.org/1999/xlink">
    <!-- Generator: Sketch 64 (93537) - https://sketch.com -->
    <title>VOLAHANGBOARD</title>
    <desc>Created with Sketch.</desc>
    <g id="Page-1" stroke="none" stroke-width="1" fill="none" fill-rule="evenodd">
        <g id="VOLAHANGBOARD" transform="translate(1.000000, 1.000000)" fill="#FFFFFF" fill-rule="nonzero" stroke="#000000">
            <path d="M586,0 L94.4079497,0 C36.6941624,15.3706929 6.09565348,56.0992119 2.61242292,122.185557 C-0.870807639,188.271902 -0.870807639,258.442678 2.61242292,332.697885 C2.32457032,352.232628 16.7037988,362 45.7501084,362 C74.7964179,362 254.879715,362 586,362" id="hangboard"></path>
            <path d="M586,330 L530.561404,330 C517.5488,330 507,319.254835 507,306 C507,292.745166 517.5488,282 530.561404,282 L586,282" id="h14"></path>
            <rect id="h8" x="44" y="199" width="482" height="43" rx="21.5"></rect>
            <rect id="h7" x="45" y="199" width="319" height="43" rx="21.5"></rect>
            <rect id="h6" x="44" y="199" width="160" height="43" rx="21.5"></rect>
            <rect id="h9" x="45" y="282" width="111" height="39" rx="19.5"></rect>
            <rect id="h10" x="190" y="283" width="77" height="39" rx="19.5"></rect>
            <rect id="h13" x="384" y="283" width="77" height="39" rx="19.5"></rect>
            <ellipse id="h11" cx="325.5" cy="306" rx="23.5" ry="24"></ellipse>
            <circle id="h12" cx="404" cy="303" r="20"></circle>
            <path d="M586,161 L526.865497,161 C515.894086,161 507,152.269553 507,141.5 C507,130.730447 515.894086,122 526.865497,122 L586,122" id="h5"></path>
            <rect id="h4" x="299" y="122" width="162" height="39" rx="5"></rect>
            <path d="M586,81 L530.561404,81 C517.5488,81 507,70.2548341 507,57 C507,43.745166 517.5488,33 530.561404,33 L586,33" id="h3"></path>
            <path d="M265,1 L265,80.8914375 C265.573147,85.6202475 268.62688,87.9846525 274.161201,87.9846525 C279.695521,87.9846525 335.997817,87.9846525 443.068087,87.9846525 C449.068238,88.2150849 452.068314,85.8506799 452.068314,80.8914375 C452.068314,75.9321951 452.712209,49.3017159 454,1 L265,1 Z" id="h2"></path>
            <path d="M264.762474,0 L93.8941273,0 C36.1183478,15.3473502 5.48697201,56.0140169 2,122 C2,122 89.6666666,121.661214 265,120.983643 L264.762474,0 Z" id="h1"></path>
        </g>
    </g>
</svg>