<?xml version="1.0" encoding="UTF-8"?>
<svg width="661px" height="344px" viewBox="0 0 661 344" version="1.1" xmlns="http://www.w3.org/2000/svg" xmlns:xlink="http://www.w3.org/1999/xlink">
    <!-- Generator: Sketch 64 (93537) - https://sketch.com -->
    <title>Transformer</title>
    <desc>Created with Sketch.</desc>
    <g id="Page-1" stroke="none" stroke-width="1" fill="none" fill-rule="evenodd">
        <g id="Transformer" transform="translate(0.000000, -0.059917)" fill="#FFFFFF" stroke="#000000">
            <path d="M661,339.987891 L49.4846798,343.059917 C39.2322143,343.059917 35.5144226,341.992422 31.7662744,339.987891 C28.0181263,337.983359 25.0765577,335.04179 23.0720261,331.293642 C21.0674945,327.545494 20,323.827702 20,313.575237 L20,95.7958987 C20,64.5927428 23.2488964,53.2777244 29.3496446,41.870317 C35.4503929,30.4629096 44.402993,21.5103095 55.8104004,15.4095613 C67.2178078,9.30881306 78.5328261,6.05991667 109.735982,6.05991667 L661,6.05991667" id="wood"></path>
            <g id="Kurt" transform="translate(34.000000, 154.059917)">
                <path d="M626.804367,4.26325641e-14 L560.123557,4.26325641e-14 C545.718477,1.10881596 532.834893,5.67389823 521.472805,13.6952468 C510.110716,21.7165954 479.100195,40.5676578 428.44124,70.248434 C405.812343,83.890086 378.474848,90.710912 346.428757,90.710912 C314.382665,90.710912 209.305976,90.710912 31.1986904,90.710912 C14.329443,89.5828497 4.36439126,93.0325179 1.30353516,101.059917 C-1.75732094,109.087315 0.57226448,118.330672 8.29229142,128.789987 L38.9467057,180.467837 C40.8201402,185.522418 48.9325998,188.049709 63.2840847,188.049709 C77.6355695,188.049709 192.258675,188.049709 407.153402,188.049709 C417.612717,188.377232 425.885365,185.849942 431.971348,180.467837 C438.05733,175.085733 454.979577,160.263805 482.738088,136.002054 C524.121577,98.5309825 557.945823,79.7954466 584.210827,79.7954466 C610.475831,79.7954466 624.673677,79.7954466 626.804367,79.7954466" id="board"></path>
                <path d="M399.804367,117.059917 C412.506916,117.059917 422.804367,127.357367 422.804367,140.059917 C422.804367,152.762466 412.506916,163.059917 399.804367,163.059917 C392.797735,163.059917 386.522865,159.926872 382.304286,154.985313 C378.085869,159.926872 371.810999,163.059917 364.804367,163.059917 C352.101818,163.059917 341.804367,152.762466 341.804367,140.059917 C341.804367,127.357367 352.101818,117.059917 364.804367,117.059917 C371.810999,117.059917 378.085869,120.192961 382.304448,125.134521 C386.522865,120.192961 392.797735,117.059917 399.804367,117.059917 Z" id="h7"></path>
                <path d="M290.804367,117.059917 C303.506916,117.059917 313.804367,127.357367 313.804367,140.059917 C313.804367,152.762466 303.506916,163.059917 290.804367,163.059917 C283.220408,163.059917 276.49377,159.389293 272.304113,153.727707 C268.114964,159.389293 261.388326,163.059917 253.804367,163.059917 C247.069601,163.059917 241.010912,160.165287 236.804554,155.552283 C232.597822,160.165287 226.539133,163.059917 219.804367,163.059917 C207.101818,163.059917 196.804367,152.762466 196.804367,140.059917 C196.804367,127.357367 207.101818,117.059917 219.804367,117.059917 C226.539133,117.059917 232.597822,119.954546 236.80418,124.56755 C241.010912,119.954546 247.069601,117.059917 253.804367,117.059917 C261.388326,117.059917 268.114964,120.73054 272.304622,126.392127 C276.49377,120.73054 283.220408,117.059917 290.804367,117.059917 Z" id="h6"></path>
                <path d="M61.804367,117.059917 L145.804367,117.059917 C158.506916,117.059917 168.804367,127.357367 168.804367,140.059917 C168.804367,152.762466 158.506916,163.059917 145.804367,163.059917 L61.804367,163.059917 C49.1018178,163.059917 38.804367,152.762466 38.804367,140.059917 C38.804367,127.357367 49.1018178,117.059917 61.804367,117.059917 Z" id="h5"></path>
            </g>
            <g id="Top" transform="translate(0.688047, 0.718704)">
                <path d="M0,126.108501 C-0.131319891,113.801946 3.533893,103.727611 10.9956387,95.8854968 C18.4573844,88.0433825 43.5171562,60.8443088 86.1749543,14.2882758 C92.9379084,4.76275858 110.95597,-1.98951966e-13 140.22914,-1.98951966e-13 C169.502309,-1.98951966e-13 293.251981,-1.98951966e-13 511.478156,-1.98951966e-13 C529.993414,1.54864369 539.251043,12.0196486 539.251043,31.4130147 C539.251043,50.8063808 539.251043,65.34733 539.251043,75.0358623 C539.332551,87.0359491 532.592962,99.6478859 519.032277,112.871673 C505.471592,126.09546 480.034712,150.252128 442.721637,185.341677 C431.194294,196.54299 410.382696,202.143646 380.286844,202.143646 C350.190991,202.143646 237.397022,202.143646 41.9049366,202.143646 C13.9683122,202.407991 0,193.120541 0,174.281296 C0,155.442051 0,139.384453 0,126.108501 Z" id="board"></path>
                <path d="M320.811953,126.341213 L401.811953,126.341213 C412.029221,126.341213 420.311953,134.623945 420.311953,144.841213 C420.311953,155.058481 412.029221,163.341213 401.811953,163.341213 L320.811953,163.341213 C310.594685,163.341213 302.311953,155.058481 302.311953,144.841213 C302.311953,134.623945 310.594685,126.341213 320.811953,126.341213 Z" id="h4"></path>
                <path d="M72.8119531,126.341213 L224.811953,126.341213 C235.029221,126.341213 243.311953,134.623945 243.311953,144.841213 C243.311953,155.058481 235.029221,163.341213 224.811953,163.341213 L72.8119531,163.341213 C62.5946852,163.341213 54.3119531,155.058481 54.3119531,144.841213 C54.3119531,134.623945 62.5946852,126.341213 72.8119531,126.341213 Z" id="h3"></path>
                <path d="M320.811953,38.3412131 L472.811953,38.3412131 C483.029221,38.3412131 491.311953,46.6239452 491.311953,56.8412131 C491.311953,67.0584809 483.029221,75.3412131 472.811953,75.3412131 L320.811953,75.3412131 C310.594685,75.3412131 302.311953,67.0584809 302.311953,56.8412131 C302.311953,46.6239452 310.594685,38.3412131 320.811953,38.3412131 Z" id="h2"></path>
                <path d="M143.811953,38.3412131 L224.811953,38.3412131 C235.029221,38.3412131 243.311953,46.6239452 243.311953,56.8412131 C243.311953,67.0584809 235.029221,75.3412131 224.811953,75.3412131 L143.811953,75.3412131 C133.594685,75.3412131 125.311953,67.0584809 125.311953,56.8412131 C125.311953,46.6239452 133.594685,38.3412131 143.811953,38.3412131 Z" id="h1"></path>
            </g>
        </g>
    </g>
</svg>