<?xml version="1.0" encoding="UTF-8"?>
<svg width="588px" height="311px" viewBox="0 0 588 311" version="1.1" xmlns="http://www.w3.org/2000/svg" xmlns:xlink="http://www.w3.org/1999/xlink">
    <title>WHITEOAKSTAND</title>
    <g id="Page-1" stroke="none" stroke-width="1" fill="none" fill-rule="evenodd">
        <g id="WHITEOAKSTAND" transform="translate(0.000000, 1.000000)" fill="#FFFFFF" stroke="#000000">
            <path d="M587,15.5439829 L6.3768979,15.5439829 C2.7145353,15.4941406 0.883354,16.7909454 0.883354,19.4358619 C0.883354,22.0807785 6.40605785,113.927674 17.4514655,294.976549 C17.8008101,304.235083 28.5956022,308.864349 49.8358417,308.864349 C71.0760812,308.864349 250.130801,308.864349 587,308.864349" id="board" fill-rule="nonzero"></path>
            <path d="M586.997936,278 L400.5,278 C385.31217,278 373,265.68783 373,250.5 C373,235.312169 385.31217,223 400.5,223 L587.03097,223" id="h9" fill-rule="nonzero"></path>
            <rect id="h8" fill-rule="nonzero" x="233" y="223" width="96" height="55" rx="27.5"></rect>
            <rect id="h7" fill-rule="nonzero" x="49.0000004" y="223" width="140" height="55" rx="27.5"></rect>
            <path d="M587.021824,190 L293.5,190 C278.31217,190 266,177.68783 266,162.5 C266,147.312169 278.31217,135 293.5,135 L587.038986,135" id="h6" fill-rule="nonzero"></path>
            <rect id="h5" fill-rule="nonzero" x="39.0000004" y="135" width="183" height="55" rx="27.5"></rect>
            <rect id="h4" fill-rule="nonzero" x="433" y="49.9999998" width="108" height="55" rx="27.5"></rect>
            <rect id="h3" fill-rule="nonzero" x="253" y="46.9999998" width="140" height="55" rx="27.5"></rect>
            <rect id="h2" fill-rule="nonzero" x="32.0000004" y="46.9999998" width="183" height="55" rx="27.5"></rect>
            <path d="M587,15.5454474 L5.83812359,15.5454474 C2.74580841,15.9116735 1.09421854,17.0220024 0.883354,18.8764342 C0.672489456,20.7308659 1.86138704,15.7246618 4.45004675,3.85782188 C5.50559551,1.98758576 7.25702235,1.0524677 9.70432729,1.0524677 C12.1516322,1.0524677 204.916856,0.701645131 588,0" id="h1"></path>
        </g>
    </g>
</svg>