<?xml version="1.0" encoding="UTF-8"?>
<svg width="588px" height="295px" viewBox="0 0 588 295" version="1.1" xmlns="http://www.w3.org/2000/svg" xmlns:xlink="http://www.w3.org/1999/xlink">
    <title>WHITEOAKSTAND</title>
    <g id="Page-1" stroke="none" stroke-width="1" fill="none" fill-rule="evenodd">
        <g id="WHITEOAKSTAND" transform="translate(0.883354, 0.541215)" fill="#FFFFFF" stroke="#000000">
            <path d="M586.116646,0.00423238576 L5.4935439,0.00423238576 C1.8311813,-0.0470744427 0,1.24973041 0,3.89464693 C0,6.53956346 5.52270385,98.3864593 16.5681115,279.435334 C16.9174561,288.693868 27.7122482,293.323134 48.9524877,293.323134 C70.1927272,293.323134 249.247447,293.323134 586.116646,293.323134" id="board"></path>
            <path d="M586.114582,262.458785 L586.114582,262.458785 L399.616646,262.458785 C384.428816,262.458785 372.116646,250.146615 372.116646,234.958785 C372.116646,219.770954 384.428816,207.458785 399.616646,207.458785 L586.147616,207.458785 L586.147616,207.458785" id="h8"></path>
            <rect id="h7" x="232.116646" y="207.458785" width="96" height="55" rx="27.5"></rect>
            <rect id="h6" x="48.1166464" y="207.458785" width="140" height="55" rx="27.5"></rect>
            <path d="M586.13847,174.458785 L292.616646,174.458785 C277.428816,174.458785 265.116646,162.146615 265.116646,146.958785 C265.116646,131.770954 277.428816,119.458785 292.616646,119.458785 L586.155632,119.458785" id="h5"></path>
            <rect id="h4" x="38.1166464" y="119.458785" width="183" height="55" rx="27.5"></rect>
            <rect id="h3" x="432.116646" y="34.4587848" width="108" height="55" rx="27.5"></rect>
            <rect id="h2" x="252.116646" y="31.4587848" width="140" height="55" rx="27.5"></rect>
            <rect id="h1" x="31.1166464" y="31.4587848" width="183" height="55" rx="27.5"></rect>
        </g>
    </g>
</svg>