<?xml version="1.0" encoding="UTF-8"?>
<svg width="1331px" height="703px" viewBox="0 0 1331 703" version="1.1" xmlns="http://www.w3.org/2000/svg" xmlns:xlink="http://www.w3.org/1999/xlink">
    <title>WHITEOAKSTAND</title>
    <g id="Page-1" stroke="none" stroke-width="1" fill="none" fill-rule="evenodd">
        <g id="WHITEOAKSTAND" transform="translate(1.000000, 1.000000)" fill="#FFFFFF" fill-rule="nonzero" stroke="#000000">
            <path d="M1330,35 L12.4658009,35 C4.15526695,34.8899723 0,37.8344249 0,43.8398248 C0,49.8452248 12.5319698,258.387662 37.5959094,669.467136 C38.3886326,690.489047 62.8838822,701 111.081658,701 C159.279433,701 565.585548,701 1330,701" id="board"></path>
            <path d="M1329.92499,631 L906.444234,631 C871.957237,631 844,603.017795 844,568.5 C844,533.982202 871.957237,506 906.444234,506 L1330,506" id="h9"></path>
            <rect id="h8" x="527" y="506" width="218" height="125" rx="27.5"></rect>
            <rect id="h7" x="109" y="506" width="318" height="125" rx="27.5"></rect>
            <path d="M1330,431 L664.445687,431 C629.957888,431 602,403.017795 602,368.5 C602,333.982202 629.957888,306 664.445687,306 L1330,306" id="Path"></path>
            <rect id="h5" x="87" y="306" width="415" height="125" rx="27.5"></rect>
            <rect id="h4" x="981" y="113" width="245" height="125" rx="27.5"></rect>
            <rect id="h3" x="572" y="107" width="318" height="125" rx="27.5"></rect>
            <rect id="h2" x="71" y="107" width="415" height="125" rx="27.5"></rect>
            <path d="M1329.91154,35.5280693 L11.296079,35.5280693 C4.27983311,36.3650543 0.532491741,38.9026359 0.0540549156,43.1408144 C-0.424381919,47.3789928 2.27314317,35.9376517 8.14663017,8.81679115 C10.5415961,4.54249291 14.5154606,2.40534379 20.0682235,2.40534379 C25.6209864,2.40534379 460.811262,1.60356252 1330,0" id="h1"></path>
        </g>
    </g>
</svg>