<?xml version="1.0" encoding="UTF-8"?>
<svg width="334px" height="182px" viewBox="0 0 334 182" version="1.1" xmlns="http://www.w3.org/2000/svg" xmlns:xlink="http://www.w3.org/1999/xlink">
    <!-- Generator: Sketch 58 (84663) - https://sketch.com -->
    <title>WITCHHOLDSEASY</title>
    <desc>Created with Sketch.</desc>
    <g id="Page-1" stroke="none" stroke-width="1" fill="none" fill-rule="evenodd">
        <g id="WITCHHOLDSEASY" transform="translate(0.478908, 0.638184)" fill="#FFFFFF">
            <polyline id="hangboard" stroke="#000000" points="333.521092 179.959961 33.8550762 179.959961 68.6626934 42.1069336 333.521092 42.1069336"></polyline>
            <path d="M232.427342,14.1274414 L131.449803,14.1274414 C124.612319,13.7626953 119.275568,9.05354818 115.439549,8.70414851e-13 C115.319188,8.70414851e-13 112.525242,4.18261719 107.057713,12.5478516 L107.057713,26.519043 L232.427342,26.519043 L232.427342,14.1274414 Z" id="h1" stroke="#000000"></path>
            <path d="M333.521092,14.1274414 L232.427342,14.1274414 C230.097264,19.8556315 226.351984,22.7197266 221.191502,22.7197266 C216.03102,22.7197266 182.567316,22.7197266 120.800389,22.7197266 C115.998305,22.7197266 113.597264,19.8556315 113.597264,14.1274414 C113.597264,8.3992513 114.078384,3.69010417 115.040623,1.77635684e-12 C101.214126,1.77635684e-12 87.0310202,6.01660156 72.4913067,18.0498047 C57.9515931,30.0830078 49.85117,46.3434245 48.1900372,66.8310547 C48.7671856,72.1380208 48.7671856,79.1020508 48.1900372,87.7231445 C47.6128887,96.3442383 40.3619122,102.825033 26.4371075,107.165527 C9.88958142,114.682454 1.10003064,127.389648 0.0684551215,145.287109 C-1.47890816,172.133301 23.6158184,179.959961 33.8550762,179.959961 C44.094334,179.959961 72.4913067,170.564941 73.4712872,145.287109 C74.1246075,128.435221 71.4406882,115.728027 65.4195293,107.165527 C62.9039043,100.340332 63.3324525,93.8595378 66.7051739,87.7231445 C71.7642559,78.5185547 95.5572247,44.0170898 120.800389,44.0170898 C146.043553,44.0170898 119.571873,88.4267578 117.925389,91.3432617 C116.278904,94.2597656 101.417576,125.339355 129.587986,125.339355 C148.36826,125.339355 216.345962,125.339355 333.521092,125.339355" id="hangboard" stroke="#000000"></path>
            <path d="M333.521092,166.361816 L230.021092,166.361816 C223.669817,166.361816 218.521092,161.213091 218.521092,154.861816 C218.521092,148.510542 223.669817,143.361816 230.021092,143.361816 L333.525975,143.361816" id="h11" stroke="#000000"></path>
            <rect id="h10" stroke="#000000" x="117.521092" y="143.361816" width="78" height="23" rx="11.5"></rect>
            <circle id="h9" cx="36.5210918" cy="142.361816" r="30"></circle>
            <path d="M333.521092,112.361816 L333.525975,112.361816 L242.021092,112.361816 C235.669817,112.361816 230.521092,105.198372 230.521092,96.3618164 C230.521092,87.5252604 235.669817,80.3618164 242.021092,80.3618164 L242.021092,80.3618164 L333.525975,80.3618164 L333.442723,80.3618164" id="h8" stroke="#000000"></path>
            <circle id="h7" stroke="#000000" cx="207.021092" cy="104.861816" r="11.5"></circle>
            <rect id="h6" stroke="#000000" x="173.521092" y="93.3618164" width="45" height="23" rx="11.5"></rect>
            <rect id="h5" stroke="#000000" x="121.521092" y="93.3618164" width="45" height="23" rx="11.5"></rect>
            <circle id="h4" stroke="#000000" cx="133.021092" cy="104.861816" r="11.5"></circle>
            <rect id="h3" stroke="#000000" x="140.521092" y="50.3618164" width="80" height="23" rx="11.5"></rect>
            <path d="M333.521092,59.3618164 L333.525975,59.3618164 L242.021092,59.3618164 C235.669817,59.3618164 230.521092,54.213091 230.521092,47.8618164 C230.521092,41.5105418 235.669817,36.3618164 242.021092,36.3618164 L242.021092,36.3618164 L333.525975,36.3618164 L333.442723,36.3618164" id="h2" stroke="#000000"></path>
        </g>
    </g>
</svg>