<?xml version="1.0" encoding="UTF-8"?>
<svg width="338px" height="212px" viewBox="0 0 338 212" version="1.1" xmlns="http://www.w3.org/2000/svg" xmlns:xlink="http://www.w3.org/1999/xlink">
    <title>WITCHHOLDSHARD</title>
    <g id="Page-1" stroke="none" stroke-width="1" fill="none" fill-rule="evenodd">
        <g id="WITCHHOLDSHARD" transform="translate(1.000000, 1.308873)" fill="#FFFFFF">
            <polyline id="Shape" stroke="#000000" points="337 209.209194 23.9990234 209.209194 23.9990234 57.1286271 337 57.1286271"></polyline>
            <path d="M215.716309,20.3927873 L215.716309,45.6637834 L75.4223633,45.6637834 C75.4223633,16.9429175 75.4223633,1.94259197 75.4223633,0.662806815 C75.4223633,-1.25687092 81.6357422,20.3927873 88.7441406,20.3927873 C93.4830729,20.3927873 135.807129,20.3927873 215.716309,20.3927873 Z" id="h2" stroke="#000000"></path>
            <path d="M337,156.995815 C220.190755,156.995815 144.904297,156.995815 111.140625,156.995815 C60.4951172,156.995815 90.5917969,98.7262834 95.6484375,90.3805803 C100.705078,82.0348771 101.689453,58.8659318 87.5458984,58.8659318 C73.4023437,58.8659318 62.6953125,68.8424943 62.6953125,76.9303849 C62.6953125,85.0182756 53.8115234,95.095424 53.8115234,104.604597 C53.8115234,114.11377 59.1298828,117.709682 59.1298828,126.990932 C59.1298828,136.272182 52.5214844,141.959682 52.5214844,153.940151 C52.5214844,165.920619 59.1298828,164.248744 59.1298828,183.414272 C59.1298828,202.579799 35.2583008,209.209194 23.9990234,209.209194 C12.7397461,209.209194 0,196.933315 0,183.414272 C0,169.895229 5.86767578,167.859584 7.41992187,156.995815 C8.97216797,146.132045 0,138.456264 0,130.177944 C0,121.899623 7.41992187,106.368862 7.41992187,100.597377 C7.41992188,94.8258928 2,89.6911271 2,81.3586076 C2,73.0260881 4.92480469,42.5163224 23.9990234,24.3327287 C43.0732422,6.14913494 69.2089844,1.07882244 72.8183594,0.198939627 C75.2246094,-0.387648915 76.0926107,0.322963065 75.4223633,2.33077556 C75.4223633,17.5610816 75.4223633,27.1486467 75.4223633,31.0934709 C75.4223633,37.0107072 82.5456543,42.5163224 86.236084,42.5163224 C89.9265137,42.5163224 179.502441,42.5163224 198.75293,42.5163224 C211.586589,42.5163224 217.241048,35.1418107 215.716309,20.3927873 L337,20.3927873" id="Path-30" stroke="#000000"></path>
            <path d="M337,190.691127 L227.5,190.691127 C220.044156,190.691127 214,184.646971 214,177.191127 C214,169.735283 220.044156,163.691127 227.5,163.691127 L337,163.691127" id="h14" stroke="#000000"></path>
            <rect id="h13" stroke="#000000" x="113" y="164.691127" width="89" height="27" rx="13.5"></rect>
            <rect id="h12" stroke="#000000" x="13" y="166.691127" width="27" height="27" rx="13.5"></rect>
            <path d="M337,140.691127 L227.5,140.691127 C220.044156,140.691127 214,134.646971 214,127.191127 C214,119.735283 220.044156,113.691127 227.5,113.691127 L337,113.691127" id="h11" stroke="#000000"></path>
            <rect id="h10" stroke="#000000" x="151" y="114.691127" width="51" height="27" rx="13.5"></rect>
            <rect id="h9" stroke="#000000" x="175" y="114.691127" width="27" height="27" rx="13.5"></rect>
            <rect id="h8" stroke="#000000" x="92" y="113.691127" width="51" height="27" rx="13.5"></rect>
            <rect id="h7" stroke="#000000" x="92" y="113.691127" width="27" height="27" rx="13.5"></rect>
            <rect id="h6" stroke="#000000" x="13" y="113.691127" width="27" height="27" rx="13.5"></rect>
            <path d="M337,89.6911271 L227.5,89.6911271 C220.044156,89.6911271 214,83.6469712 214,76.1911271 C214,68.735283 220.044156,62.6911271 227.5,62.6911271 L337,62.6911271" id="h5" stroke="#000000"></path>
            <rect id="h4" stroke="#000000" x="111" y="62.6911271" width="93" height="27" rx="13.5"></rect>
            <path d="M337,23.1030381 L219.461914,23.1030381 C218.902018,36.4649635 223.937174,43.1459262 234.567383,43.1459262 C245.197591,43.1459262 279.341797,43.1459262 337,43.1459262" id="h3"></path>
            <path d="M71.6462054,3.63476552 C71.6462054,3.63476552 71.6462054,13.486328 71.6462054,33.189453 C71.4765625,39.8271018 68.8329613,43.1459262 63.7154018,43.1459262 C58.5978423,43.1459262 42.469122,43.1459262 15.3292411,43.1459262 C25.0383185,25.0194381 43.8106399,11.8490512 71.6462054,3.63476552 Z" id="h1"></path>
        </g>
    </g>
</svg>