<?xml version="1.0" encoding="UTF-8"?>
<svg width="526px" height="219px" viewBox="0 0 526 219" version="1.1" xmlns="http://www.w3.org/2000/svg" xmlns:xlink="http://www.w3.org/1999/xlink">
    <title>WOODROCKNOMAD</title>
    <g id="Page-1" stroke="none" stroke-width="1" fill="none" fill-rule="evenodd">
        <g id="WOODROCKNOMAD" transform="translate(1.000000, 1.331675)" fill="#FFFFFF" stroke="#000000">
            <path d="M525,216.668325 L11.2363426,216.668325 C3.74544752,216.670601 0,208.509888 0,192.186185 C0,175.862482 0,123.340021 0,34.6188009 C0,23.3184835 3.74544752,17.6683248 11.2363426,17.6683248 C18.7272376,17.6683248 189.98179,17.6683248 525,17.6683248" id="board"></path>
            <rect id="h5" x="305" y="135.668325" width="113" height="47" rx="23.5"></rect>
            <rect id="h4" x="55" y="135.668325" width="220" height="47" rx="23.5"></rect>
            <path d="M525,105.668325 L333.265928,105.668325 C320.416511,105.668325 310,95.1470165 310,82.1683248 C310,69.1896332 320.416511,58.6683248 333.265928,58.6683248 L525,58.6683248" id="h3"></path>
            <path d="M525,105.668325 L78.265928,105.668325 C65.4165108,105.668325 55,95.1470165 55,82.1683248 C55,69.1896332 65.4165108,58.6683248 78.265928,58.6683248 L525,58.6683248" id="h2"></path>
            <path d="M525,17.6683248 C192.9265,17.6683248 22.4081249,17.6683248 13.444875,17.6683248 C4.48162499,17.6683248 9.09494702e-13,23.3184835 9.09494702e-13,34.6188009 C1.69975325,11.5396003 8.97810009,1.31450406e-13 21.8350405,1.31450406e-13 C34.6919809,1.31450406e-13 202.413634,1.31450406e-13 525,1.31450406e-13" id="h1"></path>
        </g>
    </g>
</svg>