<?xml version="1.0" encoding="UTF-8"?>
<svg width="609px" height="544px" viewBox="0 0 609 544" version="1.1" xmlns="http://www.w3.org/2000/svg" xmlns:xlink="http://www.w3.org/1999/xlink">
    <title>WOODOCHANGE2</title>
    <g id="Page-1" stroke="none" stroke-width="1" fill="none" fill-rule="evenodd">
        <g id="WOODOCHANGE2" transform="translate(1.000000, 1.000000)" fill="#FFFFFF" fill-rule="nonzero" stroke="#000000">
            <path d="M608,37.594981 L432.422548,37.594981 C420.127024,36.9378703 413.979262,33.648925 413.979262,27.7281452 C413.979262,27.7281452 360.424804,27.7281452 253.315888,27.7281452 C184.013653,27.1606095 132.656607,35.8475197 99.2447495,53.7888759 C49.1269635,80.7009101 29.0289349,101.350192 29.0289349,123.609581 C29.0289349,145.868971 41.0249342,157.816824 71.8246402,183.574812 C92.3577776,200.746804 101.497814,216.376907 99.2447495,230.465121 C95.6793291,248.291349 90.2179559,267.231595 82.8606296,287.28586 C75.5033034,307.340125 48.5778732,378.061495 2.08433912,499.449969 C-4.86594962,528.040231 6.30823663,542.335362 35.6068979,542.335362 C64.9055591,542.335362 103.116523,542.335362 150.23979,542.335362 C171.640563,542.335362 182.340949,526.085736 182.340949,493.586484 C182.340949,461.087233 182.340949,389.036294 182.340949,277.433667 C181.088626,267.319071 184.675192,262.261774 193.100647,262.261774 C201.526103,262.261774 244.012519,262.102979 320.559898,261.785391 C333.795858,262.102979 340.413839,267.319071 340.413839,277.433667 C340.413839,287.548262 340.413839,299.072713 340.413839,312.00702 C339.895584,321.897129 343.038227,326.842183 349.841767,326.842183 C356.645307,326.842183 442.698052,326.842183 608,326.842183" id="Path"></path>
            <path d="M608,530.407028 L173.677192,530.407028 C179.662157,523.109405 182.65464,512.067335 182.65464,497.280816 C182.65464,483.533207 182.65464,414.773845 182.65464,291.002729 C182.65464,284.767121 190.877373,275.099545 207.322841,262 L608,262" id="board"></path>
            <path d="M39.5000001,520 C29.835017,520 22.0000001,512.164983 22.0000001,502.5 C22.0000001,492.835017 29.835017,485 39.5000001,485 C73.5513846,485 99.0899229,485 116.115615,485 C130,485 130,485 130,468.844342 C130,410.767822 130,323.653041 130,207.5 C130,197.835017 137.835017,190 147.5,190 C157.164983,190 165,197.835017 165,207.5 L165,502.5 C165,512.055154 157.34204,519.821695 147.82877,520 L147.5,520 L39.5000001,520 Z" id="h15"></path>
            <rect id="h14" transform="translate(76.992086, 403.945939) rotate(21.000000) translate(-76.992086, -403.945939) " x="55.4920858" y="335.945939" width="43" height="136" rx="21.5"></rect>
            <path d="M608,237 L375,237 C366.715729,237 360,230.284271 360,222 L360,206 C360,197.715729 366.715729,191 375,191 L608,191" id="h6"></path>
            <rect id="h7" x="182" y="262" width="158" height="101" rx="11"></rect>
            <path d="M608,167.931163 L350,167.931163 C340.666667,167.561526 336,171.11791 336,178.600317 L336,215 C336,229.911688 323.911688,242 309,242 L220,242 C205.088312,242 193,229.911688 193,215 L193,151 C193,136.088312 205.088312,124 220,124 L608,124" id="Path"></path>
            <rect id="h13" x="221" y="475" width="363" height="35" rx="17.5"></rect>
            <path d="M608,455 L238.5,455 C228.835017,455 221,447.164983 221,437.5 C221,427.835017 228.835017,420 238.5,420 L608,420" id="h12"></path>
            <rect id="h11" x="222" y="373" width="128" height="35" rx="17.5"></rect>
            <path d="M608,408 L238.5,408 C228.835017,408 221,400.164983 221,390.5 C221,380.835017 228.835017,373 238.5,373 L608,373" id="h10"></path>
            <path d="M608,361 L377.5,361 C367.835017,361 360,353.164983 360,343.5 C360,333.835017 367.835017,326 377.5,326 L608,326" id="h9"></path>
            <path d="M608,306 L377.5,306 C367.835017,306 360,296.150265 360,284 C360,271.849736 367.835017,262 377.5,262 L608,262" id="h8"></path>
            <path d="M608,104 L481.5,104 C465.759885,104 453,91.2401155 453,75.5000002 L453,72.5000002 C453,56.7598848 465.759885,44.0000002 481.5,44.0000002 L608,44.0000002" id="h4"></path>
            <path d="M335.787603,77.8216777 C319.860348,77.8216777 298.189247,86.5225404 283.824114,97.858996 C274.247359,105.416633 266.51815,105.416633 260.636486,97.858996 C253.57021,86.4942352 256.019516,76.4817385 267.984403,67.8215059 C285.931733,54.8311569 303.437868,44.2064806 335.787603,44.2064806 C368.137339,44.2064806 303.351185,44.2064806 335.700921,44.2064806 C368.050657,44.2064806 385.556791,54.8311569 403.504121,67.8215059 C415.469008,76.4817385 417.918314,86.4942352 410.852039,97.858996 C404.970375,105.416633 397.241165,105.416633 387.66441,97.858996 C373.299277,86.5225404 351.628176,77.8216777 335.700921,77.8216777" id="h3"></path>
            <path d="M608,37.594981 L432.422548,37.594981 C417.483375,36.8178262 411.619817,31.405538 414.831875,21.3581165 C418.043934,11.310695 420.381831,4.22431285 421.845567,0.09897 L608,0.09897" id="h2"></path>
            <path d="M421.845567,0.09897 L285.860854,0.09897 C279.403656,0.719465005 274.233276,3.56691966 270.349713,8.64133395 C266.46615,13.7157483 260.788209,20.0780187 253.315888,27.7281452 L413.979262,27.7281452 C413.738383,26.0838966 414.022587,23.9605537 414.831875,21.3581165 C415.641163,18.7556794 417.97906,11.6692972 421.845567,0.09897 Z" id="h1"></path>
        </g>
    </g>
</svg>