<?xml version="1.0" encoding="UTF-8"?>
<svg width="587px" height="356px" viewBox="0 0 587 356" version="1.1" xmlns="http://www.w3.org/2000/svg" xmlns:xlink="http://www.w3.org/1999/xlink">
    <title>WOODROCKVARAPPE</title>
    <g id="Page-1" stroke="none" stroke-width="1" fill="none" fill-rule="evenodd">
        <g id="WOODROCKVARAPPE" transform="translate(0.068886, 1.000000)" fill="#FFFFFF" stroke="#000000">
            <rect id="h15" x="148.931114" y="247" width="78" height="102"></rect>
            <rect id="h14" x="60.9311135" y="247" width="75" height="102"></rect>
            <path d="M187.408753,0 C203.314243,10.5545344 229.784364,17.590732 266.819114,21.108593 C266.819114,21.108593 341.614428,19.4286974 373.175144,19.4286974 C373.175144,19.4286974 375.375663,24.1247924 379.776699,33.5169824 L382.931114,65 L183.218487,65 L181.931114,15.8318015 L187.408753,0 Z" id="h2"></path>
            <polyline id="h17" points="585.931114 354 494.931114 354 494.931114 248 585.931114 248"></polyline>
            <path d="M585.931114,247.577073 C525.120022,255.614278 494.714477,291.088588 494.714477,354 C494.714477,354 486.975751,354 471.4983,354 L228.288385,349.192275 C214.689689,349.192275 207.890342,343.337805 207.890342,331.628865 C207.890342,319.919925 207.890342,299.798853 207.890342,271.265649 C207.381158,256.707883 199.642984,249.429001 184.675821,249.429001 C169.708658,249.429001 162.319518,256.707883 162.508402,271.265649 L162.508402,331.628865 C162.508402,343.337805 160.807992,349.192275 157.407172,349.192275 C152.305941,349.192275 140.857572,349.192275 135.663094,349.192275 C130.468616,349.192275 130.468616,344.87261 130.468616,331.628865 C130.468616,320.019701 130.468616,299.898628 130.468616,271.265649 C131.027979,256.707883 124.074888,249.429001 109.609344,249.429001 C95.1438005,249.429001 87.1637792,256.707883 85.6692805,271.265649 L85.6692805,331.628865 C87.4760695,343.337805 81.6867692,349.192275 68.3013796,349.192275 C48.2232952,349.192275 16.9925656,348.118604 16.9925656,324.45357 C16.9925656,300.788536 23.6366765,274.223691 45.969028,236.721628 C68.3013796,199.219565 65.3444103,203.366478 65.3444103,176.033812 C65.3444103,148.701147 41.8046831,121.143052 23.4739742,108.492386 C5.14326523,95.8417214 3.37629648,98.1474273 3.37629648,82.5051031 C3.37629648,72.076887 2.57260745,54.137043 0.965229393,28.685571 C0.538242495,20.2285237 4.11931502,16 11.708447,16 C19.2975789,16 76.1178314,16 182.169205,16 C181.527287,46.8305324 198.511132,62.2457985 233.120738,62.2457985 C267.730344,62.2457985 304.05361,62.2457985 342.090536,62.2457985 C367.264948,62.2457985 379.852154,52.7638624 379.852154,33.7999901 C379.852154,33.7999901 448.54514,33.7999901 585.931114,33.7999901" id="board"></path>
            <rect id="h8" x="358.931114" y="110" width="119" height="47" rx="23.5"></rect>
            <rect id="h7" x="172.931114" y="110" width="163" height="47" rx="23.5"></rect>
            <rect id="h4" x="24.9311135" y="42" width="119" height="47" rx="23.5"></rect>
            <rect id="h5" x="65.9311135" y="110" width="83" height="47" rx="23.5"></rect>
            <rect id="h10" x="83.9311135" y="179" width="163" height="47" rx="23.5"></rect>
            <rect id="h12" x="266.931114" y="213" width="79" height="47" rx="23.5"></rect>
            <circle id="h13" cx="322.431114" cy="236.5" r="23.5"></circle>
            <circle id="h6" cx="112.931114" cy="134" r="19"></circle>
            <rect id="h16" x="226.931114" y="277" width="163" height="47" rx="23.5"></rect>
            <path d="M585.931114,223 L382.197042,223 C369.347624,223 358.931114,212.478692 358.931114,199.5 C358.931114,186.521308 369.347624,176 382.197042,176 L585.931114,176" id="h11"></path>
            <path d="M585.931114,157 L521.188256,157 C508.343691,157 497.931114,146.478692 497.931114,133.5 C497.931114,120.521308 508.343691,110 521.188256,110 L585.931114,110" id="h9"></path>
            <path d="M585.931114,283 C548.59778,285.741363 529.931114,304.814826 529.931114,340.220388 C529.931114,349.406796 532.068731,354 536.343967,354 L585.931114,354" id="side"></path>
            <path d="M182.44955,15.750355 L187.931114,0 L11.6394051,0 L0.931113542,21 C2.64119955,17.5002366 7.05179656,15.750355 14.1629046,15.750355 C21.2740126,15.750355 77.3695612,15.750355 182.44955,15.750355 Z" id="h1"></path>
            <polyline id="h3" points="585.931114 34 379.537319 34 372.931114 20 585.931114 20"></polyline>
        </g>
    </g>
</svg>