<?xml version="1.0" encoding="UTF-8"?>
<svg width="610px" height="545px" viewBox="0 0 610 545" version="1.1" xmlns="http://www.w3.org/2000/svg" xmlns:xlink="http://www.w3.org/1999/xlink">
    <title>WOODOCHANGE2</title>
    <g id="Page-1" stroke="none" stroke-width="1" fill="none" fill-rule="evenodd">
        <g id="WOODOCHANGE2" transform="translate(1.085391, 1.098970)" fill="#FFFFFF" stroke="#000000">
            <path d="M607.914609,37.496011 L432.337157,37.496011 C420.041633,36.8389003 413.893871,33.549955 413.893871,27.6291752 C413.893871,27.6291752 360.339413,27.6291752 253.230497,27.6291752 C183.928262,27.0616395 132.571216,35.7485497 99.1593585,53.6899059 C49.0415725,80.6019401 28.9435439,101.251222 28.9435439,123.510611 C28.9435439,145.770001 40.9395432,157.717854 71.7392492,183.475842 C92.2723866,200.647834 101.412423,216.277937 99.1593585,230.366151 C95.5939381,248.192379 90.1325649,267.132625 82.7752386,287.18689 C75.4179124,307.241155 48.4924822,377.962525 1.99894812,499.350999 C-4.95134062,527.941261 6.22284563,542.236392 35.5215069,542.236392 C64.8201681,542.236392 103.031132,542.236392 150.154399,542.236392 C171.555172,542.236392 182.255558,525.986766 182.255558,493.487514 C182.255558,460.988263 182.255558,388.937324 182.255558,277.334697 C181.003235,267.220101 184.589801,262.162804 193.015256,262.162804 C201.440712,262.162804 243.927128,262.004009 320.474507,261.686421 C333.710467,262.004009 340.328448,267.220101 340.328448,277.334697 C340.328448,287.449292 340.328448,298.973743 340.328448,311.90805 C339.810193,321.798159 342.952836,326.743213 349.756376,326.743213 C356.559916,326.743213 442.612661,326.743213 607.914609,326.743213 L607.914609,37.496011 Z" id="board"></path>
            <path d="M607.914609,530.308058 L173.591801,530.308058 C179.576766,523.010435 182.569249,511.968365 182.569249,497.181846 C182.569249,483.434237 182.569249,414.674875 182.569249,290.903759 C182.569249,284.668151 190.791982,275.000575 207.23745,261.90103 L607.914609,261.90103" id="board"></path>
            <path d="M39.4146091,519.90103 C29.749626,519.90103 21.9146091,512.066013 21.9146091,502.40103 C21.9146091,492.736047 29.749626,484.90103 39.4146091,484.90103 C73.4659936,484.90103 99.0045319,484.90103 116.030224,484.90103 C129.914609,484.90103 129.914609,484.90103 129.914609,468.745372 C129.914609,410.668852 129.914609,323.554071 129.914609,207.40103 C129.914609,197.736047 137.749626,189.90103 147.414609,189.90103 C157.079592,189.90103 164.914609,197.736047 164.914609,207.40103 L164.914609,502.40103 C164.914609,511.956184 157.256649,519.722725 147.743379,519.90103 L147.414609,519.90103 L39.4146091,519.90103 Z" id="h15"></path>
            <rect id="h14" transform="translate(76.906695, 403.846969) rotate(21.000000) translate(-76.906695, -403.846969) " x="55.4066948" y="335.846969" width="43" height="136" rx="21.5"></rect>
            <path d="M607.914609,236.90103 L374.914609,236.90103 C366.630338,236.90103 359.914609,230.185301 359.914609,221.90103 L359.914609,205.90103 C359.914609,197.616759 366.630338,190.90103 374.914609,190.90103 L607.914609,190.90103" id="h6"></path>
            <rect id="h7" x="181.914609" y="261.90103" width="158" height="101" rx="11"></rect>
            <path d="M607.914609,123.90103 L607.914609,167.832193 L349.914609,167.832193 C340.581276,167.462556 335.914609,171.01894 335.914609,178.501347 L335.914609,214.90103 C335.914609,229.812718 323.826297,241.90103 308.914609,241.90103 L219.914609,241.90103 C205.002921,241.90103 192.914609,229.812718 192.914609,214.90103 L192.914609,150.90103 C192.914609,135.989342 205.002921,123.90103 219.914609,123.90103 L607.914609,123.90103 Z" id="h5"></path>
            <rect id="h13" x="220.914609" y="474.90103" width="363" height="35" rx="17.5"></rect>
            <path d="M607.914609,454.90103 L238.414609,454.90103 C228.749626,454.90103 220.914609,447.066013 220.914609,437.40103 C220.914609,427.736047 228.749626,419.90103 238.414609,419.90103 L607.914609,419.90103" id="h12"></path>
            <rect id="h11" x="221.914609" y="372.90103" width="128" height="35" rx="17.5"></rect>
            <path d="M607.914609,407.90103 L238.414609,407.90103 C228.749626,407.90103 220.914609,400.066013 220.914609,390.40103 C220.914609,380.736047 228.749626,372.90103 238.414609,372.90103 L607.914609,372.90103" id="h10"></path>
            <path d="M607.914609,360.90103 L377.414609,360.90103 C367.749626,360.90103 359.914609,353.066013 359.914609,343.40103 C359.914609,333.736047 367.749626,325.90103 377.414609,325.90103 L607.914609,325.90103" id="h9"></path>
            <path d="M607.914609,305.90103 L377.414609,305.90103 C367.749626,305.90103 359.914609,296.051295 359.914609,283.90103 C359.914609,271.750766 367.749626,261.90103 377.414609,261.90103 L607.914609,261.90103" id="h8"></path>
            <path d="M607.914609,103.90103 L481.414609,103.90103 C465.674494,103.90103 452.914609,91.1411455 452.914609,75.4010302 L452.914609,72.4010302 C452.914609,56.6609148 465.674494,43.9010302 481.414609,43.9010302 L607.914609,43.9010302" id="h4"></path>
            <path d="M335.702212,77.7227077 C319.774957,77.7227077 298.103856,86.4235704 283.738723,97.760026 C274.161968,105.317663 266.432759,105.317663 260.551095,97.760026 C253.484819,86.3952652 255.934125,76.3827685 267.899012,67.7225359 C285.846342,54.7321869 303.352477,44.1075106 335.702212,44.1075106 C368.051948,44.1075106 303.265794,44.1075106 335.61553,44.1075106 C367.965266,44.1075106 385.4714,54.7321869 403.41873,67.7225359 C415.383617,76.3827685 417.832923,86.3952652 410.766648,97.760026 C404.884984,105.317663 397.155774,105.317663 387.579019,97.760026 C373.213886,86.4235704 351.542785,77.7227077 335.61553,77.7227077" id="h3"></path>
            <path d="M607.914609,37.496011 L432.337157,37.496011 C417.397984,36.7188562 411.534426,31.306568 414.746484,21.2591465 C417.958543,11.211725 420.29644,4.12534285 421.760176,-1.13686838e-13 L607.914609,-1.13686838e-13" id="h2"></path>
            <path d="M421.760176,0 L285.775463,0 C279.318265,0.620495005 274.147885,3.46794966 270.264322,8.54236395 C266.380759,13.6167783 260.702818,19.9790487 253.230497,27.6291752 L413.893871,27.6291752 C413.652992,25.9849266 413.937196,23.8615837 414.746484,21.2591465 C415.555772,18.6567094 417.893669,11.5703272 421.760176,0 Z" id="h1"></path>
        </g>
    </g>
</svg>