<?xml version="1.0" encoding="UTF-8"?>
<svg width="590px" height="293px" viewBox="0 0 590 293" version="1.1" xmlns="http://www.w3.org/2000/svg" xmlns:xlink="http://www.w3.org/1999/xlink">
    <title>WOODBOARD</title>
    <g id="Page-1" stroke="none" stroke-width="1" fill="none" fill-rule="evenodd">
        <g id="WOODBOARD" transform="translate(1.000000, 0.610250)" fill="#FFFFFF" stroke="#000000">
            <path d="M588.292273,291.445801 L48.3362025,291.445801 C25.2800304,288.727933 13.7519443,281.425098 13.7519443,269.537297 C13.7519443,257.649496 13.7519443,240.127338 13.7519443,216.970823 L587.5,216.970823" id="Path-11"></path>
            <path d="M588,227.270077 L38.2937027,227.270077 C12.7645676,227.270077 0,208.313719 0,170.401002 C0,132.488286 0,92.9200544 0,51.6963074 L588,51.6963074" id="Path-10"></path>
            <rect id="h4" x="18" y="97.3897505" width="179" height="42" rx="15"></rect>
            <rect id="h8" x="18" y="166.38975" width="179" height="42" rx="15"></rect>
            <circle id="h15" cx="403" cy="256.38975" r="21"></circle>
            <rect id="h13" x="29" y="235.38975" width="171" height="42" rx="15"></rect>
            <rect id="h5" x="223" y="97.3897505" width="126" height="42" rx="15"></rect>
            <rect id="h9" x="223" y="166.38975" width="126" height="42" rx="15"></rect>
            <rect id="h14" x="230" y="235.38975" width="122" height="42" rx="15"></rect>
            <rect id="h10" x="272" y="166.38975" width="42" height="42" rx="15"></rect>
            <path d="M588.058399,138.38975 L588.058399,138.38975 L502,138.38975 C493.715729,138.38975 487,131.674022 487,123.38975 L487,111.38975 C487,103.105479 493.715729,96.3897505 502,96.3897505 L588.292273,96.3897505 L588.292273,96.3897505" id="h7"></path>
            <path d="M588.058399,208.38975 L588.058399,208.38975 L502,208.38975 C493.715729,208.38975 487,201.674022 487,193.38975 L487,181.38975 C487,173.105479 493.715729,166.38975 502,166.38975 L588.292273,166.38975 L588.292273,166.38975" id="h12"></path>
            <rect id="h6" x="378" y="97.3897505" width="83" height="42" rx="15"></rect>
            <rect id="h11" x="380" y="166.38975" width="83" height="42" rx="15"></rect>
            <path d="M224.771989,80.294932 C221.977008,28.2807614 223.315072,2.27367607 228.786181,2.27367607 C234.257291,2.27367607 236.992846,13.0905852 236.992846,34.7244034 L224.771989,80.294932 Z" id="Path-13"></path>
            <polyline id="h3" points="588 62.4062136 411.144892 62.4062136 421.915044 0.156298239 588 0.156298239"></polyline>
            <path d="M587.99246,23.3897505 L587.99246,23.3897505 L521.5,23.3897505 C517.910149,23.3897505 515,20.4796014 515,16.8897505 C515,13.2998996 517.910149,10.3897505 521.5,10.3897505 L588.003178,10.3897505 L588.003178,10.3897505" id="Path"></path>
            <polygon id="h2" points="411.144892 62.4062136 411.144892 80.294932 224.771989 80.294932 247.01582 -8.91452823e-15 421.915044 0.156298239"></polygon>
            <path d="M224.771989,80.294932 C222.375913,30.7364421 223.713977,4.72935676 228.786181,2.27367607 L31.8775328,2.27367607 C10.6258443,2.27367607 0,9.30367503 0,23.363673 C0,37.4236709 0,56.4007572 0,80.294932" id="h1"></path>
        </g>
    </g>
</svg>