<?xml version="1.0" encoding="UTF-8"?>
<svg width="586px" height="270px" viewBox="0 0 586 270" version="1.1" xmlns="http://www.w3.org/2000/svg" xmlns:xlink="http://www.w3.org/1999/xlink">
    <title>WORK1950ERGO</title>
    <g id="Page-1" stroke="none" stroke-width="1" fill="none" fill-rule="evenodd">
        <g id="WORK1950ERGO" transform="translate(1.000279, 1.396434)" fill="#FFFFFF">
            <path d="M411.270638,140.595956 C415.461093,213.726471 394.593699,251.95986 348.668457,255.296123 C302.743214,258.632385 253.647159,262.471527 201.38029,266.813549 C121.737494,272.864886 66.9937825,249.68281 37.1491559,197.267322 C7.30452923,144.851834 132.01169,125.961379 411.270638,140.595956 Z" id="board" stroke="#000000"></path>
            <path d="M583.999721,251.138457 L530.999721,251.138457 C482.175814,252.490579 457.76386,237.24017 457.76386,205.387231 C457.76386,173.534291 457.76386,154.708198 457.76386,148.908951 C471.254434,168.414077 495.666387,178.16664 530.999721,178.16664 C566.333054,178.16664 583.999721,178.16664 583.999721,178.16664" id="board" stroke="#000000"></path>
            <path d="M583.999721,178.16664 L530.999721,178.16664 C482.175814,176.053055 457.76386,164.865363 457.76386,144.603566 C457.76386,114.210871 459.096304,91.7460816 434.275622,91.7460816 C417.728501,91.7460816 410.098668,109.365243 411.386123,144.603566 C412.193137,165.377978 397.104706,177.12147 366.120829,179.834042 C335.136952,182.546614 239.458029,190.344004 79.0840617,203.226214 C33.281694,205.861831 8.1441948,188.538592 3.67156409,151.256497 C-3.03738196,95.333355 -6.7563471,35.112299 50.3805115,27.8747873 C88.4717506,23.0497796 142.51607,17.4657456 212.513471,11.1226854 C217.205061,11.20679 221.106611,12.0087043 224.21812,13.5284282 C227.32963,15.0481522 285.287102,22.1461903 398.090537,34.8225426 L583.999721,0" id="Path" stroke="#000000"></path>
            <path d="M583.999721,235.603566 L507.999721,235.603566 C495.297171,235.603566 484.999721,225.306116 484.999721,212.603566 C484.999721,199.901017 495.297171,189.603566 507.999721,189.603566 L583.999721,189.603566" id="h12" stroke="#000000"></path>
            <rect id="h11" stroke="#000000" transform="translate(345.339563, 205.387231) rotate(-5.000000) translate(-345.339563, -205.387231) " x="307.339563" y="181.387231" width="76" height="48" rx="21"></rect>
            <path d="M267.221641,193.686377 C278.819621,193.686377 288.221641,203.088721 288.221641,214.6867 L288.221641,220.6867 C288.221641,232.28468 278.819621,241.6867 267.221641,241.6867 L146.221641,241.6867 C136.014132,241.461269 126.967656,237.141095 119.082212,228.72618 C111.196768,220.311264 106.11969,214.679458 103.850976,211.830762 C96.6662663,199.958253 100.062033,194.000745 114.038276,193.958238 C128.014518,193.915731 179.07564,193.825111 267.221641,193.686377 Z" id="h10" stroke="#000000" transform="translate(194.206758, 217.686539) rotate(-5.000000) translate(-194.206758, -217.686539) "></path>
            <path d="M583.999721,144.603566 L507.999721,144.603566 C495.297171,144.603566 484.999721,134.306116 484.999721,121.603566 C484.999721,108.901017 495.297171,98.6035664 507.999721,98.6035664 L583.999721,98.6035664" id="h9" stroke="#000000"></path>
            <rect id="h8" stroke="#000000" transform="translate(343.339563, 130.387231) rotate(-5.000000) translate(-343.339563, -130.387231) " x="305.339563" y="106.387231" width="76" height="48" rx="21"></rect>
            <rect id="h7" stroke="#000000" transform="translate(210.674032, 140.595956) rotate(-5.000000) translate(-210.674032, -140.595956) " x="129.174032" y="116.595956" width="163" height="48" rx="21"></rect>
            <rect id="h5" stroke="#000000" transform="translate(70.833855, 151.256497) rotate(-5.000000) translate(-70.833855, -151.256497) " x="31.3338547" y="127.256497" width="79" height="48" rx="21"></rect>
            <rect id="h4" stroke="#000000" transform="translate(110.412565, 78.607372) rotate(-5.000000) translate(-110.412565, -78.607372) " x="28.9125648" y="57.6073717" width="163" height="42" rx="21"></rect>
            <polyline id="h3" stroke="#000000" points="583.999721 34.8225426 398.090537 34.8225426 398.090537 7.81597009e-14 583.999721 7.81597009e-14"></polyline>
            <path d="M398.090537,-7.10542736e-14 L398.090537,34.8225426 C392.284564,42.3363185 385.675854,46.5941703 378.264409,47.5960979 C370.852964,48.5980255 325.196201,54.7561274 241.294118,66.0704037 C228.863539,65.6605917 222.105255,58.4446721 221.019265,44.4226448 C219.933276,30.4006176 220.999561,20.1025454 224.21812,13.5284282 C235.602119,16.1169903 252.195986,16.1169903 273.999721,13.5284282 C295.803455,10.9398662 337.167061,6.43039013 398.090537,-7.10542736e-14 Z" id="h2" stroke="#000000"></path>
            <path d="M13.2181966,59.0791299 L216.435408,44.1472637 C215.808198,34.3911599 216.402461,25.976805 218.218197,18.904199 C218.218197,18.904199 213.133297,16.4193735 203.930503,17.2484697 C197.795308,17.8012006 148.375065,22.0096407 55.6697745,29.8737901 C44.1140773,30.9435675 34.9189968,33.9558347 28.0845331,38.9105917 C21.2500693,43.8653487 16.2946239,50.5881947 13.2181966,59.0791299 Z" id="h1" transform="translate(115.718197, 38.079130) rotate(-1.000000) translate(-115.718197, -38.079130) "></path>
        </g>
    </g>
</svg>