<?xml version="1.0" encoding="UTF-8"?>
<svg width="572px" height="154px" viewBox="0 0 572 154" version="1.1" xmlns="http://www.w3.org/2000/svg" xmlns:xlink="http://www.w3.org/1999/xlink">
    <title>WORK1950SIMPLE</title>
    <g id="Page-1" stroke="none" stroke-width="1" fill="none" fill-rule="evenodd">
        <g id="WORK1950SIMPLE" transform="translate(0.827086, 1.238925)" fill="#FFFFFF" stroke="#000000">
            <path d="M570.172914,15.2880715 L0.00933481504,15.2880715 L0.00933481504,73.7610747 C-0.488708659,109.735452 18.9424565,127.722641 58.3028303,127.722641 C97.6632041,127.722641 219.066574,127.722641 422.51294,127.722641 C448.526118,127.722641 471.38994,131.759498 491.104406,139.833212 C510.818871,147.906926 534.40885,151.855181 561.874343,151.677977 L570.172914,151.677977" id="board"></path>
            <path d="M570.172914,37.7610747 C505.555598,37.7610747 453.172914,54.9981118 453.172914,76.2610747 C453.172914,97.5240375 505.555598,114.761075 570.172914,114.761075" id="h5"></path>
            <rect id="h4" x="345.172914" y="50.7610747" width="84" height="46" rx="23"></rect>
            <rect id="h3" x="223.172914" y="50.7610747" width="84" height="46" rx="23"></rect>
            <rect id="h2" x="25.1729136" y="50.7610747" width="156" height="46" rx="23"></rect>
            <path d="M570.172914,-2.0783375e-13 C211.420168,-2.0783375e-13 30.8986478,-2.0783375e-13 28.6083541,-2.0783375e-13 C25.1729136,-2.0783375e-13 0.00933481504,-2.0783375e-13 0.00933481504,15.2880715 C0.00933481504,15.2880715 190.063861,15.2880715 570.172914,15.2880715" id="h1"></path>
        </g>
    </g>
</svg>