<?xml version="1.0" encoding="UTF-8"?>
<svg width="537px" height="460px" viewBox="0 0 537 460" version="1.1" xmlns="http://www.w3.org/2000/svg" xmlns:xlink="http://www.w3.org/1999/xlink">
    <title>WORK1950CASCADE</title>
    <g id="Page-1" stroke="none" stroke-width="1" fill="none" fill-rule="evenodd">
        <g id="WORK1950CASCADE" transform="translate(1.133529, 0.547005)" fill="#FFFFFF" stroke="#000000">
            <path d="M57.3795657,451.421838 C57.3795657,452.96982 53.2629707,458.929267 49.3521744,458.929267 C46.7449769,458.929267 35.0362749,458.219927 14.2260684,456.801247 C8.93980001,456.288275 6.29666583,453.505736 6.29666583,448.453631 C6.29666583,443.401526 8.93980001,405.511765 14.2260684,334.784349 C8.93980001,333.085418 6.29666583,328.535825 6.29666583,321.13557 C6.29666583,313.735315 8.02643973,276.934318 11.4859875,210.732577 C6.66574955,204.037322 4.25563057,199.231186 4.25563057,196.31417 C4.25563057,193.397154 6.23573204,156.291934 10.195935,84.9985102 C3.398645,79.5932186 0,73.6476469 0,67.1617952 C0,57.4330176 4.51191747,3.97903932e-13 20.5480552,3.97903932e-13 C31.2388136,3.97903932e-13 36.9956125,3.97903932e-13 37.8184519,3.97903932e-13 C40.6943804,0.563628328 43.4340958,1.99767785 46.0375982,4.30214856 C48.6411005,6.60661928 55.1907698,12.1754328 65.686606,21.0085893 C60.1485791,306.918767 57.3795657,450.38985 57.3795657,451.421838 Z" id="board"></path>
            <path d="M534.866471,79.3984257 L36.300018,79.3984257 L30.4309255,193.864934 C29.8946414,200.983771 32.3678152,204.543189 37.850447,204.543189 C43.3330788,204.543189 209.005087,204.543189 534.866471,204.543189" id="boad"></path>
            <path d="M534.866471,204.543189 L37.850447,204.543189 L31.8245345,321.18802 C31.3163925,325.182384 33.32503,327.179566 37.850447,327.179566 C42.3758639,327.179566 208.047872,327.179566 534.866471,327.179566" id="board"></path>
            <path d="M534.866471,327.179566 L37.850447,327.179566 L33.7311643,443.043116 C32.3785742,448.628931 35.2330258,451.421838 42.2945189,451.421838 C49.356012,451.421838 213.546663,451.421838 534.866471,451.421838" id="board"></path>
            <rect id="h7" x="234.866471" y="391.452995" width="172" height="37"></rect>
            <rect id="h6" x="52.8664708" y="391.452995" width="172" height="37"></rect>
            <rect id="h5" x="234.866471" y="265.452995" width="172" height="37"></rect>
            <rect id="h4" x="52.8664708" y="265.452995" width="172" height="37"></rect>
            <rect id="h3" x="234.866471" y="139.452995" width="172" height="37"></rect>
            <rect id="h2" x="52.8664708" y="139.452995" width="172" height="37"></rect>
            <path d="M534.866471,21.0347017 L64.2996459,21.0347017 C44.8070065,21.0347017 34.4007934,23.5110326 33.0810065,28.4636944 C31.7612196,33.4163562 29.6225066,42.6041545 26.6648675,56.0270892 C25.5137764,65.901291 26.2953601,71.7237576 29.0096187,73.494489 C31.7238772,75.2652204 34.1540103,77.2331993 36.300018,79.3984257 L534.866471,79.3984257" id="h1"></path>
        </g>
    </g>
</svg>