<?xml version="1.0" encoding="UTF-8"?>
<svg width="539px" height="342px" viewBox="0 0 539 342" version="1.1" xmlns="http://www.w3.org/2000/svg" xmlns:xlink="http://www.w3.org/1999/xlink">
    <title>WORK1950CAMP</title>
    <g id="Page-1" stroke="none" stroke-width="1" fill="none" fill-rule="evenodd">
        <g id="WORK1950CAMP" transform="translate(1.000000, 1.000000)" fill="#FFFFFF" stroke="#000000">
            <path d="M538,340 L15,340 C6.71572875,340 0,333.284271 0,325 L0,15 C0,6.71572875 6.71572875,0 15,0 L538,0" id="board"></path>
            <path d="M538,303 L66,303 C60.4771525,303 56,298.522847 56,293 L56,202 C56,196.477153 60.4771525,192 66,192 L538,192" id="h7"></path>
            <path d="M538,246 L303,246 L303,287.836691 C302.766769,297.945564 306.100103,303 313,303 C319.899897,303 394.899897,303 538,303" id="h8"></path>
            <path d="M538,246 L66,246 C60.4771525,246 56,241.522847 56,236 L56,202 C56,196.477153 60.4771525,192 66,192 L538,192" id="h5"></path>
            <path d="M538,246 L307.875519,246 C305.182844,246 303,241.522847 303,236 L303,202 C303,196.477153 305.182844,192 307.875519,192 L538,192" id="h6"></path>
            <path d="M538,153 L66,153 C60.4771525,153 56,148.522847 56,143 L56,52 C56,46.4771525 60.4771525,42 66,42 L538,42" id="h3"></path>
            <path d="M538,96 L303,96 L303,137.836691 C302.766769,147.945564 306.100103,153 313,153 C319.899897,153 394.899897,153 538,153" id="h4"></path>
            <path d="M538,96 L66,96 C60.4771525,96 56,91.5228475 56,86 L56,52 C56,46.4771525 60.4771525,42 66,42 L538,42" id="h1"></path>
            <path d="M538,96 L307.875519,96 C305.182844,96 303,91.5228475 303,86 L303,52 C303,46.4771525 305.182844,42 307.875519,42 L538,42" id="h2"></path>
        </g>
    </g>
</svg>