<?xml version="1.0" encoding="UTF-8"?>
<svg width="167px" height="319px" viewBox="0 0 167 319" version="1.1" xmlns="http://www.w3.org/2000/svg" xmlns:xlink="http://www.w3.org/1999/xlink">
    <title>WORK1950POCKET-EASY</title>
    <g id="Page-1" stroke="none" stroke-width="1" fill="none" fill-rule="evenodd">
        <g id="WORK1950POCKET-EASY" transform="translate(1.000000, 1.000000)" fill="#FFFFFF" stroke="#000000">
            <path d="M166,317 L11.1730769,317 C5.29620074,317 0.532051282,308.045695 0.532051282,297 L0.532051282,169 C0.532051282,165.483346 1.01495267,162.178679 1.86292115,159.30747 C0.687697477,156.09134 0,152.196614 0,148 L0,20 C0,8.954305 4.76414946,0 10.6410256,0 L165.467949,0" id="board"></path>
            <path d="M166.000671,112 L56,112 C44.954305,112 36,103.045695 36,92 L36,57 C36,45.954305 44.954305,37 56,37 L166.000671,37" id="h2"></path>
            <path d="M166.000671,294 L56,294 C44.954305,294 36,285.045695 36,274 L36,239 C36,227.954305 44.954305,219 56,219 L166.000671,219" id="h1"></path>
        </g>
    </g>
</svg>