<?xml version="1.0" encoding="UTF-8"?>
<svg width="598px" height="360px" viewBox="0 0 598 360" version="1.1" xmlns="http://www.w3.org/2000/svg" xmlns:xlink="http://www.w3.org/1999/xlink">
    <title>YYVERTICALTRAVEL</title>
    <g id="Page-1" stroke="none" stroke-width="1" fill="none" fill-rule="evenodd">
        <g id="YYVERTICALTRAVEL" transform="translate(0.819579, 0.660913)" fill="#FFFFFF" stroke="#000000">
            <path d="M596.180421,28.4953371 L63.2233895,36.4562746 C17.6973478,35.0265871 -3.10994386,51.712785 0.801514473,86.5148683 C4.71297281,121.316952 11.7637541,201.686743 21.9538582,327.624243 C27.3340666,348.298722 47.7455249,358.635962 83.1882332,358.635962 C118.630942,358.635962 289.628337,358.635962 596.180421,358.635962" id="board"></path>
            <path d="M596.180421,36.4585202 L63.2233895,36.4562746 C17.6973478,35.0265871 -3.10994386,51.712785 0.801514473,86.5148683 C-4.71992397,28.8382894 18.2855234,0 69.8178567,0 C121.35019,0 296.804378,0 596.180421,0" id="h1"></path>
            <path d="M596.180421,156.339087 L96.0601933,156.339087 C80.6626201,156.339087 68.1804207,141.788341 68.1804207,123.839087 C68.1804207,105.889833 80.6626201,91.3390871 96.0601933,91.3390871 L596.180421,91.3390871" id="h2"></path>
            <path d="M596.180421,302.339087 L224.87904,302.339087 C213.447508,302.339087 204.180421,287.788341 204.180421,269.839087 C204.180421,251.889833 213.447508,237.339087 224.87904,237.339087 L596.180421,237.339087" id="h4"></path>
            <circle id="h3" cx="121.680421" cy="269.839087" r="36"></circle>
        </g>
    </g>
</svg>