<?xml version="1.0" encoding="UTF-8"?>
<svg width="770px" height="737px" viewBox="0 0 770 737" version="1.1" xmlns="http://www.w3.org/2000/svg" xmlns:xlink="http://www.w3.org/1999/xlink">
    <title>YYVERTICALPENTRA</title>
    <g id="Page-1" stroke="none" stroke-width="1" fill="none" fill-rule="evenodd">
        <g id="YYVERTICALPENTRA" transform="translate(0.360309, 0.678787)" fill="#FFFFFF" stroke="#000000">
            <path d="M384.639691,0.5 C392.993657,0.5 401.347623,3.07827058 408.444993,8.23481173 L752.081887,257.901629 C759.179257,263.058171 764.212856,270.206535 766.794374,278.151629 C769.375891,286.096724 769.505328,294.838547 766.794374,303.182006 L635.53676,707.151403 C632.825806,715.494862 627.582774,722.491065 620.824274,727.401403 C614.065773,732.311741 605.791803,735.136215 597.018971,735.136215 L172.26041,735.136215 C163.487579,735.136215 155.213608,732.311741 148.455108,727.401403 C141.696607,722.491065 136.453576,715.494862 133.742621,707.151403 L2.48500767,303.182006 C-0.225946441,294.838547 -0.0965098999,286.096724 2.48500767,278.151629 C5.06652525,270.206535 10.1001239,263.058171 17.1974939,257.901629 L360.834388,8.23481173 C367.931758,3.07827058 376.285724,0.5 384.639691,0.5 Z M382.139691,167.5 C373.579453,167.5 365.019216,170.141932 357.746603,175.425795 L197.188088,292.078384 C189.915474,297.362247 184.757589,304.687115 182.112331,312.828384 C179.467072,320.969653 179.334439,329.927324 182.112331,338.476794 L243.440226,527.224648 C246.218117,535.774119 251.590606,542.943067 258.515983,547.974648 C265.441361,553.00623 273.919626,555.900443 282.909071,555.900443 L481.37031,555.900443 C490.359755,555.900443 498.83802,553.00623 505.763398,547.974648 C512.688775,542.943067 518.061264,535.774119 520.839155,527.224648 L582.167051,338.476794 C584.944942,329.927324 584.812309,320.969653 582.167051,312.828384 C579.521792,304.687115 574.363907,297.362247 567.091293,292.078384 L406.532779,175.425795 C399.260165,170.141932 390.699928,167.5 382.139691,167.5 Z" id="board"></path>
            <circle id="h7" cx="110.139691" cy="368.821213" r="46"></circle>
            <rect id="h3" x="210.139691" y="597.821213" width="336" height="92" rx="46"></rect>
            <rect id="h4" transform="translate(635.139691, 446.821213) rotate(-72.000000) translate(-635.139691, -446.821213) " x="467.139691" y="400.821213" width="336" height="92" rx="46"></rect>
            <rect id="h5" transform="translate(522.984246, 178.071213) rotate(35.000000) translate(-522.984246, -178.071213) " x="372.484246" y="132.071213" width="301" height="92" rx="46"></rect>
            <rect id="h6" transform="translate(236.984246, 179.071213) rotate(-35.000000) translate(-236.984246, -179.071213) " x="86.484246" y="133.071213" width="301" height="92" rx="46"></rect>
            <rect id="h2" transform="translate(156.654518, 509.576251) rotate(72.000000) translate(-156.654518, -509.576251) " x="73.6545181" y="463.576251" width="166" height="92" rx="46"></rect>
            <path d="M566.797401,292.482892 C581.167384,302.923297 587.180368,321.429357 581.691522,338.322286 L520.363627,527.07014 C514.874782,543.963069 499.132587,555.400443 481.37031,555.400443 L282.909071,555.400443 C265.146795,555.400443 249.4046,543.963069 243.915754,527.07014 L182.587859,338.322286 C177.099013,321.429357 183.111997,302.923297 197.481981,292.482892 L260.98635,493.661827 C267.3117,510.475924 279.347719,518.882972 297.094408,518.882972 C314.841096,518.882972 368.868254,518.882972 459.175881,518.882972 C476.162917,518.433132 488.281672,510.026084 495.532145,493.661827 C502.782618,477.29757 526.537703,410.237925 566.797401,292.482892 Z" id="h1"></path>
        </g>
    </g>
</svg>