<?xml version="1.0" encoding="UTF-8"?>
<svg width="1329px" height="440px" viewBox="0 0 1329 440" version="1.1" xmlns="http://www.w3.org/2000/svg" xmlns:xlink="http://www.w3.org/1999/xlink">
    <title>YYVERTICALLIGHT</title>
    <g id="Page-1" stroke="none" stroke-width="1" fill="none" fill-rule="evenodd">
        <g id="YYVERTICALLIGHT" transform="translate(1.000000, 1.000000)" fill="#FFFFFF">
            <path d="M1328,1 L636.5516,0 L648.71039,436.001188 C838.853772,438.298333 948.950308,438.297937 979,436 C1024.07454,432.553095 1032.5572,407.570948 1060.51001,407.570948 C1088.46281,407.570948 1083.27101,436.001188 1177.52725,436.001188 C1240.36474,436.001188 1290.52232,436.001188 1328,436.001188" id="board" stroke="#000000"></path>
            <path d="M1328,159.507918 C1316.90689,159.507918 1270.06277,159.507918 1187.46764,159.507918 C1063.57495,159.507918 1026.0489,223.173664 1026.0489,326.074351 C1026.0489,428.975038 935.84459,436.002364 878.065355,436.002364 C820.28612,436.002364 650.719363,436.002364 596.844767,436.002364 C542.970171,436.002364 569.018746,414.11495 522.689349,414.11495 C476.359951,414.11495 509.330222,436.002364 461.280785,436.002364 C429.247827,436.002364 317.209958,436.002364 125.16718,436.002364 C41.7223935,436.171704 0,399.529033 0,326.074351 C0,252.619669 0,220.535596 0,229.822132 C2.69043989,76.6073773 44.4128334,0 125.16718,0 C205.921528,0 348.020479,0 551.464035,0 L551.464035,64.3250971 L1328,64.3250971" id="board" stroke="#000000"></path>
            <path d="M1328,436 L1174.81633,436 C1110.30045,436 1058,380.483309 1058,312 C1058,243.516691 1110.30045,188 1174.81633,188 L1328,188" id="h7" stroke="#000000"></path>
            <path d="M1328,372 L1169.93147,372 C1137.38452,372 1111,344.017797 1111,309.5 C1111,274.982203 1137.38452,247 1169.93147,247 L1328,247" id="h8" stroke="#000000"></path>
            <rect id="h6" stroke="#000000" x="543.5" y="247.5" width="435" height="124" rx="57"></rect>
            <rect id="h5" stroke="#000000" x="51.5" y="247.5" width="435" height="124" rx="57"></rect>
            <rect id="h4" stroke="#000000" x="51.5" y="79.5" width="435" height="124" rx="57"></rect>
            <polyline id="h3" stroke="#000000" points="1328 65 1015 65 1035.42104 1.99534833e-12 1328 6.71749982e-12"></polyline>
            <path d="M1035.42104,0 L1015.69858,63.9640051 C1019.06107,132.895359 983.537824,167.361036 909.128838,167.361036 C834.719851,167.361036 730.872638,167.361036 597.587198,167.361036 C562.441066,168.952266 544.868,152.910183 544.868,119.234786 C544.868,68.7216906 538.042827,0 551.85856,0 C561.069048,0 566.951444,4.98196478 569.505746,14.9458943 C571.252125,21.5937542 573.538444,24.9176841 576.364703,24.9176841 C580.604092,24.9176841 585.115385,0 602.555406,0 C614.182087,0 758.470632,0 1035.42104,0 Z" id="h2" stroke="#000000"></path>
            <path d="M30,63.8935361 C52.5823314,19.012854 83.718374,1 126.172185,1 C246.549952,1 456.014907,0.678326776 549.279823,0.678326776 C539.922855,0.678326776 542.569989,63.8935361 542.569989,63.8935361 C201.314578,65.4021897 30,63.8935361 30,63.8935361 Z" id="h1" stroke="#FFFFFF"></path>
        </g>
    </g>
</svg>