<?xml version="1.0" encoding="UTF-8"?>
<svg width="1210px" height="569px" viewBox="0 0 1210 569" version="1.1" xmlns="http://www.w3.org/2000/svg" xmlns:xlink="http://www.w3.org/1999/xlink">
    <title>YYVERTICALFIRST</title>
    <g id="Page-1" stroke="none" stroke-width="1" fill="none" fill-rule="evenodd">
        <g id="YYVERTICALFIRST" transform="translate(1.157999, 1.163136)" fill="#FFFFFF">
            <path d="M1207.842,566.995064 C1153.39537,566.995064 1106.17124,566.995064 1066.16961,566.995064 C1006.16717,566.995064 1032.07903,551.975441 1001.61274,551.975441 C971.146456,551.975441 979.027504,566.995064 940.965597,566.995064 C902.903689,566.995064 696.303103,566.995064 658.858495,566.995064 C621.413887,566.995064 615.687459,545.236114 581.554449,545.236114 C547.421438,545.236114 549.774796,566.995064 496.808399,566.995064 C461.497467,566.995064 380.813313,566.995064 254.755937,566.995064 C154.99157,566.995064 105.109386,536.662314 105.109386,475.996813 C105.109386,415.331312 105.109386,380.945004 105.109386,372.837889 L105.109386,331.218075 L890.842001,331.218075 L890.842001,121.254388 L1207.842,121.254388" id="board" stroke="#000000"></path>
            <path d="M1207.842,121.254388 L1058.34006,121.336864 C968.444837,121.336864 923.497224,161.155597 923.497224,240.793062 C923.497224,360.24926 851.168978,372.837889 798.617633,372.837889 C746.066287,372.837889 591.842001,372.837889 542.842001,372.837889 C493.842001,372.837889 520.882743,348.903131 478.745249,348.903131 C436.607755,348.903131 463.245809,372.837889 419.543905,372.837889 C390.409303,372.837889 288.508668,372.837889 113.842001,372.837889 C37.9473338,372.984045 0,341.65037 0,278.836864 C0,216.023359 0,188.587216 0,196.528437 C2.44700776,65.509479 40.3943415,0 113.842001,0 C187.289661,0 316.53144,0 501.567338,0 L501.567338,55.0064987 L1207.842,55.0064987" id="board" stroke="#000000"></path>
            <path d="M1208.842,511.836864 L1072.342,511.836864 C1042.79477,511.836864 1018.842,487.884098 1018.842,458.336864 C1018.842,428.78963 1042.79477,404.836864 1072.342,404.836864 L1208.842,404.836864" id="h11" stroke="#000000"></path>
            <rect id="h10" stroke="#000000" x="599.342001" y="405.336864" width="380" height="106" rx="53"></rect>
            <rect id="h9" stroke="#000000" x="181.342001" y="405.336864" width="380" height="106" rx="53"></rect>
            <path d="M1207.842,318.836864 L1064.342,318.836864 C1034.79477,318.836864 1010.842,294.884098 1010.842,265.336864 C1010.842,235.78963 1034.79477,211.836864 1064.342,211.836864 L1207.842,211.836864" id="h8" stroke="#000000"></path>
            <path d="M1207.842,372.836864 L1068.842,372.836864 C1010.29982,372.836864 962.842001,325.379048 962.842001,266.836864 C962.842001,208.294681 1010.29982,160.836864 1068.842,160.836864 L1207.842,160.836864" id="h7" stroke="#000000"></path>
            <rect id="h6" stroke="#000000" x="494.342001" y="212.336864" width="396" height="106" rx="53"></rect>
            <rect id="h5" stroke="#000000" x="47.3420013" y="212.336864" width="396" height="106" rx="53"></rect>
            <rect id="h4" stroke="#000000" x="47.3420013" y="68.3368644" width="396" height="106" rx="53"></rect>
            <polyline id="h3" stroke="#000000" points="1208.842 55.0064987 923.497224 55.0064987 941.054669 25.9156362 1207.842 25.9156362"></polyline>
            <path d="M941.054669,25.9156362 L923.497224,55.0064987 C926.341114,99.1100165 893.920168,121.161775 826.234384,121.161775 C758.548601,121.161775 664.084473,121.161775 542.842001,121.161775 C510.871488,122.53017 494.886232,108.734617 494.886232,79.775116 C494.886232,36.3358641 488.999921,0 501.567338,0 C509.945615,0 515.168842,12.9228368 517.237019,38.7685105 C518.825604,44.4854054 520.905343,47.3438529 523.476236,47.3438529 C527.332577,47.3438529 531.436253,25.9156362 547.300486,25.9156362 C557.876641,25.9156362 689.128035,25.9156362 941.054669,25.9156362 Z" id="h2" stroke="#000000"></path>
            <path d="M28.3227692,54.8368644 C48.8384438,16.4463196 77.1250236,1.03828102 115.693608,1.03828102 C225.054819,1.03828102 413.279085,1.03828102 498.008719,1.03828102 C489.508068,1.03828102 493.50919,54.0358253 493.50919,54.0358253 C183.484294,55.3263144 28.3227692,54.8368644 28.3227692,54.8368644 Z" id="h1" stroke="#FFFFFF"></path>
        </g>
    </g>
</svg>