<?xml version="1.0" encoding="UTF-8"?>
<svg width="636px" height="222px" viewBox="0 0 636 222" version="1.1" xmlns="http://www.w3.org/2000/svg" xmlns:xlink="http://www.w3.org/1999/xlink">
    <title>ZLAGEVO</title>
    <g id="Page-1" stroke="none" stroke-width="1" fill="none" fill-rule="evenodd">
        <g id="ZLAGEVO" transform="translate(318.500000, 111.500000) scale(-1, 1) translate(-318.500000, -111.500000) translate(1.000000, 1.000000)" fill="#FFFFFF" stroke="#292929">
            <path d="M0,220.14 L631.63,220.14 C633.296834,220.14 634.657317,218.806514 634.692268,217.14 L634.692268,54.16 C634.783224,39.9289379 629.19519,26.2487199 619.164999,16.152825 C609.134809,6.05693024 595.491367,0.38 581.26,0.38 L476.53,0.38 C475.963275,0.40178905 475.422022,0.621120467 475,1 L466.29,8.63 C465.391791,9.4183805 464.048209,9.4183805 463.15,8.63 L454.39,1 C453.957052,0.615718576 453.398887,0.402407169 452.82,0.4 L0,0.4" id="Path" fill-rule="nonzero"></path>
            <path d="M0,142.7 L51.69,142.7 C57.7130665,142.7 63.4894438,145.092654 67.748395,149.351605 C72.0073462,153.610556 74.4,159.386934 74.4,165.41 L74.4,165.41 C74.4,177.952387 64.2323867,188.12 51.69,188.12 L0,188.12" id="h11"></path>
            <rect id="h10" x="140.69" y="142.7" width="76.98" height="45.42" rx="22.71"></rect>
            <rect id="h9" x="261.42" y="142.7" width="117.55" height="45.42" rx="22.71"></rect>
            <rect id="h8" x="422.93" y="142.7" width="164.36" height="45.42" rx="22.71"></rect>
            <path d="M0,68.33 L51.69,68.33 C64.2167823,68.33 74.3779361,78.4732371 74.4,91 L74.4,91 C74.4,103.542387 64.2323867,113.71 51.69,113.71 L0,113.71" id="h7"></path>
            <rect id="h6" x="140.69" y="68.33" width="76.98" height="45.42" rx="22.71"></rect>
            <rect id="h5" x="261.42" y="68.33" width="117.55" height="45.42" rx="22.71"></rect>
            <rect id="h4" x="422.93" y="68.33" width="164.36" height="45.42" rx="22.71"></rect>
            <path d="M0,14.9 L98.74,14.9 C102.590025,14.9 106.282216,13.3699005 109.003657,10.6465845 C111.725097,7.92326842 113.252653,4.23002359 113.250016,0.38 L0,0.4" id="h3"></path>
            <path d="M164.53,0.38 L164.53,5.78 C164.532651,9.17948128 165.276601,12.5374935 166.71,15.62 L169.79,22.21 C173.383423,29.9043891 181.107868,34.821363 189.6,34.8200006 L294.27,34.8200006 C302.598454,34.8200006 309.35,28.068454 309.35,19.74 L309.35,0.38 L164.53,0.38 Z" id="h2"></path>
            <path d="M309.35,6.63 L309.35,28.39 C309.35,43.2685512 321.411449,55.33 336.29,55.33 L467.56,55.33 C477.624246,55.3244793 485.78001,47.164247 485.78001,37.1 L485.78001,32.71 C485.781965,29.5041895 485.209591,26.3239543 484.09,23.32 L475.53,0.38 L467.56,8.11816406 C465.345521,9.11027344 463.455404,9.11027344 461.889648,8.11816406 C459.541016,6.63 454.400391,1.11230469 451.679688,1.11230469 C449.865885,1.11230469 402.422656,1.11230469 309.35,1.11230469" id="h1"></path>
        </g>
    </g>
</svg>