<?xml version="1.0" encoding="UTF-8"?>
<svg width="627px" height="144px" viewBox="0 0 627 144" version="1.1" xmlns="http://www.w3.org/2000/svg" xmlns:xlink="http://www.w3.org/1999/xlink">
    <!-- Generator: Sketch 64 (93537) - https://sketch.com -->
    <title>ZLAGMINI</title>
    <desc>Created with Sketch.</desc>
    <g id="Page-1" stroke="none" stroke-width="1" fill="none" fill-rule="evenodd">
        <g id="ZLAGMINI" transform="translate(314.000000, 72.000000) scale(-1, 1) translate(-314.000000, -72.000000) translate(1.000000, 1.000000)" fill="#FFFFFF" stroke="#000000">
            <path d="M0,141.82 L619.67,141.82 C621.276294,141.82 622.816652,141.181221 623.951535,140.044462 C625.086418,138.907703 625.720008,137.366292 625.720008,135.76 L625.720008,55.23 C625.720008,30.929471 606.020529,11.23 581.72,11.23 L471.86,11.23 C466.8563,11.23 462.8,7.17369983 462.8,2.17 C462.8,1.19245599 462.007544,0.39991598 461.03,0.39991598 L158.38,0.39991598 C156.430962,0.394797923 154.548095,1.10665685 153.09,2.4 C151.631566,3.68622184 149.754579,4.39720174 147.81,4.4 L0,4.4" id="board" fill-rule="nonzero"></path>
            <path d="M0,27.82 L92.8,27.82 C95.5892694,27.8151365 98.2608398,26.6953812 100.22,24.71 L102.32,22.59 C104.290767,20.5916332 105.393907,17.8966664 105.390852,15.09 C105.393684,11.8941356 103.961987,8.86554707 101.49,6.84 L101.37,6.74 C99.506074,5.21914002 97.1756602,4.38584052 94.77,4.38 L0,4.38" id="h7"></path>
            <path d="M159.270578,0.34 C154.389641,0.39991598 154.17372,1.61346152 152.477223,2.91429678 C151.346224,3.78152029 149.697094,4.27008803 147.529831,4.38 L143.58,4.38 L143.58,17.49 C143.58,22.5291133 145.58178,27.3618377 149.144971,30.9250288 C152.708162,34.48822 157.540887,36.49 162.58,36.49 L264.07,36.49 C281.99164,36.49 296.52,21.9616401 296.52,4.04 L296.52,0.34 C208.274344,0.300056013 162.524537,0.300056013 159.270578,0.34 Z" id="h6"></path>
            <path d="M296.52,0.369581075 L296.52,40.72 C296.52,51.5226897 305.27731,60.2804929 316.08,60.2804929 L454.69,60.2804929 C459.878448,60.2826546 464.855153,58.2227273 468.52394,54.5539401 C472.192727,50.885153 474.250878,45.9084479 474.250878,40.72 L474.250878,11.2 C466.70602,10.5645863 462.872107,7.47310331 462.749138,1.92555095 C462.749138,0.818548083 462.151846,0.310003093 460.957261,0.39991598" id="h5"></path>
            <path d="M0,74 L57.66,74 C71.9998999,74 83.6324233,85.6101266 83.66,99.95 L83.66,99.95 C83.66,114.2899 72.0498734,125.922423 57.71,125.95 L0,125.95" id="h4"></path>
            <rect id="h3" x="111.29" y="74" width="108.76" height="51.9" rx="25.95"></rect>
            <rect id="h2" x="249.16" y="74" width="138.37" height="51.9" rx="25.95"></rect>
            <rect id="h1" x="418.73" y="74" width="164.32" height="51.9" rx="25.95"></rect>
        </g>
    </g>
</svg>