<?xml version="1.0" encoding="UTF-8"?>
<svg width="640px" height="287px" viewBox="0 0 640 287" version="1.1" xmlns="http://www.w3.org/2000/svg" xmlns:xlink="http://www.w3.org/1999/xlink">
    <!-- Generator: Sketch 64 (93537) - https://sketch.com -->
    <title>ZLAGPRO</title>
    <desc>Created with Sketch.</desc>
    <g id="Page-1" stroke="none" stroke-width="1" fill="none" fill-rule="evenodd">
        <g id="ZLAGPRO" transform="translate(320.500000, 143.500000) scale(-1, 1) translate(-320.500000, -143.500000) translate(1.000000, 1.000000)" fill="#FFFFFF" stroke="#000000">
            <path d="M0,284.94 L631.52,284.94 C635.385993,284.94 638.52,281.805993 638.52,277.94 L638.52,7.33 C638.52,3.46400675 635.385993,0.33 631.52,0.33 L0,0.33" id="Path" fill-rule="nonzero"></path>
            <path d="M0,255.78 L69.74,255.78 C82.6413718,255.78 93.1,245.321372 93.1,232.42 L93.1,232.42 C93.1,219.518628 82.6413718,209.06 69.74,209.06 L0,209.06" id="h13"></path>
            <rect id="h12" x="167.15" y="209.06" width="89.93" height="46.72" rx="23.36"></rect>
            <circle id="h11" cx="341.24" cy="232.42" r="23.34"></circle>
            <rect id="h10" x="412.55" y="209.06" width="186.19" height="46.72" rx="23.36"></rect>
            <path d="M0,186.59 L69.74,186.59 C82.6413718,186.59 93.1,176.131372 93.1,163.23 L93.1,163.23 C93.1,157.035462 90.6385457,151.094782 86.2574082,146.71552 C81.8762707,142.336258 75.9345375,139.877347 69.74,139.879998 L0,139.879998" id="h9"></path>
            <rect id="h8" x="167.15" y="139.88" width="89.93" height="46.72" rx="23.36"></rect>
            <circle id="h7" cx="341.24" cy="163.23" r="23.34"></circle>
            <rect id="h6" x="412.55" y="139.88" width="186.19" height="46.72" rx="23.36"></rect>
            <path d="M0,110.87 L69.74,110.87 C82.6413718,110.87 93.1,100.411372 93.1,87.51 L93.1,87.51 C93.1,74.6086282 82.6413718,64.15 69.74,64.15 L0,64.15" id="h5"></path>
            <rect id="h4" x="211.13" y="64.15" width="130.11" height="46.72" rx="23.36"></rect>
            <rect id="h3" x="412.55" y="64.15" width="186.19" height="46.72" rx="23.36"></rect>
            <path d="M0,19.18 L93,19.18 C96.8582776,19.1771332 100.658994,18.2441054 104.08,16.46 L104.08,16.46 C108.704852,14.0423245 112.413028,10.1796408 114.64,5.46 L117.1,0.27" id="h2"></path>
            <path d="M397.050001,0.29 L397.050001,5.64 C397.053146,17.4554315 391.179237,28.4985313 381.38,35.1 L381.38,35.1 C375.514458,39.0516841 368.602509,41.1618307 361.53,41.160031 L194,41.160031 C186.910818,41.1693593 179.98073,39.0589907 174.1,35.1 L174.1,35.1 C164.303473,28.4960895 158.43,17.4545489 158.43,5.64 L158.43,0.29" id="h1"></path>
        </g>
    </g>
</svg>