<?xml version="1.0" encoding="UTF-8"?>
<svg width="588px" height="135px" viewBox="0 0 588 135" version="1.1" xmlns="http://www.w3.org/2000/svg" xmlns:xlink="http://www.w3.org/1999/xlink">
    <!-- Generator: Sketch 64 (93537) - https://sketch.com -->
    <title>ZLAGMINI</title>
    <desc>Created with Sketch.</desc>
    <g id="Page-1" stroke="none" stroke-width="1" fill="none" fill-rule="evenodd">
        <g id="ZLAGMINI" transform="translate(294.500000, 67.500000) scale(-1, 1) translate(-294.500000, -67.500000) translate(1.000000, 1.000000)" fill="#FFFFFF" fill-rule="nonzero" stroke="#000000">
            <path d="M0,133 C9.59811061,133 203.372901,133 581.324371,133 C582.831266,133 584.276306,132.403773 585.340961,131.342738 C586.405617,130.281704 587,128.842973 587,127.343683 L587,52.1781387 C587,29.4963742 568.519539,11.1091712 545.722744,11.1091712 L442.660961,11.1091712 C437.966893,11.1091712 434.1616,7.32307888 434.1616,2.65269738 C434.1616,1.74027186 433.418182,1 432.501129,1 L148.579331,1 C146.750901,0.995749282 144.984547,1.66018817 143.61668,2.86737608 C142.248495,4.06791705 140.487657,4.73153547 138.66341,4.73414733 C66.1893191,4.72170219 19.9681824,4.72170219 0,4.73414733" id="board"></path>
            <path d="M0,26 L87.1726461,26 C89.7927754,25.9954353 92.3023429,24.9444704 94.1427004,23.081058 L96.1153573,21.0912969 C97.9666178,19.2156967 99.0028638,16.686291 99,14.0520478 C99.0026543,11.0525163 97.6577748,8.20998445 95.3356881,6.30887372 L95.2229649,6.21501706 C93.4720666,4.78758876 91.2829681,4.00548172 89.0231862,4 L0,4" id="h7"></path>
            <path d="M149.670803,0.0281529257 C145.107092,0.0844587766 144.905204,1.22488432 143.318967,2.44734011 C142.261475,3.26231063 140.719527,3.7214406 138.69312,3.82473003 L135,3.82473003 L135,16.1448107 C135,20.8803013 136.871679,25.4218386 140.203288,28.7703361 C143.534897,32.1188336 148.05353,34 152.765137,34 L247.659017,34 C264.415879,34 278,20.3470202 278,3.50521611 L278,0.0281529257 C195.489677,-0.00938430856 152.713278,-0.00938430856 149.670803,0.0281529257 Z" id="h6"></path>
            <path d="M278,0.0283546783 L278,37.7163913 C278,47.8138942 286.228569,56.0000079 296.379024,56.0000079 L426.620151,56.0000079 C431.495336,56.002019 436.171562,54.0765613 439.618838,50.6472682 C443.066114,47.2179752 445,42.5661435 445,37.7163913 L445,10.123422 C437.910679,9.52948735 434.308246,6.63981271 434.192702,1.454398 C434.192702,0.419658973 433.631473,-0.0556888019 432.509013,0.0283546783 L278,0.0283546783 Z" id="h5"></path>
            <path d="M0,69 L53.7590246,69 C67.1287616,69 77.974289,79.9508413 78,93.4764196 L78,93.4764196 C78,107.002023 67.1753541,117.973989 53.8056419,118 L0,118" id="h4"></path>
            <rect id="h3" x="104" y="69" width="102" height="49" rx="24.5"></rect>
            <rect id="h2" x="234" y="69" width="130" height="49" rx="24.5"></rect>
            <rect id="h1" x="393" y="69" width="154" height="49" rx="24.5"></rect>
        </g>
    </g>
</svg>