<?xml version="1.0" encoding="UTF-8"?>
<svg width="639px" height="278px" viewBox="0 0 639 278" version="1.1" xmlns="http://www.w3.org/2000/svg" xmlns:xlink="http://www.w3.org/1999/xlink">
    <!-- Generator: Sketch 64 (93537) - https://sketch.com -->
    <title>ZLAGPRO2</title>
    <desc>Created with Sketch.</desc>
    <g id="Page-1" stroke="none" stroke-width="1" fill="none" fill-rule="evenodd">
        <g id="ZLAGPRO2" transform="translate(320.000000, 139.000000) scale(-1, 1) translate(-320.000000, -139.000000) translate(1.000000, 1.000000)" stroke="#000000">
            <path d="M0.63,275.940006 L629,275.940006 C631.287898,275.940006 633.482999,275.03565 635.101726,273.418799 C636.720453,271.801947 637.63,269.6079 637.63,267.32 L637.63,50.89 C637.63,22.8891632 614.930837,0.189999737 586.93,0.189999737 L487.3,0.189999737 C482.802981,0.189999737 478.375344,1.29886094 474.41,3.42 C470.443013,5.535727 466.015918,6.64164208 461.52,6.64 L168.43,6.64 C166.995261,6.64569603 165.667364,5.88253677 164.95,4.64 C164.234416,3.40056887 162.911169,2.6378905 161.48,2.64 L0,2.64" id="Path" fill="#FFFFFF" fill-rule="nonzero"></path>
            <path d="M0,111.570002 L55.07,111.570002 C61.0921467,111.572653 66.8685499,109.182224 71.1277888,104.924861 C75.3870276,100.667497 77.78,94.8921473 77.78,88.87 L77.78,88.87 C77.78,76.3276133 67.6123867,66.16 55.07,66.16 L0.63,66.16" id="h7"></path>
            <path d="M0,251.15 L55.07,251.15 C67.6123867,251.15 77.78,240.982387 77.78,228.44 L77.78,228.44 C77.78,215.897613 67.6123867,205.73 55.07,205.73 L0.63,205.73" id="h15"></path>
            <rect id="h5" x="258.76" y="66.16" width="119.3" height="45.42" rx="22.71"></rect>
            <rect id="h10" x="143.81" y="137" width="73.63" height="45.42" rx="22.71"></rect>
            <rect id="h14" x="143.81" y="204.04" width="73.63" height="45.42" rx="22.71"></rect>
            <rect id="h13" x="258.76" y="205.98" width="119.3" height="45.42" rx="22.71"></rect>
            <rect id="h4" x="423.11" y="66.16" width="164.93" height="45.42" rx="22.71"></rect>
            <rect id="h8" x="423.11" y="131.52" width="164.93" height="45.42" rx="22.71"></rect>
            <rect id="h12" x="423.11" y="205.73" width="164.93" height="45.42" rx="22.71"></rect>
            <path d="M0,131.52 L56.15,131.52 C62.7804122,131.52 69.1392601,134.153921 73.8276695,138.84233 C78.516079,143.53074 81.15,149.889588 81.15,156.52 L81.15,162.79 C81.144481,177.992113 68.8221125,190.314481 53.62,190.32 L0.63,190.32" id="h11"></path>
            <path d="M176.08,70 L159.94,70 C148.964485,70.0055209 140.07,78.9044832 140.07,89.88 L140.07,89.88 L140.07,93.44 C140.07,106.794245 150.895755,117.620002 164.25,117.620002 L198.47,117.620002 C204.883748,117.622654 211.035568,115.075978 215.570773,110.540773 C220.105978,106.005568 222.652654,99.853748 222.650003,93.44 L222.650003,89.88 L222.650003,89.88 C222.652653,84.6084159 220.560384,79.5518343 216.833748,75.8233233 C213.107113,72.0948124 208.051585,70 202.78,70 L176.08,70 Z" id="h6"></path>
            <path d="M298.37,130.53 L282.23,130.53 C276.960148,130.53 271.906136,132.62344 268.179788,136.349788 C264.45344,140.076136 262.36,145.130148 262.36,150.4 L262.36,150.4 L262.36,159.71 C262.365518,173.061959 273.188041,183.884482 286.54,183.89 L356.11,183.89 C362.522935,183.89 368.673212,181.342472 373.207842,176.807842 C377.742472,172.273212 380.29,166.122935 380.29,159.71 L380.29,150.4 L380.29,150.4 C380.29,139.426102 371.393898,130.53 360.42,130.53 L298.37,130.53 Z" id="h9"></path>
            <path d="M304.58,6.64 L314.37,32.41 C316.819164,38.7941021 322.952228,43.0061092 329.79,43.0000066 L473.54,43.0000066 C481.620899,43.0000066 488.177951,36.4608691 488.2,28.38 L488.2,22.06 C488.2,14.1510739 484.649898,6.65978602 478.53,1.65 L478.53,1.65" id="h1"></path>
            <path d="M166.839956,6.31 L166.839956,14.08 C166.834658,16.4833995 167.310684,18.863532 168.24,21.08 L169.18,23.35 C172.008702,30.1388971 178.645368,34.5580802 186,34.5500639 L292,34.5500639 C295.334473,34.5606374 298.535877,33.2427864 300.896531,30.887762 C303.257185,28.5327376 304.582676,25.3344894 304.580004,22 L304.580004,6.64" id="h2"></path>
            <path d="M0.63,22.34 L89.3,22.34 C100.183244,22.3289622 109,13.5032496 109,2.62 L109,2.62" id="h3"></path>
        </g>
    </g>
</svg>