<?xml version="1.0" encoding="UTF-8"?>
<svg width="1024px" height="1023px" viewBox="0 0 1024 1023" version="1.1" xmlns="http://www.w3.org/2000/svg" xmlns:xlink="http://www.w3.org/1999/xlink">
    <title>HangTime</title>
    <g id="HangTime" stroke="none" stroke-width="1" fill="none" fill-rule="evenodd">
        <g id="logo" transform="translate(0.001028, 0.600313)" fill="#012E40" fill-rule="nonzero">
            <path d="M511.687577,0 C794.293999,0 1023.38543,228.652423 1023.38543,510.71728 C1023.38543,792.771876 794.293999,1021.43456 511.687577,1021.43456 C229.091436,1021.43456 0,792.771876 0,510.71728 C0,228.652423 229.091436,0 511.687577,0 Z M750.798569,215.978634 L703.051818,264.585932 C685.575211,250.362657 666.492978,238.262106 646.278575,228.222751 C642.398315,251.316345 630.90163,272.317979 613.774967,287.976912 C693.922401,326.155175 749.450256,408.756817 749.450256,504.894668 C749.450256,637.364936 644.209789,744.506084 514.071846,744.506084 C383.933904,744.506084 278.693437,637.364936 278.693437,504.894668 C278.693437,407.854403 335.281416,324.61697 416.643361,286.930932 C398.672715,271.969319 386.280586,251.459911 381.340202,228.59192 C280.854855,278.665641 211.43217,383.335405 211.43217,504.894668 C211.43217,675.020209 346.613421,812.966489 514.071846,812.966489 C681.530272,812.966489 816.711523,675.020209 816.711523,504.894668 C816.711523,432.322127 791.824339,365.574258 750.458918,312.854824 L798.215961,264.247527 C783.744753,246.79402 767.945818,230.365984 750.798569,215.978634 Z M443.30385,194.249889 L414.573871,194.249889 C414.573871,233.128057 436.985511,268.560674 472.023572,285.263886 L472.023572,513.472561 L500.743294,513.472561 L500.743294,412.667026 L529.463016,412.667026 L529.463016,513.472561 L558.192995,513.472561 L558.192995,285.119893 C593.231056,268.560674 615.642697,233.128057 615.642697,194.249889 L586.912718,194.249889 C586.912718,234.012587 554.767143,266.246497 515.103155,266.246497 C475.449425,266.246497 443.30385,234.012587 443.30385,194.249889 Z M515.103155,194.249889 C499.163709,194.249889 486.383433,207.065286 486.383433,223.048532 C486.383433,239.031779 499.163709,251.857461 515.103155,251.857461 C531.042601,251.857461 543.833134,239.031779 543.833134,223.048532 C543.833134,207.065286 531.042601,194.249889 515.103155,194.249889 Z M615.642697,92.6790395 L414.573871,92.6790395 L414.573871,161.083898 L615.642697,161.083898 L615.642697,92.6790395 Z" id="Shape"></path>
        </g>
    </g>
</svg>
