<?xml version="1.0" encoding="UTF-8"?>
<svg width="512px" height="512px" viewBox="0 0 512 512" version="1.1" xmlns="http://www.w3.org/2000/svg" xmlns:xlink="http://www.w3.org/1999/xlink">
    <title>android-chrome-maskable</title>
    <g id="Page-1" stroke="none" stroke-width="1" fill="none" fill-rule="evenodd">
        <g id="android-chrome-maskable" fill-rule="nonzero">
            <rect id="background" fill="#012E40" x="0" y="0" width="512" height="512"></rect>
            <polygon id="board" fill="#FFFFFF" points="214 113 298 113 298 84 214 84"></polygon>
            <path d="M214,126 C214,142.319876 223.362852,157.193415 238.000612,164.204917 L238.000612,260 L249.998776,260 L249.998776,217.684892 L261.996939,217.684892 L261.996939,260 L273.999388,260 L273.999388,164.144473 C288.637147,157.193415 298,142.319876 298,126 L285.997551,126 C285.997551,142.691175 272.568178,156.221993 255.997857,156.221993 C239.431822,156.221993 226.002449,142.691175 226.002449,126 M255.997857,126 C249.338876,126 243.999694,131.379515 243.999694,138.088797 C243.999694,144.79808 249.338876,150.181912 255.997857,150.181912 C262.656838,150.181912 268.000306,144.79808 268.000306,138.088797 C268.000306,131.379515 262.656838,126 255.997857,126" id="person" fill="#FFFFFF"></path>
            <path d="M355.197694,177.731019 L375.238505,157.29437 C369.165793,149.956146 362.535913,143.049076 355.340226,137 L335.303734,157.43665 C327.969834,151.456558 319.962148,146.368954 311.479357,142.147966 C309.851041,151.857531 305.026561,160.687543 297.839512,167.271249 C331.472657,183.323073 354.774418,218.052443 354.774418,258.473032 C354.774418,314.169369 310.611209,359.216229 256,359.216229 C201.388791,359.216229 157.225582,314.169369 157.225582,258.473032 C157.225582,217.673028 180.972215,182.676344 215.115018,166.831473 C207.573799,160.540951 202.373555,151.917892 200.300367,142.303181 C158.132601,163.35638 129,207.364161 129,258.473032 C129,330.001305 185.727588,388 256,388 C326.272412,388 383,330.001305 383,258.473032 C383,227.960337 372.556319,199.896592 355.197694,177.731019" id="timer" fill="#FFFFFF"></path>
        </g>
    </g>
</svg>