<?xml version="1.0" standalone="no"?>
<!DOCTYPE svg PUBLIC "-//W3C//DTD SVG 20010904//EN"
 "http://www.w3.org/TR/2001/REC-SVG-20010904/DTD/svg10.dtd">
<svg version="1.0" xmlns="http://www.w3.org/2000/svg"
     width="512.000000pt" height="512.000000pt" viewBox="0 0 512.000000 512.000000"
     preserveAspectRatio="xMidYMid meet">
    <g fill="#000000" stroke="none">
            <rect fill="#000000" x="0" y="0" width="512" height="512" rx="256"></rect>
            <circle fill="#0E0E0E" cx="255.5" cy="256.5" r="204.5"></circle>
            <circle cx="256" cy="256" r="128"></circle>
            <polygon fill="#FFFFFF" points="213 115 298 115 298 86 213 86"></polygon>
            <path d="M213,128 C213,144.441666 222.474315,159.426201 237.286334,166.490028 L237.286334,263 L249.427333,263 L249.427333,220.369108 L261.568331,220.369108 L261.568331,263 L273.713666,263 L273.713666,166.429133 C288.525685,159.426201 298,144.441666 298,128 L285.854665,128 C285.854665,144.815736 272.265419,158.44753 255.497832,158.44753 C238.734581,158.44753 225.145335,144.815736 225.145335,128 M255.497832,128 C248.759578,128 243.356833,133.41966 243.356833,140.179012 C243.356833,146.938364 248.759578,152.362374 255.497832,152.362374 C262.236086,152.362374 267.643167,146.938364 267.643167,140.179012 C267.643167,133.41966 262.236086,128 255.497832,128" fill="#FFFFFF"></path>
            <path d="M376.177391,155.970953 C370.056863,148.749674 363.374779,141.952676 356.122432,136 L335.928173,156.110966 C328.536526,150.226175 320.465787,145.219648 311.916202,141.065927 C310.275065,150.620757 305.412597,159.310052 298.168957,165.788838 C332.06693,181.584856 355.55217,215.76077 355.55217,255.537206 C355.55217,310.345953 311.041219,354.674935 256,354.674935 C200.958781,354.674935 156.44783,310.345953 156.44783,255.537206 C156.44783,215.387402 180.381445,180.948433 214.793089,165.35607 C207.192491,159.165796 201.951299,150.680157 199.861788,141.218668 C157.361992,161.936358 128,205.24282 128,255.537206 C128,325.925587 185.174262,383 256,383 C326.825738,383 384,325.925587 384,255.537206 C384,225.51077 373.474085,197.894256 355.978778,176.081919 L376.177391,155.970953 Z" fill="#FFFFFF"></path>
    </g>
</svg>
