<?xml version="1.0" standalone="no"?>
<!DOCTYPE svg PUBLIC "-//W3C//DTD SVG 20010904//EN"
 "http://www.w3.org/TR/2001/REC-SVG-20010904/DTD/svg10.dtd">
<svg version="1.0" xmlns="http://www.w3.org/2000/svg"
 width="1024.000000pt" height="1024.000000pt" viewBox="0 0 1024.000000 1024.000000"
 preserveAspectRatio="xMidYMid meet">
<metadata>
Created by potrace 1.11, written by Peter Selinger 2001-2013
</metadata>
<g transform="translate(0.000000,1024.000000) scale(0.100000,-0.100000)"
fill="#000000" stroke="none">
<path d="M4725 10219 c-1022 -86 -1950 -444 -2740 -1058 -318 -246 -635 -561
-886 -876 -1049 -1321 -1372 -3110 -854 -4725 389 -1210 1224 -2238 2340
-2880 162 -94 467 -239 655 -313 1613 -635 3445 -409 4850 596 891 638 1558
1548 1894 2584 106 327 184 694 221 1043 23 208 31 661 16 876 -74 1047 -448
2012 -1095 2829 -246 310 -557 617 -881 870 -131 103 -439 309 -585 393 -611
349 -1290 568 -2005 647 -177 20 -759 29 -930 14z m1435 -1254 l0 -345 -1007
2 -1008 3 -3 330 c-1 181 0 336 3 342 3 10 211 13 1010 13 l1005 0 0 -345z
m-1726 -691 c3 -9 6 -33 6 -53 0 -54 34 -180 66 -243 91 -182 237 -309 429
-374 71 -24 95 -27 215 -27 118 0 145 3 212 25 282 93 471 329 503 626 l7 62
145 0 145 0 -7 -77 c-16 -170 -81 -354 -175 -494 -81 -120 -232 -254 -357
-318 l-43 -21 0 -1145 0 -1146 -142 3 -143 3 -3 503 -2 502 -140 0 -140 0 0
-505 0 -505 -145 0 -145 0 0 1145 0 1145 -42 21 c-289 147 -505 475 -525 797
l-6 92 140 0 c119 0 142 -2 147 -16z m819 -4 c184 -69 245 -307 116 -454 -60
-68 -127 -99 -214 -100 -266 -3 -391 321 -193 499 83 74 186 94 291 55z m2415
-336 c83 -80 188 -188 233 -240 l82 -96 -149 -151 c-82 -84 -189 -193 -238
-244 l-89 -91 50 -69 c154 -208 298 -469 396 -718 338 -857 271 -1856 -178
-2655 -436 -776 -1182 -1329 -2023 -1499 -249 -51 -307 -56 -617 -56 -310 0
-392 8 -635 61 -779 170 -1466 655 -1905 1344 -78 123 -216 395 -268 530 -144
376 -209 726 -210 1140 0 223 10 345 44 540 159 908 709 1692 1508 2149 69 39
130 71 136 71 6 0 22 -37 35 -81 26 -92 91 -225 147 -302 20 -29 68 -84 106
-123 l68 -71 -108 -59 c-661 -361 -1096 -967 -1230 -1714 -24 -130 -27 -171
-27 -395 -1 -280 11 -389 69 -620 43 -170 90 -297 175 -470 118 -241 242 -416
435 -613 197 -204 388 -342 640 -467 228 -113 448 -181 710 -221 135 -20 459
-23 595 -5 420 56 820 221 1138 468 493 384 804 914 909 1548 26 157 26 573 0
730 -43 260 -110 473 -221 700 -220 449 -575 821 -1010 1055 l-96 52 57 61
c113 123 214 311 249 465 l16 71 62 -30 c130 -66 280 -161 435 -278 l73 -55
235 242 c129 133 238 242 243 242 4 0 75 -66 158 -146z"/>
</g>
</svg>
