<?xml version="1.0" encoding="UTF-8"?>
<svg width="212px" height="206px" viewBox="0 0 212 206" version="1.1" xmlns="http://www.w3.org/2000/svg" xmlns:xlink="http://www.w3.org/1999/xlink">
    <!-- Generator: Sketch 58 (84663) - https://sketch.com -->
    <title>bentarmhang</title>
    <desc>Created with Sketch.</desc>
    <defs>
        <rect id="path-1" x="0" y="0" width="212" height="214"></rect>
    </defs>
    <g id="Page-1" stroke="none" stroke-width="1" fill="none" fill-rule="evenodd">
        <g id="bentarmhang" transform="translate(0.000000, -8.000000)">
            <mask id="mask-2" fill="white">
                <use xlink:href="#path-1"></use>
            </mask>
            <g id="Mask"></g>
            <g id="Group" mask="url(#mask-2)">
                <g transform="translate(-130.000000, -64.000000)">
                    <path d="M186.672903,254 C169.380114,254 128.021252,252.387196 132.309829,218.495033 C138.365911,170.634477 164.954999,103.593648 172.007753,93.1250452 C184.321082,74.8473086 195.187635,90.6457189 195.325673,108.648602 C195.416033,120.433312 159.681029,177.931617 159.594794,216.696041 C159.549293,237.149999 193.299109,226.009575 195.325673,227.778711 C203.965692,235.321217 203.965692,254 186.672903,254 Z" id="Path" fill="#835D40" fill-rule="nonzero"></path>
                    <path d="M322.173719,249.450179 C321.445833,249.450179 243.556686,278 266.08989,205.129269 C288.623093,132.258538 301.048769,104.590767 308.164699,94.1237863 C320.588329,75.8488816 331.552221,91.6448441 331.691496,109.644938 C331.782665,121.427822 293.79578,178.917218 293.708773,217.675637 C293.662865,238.126425 331.348465,222.590296 333.393182,224.359159 C342.110596,231.900495 339.621413,249.450179 322.173719,249.450179 Z" id="Path" fill="#835D40" fill-rule="nonzero" transform="translate(300.138695, 170.480279) scale(-1, 1) translate(-300.138695, -170.480279) "></path>
                    <path d="M33.8312946,0 C33.8312946,0 241.870203,237.310095 465.584675,0 L487,0 C487,0 402.653511,134.683426 244.486581,124.444448 C86.3215422,114.207413 0,1.08739376 0,1.08739376 L33.8312946,0 Z" id="Path" fill="#B18C79" fill-rule="nonzero"></path>
                    <g id="Group-3" stroke-width="1" fill="none" fill-rule="evenodd" transform="translate(178.000000, 203.000000)">
                        <ellipse id="Oval" fill="#835D40" fill-rule="nonzero" cx="55.5" cy="86" rx="55.5" ry="86"></ellipse>
                        <ellipse id="Oval" fill="#F3E8D3" fill-rule="nonzero" cx="52.9186047" cy="109.454545" rx="40.0116279" ry="62.5454545"></ellipse>
                    </g>
                    <g id="Group-2" stroke-width="1" fill="none" fill-rule="evenodd" transform="translate(178.000000, 128.000000)">
                        <ellipse id="Oval" fill="#835D40" fill-rule="nonzero" cx="51.5" cy="57.0952381" rx="51.5" ry="51.9047619"></ellipse>
                        <g id="Group" transform="translate(13.875000, 24.357143)">
                            <path d="M1.06895652,43.2282287 C1.20380815,43.8512669 9.73640652,80.6666506 38.2861592,79.3588317 C66.8322174,78.0528837 76.523062,56.4673228 76.523062,56.4673228 L1.06895652,43.2282287 Z" id="Path" fill="#835D40" fill-rule="nonzero"></path>
                            <path d="M74.2176533,8.95925637 C59.0034337,-11.1089352 41.8569565,8.95925637 41.8569565,8.95925637 C41.8569565,8.95925637 23.5060511,-10.0518283 8.2936788,10.0163632 C-3.81710598,25.9927093 -9.242575,69.953387 45.4794777,72.5203793 C94.9219967,68.2395642 86.328438,24.9356024 74.2176533,8.95925637 Z" id="Path" fill="#F3E8D3" fill-rule="nonzero"></path>
                            <path d="M74.2176533,8.95925637 C59.0034337,-11.1089352 41.8569565,8.95925637 41.8569565,8.95925637 C41.8569565,8.95925637 23.5060511,-10.0518283 8.2936788,10.0163632 C-3.81710598,25.9927093 -9.242575,69.953387 45.4794777,72.5203793 C94.9219967,68.2395642 86.328438,24.9356024 74.2176533,8.95925637 Z" id="Path" stroke="#A57B74" stroke-linejoin="round"></path>
                            <path d="M0.501840761,39.4638056 C1.20750272,46.6090997 3.90084076,53.6945221 9.5479837,59.4739967 C10.1224886,55.7170576 12.2967402,47.469753 20.5411625,41.6940205 C31.5214103,33.9986567 37.5509408,23.5080404 28.5084924,16.8679125 C21.2135734,11.5131517 1.61390489,17.0101074 0.501840761,39.4638056 Z" id="Path" fill="#A57B74" fill-rule="nonzero"></path>
                            <path d="M55.5139168,16.8660415 C46.4696212,23.5061694 52.5009989,33.9967857 63.4812467,41.6921495 C73.3679033,48.6204092 74.5243022,59.0829607 74.6573065,61.1036251 C80.6628223,55.1202132 83.2009886,47.4903339 83.537194,39.7425825 C82.5821489,17.0512691 62.8402397,11.4888289 55.5139168,16.8660415 Z" id="Path" fill="#A57B74" fill-rule="nonzero"></path>
                            <path d="M8.79059783,26.1292913 C8.79059783,26.1292913 16.3736929,37.5441744 23.956788,25.0347647 C23.956788,25.0347647 16.3736929,31.8376683 8.79059783,26.1292913 Z" id="Path" fill="#896660" fill-rule="nonzero"></path>
                            <path d="M59.9289223,25.1470238 C59.9289223,25.1470238 67.5138647,36.560036 75.0988074,24.0487549 C75.1006543,24.0468843 67.5138647,30.8497879 59.9289223,25.1470238 Z" id="Path" fill="#896660" fill-rule="nonzero"></path>
                            <ellipse id="Oval" fill="#F3E8D3" fill-rule="nonzero" cx="42.6124951" cy="50.6541705" rx="21.4303255" ry="15.7761506"></ellipse>
                            <path d="M24.3668848,52.6074795 C24.3668848,52.6074795 31.0651315,61.1054961 41.9290005,61.090548 C55.3107158,61.0699474 59.0994924,52.6074795 59.0994924,52.6074795 C59.0994924,52.6074795 45.1709815,69.9159673 24.3668848,52.6074795 Z" id="Path" fill="#A57B74" fill-rule="nonzero"></path>
                            <ellipse id="Oval" fill="#A57B74" fill-rule="nonzero" cx="24.806538" cy="52.7721262" rx="1.83250435" ry="1.85601772"></ellipse>
                            <ellipse id="Oval" fill="#A57B74" fill-rule="nonzero" cx="59.103187" cy="51.9245698" rx="1.83250435" ry="1.85601772"></ellipse>
                            <ellipse id="Oval" fill="#A57B74" fill-rule="nonzero" cx="41.7350359" cy="44.5173378" rx="7.93962065" ry="3.90474695"></ellipse>
                            <ellipse id="Oval" fill="#896660" fill-rule="nonzero" cx="38.284312" cy="44.4050786" rx="1.5406337" ry="1.17872093"></ellipse>
                            <ellipse id="Oval" fill="#896660" fill-rule="nonzero" cx="44.8199978" cy="44.5173378" rx="1.53878641" ry="1.17684994"></ellipse>
                            <path d="M27.3169951,56.9556501 C27.3169951,56.9556501 39.7141087,71.1826246 57.2706826,57.2643627 C57.2706826,57.2643627 41.5687804,74.0433616 27.3169951,56.9556501 Z" id="Path" fill="#F4EDED" fill-rule="nonzero"></path>
                            <path d="M12.8139793,10.7647575 C12.8139793,10.7647575 20.5928864,5.71496733 25.9038239,10.7647575 C25.9038239,10.7647575 20.524537,2.64467996 12.8139793,10.7647575 Z" id="Path" fill="#896660" fill-rule="nonzero"></path>
                            <path d="M54.2429864,11.8218643 C54.2429864,11.8218643 62.0237408,6.7720742 67.3291364,11.8218643 C67.3291364,11.8218643 61.9553913,3.69804485 54.2429864,11.8218643 Z" id="Path" fill="#896660" fill-rule="nonzero"></path>
                        </g>
                        <path d="M37.9191838,13.7774732 C37.9191838,13.7774732 29.557966,8.20725532 18.025,17.174134 C18.025,17.174134 32.9031836,-0.395240429 48.6998411,11.4637688 C48.6998411,11.4637688 45.7746018,1.80634616 38.0652632,0.0124607911 C38.0652632,0.0124607911 47.2609594,-0.754527129 52.1162723,9.74632742 C52.1162723,9.74632742 59.7251814,-5.87627371 79.1829531,2.83069548 C79.1829531,2.83069548 71.2891893,0.0022682606 61.5603034,8.58692708 C61.5603034,8.58692708 72.4121744,2.83069548 84.975,20.7619048 C84.975,20.7619048 76.429357,8.97679137 62.111753,15.3827968 C47.795975,21.7837059 37.9191838,13.7774732 37.9191838,13.7774732 Z" id="Path" fill="#835D40" fill-rule="nonzero"></path>
                    </g>
                    <g id="Group" stroke-width="1" fill="none" fill-rule="evenodd" transform="translate(269.000000, 89.000000)">
                        <path d="M5.54271429,1.3662 C5.54271429,1.3662 3.83971429,0.1098 1.66685714,4.716 C-0.507857143,9.324 0.149571429,21.6414 5.31428571,28.9656 C5.31428571,28.9656 4.83142857,18.9738 5.75257143,12.708 C6.67185714,6.4422 6.46757143,1.4796 5.54271429,1.3662 Z" id="Path" fill="#FCFAFB" fill-rule="nonzero"></path>
                        <path d="M12.013,1.1646 C12.013,1.1646 9.16042857,0.2916 8.737,4.2894 C8.31357143,8.2836 10.3824286,20.5416 10.7817143,26.7246 C11.1772857,32.9058 11.6285714,35.6166 11.6285714,35.6166 C11.6285714,35.6166 13.8868571,31.9968 14.6965714,21.7332 C15.51,11.4678 14.9918571,1.4454 12.013,1.1646 Z" id="Path" fill="#FCFAFB" fill-rule="nonzero"></path>
                        <path d="M19.293,0.2664 C19.293,0.2664 16.1971429,-0.1638 16.5202857,6.5412 C16.8452857,13.2462 21.6014286,28.3212 21.4677143,30.5838 C21.4677143,30.5838 23.5644286,23.9004 23.2282857,15.3972 C22.8847143,6.8976 21.8001429,0.7578 19.293,0.2664 Z" id="Path" fill="#FCFAFB" fill-rule="nonzero"></path>
                    </g>
                    <g id="Group" stroke-width="1" fill="none" fill-rule="evenodd" transform="translate(170.000000, 89.000000)">
                        <path d="M8.39,1.0188 C8.39,1.0188 6.778,-0.4662 3.716,3.7836 C0.652,8.0352 -0.646,20.313 3.67,28.2888 C3.67,28.2888 4.78,18.3348 6.774,12.2688 C8.77,6.201 9.356,1.2618 8.39,1.0188 Z" id="Path" fill="#FCFAFB" fill-rule="nonzero"></path>
                        <path d="M15.314,1.7352 C15.314,1.7352 12.418,0.468 11.318,4.3614 C10.22,8.2548 10.438,20.673 9.858,26.847 C9.278,33.0192 9.32,35.7642 9.32,35.7642 C9.32,35.7642 12.314,32.5026 14.84,22.4622 C17.372,12.4236 18.444,2.4336 15.314,1.7352 Z" id="Path" fill="#FCFAFB" fill-rule="nonzero"></path>
                        <path d="M23.216,1.8756 C23.216,1.8756 19.988,1.0134 19.244,7.6896 C18.504,14.3676 21.126,29.9538 20.62,32.175 C20.62,32.175 23.938,25.8588 24.954,17.4006 C25.968,8.9442 25.808,2.718 23.216,1.8756 Z" id="Path" fill="#FCFAFB" fill-rule="nonzero"></path>
                    </g>
                </g>
            </g>
        </g>
    </g>
</svg>