<?xml version="1.0" encoding="UTF-8"?>
<svg width="214px" height="214px" viewBox="0 0 214 214" version="1.1" xmlns="http://www.w3.org/2000/svg" xmlns:xlink="http://www.w3.org/1999/xlink">
    <!-- Generator: Sketch 58 (84663) - https://sketch.com -->
    <title>deadhang</title>
    <desc>Created with Sketch.</desc>
    <defs>
        <rect id="path-1" x="0" y="0" width="214" height="214"></rect>
    </defs>
    <g id="Page-1" stroke="none" stroke-width="1" fill="none" fill-rule="evenodd">
        <g id="deadhang">
            <mask id="mask-2" fill="white">
                <use xlink:href="#path-1"></use>
            </mask>
            <g id="Mask"></g>
            <g id="Group" mask="url(#mask-2)">
                <g transform="translate(-105.000000, -67.000000)">
                    <path d="M254.712588,264.348189 C256.207143,262.893592 275.118883,113.346362 263.468299,96.0373662 C251.817715,78.7301528 241.536037,93.6896888 241.407082,110.736643 C241.276474,127.783598 244.832655,234.635898 241.407082,247.987534 C237.981509,261.339169 244.877293,273.918941 254.712588,264.348189 Z" id="Path" fill="#835D40" fill-rule="nonzero"></path>
                    <path d="M162.183614,253.638621 C160.689182,252.184034 141.777343,102.637853 153.428623,85.3289789 C165.07825,68.0218869 175.359083,82.981318 175.48968,100.028153 C175.620278,117.074988 172.064389,223.926539 175.48968,237.279863 C178.914971,250.633188 172.018101,263.211089 162.183614,253.638621 Z" id="Path" fill="#835D40" fill-rule="nonzero"></path>
                    <path d="M32.3029815,0 C32.3029815,0 230.943828,228.707604 444.552103,0 L465,0 C465,0 384.463824,129.801152 233.442012,119.933337 C82.4220064,110.067394 -1.13686838e-13,1.04797573 -1.13686838e-13,1.04797573 L32.3029815,0 Z" id="Path" fill="#B18C79" fill-rule="nonzero"></path>
                    <g id="Group-3" stroke-width="1" fill="none" fill-rule="evenodd" transform="translate(155.000000, 214.166667)">
                        <ellipse id="Oval" fill="#835D40" fill-rule="nonzero" cx="52.112069" cy="81.6510417" rx="52.112069" ry="81.6510417"></ellipse>
                        <ellipse id="Oval" fill="#F3E8D3" fill-rule="nonzero" cx="49.6882518" cy="103.919508" rx="37.569166" ry="59.3825758"></ellipse>
                    </g>
                    <g id="Group-2" stroke-width="1" fill="none" fill-rule="evenodd" transform="translate(155.000000, 144.562500)">
                        <ellipse id="Oval" fill="#835D40" fill-rule="nonzero" cx="49.4396552" cy="54.6889881" rx="49.4396552" ry="49.7172619"></ellipse>
                        <g id="Group" transform="translate(13.359914, 22.372768)">
                            <path d="M0.986184408,42.3642523 C1.11564107,42.9610329 9.30687837,78.2248508 36.7144498,76.9721493 C64.1184745,75.7212398 73.4216204,55.0453915 73.4216204,55.0453915 L0.986184408,42.3642523 Z" id="Path" fill="#835D40" fill-rule="nonzero"></path>
                            <path d="M71.2084435,9.53952853 C56.6028946,-9.68289924 40.1423913,9.53952853 40.1423913,9.53952853 C40.1423913,9.53952853 22.525645,-8.67034361 7.92186942,10.5520842 C-3.70440288,25.8551152 -8.91281681,67.9630923 43.6199874,70.4219 C91.0844746,66.3214977 82.8347158,24.8425596 71.2084435,9.53952853 Z" id="Path" fill="#F3E8D3" fill-rule="nonzero"></path>
                            <path d="M71.2084435,9.53952853 C56.6028946,-9.68289924 40.1423913,9.53952853 40.1423913,9.53952853 C40.1423913,9.53952853 22.525645,-8.67034361 7.92186942,10.5520842 C-3.70440288,25.8551152 -8.91281681,67.9630923 43.6199874,70.4219 C91.0844746,66.3214977 82.8347158,24.8425596 71.2084435,9.53952853 Z" id="Path" stroke="#A57B74" stroke-linejoin="round"></path>
                            <path d="M0.441757075,38.758479 C1.11918783,45.6026382 3.70477432,52.3894491 9.12599372,57.9253506 C9.67751457,54.3267458 11.7647816,46.4270198 19.6793718,40.8947025 C30.2203362,33.523656 36.008645,23.4751614 27.3279551,17.1148784 C20.3248817,11.9857913 1.50933119,17.2510805 0.441757075,38.758479 Z" id="Path" fill="#A57B74" fill-rule="nonzero"></path>
                            <path d="M53.2529818,17.1130862 C44.5705185,23.4733693 50.3606007,33.5218638 60.9015651,40.8929104 C70.3926892,47.5291821 71.5028244,57.5507946 71.6305077,59.4862992 C77.3957626,53.7550551 79.8323853,46.4467332 80.1551402,39.0255069 C79.2383033,17.2905075 60.2862026,11.9624935 53.2529818,17.1130862 Z" id="Path" fill="#A57B74" fill-rule="nonzero"></path>
                            <path d="M8.39890836,25.985941 C8.39890836,25.985941 15.6786289,36.9197496 22.9583494,24.9375427 C22.9583494,24.9375427 15.6786289,31.4537414 8.39890836,25.985941 Z" id="Path" fill="#896660" fill-rule="nonzero"></path>
                            <path d="M57.4913574,25.0450707 C57.4913574,25.0450707 64.7728513,35.9770872 72.0543456,23.9930877 C72.0561186,23.991296 64.7728513,30.5074947 57.4913574,25.0450707 Z" id="Path" fill="#896660" fill-rule="nonzero"></path>
                            <ellipse id="Oval" fill="#F3E8D3" fill-rule="nonzero" cx="40.8677033" cy="49.4772316" rx="20.572969" ry="15.1112727"></ellipse>
                            <path d="M23.3520395,51.3482193 C23.3520395,51.3482193 29.7823116,59.4880913 40.2115531,59.4737732 C53.0579101,59.4540408 56.6951103,51.3482193 56.6951103,51.3482193 C56.6951103,51.3482193 43.3238331,67.9272497 23.3520395,51.3482193 Z" id="Path" fill="#A57B74" fill-rule="nonzero"></path>
                            <ellipse id="Oval" fill="#A57B74" fill-rule="nonzero" cx="23.7741037" cy="51.5059271" rx="1.7591919" ry="1.77779679"></ellipse>
                            <ellipse id="Oval" fill="#A57B74" fill-rule="nonzero" cx="56.698657" cy="50.6940905" rx="1.7591919" ry="1.77779679"></ellipse>
                            <ellipse id="Oval" fill="#A57B74" fill-rule="nonzero" cx="40.0253483" cy="43.5990325" rx="7.62198266" ry="3.74018336"></ellipse>
                            <ellipse id="Oval" fill="#896660" fill-rule="nonzero" cx="36.7126764" cy="43.4915045" rx="1.47899803" ry="1.12904433"></ellipse>
                            <ellipse id="Oval" fill="#896660" fill-rule="nonzero" cx="42.9868911" cy="43.5990325" rx="1.47722465" ry="1.1272522"></ellipse>
                            <path d="M26.1841257,55.5131384 C26.1841257,55.5131384 38.0852717,69.1405243 54.9394651,55.8088405 C54.9394651,55.8088405 39.8657442,71.880697 26.1841257,55.5131384 Z" id="Path" fill="#F4EDED" fill-rule="nonzero"></path>
                            <path d="M12.2613277,11.2689377 C12.2613277,11.2689377 19.7290264,6.43196842 24.8274908,11.2689377 C24.8274908,11.2689377 19.6634114,3.49107676 12.2613277,11.2689377 Z" id="Path" fill="#896660" fill-rule="nonzero"></path>
                            <path d="M52.0328971,12.2814933 C52.0328971,12.2814933 59.5023691,7.44452405 64.5955134,12.2814933 C64.5955134,12.2814933 59.4367541,4.50004812 52.0328971,12.2814933 Z" id="Path" fill="#896660" fill-rule="nonzero"></path>
                        </g>
                        <path d="M36.4021626,13.1968286 C36.4021626,13.1968286 28.3754495,7.86136468 17.3038793,16.4503388 C17.3038793,16.4503388 31.5868359,-0.378583221 46.7515214,10.9806341 C46.7515214,10.9806341 43.9433112,1.73021861 36.5423978,0.0119356374 C36.5423978,0.0119356374 45.3702045,-0.722727964 50.0312725,9.33557337 C50.0312725,9.33557337 57.3357742,-5.62862112 76.0151048,2.71139724 C76.0151048,2.71139724 68.4371444,0.0021726659 59.0974791,8.22503537 C59.0974791,8.22503537 69.5152026,2.71139724 81.575431,19.8869048 C81.575431,19.8869048 73.371671,8.59846903 59.626867,14.7344966 C45.883816,20.8656426 36.4021626,13.1968286 36.4021626,13.1968286 Z" id="Path" fill="#835D40" fill-rule="nonzero"></path>
                    </g>
                    <g id="Group" stroke-width="1" fill="none" fill-rule="evenodd" transform="translate(244.189655, 88.343750)">
                        <path d="M5.05244458,1.42233437 C5.05244458,1.42233437 3.47705665,0.114311458 1.4670197,4.90977083 C-0.544735222,9.70710417 0.063429803,22.530601 4.841133,30.1557375 C4.841133,30.1557375 4.39445813,19.7533948 5.24657635,13.2301458 C6.0969766,6.70689688 5.90799877,1.54039375 5.05244458,1.42233437 Z" id="Path" fill="#FCFAFB" fill-rule="nonzero"></path>
                        <path d="M11.0378879,1.21245104 C11.0378879,1.21245104 8.3990702,0.30358125 8.00737069,4.46564271 C7.61567118,8.62395625 9.52950123,21.3856125 9.898867,27.8226594 C10.2647968,34.2578323 10.682266,37.0800135 10.682266,37.0800135 C10.682266,37.0800135 12.77133,33.3114833 13.5203695,22.6261729 C14.2728448,11.9389885 13.7935283,1.50478854 11.0378879,1.21245104 Z" id="Path" fill="#FCFAFB" fill-rule="nonzero"></path>
                        <path d="M17.7723707,0.277345833 C17.7723707,0.277345833 14.9084975,-0.170530208 15.2074261,6.80996458 C15.5080727,13.7904594 19.9078202,29.4848604 19.7841256,31.840426 C19.7841256,31.840426 21.7237254,24.8824188 21.4127709,16.0298396 C21.0949446,7.18100833 20.0916441,0.788936458 17.7723707,0.277345833 Z" id="Path" fill="#FCFAFB" fill-rule="nonzero"></path>
                    </g>
                    <g id="Group" stroke-width="1" fill="none" fill-rule="evenodd" transform="translate(149.655172, 82.989583)">
                        <path d="M7.76130637,1.06066042 C7.76130637,1.06066042 6.27009947,-0.485355208 3.43754642,3.93906042 C0.603143236,8.36535 -0.597592838,21.1476198 3.39499337,29.4511292 C3.39499337,29.4511292 4.42181698,19.0881396 6.2663992,12.7729 C8.11283156,6.45578646 8.65492042,1.31364479 7.76130637,1.06066042 Z" id="Path" fill="#FCFAFB" fill-rule="nonzero"></path>
                        <path d="M14.1664655,1.80649583 C14.1664655,1.80649583 11.4874735,0.487229167 10.4699005,4.54060104 C9.45417772,8.59397292 9.65584218,21.5224115 9.11930371,27.9500885 C8.58276525,34.3758917 8.62161804,37.2336781 8.62161804,37.2336781 C8.62161804,37.2336781 11.3912666,33.8380656 13.7279841,23.385126 C16.070252,12.9340604 17.0619231,2.53359167 14.1664655,1.80649583 Z" id="Path" fill="#FCFAFB" fill-rule="nonzero"></path>
                        <path d="M21.4763395,1.95266458 C21.4763395,1.95266458 18.4902255,1.05503854 17.8019761,8.00555 C17.1174271,14.9579354 19.5429509,31.1845406 19.0748674,33.4970052 C19.0748674,33.4970052 22.1442374,26.9212854 23.0841048,18.1155552 C24.022122,9.31169896 23.8741114,2.82967708 21.4763395,1.95266458 Z" id="Path" fill="#FCFAFB" fill-rule="nonzero"></path>
                    </g>
                </g>
            </g>
        </g>
    </g>
</svg>