<?xml version="1.0" encoding="UTF-8"?>
<svg width="213px" height="213px" viewBox="0 0 213 213" version="1.1" xmlns="http://www.w3.org/2000/svg" xmlns:xlink="http://www.w3.org/1999/xlink">
    <!-- Generator: Sketch 58 (84663) - https://sketch.com -->
    <title>frontlever</title>
    <desc>Created with Sketch.</desc>
    <defs>
        <rect id="path-1" x="0" y="0" width="213" height="214"></rect>
    </defs>
    <g id="Page-1" stroke="none" stroke-width="1" fill="none" fill-rule="evenodd">
        <g id="frontlever">
            <mask id="mask-2" fill="white">
                <use xlink:href="#path-1"></use>
            </mask>
            <g id="Mask"></g>
            <g id="Group" mask="url(#mask-2)">
                <g transform="translate(-58.000000, -10.000000)">
                    <path d="M202.116667,213.176667 C208.964618,186.390169 206.439825,183.504304 210.244715,144.842527 C213.773477,108.993643 210.282948,87.2546548 222.016224,88.1854012 C233.338851,89.0831035 234.249362,97.0508991 236.265797,111.247536 C241.217676,146.1285 209.179856,194.231295 202.116667,213.176667 Z" id="Path" fill="#835D40" fill-rule="nonzero" transform="translate(219.450000, 150.666667) rotate(90.000000) translate(-219.450000, -150.666667) "></path>
                    <ellipse id="Oval" fill="#835D40" fill-rule="nonzero" transform="translate(156.189832, 152.280845) rotate(-77.338202) translate(-156.189832, -152.280845) " cx="156.189832" cy="152.280845" rx="42.2582725" ry="66.3285288"></ellipse>
                    <path d="M166.347903,111.699383 C159.313079,110.2294 152.380124,109.465984 145.729494,109.333333 C144.154881,111.061849 142.917892,113.000169 142.102936,115.144233 C136.565595,129.719533 152.04541,148.098381 176.680393,156.195469 C194.888858,162.183687 212.993999,160.869365 223.44,153.893037 C219.678101,135.659022 196.894234,118.086906 166.347903,111.699383 Z" id="Path" fill="#F3E8D3" fill-rule="nonzero"></path>
                    <path d="M112.95282,168 C112.95282,168 106.460087,139.112929 110.244856,103.233205 C114.029626,67.3507247 116.767964,46.826172 125.569224,45.4866255 C134.370484,44.1470791 141.347704,51.6372385 140.964974,65.9753467 C140.580726,80.3189675 120.525396,149.036873 112.95282,168 Z" id="Path" fill="#835D40" fill-rule="nonzero"></path>
                    <g id="Group" stroke-width="1" fill="none" fill-rule="evenodd" transform="translate(38.240000, 91.666667)">
                        <ellipse id="Oval" fill="#835D40" fill-rule="nonzero" cx="45.5327318" cy="40.6890952" rx="38.3095816" ry="40.5273333"></ellipse>
                        <g transform="translate(15.744918, 7.380952)">
                            <path d="M25.9992761,67.1202857 C26.4820879,67.1808095 55.0461272,70.3029524 61.2989587,48.0080476 C67.5489993,25.7175714 54.4991266,12.5883333 54.4991266,12.5883333 L25.9992761,67.1202857 Z" id="Path" fill="#835D40" fill-rule="nonzero"></path>
                            <path d="M19.8287738,1.86528571 C1.59913967,8.28671429 11.6795803,26.7464762 11.6795803,26.7464762 C11.6795803,26.7464762 -6.58354361,35.8545714 3.98529049,52.8307619 C12.4010072,66.3408571 42.5795357,82.0785238 58.2025443,40.6758095 C67.5838846,1.53757143 34.3438269,-3.24380952 19.8287738,1.86528571 Z" id="Path" fill="#F3E8D3" fill-rule="nonzero"></path>
                            <path d="M19.8287738,1.86528571 C1.59913967,8.28671429 11.6795803,26.7464762 11.6795803,26.7464762 C11.6795803,26.7464762 -6.58354361,35.8545714 3.98529049,52.8307619 C12.4010072,66.3408571 42.5795357,82.0785238 58.2025443,40.6758095 C67.5838846,1.53757143 34.3438269,-3.24380952 19.8287738,1.86528571 Z" id="Path" stroke="#A57B74" stroke-linejoin="round"></path>
                            <path d="M23.1568262,66.5667143 C28.460779,67.9041429 34.225217,67.6945238 39.7929023,64.8764762 C37.2420931,63.4430952 31.8725561,59.6035238 29.8017679,51.7457619 C27.0458334,41.276619 21.0371987,33.8809048 13.9945652,39.0889048 C8.3138518,43.2886667 7.32450623,59.8087143 23.1568262,66.5667143 Z" id="Path" fill="#A57B74" fill-rule="nonzero"></path>
                            <path d="M20.793002,18.3262857 C23.2810177,27.0254762 32.3274597,25.1477619 40.6147987,18.7292857 C48.0774505,12.9485238 55.8750007,14.8114762 57.3569259,15.2410476 C54.5772695,9.05138095 49.7393836,5.0922381 44.2665862,2.79380952 C27.7435384,-2.43633333 18.7794256,11.2789524 20.793002,18.3262857 Z" id="Path" fill="#A57B74" fill-rule="nonzero"></path>
                            <path d="M15.6746387,56.6865714 C15.6746387,56.6865714 25.7746151,53.8581905 18.7082597,44.7382857 C18.7082597,44.7382857 21.681878,52.3569048 15.6746387,56.6865714 Z" id="Path" fill="#896660" fill-rule="nonzero"></path>
                            <path d="M27.8467987,17.1099048 C27.8467987,17.1099048 37.9467751,14.2785714 30.8776289,5.15571429 C30.8776289,5.15571429 33.8512472,12.7787619 27.8467987,17.1099048 Z" id="Path" fill="#896660" fill-rule="nonzero"></path>
                            <ellipse id="Oval" fill="#F3E8D3" fill-rule="nonzero" transform="translate(41.815531, 37.127940) rotate(-70.889224) translate(-41.815531, -37.127940) " cx="41.8155309" cy="37.1279395" rx="17.3360733" ry="12.0605833"></ellipse>
                            <path d="M38.5984315,51.6734286 C38.5984315,51.6734286 46.3820275,48.7609048 49.107263,40.4027143 C52.4618282,30.1092381 47.3434649,24.9691429 47.3434649,24.9691429 C47.3434649,24.9691429 56.2559475,40.2329524 38.5984315,51.6734286 Z" id="Path" fill="#A57B74" fill-rule="nonzero"></path>
                            <ellipse id="Oval" fill="#A57B74" fill-rule="nonzero" cx="38.8258833" cy="51.3781905" rx="1.41075934" ry="1.49242857"></ellipse>
                            <ellipse id="Oval" fill="#A57B74" fill-rule="nonzero" cx="46.8550715" cy="24.7875714" rx="1.41075934" ry="1.49242857"></ellipse>
                            <ellipse id="Oval" fill="#A57B74" fill-rule="nonzero" transform="translate(37.155068, 36.242040) rotate(-70.876520) translate(-37.155068, -36.242040) " cx="37.1550675" cy="36.2420401" rx="6.42199481" ry="2.98566669"></ellipse>
                            <ellipse id="Oval" fill="#896660" fill-rule="nonzero" transform="translate(36.206969, 38.869337) rotate(-70.876520) translate(-36.206969, -38.869337) " cx="36.2069686" cy="38.8693368" rx="1.24747857" ry="1"></ellipse>
                            <ellipse id="Oval" fill="#896660" fill-rule="nonzero" transform="translate(38.026637, 33.848654) rotate(-70.938160) translate(-38.026637, -33.848654) " cx="38.0266366" cy="33.8486541" rx="1.24611932" ry="1"></ellipse>
                            <path d="M42.4609259,50.5485714 C42.4609259,50.5485714 55.7912761,44.7589524 50.2249862,27.6011905 C50.2249862,27.6011905 58.3113862,44.0872857 42.4609259,50.5485714 Z" id="Path" fill="#F4EDED" fill-rule="nonzero"></path>
                            <path d="M5.66257311,49.553619 C5.66257311,49.553619 3.99784918,42.2420476 8.95992656,39.4889524 C8.95992656,39.4889524 1.77775213,41.4862381 5.66257311,49.553619 Z" id="Path" fill="#896660" fill-rule="nonzero"></path>
                            <path d="M16.8523646,17.9764286 C16.8523646,17.9764286 15.1904315,10.6678095 20.149718,7.91471429 C20.149718,7.91471429 12.9661482,9.91052381 16.8523646,17.9764286 Z" id="Path" fill="#896660" fill-rule="nonzero"></path>
                        </g>
                        <path d="M7.30547934,37.897619 C7.30547934,37.897619 2.24153705,43.3270476 4.02626623,54.0264762 C4.02626623,54.0264762 -1.44094951,39.059381 8.83345311,29.0640952 C8.83345311,29.0640952 2.99784918,29.4759524 0.089815082,35.1238571 C0.089815082,35.1238571 2.02803934,27.8240952 8.79717246,26.0762857 C8.79717246,26.0762857 2.50108328,17.1379524 12.0484774,3.68838095 C12.0484774,3.68838095 8.54599869,9.27871429 10.5902741,18.5049048 C10.5902741,18.5049048 10.3237508,8.95247619 22.9717456,2.64471429 C22.9717456,2.64471429 14.5853325,7.01571429 14.3104367,19.390619 C14.0397272,31.7610952 7.30547934,37.897619 7.30547934,37.897619 Z" id="Path" fill="#835D40" fill-rule="nonzero"></path>
                    </g>
                    <path d="M399,117.333333 C399,117.333333 5.06954907,45.2602851 1.42108547e-13,35.1685639 C1.42108547e-13,35.1685639 1.44621671,25.9354426 29.6934778,29.8322738 C57.9421554,33.7291049 86.1894166,38.8891635 86.1894166,38.8891635 L74.5998523,10.6780234 C74.5998523,10.6780234 76.7713021,1.80300453 82.5675007,6.23134992 C88.3608664,10.6596953 118.698838,45.0925127 118.698838,45.0925127 C118.698838,45.0925127 267.262548,72.8186637 288.99121,77.4035027 C288.99121,77.4035027 268.626609,36.8899933 261.384194,33.6374645 C254.141778,30.3877555 215.302148,1.99897397 213.130699,1.37863906 C210.956416,0.761123847 212.215659,0.159117008 220.907124,0.00121357474 C229.598588,-0.156689858 253.500117,15.1218771 273.055913,29.8308639 C292.611709,44.5398507 313.616555,77.8786228 313.616555,77.8786228 L380.251592,88.5878592 L399,117.333333 Z" id="Path" fill="#B18C79" fill-rule="nonzero"></path>
                    <path d="M144.780999,48.1385591 C144.780999,48.1385591 156.707461,46.0239071 159.205768,58.3169145 C161.704076,70.609922 157.403269,161.464183 125.049383,178.35026 C125.049383,178.35026 112.287799,178.741192 112.855796,167.380952 C113.420872,156.019298 130.344549,127.186065 133.829914,104.206563 C137.310899,81.2270606 132.834096,52.6863349 144.780999,48.1385591 Z" id="Path" fill="#835D40" fill-rule="nonzero"></path>
                    <path d="M144.780999,48.1385591 C144.780999,48.1385591 156.707461,46.0239071 159.205768,58.3169145 C161.704076,70.609922 157.403269,161.464183 125.049383,178.35026 C125.049383,178.35026 112.287799,178.741192 112.855796,167.380952 C113.420872,156.019298 130.344549,127.186065 133.829914,104.206563 C137.310899,81.2270606 132.834096,52.6863349 144.780999,48.1385591 Z" id="Path" fill="#835D40" fill-rule="nonzero"></path>
                    <g id="Group" stroke-width="1" fill="none" fill-rule="evenodd" transform="translate(118.040000, 43.666667)">
                        <path d="M4.396,1.16380952 C4.396,1.16380952 2.97632,0.0834285714 1.16296,4.05295238 C-0.64736,8.02247619 -0.10168,18.6419048 4.20296,24.9550476 C4.20296,24.9550476 3.80472,16.3424762 4.5708,10.943619 C5.33688,5.54171429 5.16512,1.26133333 4.396,1.16380952 Z" id="Path" fill="#FCFAFB" fill-rule="nonzero"></path>
                        <path d="M9.78744,0.991619048 C9.78744,0.991619048 7.41168,0.241904762 7.056,3.68571429 C6.7064,7.13257143 8.42704,17.6971429 8.75992,23.024381 C9.08976,28.3546667 9.46672,30.6906667 9.46672,30.6906667 C9.46672,30.6906667 11.34848,27.568381 12.0264,18.7226667 C12.7028,9.87542857 12.26808,1.23542857 9.78744,0.991619048 Z" id="Path" fill="#FCFAFB" fill-rule="nonzero"></path>
                        <path d="M15.85528,0.21752381 C15.85528,0.21752381 13.27584,-0.151238095 13.54336,5.62552381 C13.81392,11.408381 17.7796,24.4019048 17.66712,26.352381 C17.66712,26.352381 19.41512,20.5908571 19.13392,13.2628571 C18.84816,5.93485714 17.94528,0.642666667 15.85528,0.21752381 Z" id="Path" fill="#FCFAFB" fill-rule="nonzero"></path>
                    </g>
                    <g id="Group" stroke-width="1" fill="none" fill-rule="evenodd" transform="translate(279.800000, 156.973333) rotate(-90.000000) translate(-279.800000, -156.973333) translate(269.800000, 141.473333)">
                        <path d="M4.396,1.16380952 C4.396,1.16380952 2.97632,0.0834285714 1.16296,4.05295238 C-0.64736,8.02247619 -0.10168,18.6419048 4.20296,24.9550476 C4.20296,24.9550476 3.80472,16.3424762 4.5708,10.943619 C5.33688,5.54171429 5.16512,1.26133333 4.396,1.16380952 Z" id="Path" fill="#FCFAFB" fill-rule="nonzero"></path>
                        <path d="M9.78744,0.991619048 C9.78744,0.991619048 7.41168,0.241904762 7.056,3.68571429 C6.7064,7.13257143 8.42704,17.6971429 8.75992,23.024381 C9.08976,28.3546667 9.46672,30.6906667 9.46672,30.6906667 C9.46672,30.6906667 11.34848,27.568381 12.0264,18.7226667 C12.7028,9.87542857 12.26808,1.23542857 9.78744,0.991619048 Z" id="Path" fill="#FCFAFB" fill-rule="nonzero"></path>
                        <path d="M15.85528,0.21752381 C15.85528,0.21752381 13.27584,-0.151238095 13.54336,5.62552381 C13.81392,11.408381 17.7796,24.4019048 17.66712,26.352381 C17.66712,26.352381 19.41512,20.5908571 19.13392,13.2628571 C18.84816,5.93485714 17.94528,0.642666667 15.85528,0.21752381 Z" id="Path" fill="#FCFAFB" fill-rule="nonzero"></path>
                    </g>
                    <path d="M200.233362,255.724619 C200.233362,255.724619 238.711363,250.938417 252.477878,218.149922 C266.247178,185.361427 267.873813,121.39515 252.477878,122.858 C237.081943,124.320849 241.085861,139.263732 241.085861,161.70605 C241.085861,184.148368 236.654394,212.904337 216.320061,227.762521 C195.985728,242.620705 193.212927,257.24202 200.233362,255.724619 Z" id="Path" fill="#835D40" fill-rule="nonzero" transform="translate(230.090000, 189.333333) rotate(90.000000) translate(-230.090000, -189.333333) "></path>
                </g>
            </g>
        </g>
    </g>
</svg>