<?xml version="1.0" encoding="UTF-8"?>
<svg width="206px" height="215px" viewBox="0 0 206 215" version="1.1" xmlns="http://www.w3.org/2000/svg" xmlns:xlink="http://www.w3.org/1999/xlink">
    <!-- Generator: Sketch 58 (84663) - https://sketch.com -->
    <title>lhang</title>
    <desc>Created with Sketch.</desc>
    <defs>
        <polygon id="path-1" points="-2.32427051e-14 1 214 1 214 214 -2.31814728e-14 214"></polygon>
    </defs>
    <g id="Page-1" stroke="none" stroke-width="1" fill="none" fill-rule="evenodd">
        <g id="lhang" transform="translate(-8.000000, 0.000000)">
            <mask id="mask-2" fill="white">
                <use xlink:href="#path-1"></use>
            </mask>
            <g id="Mask" transform="translate(107.000000, 107.500000) rotate(90.000000) translate(-107.000000, -107.500000) "></g>
            <g id="Group" mask="url(#mask-2)">
                <g transform="translate(-28.000000, -49.000000)">
                    <path d="M121.533756,168.240295 C121.064878,168.240295 76.3025452,175.45262 79.0898437,153.175941 C83.0259058,121.7181 107.620264,68.221254 112.204098,61.3404389 C120.206968,49.3268275 127.269527,59.7108245 127.359242,71.5437801 C127.41797,79.2896471 102.94814,117.082198 102.892094,142.561323 C102.862521,156.005324 130.646374,149.865234 132.042969,149.865234 C142.679198,149.865234 132.772954,168.240295 121.533756,168.240295 Z" id="Path" fill="#835D40" fill-rule="nonzero"></path>
                    <path d="M217.231404,168.240295 C205.395317,168.240295 170.644219,178.536571 170.644219,150.180429 C170.644219,117.689032 202.306473,68.221254 207.133746,61.3404389 C215.561631,49.3268275 222.999267,59.7108245 223.093747,71.5437801 C223.155594,79.2896471 197.386224,117.082198 197.3272,142.561323 C197.296057,156.005324 221.706661,145.792913 223.093747,146.955733 C229.007427,151.913279 229.067491,168.240295 217.231404,168.240295 Z" id="Path" fill="#835D40" fill-rule="nonzero" transform="translate(198.822110, 113.031294) scale(-1, 1) translate(-198.822110, -113.031294) "></path>
                    <path d="M22.2300087,-1.42108547e-14 C22.2300087,-1.42108547e-14 158.929086,156.941076 305.928329,-1.42108547e-14 L320,-1.42108547e-14 C320,-1.42108547e-14 264.577256,89.0706389 160.648266,82.2992619 C56.7205205,75.5291691 5.68434189e-14,0.719129738 5.68434189e-14,0.719129738 L22.2300087,-1.42108547e-14 Z" id="Path" fill="#B18C79" fill-rule="nonzero"></path>
                    <path d="M97.1017653,277.611556 C103.080839,272.909913 115.448908,272.228793 120.504805,260.453018 C133.247388,230.780066 134.746019,172.888945 120.494161,174.211108 C106.242303,175.533271 111.138599,173.185084 109.952907,209.368402 C108.767215,245.55172 98.5683347,251.7291 90.1835886,255.483954 C81.7988426,259.238808 88.1837416,259.858564 79.9006852,273.129512 C71.6176289,286.400461 89.4349866,283.640326 97.1017653,277.611556 Z" id="Path" fill="#835D40" fill-rule="nonzero" transform="translate(104.191655, 228.405659) scale(1, -1) rotate(-97.000000) translate(-104.191655, -228.405659) "></path>
                    <g id="Group-3" stroke-width="1" fill="none" fill-rule="evenodd" transform="translate(117.333333, 136.000000)">
                        <ellipse id="Oval" fill="#835D40" fill-rule="nonzero" cx="37.3333333" cy="56" rx="37.3333333" ry="56"></ellipse>
                        <ellipse id="Oval" fill="#F3E8D3" fill-rule="nonzero" cx="35.5968992" cy="71.2727273" rx="26.9147287" ry="40.7272727"></ellipse>
                    </g>
                    <g id="Group" stroke-width="1" fill="none" fill-rule="evenodd" transform="translate(52.855797, 258.519259) rotate(107.000000) translate(-52.855797, -258.519259) translate(44.355797, 247.019259)">
                        <path d="M3.54449774,1.65679479 C3.54449774,1.65679479 2.32531033,0.957086335 1.10863929,3.91713298 C-0.108031745,6.8760601 1.00672579,14.4832904 4.89705344,18.7811796 C4.89705344,18.7811796 4.02638503,12.6080718 4.30570351,8.68074814 C4.58502199,4.75118546 4.17485161,1.68366359 3.54449774,1.65679479 Z" id="Path" fill="#FCFAFB" fill-rule="nonzero"></path>
                        <path d="M7.90413077,1.22689392 C7.90413077,1.22689392 5.93002854,0.819383711 5.86082802,3.31930208 C5.79288569,5.81586185 7.86009407,13.3200951 8.4678005,17.1332263 C9.07173234,20.9485965 9.52593942,22.6077452 9.52593942,22.6077452 C9.52593942,22.6077452 10.8533313,20.2567248 10.8394912,13.8552321 C10.8294257,7.45150033 9.93107704,1.26159945 7.90413077,1.22689392 Z" id="Path" fill="#FCFAFB" fill-rule="nonzero"></path>
                        <path d="M12.7708149,0.327908493 C12.7708149,0.327908493 10.6570534,0.206998872 11.2408542,4.34927292 C11.8259132,8.49154698 15.8621911,17.6135062 15.8961622,19.0241184 C15.8961622,19.0241184 16.946752,14.7788473 16.256005,9.52375689 C15.5602251,4.27090558 14.4920207,0.514870592 12.7708149,0.327908493 Z" id="Path" fill="#FCFAFB" fill-rule="nonzero"></path>
                    </g>
                    <path d="M78.8380541,287.290084 C135.730555,301.761418 136.943759,295.895493 147.511218,287.66201 C153.42598,283.053608 164.474231,257.131077 169.530129,245.355303 C182.272711,215.68235 183.771342,157.791229 169.519484,159.113392 C155.267626,160.435555 160.163923,158.087369 158.97823,194.270686 C158.070592,221.968719 129.880369,274.65667 111.961245,277.835905 C104.474014,279.1643 98.1105766,277.410131 93.2699755,276.81578 C79.9298934,275.177824 66.9037181,284.254433 78.8380541,287.290084 Z" id="Path" fill="#835D40" fill-rule="nonzero" transform="translate(126.898884, 227.601198) scale(1, -1) rotate(-97.000000) translate(-126.898884, -227.601198) "></path>
                    <g id="Group" stroke-width="1" fill="none" fill-rule="evenodd" transform="translate(47.333333, 235.666667) rotate(90.000000) translate(-47.333333, -235.666667) translate(38.333333, 223.666667)">
                        <path d="M6.412,1.12685714 C6.412,1.12685714 5.456,0.0948571429 3.104,2.6 C0.750666667,5.10628571 -1.03866667,12.7862857 1.22,18.0754286 C1.22,18.0754286 2.70666667,11.8548571 4.48933333,8.13714286 C6.272,4.41942857 7.03466667,1.336 6.412,1.12685714 Z" id="Path" fill="#FCFAFB" fill-rule="nonzero"></path>
                        <path d="M10.9493333,1.98171429 C10.9493333,1.98171429 9.124,1.01257143 8.1,3.408 C7.076,5.80228571 6.28133333,13.6594286 5.42933333,17.5257143 C4.57866667,21.3885714 4.39866667,23.1268571 4.39866667,23.1268571 C4.39866667,23.1268571 6.62933333,21.2411429 9.06533333,15.0468571 C11.5053333,8.85257143 12.972,2.60571429 10.9493333,1.98171429 Z" id="Path" fill="#FCFAFB" fill-rule="nonzero"></path>
                        <path d="M16.1786667,2.53257143 C16.1786667,2.53257143 14.1026667,1.79885714 13.1053333,5.97485714 C12.108,10.1485714 12.6693333,20.1462857 12.164,21.5188571 C12.164,21.5188571 14.8426667,17.7234286 16.1573333,12.4411429 C17.4706667,7.15771429 17.8346667,3.21485714 16.1786667,2.53257143 Z" id="Path" fill="#FCFAFB" fill-rule="nonzero"></path>
                    </g>
                    <g id="Group-2" stroke-width="1" fill="none" fill-rule="evenodd" transform="translate(117.333333, 85.333333)">
                        <ellipse id="Oval" fill="#835D40" fill-rule="nonzero" cx="33.3333333" cy="36.3174603" rx="33.3333333" ry="33.015873"></ellipse>
                        <g id="Group" transform="translate(8.333333, 14.857143)">
                            <path d="M1.33913043,28.1329406 C1.42641304,28.5292462 6.94913043,51.9469827 25.4279348,51.1150978 C43.9043478,50.2844031 50.1767391,36.5541381 50.1767391,36.5541381 L1.33913043,28.1329406 Z" id="Path" fill="#835D40" fill-rule="nonzero"></path>
                            <path d="M48.6845652,6.33493983 C38.8371739,-6.43014839 27.7391304,6.33493983 27.7391304,6.33493983 C27.7391304,6.33493983 15.8615217,-5.75773791 6.01532609,7.00735031 C-1.82336957,17.1696744 -5.335,45.1324297 30.0838043,46.7652566 C62.0854348,44.0422916 56.5232609,16.4972639 48.6845652,6.33493983 Z" id="Path" fill="#F3E8D3" fill-rule="nonzero"></path>
                            <path d="M48.6845652,6.33493983 C38.8371739,-6.43014839 27.7391304,6.33493983 27.7391304,6.33493983 C27.7391304,6.33493983 15.8615217,-5.75773791 6.01532609,7.00735031 C-1.82336957,17.1696744 -5.335,45.1324297 30.0838043,46.7652566 C62.0854348,44.0422916 56.5232609,16.4972639 48.6845652,6.33493983 Z" id="Path" stroke="#A57B74" stroke-linejoin="round"></path>
                            <path d="M0.972065217,25.7384452 C1.42880435,30.283464 3.17206522,34.7903994 6.82717391,38.4666401 C7.19902174,36.0769051 8.60630435,30.8309133 13.9425,27.1570528 C21.0494565,22.2621425 24.9520652,15.5892123 19.0993478,11.3655223 C14.3777174,7.95943595 1.69184783,11.4559705 0.972065217,25.7384452 Z" id="Path" fill="#A57B74" fill-rule="nonzero"></path>
                            <path d="M36.578587,11.3643322 C30.7246739,15.5880221 34.6284783,22.2609524 41.7354348,27.1558627 C48.1345652,31.5628291 48.8830435,38.2179077 48.9691304,39.5032233 C52.8561957,35.697261 54.4990217,30.8440044 54.7166304,25.9157711 C54.0984783,11.4821528 41.3205435,7.94396456 36.578587,11.3643322 Z" id="Path" fill="#A57B74" fill-rule="nonzero"></path>
                            <path d="M6.33695652,17.2565522 C6.33695652,17.2565522 11.2451087,24.5173953 16.1532609,16.5603396 C16.1532609,16.5603396 11.2451087,20.8875688 6.33695652,17.2565522 Z" id="Path" fill="#896660" fill-rule="nonzero"></path>
                            <path d="M39.4361957,16.631746 C39.4361957,16.631746 44.3455435,23.891399 49.2548915,15.9331529 C49.256087,15.9319631 44.3455435,20.2591923 39.4361957,16.631746 Z" id="Path" fill="#896660" fill-rule="nonzero"></path>
                            <ellipse id="Oval" fill="#F3E8D3" fill-rule="nonzero" cx="28.2281522" cy="32.8564755" rx="13.8707609" ry="10.0349827"></ellipse>
                            <path d="M16.4186957,34.0989472 C16.4186957,34.0989472 20.7541304,39.5044134 27.7857609,39.4949051 C36.4470652,39.4818014 38.8993478,34.0989472 38.8993478,34.0989472 C38.8993478,34.0989472 29.8841304,45.1086275 16.4186957,34.0989472 Z" id="Path" fill="#A57B74" fill-rule="nonzero"></path>
                            <ellipse id="Oval" fill="#A57B74" fill-rule="nonzero" cx="16.7032609" cy="34.2036766" rx="1.18608696" ry="1.18058619"></ellipse>
                            <ellipse id="Oval" fill="#A57B74" fill-rule="nonzero" cx="38.9017391" cy="33.6645581" rx="1.18608696" ry="1.18058619"></ellipse>
                            <ellipse id="Oval" fill="#A57B74" fill-rule="nonzero" cx="27.6602174" cy="28.9529243" rx="5.13891304" ry="2.48375341"></ellipse>
                            <ellipse id="Oval" fill="#896660" fill-rule="nonzero" cx="25.4267391" cy="28.8815179" rx="1" ry="1"></ellipse>
                            <ellipse id="Oval" fill="#896660" fill-rule="nonzero" cx="29.6569565" cy="28.9529243" rx="1" ry="1"></ellipse>
                            <path d="M18.3281522,36.864756 C18.3281522,36.864756 26.3521739,45.91433 37.7156522,37.0611237 C37.7156522,37.0611237 27.5526087,47.7340037 18.3281522,36.864756 Z" id="Path" fill="#F4EDED" fill-rule="nonzero"></path>
                            <path d="M8.94108696,7.48339313 C8.94108696,7.48339313 13.9759783,4.2712942 17.4134783,7.48339313 C17.4134783,7.48339313 13.9317391,2.31832853 8.94108696,7.48339313 Z" id="Path" fill="#896660" fill-rule="nonzero"></path>
                            <path d="M35.7559783,8.15580362 C35.7559783,8.15580362 40.7920652,4.94370469 44.2259783,8.15580362 C44.2259783,8.15580362 40.7478261,2.9883588 35.7559783,8.15580362 Z" id="Path" fill="#896660" fill-rule="nonzero"></path>
                        </g>
                        <path d="M24.5431611,8.7636527 C24.5431611,8.7636527 19.1313696,5.22051714 11.6666667,10.9242198 C11.6666667,10.9242198 21.2965589,-0.251406756 31.5209328,7.29193857 C31.5209328,7.29193857 29.627574,1.14899083 24.6377108,0.00792613012 C24.6377108,0.00792613012 30.5896177,-0.479943862 33.7322151,6.19949879 C33.7322151,6.19949879 38.6570753,-3.73781324 51.2511023,1.80056471 C51.2511023,1.80056471 46.1418701,0.00144280797 39.8448566,5.46202089 C39.8448566,5.46202089 46.8687213,1.80056471 55,13.2063492 C55,13.2063492 49.4688395,5.71000797 40.2017819,9.78477594 C30.9359062,13.8563023 24.5431611,8.7636527 24.5431611,8.7636527 Z" id="Path" fill="#835D40" fill-rule="nonzero"></path>
                    </g>
                    <g id="Group" stroke-width="1" fill="none" fill-rule="evenodd" transform="translate(177.000000, 58.666667)">
                        <path d="M3.69733333,0.9108 C3.69733333,0.9108 2.47466667,0.0732 0.914666667,3.144 C-0.646666667,6.216 -0.174666667,14.4276 3.53333333,19.3104 C3.53333333,19.3104 3.18666667,12.6492 3.848,8.472 C4.508,4.2948 4.36133333,0.9864 3.69733333,0.9108 Z" id="Path" fill="#FCFAFB" fill-rule="nonzero"></path>
                        <path d="M8.34266667,0.7764 C8.34266667,0.7764 6.29466667,0.1944 5.99066667,2.8596 C5.68666667,5.5224 7.172,13.6944 7.45866667,17.8164 C7.74266667,21.9372 8.06666667,23.7444 8.06666667,23.7444 C8.06666667,23.7444 9.688,21.3312 10.2693333,14.4888 C10.8533333,7.6452 10.4813333,0.9636 8.34266667,0.7764 Z" id="Path" fill="#FCFAFB" fill-rule="nonzero"></path>
                        <path d="M13.5693333,0.1776 C13.5693333,0.1776 11.3466667,-0.1092 11.5786667,4.3608 C11.812,8.8308 15.2266667,18.8808 15.1306667,20.3892 C15.1306667,20.3892 16.636,15.9336 16.3946667,10.2648 C16.148,4.5984 15.3693333,0.5052 13.5693333,0.1776 Z" id="Path" fill="#FCFAFB" fill-rule="nonzero"></path>
                    </g>
                    <g id="Group" stroke-width="1" fill="none" fill-rule="evenodd" transform="translate(112.000000, 58.666667)">
                        <path d="M6.02358974,0.6792 C6.02358974,0.6792 4.86625641,-0.3108 2.66789744,2.5224 C0.468102564,5.3568 -0.463794872,13.542 2.63487179,18.8592 C2.63487179,18.8592 3.43179487,12.2232 4.86338462,8.1792 C6.29641026,4.134 6.71712821,0.8412 6.02358974,0.6792 Z" id="Path" fill="#FCFAFB" fill-rule="nonzero"></path>
                        <path d="M10.9946667,1.1568 C10.9946667,1.1568 8.91548718,0.312 8.12574359,2.9076 C7.3374359,5.5032 7.49394872,13.782 7.07753846,17.898 C6.66112821,22.0128 6.69128205,23.8428 6.69128205,23.8428 C6.69128205,23.8428 8.84082051,21.6684 10.654359,14.9748 C12.4722051,8.2824 13.2418462,1.6224 10.9946667,1.1568 Z" id="Path" fill="#FCFAFB" fill-rule="nonzero"></path>
                        <path d="M16.6678974,1.2504 C16.6678974,1.2504 14.350359,0.6756 13.8162051,5.1264 C13.2849231,9.5784 15.1673846,19.9692 14.8041026,21.45 C14.8041026,21.45 17.1862564,17.2392 17.9156923,11.6004 C18.6436923,5.9628 18.5288205,1.812 16.6678974,1.2504 Z" id="Path" fill="#FCFAFB" fill-rule="nonzero"></path>
                    </g>
                </g>
            </g>
        </g>
    </g>
</svg>