<?xml version="1.0" encoding="UTF-8"?>
<svg width="214px" height="208px" viewBox="0 0 214 208" version="1.1" xmlns="http://www.w3.org/2000/svg" xmlns:xlink="http://www.w3.org/1999/xlink">
    <!-- Generator: Sketch 58 (84663) - https://sketch.com -->
    <title>offsethang</title>
    <desc>Created with Sketch.</desc>
    <defs>
        <polygon id="path-1" points="-7.07611383e-14 -1.24733557e-13 214 -8.90953977e-14 214 214 -7.07611383e-14 214"></polygon>
    </defs>
    <g id="Page-1" stroke="none" stroke-width="1" fill="none" fill-rule="evenodd">
        <g id="offsethang" transform="translate(0.000000, -6.000000)">
            <mask id="mask-2" fill="white">
                <use xlink:href="#path-1"></use>
            </mask>
            <g id="Mask" transform="translate(107.000000, 107.000000) rotate(90.000000) translate(-107.000000, -107.000000) "></g>
            <g id="Group" mask="url(#mask-2)">
                <g transform="translate(-111.000000, -24.000000)">
                    <path d="M189.610671,136.719985 C188.955868,136.719985 129.096401,198.348471 122.794931,163.129186 C114.417105,116.305022 121.614755,85.3949951 128.016215,76.2144557 C139.19246,60.185623 147.657063,73.6640261 147.782353,89.4518236 C147.864369,99.7865349 142.00225,104.599768 143.048748,138.559726 C143.048748,138.559726 178.434426,114.813842 180.273846,116.365303 C188.115994,122.979774 205.306542,136.719985 189.610671,136.719985 Z" id="Path" fill="#835D40" fill-rule="nonzero"></path>
                    <path d="M305.650325,154.172735 C305.003638,154.172735 296.6358,194.582866 269.217136,201.237146 C228.462542,211.127944 241.99275,121.741899 248.314865,112.315869 C259.35258,95.8584193 269.093398,110.083459 269.217136,126.293428 C269.298135,136.904493 268.183609,134.321553 269.217136,169.189611 C269.217136,169.189611 282.012051,140.55577 290.76962,131.957234 C297.155798,125.687026 311.838058,115.602436 312.604134,116.274189 C320.349079,123.065532 321.151646,154.172735 305.650325,154.172735 Z" id="Path" fill="#835D40" fill-rule="nonzero" transform="translate(279.500000, 153.500000) scale(-1, 1) translate(-279.500000, -153.500000) "></path>
                    <path d="M162.568125,194 C162.568125,194 159.951367,213.51857 161.359167,249.493539 C162.766967,285.468507 162.450809,342.442169 158.567427,363.928328 C154.682057,385.410055 171.776492,387.479569 178.640513,383.145555 C185.504535,378.813758 185.462778,339.960526 185.265924,307.776711 C185.069071,275.595111 188,240.845454 188,240.845454 L162.568125,194 Z" id="Path" fill="#835D40" fill-rule="nonzero"></path>
                    <path d="M259.001882,202 C259.001882,202 261.242222,220.800803 259.010006,255.292341 C256.777791,289.788133 255.841439,344.480217 259.334988,365.199816 C262.826505,385.919415 246.739932,387.344686 239.825955,383.011439 C232.91401,378.676065 232.402164,341.502041 233.312112,310.622605 C234.224091,279.736788 232,246.311011 232,246.311011 L259.001882,202 Z" id="Path" fill="#835D40" fill-rule="nonzero"></path>
                    <g id="Group-3" stroke-width="1" fill="none" fill-rule="evenodd" transform="translate(161.000000, 97.000000)">
                        <path d="M51,152 C79.1665222,152 102,117.973641 102,76 C102,58.666397 100.869266,48.0777782 91.5504817,29.9018223 C82.2316975,11.7258663 67.5347623,0 51,0 C22.8334778,0 -9.9475983e-14,34.026359 -9.9475983e-14,76 C-9.9475983e-14,117.973641 22.8334778,152 51,152 Z" id="Oval" fill="#835D40" fill-rule="nonzero"></path>
                        <ellipse id="Oval" fill="#F3E8D3" fill-rule="nonzero" cx="48.627907" cy="96.7272727" rx="36.7674419" ry="55.2727273"></ellipse>
                    </g>
                    <g id="Group-2" stroke-width="1" fill="none" fill-rule="evenodd" transform="translate(161.000000, 30.000000)">
                        <ellipse id="Oval" fill="#835D40" fill-rule="nonzero" cx="44" cy="49.2380952" rx="44" ry="44.7619048"></ellipse>
                        <g id="Group" transform="translate(12.000000, 20.142857)">
                            <path d="M0.767652174,38.1417752 C0.882865217,38.6790742 8.17285217,70.4281207 32.5648739,69.3002769 C56.9537391,68.1740465 65.2332957,49.5589756 65.2332957,49.5589756 L0.767652174,38.1417752 Z" id="Path" fill="#835D40" fill-rule="nonzero"></path>
                            <path d="M63.2636261,8.5887165 C50.2650696,-8.71779734 35.6156522,8.5887165 35.6156522,8.5887165 C35.6156522,8.5887165 19.9372087,-7.8061639 6.94023043,9.50034994 C-3.40684783,23.2781163 -8.0422,61.1891595 38.7106217,63.4028959 C80.9527739,59.7111838 73.6107043,22.3664828 63.2636261,8.5887165 Z" id="Path" fill="#F3E8D3" fill-rule="nonzero"></path>
                            <path d="M63.2636261,8.5887165 C50.2650696,-8.71779734 35.6156522,8.5887165 35.6156522,8.5887165 C35.6156522,8.5887165 19.9372087,-7.8061639 6.94023043,9.50034994 C-3.40684783,23.2781163 -8.0422,61.1891595 38.7106217,63.4028959 C80.9527739,59.7111838 73.6107043,22.3664828 63.2636261,8.5887165 Z" id="Path" stroke="#A57B74" stroke-linejoin="round"></path>
                            <path d="M0.283126087,34.895392 C0.886021739,41.0573887 3.18712609,47.167753 8.01186957,52.151887 C8.5027087,48.9119579 10.3603217,41.7996035 17.4041,36.8186966 C26.7852826,30.1823278 31.9367261,21.1353743 24.2111391,15.4090255 C17.978587,10.7911584 1.23323913,15.5316523 0.283126087,34.895392 Z" id="Path" fill="#A57B74" fill-rule="nonzero"></path>
                            <path d="M47.2837348,15.407412 C39.5565696,21.1337608 44.7095913,30.1807143 54.0907739,36.8170831 C62.5376261,42.7919125 63.5256174,51.8146633 63.6392522,53.5572547 C68.7701783,48.3972481 70.9387087,41.8173522 71.2259522,35.1358051 C70.4099913,15.5671495 53.5431174,10.7701827 47.2837348,15.407412 Z" id="Path" fill="#A57B74" fill-rule="nonzero"></path>
                            <path d="M7.36478261,23.3959025 C7.36478261,23.3959025 13.8435435,33.2399302 20.3223043,22.4519989 C20.3223043,22.4519989 13.8435435,28.3187231 7.36478261,23.3959025 Z" id="Path" fill="#896660" fill-rule="nonzero"></path>
                            <path d="M51.0557783,22.5488095 C51.0557783,22.5488095 57.5361174,32.3912237 64.0164568,21.6016785 C64.0180348,21.6000653 57.5361174,27.4667896 51.0557783,22.5488095 Z" id="Path" fill="#896660" fill-rule="nonzero"></path>
                            <ellipse id="Oval" fill="#F3E8D3" fill-rule="nonzero" cx="36.2611609" cy="44.5457984" rx="18.3094043" ry="13.6051207"></ellipse>
                            <path d="M20.6726783,46.2303034 C20.6726783,46.2303034 26.3954522,53.5588682 35.6772043,53.5459772 C47.1101261,53.5282115 50.3471391,46.2303034 50.3471391,46.2303034 C50.3471391,46.2303034 38.4470522,61.1568893 20.6726783,46.2303034 Z" id="Path" fill="#A57B74" fill-rule="nonzero"></path>
                            <ellipse id="Oval" fill="#A57B74" fill-rule="nonzero" cx="21.0483043" cy="46.3722924" rx="1.56563478" ry="1.60060244"></ellipse>
                            <ellipse id="Oval" fill="#A57B74" fill-rule="nonzero" cx="50.3502957" cy="45.6413721" rx="1.56563478" ry="1.60060244"></ellipse>
                            <ellipse id="Oval" fill="#A57B74" fill-rule="nonzero" cx="35.511487" cy="39.2534839" rx="6.78336522" ry="3.36739646"></ellipse>
                            <ellipse id="Oval" fill="#896660" fill-rule="nonzero" cx="32.5632957" cy="39.1566733" rx="1.31626957" ry="1.01651163"></ellipse>
                            <ellipse id="Oval" fill="#896660" fill-rule="nonzero" cx="38.1471826" cy="39.2534839" rx="1.3146913" ry="1.01489812"></ellipse>
                            <path d="M23.1931609,49.9801019 C23.1931609,49.9801019 33.7848696,62.2492359 48.7846609,50.2463311 C48.7846609,50.2463311 35.3694435,64.7162935 23.1931609,49.9801019 Z" id="Path" fill="#F4EDED" fill-rule="nonzero"></path>
                            <path d="M10.8022348,10.1457542 C10.8022348,10.1457542 17.4482913,5.79088926 21.9857913,10.1457542 C21.9857913,10.1457542 17.3898957,3.14311849 10.8022348,10.1457542 Z" id="Path" fill="#896660" fill-rule="nonzero"></path>
                            <path d="M46.1978913,11.0573876 C46.1978913,11.0573876 52.8455261,6.7025227 57.3782913,11.0573876 C57.3782913,11.0573876 52.7871304,4.05152492 46.1978913,11.0573876 Z" id="Path" fill="#896660" fill-rule="nonzero"></path>
                        </g>
                        <path d="M32.3969726,11.8814907 C32.3969726,11.8814907 25.2534079,7.07781651 15.4,14.8107211 C15.4,14.8107211 28.1114578,-0.340849544 41.6076313,9.88618595 C41.6076313,9.88618595 39.1083977,1.55776641 32.5217783,0.0107460033 C32.5217783,0.0107460033 40.3782954,-0.650693121 44.5265239,8.4050897 C44.5265239,8.4050897 51.0273394,-5.06761219 67.6514551,2.44115023 C67.6514551,2.44115023 60.9072685,0.00195611465 52.5952107,7.40523986 C52.5952107,7.40523986 61.8667121,2.44115023 72.6,17.9047619 C72.6,17.9047619 65.2988681,7.74145311 53.0663521,13.2658981 C40.8353962,18.7859482 32.3969726,11.8814907 32.3969726,11.8814907 Z" id="Path" fill="#835D40" fill-rule="nonzero"></path>
                    </g>
                    <path d="M30.1494494,0 C30.1494494,0 215.547573,210.731364 414.915296,0 L434,0 C434,0 358.832903,119.598882 217.879211,110.50667 C76.927206,101.416183 0,0.965605656 0,0.965605656 L30.1494494,0 Z" id="Path" fill="#B18C79" fill-rule="nonzero"></path>
                    <path d="M600,188 C600,188 210.018727,116.745964 205,106.768921 C205,106.768921 206.431718,97.6407217 234.395799,101.493271 C262.361282,105.34582 290.325362,110.447241 290.325362,110.447241 C311.781038,114.535812 322.508875,116.580098 322.508875,116.580098 C322.508875,116.580098 469.583224,143.991179 491.094055,148.523917 C491.094055,148.523917 470.93361,108.470789 463.763801,105.255221 C456.593991,102.04244 418.143731,73.9762584 415.99405,73.3629727 C413.841565,72.7524747 415.088183,72.1573089 423.692516,72.0011998 C432.296848,71.8450907 455.958763,86.9500376 475.318511,101.491877 C494.678259,116.033716 515.47253,148.993638 515.47253,148.993638 L581.439546,159.581179 L600,188 Z" id="Path" fill="#B18C79" fill-rule="nonzero"></path>
                    <g id="Group" stroke-width="1" fill="none" fill-rule="evenodd" transform="translate(291.000000, 108.000000)">
                        <path d="M5.29107143,1.25235 C5.29107143,1.25235 3.65357143,0.10065 1.56428571,4.323 C-0.526785714,8.547 0.105357143,19.83795 5.07142857,26.5518 C5.07142857,26.5518 4.60714286,17.39265 5.49285714,11.649 C6.37678571,5.90535 6.18035714,1.3563 5.29107143,1.25235 Z" id="Path" fill="#FCFAFB" fill-rule="nonzero"></path>
                        <path d="M11.5125,1.06755 C11.5125,1.06755 8.76964286,0.2673 8.3625,3.93195 C7.95535714,7.5933 9.94464286,18.8298 10.3285714,24.49755 C10.7089286,30.16365 11.1428571,32.64855 11.1428571,32.64855 C11.1428571,32.64855 13.3142857,29.3304 14.0928571,19.9221 C14.875,10.51215 14.3767857,1.32495 11.5125,1.06755 Z" id="Path" fill="#FCFAFB" fill-rule="nonzero"></path>
                        <path d="M18.5125,0.2442 C18.5125,0.2442 15.5357143,-0.15015 15.8464286,5.9961 C16.1589286,12.14235 20.7321429,25.9611 20.6035714,28.03515 C20.6035714,28.03515 22.6196429,21.9087 22.2964286,14.1141 C21.9660714,6.3228 20.9232143,0.69465 18.5125,0.2442 Z" id="Path" fill="#FCFAFB" fill-rule="nonzero"></path>
                    </g>
                    <g id="Group" stroke-width="1" fill="none" fill-rule="evenodd" transform="translate(124.000000, 69.000000)">
                        <path d="M8.06730769,0.9339 C8.06730769,0.9339 6.51730769,-0.42735 3.57307692,3.4683 C0.626923077,7.3656 -0.621153846,18.62025 3.52884615,25.9314 C3.52884615,25.9314 4.59615385,16.8069 6.51346154,11.2464 C8.43269231,5.68425 8.99615385,1.15665 8.06730769,0.9339 Z" id="Path" fill="#FCFAFB" fill-rule="nonzero"></path>
                        <path d="M14.725,1.5906 C14.725,1.5906 11.9403846,0.429 10.8826923,3.99795 C9.82692308,7.5669 10.0365385,18.95025 9.47884615,24.60975 C8.92115385,30.2676 8.96153846,32.78385 8.96153846,32.78385 C8.96153846,32.78385 11.8403846,29.79405 14.2692308,20.59035 C16.7038462,11.3883 17.7346154,2.2308 14.725,1.5906 Z" id="Path" fill="#FCFAFB" fill-rule="nonzero"></path>
                        <path d="M22.3230769,1.7193 C22.3230769,1.7193 19.2192308,0.92895 18.5038462,7.0488 C17.7923077,13.1703 20.3134615,27.45765 19.8269231,29.49375 C19.8269231,29.49375 23.0173077,23.7039 23.9942308,15.95055 C24.9692308,8.19885 24.8153846,2.4915 22.3230769,1.7193 Z" id="Path" fill="#FCFAFB" fill-rule="nonzero"></path>
                    </g>
                </g>
            </g>
        </g>
    </g>
</svg>