<?xml version="1.0" encoding="UTF-8"?>
<svg width="214px" height="180px" viewBox="0 0 214 180" version="1.1" xmlns="http://www.w3.org/2000/svg" xmlns:xlink="http://www.w3.org/1999/xlink">
    <!-- Generator: Sketch 58 (84663) - https://sketch.com -->
    <title>onearmpullup</title>
    <desc>Created with Sketch.</desc>
    <defs>
        <polygon id="path-1" points="-8.84431135e-13 -3.38562511e-13 214 -3.38562511e-13 214 214 -8.84431135e-13 214"></polygon>
    </defs>
    <g id="Page-1" stroke="none" stroke-width="1" fill="none" fill-rule="evenodd">
        <g id="onearmpullup" transform="translate(0.000000, -34.000000)">
            <mask id="mask-2" fill="white">
                <use xlink:href="#path-1"></use>
            </mask>
            <g id="Mask" transform="translate(107.000000, 107.000000) rotate(90.000000) translate(-107.000000, -107.000000) "></g>
            <g id="Group" mask="url(#mask-2)">
                <g transform="translate(-131.000000, -35.000000)">
                    <path d="M178.481751,203 C178.481751,203 175.34164,223.131719 177.031,260.236791 C178.720361,297.341864 178.340971,356.105274 173.680913,378.266391 C169.018469,400.422936 189.531791,402.557461 197.768616,398.087301 C206.005442,393.619426 205.955333,353.545673 205.719109,320.350848 C205.482885,287.158308 209,251.317039 209,251.317039 L178.481751,203 Z" id="Path" fill="#835D40" fill-rule="nonzero"></path>
                    <path d="M282.859294,213 C282.859294,213 285.419682,232.622696 282.868579,268.622061 C280.317476,304.625866 279.247359,361.70886 283.239986,383.334234 C287.230292,404.959608 268.845637,406.447185 260.943949,401.924507 C253.044583,397.399609 252.459616,358.60049 253.499556,326.371134 C254.541818,294.135117 252,259.248105 252,259.248105 L282.859294,213 Z" id="Path" fill="#835D40" fill-rule="nonzero"></path>
                    <path d="M330.460715,182.765913 C329.68806,182.765913 247.747144,199.836173 242.545854,172.321491 C232.554957,119.469911 246.074263,100.871392 253.627863,90.4241358 C266.815616,72.183669 280.861318,79.9296376 281.009158,97.8958116 C281.105935,109.656491 266.444968,105.692801 266.444968,144.361973 C266.444968,172.321491 317.272962,157.837193 319.443441,159.602722 C328.697025,167.129847 348.98154,182.765913 330.460715,182.765913 Z" id="Path" fill="#835D40" fill-rule="nonzero" transform="translate(288.500000, 134.000000) scale(-1, 1) translate(-288.500000, -134.000000) "></path>
                    <path d="M180.200909,160.670793 C180.200909,160.670793 192.883395,158.721417 195.821508,171.644889 C198.75962,184.568361 196.177001,279.577897 162.018563,296.537294 C162.018563,296.537294 148.406653,296.663751 148.761845,284.784614 C149.113889,272.903931 166.539528,243.096668 169.751695,219.119298 C172.959186,195.141831 167.550371,165.166673 180.200909,160.670793 Z" id="Path" fill="#835D40" fill-rule="nonzero" transform="translate(172.737681, 228.551690) scale(-1, 1) rotate(-34.000000) translate(-172.737681, -228.551690) "></path>
                    <g id="Group-3" stroke-width="1" fill="none" fill-rule="evenodd" transform="translate(177.000000, 148.000000)">
                        <ellipse id="Oval" fill="#835D40" fill-rule="nonzero" cx="56" cy="79.5" rx="56" ry="79.5"></ellipse>
                        <ellipse id="Oval" fill="#F3E8D3" fill-rule="nonzero" cx="53.3953488" cy="101.181818" rx="40.372093" ry="57.8181818"></ellipse>
                    </g>
                    <g id="Group-2" stroke-width="1" fill="none" fill-rule="evenodd" transform="translate(177.000000, 72.000000)">
                        <ellipse id="Oval" fill="#835D40" fill-rule="nonzero" cx="49" cy="52.3809524" rx="49" ry="47.6190476"></ellipse>
                        <g id="Group" transform="translate(13.363636, 21.428571)">
                            <path d="M0.854885375,40.5763566 C0.98319081,41.1479513 9.10158538,74.9235327 36.2654278,73.7236988 C63.4257549,72.5255814 72.6461702,52.7223145 72.6461702,52.7223145 L0.854885375,40.5763566 Z" id="Path" fill="#835D40" fill-rule="nonzero"></path>
                            <path d="M70.4526745,9.13693245 C55.9770093,-9.27425249 39.6628854,9.13693245 39.6628854,9.13693245 C39.6628854,9.13693245 22.2028006,-8.30442968 7.72889298,10.1067553 C-3.79398962,24.7639535 -8.95608636,65.0948505 43.109556,67.4498893 C90.1519528,63.522536 81.9755571,23.7941307 70.4526745,9.13693245 Z" id="Path" fill="#F3E8D3" fill-rule="nonzero"></path>
                            <path d="M70.4526745,9.13693245 C55.9770093,-9.27425249 39.6628854,9.13693245 39.6628854,9.13693245 C39.6628854,9.13693245 22.2028006,-8.30442968 7.72889298,10.1067553 C-3.79398962,24.7639535 -8.95608636,65.0948505 43.109556,67.4498893 C90.1519528,63.522536 81.9755571,23.7941307 70.4526745,9.13693245 Z" id="Path" stroke="#A57B74" stroke-linejoin="round"></path>
                            <path d="M0.315299506,37.1227575 C0.986706028,43.6780731 3.54929951,50.1784607 8.92230929,55.4807309 C9.46892559,52.0339978 11.537631,44.4676633 19.3818386,39.1688261 C29.8290647,32.1088594 35.5658995,22.4844408 26.9624049,16.3925803 C20.0216082,11.4799557 1.37337994,16.5230343 0.315299506,37.1227575 Z" id="Path" fill="#A57B74" fill-rule="nonzero"></path>
                            <path d="M52.6568865,16.3908638 C44.0516343,22.4827243 49.7902267,32.1071429 60.2374528,39.1671096 C69.6441745,45.5233112 70.7444375,55.1219823 70.8709854,56.9758029 C76.5849712,51.4864341 78.9999256,44.4865449 79.3198104,37.3785161 C78.4111267,16.5607973 59.6275625,11.4576412 52.6568865,16.3908638 Z" id="Path" fill="#A57B74" fill-rule="nonzero"></path>
                            <path d="M8.20168972,24.889258 C8.20168972,24.889258 15.4166734,35.3616279 22.6316571,23.8851052 C22.6316571,23.8851052 15.4166734,30.1263012 8.20168972,24.889258 Z" id="Path" fill="#896660" fill-rule="nonzero"></path>
                            <path d="M56.8575712,23.9880952 C56.8575712,23.9880952 64.0743125,34.4587486 71.2910542,22.9805091 C71.2928115,22.9787929 64.0743125,29.2199889 56.8575712,23.9880952 Z" id="Path" fill="#896660" fill-rule="nonzero"></path>
                            <ellipse id="Oval" fill="#F3E8D3" fill-rule="nonzero" cx="40.3817473" cy="47.3891473" rx="20.3900185" ry="14.4735327"></ellipse>
                            <path d="M23.0218462,49.1811739 C23.0218462,49.1811739 29.3949354,56.9775194 39.7314321,56.9638055 C52.4635495,56.9449059 56.0684049,49.1811739 56.0684049,49.1811739 C56.0684049,49.1811739 42.8160354,65.0605205 23.0218462,49.1811739 Z" id="Path" fill="#A57B74" fill-rule="nonzero"></path>
                            <ellipse id="Oval" fill="#A57B74" fill-rule="nonzero" cx="23.4401571" cy="49.3322259" rx="1.74354783" ry="1.70276855"></ellipse>
                            <ellipse id="Oval" fill="#A57B74" fill-rule="nonzero" cx="56.0719202" cy="48.5546512" rx="1.74354783" ry="1.70276855"></ellipse>
                            <ellipse id="Oval" fill="#A57B74" fill-rule="nonzero" cx="39.5468832" cy="41.7590255" rx="7.55420217" ry="3.58233666"></ellipse>
                            <ellipse id="Oval" fill="#896660" fill-rule="nonzero" cx="36.2636702" cy="41.6560354" rx="1.46584565" ry="1.08139535"></ellipse>
                            <ellipse id="Oval" fill="#896660" fill-rule="nonzero" cx="42.4820897" cy="41.7590255" rx="1.46408804" ry="1.07967885"></ellipse>
                            <path d="M25.8287473,53.1703212 C25.8287473,53.1703212 37.6240593,66.2225914 54.3283723,53.4535437 C54.3283723,53.4535437 39.3886984,68.8471207 25.8287473,53.1703212 Z" id="Path" fill="#F4EDED" fill-rule="nonzero"></path>
                            <path d="M12.0297615,10.7933555 C12.0297615,10.7933555 19.4310517,6.16052049 24.4841767,10.7933555 C24.4841767,10.7933555 19.3660202,3.34374308 12.0297615,10.7933555 Z" id="Path" fill="#896660" fill-rule="nonzero"></path>
                            <path d="M51.4476517,11.7631783 C51.4476517,11.7631783 58.8506995,7.1303433 63.8985517,11.7631783 C63.8985517,11.7631783 58.785668,4.31013289 51.4476517,11.7631783 Z" id="Path" fill="#896660" fill-rule="nonzero"></path>
                        </g>
                        <path d="M36.0784467,12.6398837 C36.0784467,12.6398837 28.1231133,7.52959203 17.15,15.7560863 C17.15,15.7560863 31.3059416,-0.362605898 46.3357712,10.5172191 C46.3357712,10.5172191 43.5525338,1.65719831 36.2174349,0.0114319184 C36.2174349,0.0114319184 44.966738,-0.692226724 49.5863562,8.94158479 C49.5863562,8.94158479 56.8259007,-5.3910768 75.3391204,2.59696833 C75.3391204,2.59696833 67.828549,0.00208097303 58.5719392,7.87791475 C58.5719392,7.87791475 68.8970203,2.59696833 80.85,19.047619 C80.85,19.047619 72.7191941,8.23558841 59.0966194,14.1126576 C45.4757821,19.9850513 36.0784467,12.6398837 36.0784467,12.6398837 Z" id="Path" fill="#835D40" fill-rule="nonzero"></path>
                    </g>
                    <path d="M32.9976692,0 C32.9976692,0 235.910362,220.223768 454.112363,0 L475,0 C475,0 392.731864,124.986219 238.462271,115.484448 C84.1945227,105.984479 0,1.00910141 0,1.00910141 L32.9976692,0 Z" id="Path" fill="#B18C79" fill-rule="nonzero"></path>
                    <g id="Group" stroke-width="1" fill="none" fill-rule="evenodd" transform="translate(298.000000, 85.000000)">
                        <path d="M5.49755844,1.2903 C5.49755844,1.2903 3.78264935,0.1037 1.5945974,4.454 C-0.595324675,8.806 0.0667012987,20.4391 5.26753247,27.3564 C5.26753247,27.3564 4.7812987,17.9197 5.70888312,12.002 C6.6345974,6.0843 6.42888312,1.3974 5.49755844,1.2903 Z" id="Path" fill="#FCFAFB" fill-rule="nonzero"></path>
                        <path d="M12.0130909,1.0999 C12.0130909,1.0999 9.14057143,0.2754 8.71418182,4.0511 C8.28779221,7.8234 10.3711169,19.4004 10.7731948,25.2399 C11.1715325,31.0777 11.625974,33.6379 11.625974,33.6379 C11.625974,33.6379 13.9000519,30.2192 14.7154286,20.5258 C15.5345455,10.8307 15.0127792,1.3651 12.0130909,1.0999 Z" id="Path" fill="#FCFAFB" fill-rule="nonzero"></path>
                        <path d="M19.344,0.2516 C19.344,0.2516 16.2264935,-0.1547 16.5518961,6.1778 C16.8791688,12.5103 21.6685714,26.7478 21.5339221,28.8847 C21.5339221,28.8847 23.6452987,22.5726 23.3068052,14.5418 C22.9608312,6.5144 21.8686753,0.7157 19.344,0.2516 Z" id="Path" fill="#FCFAFB" fill-rule="nonzero"></path>
                    </g>
                </g>
            </g>
        </g>
    </g>
</svg>