<?xml version="1.0" encoding="UTF-8"?>
<svg width="212px" height="208px" viewBox="0 0 212 208" version="1.1" xmlns="http://www.w3.org/2000/svg" xmlns:xlink="http://www.w3.org/1999/xlink">
    <!-- Generator: Sketch 58 (84663) - https://sketch.com -->
    <title>pullup</title>
    <desc>Created with Sketch.</desc>
    <defs>
        <polygon id="path-1" points="-1 1 213 1 213 213 -1 213"></polygon>
    </defs>
    <g id="Page-1" stroke="none" stroke-width="1" fill="none" fill-rule="evenodd">
        <g id="pullup" transform="translate(0.000000, -6.000000)">
            <mask id="mask-2" fill="white">
                <use xlink:href="#path-1"></use>
            </mask>
            <g id="Mask" transform="translate(106.000000, 107.000000) rotate(90.000000) translate(-106.000000, -107.000000) "></g>
            <g id="Group" mask="url(#mask-2)">
                <g transform="translate(-102.000000, -23.000000)">
                    <path d="M190.612551,137.921818 C189.949051,137.921818 129.29452,201.275994 122.909353,165.070516 C114.42025,116.935204 121.713501,85.1596504 128.199987,75.7220419 C139.524676,59.2443778 148.101707,73.1001965 148.228662,89.3300762 C148.311767,99.954175 142.371786,104.902186 143.432184,139.813073 C143.432184,139.813073 179.287862,115.402269 181.151713,116.997174 C189.098022,123.796859 206.516898,137.921818 190.612551,137.921818 Z" id="Path" fill="#835D40" fill-rule="nonzero"></path>
                    <path d="M300.361491,139.240408 C299.697991,139.240408 239.043459,202.594585 232.658292,166.389106 C224.16919,118.253795 242.082531,94.0757141 248.569017,84.6381057 C259.893707,68.1604415 272.278426,83.083319 272.405381,99.3131987 C272.488486,109.937298 252.120726,106.220776 253.181124,141.131664 C253.181124,141.131664 289.036801,116.72086 290.900652,118.315764 C298.846962,125.11545 316.265837,139.240408 300.361491,139.240408 Z" id="Path" fill="#835D40" fill-rule="nonzero" transform="translate(268.626933, 127.517063) scale(-1, 1) translate(-268.626933, -127.517063) "></path>
                    <path d="M163.748535,198.161074 C163.748535,198.161074 160.976357,217.864137 162.467772,254.179148 C163.959187,290.494159 163.624251,348.006347 159.51022,369.695597 C155.394082,391.380374 173.503823,393.469449 180.775526,389.09447 C188.047228,384.721727 188.002991,345.501247 187.794446,313.013224 C187.585901,280.527438 190.690909,245.44932 190.690909,245.44932 L163.748535,198.161074 Z" id="Path" fill="#835D40" fill-rule="nonzero"></path>
                    <path d="M261.161482,206.194631 C261.161482,206.194631 263.492502,225.177463 261.169935,260.00295 C258.847368,294.832732 257.873116,350.054346 261.50807,370.974553 C265.140911,391.89476 248.403215,393.33383 241.209387,388.958628 C234.017672,384.581279 233.485109,347.047335 234.431888,315.868924 C235.38078,284.684069 233.066667,250.934663 233.066667,250.934663 L261.161482,206.194631 Z" id="Path" fill="#835D40" fill-rule="nonzero"></path>
                    <g id="Group-3" stroke-width="1" fill="none" fill-rule="evenodd" transform="translate(161.557576, 99.080537)">
                        <path d="M51.6454545,155.315436 C80.1684515,155.315436 103.290909,120.546892 103.290909,77.6577181 C103.290909,59.9460332 102.145864,49.1264546 92.709142,30.5540432 C83.2724195,11.9816319 68.3894804,1.42108547e-14 51.6454545,1.42108547e-14 C23.1224576,1.42108547e-14 -5.68434189e-14,34.7685447 -5.68434189e-14,77.6577181 C-5.68434189e-14,120.546892 23.1224576,155.315436 51.6454545,155.315436 Z" id="Oval" fill="#835D40" fill-rule="nonzero"></path>
                        <ellipse id="Oval" fill="#F3E8D3" fill-rule="nonzero" cx="49.2433404" cy="98.8370958" rx="37.2327696" ry="56.4783405"></ellipse>
                    </g>
                    <g id="Group-2" stroke-width="1" fill="none" fill-rule="evenodd" transform="translate(161.557576, 29.456376)">
                        <ellipse id="Oval" fill="#835D40" fill-rule="nonzero" cx="45.0242424" cy="50.4966443" rx="45.0242424" ry="45.9060403"></ellipse>
                        <g id="Group" transform="translate(12.256061, 20.657718)">
                            <path d="M0.8088,39.1166971 C0.926695,39.6677297 8.38638,72.2282969 33.346205,71.0716248 C58.3028,69.9166075 66.77509,50.8257265 66.77509,50.8257265 L0.8088,39.1166971 Z" id="Path" fill="#835D40" fill-rule="nonzero"></path>
                            <path d="M64.75957,8.80824817 C51.45843,-8.94062838 36.468,8.80824817 36.468,8.80824817 C36.468,8.80824817 20.42459,-8.00569315 7.125065,9.74318339 C-3.462875,23.873116 -8.20613,62.7531834 39.635015,65.023504 C82.86049,61.23743 75.34751,22.9381807 64.75957,8.80824817 Z" id="Path" fill="#F3E8D3" fill-rule="nonzero"></path>
                            <path d="M64.75957,8.80824817 C51.45843,-8.94062838 36.468,8.80824817 36.468,8.80824817 C36.468,8.80824817 20.42459,-8.00569315 7.125065,9.74318339 C-3.462875,23.873116 -8.20613,62.7531834 39.635015,65.023504 C82.86049,61.23743 75.34751,22.9381807 64.75957,8.80824817 Z" id="Path" stroke="#A57B74" stroke-linejoin="round"></path>
                            <path d="M0.312995,35.7873348 C0.929925,42.106835 3.284595,48.3733832 8.22165,53.484914 C8.723915,50.1621708 10.62477,42.8680212 17.832515,37.7597999 C27.432075,30.9538024 32.703435,21.6756045 24.79801,15.8028875 C18.420375,11.0669855 1.285225,15.9286487 0.312995,35.7873348 Z" id="Path" fill="#A57B74" fill-rule="nonzero"></path>
                            <path d="M48.407695,15.8012327 C40.500655,21.6739497 45.77363,30.9521477 55.37319,37.7581452 C64.01667,43.8856941 65.02766,53.1390707 65.14394,54.9262035 C70.394305,49.6343047 72.613315,42.8862235 72.907245,36.0338929 C72.07229,15.9650532 54.812785,11.0454737 48.407695,15.8012327 Z" id="Path" fill="#A57B74" fill-rule="nonzero"></path>
                            <path d="M7.5595,23.9939129 C7.5595,23.9939129 14.189075,34.0895586 20.81865,23.0258826 C20.81865,23.0258826 14.189075,29.0425631 7.5595,23.9939129 Z" id="Path" fill="#896660" fill-rule="nonzero"></path>
                            <path d="M52.267545,23.1251678 C52.267545,23.1251678 58.898735,33.2191587 65.5299253,22.1538277 C65.53154,22.1521732 58.898735,28.1688538 52.267545,23.1251678 Z" id="Path" fill="#896660" fill-rule="nonzero"></path>
                            <ellipse id="Oval" fill="#F3E8D3" fill-rule="nonzero" cx="37.128535" cy="45.6844102" rx="18.735615" ry="13.952874"></ellipse>
                            <path d="M21.17718,47.4119719 C21.17718,47.4119719 27.03317,54.9278583 36.530985,54.9146377 C48.230045,54.896418 51.54241,47.4119719 51.54241,47.4119719 C51.54241,47.4119719 39.36531,62.7200883 21.17718,47.4119719 Z" id="Path" fill="#A57B74" fill-rule="nonzero"></path>
                            <ellipse id="Oval" fill="#A57B74" fill-rule="nonzero" cx="21.56155" cy="47.5575901" rx="1.60208" ry="1.64151459"></ellipse>
                            <ellipse id="Oval" fill="#A57B74" fill-rule="nonzero" cx="51.54564" cy="46.8079872" rx="1.60208" ry="1.64151459"></ellipse>
                            <ellipse id="Oval" fill="#A57B74" fill-rule="nonzero" cx="36.36141" cy="40.2568216" rx="6.94127" ry="3.45346871"></ellipse>
                            <ellipse id="Oval" fill="#896660" fill-rule="nonzero" cx="33.34459" cy="40.1575364" rx="1.34691" ry="1.04249415"></ellipse>
                            <ellipse id="Oval" fill="#896660" fill-rule="nonzero" cx="39.05846" cy="40.2568216" rx="1.345295" ry="1.04083939"></ellipse>
                            <path d="M23.756335,51.257617 C23.756335,51.257617 34.5946,63.8403559 49.94356,51.5306512 C49.94356,51.5306512 36.21606,66.3704726 23.756335,51.257617 Z" id="Path" fill="#F4EDED" fill-rule="nonzero"></path>
                            <path d="M11.07697,10.4050844 C11.07697,10.4050844 17.877735,5.93890713 22.52086,10.4050844 C22.52086,10.4050844 17.81798,3.22345809 11.07697,10.4050844 Z" id="Path" fill="#896660" fill-rule="nonzero"></path>
                            <path d="M47.296575,11.3400197 C47.296575,11.3400197 54.098955,6.87384236 58.737235,11.3400197 C58.737235,11.3400197 54.0392,4.15508381 47.296575,11.3400197 Z" id="Path" fill="#896660" fill-rule="nonzero"></path>
                        </g>
                        <path d="M33.151117,12.1851872 C33.151117,12.1851872 25.8412627,7.25872886 15.7584848,15.1892901 C15.7584848,15.1892901 28.765843,-0.34956182 42.5761836,10.1388815 C42.5761836,10.1388815 40.0187722,1.59758366 33.2788279,0.0110206763 C33.2788279,0.0110206763 41.3182309,-0.667325145 45.5630229,8.61992778 C45.5630229,8.61992778 52.2151659,-5.19714276 69.2262617,2.50354718 C69.2262617,2.50354718 62.3250823,0.00200611386 53.8195345,7.59452131 C53.8195345,7.59452131 63.3068601,2.50354718 74.29,18.3624161 C74.29,18.3624161 66.8189107,7.93932832 54.3016432,13.6049808 C41.7859722,19.266126 33.151117,12.1851872 33.151117,12.1851872 Z" id="Path" fill="#835D40" fill-rule="nonzero"></path>
                    </g>
                    <path d="M30.3578557,7.10542736e-15 C30.3578557,7.10542736e-15 217.037533,213.521749 417.783374,7.10542736e-15 L437,7.10542736e-15 C437,7.10542736e-15 361.313315,121.182542 219.385289,111.969936 C77.4589609,102.759078 -1.13686838e-13,0.978391656 -1.13686838e-13,0.978391656 L30.3578557,7.10542736e-15 Z" id="Path" fill="#B18C79" fill-rule="nonzero"></path>
                    <g id="Group" stroke-width="1" fill="none" fill-rule="evenodd" transform="translate(265.848485, 80.335570)">
                        <path d="M4.99825065,1.32111846 C4.99825065,1.32111846 3.43696883,0.106176846 1.44492987,4.56038255 C-0.548811688,9.01632886 0.0539077922,20.9272822 4.78883117,28.0098 C4.78883117,28.0098 4.34615584,18.347707 5.19064416,12.2886644 C6.03342987,6.22962181 5.84614416,1.43077651 4.99825065,1.32111846 Z" id="Path" fill="#FCFAFB" fill-rule="nonzero"></path>
                        <path d="M10.9301,1.12617081 C10.9301,1.12617081 8.31491039,0.281977852 7.92671818,4.1478594 C7.53852597,8.01025973 9.43521948,19.8637732 9.80127792,25.842748 C10.1639312,31.8199822 10.5776623,34.4413319 10.5776623,34.4413319 C10.5776623,34.4413319 12.6480208,30.9409772 13.3903532,21.016053 C14.1360909,11.0893883 13.6610662,1.39770503 10.9301,1.12617081 Z" id="Path" fill="#FCFAFB" fill-rule="nonzero"></path>
                        <path d="M17.6042818,0.257609396 C17.6042818,0.257609396 14.7660519,-0.158394966 15.0623039,6.32535503 C15.3602584,12.809105 19.7206104,27.3866638 19.5980234,29.574603 C19.5980234,29.574603 21.5202558,23.1117403 21.2120857,14.8891268 C20.8971052,6.66999463 19.9027883,0.732794295 17.6042818,0.257609396 Z" id="Path" fill="#FCFAFB" fill-rule="nonzero"></path>
                    </g>
                    <g id="Group" stroke-width="1" fill="none" fill-rule="evenodd" transform="translate(124.478788, 69.624161)">
                        <path d="M7.69181119,0.985181879 C7.69181119,0.985181879 6.21395664,-0.450816443 3.40676643,3.65874966 C0.597742657,7.77005638 -0.592241958,19.6427164 3.36459441,27.3553329 C3.36459441,27.3553329 4.38222378,17.7297926 6.21028951,11.863957 C8.04018881,5.99638087 8.57742378,1.22016342 7.69181119,0.985181879 Z" id="Path" fill="#FCFAFB" fill-rule="nonzero"></path>
                        <path d="M14.0396182,1.67794228 C14.0396182,1.67794228 11.384614,0.452557047 10.3761524,4.21748356 C9.36952448,7.98241007 9.56938322,19.9908372 9.03764895,25.9611091 C8.50591469,31.9296403 8.54441958,34.5840614 8.54441958,34.5840614 C8.54441958,34.5840614 11.2892685,31.4300869 13.6050629,21.7209977 C15.926358,12.013649 16.9091497,2.35329664 14.0396182,1.67794228 Z" id="Path" fill="#FCFAFB" fill-rule="nonzero"></path>
                        <path d="M21.2840392,1.8137094 C21.2840392,1.8137094 18.3246629,0.979960067 17.6425762,7.4358604 C16.9641566,13.8935013 19.3679622,28.9653916 18.9040699,31.113297 C18.9040699,31.113297 21.9459566,25.0055174 22.8774084,16.8264191 C23.8070266,8.64906141 23.6603413,2.62831208 21.2840392,1.8137094 Z" id="Path" fill="#FCFAFB" fill-rule="nonzero"></path>
                    </g>
                </g>
            </g>
        </g>
    </g>
</svg>