<?xml version="1.0" encoding="UTF-8"?>
<svg width="638px" height="367px" viewBox="0 0 638 367" version="1.1" xmlns="http://www.w3.org/2000/svg" xmlns:xlink="http://www.w3.org/1999/xlink">
    <title>2CLIMBCRUX</title>
    <g id="Page-1" stroke="none" stroke-width="1" fill="none" fill-rule="evenodd">
        <g id="2CLIMBCRUX" transform="translate(0.000000, 1.000000)" fill="#FFFFFF" fill-rule="nonzero" stroke="#000000">
            <path d="M638,77.6952541 L437.602277,77.6952541 L437.602277,102.68673 L238.849926,102.68673 L238.849926,32.150949 C235.427791,21.4354093 227.247523,16.0776394 214.309122,16.0776394 C201.370721,16.0776394 137.601014,16.0776394 22.9999998,16.0776394 C8.12850544,18.1641785 0.692758251,26.8157946 0.692758251,42.0324875 C0.692758251,57.2491805 0.692758251,83.9805593 0.692758251,122.226624 C-0.62903289,140.021201 6.8067143,148.918489 22.9999998,148.918489 C39.1932853,148.918489 244.193285,148.918489 638,148.918489" id="board"></path>
            <path d="M638,148.918489 L17.8219169,148.918489 L17.8219169,227.942238 C15.2148552,245.094164 21.2594369,253.670126 35.9556621,253.670126 C50.6518872,253.670126 251.333333,253.670126 638,253.670126" id="board"></path>
            <path d="M638,253.670126 L32.2508973,253.670126 L32.2508973,337.177929 C31.4089423,356.049031 39.9919765,365.484582 57.9999998,365.484582 C76.0080231,365.484582 269.341356,365.484582 638,365.484582" id="board"></path>
            <rect id="h4" x="22.9999998" y="60.9999999" width="188" height="55" rx="27.5"></rect>
            <rect id="h5" x="31.9999998" y="170" width="188" height="55" rx="27.5"></rect>
            <rect id="h9" x="50.9999998" y="277" width="176" height="55" rx="27.5"></rect>
            <rect id="h6" x="254" y="170" width="98" height="55" rx="27.5"></rect>
            <rect id="h12" x="519" y="277" width="98" height="55" rx="27.5"></rect>
            <rect id="h11" x="389" y="277" width="98" height="55" rx="27.5"></rect>
            <rect id="h10" x="259" y="277" width="98" height="55" rx="27.5"></rect>
            <path d="M638,225 L500.5,225 C485.312169,225 473,212.68783 473,197.5 C473,182.312169 485.312169,170 500.5,170 L638,170" id="Path"></path>
            <path d="M638,225 L500.5,225 C485.312169,225 473,212.68783 473,197.5 C473,182.312169 485.312169,170 500.5,170 L638,170" id="h8"></path>
            <circle id="h7" cx="413.5" cy="197.5" r="27.5"></circle>
            <polyline id="Path" points="638 33.0681589 587.872456 33.0681589 587.872456 27.0283243 457.696275 27.0283243 437.602277 77.6952541 638 77.6952541"></polyline>
            <polygon id="h2" points="437.602277 77.6952541 437.602277 102.68673 238.849926 102.68673 264.991427 27.0283243 457.696275 27.0283243"></polygon>
            <path d="M0.543133,37.9079142 C5.60795523,12.9333121 24.7602442,0.446011 57.9999998,0.446011 C91.2397555,0.446011 151.523064,0.446011 238.849926,0.446011 C256.277593,0.446011 264.991427,9.30678211 264.991427,27.0283243 C264.991427,27.0283243 256.277593,52.2477928 238.849926,102.68673 L238.849926,32.150949 C235.946354,21.4354074 227.766086,16.0776366 214.309122,16.0776366 C200.852158,16.0776366 137.082451,16.0776366 22.9999998,16.0776366 C15.6372727,17.3215981 10.4321925,19.4247808 7.38475925,22.3871849 C4.33732598,25.349589 2.0567839,30.5231654 0.543133,37.9079142 Z" id="h1"></path>
        </g>
    </g>
</svg>