<?xml version="1.0" encoding="UTF-8"?>
<svg width="585px" height="286px" viewBox="0 0 585 286" version="1.1" xmlns="http://www.w3.org/2000/svg" xmlns:xlink="http://www.w3.org/1999/xlink">
    <title>2CLIMBGAMECHANGER</title>
    <g id="Page-1" stroke="none" stroke-width="1" fill="none" fill-rule="evenodd">
        <g id="2CLIMBGAMECHANGER" transform="translate(1, 1)" fill="#FFFFFF" fill-rule="nonzero" stroke="#000000">
            <path d="M584,284 L28.8778077,284 C21.2133061,284 15,277.795945 15,270.142857 L15,187 L584,187" id="background"></path>
            <path d="M584,187 L13.904547,187 C6.22527774,187 0,180.77954 0,173.106214 L0,67.9104093 C0,66.8142199 0.889325391,65.9255828 1.98636386,65.9255828 L231.566755,65.9255828 C240.814658,66.58831 245.438609,62.5536609 245.438609,53.8216355 C245.438609,40.7235975 245.793227,38 259.291515,38 C268.290374,38 376.863613,38 584,38" id="background"></path>
            <path d="M584,256 L517.986889,256 C505.843866,256 496,246.150264 496,234 C496,221.849735 505.843866,212 517.986889,212 L584,212" id="h10"></path>
            <rect id="h9" x="292" y="212" width="89" height="44" rx="22"></rect>
            <circle id="h8" cx="244" cy="234" r="22"></circle>
            <rect id="h7" x="40" y="212" width="153" height="44" rx="22"></rect>
            <path d="M583.971147,155 L514.75575,155 C502.740382,155 493,145.150264 493,133 C493,120.849735 502.740382,111 514.75575,111 L584,111" id="h6"></path>
            <rect id="h5" x="368" y="111" width="89" height="44" rx="22"></rect>
            <rect id="h4" x="220" y="111" width="108" height="44" rx="22"></rect>
            <rect id="h3" x="28" y="111" width="156" height="44" rx="22"></rect>
            <path d="M584,0 L278.860974,0 L249.066483,37.0008706 C247.688828,39.9110049 247,41.5592268 247,41.9455359 C247,42.5249997 248.029327,38.2895642 258.052113,38.2895642 C264.73397,38.2895642 373.383266,38.2895642 584,38.2895642" id="h2"></path>
            <path d="M279,0 L72.7624744,0 C67.6854811,0 63.8852922,1.49449539 61.3619079,4.48348618 C58.8385234,7.47247696 39.0512208,27.9779816 2,66 C3.43686989,65.9179221 4.73662267,65.8768832 5.89925834,65.8768832 C7.061894,65.8768832 83.3650845,65.8768832 234.80883,65.8768832 C242.316571,66.0822966 246.070442,61.4148745 246.070442,51.8746168 C246.070442,37.5642302 250.225885,35.7001589 251.859001,33.497577 C252.947745,32.029189 261.994745,20.86333 279,0 Z" id="h1"></path>
        </g>
    </g>
</svg>