<?xml version="1.0" encoding="UTF-8"?>
<svg width="601px" height="311px" viewBox="0 0 601 311" version="1.1" xmlns="http://www.w3.org/2000/svg" xmlns:xlink="http://www.w3.org/1999/xlink">
    <title>2CLIMBAPPROACH</title>
    <g id="Page-1" stroke="none" stroke-width="1" fill="none" fill-rule="evenodd">
        <g id="2CLIMBAPPROACH" transform="translate(1.4767, 0.537)" fill="#FFFFFF" fill-rule="nonzero" stroke="#000000">
            <path d="M0,68.9384094 C1.36756971,46.781527 7.87533873,35.7030859 19.5233071,35.7030859 C36.9952596,35.7030859 255.425423,35.7030859 263.055814,35.7030859 C270.686204,35.7030859 278.276591,30.9356994 278.276591,24.7042972 C278.276591,24.7042972 278.276591,33.0978532 278.276591,49.8849652 L0,68.9384094 Z" id="h1"></path>
            <path d="M599.523307,171.963038 L4.73505078,171.963038 L4.73505078,243.328601 C3.83498317,250.158504 6.55435728,256.994399 12.8931731,263.836287 C19.2319889,270.678175 32.7610203,284.231826 53.4802674,304.497242 C57.542729,307.839668 68.4903738,309.510882 86.3232018,309.510882 C104.15603,309.510882 275.222732,309.510882 599.523307,309.510882" id="board"></path>
            <path d="M599.523307,13.4615853 L305.042824,13.4615853 C287.123305,12.1873635 278.163546,17.7777244 278.163546,30.232668 C278.163546,48.9150835 278.114939,48.9545597 240.377016,48.9545597 C215.218401,48.9545597 141.600498,48.9545597 19.5233071,48.9545597 C6.55013489,49.5295248 0.063548799,56.7806362 0.063548799,70.7078939 C0.063548799,84.6351517 0.063548799,115.483916 0.063548799,163.254187 C-0.721389985,178.087807 5.7651961,185.504617 19.5233071,185.504617 C33.281418,185.504617 226.614751,184.964388 599.523307,183.883928" id="board"></path>
            <path d="M599.523307,13.284192 L299.761654,13.284192 C285.438278,13.8661173 278.276591,18.9880653 278.276591,28.6500359 C280.651105,9.550012 287.812792,1.24344979e-14 299.761654,1.24344979e-14 C311.710515,1.24344979e-14 411.631066,1.24344979e-14 599.523307,1.24344979e-14" id="Path"></path>
            <rect id="h3" x="22.5233071" y="87.4630379" width="224" height="77" rx="34"></rect>
            <rect id="h6" x="45.5233071" y="212.463038" width="209" height="71" rx="34"></rect>
            <rect id="h7" x="299.523307" y="212.463038" width="121" height="71" rx="34"></rect>
            <rect id="h8" x="465.523307" y="212.463038" width="121" height="71" rx="34"></rect>
            <rect id="h4" x="264.523307" y="87.4630379" width="123" height="77" rx="34"></rect>
            <path d="M599.523307,164.463038 L439.523307,164.463038 C420.745626,164.463038 405.523307,149.240719 405.523307,130.463038 L405.523307,121.463038 C405.523307,102.685356 420.745626,87.4630379 439.523307,87.4630379 L599.523307,87.4630379" id="h5"></path>
        </g>
    </g>
</svg>