<?xml version="1.0" encoding="UTF-8"?>
<svg width="626px" height="351px" viewBox="0 0 626 351" version="1.1" xmlns="http://www.w3.org/2000/svg" xmlns:xlink="http://www.w3.org/1999/xlink">
    <title>2CLIMBONSIGHT</title>
    <g id="Page-1" stroke="none" stroke-width="1" fill="none" fill-rule="evenodd">
        <g id="2CLIMBONSIGHT" transform="translate(1, 1)" fill="#FFFFFF" fill-rule="nonzero" stroke="#000000">
            <path d="M419,5.83216475 L419,55.000034 L159,55.000034 L159,0 C186.109242,-0.0147484214 201.405127,4.79629407 204.887654,14.4331956 C208.370181,24.0700971 213.933149,27.5079533 221.576557,24.7467643 L230.995646,5.83216475 L419,5.83216475 Z" id="h2"></path>
            <path d="M625,349.000034 L27.507617,349.000034 C12.3155797,349.000034 0,336.792798 0,321.734409 L0,27.265659 C0,12.2072701 12.3155797,3.39608509e-05 27.507617,3.39608509e-05 C72.8601141,3.39608509e-05 118.212611,3.39608509e-05 163.565108,3.39608509e-05 C180.579043,3.39608509e-05 188.213754,9.69315249 186.469241,29.0793896 C186.469241,46.278486 198.4966,54.8780343 222.551317,54.8780343 C230.910066,54.8780343 295.067865,54.8780343 382.111736,54.8780343 C387.02316,54.8780343 396.146459,49.4644575 396.146459,40.2562189 C396.146459,37.279664 396.146459,34.787253 402.807508,34.787253 C451.446091,34.787253 517.614912,34.787253 624.973059,34.787253" id="board"></path>
            <path d="M625,246.123813 L28.507617,246.123813 C13.3155797,246.123813 1,233.916577 1,218.858188 L0,27.265659 C0,12.2072701 12.3155797,3.39608509e-05 27.507617,3.39608509e-05 C72.8601141,3.39608509e-05 118.212611,3.39608509e-05 163.565108,3.39608509e-05 C180.579043,3.39608509e-05 188.213754,9.69315249 186.469241,29.0793896 C186.469241,46.278486 198.4966,54.8780343 222.551317,54.8780343 C230.910066,54.8780343 295.067865,54.8780343 382.111736,54.8780343 C387.02316,54.8780343 396.146459,49.4644575 396.146459,40.2562189 C396.146459,37.279664 396.146459,34.787253 402.807508,34.787253 C451.446091,34.787253 517.614912,34.787253 624.973059,34.787253" id="board"></path>
            <rect id="h11" x="456" y="266.000034" width="161" height="53" rx="25"></rect>
            <ellipse id="h10" cx="405" cy="292.500034" rx="27" ry="26.5"></ellipse>
            <rect id="h9" x="236" y="266.000034" width="118" height="53" rx="25"></rect>
            <rect id="h8" x="24" y="266.000034" width="188" height="53" rx="25"></rect>
            <rect id="h7" x="478" y="162.000034" width="101" height="53" rx="25"></rect>
            <rect id="h5" x="464" y="80.000034" width="145" height="53" rx="25"></rect>
            <rect id="h6" x="276" y="162.000034" width="170" height="53" rx="25"></rect>
            <path d="M625,6.05028109 L411.731586,6.05028109 C406.450063,5.65645653 403.32794,7.57765648 402.365214,11.813881 C401.402488,16.0501055 399.614083,24.4454898 397,37.000034 C397.949213,35.8449006 400.031545,35.2673338 403.246997,35.2673338 C406.462449,35.2673338 480.380116,35.2673338 625,35.2673338" id="h3"></path>
            <path d="M92.7657486,109.59217 L36.2428497,182.00936 C30.6498995,202.311514 35.6911442,212.462591 51.3665836,212.462591 C67.0420231,212.462591 114.267045,212.462591 193.04165,212.462591 C199.142953,212.938306 207.103209,207.063476 216.922417,194.838099 C226.741626,182.612722 243.378037,161.853421 266.831651,132.560195 C275.108433,112.250555 268.36307,102.095735 246.595562,102.095735 C224.828053,102.095735 179.165379,102.095735 109.607539,102.095735 C105.304416,102.130788 102.078497,102.62652 99.9297822,103.582933 C97.7810674,104.539345 95.3930562,106.542425 92.7657486,109.59217 Z" id="h4"></path>
            <path d="M214.808108,55.000034 C196.059081,52.3404396 186.684567,44.5530361 186.684567,31.6378236 C186.684567,12.2650049 185.177649,3.39608509e-05 159,3.39608509e-05 C141.548234,3.39608509e-05 97.7174398,3.39608509e-05 27.507617,3.39608509e-05 C9.16920568,2.07939569 0,10.5763257 0,25.4908239 C0,40.405322 0,50.2417254 0,55.000034" id="Path"></path>
        </g>
    </g>
</svg>