<?xml version="1.0" encoding="UTF-8"?>
<svg width="588px" height="295px" viewBox="0 0 588 295" version="1.1" xmlns="http://www.w3.org/2000/svg" xmlns:xlink="http://www.w3.org/1999/xlink">
    <title>4CLIMBALLIN</title>
    <g id="Page-1" stroke="none" stroke-width="1" fill="none" fill-rule="evenodd">
        <g id="4CLIMBALLIN" transform="translate(1.2481, 1.2968)" fill="#FFFFFF" stroke="#000000">
            <path d="M586.751903,0 L80.21795,0 L0.952490148,272.633332 C0.413674631,286.184332 5.29619665,292.959833 15.6000562,292.959833 C25.9039158,292.959833 216.287865,292.959833 586.751903,292.959833" id="board"></path>
            <path d="M586.751903,221.7032 L322.278438,221.7032 L322.278438,73.8002786 L232.199139,73.8002786 L220.191888,119.027294 C216.030273,134.001218 207.26646,139.755382 193.900447,136.289784 C180.534435,132.824186 165.436678,128.706827 148.607177,123.937704 L136.387551,166.2032 C131.845526,182.992792 122.786012,189.2194 109.20901,184.883023 C95.6320075,180.546646 85.995331,177.407496 80.2989803,175.465574 L52.7623657,280.7654 C50.5651103,288.895022 45.5918138,292.959833 37.8424764,292.959833 C30.0931389,292.959833 22.6789988,292.959833 15.6000562,292.959833 C2.68496698,290.630844 -2.21094298,282.837304 0.912326329,269.579212 C4.03559564,256.321121 30.4978136,166.461383 80.2989803,4.54747351e-13 L586.751903,4.54747351e-13" id="board"></path>
            <path d="M586.751903,292.959833 L183.94904,292.959833 L183.94904,204.85994 C185.330136,199.480086 187.674564,196.790159 190.982323,196.790159 C194.290083,196.790159 237.945655,196.790159 321.94904,196.790159 L322.249017,221.7032 L586.751903,221.7032" id="board"></path>
            <path d="M232.199139,73.8002786 L220.191888,119.027294 C216.030273,134.001218 207.26646,139.755382 193.900447,136.289784 C180.534435,132.824186 165.436678,128.706827 148.607177,123.937704 L136.387551,166.2032 C132.279568,182.960948 123.220054,189.187556 109.20901,184.883023 C95.1979654,180.57849 85.5612889,177.43934 80.2989803,175.465574 L52.7623657,280.7654 C50.5651103,288.895022 45.5918138,292.959833 37.8424764,292.959833 C30.0931389,292.959833 22.6789988,292.959833 15.6000562,292.959833 C2.68496698,290.630844 -2.21094298,282.837304 0.912326329,269.579212 C3.81032431,257.277384 26.8019605,179.025466 69.887235,34.8234582 C69.887235,34.8234582 123.991203,47.8157317 232.199139,73.8002786 Z" id="h10"></path>
            <path d="M148.607177,123.937704 L136.387551,166.2032 C132.083031,182.795401 123.023517,189.022008 109.20901,184.883023 C95.3945025,180.744038 85.757826,177.604888 80.2989803,175.465574 L52.7623657,280.7654 C50.5651103,288.895022 45.5918138,292.959833 37.8424764,292.959833 C30.0931389,292.959833 22.6789988,292.959833 15.6000562,292.959833 C2.68496698,290.630844 -2.21094298,282.837304 0.912326329,269.579212 C3.35472045,259.211395 20.0694129,201.999928 51.0564036,97.9448117 C51.0564036,97.9448117 83.5733282,106.609109 148.607177,123.937704 Z" id="h11"></path>
            <path d="M32.8516055,159.589647 L80.2989803,175.465574 L52.7623657,280.7654 C50.5651103,288.895022 45.5918138,292.959833 37.8424764,292.959833 C30.0931389,292.959833 22.6789988,292.959833 15.6000562,292.959833 C2.68496698,290.630844 -2.21094298,282.837304 0.912326329,269.579212 C2.13722398,264.379595 12.7836504,227.716407 32.8516055,159.589647 Z" id="h12"></path>
            <path d="M183.94904,211.380403 L183.94904,204.85994 C185.337555,199.480086 187.694575,196.790159 191.020101,196.790159 C194.345628,196.790159 238.0886,196.790159 322.249017,196.790159 L322.249017,211.380403 L183.94904,211.380403 Z" id="h9"></path>
            <rect id="h5" x="338.251903" y="85.2032004" width="136" height="41" rx="20.5"></rect>
            <rect id="h13" x="201.251903" y="222.2032" width="136" height="41" rx="20.5"></rect>
            <rect id="h4" x="74.2519033" y="48.2032004" width="136" height="41" rx="20.5"></rect>
            <rect id="h7" x="338.251903" y="157.2032" width="136" height="41" rx="20.5"></rect>
            <rect id="h14" x="355.251903" y="222.2032" width="136" height="41" rx="20.5"></rect>
            <path d="M586.751903,126.7032 L542.751903,126.7032 C531.153924,126.7032 521.751903,117.30118 521.751903,105.7032 C521.751903,94.1052206 531.153924,84.7032004 542.751903,84.7032004 L586.751903,84.7032004" id="h6"></path>
            <path d="M586.751903,198.7032 L542.751903,198.7032 C531.153924,198.7032 521.751903,189.30118 521.751903,177.7032 C521.751903,166.105221 531.153924,156.7032 542.751903,156.7032 L586.751903,156.7032" id="h8"></path>
            <path d="M586.751903,263.7032 L542.751903,263.7032 C531.153924,263.7032 521.751903,254.30118 521.751903,242.7032 C521.751903,231.105221 531.153924,221.7032 542.751903,221.7032 L586.751903,221.7032" id="h15"></path>
            <polyline id="h3" points="586.751903 2.27373675e-13 434.192343 2.27373675e-13 434.192343 59.8186345 586.751903 59.8186345"></polyline>
            <polygon id="h2" points="262.768966 0 262.768966 40.9985211 434.192343 40.9985211 434.192343 2.27373675e-13"></polygon>
            <polygon id="h1" points="262.768966 34.9461048 69.0368432 34.9461048 80.21795 2.27373675e-13 262.768966 2.27373675e-13"></polygon>
        </g>
    </g>
</svg>