<?xml version="1.0" encoding="UTF-8"?>
<svg width="584px" height="1668px" viewBox="0 0 584 1668" version="1.1" xmlns="http://www.w3.org/2000/svg" xmlns:xlink="http://www.w3.org/1999/xlink">
    <title>4CLIMBBIGFISH</title>
    <g id="Page-1" stroke="none" stroke-width="1" fill="none" fill-rule="evenodd">
        <g id="4CLIMBBIGFISH" transform="translate(1, 1)" fill="#FFFFFF">
            <path d="M583,1666.00004 L269.96401,1666.00004 C169.349665,1666.00004 87.7856225,1584.43599 87.7856225,1483.82165 C87.7856225,1466.96158 90.1260872,1450.18524 94.7383229,1433.97264 L95.0975899,1432.72664 C114.342119,1366.86459 150.32934,1301.95571 203.059254,1238 C67.686418,1238 0,1160.33333 0,1005 L0,233 C0,104.317653 104.317653,0 233,0 L583,0" id="board" stroke="#000000"></path>
            <path d="M583,592.972691 C543.235498,592.972691 510.5,625.01164 510.5,664.5 C510.5,703.98836 543.235498,736.01952 583,736.01952" id="screw" stroke="#000000"></path>
            <path d="M583,1614 L307.996444,1614 C219.606279,1614 147.951893,1542.34561 147.951893,1453.95545 C147.951893,1439.1438 150.008002,1424.40571 154.059872,1410.16287 L154.37549,1409.06825 C171.281897,1351.20814 202.896836,1294.18539 249.220308,1238 C249.220308,1238 360.480205,1238 583,1238" id="h4"></path>
            <path d="M583,320 L322.5,320 C269.756806,320 227,277.243194 227,224.5 C227,171.756806 269.756806,129 322.5,129 L583,129" id="h1" stroke="#000000"></path>
            <rect id="h2" stroke="#000000" x="74.5" y="331.5" width="187" height="668" rx="93.5"></rect>
            <path d="M583,1202 L322.5,1202 C269.756806,1202 227,1159.24319 227,1106.5 C227,1053.75681 269.756806,1011 322.5,1011 L583,1011" id="h3" stroke="#000000"></path>
        </g>
    </g>
</svg>