<?xml version="1.0" encoding="UTF-8"?>
<svg width="584px" height="1668px" viewBox="0 0 584 1668" version="1.1" xmlns="http://www.w3.org/2000/svg" xmlns:xlink="http://www.w3.org/1999/xlink">
    <title>4CLIMBBIGFISHHARD</title>
    <g id="Page-1" stroke="none" stroke-width="1" fill="none" fill-rule="evenodd">
        <g id="4CLIMBBIGFISHHARD" transform="translate(1, 1)" fill="#FFFFFF">
            <path d="M583,1666.00004 L269.96401,1666.00004 C169.349665,1666.00004 87.7856225,1584.43599 87.7856225,1483.82165 C87.7856225,1466.96158 90.1260872,1450.18524 94.7383229,1433.97264 L95.0975899,1432.72664 C114.342119,1366.86459 150.32934,1301.95571 203.059254,1238 C67.686418,1238 0,1160.33333 0,1005 L0,233 C0,104.317653 104.317653,0 233,0 L583,0" id="board" stroke="#000000"></path>
            <path d="M583,595.972691 C543.235498,595.972691 510.5,628.01164 510.5,667.5 C510.5,706.98836 543.235498,739.01952 583,739.01952" id="screw" stroke="#000000"></path>
            <path d="M583,405 L487,405 C434.532949,405 392,362.467051 392,310 C392,257.532949 434.532949,215 487,215 L583,215" id="h2" stroke="#000000"></path>
            <rect id="h3" stroke="#000000" x="123.5" y="485.5" width="167" height="364" rx="83.5"></rect>
            <path d="M583,1111 L487,1111 C434.532949,1111 392,1068.46705 392,1016 C392,963.532949 434.532949,921 487,921 L583,921" id="h5" stroke="#000000"></path>
            <circle id="h1" stroke="#000000" cx="218" cy="310" r="94.5"></circle>
            <circle id="h4" stroke="#000000" cx="218" cy="1024" r="94.5"></circle>
            <path d="M583,1614 L307.996444,1614 C219.606279,1614 147.951893,1542.34561 147.951893,1453.95545 C147.951893,1439.1438 150.008002,1424.40571 154.059872,1410.16287 L154.37549,1409.06825 C171.281897,1351.20814 202.896836,1294.18539 249.220308,1238 C249.220308,1238 360.480205,1238 583,1238" id="h6"></path>
        </g>
    </g>
</svg>