<?xml version="1.0" encoding="UTF-8"?>
<svg width="594px" height="330px" viewBox="0 0 594 330" version="1.1" xmlns="http://www.w3.org/2000/svg" xmlns:xlink="http://www.w3.org/1999/xlink">
    <title>ACRONMIDNIGHT</title>
    <g id="Page-1" stroke="none" stroke-width="1" fill="none" fill-rule="evenodd">
        <g id="ACRONMIDNIGHT" transform="translate(1, 2)" fill="#FFFFFF" fill-rule="nonzero" stroke="#000000">
            <polyline id="board" points="593 320 67.3064614 319.653431 131.428988 233.930856 593 234"></polyline>
            <polyline id="board" points="593 234 131.428988 233.930856 190.785669 138.357334 593 138"></polyline>
            <path d="M593,145 L206.486505,144.50736 C196.797176,143.809457 189.567327,147.519356 184.796957,155.637058 C180.026587,163.75476 142.476162,219.152926 72.1456817,321.831556 C65.4147665,327.57248 54.7604918,328.64469 40.1828576,325.048186 C18.3164062,319.653431 -14.1865132,294.608804 6.74186006,258.359058 C20.6941089,234.192561 43.5280275,196.241995 75.243616,144.50736 C83.1791566,128.353387 78.4067491,120.2764 60.9263933,120.2764 C43.4460375,120.2764 37.2827647,120.2764 42.436575,120.2764 C15.6813492,117.785609 2.3037363,101.739801 2.3037363,72.1389758 C2.3037363,27.7377373 31.6041528,19.8616141 62.8996216,19.8616141 C83.7632674,19.8616141 133.2553,19.757738 211.375721,19.5499857 C381.494265,19.7505908 508.702357,19.9005956 593,20" id="board"></path>
            <polyline id="h3" points="593 43 417.182153 42.535878 425.350798 19.5499857 593 20"></polyline>
            <path d="M425.350798,19.5499857 L417.182153,42.535878 C414.716127,49.7617321 410.083824,53.3746592 403.285245,53.3746592 C396.486665,53.3746592 341.979695,53.3746592 239.764336,53.3746592 C235.063596,53.8107692 230.475967,50.1978421 226.001449,42.535878 C221.526931,34.8739139 216.651688,27.2119498 211.375721,19.5499857 L425.350798,19.5499857 Z" id="h2"></path>
            <rect id="h4" x="28.3037363" y="50.3590583" width="172" height="40" rx="20"></rect>
            <rect id="h6" x="301.303736" y="80.3590583" width="172" height="40" rx="20"></rect>
            <rect id="h7" x="201.303736" y="169.359058" width="172" height="40" rx="20"></rect>
            <rect id="h8" x="392.303736" y="169.359058" width="81" height="40" rx="20"></rect>
            <rect id="h11" x="351.303736" y="258.359058" width="122" height="40" rx="20"></rect>
            <rect id="h10" x="162.303736" y="258.359058" width="170" height="40" rx="20"></rect>
            <path d="M593,209 L512.303736,209.359058 C501.258041,209.359058 492.303736,200.404753 492.303736,189.359058 C492.303736,178.313363 501.258041,169.359058 512.303736,169.359058 L593,169" id="h9"></path>
            <path d="M593,298 L512.303736,298.359058 C501.258041,298.359058 492.303736,289.404753 492.303736,278.359058 C492.303736,267.313363 501.258041,258.359058 512.303736,258.359058 L593,258" id="h12"></path>
            <circle id="h5" cx="256.303736" cy="100.359058" r="20"></circle>
            <path d="M5.11224434,50.3590583 C12.2902874,29.8196765 30.7684497,19.5499857 60.546731,19.5499857 C90.3250123,19.5499857 140.601342,19.5499857 211.375721,19.5499857 C225.522963,15.1002665 232.596583,8.58360456 232.596583,0 C220.869684,0 79.7812821,0 79.7812821,0 C45.4629182,0 20.5732389,16.7863528 5.11224434,50.3590583 Z" id="h1"></path>
            <path d="M232.596583,0 C244.470874,14.1544513 249.09014,23.7730536 246.454384,28.8558069 C243.818627,33.9385603 239.199361,41.1063107 232.596583,50.3590583 C231.493524,50.1265192 228.970907,46.9421716 225.028734,40.8060154 C221.086561,34.6698593 216.535556,27.584516 211.375721,19.5499857 C219.501303,16.680944 224.804307,14.1038618 227.284732,11.8187388 C229.765157,9.53361589 231.535775,5.59403628 232.596583,0 Z" id="board"></path>
        </g>
    </g>
</svg>