<?xml version="1.0" encoding="UTF-8"?>
<svg width="566px" height="481px" viewBox="0 0 566 481" version="1.1" xmlns="http://www.w3.org/2000/svg" xmlns:xlink="http://www.w3.org/1999/xlink">
    <title>AIXTRAINING1</title>
    <g id="Page-1" stroke="none" stroke-width="1" fill="none" fill-rule="evenodd">
        <g id="AIXTRAINING1" transform="translate(1.900391, 1.228516)" fill="#FFFFFF">
            <path d="M563.099609,16.7949219 L309.289062,9.96679688 C203.088542,3.32226563 139.124349,0 117.396484,0 C84.8046875,0 0,33.2402344 0,97.7597656 C0,140.772786 19.3391927,173.647135 58.0175781,196.382813 C74.8255208,205.188802 82.6861979,212.44043 81.5996094,218.137695 C79.9697266,226.683594 56.8291016,245.868164 50.6152344,264.271484 C44.4013672,282.674805 12.3115234,392.890625 12.3115234,409.771484 C12.3115234,426.652344 1.94824219,458.444585 32.3525391,466.4856 C45.7409545,470.026431 61.0651909,463.630458 75.4809777,466.4856 C93.8025873,470.114317 114.592209,470.452186 139.636719,472.091797 C184.386719,475.021484 518.933594,477.826881 563.099609,477.826881" id="board" stroke="#000000"></path>
            <rect id="h10" stroke="#000000" x="464.099609" y="410.771484" width="84" height="47" rx="23.5"></rect>
            <rect id="h9" stroke="#000000" x="273.099609" y="410.771484" width="146" height="47" rx="23.5"></rect>
            <rect id="h8" stroke="#000000" x="114.099609" y="409.771484" width="146" height="47" rx="23.5"></rect>
            <rect id="h7" stroke="#000000" x="306.099609" y="333.771484" width="226" height="47" rx="23.5"></rect>
            <rect id="h6" stroke="#000000" x="189.099609" y="333.771484" width="84" height="47" rx="23.5"></rect>
            <rect id="h5" stroke="#000000" x="369.099609" y="234.771484" width="146" height="47" rx="23.5"></rect>
            <rect id="h4" stroke="#000000" x="212.099609" y="240.771484" width="84" height="47" rx="23.5"></rect>
            <path d="M563.099609,124.669922 C534.473958,124.669922 514.939453,132.043945 504.496094,146.791992 C494.052734,161.540039 492.157878,174.352214 498.811523,185.228516 C502.601237,191.542318 506.855306,194.699219 511.57373,194.699219 C518.651367,194.699219 523.340332,191.304199 526.698242,189.211426 C530.056152,187.118652 537.660156,185.228516 543.48877,185.228516 C547.374512,185.228516 553.911458,185.228516 563.099609,185.228516" id="h3" stroke="#000000"></path>
            <path d="M563.099609,25.734375 C478.198568,25.734375 430.979818,25.734375 421.443359,25.734375 C411.906901,25.734375 394.458984,28.6035156 369.099609,34.3417969 C358.66862,37.1490885 352.926758,41.3994141 351.874023,47.0927734 C350.294922,55.6328125 342.694336,86.5595703 348.526367,96.1367188 C354.358398,105.713867 360.579102,117.150391 386.685547,119.864258 C412.791992,122.578125 497.269531,105.117187 515.099609,100.626953 C526.986328,97.6334635 542.986328,96.1367188 563.099609,96.1367188" id="h2"></path>
            <path d="M132.868695,13.7714844 C103.504915,13.7714844 27.0996094,43.7043782 27.0996094,101.804338 C27.0996094,140.537644 44.5233742,170.141058 79.3709039,190.614578 C110.916101,196.15712 132.230518,196.15712 143.314156,190.614578 C159.939612,182.300764 174.428818,155.681436 204.980382,132.300045 C235.531946,108.918655 278.802751,133.217329 306.099609,104.271484 C333.396467,75.3256395 344.277344,29.875 306.099609,25.0722656 C267.921875,20.2695313 231.655371,16.8229898 204.980382,16.8229898 C187.197056,16.8229898 163.159827,15.8058213 132.868695,13.7714844 Z" id="h1"></path>
        </g>
    </g>
</svg>