<?xml version="1.0" encoding="UTF-8"?>
<svg width="588px" height="314px" viewBox="0 0 588 314" version="1.1" xmlns="http://www.w3.org/2000/svg" xmlns:xlink="http://www.w3.org/1999/xlink">
    <title>ALTISSIMOALTITRAC</title>
    <g id="Page-1" stroke="none" stroke-width="1" fill="none" fill-rule="evenodd">
        <g id="ALTISSIMOALTITRAC" transform="translate(0.652559, 0.719738)" fill="#FFFFFF">
            <path d="M586.347441,64.9226103 C558.038547,64.373579 537.950914,63.5500701 526.084541,62.4520837 C485.089175,58.6588137 456.3299,52.2269056 440.063981,47.6592052 C416.73565,41.1082794 368.03073,33.5117924 293.94922,24.8697444 C209.909467,12.1436816 163.754353,4.83798709 155.483878,2.95266097 C143.078165,0.124671791 91.4751626,-4.0584703 66.1338884,9.02025745 C40.7926142,22.0989852 -5.68434189e-14,36.5323185 -5.68434189e-14,100.336654 C-5.68434189e-14,164.140989 51.1172166,188.709263 73.6758112,191.788493 C96.2344058,194.867722 140.883386,197.809624 140.883386,236.841093 C140.883386,262.862072 140.883386,275.108938 140.883386,273.581691 C142.831107,292.299209 152.798243,303.163003 170.784792,306.173076 C197.764617,310.688184 225.42898,305.591542 244.946276,303.449293 C264.463572,301.307043 380.906701,287.774035 433.287157,290.392902 C485.667614,293.01177 503.565093,288.720478 535.018372,296.305769 C566.471651,303.89106 567.652343,311.81323 586.347441,311.81323" id="board" stroke="#000000"></path>
            <path d="M317.928839,105.001257 C287.342795,107.07538 270.592751,114.592108 267.678709,127.551442 C263.307644,146.990444 282.049657,158.843756 299.989248,162.347458 C317.928839,165.85116 406.092149,173.624987 424.152861,173.624987 C442.213573,173.624987 532.92237,172.836045 532.92237,141.221049 C532.92237,109.606053 494.852373,107.112628 466.395525,105.001257 C437.938677,102.889886 406.113664,101.124078 386.009236,101.124078 C372.606284,101.124078 349.912818,102.416471 317.928839,105.001257 Z" id="h4" stroke="#000000"></path>
            <path d="M451.977266,201.278627 C419.070808,203.146788 396.277202,205.030799 383.596446,206.93066 C364.575312,209.780452 335.632942,209.962764 335.632942,228.113774 C335.632942,246.264784 353.223254,255.176799 390.897489,259.451398 C428.571724,263.725997 432.770407,265.320497 456.942385,265.320497 C481.114362,265.320497 552.866389,265.320497 552.866389,233.299562 C552.866389,211.952272 519.236681,201.278627 451.977266,201.278627 Z" id="h7" stroke="#000000"></path>
            <path d="M223.263219,201.278627 C214.231965,202.822063 203.027299,206.542625 200.685388,228.734299 C198.343477,250.925973 210.400274,260.600821 230.99885,260.600821 C251.597426,260.600821 269.574534,265.113467 271.725708,241.479429 C273.159824,225.723403 265.744571,213.736613 249.479948,205.51906 C238.022964,201.663147 229.284054,200.24967 223.263219,201.278627 Z" id="h6" stroke="#000000"></path>
            <path d="M408.973559,46.6249811 C451.548654,72.1112978 487.531094,85.5737962 516.920878,87.0124762 C546.310661,88.4511563 567.457483,89.2210114 580.361342,89.3220416 L580.361342,67.9735113 C545.056788,68.0577677 517.536292,66.8706838 497.799856,64.4122594 C478.06342,61.9538351 448.454654,56.0247423 408.973559,46.6249811 Z" id="h3"></path>
            <path d="M396.253414,46.6249811 C411.121694,57.1634503 421.794797,64.2796271 428.272723,67.9735113 C440.640623,75.0260137 453.238479,79.0011451 458.330591,82.1823995 C458.330591,82.1823995 179.92812,43.4308559 179.92812,13.3318829 C179.92812,13.3318829 218.973915,23.317685 293.17372,32.9909988 C312.801485,35.54984 347.161382,40.0945008 396.253414,46.6249811 Z" id="h2"></path>
            <path d="M122.134612,47.7998308 C105.117175,44.6359348 65.0007505,44.6359348 51.6440416,91.0052336 C38.2873327,137.374532 91.1916609,127.873144 106.663136,127.873144 C122.134612,127.873144 153.599594,131.661652 168.314995,127.873144 C183.030397,124.084635 184.359457,115.500283 184.359457,101.124078 C184.359457,86.7478724 165.366163,71.7310822 157.409748,65.260954 C149.453334,58.7908258 141.276281,54.6949109 137.489724,53.1476509 C134.962696,52.1150583 128.945884,49.0661882 122.134612,47.7998308 Z" id="h1" stroke="#000000"></path>
            <path d="M171.786482,141.404916 C154.737188,140.465875 146.212541,147.615957 146.212541,162.855161 C146.212541,185.713968 154.9394,196.218527 164.720042,196.218527 C174.500684,196.218527 189.481065,194.734381 189.481065,169.780262 C189.481065,153.144182 183.582871,143.685734 171.786482,141.404916 Z" id="h5" stroke="#000000"></path>
        </g>
    </g>
</svg>