<?xml version="1.0" encoding="UTF-8"?>
<svg width="423px" height="332px" viewBox="0 0 423 332" version="1.1" xmlns="http://www.w3.org/2000/svg" xmlns:xlink="http://www.w3.org/1999/xlink">
    <title>ANT4</title>
    <g id="Page-1" stroke="none" stroke-width="1" fill="none" fill-rule="evenodd">
        <g id="ANT4" transform="translate(211.500000, 166.000000) scale(-1, 1) translate(-211.500000, -166.000000) " fill="#FFFFFF" stroke="#292929">
            <path d="M0,25.52 L296.87,25.52 C297.514717,25.5170649 298.126907,25.2364776 298.55,24.75 C312.910299,8.53410894 333.928593,-0.179264486 355.55,1.12 C392.14,3.23 421.35,33.73 421.98,70.38 C422.647807,108.071927 393.597147,139.644713 355.98,142.11 C355.472848,142.154019 355.060643,142.53737 354.98,143.04 L353.61,150.93 C353.070774,154.027557 352.79977,157.165858 352.8,160.31 L352.8,162.06 C352.788542,167.048311 353.461483,172.014613 354.8,176.82 L356.45,182.67 C357.097387,184.988953 357.902599,187.26092 358.86,189.47 L373.33,223 C374.29189,225.225899 375.8973,227.113388 377.94,228.42 C400.73,243.17 412.08,274.1 395.71,304.95 C391.508234,312.827508 385.034567,319.259364 377.13,323.41 C353.19,335.99 329.23,331.91 312.85,318.78 C312.329899,318.35657 311.680659,318.123691 311.01,318.12 L299.9,318.12 C293.046146,318.12 287.49,312.563854 287.49,305.71 L287.49,287.87 C287.503738,285.460191 286.739156,283.11033 285.31,281.17 C276.23,268.98 263.77,263.65 255.43,261.35 C251.192843,260.200174 246.820373,259.625026 242.43,259.64 L210.88,259.64 C206.95571,259.646064 203.453744,257.17786 202.14,253.48 L196.46,237.59 C195.529353,234.981934 195.921038,232.084526 197.510767,229.817177 C199.100495,227.549827 201.6909,226.194028 204.46,226.18 L207.82,226.18 C214.999702,226.18 220.82,220.359702 220.82,213.18 L220.82,213.18 C220.820526,211.368479 220.442443,209.576845 219.71,207.92 L214,195.21 C212.170975,191.137464 208.124398,188.515407 203.66,188.51 L0,188.51" id="Path"></path>
            <circle id="h4" cx="347.7" cy="275.25" r="55.75"></circle>
            <circle id="h1" cx="351.39" cy="71.63" r="70.63"></circle>
            <path d="M0,105.429996 L237.5,105.429996 C238.16402,105.428725 238.793421,105.726087 239.214115,106.239838 C239.634809,106.753589 239.802204,107.429273 239.67,108.08 L224.34,183.69 C223.776505,186.49933 221.305274,188.518201 218.44,188.51 L203.66,188.51" id="h3"></path>
            <path d="M211.6,25.52 L211.68,25.52 C218.083009,25.5214687 223.828755,29.4525594 226.15,35.42 L240.42,71.67 C240.931114,72.9137061 240.783145,74.3309996 240.026163,75.442314 C239.269181,76.5536284 238.004482,77.2102503 236.66,77.19 L0,77.1904551" id="h2"></path>
            <path d="M237.91,105.62 L237.91,76.97" id="Path"></path>
        </g>
    </g>
</svg>