<?xml version="1.0" encoding="UTF-8"?>
<svg width="593px" height="230px" viewBox="0 0 593 230" version="1.1" xmlns="http://www.w3.org/2000/svg" xmlns:xlink="http://www.w3.org/1999/xlink">
    <title>ANTREVOLVER</title>
    <g id="Page-1" stroke="none" stroke-width="1" fill="none" fill-rule="evenodd">
        <g id="ANTREVOLVER" transform="translate(1.349862, 1.149956)" stroke="#000000">
            <path d="M50.2474149,32.083057 L41.0589136,10.4748125 C37.3082256,3.49160416 32.7120644,-4.26325641e-14 27.2704301,-4.26325641e-14 C19.1079788,-4.26325641e-14 11.8876241,5.58753904 9.39083647,11.3441222 C7.72631141,15.1818443 4.59603259,22.9006397 0,34.5005085 L0,53.0401931 L4.65013839,63.6047332 L4.65013839,162.715242 L0,174.85492 L0,193.091012 L11.6291274,221.033613 C13.9969351,225.571933 18.6696041,227.841094 25.6471342,227.841094 C32.6246643,227.841094 38.2758893,223.472688 42.6008091,214.735878 L51.6510099,191.340725 L51.0220819,164.211462 L41.0589136,132.12942 L41.0589136,59.6429734 L50.2474149,32.083057 Z" id="side" fill="#DDDDDD"></path>
            <path d="M591.650138,7.38452728 L73.9864339,7.38452728 C64.0938867,7.70787263 58.3947128,9.72430706 56.8889119,13.4338306 C55.3831111,17.1433541 50.106445,32.4513109 41.0589136,59.357701 L41.0589136,132.12942 L56.8889119,183.589576 C59.5424417,187.102914 64.0636219,188.859583 70.4524527,188.859583 C76.8412834,188.859583 250.573845,188.859583 591.650138,188.859583" id="board" fill="#FFFFFF"></path>
            <path d="M103.380632,43.0306851 L239.510588,43.0306851 C243.928866,43.0306851 247.510588,46.6124071 247.510588,51.0306851 C247.510588,51.8927168 247.371263,52.7490823 247.098002,53.5666562 L241.476402,70.3860151 C240.385599,73.6496059 237.330046,75.8500439 233.888988,75.8500439 L97.7590313,75.8500439 C93.3407533,75.8500439 89.7590313,72.2683219 89.7590313,67.8500439 C89.7590313,66.9880123 89.8983564,66.1316467 90.1716173,65.3140728 L95.7932176,48.494714 C96.8840203,45.2311231 99.9395741,43.0306851 103.380632,43.0306851 Z" id="h1" fill="#FFFFFF"></path>
            <path d="M241.380632,42.8500439 L377.510588,42.8500439 C381.928866,42.8500439 385.510588,46.4317659 385.510588,50.8500439 C385.510588,51.7120756 385.371263,52.5684412 385.098002,53.3860151 L379.476402,70.2053739 C378.385599,73.4689648 375.330046,75.6694028 371.888988,75.6694028 L235.759031,75.6694028 C231.340753,75.6694028 227.759031,72.0876808 227.759031,67.6694028 C227.759031,66.8073711 227.898356,65.9510055 228.171617,65.1334317 L233.793218,48.3140728 C234.88402,45.050482 237.939574,42.8500439 241.380632,42.8500439 Z" id="h2" fill="#FFFFFF"></path>
            <path d="M373.380632,42.8500439 L509.510588,42.8500439 C513.928866,42.8500439 517.510588,46.4317659 517.510588,50.8500439 C517.510588,51.7120756 517.371263,52.5684412 517.098002,53.3860151 L511.476402,70.2053739 C510.385599,73.4689648 507.330046,75.6694028 503.888988,75.6694028 L367.759031,75.6694028 C363.340753,75.6694028 359.759031,72.0876808 359.759031,67.6694028 C359.759031,66.8073711 359.898356,65.9510055 360.171617,65.1334317 L365.793218,48.3140728 C366.88402,45.050482 369.939574,42.8500439 373.380632,42.8500439 Z" id="h3" fill="#FFFFFF"></path>
            <path d="M103.380632,121.030685 L239.510588,121.030685 C243.928866,121.030685 247.510588,124.612407 247.510588,129.030685 C247.510588,129.892717 247.371263,130.749082 247.098002,131.566656 L241.476402,148.386015 C240.385599,151.649606 237.330046,153.850044 233.888988,153.850044 L97.7590313,153.850044 C93.3407533,153.850044 89.7590313,150.268322 89.7590313,145.850044 C89.7590313,144.988012 89.8983564,144.131647 90.1716173,143.314073 L95.7932176,126.494714 C96.8840203,123.231123 99.9395741,121.030685 103.380632,121.030685 Z" id="h4" fill="#FFFFFF" transform="translate(168.634810, 137.440365) scale(1, -1) translate(-168.634810, -137.440365) "></path>
            <path d="M241.380632,120.850044 L377.510588,120.850044 C381.928866,120.850044 385.510588,124.431766 385.510588,128.850044 C385.510588,129.712076 385.371263,130.568441 385.098002,131.386015 L379.476402,148.205374 C378.385599,151.468965 375.330046,153.669403 371.888988,153.669403 L235.759031,153.669403 C231.340753,153.669403 227.759031,150.087681 227.759031,145.669403 C227.759031,144.807371 227.898356,143.951006 228.171617,143.133432 L233.793218,126.314073 C234.88402,123.050482 237.939574,120.850044 241.380632,120.850044 Z" id="h5" fill="#FFFFFF" transform="translate(306.634810, 137.259723) scale(1, -1) translate(-306.634810, -137.259723) "></path>
            <path d="M373.380632,120.850044 L509.510588,120.850044 C513.928866,120.850044 517.510588,124.431766 517.510588,128.850044 C517.510588,129.712076 517.371263,130.568441 517.098002,131.386015 L511.476402,148.205374 C510.385599,151.468965 507.330046,153.669403 503.888988,153.669403 L367.759031,153.669403 C363.340753,153.669403 359.759031,150.087681 359.759031,145.669403 C359.759031,144.807371 359.898356,143.951006 360.171617,143.133432 L365.793218,126.314073 C366.88402,123.050482 369.939574,120.850044 373.380632,120.850044 Z" id="h6" fill="#FFFFFF" transform="translate(438.634810, 137.259723) scale(1, -1) translate(-438.634810, -137.259723) "></path>
        </g>
    </g>
</svg>