<?xml version="1.0" encoding="UTF-8"?>
<svg width="585px" height="333px" viewBox="0 0 585 333" version="1.1" xmlns="http://www.w3.org/2000/svg" xmlns:xlink="http://www.w3.org/1999/xlink">
    <title>ARTLINEBOARD</title>
    <g id="Page-1" stroke="none" stroke-width="1" fill="none" fill-rule="evenodd">
        <g id="ARTLINEBOARD" transform="translate(0.575359, 0.703018)" fill="#FFFFFF" stroke="#000000">
            <path d="M115.471435,38.2969821 L0,44.6030598 C0,14.8727933 19.2452391,0.00766004536 57.7357173,0.00766004536 C96.2261956,0.00766004536 195.664784,0.00766004536 356.051483,0.00766004536 C368.028877,-0.190021323 377.917609,3.43844208 385.71768,10.8930503 C393.517751,18.3476584 405.082868,29.5843283 420.413031,44.6030598 L394.042415,44.6030598 L115.471435,38.2969821 Z" id="h1"></path>
            <path d="M420.413031,274.207332 C411.027428,266.351544 402.237223,266.351544 394.042415,274.207332 C385.847606,282.06312 371.009683,297.803269 349.528644,321.427778 C338.490415,328.229924 326.094804,331.630997 312.34181,331.630997 C298.588817,331.630997 213.614763,331.630997 57.4196484,331.630997 C52.7666645,331.374307 46.6122294,327.973234 38.956343,321.427778 C31.3004566,314.882321 21.6821576,305.559519 10.1014459,293.459369 C3.36714864,287.065081 1.13686838e-13,278.694043 1.13686838e-13,268.346256 C1.13686838e-13,257.998469 1.13686838e-13,225.031474 1.13686838e-13,169.445273 L420.413031,169.445273 L420.413031,274.207332 Z" id="board"></path>
            <path d="M583.424641,311.609593 L469.486908,308.088653 C457.515631,306.928868 448.310595,302.757226 441.871798,295.573728 C435.433001,288.39023 428.280079,281.268098 420.413031,274.207332 C413.105134,266.122623 409.451185,256.742059 409.451185,246.065641 C409.451185,235.389224 409.451185,224.517919 409.451185,213.451727 C408.24411,197.750832 398.315302,189.900385 379.664763,189.900385 C361.014224,189.900385 246.986526,189.900385 37.5816684,189.900385 C27.364341,188.392378 20.6006609,186.178196 17.290628,183.25784 C13.9805951,180.337484 8.21705244,175.733295 0,169.445273 L0,88.7799953 L0,44.6030598 L583.424641,44.6030598" id="board"></path>
            <polyline id="Path" points="583.424641 64.918529 394.042415 64.918529 394.042415 44.6030598 583.424641 44.6030598"></polyline>
            <path d="M348.717355,113.796982 L39.7612058,113.796982 C27.8461125,113.419151 19.4868121,111.194329 14.6833045,107.122514 C9.87979681,103.0507 4.98536199,98.8091578 1.42108547e-13,94.3978891 L1.42108547e-13,38.6198657 C1.15820294,33.2151665 6.05263776,27.7053064 14.6833045,22.0902855 C27.6293045,13.667754 30.4186668,14.4981685 43.1904298,14.4981685 C51.7049384,14.4981685 156.533899,14.4981685 357.677311,14.4981685 C365.53686,14.0411871 371.513184,16.5718928 375.606283,22.0902855 C379.699383,27.6086781 390.682769,38.4988478 408.556443,54.7607944 C413.294246,61.3104929 413.294246,67.1126061 408.556443,72.167134 C403.81864,77.2216619 392.835254,88.8734553 375.606283,107.122514 C371.904425,110.06497 368.300276,111.971388 364.793838,112.841769 C361.2874,113.71215 355.928572,114.030554 348.717355,113.796982 Z" id="board"></path>
            <path d="M583.424641,195.546482 L524.744635,195.546482 C512.74886,196.11734 504.896326,198.760011 501.187033,203.474493 C497.47774,208.188975 492.292804,213.917951 485.632225,220.66142 C479.957325,242.103524 486.687968,252.824575 505.824154,252.824575 C524.96034,252.824575 550.827169,252.824575 583.424641,252.824575" id="h7"></path>
            <path d="M583.424641,137.296982 L506.924641,137.296982 C493.945949,137.296982 483.424641,126.775674 483.424641,113.796982 C483.424641,100.81829 493.945949,90.2969821 506.924641,90.2969821 L583.424641,90.2969821" id="h5"></path>
            <rect id="h3" x="21.4246409" y="38.2969821" width="348" height="52" rx="26"></rect>
            <rect id="h4" x="21.4246409" y="114.296982" width="348" height="52" rx="26"></rect>
            <rect id="h6" x="21.4246409" y="189.296982" width="348" height="52" rx="26"></rect>
            <rect id="h10" x="253.424641" y="253.296982" width="91" height="52" rx="26"></rect>
            <rect id="h8" x="54.4246409" y="253.296982" width="91" height="52" rx="26"></rect>
            <circle id="h9" cx="199.424641" cy="279.296982" r="26"></circle>
        </g>
    </g>
</svg>