<?xml version="1.0" encoding="UTF-8"?>
<svg width="599px" height="303px" viewBox="0 0 599 303" version="1.1" xmlns="http://www.w3.org/2000/svg" xmlns:xlink="http://www.w3.org/1999/xlink">
    <title>AWESOMEWOODYSCLIFFWIDEBACK</title>
    <g id="Page-1" stroke="none" stroke-width="1" fill="none" fill-rule="evenodd">
        <g id="AWESOMEWOODYSCLIFFWIDEBACK" transform="translate(1.000000, 1.000000)" fill="#FFFFFF" stroke="#000000">
            <polyline id="board" fill-rule="nonzero" points="598 289 8 289 8 21 598 21"></polyline>
            <path d="M286,196.948749 L446.029792,196.948749 C458.180057,196.948749 468.029792,206.798485 468.029792,218.948749 L468.029792,233.820016 C468.029792,245.970281 458.180057,255.820016 446.029792,255.820016 L286,255.820016 C273.849736,255.820016 264,245.970281 264,233.820016 L264,218.948749 C264,206.798485 273.849736,196.948749 286,196.948749 Z" id="h9" fill-rule="nonzero"></path>
            <path d="M79,89.9487492 L239.029792,89.9487492 C251.180057,89.9487492 261.029792,99.7984847 261.029792,111.948749 L261.029792,126.820016 C261.029792,138.970281 251.180057,148.820016 239.029792,148.820016 L79,148.820016 C66.8497355,148.820016 57,138.970281 57,126.820016 L57,111.948749 C57,99.7984847 66.8497355,89.9487492 79,89.9487492 Z" id="h7" fill-rule="nonzero"></path>
            <path d="M99.8666569,34.0571249 L152.353613,34.0571249 C163.325664,34.0571249 172.22027,42.9517302 172.22027,53.9237818 C172.22027,64.8958334 163.325664,73.7904387 152.353613,73.7904387 L99.8666569,73.7904387 C88.8946053,73.7904387 80,64.8958334 80,53.9237818 C80,42.9517302 88.8946053,34.0571249 99.8666569,34.0571249 Z" id="h2" fill-rule="nonzero"></path>
            <path d="M598,73.7904387 L573.866657,73.7904387 C562.894605,73.7904387 554,64.8958334 554,53.9237818 C554,42.9517302 562.894605,34.0571249 573.866657,34.0571249 L598,34.0571249" id="h6" fill-rule="nonzero"></path>
            <path d="M322.866657,35.0571249 L402.133343,35.0571249 C413.105395,35.0571249 422,43.9517302 422,54.9237818 C422,65.8958334 413.105395,74.7904387 402.133343,74.7904387 L322.866657,74.7904387 C311.894605,74.7904387 303,65.8958334 303,54.9237818 C303,43.9517302 311.894605,35.0571249 322.866657,35.0571249 Z" id="h4" fill-rule="nonzero"></path>
            <path d="M598,148.820016 L522,148.820016 C509.849736,148.820016 500,138.970281 500,126.820016 L500,111.948749 C500,99.7984847 509.849736,89.9487492 522,89.9487492 L598,89.9487492" id="h8" fill-rule="nonzero"></path>
            <path d="M598,301 L16,301 C7.163444,301 -9.09494702e-13,293.836556 -9.09494702e-13,285 L-9.09494702e-13,286 C-9.09494702e-13,277.163444 7.163444,270 16,270 L598,270" id="h10" fill-rule="nonzero"></path>
            <polyline id="h1" points="598 21 8 21 34.0462565 0.346681005 598 0"></polyline>
            <circle id="h3" cx="233" cy="55" r="20"></circle>
            <circle id="h5" cx="484" cy="56" r="20"></circle>
        </g>
    </g>
</svg>