<?xml version="1.0" encoding="UTF-8"?>
<svg width="1328px" height="1000px" viewBox="0 0 1428 1000" version="1.1" xmlns="http://www.w3.org/2000/svg" xmlns:xlink="http://www.w3.org/1999/xlink">
    <title>BABYFUNBLACKWHITE</title>
    <g id="Page-1" stroke="none" stroke-width="1" fill="none" fill-rule="evenodd">
        <g id="BABYFUNBLACKWHITE" transform="translate(1.000000, 0.707378)" fill="#FFFFFF">
            <path d="M1264.48781,517.509621 C1264.48781,658.767045 1264.48781,763.364949 1264.48781,831.303333 C1264.48781,933.210909 1219.92966,994.340236 1141.46483,994.340236 C1063,994.340236 1079.08323,970.295141 1033.04513,970.295141 C987.007034,970.295141 1012.0398,970.295141 971.823614,970.295141 C931.607431,970.295141 926.816748,998.387328 882.424146,998.387328 C838.031545,998.387328 742.458935,960.541074 742.458935,874.420588 C742.458935,788.300103 726.306423,758.05011 693.653212,756.04903 C661,754.047951 633.750064,750.282494 633.750064,708.155265 C633.750064,680.070446 633.750064,641.535383 633.750064,592.550076 C635.350347,548.542782 626.705625,526.539134 607.815898,526.539134 C588.926171,526.539134 807.816809,523.529297 1264.48781,517.509621 Z" id="Path-6" stroke="#000000"></path>
            <path d="M907.853783,0 C1011.44279,0 1060.11592,37.7366627 1089.60158,81.1659984 C1118.79239,124.161041 1143.30403,178.780234 1207.39325,218.586353 L1209.34751,219.788038 C1274.89628,259.691237 1326,336.043541 1326,427.706962 C1326,488.81591 1308.21596,522.7514 1272.64788,529.513431 L602.832786,529.513431 C476.559847,529.513431 462.782229,427.706962 429.277448,427.706962 C427.143841,427.706962 422.599813,429.362575 417.194597,430.763686 C393.500542,521.962438 310.613175,589.292622 212,589.292622 C94.915633,589.292622 0,494.376989 0,377.292622 C0,260.208255 94.915633,165.292622 212,165.292622 C213.8991,165.292622 215.792368,165.317593 217.679494,165.367225 L217.627181,165.292622 C251.985074,130.40541 286.098942,97.81663 319.968787,67.5262816 C370.773553,22.090759 478.500709,5.36574659 661,0 L907.853783,0 Z" id="board" stroke="#000000"></path>
            <rect id="h3" stroke="#000000" x="562.5" y="318.792622" width="142" height="142" rx="71"></rect>
            <rect id="h7" stroke="#000000" x="802.5" y="780.792622" width="142" height="142" rx="71"></rect>
            <rect id="h8" stroke="#000000" x="1063.5" y="780.792622" width="142" height="142" rx="71"></rect>
            <rect id="h4" stroke="#000000" x="751.5" y="354.792622" width="498" height="112" rx="56"></rect>
            <path d="M737.898435,156.029868 C796.819394,156.316856 853.229948,158.57056 907.130089,162.791096 C968.778645,167.618355 1029.20293,175.851839 1088.4029,187.491624 C1101.64969,190.097088 1113.04914,197.206806 1121.13681,207.040308 C1129.22444,216.87376 1134.00031,229.430969 1134,242.931502 L1134,253.287306 C1134,265.83126 1128.91556,277.187679 1120.69513,285.40811 C1112.4747,293.62854 1101.11828,298.712982 1088.57432,298.712982 C1085.72942,298.712982 1082.89081,298.445729 1080.0959,297.914767 C1022.82736,287.034765 964.407532,279.296278 904.836405,274.69938 C887.308606,273.34682 873.096562,272.140876 860.832398,271.100219 C813.159611,267.055018 794.904373,265.505927 725.806216,267.548308 C677.185666,268.985418 629.470165,272.526544 582.659708,278.171621 C569.31477,279.78097 556.580888,275.828848 546.780908,268.138154 C536.980924,260.447456 530.114844,249.018183 528.505519,235.673237 C528.272305,233.739366 528.155382,231.793239 528.155382,229.845356 L528.155382,225.719146 C528.155382,211.041861 533.775188,197.587011 543.051209,187.491633 C552.32723,177.396255 565.259467,170.660349 579.884329,169.420949 Z" id="h2" stroke="#000000"></path>
            <rect id="h5" stroke="#000000" x="696.5" y="553.792622" width="280" height="130" rx="65"></rect>
            <rect id="h6" stroke="#000000" transform="translate(1113.470998, 627.582962) rotate(-19.000000) translate(-1113.470998, -627.582962) " x="1002.971" y="562.582962" width="221" height="130" rx="65"></rect>
            <circle id="h1" stroke="#FFFFFF" cx="213.5" cy="376.792622" r="205"></circle>
        </g>
    </g>
</svg>