<?xml version="1.0" encoding="UTF-8"?>
<svg width="666px" height="324px" viewBox="0 0 666 324" version="1.1" xmlns="http://www.w3.org/2000/svg" xmlns:xlink="http://www.w3.org/1999/xlink">
    <title>BAKERATLAS</title>
    <g id="Page-1" stroke="none" stroke-width="1" fill="none" fill-rule="evenodd">
        <g id="BAKERATLAS" transform="translate(1.000000, 1.000000)" fill="#FFFFFF" stroke="#000000">
            <path d="M665,12.3069522 L478.997056,12.3069522 L155.82664,12.3502622 C149.65043,12.6020912 142.902072,11.2313547 135.581565,8.23805283 C124.600805,3.74809998 109.517259,1 102.107989,1 C102.107989,1 24.739119,1 13.0468733,2.36944529 C1.3546276,3.73889057 0,6.62848509 0,9.48937363 C0,11.3966327 0,109.816807 0,304.749897 C0,316.249966 2.42994347,322 7.28983042,322 C12.1458444,322 231.382568,322 665,322" id="board"></path>
            <path d="M665,233.927541 L557.451558,233.927541 C549.460959,233.927541 540.695704,233.927541 532.417821,233.927541 C526,233.927541 525.329847,239 525.329847,239 C525.329847,233.927541 520.29366,193.982211 487,192.932628 C487,192.932628 523.214793,192.932628 523.214793,177.454839 C523.214793,152.968873 550,154.028964 550,154.028964 L665,154.028964" id="h5"></path>
            <rect id="h3" x="84.5" y="192.5" width="441" height="84" rx="42"></rect>
            <rect id="h4" x="380.5" y="192.5" width="145" height="84" rx="42"></rect>
            <path d="M665,111 L509.992304,111 C489.330768,109.559654 479,95.0206006 479,67.3828389 C479,39.7450772 479,21.0579623 479,11.3214941 C479,4.44049802 483.695265,1 493.085795,1 C502.476326,1 559.78106,1 665,1" id="h2"></path>
            <path d="M479,11.367554 L155.774022,11.367554 C150.183531,11.3387484 143.440559,9.96592367 135.545108,7.2490798 C123.701931,3.17381401 113.858151,0 106,0 C106,0 106,11.70003 106,35.1000899 C106.121976,45.70003 110.139609,51 118.052899,51 C125.966189,51 246.281889,50.3633547 479,49.0900642 L479,11.367554 Z" id="h1"></path>
        </g>
    </g>
</svg>