<?xml version="1.0" encoding="UTF-8"?>
<svg width="583px" height="190px" viewBox="0 0 583 190" version="1.1" xmlns="http://www.w3.org/2000/svg" xmlns:xlink="http://www.w3.org/1999/xlink">
    <title>BAMHANGBOARD</title>
    <g id="Page-1" stroke="none" stroke-width="1" fill="none" fill-rule="evenodd">
        <g id="BAMHANGBOARD" transform="translate(1.000000, 1.052594)" fill="#FFFFFF" stroke="#000000">
            <path d="M582,186.698677 L0,186.698677 L0,45.8727255 C0.0849027202,36.1422445 4.70521805,31.277004 13.860946,31.277004 C23.0166739,31.277004 85.0471381,31.277004 199.952339,31.277004 C198.643982,41.007485 203.020629,45.8727255 213.08228,45.8727255 C223.143931,45.8727255 281.590803,45.8727255 388.422896,45.8727255 C400.351769,45.8727255 406.316205,41.007485 406.316205,31.277004 C406.316205,31.277004 464.87747,31.277004 582,31.277004" id="board"></path>
            <path d="M582,0 L44.9373697,0 C37.0105779,0.495242848 33.047182,3.74141492 33.047182,9.73851621 C33.047182,15.7356175 30.3586399,20.8581402 24.9815557,25.1060842 L582,25.1060842" id="top"></path>
            <path d="M582,146.947406 L455.5,146.947406 C443.073593,146.947406 433,136.873812 433,124.447406 C433,112.020999 443.073593,101.947406 455.5,101.947406 L582,101.947406" id="h7"></path>
            <circle id="h6" cx="379.5" cy="124.447406" r="22.5"></circle>
            <rect id="h5" x="165" y="101.947406" width="161" height="45" rx="22.5"></rect>
            <rect id="h4" x="38" y="101.947406" width="97" height="45" rx="22.5"></rect>
            <polyline id="h3" points="582 25.1060842 398.029362 25.1060842 406.316224 31.277004 582 31.277004"></polyline>
            <path d="M222.838928,25.1060842 L398.029362,25.1060842 L406.316224,31.277004 C405.971065,41.1170601 400.592973,46.0370882 390.181949,46.0370882 C379.770924,46.0370882 320.080091,46.0370882 211.109449,46.0370882 C203.671375,45.4790053 199.952339,40.5589772 199.952339,31.277004 C199.952339,31.277004 207.581202,29.2200307 222.838928,25.1060842 Z" id="h2"></path>
            <polygon id="h1" points="200.237722 31.277004 222.838928 25.1060842 24.9815557 25.1060842 9.83892842 31.277004"></polygon>
        </g>
    </g>
</svg>