<?xml version="1.0" encoding="UTF-8"?>
<svg width="723px" height="562px" viewBox="0 0 723 562" version="1.1" xmlns="http://www.w3.org/2000/svg" xmlns:xlink="http://www.w3.org/1999/xlink">
    <title>BATFAT</title>
    <g id="Page-1" stroke="none" stroke-width="1" fill="none" fill-rule="evenodd">
        <g id="BATFAT" transform="translate(1.435222, 0.728047)" fill="#FFFFFF" stroke="#000000">
            <path d="M720.564778,346.271953 L621.564778,346.271953 C612.728222,346.271953 605.564778,339.108509 605.564778,330.271953 L605.564778,109.271953 C605.564778,100.435397 612.728222,93.2719533 621.564778,93.2719533 L720.564778,93.2719533" id="board"></path>
            <path d="M204.312464,461.322356 L203.233168,514.271953 C202.602327,543.471158 209.705067,558.551554 224.541385,559.513143 C239.377704,560.474731 287.439913,560.474731 368.728011,559.513143 C403.238708,555.525885 420.494056,542.346801 420.494056,519.975888 C420.494056,486.41952 456.542326,461.322356 489.23391,461.322356 C511.0283,461.322356 500.785724,430.494339 458.506184,368.838304 L380.4222,358.385235 L204.312464,461.322356 Z" id="board"></path>
            <path d="M720.56478,461.322356 L619.657585,461.322356 C596.011467,459.612517 584.188407,452.66164 584.188407,440.469724 C584.188407,422.181849 584.188407,407.471686 558.60541,407.471686 C541.550078,407.471686 532.905455,418.471032 532.67154,440.469724 C532.67154,454.371479 521.06417,461.322356 497.849429,461.322356 C474.634688,461.322356 461.230313,454.371479 457.636303,440.469724 L457.636303,409.049843 C458.541317,382.375415 443.264859,369.0382 411.80693,369.0382 C364.620035,369.0382 204.312464,369.104431 204.312464,369.0382 C204.312464,368.994047 204.312464,339.905298 204.312464,281.771953 L570.316356,281.771953 C570.743852,297.546691 575.367869,305.434059 584.188407,305.434059 C593.008946,305.434059 600.134403,305.434059 605.564778,305.434059 L605.564778,330.271953 C607.94178,340.982774 613.275113,346.316107 621.564778,346.271953 C629.854443,346.2278 662.854444,346.2278 720.56478,346.271953" id="board"></path>
            <path d="M605.564778,305.434059 L586.159284,305.434059 C575.597332,306.082498 570.316356,298.19513 570.316356,281.771953 C570.316356,265.348777 570.316356,238.007251 570.316356,199.747377 C570.900823,191.469375 567.707362,187.330375 560.735971,187.330375 C553.76458,187.330375 434.956744,187.330375 204.312464,187.330375 L204.312464,93.2719533 L621.564778,93.2719533 C610.898112,95.0255763 605.564778,100.025576 605.564778,108.271953 C605.564778,116.51833 605.564778,182.239032 605.564778,305.434059 Z" id="board"></path>
            <path d="M204.312464,187.330375 L204.312464,281.771953 L570.316356,281.771953 L570.316356,199.747377 C571.393722,191.469375 568.20026,187.330375 560.735971,187.330375 C553.271682,187.330375 434.463846,187.330375 204.312464,187.330375 Z" id="board"></path>
            <path d="M204.312464,369.0382 L204.312464,461.322356 L377.830455,464.069516 C413.895899,459.704613 431.92862,442.253576 431.92862,411.716405 C431.92862,381.179235 413.895899,366.953166 377.830455,369.0382 L204.312464,369.0382 Z" id="board"></path>
            <polyline id="h10" points="720.564778 269.271953 605.564778 269.271953 605.564778 189.271953 720.564778 189.271953"></polyline>
            <path d="M720.564778,11.4079858 L471.359703,11.4079858 C461.183921,11.2409553 454.914328,15.7934405 452.550927,25.0654416 C450.187525,34.3374427 444.084955,57.0729466 434.243217,93.2719533 L720.564778,93.2719533" id="h3"></path>
            <polygon id="h2" points="449.835302 35.235597 261.515654 35.235597 204.312464 93.2719533 434.243217 93.2719533"></polygon>
            <path d="M261.515654,35.235597 L204.312464,93.2719533 L227.554653,70.0967052 C224.295045,63.2263108 217.825293,60.6813542 208.145398,62.4618354 C198.465503,64.2423167 141.924087,73.0547428 38.5211511,88.8991137 C30.5534924,90.7027546 26.569663,86.6678599 26.569663,76.7944294 C26.569663,61.9842836 36.3140323,34.2277852 43.0699825,32.328153 C47.5739492,31.0617315 106.738881,20.4051156 220.564778,0.358305288 C231.49165,-1.27624056 239.375528,2.68166551 244.216412,12.2320235 C249.057296,21.7823815 252.000989,27.6031915 253.047491,29.6944536 C254.59033,31.778534 255.86332,33.1487762 256.866459,33.8051804 C257.869598,34.4615847 259.41933,34.9383902 261.515654,35.235597 Z" id="h1"></path>
            <path d="M720.564778,430.271953 L630.564778,430.271953 C616.757659,430.271953 605.564778,419.079072 605.564778,405.271953 C605.564778,391.464835 616.757659,380.271953 630.564778,380.271953 L720.564778,380.271953" id="h15"></path>
            <rect id="h6" x="448.064778" y="116.771953" width="133" height="45" rx="21"></rect>
            <rect id="h9" x="448.064778" y="204.771953" width="109" height="45" rx="21"></rect>
            <rect id="h12" x="448.064778" y="296.771953" width="109" height="45" rx="21"></rect>
            <rect id="h13" x="221.064778" y="384.771953" width="178" height="45" rx="21"></rect>
            <rect id="h16" x="221.064778" y="479.771953" width="178" height="49" rx="21"></rect>
            <rect id="h11" x="221.064778" y="296.771953" width="178" height="45" rx="21"></rect>
            <rect id="h8" x="221.064778" y="204.771953" width="178" height="45" rx="21"></rect>
            <rect id="h5" x="221.064778" y="116.771953" width="178" height="45" rx="21"></rect>
            <circle id="h14" cx="500.564778" cy="405.271953" r="24.5"></circle>
            <path d="M59.9415412,85.7562473 C62.8593831,96.884297 62.8593831,105.698628 59.9415412,112.199241 C57.0236992,118.699853 42.0273109,142.364303 14.9523763,183.19259 C12.2290048,186.303488 11.5481619,190.854045 12.9098476,196.844263 C14.9523763,205.829589 14.9200747,214.675316 32.2364324,212.123688 C43.7806709,210.422602 101.139348,200.040475 204.312464,180.977308 L204.312464,93.2719533 L227.554653,70.0967052 C224.241369,63.3705468 216.493973,61.0137399 204.312464,63.0262848 C192.130956,65.0388296 144.007315,72.6154838 59.9415412,85.7562473 Z" id="h4"></path>
            <path d="M204.312464,180.977308 L46.7268457,209.657191 L38.9824995,250.760147 C38.3712564,253.715459 36.6163093,256.477308 33.7176584,259.045694 C30.8190075,261.614079 20.8291598,270.088238 3.74811525,284.46817 C0.71673727,286.653898 -0.475866051,290.279831 0.170305289,295.34597 C0.81647663,300.412108 2.00907995,305.389568 3.74811525,310.278349 C6.94870086,314.343989 11.2768846,315.940207 16.7326664,315.067003 C22.1884482,314.193798 84.7150474,303.095448 204.312464,281.771953 L204.312464,180.977308 Z" id="h7"></path>
        </g>
    </g>
</svg>