<?xml version="1.0" encoding="UTF-8"?>
<svg width="630px" height="364px" viewBox="0 0 630 364" version="1.1" xmlns="http://www.w3.org/2000/svg" xmlns:xlink="http://www.w3.org/1999/xlink">
    <title>BLEAUSTONELONG</title>
    <g id="Page-1" stroke="none" stroke-width="1" fill="none" fill-rule="evenodd">
        <g id="BLEAUSTONELONG" transform="translate(0.545513, 0.830992)" fill="#FFFFFF" stroke="#000000">
            <path d="M629.454487,28.2439173 C544.661604,34.3414826 483.269236,40.2730538 445.277384,46.0386307 C407.285532,51.8042076 359.843267,45.8726365 302.950589,28.2439173 C198.150458,-4.37450381 122.807247,-8.74007889 76.920954,15.1471921 C8.09151513,50.9780985 0,102.970794 0,134.694688 C0,166.418581 18.3124156,255.488915 106.824104,294.05595 C165.831896,319.767307 226.616241,325.842586 289.177139,312.28179 C318.844917,304.630695 349.543024,300.805148 381.271458,300.805148 C428.864109,300.805148 468.449594,323.667754 512.895823,343.008649 C542.526642,355.902579 581.37953,362.349543 629.454487,362.349543" id="hangboard"></path>
            <path d="M629.454487,312.169008 L590.454487,312.169008 C577.199653,312.169008 566.454487,301.423842 566.454487,288.169008 C566.454487,274.914174 577.199653,264.169008 590.454487,264.169008 L629.454487,264.169008" id="h5"></path>
            <rect id="h4" x="137.454487" y="213.169008" width="143" height="51" rx="25.5"></rect>
            <rect id="h3" transform="translate(418.454487, 208.669008) rotate(5.000000) translate(-418.454487, -208.669008) " x="371.454487" y="181.169008" width="94" height="55" rx="27.5"></rect>
            <path d="M59.0179018,124.169008 L152.077648,124.169008 L152.077648,124.169008 L257.917477,142.651512 L269.898256,145.105612 C279.50288,147.072989 286.724315,155.038706 287.743126,164.789675 C288.594736,172.940389 282.677644,180.238214 274.526931,181.089825 C274.015034,181.14331 273.500702,181.170125 272.986018,181.170213 C230.645429,181.173252 202.784141,181.174772 189.402152,181.174772 C166.832857,181.174772 159.24063,167.295838 142.69822,167.295838 C133.084213,167.295838 105.190777,167.295838 59.0179137,167.295838 C47.108762,167.29585 37.454487,157.641575 37.454487,145.732423 C37.454487,133.823278 47.1087567,124.169008 59.0179018,124.169008 Z" id="h2"></path>
            <rect id="h1" x="81.454487" y="53.1690084" width="132" height="45" rx="22.5"></rect>
        </g>
    </g>
</svg>