<?xml version="1.0" encoding="UTF-8"?>
<svg width="587px" height="452px" viewBox="0 0 587 452" version="1.1" xmlns="http://www.w3.org/2000/svg" xmlns:xlink="http://www.w3.org/1999/xlink">
    <title>BLEAUSTONECOMP</title>
    <g id="Page-1" stroke="none" stroke-width="1" fill="none" fill-rule="evenodd">
        <g id="BLEAUSTONECOMP" transform="translate(1.327975, 1.259826)" fill="#FFFFFF" stroke="#000000">
            <path d="M584.675221,392.834959 C488.934579,397.48857 426.29745,406.595323 396.763836,420.155218 C352.463414,440.49506 304.77288,449.901395 278.086162,449.901395 C251.399445,449.901395 165.542991,444.972715 95.2634984,358.913156 C48.4105034,301.540117 18.4401321,246.149123 5.35238431,192.740174 C-3.94049827,148.456525 -1.13255881,114.16717 13.7762027,89.8721071 C36.1393449,53.4295132 136.288499,30.6320537 239.864832,67.4567831 C343.441166,104.281513 526.311843,174.354354 555.532805,174.354354 C575.013446,174.354354 584.727585,175.982961 584.675221,179.240174" id="board"></path>
            <path d="M584.672025,244.740174 C518.950139,244.740174 465.672025,263.096499 465.672025,285.740174 C465.672025,308.383848 518.950139,326.740174 584.672025,326.740174" id="h5"></path>
            <ellipse id="h4" cx="264.172025" cy="321.240174" rx="111.5" ry="41.5"></ellipse>
            <ellipse id="h3" cx="190.672025" cy="144.240174" rx="114" ry="48.5"></ellipse>
            <path d="M584.672025,179.240174 C456.465504,177.352524 400.065519,144.269031 309.841892,97.365794 C219.618264,50.4625569 152.672025,48.7217129 152.672025,48.7217129 C77.7563694,48.7217129 31.4577621,62.438511 13.7762027,89.8721071 C51.3159106,32.3302489 107.127473,3.55931983 181.210888,3.55931983 C255.294304,3.55931983 338.705766,23.2798435 431.445273,62.720891 C489.68447,86.5777336 540.760054,97.5841611 584.672025,95.7401735" id="h2"></path>
            <path d="M584.672025,40.1724347 C529.505027,40.5223451 472.590013,35.3437831 413.926984,24.6367487 C325.932441,8.57619705 242.225014,-7.26627206 166.358571,3.55931983 C166.358571,3.55931983 235.776203,1.73152351 299.224114,17.4882386 C341.522721,27.9927154 385.596441,43.0702661 431.445273,62.720891 C482.206893,84.733746 533.282477,95.7401735 584.672025,95.7401735" id="h1"></path>
        </g>
    </g>
</svg>