<?xml version="1.0" encoding="UTF-8"?>
<svg width="873px" height="516px" viewBox="0 0 873 516" version="1.1" xmlns="http://www.w3.org/2000/svg" xmlns:xlink="http://www.w3.org/1999/xlink">
    <title>CANIGORED</title>
    <g id="Page-1" stroke="none" stroke-width="1" fill="none" fill-rule="evenodd">
        <g id="CANIGORED" transform="translate(1.000000, 0.572204)" fill="#FFFFFF" stroke="#000000">
            <path d="M872,514.201612 L17.8917776,514.201612 C8.48003722,514.156184 3.77416704,510.543633 3.77416704,503.363959 C3.77416704,496.184286 2.51611136,338.675336 0,30.8371082 L872,30.8371082" id="board"></path>
            <rect id="h2" x="32" y="157.427796" width="451" height="71" rx="35.5"></rect>
            <path d="M872,228.427796 L662.5,228.427796 C642.893891,228.427796 627,212.533904 627,192.927796 C627,173.321687 642.893891,157.427796 662.5,157.427796 L871.952366,157.427796" id="h4"></path>
            <path d="M872,350.427796 L813.5,350.427796 C793.893891,350.427796 778,334.533904 778,314.927796 C778,295.321687 793.893891,279.427796 813.5,279.427796 L871.952366,279.427796" id="h7"></path>
            <path d="M872,473.427796 L667.5,473.427796 C647.893891,473.427796 632,457.533904 632,437.927796 C632,418.321687 647.893891,402.427796 667.5,402.427796 L871.952366,402.427796" id="h11"></path>
            <rect id="h5" x="32" y="279.427796" width="343" height="71" rx="35.5"></rect>
            <rect id="h6" x="400" y="279.427796" width="343" height="71" rx="35.5"></rect>
            <rect id="h8" x="37" y="403.427796" width="446" height="71" rx="35.5"></rect>
            <rect id="h9" x="363" y="403.427796" width="120" height="71" rx="35.5"></rect>
            <circle id="h3" cx="555" cy="195.427796" r="48"></circle>
            <circle id="h10" cx="558" cy="438.427796" r="48"></circle>
            <path d="M872,0 L16.1464726,0 C9.28454157,0.263184417 5.48365812,1.75336781 4.74382223,4.47055018 C4.00398633,7.18773254 2.42271225,15.9765852 0,30.8371082 L872,30.8371082" id="h1"></path>
        </g>
    </g>
</svg>