<?xml version="1.0" encoding="UTF-8"?>
<svg width="683px" height="327px" viewBox="0 0 683 327" version="1.1" xmlns="http://www.w3.org/2000/svg" xmlns:xlink="http://www.w3.org/1999/xlink">
    <title>CLEVOHANGBOARD</title>
    <g id="Page-1" stroke="none" stroke-width="1" fill="none" fill-rule="evenodd">
        <g id="CLEVOHANGBOARD" transform="translate(0.928193, 0.713866)" fill="#FFFFFF" stroke="#000000">
            <path d="M682.071807,225.651738 L24.0704499,225.651738 C13.2369647,225.83855 7.82022204,221.720058 7.82022204,213.296264 C7.82022204,204.87247 5.21348136,142.325689 0,25.6559224 L682.071807,25.6559224" id="board"></path>
            <path d="M280.81255,82.6607773 C274.813802,33.6877001 275.994289,7.01394146 284.354011,2.63950144 C292.713734,-1.73493857 298.100113,5.47965532 300.513149,24.2832831 L280.81255,82.6607773 Z" id="board"></path>
            <path d="M682.071807,225.651738 L24.0704499,225.651738 L24.0704499,309.602543 C24.4177778,319.889835 29.7515635,325.033481 40.0718069,325.033481 C50.3920502,325.033481 264.39205,325.033481 682.071807,325.033481" id="board"></path>
            <path d="M682.071807,305.286134 L522.571807,305.286134 C505.174837,305.286134 491.071807,291.183104 491.071807,273.786134 C491.071807,256.389164 505.174837,242.286134 522.571807,242.286134 L682.071807,242.286134" id="h11"></path>
            <rect id="h10" x="323.571807" y="242.786134" width="125" height="62" rx="31"></rect>
            <rect id="h9" x="44.5718069" y="242.786134" width="236" height="62" rx="31"></rect>
            <path d="M682.071807,192.286134 L598.571807,192.286134 C581.174837,192.286134 567.071807,178.183104 567.071807,160.786134 C567.071807,143.389164 581.174837,129.286134 598.571807,129.286134 L682.071807,129.286134" id="h8"></path>
            <rect id="h7" x="421.571807" y="129.786134" width="125" height="62" rx="31"></rect>
            <rect id="h6" x="245.571807" y="129.786134" width="155" height="62" rx="31"></rect>
            <rect id="h5" x="24.5718069" y="129.786134" width="200" height="62" rx="31"></rect>
            <rect id="h4" x="40.5718069" y="42.7861339" width="200" height="62" rx="31"></rect>
            <polyline id="h3" points="682.071807 3.63797881e-12 498.532373 3.63797881e-12 484.915123 30.817611 682.071807 30.817611"></polyline>
            <path d="M498.532373,7.27595761e-12 L484.915123,30.817611 L484.915123,83.577054 L280.81255,83.577054 L300.513149,24.2832831 C307.370039,8.09442771 315.760998,7.27595761e-12 325.686027,7.27595761e-12 C335.611056,7.27595761e-12 393.226504,7.27595761e-12 498.532373,7.27595761e-12 Z" id="h2"></path>
            <path d="M277.053273,25.6559224 C278.414911,9.48604554 282.32489,1.4011071 288.783211,1.4011071 C288.783211,1.4011071 196.032615,1.4011071 10.5314226,1.4011071 C3.51047419,3.56061087 0,11.6455493 0,25.6559224 L277.053273,25.6559224 Z" id="h1"></path>
        </g>
    </g>
</svg>