<?xml version="1.0" encoding="UTF-8"?>
<svg width="593px" height="414px" viewBox="0 0 593 414" version="1.1" xmlns="http://www.w3.org/2000/svg" xmlns:xlink="http://www.w3.org/1999/xlink">
    <title>CLIMBRO</title>
    <g id="Page-1" stroke="none" stroke-width="1" fill="none" fill-rule="evenodd">
        <g id="CLIMBRO" transform="translate(1, 0.9295)" fill="#FFFFFF" stroke="#000000">
            <path d="M592,412.070476 L21,412.070476 C9.40202025,412.070476 0,402.668456 0,391.070476 L0,21.0704763 C0,9.47249652 9.40202025,0.0704762705 21,0.0704762705 L592,0.0704762705" id="board"></path>
            <path d="M592,397.070476 L541,397.070476 C536.581722,397.070476 533,393.488754 533,389.070476 L533,383.070476 C533,378.652198 536.581722,375.070476 541,375.070476 L592,375.070476" id="hole"></path>
            <polyline id="board" points="592 74.8195365 66.2932377 74.8195365 66.2932377 0 592 0"></polyline>
            <path d="M592,150.395337 L66.2932377,150.395337 C57.4859785,130.792698 53.0823489,115.754985 53.0823489,105.282197 C53.0823489,94.8094086 53.0823489,84.6551886 53.0823489,74.8195365 L592,74.8195365" id="h2"></path>
            <polyline id="board" points="592 225.395337 66.5785358 225.395337 66.5785358 150.395337 592 150.395337"></polyline>
            <path d="M592,271.720963 L66.5785358,271.720963 C61.9394291,271.720963 59.6198757,267.322217 59.6198757,258.524725 C59.6198757,249.727232 59.6198757,242.556129 59.6198757,237.011414 C59.6198757,229.469286 61.9394291,225.698223 66.5785358,225.698223 C71.2176426,225.698223 246.358131,225.698223 592,225.698223" id="h3"></path>
            <path d="M592,271.720963 L66.5733657,271.720963 L66.5733657,322.808864 C66.349103,352.644921 88.4608417,367.56295 132.908582,367.56295 C177.356321,367.56295 330.386794,367.56295 592,367.56295" id="board"></path>
            <path d="M232.635434,105.282197 L248.274144,74.8195365 L248.274144,63.8359438 C246.182147,55.4904311 242.281257,51.3176747 236.571474,51.3176747 C230.86169,51.3176747 174.102278,51.3176747 66.2932377,51.3176747 C57.4859785,52.3407923 53.0823489,56.5135486 53.0823489,63.8359438 C53.0823489,71.158339 53.0823489,84.9737565 53.0823489,105.282197 L232.635434,105.282197 Z" id="h1"></path>
            <path d="M592,317.987545 C583.439586,317.987545 577,325.010063 577,333.570476 C577,342.13089 583.439586,348.987545 592,348.987545" id="button"></path>
        </g>
    </g>
</svg>