<?xml version="1.0" encoding="UTF-8"?>
<svg width="582px" height="582px" viewBox="0 0 582 582" version="1.1" xmlns="http://www.w3.org/2000/svg" xmlns:xlink="http://www.w3.org/1999/xlink">
    <title>CONCEPTCRAG</title>
    <g id="Page-1" stroke="none" stroke-width="1" fill="none" fill-rule="evenodd">
        <g id="CONCEPTCRAG" transform="translate(1.000000, 1.000000)" stroke="#000000">
            <path d="M581,580 L278.5,580 C124.688697,580 0,455.311303 0,301.5 L0,278.5 C0,124.688697 124.688697,0 278.5,0 L581,0" id="board" fill="#FFFFFF"></path>
            <path d="M581.001753,512 L262.5,512 C234.60962,512 212,489.39038 212,461.5 C212,433.60962 234.60962,411 262.5,411 L581.001753,411" id="h5" fill="#FFFFFF"></path>
            <rect id="h4" fill="#FFFFFF" x="84" y="296" width="355" height="95" rx="47.5"></rect>
            <rect id="h3" fill="#FFFFFF" x="84" y="181" width="355" height="95" rx="47.5"></rect>
            <path d="M581,161 L259.5,161 C233.266474,161 212,139.733526 212,113.5 C212,87.2664744 233.266474,66 259.5,66 L580.941609,66" id="h2" fill="#FFFFFF"></path>
            <polyline id="h1" fill="#FFFFFF" points="581 0 291 0 291 26.8500945 581.001753 26.8500945"></polyline>
            <path d="M291,26.8500945 C184.346069,26.8500945 98.8084904,65.8332287 34.3872655,143.799497 C34.3872655,143.799497 100.071009,-9.09494702e-13 291,-9.09494702e-13 C291,-9.09494702e-13 291,8.95003149 291,26.8500945 Z" id="line"></path>
        </g>
    </g>
</svg>