<?xml version="1.0" encoding="UTF-8"?>
<svg width="587px" height="363px" viewBox="0 0 587 363" version="1.1" xmlns="http://www.w3.org/2000/svg" xmlns:xlink="http://www.w3.org/1999/xlink">
    <title>CONCEPTSOL</title>
    <g id="Page-1" stroke="none" stroke-width="1" fill="none" fill-rule="evenodd">
        <g id="CONCEPTSOL" transform="translate(1.000000, 1.105898)" fill="#FFFFFF" stroke="#000000">
            <path d="M585,266.829537 L548.861818,266.829537 C541.610919,257.117513 532.762146,252.25781 522.315497,252.250429 C410.245387,252.171245 242.140221,252.052469 18,251.894102 C10.8202983,251.894102 5,246.073803 5,238.894102 L5,163.894102 C5,156.7144 10.8202983,150.894102 18,150.894102 L585,150.894102" id="board"></path>
            <path d="M585,360.315476 L156.531886,360.315476 C81.9597307,359.161769 35.3422171,323.151159 16.6793457,252.283644 C57.507291,252.283644 230.102492,252.283644 534.464949,252.283644 C541.739357,252.952277 545.945706,254.546231 547.083996,257.065504 C548.79143,260.844415 557.243423,261.013302 566.95139,261.013302 C573.423368,261.013302 579.439571,261.013302 585,261.013302" id="board"></path>
            <path d="M585,154.915672 L552.685762,154.915672 C546.540476,154.915672 542.951185,155.739233 541.917887,157.386355 C540.367942,159.857038 538.950864,163.766683 530.952459,163.766683 C525.620188,163.766683 348.636035,165.251832 0,168.22213 C9.3146552,113.511125 48.8933825,77.591706 118.736182,60.4638725 C188.578981,43.336039 344.000254,34.9854339 585,35.412057" id="board"></path>
            <path d="M585.223467,334.894102 L585.223467,334.894102 L532,334.894102 C514.879173,334.894102 501,321.014929 501,303.894102 C501,286.773274 514.879173,272.894102 532,272.894102 L585.130694,272.894102 L585.130694,272.894102" id="h15"></path>
            <rect id="h14" x="304" y="272.894102" width="181" height="62" rx="31"></rect>
            <circle id="h13" cx="257" cy="303.894102" r="31"></circle>
            <rect id="h12" x="60" y="272.894102" width="150" height="62" rx="31"></rect>
            <rect id="h11" x="321" y="180.894102" width="184" height="49" rx="24.5"></rect>
            <rect id="h10" x="193" y="180.894102" width="102" height="49" rx="24.5"></rect>
            <rect id="h9" x="17" y="180.894102" width="150" height="49" rx="24.5"></rect>
            <path d="M585,140.894102 L561,140.894102 C544.983742,140.894102 532,127.910359 532,111.894102 C532,95.8778439 544.983742,82.8941016 561,82.8941016 L585,82.8941016" id="h8"></path>
            <rect id="h7" x="407" y="97.8941016" width="99" height="49" rx="24.5"></rect>
            <rect id="h6" x="202" y="79.8941016" width="184" height="70" rx="31.5"></rect>
            <circle id="h5" cx="156" cy="134.894102" r="24"></circle>
            <rect id="h4" x="30" y="108.894102" width="88" height="50" rx="25"></rect>
            <path d="M585,-8.52651283e-14 C480.171561,4.59269457 421.090934,8.04610838 407.758119,10.3602414 C407.758119,10.3602414 399.254497,26.6418408 382.247253,59.2050396 C379.573293,72.2215139 386.890433,78.729751 404.198672,78.729751 C421.506911,78.729751 481.77402,77.9278182 585,76.3239526" id="h3"></path>
            <path d="M407.758119,10.3602414 C305.239916,26.0613962 247.02648,35.7296076 233.117811,39.3648755 C233.117811,39.3648755 226.937534,46.3978745 214.576979,60.4638725 L381.710521,60.4638725 L407.758119,10.3602414 Z" id="h2"></path>
            <path d="M214.576979,60.4638725 C146.052213,80.555268 101.715479,93.1774851 81.5667769,98.3305237 C81.5667769,98.3305237 74.4684125,78.6976892 73.7763666,76.1193362 C90.4272631,67.2525672 194.124558,35.412057 209.342278,34.8313384 C219.487426,34.4441927 227.412603,35.9553717 233.117811,39.3648755" id="h1"></path>
            <path d="M214.576979,60.4638725 C209.353793,44.9279694 208.563353,36.3640526 212.205657,34.7721223" id="line"></path>
        </g>
    </g>
</svg>