<?xml version="1.0" encoding="UTF-8"?>
<svg width="585px" height="414px" viewBox="0 0 585 414" version="1.1" xmlns="http://www.w3.org/2000/svg" xmlns:xlink="http://www.w3.org/1999/xlink">
    <title>COREFINGER</title>
    <g id="Page-1" stroke="none" stroke-width="1" fill="none" fill-rule="evenodd">
        <g id="COREFINGER" transform="translate(1.000000, 1.000000)">
            <g id="hangboard">
                <path d="M584,0 C522.692073,2.79727006 479.792038,18.1362556 455.299897,46.0169567 C455.299897,46.0169567 419.100107,46.0169567 346.70052,46.0169567 C330.991662,46.0169567 314.452851,38.3474638 297.084087,23.0084783 C279.715324,7.66949276 250.84324,1.14325069 210.467836,3.42975207 C93.9532164,4.82532175 29.9844054,16.4174818 18.5614035,38.2062321 C7.13840157,59.9949826 2.42362442,68.2400085 4.41707213,62.9413094 C-1.96486088,82.9861558 -1.20295558,96.4662427 6.70278805,103.38157 C14.6085317,110.296897 20.8460039,115.030111 25.4152047,117.581212 C34.3949223,127.011635 33.7313229,131.726846 23.4244063,131.726846 C7.96403136,131.726846 4.87220736,158.185591 18.5614035,170.559829 C32.2505997,182.934066 44.0878805,189.466588 58.0711578,194.766124 C72.0544348,200.065661 84.2610947,192.667746 64.2133918,204.419419 C44.1656886,216.171093 32.2957785,238.086422 32.2957785,260.202294 C32.2957785,282.318166 58.8860504,326.949322 95.2675866,326.949322 C95.2675866,326.949322 115.495042,323.812624 114.312988,338.728209 C113.130934,353.643793 95.2675866,346.131148 95.2675866,359.289138 C95.2675866,372.447128 115.260908,401.280992 160.072486,401.280992 C189.946871,401.280992 211.720295,392.923482 225.392758,376.208465 C255.645307,400.215056 282.888163,412.218351 307.121325,412.218351 C331.354487,412.218351 353.236397,404.110091 372.767054,387.893572 C414.572562,386.574479 443.507672,375.771374 459.572386,355.484257 C459.572386,355.484257 520.66425,401.003984 584,399.763728" id="Path-11" stroke="#000000" stroke-width="0.5" fill="#FFFFFF" fill-rule="nonzero"></path>
                <path d="M113.867474,337.985068 C113.867474,335.979216 118.242295,326.048342 90.0034122,326.048342 C61.7645301,326.048342 36.29118,290.989677 32.3848814,258.796397 C29.7806822,237.33421 41.9303111,218.276589 68.8337674,201.623535 C98.5090309,192.857125 124.086962,193.817835 145.56756,204.505666 C167.048158,215.193497 267.427788,230.424186 446.706447,250.197734 C346.213037,273.757183 272.452124,315.597199 225.423714,375.717784 C174.431835,428.719008 106.075375,385.451883 99.7059917,373.059222 C93.3366087,360.666564 95.0559152,352.994003 104.404594,349.959475 C113.753272,346.924947 113.867474,339.99092 113.867474,337.985068 Z" id="Path-14" stroke="#292929" stroke-width="0.5" fill="#FFFFFF" fill-rule="nonzero"></path>
                <g id="Oval" transform="translate(467.485380, 243.512397)">
                    <g id="path-1-link" fill="#000000" fill-rule="nonzero">
                        <ellipse id="path-1" cx="6.85380117" cy="6.85950413" rx="6.85380117" ry="6.85950413"></ellipse>
                    </g>
                    <g id="path-1-link" fill="#000000" fill-rule="nonzero">
                        <ellipse id="path-1" cx="6.85380117" cy="6.85950413" rx="6.85380117" ry="6.85950413"></ellipse>
                    </g>
                    <g id="path-1-link" stroke="#FFFFFF">
                        <ellipse id="path-1" cx="6.85380117" cy="6.85950413" rx="6.85380117" ry="6.85950413"></ellipse>
                    </g>
                </g>
                <g id="Oval" transform="translate(213.894737, 109.752066)">
                    <g id="path-3-link" fill="#292929" fill-rule="nonzero">
                        <ellipse id="path-3" cx="6.85380117" cy="6.85950413" rx="6.85380117" ry="6.85950413"></ellipse>
                    </g>
                    <g id="path-3-link" fill="#292929" fill-rule="nonzero">
                        <ellipse id="path-3" cx="6.85380117" cy="6.85950413" rx="6.85380117" ry="6.85950413"></ellipse>
                    </g>
                    <g id="path-3-link" stroke="#FFFFFF">
                        <ellipse id="path-3" cx="6.85380117" cy="6.85950413" rx="6.85380117" ry="6.85950413"></ellipse>
                    </g>
                </g>
                <g id="Oval" transform="translate(145.356725, 284.669421)">
                    <g id="path-5-link" fill="#292929" fill-rule="nonzero">
                        <ellipse id="path-5" cx="6.85380117" cy="6.85950413" rx="6.85380117" ry="6.85950413"></ellipse>
                    </g>
                    <g id="path-5-link" fill="#292929" fill-rule="nonzero">
                        <ellipse id="path-5" cx="6.85380117" cy="6.85950413" rx="6.85380117" ry="6.85950413"></ellipse>
                    </g>
                    <g id="path-5-link" stroke="#FFFFFF">
                        <ellipse id="path-5" cx="6.85380117" cy="6.85950413" rx="6.85380117" ry="6.85950413"></ellipse>
                    </g>
                </g>
                <path d="M148.80149,186.484809 L416.956029,186.508004 C418.612681,186.508666 419.955626,187.851612 419.956288,189.508263 L419.960216,234.954077 C419.960878,236.610931 418.617848,237.954193 416.960994,237.954336 C416.960821,237.954336 416.960648,237.954336 416.960475,237.953817 L148.805936,237.930622 C147.149284,237.92996 145.806339,236.587014 145.805677,234.930363 L145.801749,189.484549 C145.801087,187.827695 147.144117,186.484433 148.800971,186.48429 C148.801144,186.48429 148.801317,186.48429 148.80149,186.484809 Z" id="Rectangle" stroke="#000000" stroke-width="0.5" fill="#FFFFFF" fill-rule="nonzero" transform="translate(282.880983, 212.219313) rotate(6.000000) translate(-282.880983, -212.219313) "></path>
            </g>
            <ellipse id="h16" stroke="#292929" stroke-width="0.5" fill="#FFFFFF" fill-rule="nonzero" cx="296.5" cy="364" rx="37.5" ry="24"></ellipse>
            <path d="M512,364 C551.764503,364 584,358.627418 584,352 C584,345.372582 551.764503,340 512,340" id="h15" stroke="#292929" stroke-width="0.5" fill="#FFFFFF" fill-rule="nonzero" transform="translate(548.000000, 352.000000) scale(-1, 1) translate(-548.000000, -352.000000) "></path>
            <ellipse id="h14" stroke="#292929" stroke-width="0.5" fill="#FFFFFF" fill-rule="nonzero" cx="387" cy="317.5" rx="43" ry="25.5"></ellipse>
            <path d="M98,325.548985 C120.450446,321.849662 137.417241,320 148.900386,320 C166.125104,320 189,331.03339 189,339.05963 C189,347.085869 158.720015,353 148.215532,353 C137.711048,353 100.748553,350.301664 100.748553,350.301664 C100.748553,350.301664 114.392918,348.219348 114.392918,337.653754 C114.392918,330.610026 108.928612,326.575103 98,325.548985 Z" id="h13" stroke="#292929" stroke-width="0.5" fill="#FFFFFF" fill-rule="nonzero" stroke-linejoin="round"></path>
            <path d="M491,302 C542.362481,302 584,295.060414 584,286.5 C584,277.939586 542.362481,271 491,271" id="h12" stroke="#292929" stroke-width="0.5" fill="#FFFFFF" fill-rule="nonzero" transform="translate(537.500000, 286.500000) scale(-1, 1) translate(-537.500000, -286.500000) "></path>
            <ellipse id="h11" stroke="#292929" stroke-width="0.5" fill="#FFFFFF" fill-rule="nonzero" cx="234.5" cy="276" rx="58.5" ry="36"></ellipse>
            <ellipse id="h10" stroke="#292929" stroke-width="0.5" fill="#FFFFFF" fill-rule="nonzero" cx="92.5" cy="249" rx="46.5" ry="29"></ellipse>
            <path d="M488,237 C541.019336,237 584,229.388841 584,220 C584,210.611159 541.019336,203 488,203" id="h9" stroke="#292929" stroke-width="0.5" fill="#FFFFFF" fill-rule="nonzero" transform="translate(536.000000, 220.000000) scale(-1, 1) translate(-536.000000, -220.000000) "></path>
            <path d="M292.043155,203.206925 L399.131902,203.216188 C400.788554,203.21685 402.131499,204.559796 402.132161,206.216447 L402.134311,231.083935 C402.134973,232.74079 400.791943,234.084051 399.135089,234.084195 C399.134916,234.084195 399.134743,234.084195 399.13457,234.083676 L292.045823,234.074413 C290.389171,234.073751 289.046225,232.730805 289.045563,231.074153 L289.043414,206.206665 C289.042752,204.549811 290.385782,203.206549 292.042636,203.206406 C292.042809,203.206406 292.042982,203.206406 292.043155,203.206925 Z" id="h8" stroke="#292929" stroke-width="0.5" fill="#FFFFFF" fill-rule="nonzero" opacity="0.900000036" transform="translate(345.588862, 218.645300) rotate(6.000000) translate(-345.588862, -218.645300) "></path>
            <path d="M158.394032,189.487916 L265.482779,189.497179 C267.139431,189.497842 268.482377,190.840787 268.483039,192.497439 L268.485188,217.364927 C268.48585,219.021781 267.14282,220.365043 265.485966,220.365186 C265.485793,220.365186 265.48562,220.365186 265.485447,220.364668 L158.3967,220.355404 C156.740048,220.354742 155.397102,219.011797 155.39644,217.355145 L155.394291,192.487657 C155.393629,190.830803 156.736659,189.487541 158.393513,189.487398 C158.393686,189.487398 158.393859,189.487398 158.394032,189.487916 Z" id="h7" stroke="#292929" stroke-width="0.5" fill="#FFFFFF" fill-rule="nonzero" transform="translate(211.939740, 204.926292) rotate(6.000000) translate(-211.939740, -204.926292) "></path>
            <path d="M467,164 C531.617314,164 584,156.388841 584,147 C584,137.611159 531.617314,130 467,130" id="h6" stroke="#292929" stroke-width="0.5" fill="#FFFFFF" fill-rule="nonzero" transform="translate(525.500000, 147.000000) scale(-1, 1) translate(-525.500000, -147.000000) "></path>
            <ellipse id="h5" stroke="#292929" stroke-width="0.5" fill="#FFFFFF" fill-rule="nonzero" transform="translate(305.177943, 142.789875) rotate(2.000000) translate(-305.177943, -142.789875) " cx="305.177943" cy="142.789875" rx="111.374382" ry="12.0041205"></ellipse>
            <path d="M338,46.1460496 C268.936787,23.4941643 217.264086,44.57266 182.981896,109.381537 C148.699705,174.190414 108.046519,203.046333 61.0223347,195.949295 C27.1240337,181.817884 10.1748832,167.097852 10.1748832,151.789197 C10.1748832,136.480542 15.2111958,129.883161 25.2838211,131.997053 C29.7021377,131.186089 31.911296,128.512669 31.911296,123.976795 C31.911296,117.172984 0,111.452935 0,84.6031847 C0,57.7534344 17.8832279,22.7953153 65.4582626,15.1628094 C113.033297,7.53030351 231.897096,-0.699777059 262.291,7.23151618 C292.684904,15.1628094 288.674993,16.0457428 302.969561,28.565436 C312.499273,36.9118982 324.176086,42.7721027 338,46.1460496 Z" id="h4" stroke="#292929" stroke-width="0.5" fill="#FFFFFF" fill-rule="nonzero"></path>
            <path d="M4,98.8847797 C15.9256227,103.142198 30.9945411,98.3631674 49.2067554,84.5476878 C76.5250767,63.8244685 108.096158,53.7511391 125.27496,64.1223088 C142.453762,74.4934785 146.741752,96.3955656 142.453762,105.853247 C138.165772,115.310929 126.216942,134 80.6100749,134 C50.2054969,134 24.6688052,122.294927 4,98.8847797 Z" id="h3" stroke="#292929" stroke-width="0.5" fill="#FFFFFF" fill-rule="nonzero" stroke-linejoin="round"></path>
            <path d="M456,93.7765043 L456,45.6758899 L344.485715,45.6758899 C301.910635,37.108295 280.576758,34.7227324 262.675223,39.250194 C237.098875,45.7186856 207.004965,67.7572077 197.336271,86.3811762 C190.890474,98.7971552 277.111717,101.262265 456,93.7765043 Z" id="h2" stroke="#292929" stroke-width="0.5" fill="#FFFFFF" fill-rule="nonzero"></path>
            <path d="M584,67.8958556 C544.987186,63.3730878 502.320522,72.0744693 456,94 C456,92.7958792 456,76.6989507 456,45.709214 C484.680934,16.1314835 527.347602,0.89507885 584,0" id="h1" stroke="#292929" stroke-width="0.5" fill="#FFFFFF" fill-rule="nonzero"></path>
        </g>
    </g>
</svg>