<?xml version="1.0" encoding="UTF-8"?>
<svg width="668px" height="546px" viewBox="0 0 668 546" version="1.1" xmlns="http://www.w3.org/2000/svg" xmlns:xlink="http://www.w3.org/1999/xlink">
    <title>CRAFTYRUBY</title>
    <g id="Page-1" stroke="none" stroke-width="1" fill="none" fill-rule="evenodd">
        <g id="CRAFTYRUBY" transform="translate(2.000000, 3.000000)" fill="#FFFFFF" fill-rule="nonzero" stroke="#000000">
            <polyline id="board" points="665 0 162 0 162 55 665 55"></polyline>
            <polyline id="h1" points="665 55 161.728423 55 135 149 665 149"></polyline>
            <polyline id="board" points="665 149 135 149 135 352 665 352"></polyline>
            <polyline id="board" points="665 541 85.4109283 541 0 207.607031 0 67 135.443663 67 135.443663 515.688138 665 515.688138"></polyline>
            <polygon id="board" points="162 0 162 54.5673789 135 145 135 67.0542877"></polygon>
            <polygon id="board" points="162 0 93.9152582 0 0 67 135.318609 67"></polygon>
            <polygon id="board" points="85 541 44.3559995 507.020965 14.0221336 358.510373 0 208"></polygon>
            <polyline id="h2" points="665 516 135 516 157.759313 440 665 440"></polyline>
            <polygon id="board" points="135 516 158 440.017243 158 352 135 352"></polygon>
            <polyline id="board" points="665 439 158 439 158 351 665 351"></polyline>
        </g>
    </g>
</svg>