<?xml version="1.0" encoding="UTF-8"?>
<svg width="1289px" height="841px" viewBox="0 0 1289 841" version="1.1" xmlns="http://www.w3.org/2000/svg" xmlns:xlink="http://www.w3.org/1999/xlink">
    <title>CRIMPFACTORYCATALYST</title>
    <g id="Page-1" stroke="none" stroke-width="1" fill="none" fill-rule="evenodd">
        <g id="CRIMPFACTORYCATALYST" transform="translate(1.000000, 0.989852)" fill="#FFFFFF" stroke="#000000">
            <path d="M1288,720.181622 L1126.91836,720.181622 C1073.54423,714.87316 1027.88729,733.673237 989.947533,776.581852 C952.007775,819.490466 899.517965,840.279914 832.478102,838.950195 C460.309151,838.950195 260.732299,838.950195 233.747546,838.950195 C206.762793,838.950195 186.918378,823.653216 174.214302,793.059259 L65,340.010148 C77.4935498,373.914277 97.1750009,390.866342 124.044353,390.866342 C150.913705,390.866342 277.193338,390.866342 502.88325,390.866342 C543.495613,391.705229 575.876983,413.014404 600.027359,454.793868 C624.177735,496.573333 654.375356,517.841658 690.620221,518.598844 L1288,518.598844" id="board"></path>
            <path d="M1288,161.525452 L599.971458,161.525452 C561.86123,155.606286 524.325585,132.833851 487.364524,93.2081479 C431.922931,33.7695926 376.00063,0.01014776 346.211335,0.01014776 C326.351805,0.01014776 227.780473,0.01014776 50.4973383,0.01014776 C16.8324461,10.5498538 0,28.7177804 0,54.5139274 C0,80.3100744 21.636691,175.605114 64.9100731,340.399045 C77.4044175,374.307429 97.0871202,391.26162 123.958181,391.26162 C150.829242,391.26162 277.116906,391.26162 502.821171,391.26162 C543.436117,392.100612 575.819546,413.412461 599.971458,455.197167 C624.123371,496.981873 654.322912,518.252867 690.570082,519.010148 L1288,519.010148" id="board"></path>
            <path d="M855.521788,691.510148 C878.368459,691.509744 900.519321,699.371725 918.254264,713.774529 C923.227199,717.813623 929.477673,721.975523 937.006866,726.258552 C938.699175,727.221233 940.93094,728.228714 943.703263,729.278739 C951.005699,732.044571 956.495745,737.508457 959.468727,744.106494 C962.441708,750.704528 962.897627,758.436713 960.131808,765.739151 C958.038359,771.266369 954.336352,775.850904 949.680141,779.044016 C945.02393,782.237127 939.413517,784.038816 933.503255,784.00034 L624.593481,781.989335 C612.117588,781.908117 600.844218,776.799197 592.689821,768.591542 C584.535424,760.383887 579.5,749.077497 579.5,736.60134 C579.5,724.149751 584.547004,712.876953 592.706904,704.717052 C600.866805,696.557151 612.139603,691.510148 624.591192,691.510148 Z" id="h18" transform="translate(933.500000, 738.909137) scale(1, -1) translate(-933.500000, -738.909137) "></path>
            <rect id="h17" x="342.5" y="691.510148" width="188" height="90" rx="45"></rect>
            <rect id="h16" x="208.5" y="691.510148" width="85" height="90" rx="42.5"></rect>
            <path d="M1288,649.010148 L1119.5,649.010148 C1094.37104,649.010148 1074,628.639104 1074,603.510148 C1074,578.381192 1094.37104,558.010148 1119.5,558.010148 L1288,558.010148" id="h15"></path>
            <rect id="h14" x="845.5" y="558.510148" width="181" height="90" rx="45"></rect>
            <rect id="h13" x="550.5" y="558.510148" width="242" height="90" rx="45"></rect>
            <rect id="h12" x="174.5" y="558.510148" width="324" height="90" rx="45"></rect>
            <path d="M421.401606,418.510148 C444.087432,418.510322 466.092078,426.262722 483.768331,440.482298 C488.876105,444.591394 495.337571,448.828204 503.153985,453.190912 C504.768764,454.092196 506.862334,455.041754 509.435543,456.037842 C517.094318,459.00255 522.826353,464.790922 525.902517,471.75281 C528.978681,478.714698 529.398975,486.850102 526.434268,494.508878 C524.190031,500.306451 520.260942,505.100035 515.338865,508.422599 C510.416789,511.745163 504.501725,513.596705 498.285539,513.510196 L184.502552,509.143348 C172.02511,508.969702 160.774472,503.800727 152.643195,495.555501 C144.511917,487.310275 139.5,475.988798 139.5,463.510148 C139.5,451.083741 144.536797,439.833741 152.680195,431.690343 C160.823593,423.546944 172.073593,418.510148 184.5,418.510148 Z" id="h11"></path>
            <path d="M1288,454.010148 L1185.5,454.010148 C1160.37104,454.010148 1140,433.639104 1140,408.510148 C1140,383.381192 1160.37104,363.010148 1185.5,363.010148 L1288,363.010148" id="h10"></path>
            <rect id="h9" x="834.5" y="363.510148" width="218" height="90" rx="45"></rect>
            <rect id="h8" x="671.5" y="363.510148" width="91" height="90" rx="41"></rect>
            <polyline id="h7" points="1288 236.010148 1059 236.010148 1059 161.010148 1288 161.010148"></polyline>
            <path d="M599.546325,161.010148 L599.546325,299.012744 C603.383401,316.81009 618.201293,325.708763 644,325.708763 C669.798707,325.708763 791.312808,325.708763 1008.5423,325.708763 C1042.18077,328.1502 1059,319.251527 1059,299.012744 C1059,278.77396 1059,232.773095 1059,161.010148 L599.546325,161.010148 Z" id="h6"></path>
            <rect id="h4" x="388.5" y="243.510148" width="181" height="90" rx="45"></rect>
            <rect id="h5" x="479.5" y="243.510148" width="91" height="90" rx="45"></rect>
            <rect id="h3" x="96.5" y="243.510148" width="245" height="90" rx="45"></rect>
            <path d="M347.401606,95.5101478 C370.087432,95.510322 392.092078,103.262722 409.768331,117.482298 C414.876105,121.591394 421.337571,125.828204 429.153985,130.190912 C432.893791,132.278274 439.525251,134.624845 449.053383,137.21984 C456.267913,139.18473 462.003017,143.887869 465.443268,149.903417 C468.883518,155.918965 470.028916,163.246922 468.064032,170.461452 C466.441949,176.417309 462.908274,181.44755 458.237053,184.968703 C453.565832,188.489856 447.757064,190.50192 441.584796,190.421423 L110.502651,186.103539 C98.0283275,185.940852 86.7776647,180.780196 78.6455828,172.541367 C70.5135009,164.302537 65.5,152.985532 65.5,140.510148 C65.5,128.083741 70.5367966,116.833741 78.6801948,108.690343 C86.8235931,100.546944 98.0735931,95.5101478 110.5,95.5101478 Z" id="h2"></path>
            <path d="M447.274487,54.5139274 L0,54.5139274 C1.61022817,18.1780743 18.4426743,0.01014776 50.4973383,0.01014776 C98.5793343,0.0101477599 312.415722,0.764065813 346.211335,0.01014776 C368.741743,-0.492464276 402.429461,17.6754623 447.274487,54.5139274 Z" id="h1"></path>
        </g>
    </g>
</svg>