<?xml version="1.0" encoding="UTF-8"?>
<svg width="637px" height="224px" viewBox="0 0 637 224" version="1.1" xmlns="http://www.w3.org/2000/svg" xmlns:xlink="http://www.w3.org/1999/xlink">
    <title>CRIMPTONITEFIXED2</title>
    <g id="Page-1" stroke="none" stroke-width="1" fill="none" fill-rule="evenodd">
        <g id="CRIMPTONITEFIXED2" transform="translate(1.000000, 1.301869)" fill="#FFFFFF" stroke="#000000">
            <path d="M3.46992156,92.8959838 L3.46992156,190.313698 C3.03486305,210.939704 14.1947089,221.252708 36.9494592,221.252708 C59.7042094,221.252708 255.149054,220.436565 623.283994,218.804279 L623.283994,92.8959838 L3.46992156,92.8959838 Z" id="board"></path>
            <path d="M635,37.5793625 L0,39.3320054 C0,32.9094226 0,29.6981313 0,29.6981313 C4.44140525,9.89937709 16.0711714,-5.68434189e-14 34.8892983,-5.68434189e-14 C53.7074253,-5.68434189e-14 185.422864,-5.68434189e-14 430.035615,-5.68434189e-14 C436.941758,2.04023384 440.631454,6.99332602 445.885612,14.8490656 C453.272209,25.8931174 464.385654,27.2408 476.599109,27.2408 C484.741412,27.2408 533.532197,27.2408 635,27.2408" id="h1"></path>
            <path d="M635,37.5793625 L451.643471,37.5793625 C444.381476,38.0909113 438.283578,34.2865832 433.349777,26.1663783 C425.949074,13.9860709 421.964453,11.7221856 408.709495,11.7221856 C399.872855,11.7221856 271.823593,11.7221856 24.5617071,11.7221856 C8.18723571,11.8440708 0,18.9538664 0,33.0515723 C0,47.1492783 0,63.1983512 0,81.1987911 C0.251422418,102.662296 9.47096075,113.394049 27.658615,113.394049 C45.8462692,113.394049 100.758984,113.394049 192.396758,113.394049 C198.239378,113.193917 203.283807,115.38385 207.530045,119.963848 C213.899401,126.833846 216.14394,125.94983 219.124385,125.94983 C222.104831,125.94983 228.265943,126.533648 232,119.963848 C234.489372,115.583982 241.8966,113.877033 254.221687,114.843001 L404.947988,114.843001 C412.534524,114.881794 418.734019,121.732849 423.546472,135.396166 C428.358924,149.059483 432.839336,166.493471 436.987706,187.698131 C442.304413,208.435563 456.797,218.804279 480.465465,218.804279 C504.133931,218.804279 555.645443,218.804279 635,218.804279" id="board"></path>
            <rect id="h4" x="22" y="138.698131" width="183" height="49" rx="24.5"></rect>
            <rect id="h5" x="232" y="138.698131" width="183" height="49" rx="24.5"></rect>
            <rect id="h3" x="232" y="29.6981313" width="183" height="49" rx="24.5"></rect>
            <rect id="h2" x="22" y="29.6981313" width="183" height="49" rx="24.5"></rect>
            <path d="M635.323977,172.698131 C602.251982,172.698131 552.64399,172.698131 486.5,172.698131 C472.969024,172.698131 462,161.729108 462,148.198131 C462,134.667155 472.969024,123.698131 486.5,123.698131 C552.633546,123.698131 602.233705,123.698131 635.300478,123.698131" id="h6"></path>
        </g>
    </g>
</svg>