<?xml version="1.0" encoding="UTF-8"?>
<svg width="631px" height="272px" viewBox="0 0 631 272" version="1.1" xmlns="http://www.w3.org/2000/svg" xmlns:xlink="http://www.w3.org/1999/xlink">
    <title>CRUSHERMATRIX</title>
    <g id="Page-1" stroke="none" stroke-width="1" fill="none" fill-rule="evenodd">
        <g id="CRUSHERMATRIX" transform="translate(1.000000, 1.000000)" fill="#FFFFFF" stroke="#292929">
            <g transform="translate(314.500000, 135.000000) scale(-1, 1) translate(-314.500000, -135.000000) ">
                <path d="M0,1 L265.1,1 L437,8.88 C437.704031,8.90770121 438.405514,8.98118983 439.1,9.1 L598.53,36.16 C602.27788,36.7936287 605.712028,38.6460297 608.3,41.43 L624.21,58.53 C627.186573,61.7344583 628.84,65.9463816 628.84,70.32 L628.84,178.81 L619.72,253.87 C618.630165,262.835789 611.031749,269.585172 602,269.61 L0,269.61" id="Shape" fill-rule="nonzero"></path>
                <path d="M99.6,269.61 L100,105.09 C99.9973459,98.5462959 102.595647,92.2698427 107.222745,87.6427447 C111.849843,83.0156468 118.126296,80.4173459 124.67,80.419998 L124.67,80.419998 C138.294865,80.419998 149.34,91.4651352 149.34,105.09 L148.9,269.61" id="h14"></path>
                <path d="M0,204.999998 L56.55,204.999998 C68.1599989,204.994452 77.5824241,214.390033 77.610038,225.999998 L77.610038,225.999998 C77.6206218,231.592387 75.4064968,236.959362 71.4558288,240.917533 C67.5051608,244.875705 62.1423966,247.1 56.55,247.1 L0,247.1" id="h13"></path>
                <rect id="h12" x="170.65" y="204.99" width="75.84" height="42.11" rx="21.05"></rect>
                <circle id="h11" cx="289.68" cy="226.04" r="21.06"></circle>
                <rect id="h10" x="331.31" y="204.99" width="75.84" height="42.11" rx="21.05"></rect>
                <rect id="h9" x="431.55" y="204.99" width="158.43" height="42.11" rx="21.05"></rect>
                <path d="M0,130.67 L56.55,130.67 C68.1811168,130.67 77.61,140.098883 77.61,151.73 L77.61,151.73 C77.61,157.31454 75.3908665,162.670206 71.4410626,166.618134 C67.4912588,170.566063 62.1345395,172.782653 56.55,172.780002 L0,172.780002" id="h8"></path>
                <rect id="h7" x="170.65" y="130.67" width="130.57" height="42.11" rx="21.05"></rect>
                <rect id="h6" transform="translate(365.750864, 147.958364) rotate(7.730000) translate(-365.750864, -147.958364) " x="324.455864" y="127.988364" width="82.59" height="39.94" rx="19.97"></rect>
                <rect id="h5" transform="translate(504.705107, 149.391145) rotate(7.730000) translate(-504.705107, -149.391145) " x="426.800107" y="129.706145" width="155.81" height="39.37" rx="19.685"></rect>
                <path d="M0,56.36 L56.55,56.36 C68.1811168,56.36 77.61,65.7888832 77.61,77.42 L77.61,77.42 C77.5769296,89.0276785 68.1577256,98.42 56.55,98.42 L0,98.42" id="h4"></path>
                <rect id="h3" x="170.65" y="56.36" width="158.54" height="42.11" rx="21.05"></rect>
                <rect id="h2" transform="translate(519.935615, 80.668494) rotate(7.730000) translate(-519.935615, -80.668494) " x="440.665615" y="62.2384944" width="158.54" height="36.86" rx="18.43"></rect>
                <polygon id="h1" points="265.1 0.95 627.77 64.51 604.292969 38.3632812 437 8.88"></polygon>
            </g>
        </g>
    </g>
</svg>