<?xml version="1.0" encoding="UTF-8"?>
<svg width="597px" height="136px" viewBox="0 0 597 136" version="1.1" xmlns="http://www.w3.org/2000/svg" xmlns:xlink="http://www.w3.org/1999/xlink">
    <title>CRUSHERMEGA</title>
    <g id="Page-1" stroke="none" stroke-width="1" fill="none" fill-rule="evenodd">
        <g id="CRUSHERMEGA" transform="translate(2.108035, 1.410978)" fill="#FFFFFF" stroke="#000000">
            <path d="M593.891965,35.7992474 C432.194828,35.7992474 348.178651,35.7992474 341.843434,35.7992474 C335.508216,35.7992474 332.314517,33.573848 332.262335,29.1230491 C332.262335,17.1139874 332.262335,11.1094565 332.262335,11.1094565 C332.262335,11.1094565 221.508224,11.1094565 0,11.1094565 L0,126.151414 C0.289970049,130.948558 3.25395835,133.34713 8.89196489,133.34713 C14.5299714,133.34713 209.529971,133.34713 593.891965,133.34713" id="board"></path>
            <path d="M593.891965,61.5890216 C583.122412,61.5890216 573.891965,70.319469 573.891965,81.0890216 C573.891965,91.8585742 583.122412,100.621375 593.891965,100.621375" id="h8"></path>
            <circle id="h7" cx="506.391965" cy="81.0890216" r="19.5"></circle>
            <rect id="h6" x="381.891965" y="61.5890216" width="80" height="39" rx="19.5"></rect>
            <circle id="h5" cx="337.391965" cy="81.0890216" r="19.5"></circle>
            <rect id="h4" x="212.891965" y="61.5890216" width="80" height="39" rx="19.5"></rect>
            <rect id="h3" x="30.8919649" y="61.5890216" width="157" height="39" rx="19.5"></rect>
            <path d="M593.891965,35.7992474 L337.391965,35.7992474 C333.972212,35.8005228 332.262335,33.5751236 332.262335,29.1230491 C332.262335,24.6709746 332.262335,14.9632915 332.262335,3.41060513e-13 L593.891965,3.41060513e-13" id="h2"></path>
            <polygon id="h1" points="332.262335 0 8.89196489 2.12120366 0 11.1094565 332.262335 11.1094565"></polygon>
        </g>
    </g>
</svg>