<?xml version="1.0" encoding="UTF-8"?>
<svg width="1311.51554px" height="694.661357px" viewBox="0 0 1311.51554 694.661357" version="1.1" xmlns="http://www.w3.org/2000/svg" xmlns:xlink="http://www.w3.org/1999/xlink">
    <title>CRUXFENIX</title>
    <g id="Page-1" stroke="none" stroke-width="1" fill="none" fill-rule="evenodd">
        <g id="CRUXFENIX" transform="translate(0.5003, 0.5087)" fill="#FFFFFF">
            <path d="M1216.41136,466.469199 L1092.12777,635.118718 C1076.65351,646.975103 1051.94724,654.840658 1018.00896,658.715382 C984.070689,662.590106 782.262959,674.179441 412.585772,693.483386 C390.004965,695.019259 370.283315,686.102029 353.420823,666.731696 C336.55833,647.361363 296.120563,599.629622 232.107521,523.536473 L1216.41136,466.469199 Z" id="board" stroke="#000000"></path>
            <path d="M1310.98464,517.893781 C1189.85816,522.487115 1183.12661,526.036826 1146.65099,526.036826 C1122.33391,526.036826 1101.26995,513.076994 1083.4591,487.157331 L252.060776,526.036826 C231.739229,527.098121 213.838939,519.062978 198.359906,501.931397 C182.880873,484.799816 138.792271,434.552192 66.0940989,351.188525 L1310.98464,274.743224" id="board" stroke="#000000"></path>
            <path d="M1310.98464,438.772184 L1202.16651,441.065894 C1188.59882,441.116536 1173.88486,431.76047 1158.02462,412.997695 C1134.23427,384.853534 1093.68947,340.379752 1084.14764,330.534052 C1074.6058,320.688352 1077.01656,320.688352 1039.66816,322.201901 C1014.76922,323.210935 704.205494,335.630971 107.976974,359.462012 C80.8565606,361.094147 58.5257822,352.161918 40.9846387,332.665325 C14.6729234,303.420435 0.0323188225,298.387462 0.0323188225,247.63635 C0.0323188225,213.802276 0.0323188225,148.761779 0.0323188225,52.5148571 C-1.04366606,30.4785812 24.7472808,18.3275778 77.4051594,16.061847 C130.063038,13.7961161 251.247964,8.44216715 440.959937,2.91038305e-11 C505.379053,58.8305308 580.538081,88.2457962 666.437022,88.2457962 C752.335962,88.2457962 866.769903,86.7603225 1009.73884,83.789375 L1120.95571,211.382316 C1131.35491,225.51245 1145.69249,232.577517 1163.96845,232.577517 C1182.24441,232.577517 1231.24981,232.597707 1310.98464,232.638087" id="board" stroke="#000000"></path>
            <path d="M1310.98464,232.638087 L1163.64373,232.638087 C1147.53164,232.141646 1135.07008,227.119096 1126.25904,217.570436 C1117.448,208.021776 1078.60793,163.428089 1009.73884,83.789375 C1210.56937,75.6850309 1310.98464,71.6328588 1310.98464,71.6328588" id="h9" stroke="#000000"></path>
            <path d="M120.956459,162.522127 L918.72218,172.426089 C923.714094,172.488062 928.409541,174.806826 931.493256,178.732861 L978.956258,239.160443 C981.770689,242.743639 982.866301,247.128388 982.362506,251.320946 C981.858711,255.513503 979.755509,259.51387 976.172312,262.328301 C973.251304,264.622615 969.641621,265.864252 965.927321,265.852313 L161.777256,263.267549 C156.027741,263.249069 150.702434,260.239014 147.721374,255.322659 L106.642716,187.575881 C104.280311,183.679811 103.720749,179.195028 104.725806,175.093661 C105.730863,170.992294 108.300538,167.274343 112.196608,164.911938 C114.835596,163.311773 117.870471,162.483816 120.956459,162.522127 Z" id="h4" stroke="#000000" transform="translate(545.6857, 214.0535) rotate(-3) translate(-545.6857, -214.0535)"></path>
            <path d="M121.227597,172.982424 L517.615224,178.345187 C522.573995,178.412275 527.239611,180.706183 530.320829,184.592056 L580.581318,247.977989 C583.412225,251.548182 584.528023,255.927838 584.043547,260.122672 C583.55907,264.317506 581.474318,268.327518 577.904124,271.158425 C574.976148,273.480099 571.346819,274.73916 567.610093,274.729555 L162.016028,273.687055 C156.262718,273.672267 150.932543,270.661725 147.94952,265.742134 L106.895471,198.035939 C104.533066,194.139869 103.973504,189.655086 104.978561,185.553719 C105.983617,181.452353 108.553293,177.734402 112.449363,175.371997 C115.093694,173.768591 118.135406,172.94059 121.227597,172.982424 Z" id="h3" stroke="#000000" transform="translate(346.7323, 223.6939) rotate(-3) translate(-346.7323, -223.6939)"></path>
            <path d="M1083.37692,487.319916 C1086.41593,491.786446 1091.38133,497.762544 1098.27583,505.246165 L1054.01249,573.523144 C1051.15465,577.931422 1046.36835,580.715287 1041.12359,581.019748 L406.985242,617.831733 C403.853035,618.013559 400.804811,617.299187 398.151679,615.857653 C395.498546,614.41612 393.240505,612.247424 391.688662,609.520601 L355.389962,545.738268 C353.136327,541.778288 352.701142,537.279732 353.819361,533.207763 C354.93758,529.135793 357.609203,525.49041 361.569183,523.236774 C363.826961,521.951867 366.356228,521.218218 368.951126,521.09554 Z" id="h8" stroke="#000000"></path>
            <path d="M717.739071,504.133329 C722.290064,503.912459 726.49974,505.557153 729.626885,508.394813 C732.75403,511.232473 734.798645,515.263098 735.019514,519.814091 C735.032444,520.080508 735.038912,520.3472 735.038912,520.613931 L735.038912,582.814635 C735.038912,587.181305 733.337599,591.169828 730.546534,594.131305 C727.755468,597.092782 723.874649,599.027214 719.515636,599.285701 L406.998491,617.817784 C403.862817,618.003727 400.810383,617.291265 398.15345,615.849807 C395.496516,614.408349 393.235082,612.237895 391.681409,609.507854 L355.370724,545.704463 C353.117088,541.744483 352.681903,537.245927 353.800122,533.173958 C354.918341,529.101988 357.589964,525.456605 361.549945,523.202969 C363.801651,521.921517 366.323476,521.188314 368.911241,521.062724 Z" id="h7" stroke="#000000"></path>
            <path d="M212.055374,331.774784 L1069.91928,341.702185 C1074.71759,341.757712 1079.25403,343.899388 1082.34613,347.568974 L1133.25729,407.988404 C1136.19327,411.472707 1137.439,415.817191 1137.07966,420.024592 C1136.72033,424.231994 1134.75592,428.302313 1131.27162,431.238288 C1128.28318,433.756433 1124.49798,435.132145 1120.59008,435.120436 L255.889978,432.529642 C250.324728,432.512968 245.142859,429.691951 242.108225,425.026837 L198.033255,357.2708 C195.548769,353.451423 194.847597,348.986588 195.722392,344.855476 C196.597186,340.724365 199.047946,336.926976 202.867324,334.442489 C205.599323,332.665337 208.796437,331.737071 212.055374,331.774784 Z" id="h6" stroke="#000000" transform="translate(668.7873, 383.3188) rotate(-3) translate(-668.7873, -383.3188)"></path>
            <path d="M212.236084,343.088998 L636.498228,348.474973 C641.281935,348.535702 645.803779,350.669717 648.891632,354.323852 L702.447216,417.700975 C705.388075,421.181157 706.6399,425.523889 706.286465,429.73179 C705.933031,433.939692 703.974336,438.012762 700.494154,440.953621 C697.505705,443.47895 693.717114,444.860155 689.804567,444.850719 L255.744967,443.803842 C250.158582,443.790369 244.958394,440.951148 241.92642,436.259132 L198.168293,368.54291 C195.695371,364.716034 195.007708,360.249099 195.894995,356.120652 C196.782282,351.992206 199.244518,348.202247 203.071394,345.729326 C205.799776,343.966249 208.987883,343.047762 212.236084,343.088998 Z" id="h5" stroke="#000000" transform="translate(453.5416, 393.813) rotate(-3) translate(-453.5416, -393.813)"></path>
            <path d="M1009.73884,83.789375 L949.256622,12.8028036 C941.352807,4.2676012 924.133259,0 897.597977,0 C871.062696,0 718.850016,0 440.959937,0 C509.774851,58.3094791 578.116418,87.4642186 645.984639,87.4642186 C713.852859,87.4642186 835.104261,86.2392707 1009.73884,83.789375 Z" id="h2" stroke="#000000"></path>
            <path d="M439.586738,33.5643538 L439.586738,119.564354 L20.5867384,119.564354 L20.5867384,43.0643538 C20.5867384,40.4410012 21.6500621,38.0660012 23.3692239,36.3468394 C25.0883858,34.6276775 27.4633858,33.5643538 30.0867384,33.5643538 L439.586738,33.5643538 Z" id="h1" stroke="#FFFFFF" transform="translate(230.0867, 76.5644) rotate(-2.5) translate(-230.0867, -76.5644)"></path>
        </g>
    </g>
</svg>