<?xml version="1.0" encoding="UTF-8"?>
<svg width="587px" height="373px" viewBox="0 0 587 373" version="1.1" xmlns="http://www.w3.org/2000/svg" xmlns:xlink="http://www.w3.org/1999/xlink">
    <title>CRUXFINGER2</title>
    <g id="Page-1" stroke="none" stroke-width="1" fill="none" fill-rule="evenodd">
        <g id="CRUXFINGER2" transform="translate(0.6266, 0.8378)" fill="#FFFFFF">
            <path d="M586.373357,359.996848 C350.555795,359.996848 232.647013,359.996848 232.647013,359.996848 C261.06014,331.466934 304.532777,312.791665 339.050006,296.094298 C373.567234,279.396932 459.412985,271.206281 586.343161,273.606305" id="board" stroke="#000000"></path>
            <path d="M302.982484,215.110314 L414.856525,199.629523 C398.591267,200.830192 390.458638,208.674429 390.458638,223.162235 C390.458638,237.65004 398.591267,245.373869 414.856525,246.33372 C447.360242,246.719649 475.504504,246.719649 499.289309,246.33372 C534.966517,245.754826 537.373357,225.846724 537.373357,225.846724 C536.284548,269.63725 586.301306,273.631704 586.301306,273.631704 C340.658467,269.092837 289.863796,328.89223 232.647013,359.996848 C175.430231,391.101467 111.421731,350.665029 84.7050746,338.039317 C57.9884185,325.413605 47.9306693,281.560939 49.4726234,268.65961 C51.0145774,255.758281 56.407214,237.316434 56.407214,237.316434 C92.6713264,237.316434 97.2332339,252.270168 119.387851,260.793349 C147.830101,279.18575 171.513501,283.320793 190.438051,273.198477 C218.824877,258.015004 274.412994,215.192933 302.982484,215.192933" id="board" stroke="#000000"></path>
            <path d="M352.850692,208.033229 C352.850692,208.033229 283.279194,208.291308 280.373357,181.06676 C280.373357,181.06676 275.562416,204.808691 254.38326,204.808691 C233.204104,204.808691 200.875463,200.742595 200.875463,176.662235 C200.875463,152.581875 226.486212,148.601022 226.486212,148.162235 C226.486212,148.162235 204.528179,148.273136 160.612113,148.494938 C179.286215,160.583972 188.623266,170.945626 188.623266,179.579899 C188.623266,192.531309 173.800495,206.162235 154.651445,206.162235 C141.885412,206.162235 113.429283,206.162235 69.2830578,206.162235 C46.8747124,206.283797 35.6705397,199.538132 35.6705397,185.92524 C35.6705397,165.5059 42.662384,148.494938 58.4868522,148.494938 C69.0364977,148.494938 79.3713228,148.494938 89.4913275,148.494938 C59.5107373,145.620852 43.7745926,138.996006 42.2828933,128.620402 C42.2828933,128.620402 0,134.183032 0,179.579899 C0,209.844477 18.8024047,229.089989 56.407214,237.316434 C73.0459228,237.30517 93.1649264,245.450588 116.764225,261.752687 C152.163173,286.205837 176.425346,281.341174 183.212338,278.223787 C189.99933,275.106401 265.163688,227.18306 352.850692,208.033229 Z" id="board" stroke="#000000"></path>
            <path d="M586.274282,273.602275 C537.264597,264.725596 537.373357,234.830327 537.373357,223.162235 C537.373357,223.162235 536.057094,199.629523 513.065319,199.629523 C497.737469,199.629523 463.219091,199.629523 409.510185,199.629523 L350.805678,208.305992 C303.850797,204.806449 280.373357,196.289605 280.373357,182.75546 C280.373357,162.454243 255.890183,147.162235 244.359806,147.162235 C236.672889,147.162235 184.01555,147.495568 86.387792,148.162235 C56.9845262,144.091366 42.2828933,137.577422 42.2828933,128.620402 C42.2828933,115.184871 39.6462843,72.9893974 71.3733573,59.0007369 C103.10043,45.0120764 118.293754,56.3008118 128.036043,37.3419428 C137.778331,18.3830737 150.603639,-1.89610196 185.580517,0.141921358 C220.557396,2.17994468 251.165245,8.30820617 260.873357,35.137811 C267.345432,53.0242142 280.049953,62.4919485 298.98692,63.5410139 L359.174816,63.5410139 C386.997994,60.9202655 400.909584,68.5352818 400.909584,86.3860629 C400.909584,86.3860629 429.156983,86.3860629 485.651782,86.3860629 C508.125668,82.73601 520.970001,76.5284063 524.18478,67.763252 C529.006949,54.6155204 543.441759,32.1312028 586.373357,32.1312028" id="board" stroke="#000000"></path>
            <circle id="screw" stroke="#000000" cx="164.873357" cy="240.662235" r="11"></circle>
            <circle id="screw" stroke="#000000" cx="260.873357" cy="101.662235" r="11"></circle>
            <path d="M586.373357,320.608489 C468.464576,320.608489 398.37965,320.608489 376.11858,320.608489 C342.726974,320.608489 309.336949,313.816845 346.308613,301.086857 C383.280277,288.356869 446.943124,273.185454 586.373357,273.602275" id="h11" stroke="#000000"></path>
            <path d="M366.798927,228.109965 C371.625467,240.662235 365.870322,257.530161 333.666062,260.793349 C301.461801,264.056537 240.629806,302.848119 224.829578,316.597663 C209.029349,330.347207 176.425346,330.347207 162.358095,327.151001 C148.290844,323.954796 93.5709573,303.031903 89.8634413,275.52024 C87.391764,257.179132 97.2332339,252.270168 119.387851,260.793349 C147.830101,279.18575 171.513501,283.320793 190.438051,273.198477 C218.824877,258.015004 277.352615,229.564846 306.373357,221.411686 C335.394099,213.258526 361.972387,215.557695 366.798927,228.109965 Z" id="h8" stroke="#000000"></path>
            <path d="M586.373357,87.3860629 L485.651782,87.3860629 C508.125668,83.73601 520.970001,77.5284063 524.18478,68.763252 C529.006949,55.6155204 543.441759,33.1312028 586.373357,33.1312028" id="h3"></path>
            <path d="M298.98692,64.5410139 L359.174816,64.5410139 C386.997994,61.9202655 400.909584,69.5352818 400.909584,87.3860629 C400.909584,87.3860629 366.935362,87.3860629 298.98692,87.3860629 L298.98692,64.5410139 Z" id="h2"></path>
            <path d="M128.036043,38.3419428 C137.778331,19.3830737 150.603639,-0.896101961 185.580517,1.14192136 C220.557396,3.17994468 251.165245,9.30820617 260.873357,36.137811 C267.345432,54.0242142 252.743065,61.9785228 217.066255,60.0007369 C151.217921,58.2007869 121.541184,50.9811888 128.036043,38.3419428 Z" id="h1"></path>
            <rect id="h9" stroke="#000000" x="389.873357" y="199.662235" width="147" height="47" rx="23.5"></rect>
            <path d="M586.373357,190.162235 C571.461669,190.162235 559.373357,201.131258 559.373357,214.662235 C559.373357,228.193211 571.461669,239.162235 586.373357,239.162235" id="h10" stroke="#000000"></path>
            <rect id="h6" stroke="#000000" x="32.8733573" y="148.662235" width="156" height="58" rx="29"></rect>
            <rect id="h4" stroke="#000000" x="71.8733573" y="69.6622346" width="164" height="58" rx="29"></rect>
            <rect id="h5" stroke="#000000" x="306.873357" y="108.662235" width="265" height="58" rx="29"></rect>
            <rect id="h7" stroke="#000000" x="200.873357" y="147.662235" width="79" height="58" rx="29"></rect>
        </g>
    </g>
</svg>