<?xml version="1.0" encoding="UTF-8"?>
<svg width="587px" height="361px" viewBox="0 0 587 361" version="1.1" xmlns="http://www.w3.org/2000/svg" xmlns:xlink="http://www.w3.org/1999/xlink">
    <title>CRUXCURVE</title>
    <g id="Page-1" stroke="none" stroke-width="1" fill="none" fill-rule="evenodd">
        <g id="CRUXCURVE" transform="translate(1, 0.5358)" fill="#FFFFFF" stroke="#000000">
            <path d="M586,89.0758688 C561.061006,89.0758688 535.818598,89.0758688 510.272777,89.0758688 C471.954045,89.0758688 465.954895,67.8653481 440.917937,67.8653481 C415.880979,67.8653481 318.000481,67.8653481 264.671946,67.8653481 C211.343412,67.8653481 232.793947,27.9986837 185.556161,27.9986837 C154.064304,27.9986837 109.621309,27.9986837 52.2271774,27.9986837 C17.4090591,27.9986837 0,38.1022114 0,58.3092667 C0,79.5074925 26.8958524,91.9079619 48.6552814,91.9079619 C60.2738871,91.9079619 53.6382484,91.9079619 62.1245775,91.9079619 C90.3537602,91.9079619 111.263964,114.249202 111.263964,133.82148 C111.263964,133.82148 95.6379756,133.82148 64.385999,133.82148 C45.4877558,136.545055 36.0386342,143.249178 36.0386342,153.933852 C36.0386342,169.960861 55.8234371,186.883566 86.1080641,186.883566 C106.297815,186.883566 162.786069,186.883566 255.572824,186.883566 C276.923197,186.883566 287.598383,198.245397 287.598383,220.96906 C287.598383,220.96906 228.820244,221.880099 111.263964,223.702176 C89.0853333,223.953365 77.996018,231.443159 77.996018,246.171558 C77.996018,260.899958 93.35369,270.027092 124.069034,273.55296 C141.969135,276.490717 150.919185,288.226427 150.919185,308.760093 C150.919185,308.760093 105.705852,309.7558 105.705852,335.658124 C105.705852,352.92634 120.776963,360.786732 150.919185,359.2393 C203.981548,359.2393 259.679256,359.2393 318.012311,359.2393 C405.511893,359.2393 402.520699,268.267702 474.190537,268.267702 C521.970429,268.267702 559.24025,268.267702 586,268.267702" id="board"></path>
            <path d="M586,104.464239 C573.849736,104.464239 564,114.313975 564,126.464239 C564,138.614504 573.849736,148.464239 586,148.464239" id="brand"></path>
            <path d="M185.556161,27.9991302 C154.064304,27.9991302 109.621309,27.9991302 52.2271774,27.9991302 C17.4090591,27.9991302 3.41060513e-13,38.102509 3.41060513e-13,58.3092667 C3.41060513e-13,58.3092667 4.28299347,9.09494702e-13 74.3134578,9.09494702e-13 C121.000434,9.09494702e-13 162.334361,9.09494702e-13 198.315239,9.09494702e-13 C189.809187,18.6660868 185.556161,27.9991302 185.556161,27.9991302 Z" id="h1"></path>
            <path d="M198.315239,4.54747351e-13 C230.847975,4.54747351e-13 226.427268,39.6034431 264.683776,39.6034431 C290.188115,39.6034431 351.145424,38.9726843 447.555705,37.7111667 C443.130526,57.8139543 440.917937,67.8653481 440.917937,67.8653481 C415.880979,67.8653481 318.012311,67.8653481 264.683776,67.8653481 C211.355242,67.8653481 232.793947,27.9991302 185.556161,27.9991302 C185.556161,27.9991302 198.315239,4.54747351e-13 198.315239,4.54747351e-13 Z" id="h2"></path>
            <path d="M586,89.0758688 C561.061006,89.0758688 535.818598,89.0758688 510.272777,89.0758688 C471.954045,89.0758688 465.954895,67.8653481 440.917937,67.8653481 C440.917937,67.8653481 447.555705,37.7111667 447.555705,37.7111667 C472.592663,37.7111667 471.954045,60.0758688 510.272777,60.0758688 C535.818598,60.0758688 561.061006,60.0758688 586,60.0758688" id="h3"></path>
            <path d="M111.263964,133.82148 L420.780989,133.82148 C440.412301,132.190935 450.227957,125.205349 450.227957,112.864721 C450.227957,100.524093 440.412301,93.5385067 420.780989,91.9079619 C181.676715,91.9079619 62.1245775,91.9079619 62.1245775,91.9079619 C90.9714436,94.1701381 107.351239,108.141311 111.263964,133.82148 Z" id="h4"></path>
            <path d="M287.598383,220.96906 L501.922071,220.444637 C522.305161,221.838956 532.496706,216.365802 532.496706,204.025174 C532.496706,191.684546 522.860355,185.804001 503.587652,186.383539 C327.945602,186.733154 240.124578,186.907962 240.124578,186.907962 C273.525403,186.558347 289.350005,197.912046 287.598383,220.96906 Z" id="h5"></path>
            <path d="M124.069034,273.55296 C148.954383,273.55296 209.819309,273.55296 306.663813,273.55296 C321.874565,273.55296 329.479941,279.387551 329.479941,291.056732 C329.479941,302.725913 322.911198,308.694954 309.773712,308.963857 C240.374155,308.963857 187.488904,308.963857 151.117961,308.963857 C151.117961,308.963857 151.117961,273.55296 124.069034,273.55296 Z" id="h6"></path>
        </g>
    </g>
</svg>