<?xml version="1.0" encoding="UTF-8"?>
<svg width="584px" height="309px" viewBox="0 0 584 309" version="1.1" xmlns="http://www.w3.org/2000/svg" xmlns:xlink="http://www.w3.org/1999/xlink">
    <title>DANGERBUDDYBOARD</title>
    <g id="Page-1" stroke="none" stroke-width="1" fill="none" fill-rule="evenodd">
        <g id="DANGERBUDDYBOARD" transform="translate(0.980841, 0.901201)" stroke="#000000">
            <path d="M582.019159,296.232868 C252.78748,296.232868 77.7208313,296.232868 56.8192132,296.232868 C25.4667861,296.232868 3.6885022,277.676803 3.6885022,253.098231 C3.6885022,236.712516 3.6885022,202.102819 3.6885022,149.269139 L582.019159,149.269139" id="board" fill="#FFFFFF"></path>
            <path d="M582.019159,33.7799944 L482.04631,33.7799944 L482.04631,19.3878169 L294.449687,19.3878169 C190.82567,22.8542588 100.117097,52.3832553 22.3239669,107.974806 C5.6128952,119.916663 -1.71611018,135.242816 0.336950764,153.953264 C5.81995136,185.315068 23.4312625,200.99597 53.170884,200.99597 C82.9105056,200.99597 98.7615078,200.99597 100.723891,200.99597 C129.694023,200.99597 145.19434,216.776127 147.224844,248.336441 C149.255347,279.896755 166.340703,295.862231 198.480911,296.232868 L582.019159,296.232868" id="board" fill="#FFFFFF"></path>
            <path d="M85.4408511,215.130919 C74.7396291,215.117198 66.4724145,220.898953 60.6392074,232.476183 C54.8060003,244.053414 48.2888455,257.325382 41.0877429,272.292088 C29.7717391,290.712975 30.3550032,301.587794 42.837535,304.916545 C50.8789527,307.060972 65.0800581,307.874141 85.4408511,307.356051 C93.2041899,307.356051 101.022105,307.356051 108.894597,307.356051 C119.434475,307.356051 133.167727,300.312953 134.268014,290.908271 C135.368302,281.50359 131.57924,274.186899 127.821546,267.005385 C124.063852,259.823872 113.534183,237.763438 108.894597,230.269496 C104.255012,222.775554 100.862509,219.389086 96.4673787,217.106997 C93.537292,215.585604 89.8617828,214.926912 85.4408511,215.130919 Z" id="anchor" fill="#FFFFFF"></path>
            <path d="M81.5191589,293.098799 C115.470875,293.858941 112.019159,289.517077 112.019159,285.098799 C112.019159,280.680521 98.3638437,277.098799 81.5191589,277.098799 C64.674474,277.098799 51.0191589,280.680521 51.0191589,285.098799 C51.0191589,289.517077 47.5674424,292.338656 81.5191589,293.098799 Z" id="anchor" fill="#FFFFFF"></path>
            <polygon id="anchor" fill="#FFFFFF" points="84.0191589 227.098799 98.7415907 235.598799 98.7415907 252.598799 84.0191589 261.098799 69.296727 252.598799 69.296727 235.598799"></polygon>
            <rect id="h3" fill="#FFFFFF" x="39.0191589" y="122.098799" width="197" height="48" rx="24"></rect>
            <rect id="h8" fill="#FFFFFF" x="172.019159" y="217.098799" width="158" height="48" rx="24"></rect>
            <rect id="h6" fill="#FFFFFF" x="260.019159" y="158.098799" width="79" height="38" rx="19"></rect>
            <path d="M582.028733,201.098799 L403.519159,201.098799 C391.645037,201.098799 382.019159,191.472921 382.019159,179.598799 C382.019159,167.724677 391.645037,158.098799 403.519159,158.098799 L582.07346,158.098799" id="h7" fill="#FFFFFF"></path>
            <path d="M582.023905,266.098799 L389.519159,266.098799 C377.645037,266.098799 368.019159,256.472921 368.019159,244.598799 C368.019159,232.724677 377.645037,223.098799 389.519159,223.098799 L582.019159,223.098799" id="h9" fill="#FFFFFF"></path>
            <rect id="h4" fill="#FFFFFF" x="262.019159" y="96.0987989" width="110" height="38" rx="19"></rect>
            <path d="M582.128356,137.098799 L415.519159,137.098799 C403.645037,137.098799 394.019159,127.472921 394.019159,115.598799 C394.019159,103.724677 403.645037,94.0987989 415.519159,94.0987989 L582.092402,94.0987989" id="h5" fill="#FFFFFF"></path>
            <path d="M582.019159,58.5690056 L311.715955,58.5690056 C300.20511,58.9758458 294.449687,55.0146964 294.449687,46.6855574 C294.449687,38.3564184 294.449687,29.2571716 294.449687,19.3878169 C301.469133,6.46260564 304.978856,-3.90798505e-14 304.978856,-3.90798505e-14 C345.007266,-3.90798505e-14 404.570089,-3.90798505e-14 483.667324,-3.90798505e-14 C489.293666,-0.00164598524 492.106836,1.86352271 492.106836,5.5955061 C492.106836,11.1934812 492.082082,13.6390096 497.868998,13.6390096 C501.726942,13.6390096 529.895152,13.6390096 582.373629,13.6390096" id="h2" fill="#FFFFFF"></path>
            <path d="M177.132842,35.703556 C103.985378,56.0886651 48.8277699,83.3524438 11.6600163,117.494892 C52.7561152,61.9023983 136.209163,25.8548649 262.019159,9.35229215 C262.019159,9.35229215 264.888505,6.23486728 270.627196,1.75468428e-05 L304.978856,1.75468428e-05 L294.449687,19.3878169 C269.120676,20.7674684 251.327322,22.1135137 241.069627,23.4259527 C210.998973,27.2733959 189.994826,32.8789527 177.132842,35.703556 Z" id="h1"></path>
        </g>
    </g>
</svg>