<?xml version="1.0" encoding="UTF-8"?>
<svg width="666px" height="286px" viewBox="0 0 666 286" version="1.1" xmlns="http://www.w3.org/2000/svg" xmlns:xlink="http://www.w3.org/1999/xlink">
    <title>DIGITALLARGE</title>
    <g id="Page-1" stroke="none" stroke-width="1" fill="none" fill-rule="evenodd">
        <g id="DIGITALLARGE" transform="translate(1.000000, 1.624280)" fill="#FFFFFF" stroke="#000000">
            <path d="M664.5,23.8214109 L292,23.3757197 C255.088995,39.5537877 224.02791,47.6428217 198.816746,47.6428217 C161,47.6428217 168.187352,21.1485246 88.6912267,21.1485246 C9.19510121,21.1485246 1.70530257e-13,44.1764676 1.70530257e-13,124.020611 C1.70530257e-13,177.250039 1.2157087,218.701742 3.64712611,248.37572 C5.11264344,271.909915 17.8969347,283.677012 42,283.677012 C66.1030653,283.677012 273.603065,282.243248 664.5,279.37572" id="board"></path>
            <path d="M604,219.87572 C608.832492,219.87572 613.207492,221.834474 616.374369,225.001351 C619.541246,228.168228 621.5,232.543228 621.5,237.37572 C621.5,242.208211 619.541246,246.583211 616.374369,249.750088 C613.207492,252.916965 608.832492,254.87572 604,254.87572 C600.670807,254.87572 597.558679,253.946224 594.909194,252.332282 C592.168524,250.662794 589.922742,248.261286 588.443534,245.3993 C588.286169,245.09483 588.138074,244.786296 587.999114,244.474262 C587.860444,244.786393 587.712425,245.094917 587.555133,245.399378 C586.076608,248.261279 583.831218,250.662722 581.090804,252.332189 C578.441437,253.94619 575.329255,254.87572 572,254.87572 C568.670807,254.87572 565.558679,253.946224 562.909194,252.332282 C560.168524,250.662794 557.922742,248.261286 556.443534,245.3993 C556.286169,245.09483 556.138074,244.786296 555.999114,244.474262 C555.860444,244.786393 555.712425,245.094917 555.555133,245.399378 C554.076608,248.261279 551.831218,250.662722 549.090804,252.332189 C546.441437,253.94619 543.329255,254.87572 540,254.87572 C535.167508,254.87572 530.792508,252.916965 527.625631,249.750088 C524.458754,246.583211 522.5,242.208211 522.5,237.37572 C522.5,232.543228 524.458754,228.168228 527.625631,225.001351 C530.792508,221.834474 535.167508,219.87572 540,219.87572 C543.329193,219.87572 546.441321,220.805215 549.090806,222.419158 C551.831476,224.088646 554.077258,226.490154 555.556466,229.352139 C555.713831,229.65661 555.861926,229.965143 556.000886,230.277177 C556.139556,229.965046 556.287575,229.656522 556.444867,229.352061 C557.923392,226.49016 560.168782,224.088717 562.909196,222.41925 C565.558563,220.805249 568.670745,219.87572 572,219.87572 C575.329193,219.87572 578.441321,220.805215 581.090806,222.419158 C583.831476,224.088646 586.077258,226.490154 587.556466,229.352139 C587.713831,229.65661 587.861926,229.965143 588.000886,230.277177 C588.139556,229.965046 588.287575,229.656522 588.444867,229.352061 C589.923392,226.49016 592.168782,224.088717 594.909196,222.41925 C597.558563,220.805249 600.670745,219.87572 604,219.87572 Z" id="h16"></path>
            <rect id="h11" x="483.5" y="124.87572" width="118" height="55" rx="9"></rect>
            <rect id="h14" x="245.5" y="205.87572" width="158" height="42" rx="13"></rect>
            <path d="M444,202.87572 C448.478453,202.87572 452.585275,204.466983 455.785754,207.115107 C459.041642,209.809077 461.359907,213.596554 462.176958,217.915051 C462.221591,218.150956 462.261475,218.387021 462.296738,218.62249 C462.500438,218.49664 462.706333,218.374923 462.914286,218.257374 C465.597052,216.740905 468.697502,215.87572 472,215.87572 C477.108634,215.87572 481.733634,217.946403 485.081475,221.294244 C488.429317,224.642086 490.5,229.267086 490.5,234.37572 C490.5,239.484354 488.429317,244.109354 485.081475,247.457195 C481.733634,250.805037 477.108634,252.87572 472,252.87572 C467.521547,252.87572 463.414725,251.284456 460.214246,248.636333 C456.958358,245.942363 454.640093,242.154885 453.823042,237.836388 C453.778409,237.600484 453.738525,237.364418 453.703262,237.128949 C453.499562,237.2548 453.293667,237.376517 453.085714,237.494065 C450.402948,239.010534 447.302498,239.87572 444,239.87572 C438.891366,239.87572 434.266366,237.805037 430.918525,234.457195 C427.570683,231.109354 425.5,226.484354 425.5,221.37572 C425.5,216.267086 427.570683,211.642086 430.918525,208.294244 C434.266366,204.946403 438.891366,202.87572 444,202.87572 Z" id="h15"></path>
            <rect id="h8" transform="translate(191.109957, 153.650821) rotate(-18.000000) translate(-191.109957, -153.650821) " x="124.672457" y="140.650821" width="132.875" height="26" rx="12"></rect>
            <rect id="h9" transform="translate(313.966401, 143.820458) rotate(-18.000000) translate(-313.966401, -143.820458) " x="273.966401" y="130.820458" width="80" height="26" rx="12"></rect>
            <rect id="h6" x="327.5" y="66.8757197" width="274" height="35" rx="12"></rect>
            <rect id="h5" x="136.5" y="66.8757197" width="155" height="35" rx="6"></rect>
            <polyline id="h3" points="664.5 23.3757197 289.059095 23.3757197 289.059095 3.63714881e-12 665 3.63797881e-12"></polyline>
            <path d="M289.059095,23.3757197 C254.108693,39.5537877 224.02791,47.6428217 198.816746,47.6428217 C161,47.6428217 120.884592,21.1485246 88.6912267,21.1485246 C88.6912267,21.1485246 88.6912267,3.63797881e-12 88.6912267,3.63797881e-12 C137.598095,3.63797881e-12 171.140935,21.1485246 198.816746,21.1485246 C217.267287,21.1485246 247.34807,14.0990164 289.059095,3.63797881e-12 L289.059095,23.3757197 Z" id="h1"></path>
            <path d="M88.6912267,3.63797881e-12 C88.6912267,3.63797881e-12 88.6912267,7.04950821 88.6912267,21.1485246 C29.5637422,30.8545091 0,57.5399335 0,101.204798 C0,144.869662 0,125.860219 0,44.1764676 C20.6684258,14.7254892 50.232168,3.63797881e-12 88.6912267,3.63797881e-12 Z" id="h2"></path>
            <ellipse id="h4" cx="81.5" cy="96.8757197" rx="39" ry="34"></ellipse>
            <ellipse id="h7" cx="86.057971" cy="165.37572" rx="31.557971" ry="27.5"></ellipse>
            <ellipse id="h10" cx="416.210145" cy="156.87572" rx="36.7101449" ry="32"></ellipse>
            <ellipse id="h13" cx="184.5" cy="218.87572" rx="39" ry="34"></ellipse>
            <ellipse id="h12" cx="87.3405797" cy="230.87572" rx="29.8405797" ry="26"></ellipse>
        </g>
    </g>
</svg>