<?xml version="1.0" encoding="UTF-8"?>
<svg width="597px" height="292px" viewBox="0 0 597 292" version="1.1" xmlns="http://www.w3.org/2000/svg" xmlns:xlink="http://www.w3.org/1999/xlink">
    <title>DUDESVSGRAVITYBOARD</title>
    <g id="Page-1" stroke="none" stroke-width="1" fill="none" fill-rule="evenodd">
        <g id="DUDESVSGRAVITYBOARD" transform="translate(1.228436, 0.721715)" fill="#FFFFFF" stroke="#000000">
            <path d="M593.771564,290.353147 L54.3945563,288.115463 C18.1315188,288.784592 0,274.232053 0,244.457845 C0,199.796533 26.4398972,178.220029 26.4398972,134.690837 C26.4398972,91.161645 7.99642933,62.3104819 9.771564,33.9865069 C10.9549871,15.1038569 28.6659289,3.77502127 62.9043893,1.13686838e-13 L593.771564,0.559485639" id="board"></path>
            <path d="M594.271564,236.704728 C501.347249,234.544725 448.063214,232.232083 434.419458,229.766802 C434.419458,229.766802 434.419458,223.183077 434.419458,210.015626 C476.463113,218.911993 529.580482,223.360177 593.771564,223.360177" id="h10"></path>
            <path d="M434.419458,210.015626 L434.419458,229.766802 C361.090055,225.592158 304.80101,225.137864 265.552323,228.403921 C265.552323,228.403921 265.552323,222.274489 265.552323,210.015626 C303.973666,207.007364 332.624882,205.503233 351.50597,205.503233 C370.387058,205.503233 398.024887,207.007364 434.419458,210.015626 Z" id="h9"></path>
            <polygon id="h8" points="265.552323 228.403921 67.1803725 229.766802 265.552323 210.015626"></polygon>
            <path d="M265.552323,138.035312 L265.552323,158.840768 C296.653558,152.19118 352.942603,144.569599 434.419458,135.976025 C434.419458,135.976025 396.201492,128.843326 359.849522,128.843326 C344.995429,128.843326 313.56303,131.907321 265.552323,138.035312 Z" id="h7"></path>
            <path d="M155.809293,149.944011 L155.809293,169.488115 C178.412462,168.894598 197.63933,167.637341 213.489896,165.716343 C228.927106,163.845442 245.979774,161.027444 265.552323,158.840768 C265.552323,158.840768 265.552323,138.08475 265.552323,138.08475 C255.243336,139.248096 237.213955,142.778285 215.903919,145.060497 C201.697228,146.581971 181.665686,148.209809 155.809293,149.944011 Z" id="h6" opacity="0.600000024"></path>
            <path d="M155.809293,169.488115 C155.809293,169.488115 155.809293,162.973414 155.809293,149.944011 C99.877613,152.638417 56.1676698,137.395254 24.6794631,104.214524 C56.9628858,146.662391 100.672829,168.420255 155.809293,169.488115 Z" id="h5"></path>
            <path d="M593.771564,58.9440597 C553.849882,58.9440597 498.192279,52.6000137 434.419458,54.7146957 C434.419458,54.7146957 434.419458,36.662959 434.419458,0.559485639 L593.771564,0.559485639" id="h4"></path>
            <path d="M434.419458,0.559485639 L265.552323,0.559485639 C233.172391,50.4676919 233.172391,73.9879207 265.552323,71.1201722 C314.122222,66.8185494 360.668935,54.7146957 434.419458,54.7146957 C434.419458,54.7146957 434.419458,36.662959 434.419458,0.559485639 Z" id="h3"></path>
            <path d="M265.552323,0.559485639 L265.552323,71.1201722 C212.507271,74.3366423 175.926261,75.9448774 155.809293,75.9448774 C155.809293,75.9448774 155.809293,50.6299183 155.809293,4.26325641e-14 L265.552323,0.559485639 Z" id="h2"></path>
            <path d="M155.809293,75.9448774 C58.4508069,66.3107272 9.771564,52.9423777 9.771564,35.8398289 C9.771564,10.1860057 41.5854005,0.559485639 66.1982938,0.559485639 C82.6068893,0.559485639 112.477222,0.372990426 155.809293,0 L155.809293,75.9448774 Z" id="h1"></path>
        </g>
    </g>
</svg>