<svg width="587" height="315" viewBox="0 0 587 315" fill="none" xmlns="http://www.w3.org/2000/svg">
<g id="ENTREHANG">
<g id="board">
<path d="M586 314C586 314 413.148 304.361 366.008 303.043C307.377 301.426 192.385 287.203 153.362 301.319C118.301 314 84.3752 292.097 70.9891 261.069C57.6031 230.041 24.7589 197.192 46.6586 133.872C46.6586 133.872 63.6214 90.0774 39.323 85.8146C16.2668 81.7768 -16.149 58.5459 11.8333 25.5043C14.7522 22.0738 19.0029 20.0613 23.506 19.9777L173.184 17.1287C173.184 17.1287 192.46 18.1248 204.24 10.7025C207.055 8.94203 210.322 8.03783 213.642 8.09985L375.132 11.6343C385.42 11.8226 394.869 17.3532 400.073 26.2326C409.197 41.4521 423.193 26.2326 433.527 11.6343C443.861 -2.964 487.071 -7.22675 510.781 29.842C534.49 66.9107 510.974 83.4262 586 88.8885" fill="white"/>
<path d="M586 314C586 314 413.148 304.361 366.008 303.043C307.377 301.426 192.385 287.203 153.362 301.319C118.301 314 84.3752 292.097 70.9891 261.069C57.6031 230.041 24.7589 197.192 46.6586 133.872C46.6586 133.872 63.6214 90.0774 39.323 85.8146C16.2668 81.7768 -16.149 58.5459 11.8333 25.5043C14.7522 22.0738 19.0029 20.0613 23.506 19.9777L173.184 17.1287C173.184 17.1287 192.46 18.1248 204.24 10.7025C207.055 8.94203 210.322 8.03783 213.642 8.09985L375.132 11.6343C385.42 11.8226 394.869 17.3532 400.073 26.2326C409.197 41.4521 423.193 26.2326 433.527 11.6343C443.861 -2.964 487.071 -7.22675 510.781 29.842C534.49 66.9107 510.974 83.4262 586 88.8885" stroke="black"/>
</g>
<path id="h8" fill-rule="evenodd" clip-rule="evenodd" d="M551.582 265.61C564.234 265.604 574.488 255.344 574.488 242.69C574.488 230.037 564.232 219.781 551.582 219.781H301.412C295.982 219.78 290.821 222.146 287.276 226.26C283.732 230.375 282.156 235.83 282.96 241.201C285.051 255.229 297.094 265.611 311.275 265.61H551.582Z" fill="white" stroke="black"/>
<path id="h7" fill-rule="evenodd" clip-rule="evenodd" d="M262.881 226.26C257.538 216.522 247.731 210.053 236.677 208.974C228.133 208.137 219.51 208.676 211.136 210.57L210.622 210.687C193.031 214.65 180.536 230.279 180.541 248.313C180.553 257.865 188.295 265.604 197.846 265.61H249.324C254.018 265.61 258.519 263.745 261.837 260.424C265.155 257.104 267.018 252.601 267.015 247.906V242.412C267.013 236.766 265.592 231.212 262.881 226.26Z" fill="white" stroke="black"/>
<rect id="h6" width="76.4827" height="48.154" rx="22.48" transform="matrix(-1 0 0 1 159.434 217.467)" fill="white" stroke="black"/>
<path id="h5" fill-rule="evenodd" clip-rule="evenodd" d="M543.165 184.832C553.994 184.832 562.772 176.052 562.772 165.222C562.767 150.881 552.611 138.551 538.538 135.8L482.97 124.886C440.712 116.602 397.75 112.438 354.688 112.451H263.235C246.926 112.457 233.702 125.669 233.678 141.98C233.678 153.344 238.187 164.244 246.221 172.281C254.254 180.317 265.151 184.832 276.514 184.832H543.165Z" fill="white" stroke="black"/>
<rect id="h4" width="120.314" height="43.6878" rx="20.39" transform="matrix(-1 0 0 1 199.667 118.706)" fill="white" stroke="black"/>
<path id="h3" d="M408.233 84.9034C408.321 73.5463 408.057 60.0935 408.233 37.3792C416.338 39.0229 426.397 24.3319 434.016 13.5703C444.091 -0.658426 487.513 -5.37856 509.332 31.317C531.151 68.0126 515.887 77.3989 552.762 85.6754L408.233 84.9034Z" fill="white"/>
<path id="h2" d="M407.162 37.906V33.319V83.5635C407.162 84.7299 406.203 85.6754 405.02 85.6754H213.331C212.149 85.6754 211.19 84.7299 211.19 83.5635V12.8144C211.19 11.6481 212.149 10.7025 213.331 10.7025H273.358L375.068 13.4427C380.999 12.8934 387.208 15.5178 393.695 21.316C399.032 27.8327 403.521 33.3627 407.162 37.906Z" fill="white"/>
<path id="h1" d="M39.8911 85.8146C16.9114 81.848 -15.3967 59.0268 12.4927 26.5678C15.4019 23.1978 19.6385 21.2208 24.1266 21.1387L173.308 18.34C173.308 18.34 192.52 19.3185 204.26 12.027C208.432 9.37199 210.518 9.06009 210.518 11.0913C210.518 13.1226 210.518 38.0303 210.518 85.8146H39.8911Z" fill="white"/>
</g>
</svg>
