<?xml version="1.0" encoding="UTF-8"?>
<svg width="334px" height="135px" viewBox="0 0 334 135" version="1.1" xmlns="http://www.w3.org/2000/svg" xmlns:xlink="http://www.w3.org/1999/xlink">
    <title>ERZISMALL</title>
    <g id="Page-1" stroke="none" stroke-width="1" fill="none" fill-rule="evenodd">
        <g id="ERZISMALL" transform="translate(1.332598, 0.918602)" fill="#FFFFFF" stroke="#000000">
            <path d="M331.667402,4.75970677 L15.7669472,0 C5.25564907,2.40619364 0,10.4061613 0,23.9999028 C0,44.3905152 10.2926049,65.463471 40.3362904,65.463471 C70.3799759,65.463471 88.2058189,67.3622008 97.6144594,84.0867304 C107.0231,100.81126 108.691103,106.88513 112.962262,115.912913 C117.233421,124.940697 118.235831,133.047351 141.132611,133.047351 C164.029392,133.047351 302.752744,130.918584 331.667402,130.918584" id="board"></path>
            <circle id="h6" cx="219.667402" cy="96.0813985" r="18"></circle>
            <circle id="h7" cx="270.667402" cy="96.0813985" r="15"></circle>
            <path d="M331.667402,87.1700609 L331.057671,87.1700609 C328.322807,83.5056714 324.591458,81.0813985 319.667402,81.0813985 C311.38313,81.0813985 304.667402,87.7971272 304.667402,96.0813985 C304.667402,104.36567 311.38313,111.081398 319.667402,111.081398 C324.560793,111.081398 328.319643,108.788366 331.057671,105.162827 L331.667402,105.162827" id="h8"></path>
            <path d="M168.667402,81.0813985 C176.951673,81.0813985 183.667402,87.7971272 183.667402,96.0813985 C183.667402,104.36567 176.951673,111.081398 168.667402,111.081398 C164.320928,111.081398 160.406233,109.232732 157.66671,106.27879 C154.92857,109.232732 151.013875,111.081398 146.667402,111.081398 C138.38313,111.081398 131.667402,104.36567 131.667402,96.0813985 C131.667402,87.7971272 138.38313,81.0813985 146.667402,81.0813985 C151.013875,81.0813985 154.92857,82.9300654 157.668093,85.8840066 C160.406233,82.9300654 164.320928,81.0813985 168.667402,81.0813985 Z" id="h5"></path>
            <path d="M331.667402,62.0813985 L149.167402,62.0813985 C139.502418,62.0813985 131.667402,54.2463816 131.667402,44.5813985 C131.667402,34.9164154 139.502418,27.0813985 149.167402,27.0813985 L331.667402,27.0813985" id="h2"></path>
            <path d="M331.667402,62.0813985 L224.167402,62.0813985 C214.502418,62.0813985 206.667402,54.2463816 206.667402,44.5813985 C206.667402,34.9164154 214.502418,27.0813985 224.167402,27.0813985 L331.667402,27.0813985" id="h3"></path>
            <path d="M331.667402,62.0813985 L297.167402,62.0813985 C287.502418,62.0813985 279.667402,54.2463816 279.667402,44.5813985 C279.667402,34.9164154 287.502418,27.0813985 297.167402,27.0813985 L331.667402,27.0813985" id="h4"></path>
            <circle id="h1" cx="91.1674016" cy="41.5813985" r="17.5"></circle>
        </g>
    </g>
</svg>