<?xml version="1.0" encoding="UTF-8"?>
<svg width="372px" height="304px" viewBox="0 0 372 304" version="1.1" xmlns="http://www.w3.org/2000/svg" xmlns:xlink="http://www.w3.org/1999/xlink">
    <title>ERZILARGE</title>
    <g id="Page-1" stroke="none" stroke-width="1" fill="none" fill-rule="evenodd">
        <g id="ERZILARGE" transform="translate(1.000000, 1.220267)" fill="#FFFFFF" stroke="#000000">
            <path d="M226.768915,267.862494 C194.510005,272.967789 176.864359,276.537749 173.831975,278.572373 C170.799592,280.606996 156.522267,278.440781 131,272.073727 C136.837237,246.248838 137.246367,226.575038 132.22739,213.052326 C127.208413,199.529615 108.722387,188.598727 76.7693128,180.259664 C90.1694882,110.841508 96.8695759,76.1324294 96.8695759,76.1324294 C96.8695759,76.1324294 99.4935926,84.2005267 135.00693,60.2375238 C170.520268,36.2745208 234.486571,0.194098769 291.468021,0.194098769 C329.455654,0.194098769 355.63298,0.194098769 370,0.194098769" id="board"></path>
            <path d="M370,31.7083827 L324.509663,31.7083827 C323.908523,37.2110931 321.872853,39.9624482 318.402652,39.9624482 C313.197351,39.9624482 244.138358,50.067615 237.969923,52.6720394 C233.857633,54.4083223 231.961044,56.8294335 232.280154,59.9353729 C232.525095,70.5210892 225.801468,78.673674 212.109273,84.3931273 C198.417078,90.1125805 178.967877,101.431308 153.76167,118.349308 C156.093235,144.901287 153.796278,161.411388 146.870797,167.87961 C136.482576,177.581943 130.574993,192.091456 130.574993,202.306714 C130.574993,212.521971 135.68635,231.55089 151.339506,231.55089 C166.992663,231.55089 205.974958,230.480308 205.974958,256.502302 C205.974958,273.850298 216.639946,280.971108 237.969923,277.864731 C313.126494,274.808066 357.136519,273.279733 370,273.279733" id="inner"></path>
            <path d="M370,241.041797 L369.57093,241.041797 C367.646397,238.476724 365.020632,236.779733 361.555556,236.779733 C355.725883,236.779733 351,241.480743 351,247.279733 C351,253.078723 355.725883,257.779733 361.555556,257.779733 C364.999053,257.779733 367.64417,256.17461 369.57093,253.636733 L370,253.636733" id="h22"></path>
            <circle id="h21" cx="322.5" cy="247.279733" r="10.5"></circle>
            <circle id="h20" cx="286.5" cy="247.279733" r="10.5"></circle>
            <path d="M251.5,236.779733 C257.29899,236.779733 262,241.480743 262,247.279733 C262,253.078723 257.29899,257.779733 251.5,257.779733 C248.562123,257.779733 245.906056,256.57316 244.000302,254.628516 C242.093944,256.57316 239.437877,257.779733 236.5,257.779733 C230.70101,257.779733 226,253.078723 226,247.279733 C226,241.480743 230.70101,236.779733 236.5,236.779733 C239.438385,236.779733 242.094863,237.986724 244.000687,239.93196 C245.905137,237.986724 248.561615,236.779733 251.5,236.779733 Z" id="h19"></path>
            <circle id="h18" cx="159.5" cy="273.279733" r="28.5"></circle>
            <path d="M370,224.779733 L232,224.779733 C227.029437,224.779733 223,220.750296 223,215.779733 L223,207.779733 C223,202.80917 227.029437,198.779733 232,198.779733 L370,198.779733" id="h15"></path>
            <path d="M370,224.779733 L285,224.779733 C280.029437,224.779733 276,220.750296 276,215.779733 L276,207.779733 C276,202.80917 280.029437,198.779733 285,198.779733 L370,198.779733" id="h16"></path>
            <path d="M370,224.779733 L336,224.779733 C331.029437,224.779733 327,220.750296 327,215.779733 L327,207.779733 C327,202.80917 331.029437,198.779733 336,198.779733 L370,198.779733" id="h17"></path>
            <circle id="h14" cx="194" cy="211.779733" r="13"></circle>
            <rect id="h13" x="304" y="159.779733" width="58" height="23" rx="11.5"></rect>
            <rect id="h12" x="230" y="159.779733" width="58" height="23" rx="11.5"></rect>
            <rect id="h11" x="156" y="159.779733" width="58" height="23" rx="11.5"></rect>
            <path d="M370,143.779733 L235,143.779733 C230.029437,143.779733 226,139.750296 226,134.779733 C226,129.80917 230.029437,125.779733 235,125.779733 L370,125.779733" id="h10"></path>
            <circle id="h9" cx="194" cy="130.779733" r="13"></circle>
            <path d="M370,95.8388414 L369.593513,95.8388414 C367.77027,93.395915 365.282704,91.7797331 362,91.7797331 C356.477153,91.7797331 352,96.2568856 352,101.779733 C352,107.302581 356.477153,111.779733 362,111.779733 C365.262261,111.779733 367.768161,110.251045 369.593513,107.834019 L370,107.834019" id="h8"></path>
            <circle id="h7" cx="317" cy="103.779733" r="10"></circle>
            <circle id="h6" cx="279.5" cy="84.2797331" r="11.5"></circle>
            <path d="M370,45.7797331 C363.372583,45.7797331 358,51.1523161 358,57.7797331 C358,64.4071501 363.372583,69.7797331 370,69.7797331" id="h5"></path>
            <polyline id="h4" points="370 31.7083827 324.509663 31.7083827 308.547825 0.194098769 370 0.194098769"></polyline>
            <path d="M308.547825,0.194098769 L324.509663,31.7083827 C324.509663,36.6304582 321.849357,39.4680895 316.528744,40.2212765 C308.547825,41.3510571 233.433015,49.8937054 233.433015,55.8801228 C233.433015,55.8801228 227.856745,42.7642119 216.704204,16.5323902 C234.278291,9.60742332 250.146208,4.9999093 264.307954,2.70984817 C278.469701,0.419787028 293.216325,-0.418796104 308.547825,0.194098769 Z" id="h3"></path>
            <path d="M153.76167,118.349308 L130.574993,82.4868284 C124.048813,74.8092447 125.526126,67.3928099 135.00693,60.2375238 C149.228137,49.5045947 200.697182,19.8993682 216.704204,16.5323902 C216.704204,16.5323902 222.280474,29.6483011 233.433015,55.8801228 C232.652283,57.8114245 232.261917,59.7202938 232.261917,61.6067306 C232.261917,64.4363858 230.046195,75.3725015 219.072375,80.8856747 C214.065627,83.401031 201.600114,88.7564658 183.053731,99.5265714 C177.351286,102.838049 167.587266,109.112295 153.76167,118.349308 Z" id="h2"></path>
            <ellipse id="h1" cx="60.5" cy="123.279733" rx="60.5" ry="59.5"></ellipse>
        </g>
    </g>
</svg>