<?xml version="1.0" encoding="UTF-8"?>
<svg width="589px" height="269px" viewBox="0 0 589 269" version="1.1" xmlns="http://www.w3.org/2000/svg" xmlns:xlink="http://www.w3.org/1999/xlink">
    <title>ESCAPEBETA</title>
    <g id="Page-1" stroke="none" stroke-width="1" fill="none" fill-rule="evenodd">
        <g id="ESCAPEBETA" transform="translate(1.154301, 1.322285)" fill="#FFFFFF">
            <path d="M585.845699,216.173417 C577.563728,214.833335 569.458035,216.093654 561.528619,219.954374 C549.634496,225.745454 526.935212,233.722639 506.194153,233.722639 C485.453095,233.722639 421.478171,237.698192 403.603984,232.100749 C385.729798,226.503305 347.181005,198.15855 318.748113,199.778794 C290.315222,201.399039 264.362173,224.403798 249.534245,237.785901 C239.64896,246.707304 226.897682,251.933642 211.280411,253.464915 C199.682758,253.016402 190.735897,250.924964 184.439828,247.190601 C174.995725,241.589057 165.45846,239.030786 157.283391,239.030786 C149.108323,239.030786 137.637848,242.791182 121.00544,255.218977 C109.917167,263.504173 89.9375937,267.249329 61.0667192,266.454444 C15.5646539,259.024239 -4.50901965,236.799022 0.845698617,199.778794 C8.87777602,144.248453 70.4840732,64.3585727 81.9649235,54.6679988 C93.4457738,44.9774249 107.34686,41.4228075 122.493575,37.4967199 C137.640291,33.5706324 211.314423,12.4507413 251.380746,12.4507413 C278.091627,12.4507413 297.573432,11.9671518 309.826158,10.9999729 L330.21289,6.32634036 L585.845699,10.9999729" id="board" stroke="#000000"></path>
            <path d="M585.845699,33.3125191 C510.221859,33.5412863 467.991243,31.8075869 459.15385,28.1114208 C450.316458,24.4152547 446.132496,15.0447811 446.601966,3.17967874e-12 L585.845699,3.17967874e-12" id="h9" stroke="#000000"></path>
            <path d="M446.566444,3.05533376e-13 C368.54916,0.78200422 326.80243,1.89253829 321.326255,3.33160221 C315.260541,4.92558904 306.301317,7.61481285 303.071289,8.99497846 C300.008743,10.3035803 300.008743,14.8653884 304.2278,13.4066032 C308.446856,11.9478179 344.846881,8.49533782 368.622369,8.49533782 C392.397857,8.49533782 424.746105,5.75972874 436.381845,13.4066032 C444.139005,18.5045194 451.314327,23.2149647 457.907811,27.5379389 C449.557236,22.0397519 445.788621,12.860439 446.601966,3.05533376e-13" id="h6" stroke="#000000"></path>
            <path d="M585.845699,64.7624886 C526.241146,61.7879527 494.494091,59.8344913 490.604535,58.9021046 C486.714978,57.9697178 479.462033,56.9665865 468.845699,55.8927107 C461.341811,54.5513617 456.641932,55.554493 454.746061,58.9021046 C452.85019,62.2497161 448.811438,69.7913128 442.629803,81.5268945 C434.567385,98.7074962 437.515016,108.436967 451.472696,110.715307 C465.430377,112.993647 482.647917,112.037493 503.125316,107.846845 C529.16739,104.487636 549.381305,102.706037 563.767063,102.502048 C578.15282,102.298059 585.679032,102.122969 586.345699,101.976777" id="h10" stroke="#000000"></path>
            <path d="M386.73038,33.3325198 C349.158446,37.0824428 326.821075,38.9574043 319.718268,38.9574043 C312.615461,38.9574043 301.571241,39.2447349 286.585606,39.8193962 C280.198383,40.1985009 276.747072,43.3388033 276.231674,49.2403036 C275.716276,55.1418038 275.14925,64.1462996 274.530595,76.2537911 C273.911581,84.8722224 280.795238,88.7045836 295.181566,87.7508746 C316.761058,86.320311 354.75497,81.9831922 386.73038,80.9116034 C408.047319,80.1972108 419.391712,72.6686066 420.763557,58.3257908 C418.658325,40.0351463 411.858645,31.2969401 400.364518,32.111172 C388.870392,32.9254039 384.325679,33.3325198 386.73038,33.3325198 Z" id="h7" stroke="#000000"></path>
            <path d="M300.845699,117.044595 L293.717103,117.044595 C284.406839,118.927489 279.751707,124.482012 279.751707,133.708166 C279.751707,142.934319 279.751707,148.797587 279.751707,151.297968 C280.146521,162.187676 287.83999,167.63253 302.832112,167.63253 C325.320296,167.63253 327.530004,164.61311 358.106408,164.61311 C378.490677,164.61311 391.761414,164.167675 397.918619,163.276804 C413.842758,159.092299 421.804827,152.62575 421.804827,143.877155 C421.804827,135.12856 421.804827,129.895413 421.804827,128.177715 C418.934039,114.89115 410.97197,108.621549 397.918619,109.368911 C378.338593,110.489955 352.446544,114.917925 346.700268,114.917925 C340.953992,114.917925 327.825508,117.044595 318.248385,117.044595 C311.863636,117.044595 306.06274,117.044595 300.845699,117.044595 Z" id="h8" stroke="#000000"></path>
            <path d="M552.359972,157.360467 C557.915279,167.8799 560.285519,175.025788 559.470694,178.79813 C558.248456,184.456642 559.70026,200.475852 530.289856,200.475852 C510.682921,200.475852 488.316645,201.989656 463.191031,205.017263 C434.906049,208.394804 420.763557,203.706206 420.763557,190.951469 C420.763557,171.819364 445.306015,160.16438 451.394654,160.16438 C457.483294,160.16438 513.942009,159.125609 528.200592,157.360467 C537.706314,156.183705 545.75944,156.183705 552.359972,157.360467 Z" id="h11" stroke="#000000"></path>
            <path d="M301.873434,13.7689694 C289.298224,15.5139821 270.741265,16.3186177 264.083796,15.0437935 C257.426327,13.7689694 214.357704,17.464866 200.590016,20.3069345 C186.822328,23.149003 107.521181,39.5672499 80.0527747,56.6663639 C80.0527747,56.6663639 90.2629229,45.2120398 110.682698,38.5356272 C131.102473,31.8592146 188.568444,16.3186177 201.392487,15.0437935 C214.216529,13.7689694 244.871047,10.2889921 264.69155,9.70383164 C266.255468,9.43048408 272.78617,7.31508885 282.110717,10.0029707 C288.327082,11.7948919 295.111701,11.5205522 302.464575,9.17995167 C301.422625,10.3044967 300.90165,11.1726252 300.90165,11.7843373 C300.90165,12.7019054 300.90165,12.7019054 301.873434,13.7689694 Z" id="h3" stroke="#000000"></path>
            <path d="M142.225794,69.1789394 C123.407954,71.164853 114.756581,68.8559886 104.466793,85.1382007 C97.6069336,95.9930088 95.8985844,107.123946 99.3417451,118.531011 C104.535115,128.523744 114.573098,131.021927 129.455693,126.025561 C151.779584,118.531011 187.633745,109.309211 205.296481,109.309211 C222.959217,109.309211 246.516126,108.703555 246.516126,91.1311623 C246.516126,73.5587701 246.516126,49.7681817 221.371031,53.7385809 C181.152766,62.7082108 154.77102,67.854997 142.225794,69.1789394 Z" id="h4" stroke="#000000"></path>
            <path d="M237.78007,193.336272 C248.559188,192.1942 261.938696,189.349702 261.938696,172.100094 C261.938696,154.850486 254.654986,144.248453 237.062108,144.248453 C219.46923,144.248453 191.947884,160.164792 172.065934,160.164792 C152.183985,160.164792 122.979228,156.278778 122.979228,176.329961 C122.979228,196.381143 132.41476,204.788083 143.130229,203.977104 C153.845699,203.166124 180.122861,195.30988 200.28236,195.30988 C220.441859,195.30988 227.000952,194.478344 237.78007,193.336272 Z" id="h5" stroke="#000000"></path>
            <path d="M38.6024419,124.988013 C-6.66604482,199.149353 -2.16222992,242.927901 52.1138866,256.323656 C133.528061,276.417288 74.3768131,172.222677 82.7199119,142.997037 C88.2819778,123.513277 73.5761545,117.510268 38.6024419,124.988013 Z" id="h1"></path>
            <path d="M89.8101741,60.4663545 C91.6820926,59.7762465 93.6531281,60.9468209 95.7232808,63.9780778 C95.9968405,71.6345569 94.0258049,79.2335527 89.8101741,86.7750653 C83.486728,98.0873341 93.2227472,128.51755 81.659948,119.795809 C73.9514153,113.981314 60.9540085,113.621843 42.6677276,118.717395 C63.445549,86.1313157 77.0879346,67.8848766 83.5948843,63.9780778 C93.3553089,58.1178797 87.0022965,61.5015165 89.8101741,60.4663545 Z" id="h2"></path>
        </g>
    </g>
</svg>