<?xml version="1.0" encoding="UTF-8"?>
<svg width="590px" height="243px" viewBox="0 0 590 243" version="1.1" xmlns="http://www.w3.org/2000/svg" xmlns:xlink="http://www.w3.org/1999/xlink">
    <title>EVOLVBASIC</title>
    <g id="Page-1" stroke="none" stroke-width="1" fill="none" fill-rule="evenodd">
        <g id="EVOLVBASIC" transform="translate(0.913275, 1.131110)" fill="#FFFFFF" stroke="#000000">
            <path d="M588.086725,33.1660571 L12.8123423,33.1660571 L12.015967,105.87783 C10.9523536,113.6684 9.53273569,117.563685 7.75711312,117.563685 C5.98149055,117.563685 8.76785376,121.932791 16.1162028,130.671004 L16.1162028,157.135378 C16.1725685,161.436291 14.5976887,163.95606 11.3915634,164.694685 C8.18543808,165.433311 11.2363168,169.870636 20.5441995,178.006661 L20.5441995,207.252851 C20.5441995,211.248948 18.6841347,213.689436 14.9640053,214.574315 C11.2438758,215.459193 13.600165,218.94881 22.0328728,225.043165 L588.086725,226.262114" id="board"></path>
            <path d="M588.086725,238.381167 L12.7400263,240.049683 C8.5225246,240.217442 6.41377376,238.469522 6.41377376,234.805922 C6.41377376,231.142323 6.41377376,227.714199 6.41377376,224.521552 C7.08723913,220.480937 8.42742252,217.699416 10.4343239,216.176991 C12.4412253,214.654565 15.3329519,213.416744 19.1095037,212.463526 L588.086725,212.463526" id="h4"></path>
            <path d="M588.086725,181.539445 L11.0033002,181.539445 C7.10476667,181.227633 5.15549993,179.508701 5.15549993,176.382649 C5.15549993,173.256597 5.15549993,171.348908 5.15549993,170.659583 C6.95925418,165.549464 10.3627489,162.994405 15.3659841,162.994405 C20.3692192,162.994405 211.276133,162.994405 588.086725,162.994405" id="h3"></path>
            <path d="M588.086725,133.159958 L7.2206565,133.159958 C4.46470245,132.622287 3.08672542,130.427558 3.08672542,126.575771 C3.08672542,120.798091 4.17092058,115.80799 10.0051381,115.80799 C13.8946164,115.80799 206.588479,115.80799 588.086725,115.80799" id="h2"></path>
            <path d="M588.086725,87.6524889 L5.53827937,87.6524889 C1.85192172,87.7746905 0.00874288837,84.6564983 0.00874288837,78.2979123 C0.00874288837,68.7600333 -0.92895292,1.42108547e-14 16.6177244,1.42108547e-14 C28.3155093,1.42108547e-14 218.805176,1.42108547e-14 588.086725,1.42108547e-14" id="h1"></path>
        </g>
    </g>
</svg>