<?xml version="1.0" encoding="UTF-8"?>
<svg width="585px" height="301px" viewBox="0 0 585 301" version="1.1" xmlns="http://www.w3.org/2000/svg" xmlns:xlink="http://www.w3.org/1999/xlink">
    <title>EXPLORECLASSIC</title>
    <g id="Page-1" stroke="none" stroke-width="1" fill="none" fill-rule="evenodd">
        <g id="EXPLORECLASSIC" transform="translate(1.145397, 1.099069)" fill="#FFFFFF" stroke="#000000">
            <path d="M582.854603,299.208155 L30.8546032,299.208155 C19.818886,299.208155 13.6561817,287.510164 12.3664901,264.114181 C11.1430699,244.599064 7.02090648,167.641731 0,33.2421832 C0.1554023,24.4123262 5.33668674,18.2630999 15.5438533,14.7945042 C25.7510199,11.3259085 33.9205336,8.47351107 40.0523945,6.23731193 C42.8865816,5.16746466 45.9935721,4.63254103 49.373366,4.63254103 C52.75316,4.63254103 55.9762169,4.63254103 59.0425369,4.63254103 C64.9866141,4.55702124 69.3645793,6.40288626 72.1764324,10.1701361 C72.1764324,10.1701361 138.492144,10.1701361 271.123568,10.1701361 C272.824847,4.89839636 276.634122,2.2625265 282.551394,2.2625265 C288.468666,2.2625265 388.569735,1.508351 582.854603,2.27373675e-13" id="board"></path>
            <rect id="h14" x="440.854603" y="235.900931" width="73" height="41" rx="20.5"></rect>
            <rect id="h13" x="272.854603" y="235.900931" width="134" height="41" rx="20.5"></rect>
            <rect id="h12" x="165.854603" y="235.900931" width="73" height="41" rx="20.5"></rect>
            <rect id="h11" x="30.8546032" y="235.900931" width="101" height="41" rx="20.5"></rect>
            <path d="M582.854603,214.900931 L522.854603,214.900931 C511.256623,214.900931 501.854603,205.498911 501.854603,193.900931 L501.854603,173.900931 C501.854603,162.302951 511.256623,152.900931 522.854603,152.900931 L582.854603,152.900931" id="h10"></path>
            <rect id="h9" x="333.854603" y="167.900931" width="41" height="41" rx="20.5"></rect>
            <rect id="h8" x="198.854603" y="167.900931" width="101" height="41" rx="20.5"></rect>
            <rect id="h7" x="30.8546032" y="167.900931" width="134" height="41" rx="20.5"></rect>
            <path d="M582.854603,134.900931 L451.854603,134.900931 C441.913478,134.900931 433.854603,126.842057 433.854603,116.900931 L433.854603,111.900931 C433.854603,101.959806 441.913478,93.900931 451.854603,93.900931 L582.854603,93.900931" id="h6"></path>
            <rect id="h5" x="265.854603" y="93.900931" width="134" height="41" rx="20.5"></rect>
            <rect id="h4" x="130.854603" y="93.900931" width="101" height="41" rx="20.5"></rect>
            <rect id="h3" x="30.8546032" y="93.900931" width="66" height="41" rx="20.5"></rect>
            <path d="M582.854603,32.900931 L271.127665,32.900931 L271.127665,6.23731193 C271.127665,3.59747421 274.162042,2.27755535 280.230796,2.27755535 C286.299549,2.27755535 387.174152,1.51837024 582.854603,2.27373675e-13" id="h2"></path>
            <path d="M271.127665,32.900931 L71.8546032,32.900931 L71.8546032,10.1449939 L259.192179,10.1449939 C267.243206,10.4406864 271.268719,8.78854127 271.268719,5.18855839 C271.268719,5.18855839 271.221701,14.4260159 271.127665,32.900931 Z" id="h1"></path>
            <path d="M60.8468363,4.47029861 C67.1013643,4.47029861 70.7706199,6.3618637 71.8546032,10.1449939 L71.8546032,32.900931 C23.9900201,33.1217441 0.0577284955,33.2321506 0.0577284955,33.2321506 C0.0577284955,25.6848934 2.17614769,21.3415937 8.86000051,18.0680489 C13.3159024,15.8856858 24.5169405,11.8064453 42.4631147,5.83032761 C44.5752074,4.92364161 47.508519,4.47029861 51.2630495,4.47029861 C56.8948453,4.47029861 51.4650443,4.47029861 60.8468363,4.47029861 Z" id="h14"></path>
        </g>
    </g>
</svg>