<?xml version="1.0" encoding="UTF-8"?>
<svg width="639px" height="503px" viewBox="0 0 639 503" version="1.1" xmlns="http://www.w3.org/2000/svg" xmlns:xlink="http://www.w3.org/1999/xlink">
    <title>EXPRESSIONSCOMIX</title>
    <g id="Page-1" stroke="none" stroke-width="1" fill="none" fill-rule="evenodd">
        <g id="EXPRESSIONSCOMIX" transform="translate(1.707681, 1.712472)" fill="#FFFFFF">
            <path d="M636.292319,38.2552701 C562.947141,42.3182293 496.244494,50.76776 436.184376,63.6038621 C376.124259,76.4399642 335.581408,82.3383855 314.555823,81.2991259 C273.392934,81.7374032 230.618386,70.6221625 186.23218,47.9534039 C119.65287,13.950266 78.104156,-11.8824445 43.6982374,5.65011434 C20.7609584,17.3384869 9.29231893,35.3261047 9.29231893,59.6129679 C10.2826842,77.4016549 18.1560847,95.5017676 32.9125204,113.913306 C55.0471739,141.530613 55.6544052,154.841865 55.3507895,162.680225 C55.0471739,170.518584 49.0685818,188.051167 42.2718872,196.776944 C35.4751925,205.50272 16.1843729,230.244954 16.1843729,245.776211 C16.1843729,261.307469 22.1268033,265.900754 32.9125204,272.690614 C43.6982374,279.480475 79.2837067,294.194607 79.2837067,321.565898 C79.2837067,339.813425 66.4993083,355.570848 40.9305113,368.838168 C13.6435038,385.437124 0,404.360546 0,425.608434 C0,457.480265 26.3022906,492.614745 65.8250407,492.614745 C105.347791,492.614745 167.664167,461.893919 201.574421,461.893919 C224.181257,461.893919 250.11615,467.021867 279.3791,477.277762 C300.490169,484.316568 318.526174,487.835971 333.487116,487.835971 C348.448057,487.835971 370.062822,479.900475 398.33141,464.029484 C423.401712,454.205168 443.036811,449.293011 457.236706,449.293011 C478.536549,449.293011 522.219099,455.775932 554.073992,474.195338 C585.928884,492.614745 608.275941,499.942246 636.292319,499.942246" id="hangboard" stroke="#000000"></path>
            <path d="M636.292319,369.044644 C620.387568,367.080381 605.847668,364.545355 592.67262,361.439567 C579.497572,358.333779 561.399877,353.484582 538.379537,346.891976 C507.528297,338.959853 488.809455,341.377639 482.22301,354.145335 C472.343343,373.296877 474.744595,394.631781 496.607858,404.555447 C518.471121,414.479112 562.734952,432.730497 584.428226,435.437073 C598.890409,437.241456 616.17844,438.951176 636.292319,440.566233" id="h11" stroke="#000000"></path>
            <rect id="h10" stroke="#000000" transform="translate(338.292319, 386.287528) rotate(-10.000000) translate(-338.292319, -386.287528) " x="250.292319" y="353.287528" width="176" height="66" rx="33"></rect>
            <ellipse id="h9" stroke="#000000" transform="translate(87.292319, 404.787528) rotate(-21.000000) translate(-87.292319, -404.787528) " cx="87.2923189" cy="404.787528" rx="48" ry="36.5"></ellipse>
            <ellipse id="h8" stroke="#000000" transform="translate(549.292319, 273.287528) rotate(10.000000) translate(-549.292319, -273.287528) " cx="549.292319" cy="273.287528" rx="69" ry="41"></ellipse>
            <rect id="h7" stroke="#000000" x="261.292319" y="260.287528" width="176" height="66" rx="33"></rect>
            <ellipse id="h6" stroke="#000000" transform="translate(147.958676, 302.214572) rotate(-14.000000) translate(-147.958676, -302.214572) " cx="147.958676" cy="302.214572" rx="46" ry="39.5"></ellipse>
            <path d="M636.292319,93.2344712 C567.140195,100.1115 532.564133,123.17674 532.564133,162.430192 C532.564133,201.683645 567.140195,221.411079 636.292319,221.612496" id="h5" stroke="#000000"></path>
            <rect id="h4" stroke="#000000" transform="translate(409.292319, 189.787528) rotate(-11.000000) translate(-409.292319, -189.787528) " x="335.292319" y="156.287528" width="148" height="67" rx="33"></rect>
            <ellipse id="h3" stroke="#000000" cx="232.792319" cy="181.787528" rx="78.5" ry="39.5"></ellipse>
            <ellipse id="h2" stroke="#000000" cx="95.7923189" cy="213.787528" rx="39.5" ry="36.5"></ellipse>
            <path d="M41.3463112,14.9105998 C6.72467437,40.6028655 14.2076396,63.9634009 23.5552372,84.5401455 C29.7869689,98.2579752 42.2582643,115.07632 60.9691233,134.99518 C69.1015383,142.159228 76.9385079,143.089038 84.4800323,137.78461 C92.0215567,132.480182 123.756647,108.13564 179.685304,64.7509825 C186.639456,60.1833851 185.958389,55.852626 177.642103,51.7587054 C165.167675,45.6178243 75.967948,-10.781666 41.3463112,14.9105998 Z" id="h1" stroke="#FFFFFF"></path>
        </g>
    </g>
</svg>