<?xml version="1.0" encoding="UTF-8"?>
<svg width="336px" height="94px" viewBox="0 0 336 94" version="1.1" xmlns="http://www.w3.org/2000/svg" xmlns:xlink="http://www.w3.org/1999/xlink">
    <title>FINGERSCHINDERPLUS</title>
    <g id="Page-1" stroke="none" stroke-width="1" fill="none" fill-rule="evenodd">
        <g id="FINGERSCHINDERPLUS" transform="translate(1.000000, 1.000000)" stroke="#000000">
            <path d="M335,92 L45,92 C20.1471863,92 0,71.8528137 0,47 L0,45 C0,20.1471863 20.1471863,0 45,0 L335,0" id="board" fill="#FFFFFF"></path>
            <path d="M335,62 L334.840942,62 L47,62 C37.0588745,62 29,53.9411255 29,44 C29,34.0588745 37.0588745,26 47,26 L335,26" id="h1" fill="#BBBBBB"></path>
            <rect id="h2" fill="#DDDDDD" x="80" y="30" width="112" height="28" rx="14"></rect>
            <rect id="h3" fill="#CCCCCC" x="194" y="30" width="112" height="28" rx="14"></rect>
            <path d="M335,58 L329,58 C321.268014,58 315,51.7319865 315,44 C315,36.2680135 321.268014,30 329,30 L335,30" id="hole" fill="#FFFFFF"></path>
            <rect id="hole" fill="#FFFFFF" x="32" y="30" width="39" height="28" rx="14"></rect>
        </g>
    </g>
</svg>