<?xml version="1.0" encoding="UTF-8"?>
<svg width="1326px" height="464px" viewBox="0 0 1326 464" version="1.1" xmlns="http://www.w3.org/2000/svg" xmlns:xlink="http://www.w3.org/1999/xlink">
    <title>FRICTITIOUSEASY-180</title>
    <g id="Page-1" stroke="none" stroke-width="1" fill="none" fill-rule="evenodd">
        <g id="FRICTITIOUSEASY-180" transform="translate(663.409331, 232.194232) scale(1, -1) translate(-663.409331, -232.194232) translate(0.818663, 1.314053)" fill="#FFFFFF" stroke="#000000">
            <path d="M1325.18134,0 L37.1813373,0 C18.9198879,3.32980208 8.19959106,18.2743815 5.02044663,44.8337383 C1.84130221,71.3930951 0.167819994,96.371021 0,119.767516 C0.329339098,138.632068 12.7231182,148.064344 37.1813373,148.064344 C61.6395564,148.064344 490.97289,148.064344 1325.18134,148.064344" id="Path-2"></path>
            <polyline id="Path-3" points="1325.18134 148.064344 37.1813373 148.064344 37.1813373 376.181846 1325.18134 376.181846"></polyline>
            <path d="M1325.18134,376.181846 L37.1813373,376.181846 C17.7550381,376.181846 7.47500854,379.84985 6.34124855,387.185859 C5.20748857,394.521867 4.25616314,412.896526 3.48727227,442.309836 C2.64923954,455.276851 9.0640219,461.760359 22.7316194,461.760359 C36.3992168,461.760359 470.549123,461.760359 1325.18134,461.760359" id="Path"></path>
        </g>
    </g>
</svg>