<?xml version="1.0" encoding="UTF-8"?>
<svg width="563px" height="351px" viewBox="0 0 563 351" version="1.1" xmlns="http://www.w3.org/2000/svg" xmlns:xlink="http://www.w3.org/1999/xlink">
    <title>FRICTITIOUSMONO</title>
    <g id="Page-1" stroke="none" stroke-width="1" fill="none" fill-rule="evenodd">
        <g id="FRICTITIOUSMONO" transform="translate(1.123493, 1.328555)" fill="#FFFFFF" stroke="#000000">
            <path d="M561.874859,303.51725 L446.876507,303.51725 C432.135458,304.049204 424.764934,308.836932 424.764934,317.880436 C424.764934,317.880436 417.735825,317.880436 403.677607,317.880436 L403.677607,117.104169 L561.874859,117.104169" id="board"></path>
            <path d="M416.876507,208.671445 C416.884946,215.01782 416.884946,227.290145 416.876507,245.48842 C416.863848,272.785832 424.764934,258.509309 424.764934,286.359187 C424.764934,304.925773 424.764934,316.656107 424.764934,321.550189 C423.505982,339.715426 413.543173,348.798045 394.876507,348.798045 C376.20984,348.798045 263.408558,347.98422 56.4726595,346.356571 C20.6802962,346.72409 2.78411449,327.784666 2.78411449,289.538301 C2.78411449,232.168754 22.6070623,232.168754 33.9438188,232.168754 C45.2805753,232.168754 233.764278,245.394925 249.49895,245.011882 C265.233621,244.62884 260.876507,230.223446 289.924567,230.223446 C318.972628,230.223446 359.226374,230.223446 388.057769,230.223446 C407.2787,230.223446 416.884946,223.039445 416.876507,208.671445 Z" id="board"></path>
            <path d="M561.876507,27.4253365 L48.3719383,27.4253365 C17.7843405,31.099415 2.07854494,44.4149387 1.25455142,67.3719076 C0.828762154,79.2346601 1.25455142,88.7001575 1.25455142,97.7350519 C1.25455142,112.671445 8.56944549,130.525884 24.9979502,130.525884 C49.052466,130.525884 378.867854,131.691608 404.104859,130.525884 C429.341864,129.36016 414.140622,117.104169 449.020356,117.104169 C472.273511,117.104169 509.892228,117.104169 561.876507,117.104169" id="board"></path>
            <path d="M449.020356,117.104169 C427.079945,117.104169 416.365329,128.959928 416.876507,152.671445 C416.876507,180.51267 416.876507,202.825089 416.876507,219.608702 C416.876507,236.392314 406.164198,244.321061 384.739579,243.394941 C309.259745,243.787077 263.875455,244.330516 248.58671,245.025259 C225.653593,246.067372 120.682664,245.025259 45.8765067,245.025259 C-24.5132264,245.025259 0.943434278,130.525884 24.9979502,130.525884 C49.052466,130.525884 378.867854,131.691608 404.104859,130.525884 C429.341864,129.36016 414.140622,117.104169 449.020356,117.104169 C472.273511,117.104169 509.892228,117.104169 561.876507,117.104169 C508.579483,117.104169 470.960766,117.104169 449.020356,117.104169 Z" id="board"></path>
            <path d="M561.874859,245.48842 L489.876507,245.671445 C481.039951,245.671445 473.876507,238.508001 473.876507,229.671445 L473.876507,205.671445 C473.876507,196.834889 481.039951,189.671445 489.876507,189.671445 L561.874859,189.48842" id="h8"></path>
            <rect id="h6" x="46.3765067" y="261.171445" width="346" height="55" rx="16"></rect>
            <rect id="h7" x="220.376507" y="261.171445" width="172" height="55" rx="16"></rect>
            <rect id="h4" x="37.3765067" y="153.171445" width="346" height="55" rx="16"></rect>
            <rect id="h5" x="211.376507" y="153.171445" width="172" height="55" rx="16"></rect>
            <rect id="h2" x="31.3765067" y="57.171445" width="346" height="55" rx="16"></rect>
            <rect id="h3" x="205.376507" y="57.171445" width="172" height="55" rx="16"></rect>
            <path d="M561.876507,27.4253512 C224.634611,27.4253512 53.4664217,27.4253512 48.3719383,27.4253512 C40.7302131,27.4253512 6.55466534,32.9495995 1.25455142,67.3719076 C1.25455142,67.3719076 9.28952812,0 66.3719383,0 C104.426878,0 269.595068,0 561.876507,0" id="h1"></path>
        </g>
    </g>
</svg>