<?xml version="1.0" encoding="UTF-8"?>
<svg width="680px" height="351px" viewBox="0 0 680 351" version="1.1" xmlns="http://www.w3.org/2000/svg" xmlns:xlink="http://www.w3.org/1999/xlink">
    <title>FRICTITIOUSMEGA</title>
    <g id="Page-1" stroke="none" stroke-width="1" fill="none" fill-rule="evenodd">
        <g id="FRICTITIOUSMEGA" transform="translate(1.325366, 1.328555)" fill="#FFFFFF" stroke="#000000">
            <path d="M677.672987,303.51725 L562.674634,303.51725 C547.933585,304.049204 540.563061,308.836932 540.563061,317.880436 C540.563061,317.880436 533.533952,317.880436 519.475734,317.880436 L519.475734,117.104169 L677.672987,117.104169" id="board"></path>
            <path d="M532.687292,208.671445 C532.687292,215.01782 532.683073,227.290145 532.674634,245.48842 C532.661976,272.785832 540.563061,258.509309 540.563061,286.359187 C540.563061,304.925773 540.563061,316.656107 540.563061,321.550189 C539.30411,339.715426 529.341301,348.798045 510.674634,348.798045 C492.007967,348.798045 344.919166,348.798045 69.4082314,348.798045 C35.5709933,347.331523 18.6523743,331.859318 18.6523743,302.38143 C18.6523743,272.903541 22.1814991,256.669031 29.2397487,253.677898 C31.5137291,249.674272 32.6507192,246.288697 32.6507192,243.521172 C32.6507192,243.521172 38.475322,245.011882 49.8120785,245.011882 C61.148835,245.011882 349.562405,245.394925 365.297077,245.011882 C381.031748,244.62884 376.674634,230.223446 405.722695,230.223446 C434.770755,230.223446 475.024501,230.223446 503.855897,230.223446 C523.076827,230.223446 532.687292,223.039445 532.687292,208.671445 Z" id="board"></path>
            <path d="M677.674634,27.4253365 L54.674634,27.4253365 C24.1680269,29.3063793 8.46223128,42.621903 7.55724712,67.3719076 C6.80365184,87.9816457 6.80365184,95.2917327 7.55724712,106.023464 C8.60160516,120.895862 11.0256591,130.525884 24.9979502,130.525884 C49.052466,130.525884 494.665981,131.691608 519.902986,130.525884 C545.139991,129.36016 529.938749,117.104169 564.818483,117.104169 C588.071639,117.104169 625.690356,117.104169 677.674634,117.104169" id="board"></path>
            <path d="M564.818483,117.104169 C542.878073,117.104169 532.163456,128.959928 532.674634,152.671445 C532.674634,171.754678 532.674634,189.688101 532.674634,206.471713 C532.674634,223.255325 521.962325,231.184072 500.537707,230.257953 C477.579477,230.257953 449.62512,230.257953 416.674634,230.257953 C367.248905,230.257953 387.317955,243.983145 364.384837,245.025259 C341.45172,246.067372 120.682664,245.025259 45.8765067,245.025259 C-24.5132264,245.025259 0.943434278,130.525884 24.9979502,130.525884 C49.052466,130.525884 494.665981,131.691608 519.902986,130.525884 C545.139991,129.36016 529.938749,117.104169 564.818483,117.104169 C588.071639,117.104169 625.690356,117.104169 677.674634,117.104169 C624.37761,117.104169 586.758893,117.104169 564.818483,117.104169 Z" id="board"></path>
            <path d="M677.672987,245.48842 L605.674634,245.671445 C596.838078,245.671445 589.674634,238.508001 589.674634,229.671445 L589.674634,205.671445 C589.674634,196.834889 596.838078,189.671445 605.674634,189.671445 L677.672987,189.48842" id="h10"></path>
            <circle id="h9" cx="460.174634" cy="300.171445" r="22"></circle>
            <path d="M360.674634,267.171445 C364.954841,267.171445 368.829841,268.906342 371.634789,271.71129 C374.439737,274.516238 376.174634,278.391238 376.174634,282.671445 L376.174634,306.671445 C376.174634,310.951652 374.439737,314.826652 371.634789,317.6316 C368.829841,320.436548 364.954841,322.171445 360.674634,322.171445 L70.674634,322.171445 C66.3944271,322.171445 62.5194271,320.436548 59.7144788,317.6316 C56.9095305,314.826652 55.174634,310.951652 55.174634,306.671445 L55.174634,282.671445 C55.174634,278.391238 56.9095305,274.516238 59.7144788,271.71129 C62.5194271,268.906342 66.3944271,267.171445 70.674634,267.171445 Z" id="h7"></path>
            <path d="M360.674634,266.901871 C364.954841,266.901871 368.829841,268.636768 371.634789,271.441716 C374.439737,274.246664 376.174634,278.121664 376.174634,282.401871 L376.174634,306.401871 C376.174634,310.682078 374.439737,314.557078 371.634789,317.362026 C368.829841,320.166974 364.954841,321.901871 360.674634,321.901871 L230.674634,321.901871 C226.394427,321.901871 222.519427,320.166974 219.714479,317.362026 C216.909531,314.557078 215.174634,310.682078 215.174634,306.401871 L215.174634,282.401871 C215.174634,278.121664 216.909531,274.246664 219.714479,271.441716 C222.519427,268.636768 226.394427,266.901871 230.674634,266.901871 Z" id="h8"></path>
            <path d="M477.674634,153.171445 C481.954841,153.171445 485.829841,154.906342 488.634789,157.71129 C491.439737,160.516238 493.174634,164.391238 493.174634,168.671445 L493.174634,192.671445 C493.174634,196.951652 491.439737,200.826652 488.634789,203.6316 C485.829841,206.436548 481.954841,208.171445 477.674634,208.171445 L434.399921,208.171445 L423.322734,193.370213 L365.378662,193.370213 C365.482881,198.371396 364.037568,202.1189 360.986679,204.582106 C358.001048,206.992624 353.514807,208.171445 347.551339,208.171445 L59.674634,208.171445 C55.3944271,208.171445 51.5194271,206.436548 48.7144788,203.6316 C45.9095305,200.826652 44.174634,196.951652 44.174634,192.671445 L44.174634,168.671445 C44.174634,164.391238 45.9095305,160.516238 48.7144788,157.71129 C51.5194271,154.906342 55.3944271,153.171445 59.674634,153.171445 Z" id="h5"></path>
            <path d="M477.674634,153.171445 C481.954841,153.171445 485.829841,154.906342 488.634789,157.71129 C491.439737,160.516238 493.174634,164.391238 493.174634,168.671445 L493.174634,192.671445 C493.174634,196.951652 491.439737,200.826652 488.634789,203.6316 C485.829841,206.436548 481.954841,208.171445 477.674634,208.171445 L434.399921,208.171445 L423.322734,193.370213 L365.378662,193.370213 C365.482881,198.371396 364.037568,202.1189 360.986679,204.582106 C358.001048,206.992624 353.514807,208.171445 347.551339,208.171445 L230.674634,208.171445 C226.394427,208.171445 222.519427,206.436548 219.714479,203.6316 C216.909531,200.826652 215.174634,196.951652 215.174634,192.671445 L215.174634,168.671445 C215.174634,164.391238 216.909531,160.516238 219.714479,157.71129 C222.519427,154.906342 226.394427,153.171445 230.674634,153.171445 Z" id="h6"></path>
            <rect id="h2" x="44.174634" y="57.171445" width="488" height="55" rx="16"></rect>
            <rect id="h3" x="215.174634" y="57.171445" width="317" height="55" rx="16"></rect>
            <rect id="h4" x="377.174634" y="57.171445" width="155" height="55" rx="16"></rect>
            <path d="M677.674634,27.4253512 C267.435784,27.4253512 59.7691174,27.4253512 54.674634,27.4253512 C47.0329088,27.4253512 12.857361,32.9495995 7.55724712,67.3719076 C7.55724712,67.3719076 15.5922238,0 72.674634,0 C110.729574,0 312.396241,0 677.674634,0" id="h1"></path>
        </g>
    </g>
</svg>