<?xml version="1.0" encoding="UTF-8"?>
<svg width="662px" height="325px" viewBox="0 0 662 325" version="1.1" xmlns="http://www.w3.org/2000/svg" xmlns:xlink="http://www.w3.org/1999/xlink">
    <title>GETOUTB08Z5WPFPS</title>
    <g id="Page-1" stroke="none" stroke-width="1" fill="none" fill-rule="evenodd">
        <g id="GETOUTB08Z5WPFPS" transform="translate(1.328001, 0.994367)" fill="#FFFFFF">
            <path d="M660.671999,323.363746 L370.785909,323.363746 C357.24295,323.099375 345.972453,319.400041 336.974417,312.265744 C327.976381,305.131447 319.790241,298.277888 312.415996,291.705068 C305.851902,282.572111 309.256322,278.005633 322.629258,278.005633 C336.002193,278.005633 387.976811,278.005633 478.553112,278.005633 L476.671999,222.005633 L151.671999,222.005633 C145.399207,216.364025 141.252632,211.687335 139.232273,207.975564 C137.211914,204.263792 126.381333,181.940482 106.740529,141.005633 C106.074771,138.899989 104.043867,136.761923 100.647818,134.591436 C97.2517696,132.420948 84.5666207,125.517889 62.5923716,113.882258 C57.1070714,110.128769 53.1433836,106.338816 50.701308,102.5124 C48.2592324,98.6859827 33.108837,75.2864049 5.2501219,32.3136661 C-6.79519847,10.771222 1.88610602,0 31.2940354,0 C60.7019647,0 195.821904,0 436.653854,0 C445.243407,0.74999578 455.663844,7.93843355 467.915166,21.5653133 C486.292149,42.005633 523.631,67.6577746 571.671999,68.8317038 C603.699331,69.6143232 633.365998,70.005633 660.671999,70.005633" id="board" stroke="#000000"></path>
            <path d="M476.671999,222.005633 C492.135972,222.005633 504.671999,234.54166 504.671999,250.005633 C504.671999,265.469606 492.135972,278.005633 476.671999,278.005633 L309.834301,278.005633 C279.084241,275.902973 258.369676,268.402266 247.690605,255.503513 C231.671999,236.155384 193.485766,235.158799 179.780391,233.374302 C170.643475,232.184636 161.27401,228.39508 151.671999,222.005633 L476.671999,222.005633 Z" id="h9" stroke="#000000"></path>
            <path d="M660.671999,202.005633 L608.671999,202.005633 C588.237463,202.005633 571.671999,185.440169 571.671999,165.005633 C571.671999,144.571097 588.237463,128.005633 608.671999,128.005633 L660.671999,128.005633" id="h8" stroke="#000000"></path>
            <rect id="h7" stroke="#000000" x="358.171999" y="141.505633" width="99" height="55" rx="27.5"></rect>
            <rect id="h6" stroke="#000000" x="232.171999" y="141.505633" width="108" height="55" rx="27.5"></rect>
            <rect id="h5" stroke="#000000" x="152.171999" y="141.505633" width="62" height="55" rx="27.5"></rect>
            <rect id="h4" stroke="#000000" x="287.171999" y="42.505633" width="158" height="55" rx="27.5"></rect>
            <rect id="h3" stroke="#000000" x="67.1719987" y="42.505633" width="184" height="55" rx="27.5"></rect>
            <path d="M660.671999,71.5130308 L602.255247,71.5130308 C570.520576,71.5130308 547.009986,68.9284618 531.723476,63.759324 C516.436967,58.5901861 503.753141,52.4570088 493.671999,45.359792 L493.671999,66.8770946 C506.397899,75.1975382 519.081725,80.7657262 531.723476,83.5816587 C550.686103,87.8055573 587.486792,90.3861821 602.255247,90.3861821 C612.100884,90.3861821 631.573134,90.3861821 660.671999,90.3861821" id="h2" stroke="#FFFFFF"></path>
            <path d="M476.14486,32.3136661 C476.14486,32.3136661 319.87611,32.3136661 7.33860858,32.3136661 C-4.57737409,11.6469994 4.01071412,1.31366608 33.1028732,1.31366608 C62.1950323,1.31366608 195.86411,1.31366608 434.110105,1.31366608 C440.399304,1.84620036 442.956727,1.84620036 457.063272,13.7648196 C462.250338,18.1473715 466.739467,24.2712003 476.14486,32.3136661 Z" id="h1" stroke="#FFFFFF"></path>
        </g>
    </g>
</svg>