<?xml version="1.0" encoding="UTF-8"?>
<svg width="677.025593px" height="325.278247px" viewBox="0 0 677.025593 325.278247" version="1.1" xmlns="http://www.w3.org/2000/svg" xmlns:xlink="http://www.w3.org/1999/xlink">
    <title>GRIPWORKSBASEPLUS</title>
    <g id="Page-1" stroke="none" stroke-width="1" fill="none" fill-rule="evenodd">
        <g id="GRIPWORKSBASEPLUS" transform="translate(0.5131, 0.5)" fill="#FFFFFF" stroke="#000000">
            <path d="M676.512027,75.5731788 C225.567051,75.5731788 0.0945625734,75.5731788 0.0945625734,75.5731788 C0.0945625734,75.5731788 -4.21444566,0 45.3425309,0 C78.3805152,0 288.770347,0 676.512027,0" id="h1"></path>
            <polyline id="board" fill-rule="nonzero" points="676.512027 318.274666 381.513733 318.274666 519.405415 230.262133 676.512027 230.262133"></polyline>
            <path d="M676.512027,240.898547 L523.914992,240.898547 C517.542573,240.77705 512.421567,243.409082 508.551976,248.794641 L507.779499,249.892197 C503.171511,256.370952 488.174022,275.795254 462.787032,308.165104 C454.706643,318.907199 438.465705,324.278247 414.37324,324.278247 L46.4845855,324.278247 C15.5579036,319.176509 0.0945625734,306.555392 0.0945625734,286.414895 L0.0945625734,215.000747 L0.0945625734,120.712494 C0.0945625734,76.0143823 0.0945625734,75.5731788 0.0945625734,75.5731788 C0.0945625734,75.5731788 0.0945625734,33.0474917 46.4845855,33.0474917 L676.512027,33.0474917" id="board" fill-rule="nonzero"></path>
            <path d="M676.512027,292.036843 L520.662515,292.036843 C505.750826,292.036843 493.662515,282.079768 493.662515,268.820361 L507.573409,251.543257 C511.761431,244.601755 517.990279,241.131005 526.259952,241.131005 C534.529626,241.131005 500.579736,240.753545 676.512027,240.598573" id="h13" fill-rule="nonzero"></path>
            <path d="M442.08817,239.536843 C446.830665,239.536843 451.124189,241.459119 454.232088,244.567019 C457.339988,247.674918 459.262264,251.968442 459.262264,256.710937 C459.262264,259.913612 458.366727,263.052482 456.676805,265.773013 L447.82706,280.019824 C442.992159,287.803316 434.479394,292.536843 425.316479,292.536843 L378.731213,292.536843 C371.41344,292.536843 364.78844,289.570729 359.992883,284.775173 C355.197326,279.979616 352.231213,273.354616 352.231213,266.036843 C352.231213,258.71907 355.197326,252.09407 359.992883,247.298513 C364.78844,242.502957 371.41344,239.536843 378.731213,239.536843 L442.08817,239.536843 Z" id="h12" fill-rule="nonzero"></path>
            <path d="M302.096137,238.536843 C309.41391,238.536843 316.03891,241.502957 320.834466,246.298513 C325.630023,251.09407 328.596137,257.71907 328.596137,265.036843 C328.596137,272.354616 325.630023,278.979616 320.834466,283.775173 C316.03891,288.570729 309.41391,291.536843 302.096137,291.536843 L45.1127077,291.536843 C37.7949347,291.536843 31.1699347,288.570729 26.374378,283.775173 C21.5788212,278.979616 18.6127077,272.354616 18.6127077,265.036843 C18.6127077,257.71907 21.5788212,251.09407 26.374378,246.298513 C31.1699347,241.502957 37.7949347,238.536843 45.1127077,238.536843 L302.096137,238.536843 Z" id="h10" fill-rule="nonzero"></path>
            <path d="M154.416789,238.536843 C161.734562,238.536843 168.359562,241.502957 173.155118,246.298513 C177.950675,251.09407 180.916789,257.71907 180.916789,265.036843 C180.916789,272.354616 177.950675,278.979616 173.155118,283.775173 C168.359562,288.570729 161.734562,291.536843 154.416789,291.536843 L45.1127077,291.536843 C37.7949347,291.536843 31.1699347,288.570729 26.374378,283.775173 C21.5788212,278.979616 18.6127077,272.354616 18.6127077,265.036843 C18.6127077,257.71907 21.5788212,251.09407 26.374378,246.298513 C31.1699347,241.502957 37.7949347,238.536843 45.1127077,238.536843 L154.416789,238.536843 Z" id="h11" fill-rule="nonzero"></path>
            <path d="M676.512027,208.036843 L537.506592,208.036843 C522.594904,208.036843 510.506592,195.948531 510.506592,181.036843 C510.506592,166.125155 522.594904,154.036843 537.506592,154.036843 L676.512027,154.036843" id="h8" fill-rule="nonzero"></path>
            <path d="M675.112707,208.036843 L611.112707,208.036843 C596.201019,208.036843 584.112707,195.948531 584.112707,181.036843 C584.112707,166.125155 596.201019,154.036843 611.112707,154.036843 L675.112707,154.036843" id="h9" fill-rule="nonzero"></path>
            <path d="M540.84763,153.536843 C548.165402,153.536843 554.790402,156.502957 559.585959,161.298513 C564.381516,166.09407 567.34763,172.71907 567.34763,180.036843 C567.34763,187.354616 564.381516,193.979616 559.585959,198.775173 C554.790402,203.570729 548.165402,206.536843 540.84763,206.536843 L536.731213,206.536843 C529.41344,206.536843 522.78844,203.570729 517.992883,198.775173 C513.197326,193.979616 510.231213,187.354616 510.231213,180.036843 C510.231213,172.71907 513.197326,166.09407 517.992883,161.298513 C522.78844,156.502957 529.41344,153.536843 536.731213,153.536843 L540.84763,153.536843 Z" id="h7" fill-rule="nonzero"></path>
            <path d="M458.856147,154.550129 C466.17392,154.550129 472.79892,157.516243 477.594476,162.311799 C482.390033,167.107356 485.356147,173.732356 485.356147,181.050129 C485.356147,188.367902 482.390033,194.992902 477.594476,199.788459 C472.79892,204.584015 466.17392,207.550129 458.856147,207.550129 L45.1127077,207.536843 C37.7949347,207.536843 31.1699347,204.570729 26.374378,199.775173 C21.5788212,194.979616 18.6127077,188.354616 18.6127077,181.036843 C18.6127077,173.71907 21.5788212,167.09407 26.374378,162.298513 C31.1699347,157.502957 37.7949347,154.536843 45.1127077,154.536843 L458.856147,154.550129 Z" id="h6" fill-rule="nonzero"></path>
            <path d="M302.096137,154.550129 C309.41391,154.550129 316.03891,157.516243 320.834466,162.311799 C325.630023,167.107356 328.596137,173.732356 328.596137,181.050129 C328.596137,188.367902 325.630023,194.992902 320.834466,199.788459 C316.03891,204.584015 309.41391,207.550129 302.096137,207.550129 L45.1127077,207.536843 C37.7949347,207.536843 31.1699347,204.570729 26.374378,199.775173 C21.5788212,194.979616 18.6127077,188.354616 18.6127077,181.036843 C18.6127077,173.71907 21.5788212,167.09407 26.374378,162.298513 C31.1699347,157.502957 37.7949347,154.536843 45.1127077,154.536843 L302.096137,154.550129 Z" id="h5" fill-rule="nonzero"></path>
            <path d="M151.313275,154.536843 C158.631048,154.536843 165.256048,157.502957 170.051604,162.298513 C174.847161,167.09407 177.813275,173.71907 177.813275,181.036843 C177.813275,188.354616 174.847161,194.979616 170.051604,199.775173 C165.256048,204.570729 158.631048,207.536843 151.313275,207.536843 L45.1127077,207.536843 C37.7949347,207.536843 31.1699347,204.570729 26.374378,199.775173 C21.5788212,194.979616 18.6127077,188.354616 18.6127077,181.036843 C18.6127077,173.71907 21.5788212,167.09407 26.374378,162.298513 C31.1699347,157.502957 37.7949347,154.536843 45.1127077,154.536843 L151.313275,154.536843 Z" id="h4" fill-rule="nonzero"></path>
            <path d="M676.512027,124.036843 L67.2096025,124.036843 C58.3195325,124.036843 51.1127075,117.097257 51.1127075,108.536843 C51.1127075,99.9764287 58.3195325,93.0368427 67.2096025,93.0368427 L676.512027,93.0368427" id="h2" fill-rule="nonzero"></path>
            <path d="M676.512027,124.036843 L293.932012,124.036843 C285.041943,124.036843 277.835118,117.097257 277.835118,108.536843 C277.835118,99.9764287 285.041943,93.0368427 293.932012,93.0368427 L676.512027,93.0368427" id="h3" fill-rule="nonzero"></path>
        </g>
    </g>
</svg>