<?xml version="1.0" encoding="UTF-8"?>
<svg width="659px" height="334px" viewBox="0 0 659 334" version="1.1" xmlns="http://www.w3.org/2000/svg" xmlns:xlink="http://www.w3.org/1999/xlink">
    <title>GRIPWORKSSUMMIT</title>
    <g id="Page-1" stroke="none" stroke-width="1" fill="none" fill-rule="evenodd">
        <g id="GRIPWORKSSUMMIT" transform="translate(1.446469, 0.704172)" fill="#FFFFFF" stroke="#000000">
            <polyline id="board" points="657.553531 332.533651 415.933789 332.533651 497.996234 244.521118 657.553531 244.521118"></polyline>
            <path d="M657.553531,108.493619 L0.044062702,108.493619 L0.044062702,203.764873 C-0.99979655,230.935703 16.5033594,244.521118 52.5535305,244.521118 C88.6037017,244.521118 290.270368,244.521118 657.553531,244.521118" id="board"></path>
            <line x1="657.553531" y1="244.521118" x2="569.239233" y2="244.521118" id="board"></line>
            <path d="M657.291126,244.521118 C268.832794,244.521118 67.2535955,244.521118 52.5535305,244.521118 C37.8534655,244.521118 25.5834548,242.009467 15.7434983,236.986165 C15.7434983,260.74312 15.7434983,282.691846 15.7434983,302.832343 C15.7434983,322.97284 28.013509,332.870363 52.5535305,332.524913 C269.782313,332.524913 390.442936,332.524913 414.5354,332.524913 C438.627865,332.524913 454.714292,327.153865 462.79468,316.41177 C487.843967,286.701389 502.317671,269.03372 506.215792,263.408762 C510.113913,257.783804 515.318448,255.033394 521.829399,255.157532 L657.553531,255.157532" id="board"></path>
            <path d="M657.553531,306.295828 L517.553531,306.295828 C502.641842,306.295828 490.553531,296.338753 490.553531,283.079346 L504.464425,265.802242 C508.652447,258.860741 514.881295,255.38999 523.150968,255.38999 C531.420642,255.38999 576.221496,255.312504 657.553531,255.157532" id="h14"></path>
            <path d="M441.528994,252.795828 C446.271489,252.795828 450.565012,254.718104 453.672912,257.826004 C456.780811,260.933903 458.703087,265.227427 458.703087,269.969922 C458.703087,273.172597 457.807551,276.311467 456.117628,279.031998 L447.267883,293.27881 C442.432982,301.062302 433.920218,305.795828 424.757303,305.795828 L385.553531,305.795828 C378.235758,305.795828 371.610758,302.829715 366.815201,298.034158 C362.019644,293.238601 359.053531,286.613601 359.053531,279.295828 C359.053531,271.978055 362.019644,265.353055 366.815201,260.557499 C371.610758,255.761942 378.235758,252.795828 385.553531,252.795828 Z" id="h13"></path>
            <path d="M305.612374,252.795828 C312.930147,252.795828 319.555147,255.761942 324.350703,260.557499 C329.14626,265.353055 332.112374,271.978055 332.112374,279.295828 C332.112374,286.613601 329.14626,293.238601 324.350703,298.034158 C319.555147,302.829715 312.930147,305.795828 305.612374,305.795828 L53.5535305,305.795828 C46.2357576,305.795828 39.6107576,302.829715 34.8152008,298.034158 C30.0196441,293.238601 27.0535305,286.613601 27.0535305,279.295828 C27.0535305,271.978055 30.0196441,265.353055 34.8152008,260.557499 C39.6107576,255.761942 46.2357576,252.795828 53.5535305,252.795828 Z" id="h12"></path>
            <path d="M162.857612,252.795828 C170.175385,252.795828 176.800385,255.761942 181.595942,260.557499 C186.391498,265.353055 189.357612,271.978055 189.357612,279.295828 C189.357612,286.613601 186.391498,293.238601 181.595942,298.034158 C176.800385,302.829715 170.175385,305.795828 162.857612,305.795828 L53.5535305,305.795828 C46.2357576,305.795828 39.6107576,302.829715 34.8152008,298.034158 C30.0196441,293.238601 27.0535305,286.613601 27.0535305,279.295828 C27.0535305,271.978055 30.0196441,265.353055 34.8152008,260.557499 C39.6107576,255.761942 46.2357576,252.795828 53.5535305,252.795828 Z" id="h11"></path>
            <path d="M657.553531,216.295828 L610.553531,216.295828 C595.641842,216.295828 583.553531,204.207516 583.553531,189.295828 C583.553531,174.38414 595.641842,162.295828 610.553531,162.295828 L657.553531,162.295828" id="h10"></path>
            <path d="M528.065548,162.795828 C533.476986,162.795828 538.376123,164.989247 541.922401,168.535525 C545.468679,172.081803 547.662098,176.98094 547.662098,182.392378 L547.662098,196.199278 C547.662098,201.610716 545.468679,206.509854 541.922401,210.056132 C538.376123,213.60241 533.476986,215.795828 528.065548,215.795828 C522.65411,215.795828 517.754972,213.60241 514.208694,210.056132 C510.662416,206.509854 508.468998,201.610716 508.468998,196.199278 L508.468998,182.392378 C508.468998,176.98094 510.662416,172.081803 514.208694,168.535525 C517.754972,164.989247 522.65411,162.795828 528.065548,162.795828 Z" id="h9"></path>
            <rect id="h8" x="27.0535305" y="162.795828" width="451" height="53" rx="26.5"></rect>
            <path d="M305.612374,162.795828 C312.930147,162.795828 319.555147,165.761942 324.350703,170.557499 C329.14626,175.353055 332.112374,181.978055 332.112374,189.295828 C332.112374,196.613601 329.14626,203.238601 324.350703,208.034158 C319.555147,212.829715 312.930147,215.795828 305.612374,215.795828 L53.5535305,215.795828 C46.2357576,215.795828 39.6107576,212.829715 34.8152008,208.034158 C30.0196441,203.238601 27.0535305,196.613601 27.0535305,189.295828 C27.0535305,181.978055 30.0196441,175.353055 34.8152008,170.557499 C39.6107576,165.761942 46.2357576,162.795828 53.5535305,162.795828 Z" id="h7"></path>
            <path d="M162.857612,162.795828 C170.175385,162.795828 176.800385,165.761942 181.595942,170.557499 C186.391498,175.353055 189.357612,181.978055 189.357612,189.295828 C189.357612,196.613601 186.391498,203.238601 181.595942,208.034158 C176.800385,212.829715 170.175385,215.795828 162.857612,215.795828 L53.5535305,215.795828 C46.2357576,215.795828 39.6107576,212.829715 34.8152008,208.034158 C30.0196441,203.238601 27.0535305,196.613601 27.0535305,189.295828 C27.0535305,181.978055 30.0196441,175.353055 34.8152008,170.557499 C39.6107576,165.761942 46.2357576,162.795828 53.5535305,162.795828 Z" id="h6"></path>
            <path d="M657.553531,139.295828 L255.650425,139.295828 C246.760356,139.295828 239.553531,132.356242 239.553531,123.795828 C239.553531,115.235415 246.760356,108.295828 255.650425,108.295828 L657.553531,108.295828" id="h4"></path>
            <path d="M656.553531,139.295828 L455.86756,139.295828 C446.97749,139.295828 439.770665,132.356242 439.770665,123.795828 C439.770665,115.235415 446.97749,108.295828 455.86756,108.295828 L656.553531,108.295828" id="h5"></path>
            <path d="M657.553531,108.493619 L431.653786,108.493619 C432.86039,43.517333 439.175297,7.35279325 450.598506,2.18278728e-11 C450.598506,2.18278728e-11 519.583514,2.18278728e-11 657.553531,2.18278728e-11" id="h3"></path>
            <path d="M214.626241,108.493619 C214.626241,108.493619 143.098848,108.756806 0.044062702,109.283179 C12.7189563,53.7463284 20.7207057,20.7595687 24.0493109,10.3228999 C25.4534502,5.92029379 25.1205179,1.9156238 32.2471013,1.9156238 C32.2471013,1.9156238 99.7844715,1.27708253 234.859212,0" id="h1"></path>
            <path d="M214.626241,108.493619 C214.626241,108.493619 286.968756,108.493619 431.653786,108.493619 C432.86039,43.517333 439.175297,7.35279325 450.598506,1.09139364e-11 C450.598506,1.09139364e-11 378.685408,1.09139364e-11 234.859212,1.09139364e-11 C222.424729,11.985947 215.680405,48.1504867 214.626241,108.493619 Z" id="h2"></path>
        </g>
    </g>
</svg>