<?xml version="1.0" encoding="UTF-8"?>
<svg width="639px" height="333px" viewBox="0 0 639 333" version="1.1" xmlns="http://www.w3.org/2000/svg" xmlns:xlink="http://www.w3.org/1999/xlink">
    <title>GRIPWORKSBASE</title>
    <g id="Page-1" stroke="none" stroke-width="1" fill="none" fill-rule="evenodd">
        <g id="GRIPWORKSBASE" transform="translate(0.639044, 1.152882)" fill="#FFFFFF" stroke="#000000">
            <path d="M638.360956,20.3900701 L54.7327029,20.3900701 C33.6132305,21.073624 20.4893148,28.5458897 15.3609559,42.8068674 C15.3609559,42.8068674 10.2406372,83.5180878 0,164.940529 C0.243149326,193.954535 13.0746958,208.461539 38.4946393,208.461539 C63.9145829,208.461539 263.870022,208.461539 638.360956,208.461539" id="board"></path>
            <path d="M638.360956,330.391753 L33.3609559,326.246988 C11.1203186,324.814037 0,315.384778 0,297.959209 C0,280.533641 3.47628059,247.310597 10.4288418,198.290077 C17.1305034,205.071051 25.3740483,208.461539 35.1594764,208.461539 C44.9449045,208.461539 246.012064,208.461539 638.360956,208.461539" id="board"></path>
            <rect id="h5" x="33.8609559" y="120.347118" width="373" height="53" rx="26.5"></rect>
            <rect id="h4" x="33.8609559" y="120.347118" width="196" height="53" rx="26.5"></rect>
            <rect id="h7" x="33.8609559" y="237.347118" width="373" height="53" rx="26.5"></rect>
            <rect id="h8" x="33.8609559" y="237.347118" width="196" height="53" rx="26.5"></rect>
            <rect id="h9" x="441.860956" y="237.347118" width="107" height="53" rx="26.5"></rect>
            <path d="M638.360956,173.847118 L468.360956,173.847118 C453.449268,173.847118 441.360956,161.758806 441.360956,146.847118 C441.360956,131.93543 453.449268,119.847118 468.360956,119.847118 L638.360956,119.847118" id="h6"></path>
            <path d="M638.360956,20.3900701 L54.7327029,20.3900701 C33.6132305,21.073624 20.4893148,28.5458897 15.3609559,42.8068674 C15.3609559,42.8068674 15.3609559,0 62.9451634,0 C94.6679684,0 286.473233,0 638.360956,0" id="h1"></path>
            <path d="M638.360956,88.8471182 L276.860956,88.8471182 C266.091403,88.8471182 257.360956,80.1166708 257.360956,69.3471182 C257.360956,58.5775655 266.091403,49.8471182 276.860956,49.8471182 L638.360956,49.8471182" id="h2"></path>
            <path d="M638.360956,88.8471182 L499.860956,88.8471182 C489.091403,88.8471182 480.360956,80.1166708 480.360956,69.3471182 C480.360956,58.5775655 489.091403,49.8471182 499.860956,49.8471182 L638.360956,49.8471182" id="h3"></path>
        </g>
    </g>
</svg>