<?xml version="1.0" encoding="UTF-8"?>
<svg width="666px" height="237px" viewBox="0 0 666 237" version="1.1" xmlns="http://www.w3.org/2000/svg" xmlns:xlink="http://www.w3.org/1999/xlink">
    <title>GRIPWORKSMINIMAL</title>
    <g id="Page-1" stroke="none" stroke-width="1" fill="none" fill-rule="evenodd">
        <g id="GRIPWORKSMINIMAL" transform="translate(1.000000, 1.000000)" fill="#FFFFFF" stroke="#000000">
            <path d="M665,235 L60,235 C26.862915,235 0,208.137085 0,175 L0,60 C0,26.862915 26.862915,0 60,0 L665,0" id="h1"></path>
            <path d="M665,235 L60,235 C26.862915,235 0,208.137085 0,175 L0,80 C0,46.862915 26.862915,20 60,20 L665,20" id="board"></path>
            <path d="M665,193 L548,193 C534.745166,193 524,182.254834 524,169 L524,154 C524,140.745166 534.745166,130 548,130 L665,130" id="h6"></path>
            <rect id="h5" x="41.5" y="130.5" width="439" height="62" rx="24"></rect>
            <path d="M245.053068,130.5 C251.542414,130.5 257.417414,133.130327 261.670078,137.382991 C265.922741,141.635654 268.553068,147.510654 268.553068,154 L268.553068,169 C268.553068,175.489346 265.922741,181.364346 261.670078,185.617009 C257.417414,189.869673 251.542414,192.5 245.053068,192.5 L65,192.5 C58.5106542,192.5 52.6356542,189.869673 48.3829906,185.617009 C44.1303271,181.364346 41.5,175.489346 41.5,169 L41.5,154 C41.5,147.510654 44.1303271,141.635654 48.3829906,137.382991 C52.6356542,133.130327 58.5106542,130.5 65,130.5 Z" id="h4"></path>
            <path d="M665,101 L127.5,100 C113.969024,100 103,89.0309764 103,75.5 C103,61.9690236 113.969024,51 127.5,51 L665,52" id="h2"></path>
            <path d="M665,101 L375.5,100 C361.969024,100 351,89.0309764 351,75.5 C351,61.9690236 361.969024,51 375.5,51 L665,52" id="h3"></path>
        </g>
    </g>
</svg>