<?xml version="1.0" encoding="UTF-8"?>
<svg width="679px" height="416px" viewBox="0 0 679 416" version="1.1" xmlns="http://www.w3.org/2000/svg" xmlns:xlink="http://www.w3.org/1999/xlink">
    <title>GRIPWORKSHOLDON</title>
    <g id="Page-1" stroke="none" stroke-width="1" fill="none" fill-rule="evenodd">
        <g id="GRIPWORKSHOLDON" transform="translate(1.399320, 0.513286)" fill="#FFFFFF" stroke="#000000">
            <polyline id="board" points="677.60068 408.724537 271.60068 408.724537 409.492362 320.712004 677.60068 320.712004"></polyline>
            <path d="M677.60068,331.348418 L400.042992,331.348418 C393.670573,331.226921 388.549567,333.858953 384.679976,339.244512 L383.907499,340.342068 C379.299511,346.820823 364.302022,366.245125 338.915032,398.614975 C330.834643,409.35707 314.748217,414.728118 290.655752,414.728118 L48.972558,414.728118 C18.0458761,409.62638 2.58253513,397.005263 2.58253513,376.864766 L2.58253513,305.450618 L1.05994916,211.531936 C0.355735963,167.160855 0.00362936279,142.850991 0.00362936279,138.602344 C0.00362936279,128.78288 4.09899596,125.435895 12.2536995,123.497363 L12.6006802,123.416277 C20.9861895,121.489657 160.955969,82.761472 170.373435,80.2232378 L171.976921,79.7948854 C180.740083,77.4774344 188.64732,75.815355 199.078548,75.815355 L677.60068,75.815355" id="Path"></path>
            <path d="M677.60068,382.486714 L395.700295,382.486714 C380.788606,382.486714 368.700295,372.529639 368.700295,359.270232 L382.611189,341.993128 C386.799211,335.051626 393.028059,331.580876 401.297732,331.580876 C409.567406,331.580876 501.668389,331.50339 677.60068,331.348418" id="h16"></path>
            <path d="M324.576143,328.986714 C329.318638,328.986714 333.612162,330.90899 336.720061,334.01689 C339.827961,337.124789 341.750237,341.418313 341.750237,346.160808 C341.750237,349.363483 340.8547,352.502353 339.164778,355.222884 L330.315033,369.469695 C325.480132,377.253187 316.967367,381.986714 307.804452,381.986714 L261.219186,381.986714 C253.901413,381.986714 247.276413,379.0206 242.480856,374.225044 C237.685299,369.429487 234.719186,362.804487 234.719186,355.486714 C234.719186,348.168941 237.685299,341.543941 242.480856,336.748384 C247.276413,331.952828 253.901413,328.986714 261.219186,328.986714 Z" id="h15"></path>
            <path d="M178.904762,328.986714 C186.222535,328.986714 192.847535,331.952828 197.643091,336.748384 C202.438648,341.543941 205.404762,348.168941 205.404762,355.486714 C205.404762,362.804487 202.438648,369.429487 197.643091,374.225044 C192.847535,379.0206 186.222535,381.986714 178.904762,381.986714 L69.6006802,381.986714 C62.2829072,381.986714 55.6579072,379.0206 50.8623505,374.225044 C46.0667937,369.429487 43.1006802,362.804487 43.1006802,355.486714 C43.1006802,348.168941 46.0667937,341.543941 50.8623505,336.748384 C55.6579072,331.952828 62.2829072,328.986714 69.6006802,328.986714 Z" id="h14"></path>
            <path d="M677.60068,298.486714 L613.60068,298.486714 C598.688992,298.486714 586.60068,286.398402 586.60068,271.486714 C586.60068,256.575026 598.688992,244.486714 613.60068,244.486714 L677.60068,244.486714" id="h13"></path>
            <path d="M677.10068,298.486714 L416.60068,298.486714 C401.688992,298.486714 389.60068,286.398402 389.60068,271.486714 C389.60068,256.575026 401.688992,244.486714 416.60068,244.486714 L677.10068,244.486714" id="h12"></path>
            <path d="M420.335603,244.986714 C427.653375,244.986714 434.278375,247.952828 439.073932,252.748384 C443.869489,257.543941 446.835603,264.168941 446.835603,271.486714 C446.835603,278.804487 443.869489,285.429487 439.073932,290.225044 C434.278375,295.0206 427.653375,297.986714 420.335603,297.986714 L416.219186,297.986714 C408.901413,297.986714 402.276413,295.0206 397.480856,290.225044 C392.685299,285.429487 389.719186,278.804487 389.719186,271.486714 C389.719186,264.168941 392.685299,257.543941 397.480856,252.748384 C402.276413,247.952828 408.901413,244.986714 416.219186,244.986714 Z" id="h11"></path>
            <path d="M317.08364,244.986714 C324.401413,244.986714 331.026413,247.952828 335.82197,252.748384 C340.617526,257.543941 343.58364,264.168941 343.58364,271.486714 C343.58364,278.804487 340.617526,285.429487 335.82197,290.225044 C331.026413,295.0206 324.401413,297.986714 317.08364,297.986714 L263.219186,297.986714 C255.901413,297.986714 249.276413,295.0206 244.480856,290.225044 C239.685299,285.429487 236.719186,278.804487 236.719186,271.486714 C236.719186,264.168941 239.685299,257.543941 244.480856,252.748384 C249.276413,247.952828 255.901413,244.986714 263.219186,244.986714 Z" id="h10"></path>
            <path d="M178.904762,244.986714 C186.222535,244.986714 192.847535,247.952828 197.643091,252.748384 C202.438648,257.543941 205.404762,264.168941 205.404762,271.486714 C205.404762,278.804487 202.438648,285.429487 197.643091,290.225044 C192.847535,295.0206 186.222535,297.986714 178.904762,297.986714 L69.6006802,297.986714 C62.2829072,297.986714 55.6579072,295.0206 50.8623505,290.225044 C46.0667937,285.429487 43.1006802,278.804487 43.1006802,271.486714 C43.1006802,264.168941 46.0667937,257.543941 50.8623505,252.748384 C55.6579072,247.952828 62.2829072,244.986714 69.6006802,244.986714 Z" id="h9"></path>
            <path d="M677.10068,213.486714 L416.60068,213.486714 C401.688992,213.486714 389.60068,201.398402 389.60068,186.486714 C389.60068,171.575026 401.688992,159.486714 416.60068,159.486714 L677.10068,159.486714" id="h7"></path>
            <path d="M677.60068,213.486714 L612.60068,213.486714 C597.688992,213.486714 585.60068,201.398402 585.60068,186.486714 C585.60068,171.575026 597.688992,159.486714 612.60068,159.486714 L677.60068,159.486714" id="h8"></path>
            <path d="M322.08364,159.986714 C329.401413,159.986714 336.026413,162.952828 340.82197,167.748384 C345.617526,172.543941 348.58364,179.168941 348.58364,186.486714 C348.58364,193.804487 345.617526,200.429487 340.82197,205.225044 C336.026413,210.0206 329.401413,212.986714 322.08364,212.986714 L268.219186,212.986714 C260.901413,212.986714 254.276413,210.0206 249.480856,205.225044 C244.685299,200.429487 241.719186,193.804487 241.719186,186.486714 C241.719186,179.168941 244.685299,172.543941 249.480856,167.748384 C254.276413,162.952828 260.901413,159.986714 268.219186,159.986714 Z" id="h6"></path>
            <path d="M171.217587,121.0234 C178.220708,118.900645 185.421261,119.817427 191.401723,123.015678 C197.382184,126.21393 202.142554,131.69365 204.265309,138.696772 C205.020817,141.189247 205.404762,143.779484 205.404762,146.383947 L205.404762,186.486714 C205.404762,193.804487 202.438648,200.429487 197.643091,205.225044 C192.847535,210.0206 186.222535,212.986714 178.904762,212.986714 L69.6006802,212.986714 C62.2829072,212.986714 55.6579072,210.0206 50.8623505,205.225044 C46.0667937,200.429487 43.1006802,193.804487 43.1006802,186.486714 L43.1006802,179.515709 C43.1006802,173.678394 45.0107258,168.184907 48.3173517,163.727425 C51.6239776,159.269942 56.3271838,155.848463 61.913505,154.155162 Z" id="h5"></path>
            <path d="M677.10068,125.486714 L305.697575,125.486714 C296.807505,125.486714 289.60068,118.547128 289.60068,109.986714 C289.60068,101.4263 296.807505,94.486714 305.697575,94.486714 L677.10068,94.486714" id="h3"></path>
            <path d="M677.60068,125.486714 L476.914709,125.486714 C468.02464,125.486714 460.817815,118.547128 460.817815,109.986714 C460.817815,101.4263 468.02464,94.486714 476.914709,94.486714 L677.60068,94.486714" id="h4"></path>
            <path d="M677.60068,75.7690886 C457.93728,75.1836804 340.277945,75.1836804 324.622675,75.7690886 C308.967406,76.3544968 290.913445,71.3845375 270.460793,60.8592108 C220.581213,24.8496721 193.457551,4.56326847 189.089809,0 C189.089809,0 351.926766,0 677.60068,0" id="h2" transform="translate(433.345245, 37.907678) scale(1, -1) translate(-433.345245, -37.907678) "></path>
            <path d="M27.3613113,54.1812843 C35.4482472,56.0129902 195.857071,104.936341 267.629697,126.7975 C286.769895,132.627396 296.777909,137.422343 324.622675,137.422343 C308.967406,138.007751 290.913445,133.037792 270.460793,122.512465 C220.581213,86.5029262 193.457551,66.2165226 189.089809,61.6532541 C189.089809,61.6532541 128.834405,45.3758707 8.32359555,12.8211037 C2.77695142,10.7067388 0.00362936279,6.43303761 0.00362936279,2.91038305e-11 C0.00362936279,2.91038305e-11 -0.225985223,5.72881148 2.96748567,14.2518309 C5.09646627,19.9338439 8.71210745,30.0583419 13.8144092,44.6253249 C16.3311064,49.5204022 20.8467404,52.705722 27.3613113,54.1812843 Z" id="h1" transform="translate(162.311338, 68.734305) scale(1, -1) translate(-162.311338, -68.734305) "></path>
        </g>
    </g>
</svg>