<?xml version="1.0" encoding="UTF-8"?>
<svg width="338px" height="146px" viewBox="0 0 338 146" version="1.1" xmlns="http://www.w3.org/2000/svg" xmlns:xlink="http://www.w3.org/1999/xlink">
    <title>HOLDZFINGER1</title>
    <g id="Page-1" stroke="none" stroke-width="1" fill="none" fill-rule="evenodd">
        <g id="HOLDZFINGER1" transform="translate(0.752402, 1.000000)" fill="#FFFFFF">
            <path d="M337.247598,-2.84217094e-14 C327.826211,-2.84217094e-14 262.071817,14.2519531 224.375528,14.2519531 C186.679239,14.2519531 128.126504,1.83886719 115.038614,1.83886719 C101.950723,1.83886719 57.7544338,-3.56542969 27.5708401,19.7001953 C7.44844424,35.210612 -1.65930315,50.4746094 0.247597888,65.4921875 C1.28145205,84.9277344 12.5080146,97.3170573 33.9272854,102.660156 C55.3465562,108.003255 73.8052151,114.041016 89.303262,120.773437 C115.798705,136.195313 134.431192,143.90625 145.200723,143.90625 C155.970254,143.90625 177.540567,138.575846 209.91166,127.915039 C234.865436,121.908529 252.628132,120.406901 263.199746,123.410156 C279.057168,127.915039 316.873574,143.90625 337.247598,143.90625" id="Path-24" stroke="#000000"></path>
            <path d="M174.760293,115.481445 C172.4211,109.197591 167.686725,106.055664 160.557168,106.055664 C153.427611,106.055664 148.264199,107.626628 145.066934,110.768555 C139.833861,117.580404 139.833861,122.291992 145.066934,124.90332 C152.916543,128.820313 168.412637,126.594727 171.879434,123.481445 C174.190632,121.405924 175.150918,118.739258 174.760293,115.481445 Z" id="h7" stroke="#000000"></path>
            <path d="M337.247598,67.8496094 C306.078327,67.8496094 290.493692,72.6826172 290.493692,82.3486328 C290.493692,100.669434 319.864785,114.122559 337.247598,114.122559" id="h6" stroke="#000000"></path>
            <path d="M235.831582,71.953125 C238.156452,62.6269531 234.280475,57.9638672 224.203653,57.9638672 C214.12683,57.9638672 196.649616,58.5878906 171.772012,59.8359375 C161.605996,62.2434896 159.539916,65.7913411 165.57377,70.4794922 C171.607624,75.1676432 181.552936,77.8896484 195.409707,78.6455078 C209.502943,79.4903328 219.100924,79.4903328 224.203653,78.6455078 C229.306381,77.8006828 233.182357,75.5698885 235.831582,71.953125 Z" id="h5" stroke="#000000"></path>
            <path d="M119.892129,86.9814453 C119.892129,77.9179688 115.53959,71.953125 103.507364,71.953125 C95.4858791,71.953125 85.694538,72.5921224 74.1333401,73.8701172 C64.9230536,74.5979818 61.9455146,77.0029297 65.2007229,81.0849609 C70.0835354,87.2080078 85.7421692,97.7080078 97.8571882,97.7080078 C109.972207,97.7080078 119.892129,96.0449219 119.892129,86.9814453 Z" id="h4" stroke="#000000"></path>
            <path d="M136.427285,40.2119141 C136.228718,31.3336218 130.860879,26.8944757 120.32377,26.8944757 C104.518106,26.8944757 74.7134182,28.1875 69.772012,29.9326172 C64.8306057,31.6777344 50.6265041,38.5976563 66.7036526,46.9423828 C82.780801,55.2871094 115.897012,56.7753906 126.475137,54.8564453 C133.52722,53.5771484 136.844603,48.695638 136.427285,40.2119141 Z" id="h3" stroke="#000000"></path>
            <path d="M337.247598,2.79541016 C315.612832,6.37597656 264.228067,13.6425781 259.229043,15.1357422 C254.23002,16.6289063 254.663614,21.9521484 259.229043,21.9521484 C262.272663,21.9521484 288.278848,21.9521484 337.247598,21.9521484" id="h2"></path>
            <path d="M10.3843166,43.3173828 C5.71439476,49.4052734 0.247597888,57.9638672 18.2300198,57.9638672 C24.2075588,57.9638672 39.0884182,61.9662825 39.0884182,54.2626953 C39.0884182,37.0546875 62.3204346,19.4208984 76.2085354,19.4208984 C99.2925198,19.4208984 121.021035,19.4208984 130.523965,19.4208984 C135.072095,19.4208984 137.852423,15.0507813 136.462259,10.7099609 C135.072095,6.36914063 121.086465,6.16981522 107.447793,6.16981522 C82.2360211,6.16981522 63.022012,7.13085937 45.1196682,15.4394531 C27.2173245,23.7480469 15.0542385,37.2294922 10.3843166,43.3173828 Z" id="h1"></path>
        </g>
    </g>
</svg>