<?xml version="1.0" encoding="UTF-8"?>
<svg width="518.493583px" height="548.325752px" viewBox="0 0 518.493583 548.325752" version="1.1" xmlns="http://www.w3.org/2000/svg" xmlns:xlink="http://www.w3.org/1999/xlink">
    <title>HRTBUTTERFLY</title>
    <g id="Page-1" stroke="none" stroke-width="1" fill="none" fill-rule="evenodd">
        <g id="HRTBUTTERFLY" transform="translate(0.7067, 0.5202)" fill="#FFFFFF" fill-rule="nonzero" stroke="#000000">
            <path d="M517.212492,135.113911 C421.329361,51.8638726 347.074279,7.48768013 293.335988,1.35211454 C212.728551,-7.85123384 42.343106,29.4733704 3.97903932e-13,127.293421 C3.97903932e-13,127.293421 30.2263479,133.077558 90.6790436,144.645831 C122.274512,86.9194311 179.477962,60.9636744 262.289394,66.778561 C345.100827,72.5934477 420.561368,125.967199 488.671019,226.899813 L517.212492,135.113911 Z" id="h1"></path>
            <path d="M488.671019,226.899813 C488.671019,245.62824 488.671019,267.305142 488.671019,291.930521 C429.139434,242.682461 389.002098,218.05843 368.259013,218.05843 C368.259013,218.05843 345.671125,170.252509 276.020214,170.252509 C206.369304,170.252509 89.689202,168.685949 72.3120978,264.998568 C72.3120978,264.998568 102.021871,149.289626 0,127.293421 C0,127.293421 30.2263479,133.077558 90.6790436,144.645831 C258.978888,156.285985 346.640352,139.671108 353.663437,94.8011988 C353.663437,94.8011988 426.098304,130.393073 488.671019,226.899813 Z" id="board"></path>
            <path d="M488.671019,291.930521 C490.047581,330.392418 495.997903,374.110328 506.521984,423.084252 L483.772303,435.830881 C439.896629,312.171658 373.891098,253.899017 285.755712,261.012957 C197.620326,268.126898 153.552633,297.663701 153.552633,349.623366 C153.552633,285.345417 126.472455,257.137151 72.3120978,264.998568 C72.3120978,264.998568 77.7668123,230.263045 93.1262122,220.463421 C84.8497203,226.899813 100.243402,243.430521 134.208603,243.430521 C156.852071,243.430521 230.320195,243.430521 354.612978,243.430521 C363.710335,240.052238 368.259013,231.594874 368.259013,218.05843 C368.259013,218.05843 392.555562,212.826537 488.671019,291.930521 Z" id="board"></path>
            <path d="M233.332375,167.3794 C278.306014,167.3794 309.244577,172.910208 330.009,180.786362 C342.832934,185.650609 351.763287,191.404837 357.710387,197.299902 C364.960769,204.486847 367.759013,211.871215 367.759013,218.05843 C367.759013,225.177374 367.449348,230.431914 365.798902,234.281525 C364.386286,237.576406 361.971245,239.808364 357.917921,241.30557 C348.618307,244.740634 330.925188,244.371212 297.451453,243.716828 C279.582131,243.367498 257.228528,242.930521 229.272303,242.930521 L227.947793,242.930743 C203.302515,242.938981 183.070884,243.17547 166.465229,243.36958 C154.956038,243.504115 145.192348,243.619635 136.91089,243.624721 L135.375422,243.624358 C118.674932,243.605641 108.209724,243.092841 101.669963,241.283879 C97.3588628,240.091386 94.7931354,238.33857 93.303792,235.732547 C91.5682248,232.695687 91.2723026,228.547397 91.2723026,222.930521 C91.2723026,220.304977 96.7382118,211.248075 109.617563,201.206015 C117.788359,194.835226 128.95597,188.079109 143.670324,182.293787 C165.312422,173.784645 194.617264,167.3794 233.332375,167.3794 Z" id="h3"></path>
            <path d="M483.772303,435.830881 C464.454916,444.731102 452.396888,458.91863 447.598221,478.393464 C447.598221,478.393464 324.190723,449.719469 264.756358,546.48875 C264.756358,546.48875 248.527798,553.487419 248.527798,526.275644 C257.169111,403.501214 225.510723,344.617121 153.552633,349.623366 C153.552633,349.623366 155.251429,318.132014 164.186749,310.177285 C161.612872,324.674112 164.439132,329.436943 192.459383,329.436943 C289.417041,329.436943 348.503435,328.447839 378.757111,328.447839 C409.579691,328.447839 422.620278,326.908953 411.535687,308.287015 C432.91406,328.107078 456.992932,370.6217 483.772303,435.830881 Z" id="board"></path>
            <path d="M335.025513,374.784375 C356.478278,374.784375 376.413697,379.769599 391.473884,386.828886 C399.894009,390.775722 406.788023,395.368967 411.559899,400.10298 C416.193711,404.700023 418.830792,409.420371 418.830792,413.801495 C418.830792,417.172727 417.363821,419.783173 414.656348,421.795402 C411.652717,424.02774 407.157674,425.531114 401.45481,426.530517 C386.898724,429.081407 364.543314,428.309519 338.753223,427.425655 L336.969961,427.364577 C326.736276,427.014487 317.008565,426.965171 308.058613,426.919855 C290.280939,426.829842 275.580915,426.763371 266.105853,424.36162 C262.376381,423.416269 259.466826,422.114207 257.530715,420.279022 C255.764536,418.604911 254.830792,416.484546 254.830792,413.801495 C254.830792,409.339276 257.305461,404.521416 261.73191,399.842273 C266.212972,395.1054 272.696222,390.518764 280.716251,386.591265 C294.875091,379.65752 313.81595,374.784375 335.025513,374.784375 Z" id="h5" transform="translate(336.8308, 401.5255) rotate(-4) translate(-336.8308, -401.5255)"></path>
            <path d="M288.531004,260.63473 C358.167188,260.63473 398.542618,292.008727 414.834582,312.363883 C416.865763,314.901637 418.27767,317.107184 418.939323,319.026381 C419.515246,320.696906 419.513429,322.138348 418.784701,323.370834 C417.271782,325.929609 412.868246,327.556293 405.04833,328.650612 C386.876543,331.193572 350.371699,330.55216 287.321073,329.451608 C269.666794,329.143451 254.493968,328.948271 241.455367,328.780547 C202.990591,328.285748 183.126867,328.037278 172.924508,325.818543 C168.483166,324.852672 165.912273,323.531204 164.471286,321.592033 C162.781624,319.318213 162.652013,316.233984 162.724867,312.06017 C162.815833,306.848768 167.252992,300.598139 174.987218,294.267095 C182.601135,288.034534 193.429437,281.743131 206.638469,276.313704 C228.620002,267.278437 257.188441,260.63473 288.531004,260.63473 Z" id="h4" transform="translate(291.0314, 295.5264) rotate(-1) translate(-291.0314, -295.5264)"></path>
            <path d="M517.772303,135.430521 C498.994621,135.430521 483.772303,201.692378 483.772303,283.430521 C483.772303,365.168664 498.994621,431.430521 517.772303,431.430521" id="board"></path>
            <path d="M142.150856,84.6466708 C163.846784,73.7356805 190.846934,65.7331223 220.745329,66.764528 C296.445517,69.3759594 336.486436,80.805585 353.965787,106.552337 C355.973961,109.510339 356.885567,112.389318 356.770895,115.170301 C356.652731,118.035983 355.445259,120.788057 353.274743,123.407217 C348.658612,128.977498 339.737661,133.929606 327.488598,138.05428 C302.835915,146.355673 264.73944,151.25213 220.775761,150.764069 C142.073262,143.876954 93.3392472,133.63447 88.549338,132.601939 C88.6992954,127.929552 94.9394019,119.041426 105.717679,109.277219 C114.836115,101.016687 127.241231,92.1447953 142.150856,84.6466708 Z" id="h2" transform="translate(222.6649, 108.7362) rotate(-5) translate(-222.6649, -108.7362)"></path>
        </g>
    </g>
</svg>