<?xml version="1.0" encoding="UTF-8"?>
<svg width="1321px" height="940px" viewBox="0 0 1321 940" version="1.1" xmlns="http://www.w3.org/2000/svg" xmlns:xlink="http://www.w3.org/1999/xlink">
    <title>HRTCLASSIC</title>
    <g id="Page-1" stroke="none" stroke-width="1" fill="none" fill-rule="evenodd">
        <g id="HRTCLASSIC" transform="translate(1.000000, 1.000000)" fill="#FFFFFF" stroke="#000000">
            <path d="M1320,918 C1177,918 1273,938 717,938 C161,938 0,835 0,506 C0,177 14,261 151,188 C288,115 597,46 660,39 C723,32 879,19 969,19 C1059,19 1124,0 1320,0" id="board"></path>
            <path d="M924.5,700.5 C1033.1144,700.5 1109.58564,706.118346 1160.3091,715.355271 C1188.33249,720.458433 1208.48407,726.661649 1221.84192,733.637479 C1228.84043,737.292291 1233.96517,741.154008 1237.36488,745.183909 C1240.83888,749.301867 1242.5,753.589663 1242.5,758 C1242.5,767.775304 1240.76343,776.701808 1229.55346,784.357152 C1220.53668,790.51475 1205.46441,795.847439 1180.43233,800.176886 C1135.2537,807.9908 1057.73048,812.5 925,812.5 C792.170411,812.5 714.433713,807.984037 669.050631,800.159368 C643.901549,795.823319 628.717639,790.482316 619.614105,784.315705 C608.326634,776.669725 606.5,767.758354 606.5,758 C606.5,753.589663 608.161123,749.301867 611.635119,745.183909 C615.034827,741.154008 620.159566,737.292291 627.158079,733.637479 C640.515931,726.661649 660.667507,720.458433 688.690904,715.355271 C739.41436,706.118346 815.885599,700.5 924.5,700.5 Z" id="h4"></path>
            <ellipse id="h3" transform="translate(378.467749, 730.527301) rotate(7.000000) translate(-378.467749, -730.527301) " cx="378.467749" cy="730.527301" rx="150" ry="67.5"></ellipse>
            <path d="M860.5,415.5 C948.799714,415.5 1056.72006,419.185898 1131.90487,435.112255 C1160.57306,441.18502 1184.47595,449.033073 1200.69238,459.147577 C1215.15485,468.168102 1223.5,478.986475 1223.5,492 C1223.5,505.268482 1217.34979,515.704607 1205.79614,523.923065 C1193.37969,532.755257 1174.75635,539.031177 1150.81005,543.505407 C1096.59084,553.635957 1015.14184,554.497937 916.519926,554.520433 L906.710479,554.520223 C900.134,554.518661 893.484307,554.514657 886.764282,554.510628 C877.961345,554.50535 869.03776,554.5 860,554.5 C812.013272,554.5 766.842802,555.857273 725.637883,557.09545 C645.878527,559.492157 580.987703,561.450457 539.316162,552.228083 C522.535676,548.514375 509.531961,542.992697 500.873952,534.925072 C492.771924,527.375517 488.5,517.593927 488.5,505 C488.5,489.87891 497.100464,477.271765 512.004598,466.749968 C528.709851,454.956643 553.321891,445.784848 582.758673,438.672605 C660.517325,419.88528 771.904707,415.5 860.5,415.5 Z" id="h2"></path>
            <ellipse id="h1" cx="237.5" cy="489.5" rx="136" ry="63"></ellipse>
        </g>
    </g>
</svg>