<?xml version="1.0" encoding="UTF-8"?>
<svg width="597px" height="176px" viewBox="0 0 597 176" version="1.1" xmlns="http://www.w3.org/2000/svg" xmlns:xlink="http://www.w3.org/1999/xlink">
    <title>IURAWARMUP</title>
    <g id="Page-1" stroke="none" stroke-width="1" fill="none" fill-rule="evenodd">
        <g id="IURAWARMUP" transform="translate(1.000000, 0.673888)" stroke="#000000">
            <path d="M596,174.326112 L23,174.326112 C10.2974508,174.326112 0,164.028661 0,151.326112 L0,35.3261117 C0,22.6235625 10.2974508,12.3261117 23,12.3261117 L596,12.3261117" id="board" fill="#FFFFFF"></path>
            <path d="M74.0924463,174.326112 L23,174.326112 C10.2974508,174.326112 0,164.028661 0,151.326112 L0,35.3261117 C0,22.6235625 10.2974508,12.3261117 23,12.3261117 L74.0924463,12.3261117 L74.0924463,174.326112 Z" id="board" fill="#CCCCCC"></path>
            <rect id="h2" fill="#FFFFFF" x="100" y="51.3261117" width="307" height="69" rx="34.5"></rect>
            <path d="M596,120.326112 L484.5,120.326112 C465.446176,120.326112 450,104.879936 450,85.8261117 C450,66.7722879 465.446176,51.3261117 484.5,51.3261117 L596,51.3261117" id="h3" fill="#FFFFFF"></path>
            <path d="M596,12.3261117 L20.9489348,12.3261117 L13.6410018,14.0009996 C28.8578168,4.66699986 40.674194,-2.57571742e-14 49.0901334,-2.57571742e-14 C57.5060727,-2.57571742e-14 239.809362,-2.57571742e-14 596,-2.57571742e-14" id="h1" fill="#FFFFFF"></path>
            <path d="M596,174.326112 L74.0924463,174.326112 L74.0924463,12.3261117 L88.6348473,12.3261117 C96.2116158,12.5279252 100,15.92556 100,22.5190163 C100,29.1124725 100,50.2148377 100,85.8261117 C101.762718,108.826112 114.408708,120.326112 137.93797,120.326112 C161.467232,120.326112 314.154575,120.326112 596,120.326112" id="board" fill="#FFFFFF"></path>
        </g>
    </g>
</svg>