<?xml version="1.0" encoding="UTF-8"?>
<svg width="486px" height="375px" viewBox="0 0 486 375" version="1.1" xmlns="http://www.w3.org/2000/svg" xmlns:xlink="http://www.w3.org/1999/xlink">
    <title>KRAXLROCK</title>
    <g id="Page-1" stroke="none" stroke-width="1" fill="none" fill-rule="evenodd">
        <g id="KRAXLROC" transform="translate(1.000000, 1.396484)">
            <path d="M485,9.28759766 L426.242188,9.28759766 C428.089193,22.316569 421.013835,28.8310547 405.016113,28.8310547 C381.019531,28.8310547 246.488281,42.9414063 215.988281,42.9414063 C185.488281,42.9414063 189.670898,44.0141602 179.056641,27.4008789 C165.721191,14.5385742 151.408203,0 113.347656,0 C75.2871094,0 49.8857422,18.3847656 41.484375,26.328125 C33.0830078,34.2714844 12.9374757,62.7011719 12.9374757,78.2695312 C12.9374757,93.8378906 15.9082031,137.507812 34.3535156,154.087891 C46.6503906,165.141276 54.4238281,185.371745 57.6738281,214.779297 L66.828125,219.253906 C61.9661458,254.49349 53.5182292,276.592448 41.484375,285.550781 C29.4505208,294.509115 45.3177083,304.80013 89.0859375,316.423828 C93.5970052,287.651693 103.71224,273.265625 119.431641,273.265625 C122.974121,273.265625 114.642578,270.140625 141.106445,267.119141 C167.570312,264.097656 399.714844,233.90332 485,233.90332" id="Path-15" stroke="#000000" fill="#FFFFFF"></path>
            <path d="M485,185.447266 L422.140625,186.69087 C414.303385,187.372057 410.384766,190.330224 410.384766,195.565369 C410.384766,200.800514 410.384766,204.138155 410.384766,205.578293 C409.666667,215.490941 413.585286,220.447266 422.140625,220.447266 C430.695964,220.447266 451.649089,220.447266 485,220.447266" id="h19" stroke="#000000" fill="#FFFFFF"></path>
            <path d="M485,123.623047 L443.519531,123.623047 C436.051432,125.155599 432.317383,128.055664 432.317383,132.323242 C432.317383,136.59082 432.317383,141.188477 432.317383,146.116211 C432.468807,150.987305 437.579906,153.422852 447.650678,153.422852 C457.72145,153.422852 470.171224,153.422852 485,153.422852" id="h18" stroke="#000000" fill="#FFFFFF"></path>
            <path d="M485,60.4775391 L407.901367,60.4775391 C401.37574,61.4287868 398.112926,63.7221001 398.112926,67.3574788 C398.112926,70.9928575 398.112926,76.1992187 398.112926,82.9765625 C397.899621,89.5566406 400.579753,92.8466797 406.15332,92.8466797 C411.726888,92.8466797 438.009115,92.8466797 485,92.8466797" id="h17" stroke="#000000" fill="#FFFFFF"></path>
            <path d="M421,28.1074219 L485,28.1074219 L485,12.1074219 L434.657721,12.1074219 C435.653388,22.7740885 431.100815,28.1074219 421,28.1074219 Z" id="h16" fill="#FFFFFF"></path>
            <path d="M301,55.6035156 L406,48.6132409 L404.724451,30.6035156 L310.424651,38.2272147 C310.424651,49.0760459 307.283101,54.8681462 301,55.6035156 Z" id="h15" fill="#FFFFFF"></path>
            <rect id="h14" stroke="#000000" fill="#FFFFFF" transform="translate(353.541858, 80.562229) rotate(-5.000000) translate(-353.541858, -80.562229) " x="322.041858" y="61.5622288" width="63" height="38" rx="13"></rect>
            <circle id="h13" stroke="#000000" fill="#FFFFFF" cx="403" cy="142.603516" r="18"></circle>
            <rect id="h12" stroke="#000000" fill="#FFFFFF" transform="translate(369.091119, 207.882731) rotate(-6.000000) translate(-369.091119, -207.882731) " x="341.591119" y="194.882731" width="55" height="26" rx="13"></rect>
            <circle id="Oval" stroke="#000000" cx="383" cy="206.603516" r="13"></circle>
            <rect id="h11" stroke="#000000" fill="#FFFFFF" transform="translate(288.000000, 214.603516) rotate(-6.000000) translate(-288.000000, -214.603516) " x="248" y="193.603516" width="80" height="42" rx="13"></rect>
            <rect id="h10" stroke="#000000" fill="#FFFFFF" transform="translate(316.500000, 146.603516) rotate(-6.000000) translate(-316.500000, -146.603516) " x="255" y="125.603516" width="123" height="42" rx="13"></rect>
            <rect id="h9" stroke="#000000" fill="#FFFFFF" transform="translate(269.500000, 84.603516) rotate(-5.000000) translate(-269.500000, -84.603516) " x="227" y="65.6035156" width="85" height="38" rx="13"></rect>
            <path d="M174.628906,23.0898438 C177.368652,43.1103516 174.258301,68.921875 193.685547,67.2832031 C206.637044,66.1907552 240.28418,62.531901 294.626953,56.3066406 C300.978841,54.9332682 304.154785,48.4425456 304.154785,36.8344727 C304.154785,36.8344727 214.191895,43.1103516 200.687988,43.1103516 C187.184082,43.1103516 183.484375,35.4628906 179.056641,27.4008789 C179.056641,27.4008789 174.628906,23.0898438 174.628906,23.0898438 Z" id="h8" stroke="#000000" fill="#FFFFFF"></path>
            <circle id="h7" stroke="#000000" fill="#FFFFFF" cx="197" cy="89.6035156" r="18"></circle>
            <rect id="h6" stroke="#000000" fill="#FFFFFF" transform="translate(199.287950, 160.609828) rotate(-10.000000) translate(-199.287950, -160.609828) " x="156.78795" y="142.609828" width="85" height="36" rx="13"></rect>
            <rect id="h5" stroke="#000000" fill="#FFFFFF" transform="translate(174.365693, 227.682834) rotate(-8.000000) translate(-174.365693, -227.682834) " x="112.865693" y="206.682834" width="123" height="42" rx="13"></rect>
            <circle id="h4" stroke="#000000" fill="#FFFFFF" cx="53" cy="319.603516" r="53"></circle>
            <rect id="h3" stroke="#000000" fill="#FFFFFF" transform="translate(110.673648, 169.088323) rotate(-10.000000) translate(-110.673648, -169.088323) " x="79.1736482" y="154.588323" width="63" height="29" rx="13"></rect>
            <path d="M76.7226562,73.6142578 C65.0182292,71.9619141 57.7701823,74.156901 54.9785156,80.1992188 C50.7910156,89.2626953 45.5722656,101.172852 64.3779297,108.914063 C76.9150391,114.07487 107.498047,110.197917 156.126953,97.2832031 C160.963542,91.8886339 162.694987,85.5523709 161.321289,78.2744141 C159.260742,67.3574788 151.801758,62.3798828 142.435547,63.9599609 C133.069336,65.5400391 125.54293,70.4775391 110.887695,72.0458984 C101.117539,73.0914714 89.7291925,73.6142578 76.7226562,73.6142578 Z" id="h2" stroke="#000000" fill="#FFFFFF"></path>
            <path d="M171.700612,24.9504407 C156.837044,10.1837751 137.223985,2.80044229 112.861435,2.80044229 C76.31761,2.80044229 51.9284935,20.4368773 43.8619229,28.0569115 C35.7953522,35.6769456 26.0250784,49.8153222 19.6115781,64.7855884 C15.7666426,73.760361 72.6626649,66.4015902 166.728274,55.3650004 C173.463125,54.5748094 175.120571,44.4366229 171.700612,24.9504407 Z" id="h1" fill="#FFFFFF"></path>
        </g>
    </g>
</svg>