<?xml version="1.0" encoding="UTF-8"?>
<svg width="585px" height="199px" viewBox="0 0 585 199" version="1.1" xmlns="http://www.w3.org/2000/svg" xmlns:xlink="http://www.w3.org/1999/xlink">
    <title>KRAXLPORT</title>
    <g id="Page-1" stroke="none" stroke-width="1" fill="none" fill-rule="evenodd">
        <g id="KRAXLPORT" transform="translate(1.000000, 1.000000)" fill="#FFFFFF" fill-rule="nonzero">
            <path d="M584,93 L0,93 C0.351049991,35.4537835 10.5176825,6.68067526 30.4998976,6.68067526 C50.4821127,6.68067526 234.982147,4.4537835 584,0" id="Path-13" stroke="#000000"></path>
            <path d="M584,150 L4,150 L4,190.216814 C4.97741909,194.738939 7.75805005,197 12.3418929,197 C16.9257357,197 207.478438,197 584,197" id="Path-17" stroke="#000000"></path>
            <path d="M584,150 C574.294339,150 6.55379692,148.522759 4,150 C20.7466561,141.020673 33.3887189,141.020673 33.3887189,122.392321 C33.3887189,109.97342 33.3887189,100.17598 33.3887189,93 L584,93" id="Shape" stroke="#000000"></path>
            <path d="M166.216098,93 C177.40015,94.2016558 182.992176,100.187503 182.992176,110.957542 C182.992176,127.1126 184.600582,150 141.696137,150 C98.7916942,150 3.99602535,150 4,150 C24.7092943,139.431845 33.1476336,141.023747 33.1476336,124.272794 C33.1476336,113.105491 33.1996618,102.681226 33.3037185,93 L166.216098,93 Z" id="h4" stroke="#000000"></path>
            <path d="M584,93 L333.462604,93 C330.49309,131 341.819836,150 367.442839,150 C393.065842,150 465.112704,150 583.583425,150" id="h6" stroke="#000000"></path>
            <path d="M584,93 L506,93 C505.941015,120.863432 514.985975,135.062893 533.135169,135.598383 C551.284365,136.133872 568.239308,136.133872 584,135.598383" id="h7" stroke="#000000"></path>
            <polyline id="h3" stroke="#000000" points="584 1 447 1 450.64441 53 584 53"></polyline>
            <path d="M249.815905,5.6466277 C236.616076,37.2951624 234.47563,62.0796199 243.394565,80 C243.736823,80 305.035138,80 427.289511,80 C438.44245,79.3794725 446.236937,70.3948522 450.672973,53.0461391 C455.109009,35.697426 455.109009,18.3487131 450.672973,1 L249.815905,5.6466277 Z" id="h2" stroke="#000000"></path>
            <path d="M9.46569905,79 L224.351671,79 C220.297038,42.1230313 223.513148,19.7896979 234,12 C234,12 167.008738,12.8335966 33.0262131,14.5007899 C27.4994687,14.4058925 22.9982215,17.7094577 19.5224716,24.4114854 C14.3088467,34.4645269 10.3970971,62.5316506 9.46569905,70.7658253 C8.84476698,76.2552751 8.84476698,79 9.46569905,79 Z" id="h1"></path>
        </g>
    </g>
</svg>