<?xml version="1.0" encoding="UTF-8"?>
<svg width="1331px" height="747px" viewBox="0 0 1331 747" version="1.1" xmlns="http://www.w3.org/2000/svg" xmlns:xlink="http://www.w3.org/1999/xlink">
    <title>LACDTRAINING</title>
    <g id="Page-1" stroke="none" stroke-width="1" fill="none" fill-rule="evenodd">
        <g id="LACDTRAINING" transform="translate(1.000000, 1.000000)" fill="#FFFFFF" stroke="#000000">
            <polygon id="board" points="1307 744.505965 190 744.505965 190 552 1307 552"></polygon>
            <path d="M1329,745 L1193.944,744.505965 C1175.63812,743.556512 1162.32681,733.064933 1154.03095,712.814533 C1145.73509,692.564134 1128.47828,648.306234 1102.26054,580.040834 C1098.0335,565.528637 1085.90228,558.272539 1065.86688,558.272539 C1045.83148,558.272539 783.831326,558.272539 279.866426,558.272539 C259.557775,558.630504 249.40345,569.011503 249.40345,589.415536 C249.40345,609.819568 249.747147,654.449224 249.747147,723.521199 C250.564292,737.511043 237.480762,744.505965 210.496557,744.505965 C183.512352,744.505965 119.089252,744.505965 17.2272573,744.505965 C5.9715507,744.121882 0.343697385,737.12696 0.343697385,723.521199 C0.343697385,709.915438 0,593.44238 0,373.885331 C14.8464056,283.770703 37.9543598,219.33967 69.3238623,180.592231 C116.378116,122.471073 189.450711,70 322.362272,70 C410.96998,70 483.182556,70 539,70 L576.637623,180.4335 L954.416492,180.4335 L1001.08143,86.6748026 C1003.02714,75.5582675 1032.33333,70 1089,70 C1174,70 1221.88514,70 1329,70" id="Path"></path>
            <rect id="h6" x="92.5" y="374.5" width="388" height="119" rx="59.5"></rect>
            <rect id="h10" x="56.5" y="573.5" width="119" height="119" rx="59.5"></rect>
            <rect id="h11" x="279.5" y="573.5" width="411" height="119" rx="59.5"></rect>
            <rect id="h12" x="742.5" y="573.5" width="297" height="119" rx="59.5"></rect>
            <rect id="h8" x="792.5" y="374.5" width="282" height="119" rx="59.5"></rect>
            <rect id="h7" x="530.5" y="374.5" width="211" height="119" rx="59.5"></rect>
            <rect id="h5" x="1002.5" y="201.5" width="297" height="119" rx="59.5"></rect>
            <rect id="h4" x="117.5" y="201.5" width="377" height="119" rx="59.5"></rect>
            <path d="M1329,494 L1185,494 C1151.69968,494 1125,467.137085 1125,434 C1125,400.862915 1151.69968,374 1185,374 L1329,374" id="Path"></path>
            <path d="M1329,70 C1165.66667,70 1084,70 1084,70 C1032,72 1005,76.3333333 1003,83 C1005,71 1025.29919,19.1417821 1029,11 C1034,1.45519152e-11 1073.83353,1.45519152e-11 1114,1.45519152e-11 L1329,1.45519152e-11" id="h3"></path>
            <path d="M1003,82 C1001.6462,147.282037 986.515994,179.923056 957.609386,179.923056 C928.702779,179.923056 803.861476,179.923056 583.085479,179.923056 C554.77888,181.323718 540.62558,163.601603 540.62558,126.75671 C540.62558,89.911817 540.08372,63.3881254 539,47.1856353 C551.968697,14.3192695 558.453045,-1.37770787 558.453045,0.0947031824 C558.453045,15.5166527 558.453045,45.4779598 558.453045,59.7605875 C558.453045,87.9790258 574.341363,105.330832 600.4883,105.330832 C626.635237,105.330832 635.611388,80.8205669 673.164638,80.8205669 C710.717889,80.8205669 868.883009,80.8205669 918.153986,80.8205669 C967.424963,80.8205669 963.212481,104 980,104 C991.191679,104 998.858346,96.6666667 1003,82 Z" id="h2"></path>
            <path d="M539,70 L322.347288,70 C219.449096,70 135.333333,106.666667 70,180 C70,180 166.478401,2.91038305e-11 366.820729,2.91038305e-11 C567.163057,2.91038305e-11 530.610942,2.91038305e-11 559,2.91038305e-11 C559,2.91038305e-11 552.333333,23.3333333 539,70 Z" id="h1"></path>
        </g>
    </g>
</svg>