<?xml version="1.0" encoding="UTF-8"?>
<svg width="579px" height="462px" viewBox="0 0 579 462" version="1.1" xmlns="http://www.w3.org/2000/svg" xmlns:xlink="http://www.w3.org/1999/xlink">
    <title>LAPISTRAIN</title>
    <g id="Page-1" stroke="none" stroke-width="1" fill="none" fill-rule="evenodd">
        <g id="LAPISTRAIN" transform="translate(0.865756, 0.540699)" fill="#FFFFFF">
            <path d="M577.134244,404.012193 C423.07415,412.281928 325.236891,423.142207 283.622468,436.59303 C242.008045,450.043853 204.707823,457.898053 171.721801,460.155628 C110.166943,462.678191 66.3336189,445.112749 40.2218282,407.459301 C14.1100376,369.805853 1.69844297,339.356168 2.98704432,316.110246 C53.0295049,342.804681 100.411905,354.462628 145.134244,351.084089 C212.217754,346.016279 241.249279,346.395692 308.741746,312.61262 C376.234213,278.829548 487.896475,255.046804 577.134244,255.046804" id="board" stroke="#000000"></path>
            <path d="M577.134244,0.350997115 C500.267826,-2.78169552 431.359471,15.0553636 370.409178,53.8621746 C309.458885,92.6689855 261.165135,102.009953 225.527929,81.8850779 C188.217908,60.0315067 161.420013,49.1047212 145.134244,49.1047212 C120.705591,49.1047212 76.1660942,68.0075014 64.1023879,105.573444 C56.059917,130.617406 55.1366982,145.131814 61.3327314,149.116669 C78.8367344,173.053328 109.598126,183.344333 153.616905,179.989684 C197.635684,176.635035 219.630874,174.339314 219.602473,173.10252 L355.134244,135.090481 C435.832908,111.317866 509.832908,100.202931 577.134244,101.745675" id="board" stroke="#000000"></path>
            <path d="M577.134244,268.757205 C450.748055,281.508363 363.164684,300.379964 314.38413,325.372008 C241.213299,362.860074 209.001466,353.436895 145.134244,357.720006 C81.2670229,362.003117 2.89614269,317.084727 2.89614269,317.084727 C-5.76359342,308.628456 7.58732496,256.459495 9.3461141,246.959301 C11.1049032,237.459106 41.2660093,187.512988 52.1732882,178.308012 C59.4448075,172.171361 62.4979553,162.440913 61.3327314,149.116669 C78.8367344,173.053328 109.598126,183.344333 153.616905,179.989684 C197.635684,176.635035 219.630874,174.339314 219.602473,173.10252 L355.134244,135.090481 C432.365934,112.86061 506.365934,101.745675 577.134244,101.745675" id="board" stroke="#000000"></path>
            <path d="M577.134244,325.190966 C538.830323,326.097157 511.821575,330.987403 496.108002,339.861702 C486.172303,343.22131 472.321387,347.221651 454.555255,351.862725 C403.823545,365.279718 376.799405,372.663167 373.482837,374.013073 C368.507984,376.037931 346.82597,382.062217 343.907461,366.962471 C341.961788,356.895973 340.73251,351.063913 340.219626,349.466289 C337.559339,340.777252 340.50448,335.392129 349.05505,333.310919 C361.880905,330.189105 474.959203,284.340745 577.134244,287.347712" id="h11" stroke="#000000"></path>
            <ellipse id="h10" stroke="#000000" transform="translate(266.903727, 383.108026) rotate(-17.000000) translate(-266.903727, -383.108026) " cx="266.903727" cy="383.108026" rx="50" ry="23.5"></ellipse>
            <ellipse id="h9" stroke="#000000" transform="translate(158.634244, 407.459301) rotate(-17.000000) translate(-158.634244, -407.459301) " cx="158.634244" cy="407.459301" rx="37.5" ry="19"></ellipse>
            <ellipse id="h7" stroke="#000000" transform="translate(109.903727, 256.108026) rotate(-17.000000) translate(-109.903727, -256.108026) " cx="109.903727" cy="256.108026" rx="50" ry="23.5"></ellipse>
            <path d="M577.134244,118.019743 L381.532962,139.643111 L224.007488,196.392725 L220.290688,206.696142 C209.255429,210.20699 204.086236,215.914632 204.783109,223.819068 C205.828419,235.675722 216.511832,239.871514 224.007488,236.312715 C231.503144,232.753916 425.928491,143.935036 577.134244,150.716057" id="board" stroke="#000000"></path>
            <path d="M577.134244,227.47698 C529.14633,231.766071 495.445528,234.907907 476.031837,236.902489 C446.9113,239.89436 339.272714,269.611792 329.220323,273.444099 C319.167931,277.276407 226.882559,316.370015 222.535473,316.370015 C218.188387,316.370015 206.536295,319.280447 206.536295,308.740724 C206.536295,298.201 200.212456,286.990178 217.081042,283.378146 C233.949629,279.766113 316.738538,243.901679 324.906735,240.402084 C333.074932,236.902489 450.816852,203.950334 482.95033,201.303384 C504.372648,199.538751 535.767286,197.901865 577.134244,196.392725" id="h7" stroke="#000000"></path>
            <path d="M577.134244,227.47698 C529.14633,231.766071 495.445528,234.907907 476.031837,236.902489 C486.71247,229.876807 486.71247,214.08702 482.95033,201.303384 C504.372648,199.538751 535.767286,197.901865 577.134244,196.392725" id="h8" stroke="#000000"></path>
            <path d="M577.134244,126.558389 C505.2297,131.442053 444.996024,139.618691 396.433216,151.088301 C347.870407,162.557912 291.188284,181.506596 226.386845,207.934354 C214.922101,211.765982 209.18973,209.643309 209.18973,201.566334 C209.18973,189.450873 207.01511,176.375177 221.527897,173.002518 C236.040684,169.629859 314.640497,147.772424 370.488573,130.09399 C426.336648,112.415556 515.000823,101.745675 577.134244,101.745675" id="h4" stroke="#000000"></path>
            <path d="M577.134244,126.558389 C505.2297,131.442053 444.996024,139.618691 396.433216,151.088301 C380.361105,154.884228 378.674493,156.137309 370.488573,157.497078 C366.998126,151.711814 366.600554,131.324723 370.488573,130.09399 C426.336648,112.415556 515.000823,101.745675 577.134244,101.745675" id="h5" stroke="#000000"></path>
            <path d="M577.134244,126.558389 C546.092262,128.739719 518.387673,131.318192 494.020478,134.29381 C490.322335,123.045276 490.322335,118.019743 493.45448,106.652618 C523.062354,103.459916 552.229537,101.745675 577.134244,101.745675" id="h6" stroke="#000000"></path>
            <ellipse id="h1" transform="translate(136.576515, 102.617945) rotate(-13.000000) translate(-136.576515, -102.617945) " cx="136.576515" cy="102.617945" rx="60" ry="40.5"></ellipse>
            <path d="M158.796586,147.190674 C195.342721,135.580594 217.392146,123.444434 224.944861,110.782193 C229.793596,103.486897 236.848442,105.224419 239.125209,106.218584 C241.401977,107.212748 248.160534,112.90763 243.038251,118.22052 C237.915967,123.53341 213.086189,157.844681 162.364013,162.81396 C152.901687,164.521113 151.034491,161.824843 151.034491,155.764643 C151.034491,151.724509 153.621856,148.86652 158.796586,147.190674 Z" id="h2" stroke="#000000" transform="translate(197.973264, 134.306246) rotate(-5.000000) translate(-197.973264, -134.306246) "></path>
        </g>
    </g>
</svg>