<?xml version="1.0" encoding="UTF-8"?>
<svg width="589px" height="387px" viewBox="0 0 589 387" version="1.1" xmlns="http://www.w3.org/2000/svg" xmlns:xlink="http://www.w3.org/1999/xlink">
    <title>LEMURBEAM</title>
    <g id="Page-1" stroke="none" stroke-width="1" fill="none" fill-rule="evenodd">
        <g id="LEMURBEAM" transform="translate(1.297881, 0.693674)" fill="#FFFFFF" stroke="#000000">
            <path d="M586.702119,41.0375124 L4.63558929,41.0375124 C1.54519643,46.7850527 0,58.0593132 0,74.8602938 C0,91.6612745 10.5224613,113.274411 31.5673838,139.699703 C34.4761175,144.746708 42.5695619,147.270211 55.8477171,147.270211 C69.1258723,147.270211 194.594584,147.270211 432.253853,147.270211 C443.877545,147.270211 449.68939,150.952299 449.68939,158.316476 C449.68939,165.680653 456.098383,168.959001 468.916368,168.151522 L586.702119,168.151522" id="board"></path>
            <path d="M586.702119,270.129019 L38.1766574,266.395286 C38.1766574,201.915818 38.1766574,165.889548 38.1766574,158.316476 C38.1766574,150.743404 35.9735662,144.537813 31.5673838,139.699703 C34.4761175,144.746708 42.5695619,147.270211 55.8477171,147.270211 C69.1258723,147.270211 194.594584,147.270211 432.253853,147.270211 C443.877545,147.270211 449.68939,150.952299 449.68939,158.316476 C449.68939,165.680653 456.098383,168.959001 468.916368,168.151522 L587,168.271208" id="board"></path>
            <path d="M586.702119,270.129019 L38.1732217,266.395286 L38.1732217,350.526341 C39.0964346,373.534998 55.4907026,385.039326 87.3560259,385.039326 C119.221349,385.039326 285.670047,385.039326 586.702119,385.039326" id="board"></path>
            <path d="M585.702119,347.306326 L529.202119,347.306326 C517.880281,347.306326 508.702119,338.128163 508.702119,326.806326 C508.702119,315.484489 517.880281,306.306326 529.202119,306.306326 L585.702119,306.306326" id="h7"></path>
            <rect id="h6" x="67.7021187" y="305.306326" width="405" height="41" rx="20.5"></rect>
            <path d="M586.702119,228.306326 L530.202119,228.306326 C518.880281,228.306326 509.702119,219.128163 509.702119,207.806326 C509.702119,196.484489 518.880281,187.306326 530.202119,187.306326 L586.702119,187.306326" id="h5"></path>
            <rect id="h4" x="67.7021187" y="187.306326" width="405" height="41" rx="20.5"></rect>
            <rect id="h3" x="48.7021187" y="63.3063261" width="405" height="41" rx="20.5"></rect>
            <path d="M586.702119,15.3423958 L261.861756,15.3423958 C249.302556,14.6757003 243.022957,9.61362205 243.022957,0.156161057 C243.022957,0.156161057 243.022957,41.0375124 270.119911,41.0375124 C288.184548,41.0375124 393.71195,41.0375124 586.702119,41.0375124" id="h2"></path>
            <path d="M243.022957,0.156161057 C243.022957,0.156161057 179.396104,0.156161057 52.142397,0.156161057 C30.9913267,-1.63560891 15.1557241,11.9915082 4.63558929,41.0375124 C4.63558929,41.0375124 93.1303633,41.0375124 270.119911,41.0375124 C253.598634,41.0375124 244.566316,27.4103953 243.022957,0.156161057 Z" id="h1"></path>
        </g>
    </g>
</svg>