<?xml version="1.0" encoding="UTF-8"?>
<svg width="589px" height="418px" viewBox="0 0 589 418" version="1.1" xmlns="http://www.w3.org/2000/svg" xmlns:xlink="http://www.w3.org/1999/xlink">
    <title>MAKAKBOARD1</title>
    <g id="Page-1" stroke="none" stroke-width="1" fill="none" fill-rule="evenodd">
        <g id="MAKAKBOARD1" transform="translate(1.377234, 0.857644)" fill="#FFFFFF">
            <path d="M586.622766,382.696298 C531.53851,384.512701 492.711639,390.005347 470.142153,399.174238 C436.287923,412.927573 360.115827,431.212326 331.496094,396.51693 C302.87636,361.821534 260.359065,325.191807 226.604242,325.191807 C204.101026,325.191807 187.587308,329.763025 177.063085,338.905461 C161.342123,349.36853 149.669153,350.004259 142.044174,340.812648 C134.419195,331.621037 133.638702,320.479554 139.702697,307.388199 C157.541106,283.976455 177.692302,270.285726 200.156287,266.316012 C233.852265,260.361442 282.313654,252.907542 282.313654,223.893786 C282.313654,204.551283 269.340344,187.094826 243.393725,171.524417 C168.864918,154.657267 121.480548,153.331046 101.240617,167.545752 C81.000685,181.760458 72.8780336,188.418398 76.8726625,187.519572 L120.440005,97.4656298 L243.393725,16.8978692 L426.853614,39.4844423 L586.622766,79.0856831" id="board" stroke="#000000"></path>
            <path d="M341.237778,94.4060012 C307.252362,89.6511774 283.43854,90.6152992 269.796311,97.2983667 C249.332968,107.322968 214.518293,120.860174 206.287166,111.053807 C198.05604,101.24744 196.808479,90.2725678 213.957818,82.9063623 C231.107156,75.5401567 266.04731,64.8162184 292.778961,64.8162184 C319.510612,64.8162184 338.903187,74.8708929 345.307051,77.8476384 C351.710915,80.824384 358.070122,86.8180483 354.890519,92.0582075 C352.770783,95.551647 348.219869,96.3342449 341.237778,94.4060012 Z" id="h2" stroke="#000000"></path>
            <path d="M414.157852,64.8162184 C428.81976,65.4240226 439.890566,68.742775 447.370271,74.7724757 C454.849975,80.8021764 452.054348,86.67742 438.983389,92.3982064 C419.957399,94.2941026 408.851054,93.3728804 405.664355,89.6345398 C400.884307,84.027029 398.508419,80.703412 398.508419,74.7724757 C398.508419,68.8415394 399.278111,64.8162184 407.789892,64.8162184 C413.464413,64.8162184 415.587066,64.8162184 414.157852,64.8162184 Z" id="h3" stroke="#000000"></path>
            <path d="M535.964585,129.690542 L417.579406,156.541143 C390.391727,160.607662 375.078738,161.935922 371.640441,160.525921 C366.482994,158.41092 365.477068,156.601914 365.477068,154.138263 C365.477068,151.674613 366.9658,146.489429 374.804362,143.816872 C382.642924,141.144315 435.268131,126.133878 455.935068,122.980454 C476.602005,119.82703 514.25446,112.727751 525.109523,112.727751 C535.964585,112.727751 539.70112,112.727751 540.806479,119.786084 C541.543385,124.491346 539.929421,127.792832 535.964585,129.690542 Z" id="h4" stroke="#000000"></path>
            <path d="M437.49508,220.874864 C423.142221,226.20738 413.755481,230.168425 409.334862,232.757997 C402.703933,236.642356 382.921747,241.701371 378.908831,241.701371 C374.895915,241.701371 361.549951,242.749159 358.418763,234.859497 C355.287576,226.969835 358.760924,222.595444 373.026147,218.45124 C387.291371,214.307036 438.636053,198.864253 453.228395,196.377528 C467.820738,193.890803 487.334194,194.264933 490.713988,199.297526 C494.093781,204.330118 498.370243,209.40665 495.291883,214.85679 C493.239643,218.490217 486.650172,219.642546 475.523469,218.313775 C462.673659,216.979792 454.561176,216.669206 451.186018,217.38202 C447.810859,218.094833 443.247214,219.259115 437.49508,220.874864 Z" id="h5" stroke="#000000"></path>
            <path d="M367.04098,300.951872 C346.315381,308.352197 348.822446,310.069379 334.533363,315.426603 C320.244279,320.783827 311.203535,316.181643 309.250398,312.547145 C307.297261,308.912646 302.823495,299.962425 319.79082,293.551548 C336.758144,287.14067 374.068676,269.455636 397.113317,269.455636 C420.157957,269.455636 426.853614,266.420694 426.853614,279.008131 C426.853614,291.595569 418.28775,291.966594 404.714029,293.551548 C391.140307,295.136501 387.766578,293.551548 367.04098,300.951872 Z" id="h7" stroke="#000000"></path>
            <path d="M586.622766,336.863077 C535.179826,341.792037 502.720494,347.164487 489.24477,352.980427 C475.769047,358.796367 469.423045,358.796367 470.206764,352.980427 C474.10111,340.439563 482.387122,332.045559 495.064801,327.798418 C514.08132,321.427705 542.505392,312.924108 586.622766,312.924108" id="h10" stroke="#000000"></path>
            <path d="M425.217951,345.36828 C429.96264,356.089068 410.630486,365.628119 401.866305,367.793592 C393.102125,369.959065 365.302403,372.870274 362.596693,365.106328 C359.890983,357.342382 368.878358,347.288915 390.823577,341.710783 C410.590033,337.001923 422.054825,338.221088 425.217951,345.36828 Z" id="h9" stroke="#000000"></path>
            <path d="M529.686944,281.687169 C501.091671,287.111603 486.121603,287.111603 484.776741,281.687169 C482.759448,273.550519 486.545274,264.417138 505.738327,259.447232 C524.931379,254.477326 539.177707,254.191048 547.141874,255.646761 C555.10604,257.102474 562.122766,259.11033 562.122766,265.726295 C562.122766,272.34226 556.259963,276.646351 529.686944,281.687169 Z" id="h8" stroke="#000000"></path>
            <path d="M282.313654,210.171647 C282.313654,203.462752 291.95388,191.112319 315.835421,202.636901 C339.716961,214.161483 365.477068,236.642356 341.60238,266.316012 C317.727691,295.989668 292.800344,293.501846 255.29979,300.927424 C217.799236,308.353003 210.395623,325.849408 203.583759,327.16461 C196.151823,328.599532 187.311599,332.513149 177.063085,338.905461 C161.342123,349.36853 149.669153,350.004259 142.044174,340.812648 C134.419195,331.621037 133.638702,320.479554 139.702697,307.388199 C157.541106,283.976455 177.692302,270.285726 200.156287,266.316012 C233.852265,260.361442 282.313654,252.907542 282.313654,223.893786 C282.313654,194.880031 282.313654,216.171678 282.313654,210.171647 Z" id="h6"></path>
            <path d="M586.622766,89.6345398 C527.919099,89.6345398 523.207737,84.3323001 445.626863,60.7107306 C368.045989,37.0891612 237.450417,25.6485507 180.224269,70.2149999 C122.998121,114.781449 100.320558,149.132273 91.184199,164.524148 C82.0478399,179.916023 78.1459126,185.809663 64.9492912,204.739503 C51.7526698,223.669343 35.1568391,235.341866 23.9210395,226.532028 C12.6852399,217.722191 -10.01287,197.405103 4.94303241,167.152103 C14.913634,146.983436 28.8262407,126.553451 46.6808524,105.862147 C110.271929,35.2873823 175.842887,-1.27897692e-13 243.393725,-1.27897692e-13 C344.719983,-1.27897692e-13 392.259088,12.6004963 451.453787,33.3733807 C510.648486,54.1462651 543.61651,64.8162184 586.622766,64.8162184" id="h1" stroke="#979797"></path>
        </g>
    </g>
</svg>