<?xml version="1.0" encoding="UTF-8"?>
<svg width="584px" height="337px" viewBox="0 0 584 337" version="1.1" xmlns="http://www.w3.org/2000/svg" xmlns:xlink="http://www.w3.org/1999/xlink">
    <title>MAKAKBOARD4</title>
    <g id="Page-1" stroke="none" stroke-width="1" fill="none" fill-rule="evenodd">
        <g id="MAKAKBOARD4" transform="translate(0.523202, 1.237703)" fill="#FFFFFF" stroke="#000000">
            <path d="M582.476798,89.0237961 L463.563401,92.2567212 C469.577504,217.829803 478.850692,284.300983 491.382964,291.67026 C510.181373,302.724176 541.395862,315.625908 582.476798,315.625908" id="Path-5"></path>
            <path d="M468.134968,64.0919932 C409.782502,49.1912715 362.243797,40.8473311 325.518852,39.0601719 C270.431434,36.3794331 245.03657,14.3460296 207.416348,7.36583308 C169.796126,0.385636511 159.244753,-2.30930452 121.619855,2.25523863 C83.9949579,6.81978179 28.4033559,36.104975 28.4033559,87.4686009 C28.4033559,121.711018 23.1388709,146.801637 12.6099011,162.740458 C4.20330036,178.995799 -2.27373675e-13,194.567566 -2.27373675e-13,209.45576 C-2.27373675e-13,231.788051 30.3577769,268.83526 50.034783,274.787631 C69.711789,280.740002 74.5321518,286.654763 84.0029841,298.129131 C93.4738164,309.603499 140.029912,344.880881 185.798942,331.285375 C231.567973,317.689869 387.546518,285.711334 427.840743,285.711334 C454.703559,285.711334 475.532614,287.402427 490.327908,290.784612 L468.134968,64.0919932 Z" id="Path-6"></path>
            <path d="M468.134968,64.0919932 C409.782502,49.1912715 362.243797,40.8473311 325.518852,39.0601719 C270.431434,36.3794331 245.03657,14.3460296 207.416348,7.36583308 C169.796126,0.385636511 159.244753,-2.30930452 121.619855,2.25523863 C83.9949579,6.81978179 28.4033559,36.104975 28.4033559,87.4686009 C28.4033559,121.711018 23.1388709,146.801637 12.6099011,162.740458 C4.20330036,178.995799 2.84217094e-14,194.567566 2.84217094e-14,209.45576 C2.84217094e-14,231.788051 18.0795333,249.946524 35.7355339,251.100217 C53.3915346,252.253909 101.294861,224.667466 114.2492,213.496159 C127.203538,202.324852 222.503227,94.4531664 319.071314,104.149264 C415.6394,113.845362 409.418995,105.304522 473.381001,120.287099 C473.381001,120.287099 471.632323,101.555397 468.134968,64.0919932 Z" id="h1"></path>
            <path d="M138.891227,219.897983 C251.898884,198.269784 319.733862,187.455684 342.396161,187.455684 C376.389608,187.455684 437.58559,188.807215 437.58559,197.655084 C437.58559,203.553664 405.85578,208.342995 342.396161,212.023077 C299.386165,212.588064 266.28495,213.319289 243.092515,214.216752 C219.900079,215.114216 185.166317,217.007959 138.891227,219.897983 Z" id="h6"></path>
            <path d="M374.324838,243.59237 C320.040111,246.345641 192.948321,253.492191 180.725366,259.526762 C172.576729,263.549809 173.29497,267.151335 182.880088,270.331338 C194.120913,275.399108 210.71654,276.207449 232.666969,272.756362 C265.592614,267.579732 353.683261,252.927342 364.004049,251.251769 C369.150396,250.416263 385.406144,248.163527 393.866228,247.16141 C402.326311,246.159293 443.483304,240.084717 374.324838,243.59237 Z" id="h7"></path>
            <path d="M582.476798,31.3980847 C528.688221,32.005618 490.574277,42.9035874 468.134968,64.0919932 C468.134968,64.0919932 457.848943,104.689936 468.134968,115.959159 C478.420992,127.228382 540.068883,146.649508 582.476798,146.649508" id="h2"></path>
            <path d="M582.476798,155.518436 C551.935672,155.035783 532.116773,153.961153 523.0201,152.294546 C509.37509,149.794636 504.421618,153.616374 504.421618,155.518436 C504.421618,157.420498 503.702259,184.790283 582.476798,184.790283" id="h5"></path>
            <path d="M582.476798,215.422352 C543.38143,218.536609 518.248467,228.765186 507.077908,246.108083 C497.146823,258.86868 536.970805,247.354941 582.476798,247.354941" id="h8"></path>
            <path d="M164.952645,167.178068 C182.985795,177.12023 199.731285,181.243191 215.189114,179.546952 C238.375857,177.002594 261.004949,166.620008 261.004949,153.668316 C261.004949,140.716624 249.711261,122.108624 226.27006,125.567662 C226.27006,125.567662 214.148247,131.401186 192.623509,146.008017 C187.197994,149.689808 177.974373,156.746491 164.952645,167.178068 Z" id="h3"></path>
            <path d="M422.975884,116.476105 C437.58559,118.801558 446.197613,122.48285 446.197613,137.312329 C446.197613,152.141807 410.902975,151.472449 404.276167,151.472449 C397.649358,151.472449 372.430621,147.89071 372.430621,135.060886 C372.430621,122.231062 383.598648,118.520256 389.795685,116.476105 C395.992722,114.431954 408.366177,114.150651 422.975884,116.476105 Z" id="h4"></path>
        </g>
    </g>
</svg>