<?xml version="1.0" encoding="UTF-8"?>
<svg width="579px" height="132px" viewBox="0 0 579 132" version="1.1" xmlns="http://www.w3.org/2000/svg" xmlns:xlink="http://www.w3.org/1999/xlink">
    <title>MANUVABOARD</title>
    <g id="Page-1" stroke="none" stroke-width="1" fill="none" fill-rule="evenodd">
        <g id="MANUVABOARD" transform="translate(1.000000, 0.937019)" fill="#FFFFFF" stroke="#000000">
            <path d="M578,130.062981 L65,130.062981 C29.1014913,130.062981 0,100.96149 0,65.0629815 C0,29.1644727 29.1014913,0.0629814797 65,0.0629814797 L578,0.0629814797" id="board"></path>
            <circle id="board" cx="139" cy="29.0629815" r="13"></circle>
            <rect id="h5" x="37" y="57.0629815" width="470" height="50" rx="25"></rect>
            <rect id="h4" x="37" y="57.0629815" width="321" height="50" rx="25"></rect>
            <rect id="h3" x="37" y="57.0629815" width="175" height="50" rx="25"></rect>
            <path d="M519.416654,0.0629814797 C511.138885,0.0629814797 507,3.13119566 507,9.26762403 C507,32.0780945 507,32.0780945 480.205434,32.0780945 C453.410867,32.0780945 295.684603,32.0780945 275.494525,32.0780945 C255.304447,32.0780945 255.304447,32.0780945 255.304447,9.26762403 C255.304447,3.13119566 251.396811,0.0629814797 243.581538,0.0629814797 L519.416654,0.0629814797 Z" id="h2"></path>
            <path d="M255.304447,9.26762403 C255.304447,9.26762403 180.937764,9.26762403 32.2043968,9.26762403 C42.8060224,2.57987787 55.5754206,-0.488336311 70.5125913,0.0629814797 C85.449762,0.61429927 143.139411,0.61429927 243.581538,0.0629814797 C251.396811,0.0629814797 255.304447,3.13119566 255.304447,9.26762403 Z" id="h1"></path>
        </g>
    </g>
</svg>