<?xml version="1.0" encoding="UTF-8"?>
<svg width="206px" height="331px" viewBox="0 0 366 331" version="1.1" xmlns="http://www.w3.org/2000/svg" xmlns:xlink="http://www.w3.org/1999/xlink">
    <title>MAXGRIP</title>
    <g id="Page-1" stroke="none" stroke-width="1" fill="none" fill-rule="evenodd">
        <g id="MAXGRIP" transform="translate(1.000000, 1.000000)" fill="#FFFFFF" stroke="#000000">
            <path d="M54.7664905,328.89707 C45.6382579,329.593657 40.2386825,326.754584 38.5677643,320.379852 C36.061387,310.817754 22.5380904,254.40214 20.867222,248.485788 C19.1963536,242.569435 8.01975415,167.988744 8.01975415,151.240943 C8.01975415,140.075742 7.23332716,124.111072 5.66047317,103.346933 C1.88682439,91.3266189 0,81.5740278 0,74.0891593 C0,66.6042908 0,46.6991805 0,14.3738284 C0,6.79127613 4.31264784,3 12.9379435,3 C16.7607551,3 22.2845138,3 27.6140279,3 C47.5572168,3 56.6080376,111.632357 54.7664905,328.89707 Z" id="board"></path>
            <path d="M164,328.970173 L171.41037,328.970173 C176.410136,329.413904 179.766294,324.906727 181.478843,315.448642 C183.191393,305.990557 186.13506,291.348821 190.309844,271.523434 C193.561969,252.996696 195.188032,240.114709 195.188032,232.877474 C195.188032,222.021621 196.314345,205.050755 197.739714,195.865576 C199.165083,186.680397 204,133.304656 204,104.953303 C204,86.0524017 202.741914,56.2853826 200.225742,15.6522459 C200.504929,5.21741531 196.036169,0 186.819462,0 C177.602756,0 169.996269,109.656724 164,328.970173 Z" id="board"></path>
            <path d="M180.359444,104 C78.5284903,104 27.6130134,104 27.6130134,104 C17.0172714,81.650665 12.183675,48.2152301 13.1122243,3.69369539 L187,0 L180.359444,104 Z" id="h1"></path>
            <path d="M180,104 L176.465076,150.110678 L30.397581,152 C30.9205683,128.848371 29.7880413,112.848371 27,104 C27,104 78,104 180,104 Z" id="h2"></path>
            <path d="M30.638477,151.879106 C28.8794923,153.069737 28,154.923208 28,157.439518 C28,159.955828 32.8677067,192.604892 42.6031202,255.386708 C44.0744857,261.795569 46.0394779,265 48.4980966,265 C50.9567154,265 90.8850113,265 168.282984,265 L176,150 L30.638477,151.879106 Z" id="h3"></path>
            <path d="M49,265 C53.024779,288.973545 53.9344192,301.973545 51.7289204,304 C51.7289204,304 89.7476521,304 165.785116,304 L169,265 L49,265 Z" id="h4"></path>
            <path d="M166,304 L164.117329,328.970203 L54.5315876,329 C51.2647503,312.333333 50.2643638,304 51.530428,304 C52.7964923,304 90.9530163,304 166,304 Z" id="h5"></path>
        </g>
    </g>
</svg>
