<?xml version="1.0" encoding="UTF-8"?>
<svg width="665px" height="264px" viewBox="0 0 665 264" version="1.1" xmlns="http://www.w3.org/2000/svg" xmlns:xlink="http://www.w3.org/1999/xlink">
    <title>MAXSPINCHSOLO-HARD</title>
    <g id="Page-1" stroke="none" stroke-width="1" fill="none" fill-rule="evenodd">
        <g id="MAXSPINCHSOLO-HARD" transform="translate(332.500000, 132.000000) scale(-1, 1) rotate(-180.000000) translate(-332.500000, -132.000000) translate(1.000000, 1.000000)" stroke="#000000">
            <g id="flip" transform="translate(331.500000, 131.000000) scale(-1, 1) rotate(-180.000000) translate(-331.500000, -131.000000) translate(-0.000000, 0.000000)">
                <path d="M662.996521,22.6178505 L430.181647,22.6178505 C411.494705,22.8775324 395.261196,18.6555927 381.481122,9.95203157 C367.701047,1.24847043 310.737629,-1.74630834 210.590867,0.967695268 L130.743251,0.967695268 C124.332847,-0.0654073152 118.619878,0.705200966 113.604342,3.2795201 C108.588807,5.85383924 74.7227054,24.5162468 12.0060356,59.2667427 C-0.858802088,71.582413 -3.38483681,85.4566434 4.42793146,100.889433 C12.2406997,116.322223 39.4537707,163.064021 86.0671446,241.114828 C92.7248595,255.038276 107.616895,262 130.743251,262 C153.869607,262 231.077838,262 362.367943,262 C368.450473,261.595009 373.903486,260.292381 378.72698,258.092116 C385.962222,254.791719 402.862252,248.453888 427.530083,248.453888 C443.975305,248.453888 522.464117,248.453888 662.996521,248.453888" id="hangboard" fill="#FFFFFF" fill-rule="nonzero"></path>
                <path d="M663,22.6178498 L403.994822,22.6178498 C406.347706,23.7701531 408.04797,25.0416029 409.095614,26.4321991 C414.629292,33.7773515 421.933155,44.8089956 430.185126,55.0283966 C430.185126,55.0283966 507.790084,55.0283966 663,55.0283966" id="h3" fill="#FFFFFF" fill-rule="nonzero" transform="translate(533.497411, 38.823123) scale(-1, 1) rotate(-180.000000) translate(-533.497411, -38.823123) "></path>
                <path d="M430.181647,22.6178505 C411.494705,22.8775324 395.261196,18.6555927 381.481122,9.95203157 C367.701047,1.24847043 310.737629,-1.74630834 210.590867,0.967695268 L130.743251,0.967695268 C124.58744,0.967695268 118.619878,0.705200966 113.604342,3.2795201 C108.588807,5.85383924 104.836992,52.6575111 113.604342,52.6575111 C122.371692,52.6575111 216.980194,53.7965489 397.429848,56.0746245 C402.852884,56.4589911 407.290658,54.0991205 410.74317,48.9950125 C414.195684,43.8909045 420.675175,35.0985172 430.181647,22.6178505 Z" id="h2" fill="#FFFFFF" fill-rule="nonzero"></path>
                <path d="M119.45653,1.44119945 C108.261549,0.710317621 74.7227054,24.5162468 12.0060356,59.2667427 C-0.858802088,71.582413 -3.38483681,85.4566434 4.42793146,100.889433 C12.2406997,116.322223 75.7337279,170.024339 38.9256594,104.974501 C35.5986754,96.9932677 36.854667,91.0728491 42.6936339,87.2132455 C48.5326009,83.3536418 65.7021897,72.9741015 94.2024002,56.0746245 C98.3696786,53.7965489 107.652758,52.6781027 116.420108,52.6781027 C124.149302,52.6781027 122.260625,17.7742179 122.260625,5.68627108 C122.260625,2.57374255 120.782147,1.52774442 119.45653,1.44119945 Z" id="h1" fill="#FFFFFF" fill-rule="nonzero"></path>
                <path d="M1.860311,94.7468567 C5.99045921,106.583011 39.4537707,163.064021 86.0671446,241.114828 C87.9076171,244.963855 99.7704029,262 117.213674,260.161865 C126.983652,259.132325 119.234375,220.819824 113.06776,220.819824 C109.101158,220.819824 100.534292,213.116934 99.7704029,211.854916 C96.0153092,205.651144 75.7337279,170.024339 38.9256594,104.974501 C37.1088032,101.926398 37.0131046,98.6951682 37.0131046,94.7468567 C37.0131046,90.7985445 28.3193727,89.9778393 25.6792455,89.9778393 C15.6691116,89.9778393 -0.208238204,88.81882 1.860311,94.7468567 Z" id="bottom" fill="#FFFFFF" fill-rule="nonzero"></path>
                <path d="M662.996521,220.875111 L427.81301,221.344788 C427.203494,231.02849 423.10116,240.064857 415.506009,248.453888 C415.506009,248.453888 497.814229,247.98421 662.996521,247.98421" id="bottom" transform="translate(539.251265, 234.664499) scale(-1, 1) rotate(-180.000000) translate(-539.251265, -234.664499) "></path>
                <path d="M110.753222,243.722541 C110.753222,258.092116 107.616895,262 130.743251,262 C153.869607,262 231.077838,262 362.367943,262 C368.450473,261.595009 373.903486,260.292381 378.72698,258.092116 C385.962222,254.791719 402.862252,248.453888 427.530084,248.453888 C427.530084,242.565109 425.065408,235.605963 420.136058,227.57645 C415.206706,219.546937 409.570085,216.515362 403.226191,218.481725 C388.229704,220.04216 376.01921,220.822378 366.594707,220.822378 C357.170203,220.822378 273.236107,220.822378 114.792417,220.822378 C108.532835,221.047842 110.753222,221.344788 110.753222,243.722541 Z" id="bottom" fill="#FFFFFF" fill-rule="nonzero"></path>
                <rect id="h11" fill="#FFFFFF" fill-rule="nonzero" x="541.409613" y="155.106226" width="75.5421623" height="35.2792345" rx="17.6396172"></rect>
                <rect id="h10" fill="#FFFFFF" fill-rule="nonzero" x="387.447491" y="159.426132" width="112.23407" height="34.5592501" rx="17.279625"></rect>
                <rect id="h9" fill="#FFFFFF" fill-rule="nonzero" x="199.671259" y="159.426132" width="146.04818" height="34.5592501" rx="17.279625"></rect>
                <ellipse id="h8" fill="#FFFFFF" fill-rule="nonzero" cx="136.000008" cy="179.225702" rx="19.784852" ry="19.7995704"></ellipse>
                <ellipse id="h7" fill="#FFFFFF" fill-rule="nonzero" cx="579.180694" cy="91.3876083" rx="19.0654029" ry="19.079586"></ellipse>
                <rect id="h6" fill="#FFFFFF" fill-rule="nonzero" x="375.936305" y="72.3080223" width="141.731486" height="38.159172" rx="18"></rect>
                <rect id="h5" fill="#FFFFFF" fill-rule="nonzero" x="219.815836" y="72.3080223" width="111.514621" height="38.159172" rx="18"></rect>
                <rect id="h4" fill="#FFFFFF" fill-rule="nonzero" x="98.228927" y="72.3080223" width="76.2616115" height="33.1192813" rx="16.5596407"></rect>
            </g>
        </g>
    </g>
</svg>