<?xml version="1.0" encoding="UTF-8"?>
<svg width="668px" height="265px" viewBox="0 0 668 265" version="1.1" xmlns="http://www.w3.org/2000/svg" xmlns:xlink="http://www.w3.org/1999/xlink">
    <title>MAXSPINCHSOLO-EASY</title>
    <g id="Page-1" stroke="none" stroke-width="1" fill="none" fill-rule="evenodd">
        <g id="MAXSPINCHSOLO-EASY" transform="translate(334.000000, 132.500000) scale(-1, 1) rotate(-180.000000) translate(-334.000000, -132.500000) translate(1.000000, 1.000000)" fill="#FFFFFF" stroke="#000000">
            <path d="M666,22.7041782 L432.481593,22.7041782 C413.738182,22.9648512 397.455618,18.7267973 383.633902,9.99001642 C369.812186,1.25323558 312.676633,-1.75297364 212.227242,0.971388761 L132.138338,0.971388761 C125.708563,-0.0656569614 119.978329,0.707892573 114.947638,3.29203736 C109.916947,5.87618214 75.9485065,24.6098202 13.0423161,59.4929517 C0.138602738,71.8556283 -2.39506529,85.7828138 5.44131202,101.274507 C13.2776894,116.766201 40.5729943,163.686403 87.3272269,242.035113 C94.0050605,256.011704 108.942098,263 132.138338,263 C155.334579,263 232.776121,263 364.462966,263 C370.563877,262.593463 376.033368,261.285863 380.871438,259.0772 C388.128544,255.764206 405.079642,249.402185 429.822017,249.402185 C446.316933,249.402185 525.042928,249.402185 666,249.402185" id="hangboard" fill-rule="nonzero"></path>
            <path d="M666,24 L406,24 C408.361921,25.1377069 410.068716,26.3930512 411.120384,27.7660326 C416.675317,35.0181434 424.007233,45.9100489 432.290899,56 C432.290899,56 510.193933,56 666,56" id="bottom" transform="translate(536.000000, 40.000000) scale(-1, 1) rotate(-180.000000) translate(-536.000000, -40.000000) "></path>
            <path d="M432,22.5714978 C413.245609,22.8306475 396.953507,18.6173602 383.123694,9.93163603 C369.293881,1.24591183 312.124859,-1.74272948 211.616625,0.965712088 L131.480806,0.965712088 C125.302776,0.965712088 119.313674,0.703755738 114.280035,3.2727991 C109.246397,5.84184247 105.48104,52.5495956 114.280035,52.5495956 C123.07903,52.5495956 218.029014,53.6862991 399.129986,55.959706 C404.572595,56.3432849 409.026387,53.9882506 412.491362,48.8946029 C415.956337,43.8009551 422.459215,35.0265868 432,22.5714978 Z" id="bottom" fill-rule="nonzero"></path>
            <path d="M119.979208,1.01637835 C108.735244,0.285273662 75.0496524,24.0984615 12.0585677,58.8595532 C-0.862559751,71.1789787 -3.39964707,85.0574395 4.44730575,100.494935 C12.2942586,115.93243 76.0650986,169.650921 39.0959775,104.581248 C35.7544364,96.5975814 37.0159235,90.6753576 42.8804387,86.8145771 C48.7449539,82.9537966 65.9896677,72.5710915 94.61458,55.6664617 C98.8000922,53.3876915 108.12379,52.2689043 116.929501,52.2689043 C124.692514,52.2689043 122.795573,17.3543769 122.795573,5.26274434 C122.795573,2.14926677 121.310626,1.1029497 119.979208,1.01637835 Z" id="bottom" fill-rule="nonzero"></path>
            <path d="M2.18492337,94.8773242 C6.34332811,106.754192 40.0355798,163.42948 86.9678604,241.748759 C88.8209246,245.611025 100.76487,262.70577 118.32748,260.861312 C128.1643,259.828231 120.362005,221.383946 114.153202,221.383946 C110.159462,221.383946 101.533986,213.65456 100.76487,212.388201 C96.9840857,206.16309 76.5637474,170.41374 39.5038555,105.140149 C37.6745692,102.081561 37.5782158,98.8392168 37.5782158,94.8773242 C37.5782158,90.9154309 28.8250055,90.0919028 26.1668158,90.0919028 C16.0881973,90.0919028 0.102222125,88.9288968 2.18492337,94.8773242 Z" id="h1" fill-rule="nonzero"></path>
            <path d="M666,222 L430.332337,222.476851 C429.721566,232.308456 425.610787,241.482839 418,250 C418,250 500.477661,249.523149 666,249.523149" id="h3" fill-rule="nonzero" transform="translate(542.000000, 236.000000) scale(-1, 1) rotate(-180.000000) translate(-542.000000, -236.000000) "></path>
            <path d="M111.383442,244.763367 C111.383442,259.100845 108.238802,263 131.42646,263 C154.614118,263 232.027008,263 363.66513,263 C369.763784,262.595913 375.231251,261.296195 380.067531,259.100845 C387.321952,255.80782 404.266779,249.484145 429,249.484145 C429,243.60852 426.528791,236.664919 421.586374,228.653341 C416.643956,220.641763 410.992393,217.61696 404.631684,219.578931 C389.595445,221.13588 377.352583,221.914355 367.903098,221.914355 C358.453613,221.914355 274.297028,221.914355 115.433344,221.914355 C109.157169,222.139315 111.383442,222.435599 111.383442,244.763367 Z" id="h2" fill-rule="nonzero"></path>
            <rect id="h7" fill-rule="nonzero" x="543" y="155" width="76" height="36" rx="18"></rect>
            <rect id="h6" fill-rule="nonzero" x="390" y="159" width="113" height="36" rx="18"></rect>
            <rect id="h5" fill-rule="nonzero" x="201" y="159" width="146" height="36" rx="18"></rect>
            <circle id="h4" fill-rule="nonzero" cx="136.5" cy="179.5" r="20.5"></circle>
            <circle id="h11" fill-rule="nonzero" cx="581.5" cy="91.5" r="19.5"></circle>
            <rect id="h10" fill-rule="nonzero" x="378" y="72" width="142" height="39" rx="18"></rect>
            <rect id="h9" fill-rule="nonzero" x="221" y="72" width="113" height="39" rx="18"></rect>
            <rect id="h8" fill-rule="nonzero" x="99" y="72" width="76" height="34" rx="17"></rect>
        </g>
    </g>
</svg>