<?xml version="1.0" encoding="UTF-8"?>
<svg width="1329px" height="508px" viewBox="0 0 1329 508" version="1.1" xmlns="http://www.w3.org/2000/svg" xmlns:xlink="http://www.w3.org/1999/xlink">
    <title>METOLIUSPRIMERIB</title>
    <g id="Page-1" stroke="none" stroke-width="1" fill="none" fill-rule="evenodd">
        <g id="METOLIUSPRIMERIB" transform="translate(0.756757, 0.789474)" fill="#FFFFFF" stroke="#000000">
            <polyline id="board" points="1327.24324 506.210526 31.2432432 506.210526 31.2432432 0.210526316 1327.24324 0.210526316"></polyline>
            <path d="M1327.24324,411.210526 L31.2432432,411.210526 C10.5765766,411.877193 0.243243243,419.54386 0.243243243,434.210526 C0.243243243,448.877193 0.243243243,466.877193 0.243243243,488.210526 C-1.75675676,500.210526 8.57657658,506.210526 31.2432432,506.210526 C53.9099099,506.210526 485.90991,506.210526 1327.24324,506.210526" id="h3"></path>
            <path d="M1327.24324,235.210526 L31.2432432,235.210526 C16.5765766,236.54386 7.90990991,242.54386 5.24324324,253.210526 C1.24324324,269.210526 -0.756756757,300.210526 1.24324324,310.210526 C3.24324324,320.210526 14.2432432,327.210526 31.2432432,327.210526 C42.5765766,327.210526 474.576577,321.54386 1327.24324,310.210526" id="h2"></path>
            <path d="M1327.24324,0.210526316 L39.2432432,0.210526316 C24.5765766,-1.12280702 15.9099099,3.87719298 13.2432432,15.2105263 C9.24324324,32.2105263 1.24324324,77.2105263 7.24324324,96.2105263 C13.2432432,115.210526 15.2432432,119.210526 31.2432432,119.210526 C41.9099099,119.210526 473.90991,114.54386 1327.24324,105.210526" id="h1"></path>
        </g>
    </g>
</svg>