<?xml version="1.0" encoding="UTF-8"?>
<svg width="597px" height="195px" viewBox="0 0 597 195" version="1.1" xmlns="http://www.w3.org/2000/svg" xmlns:xlink="http://www.w3.org/1999/xlink">
    <title>METOLIUSLIGHTRAIL</title>
    <g id="Page-1" stroke="none" stroke-width="1" fill="none" fill-rule="evenodd">
        <g id="METOLIUSLIGHTRAIL" transform="translate(0.805034, 0.953408)" fill="#FFFFFF" stroke="#000000">
            <path d="M596.194966,60.5893205 L12.1949662,60.5893205 C6.32177853,60.5893205 3.3851847,55.2863265 3.3851847,44.6803385 C3.3851847,28.7709571 1.02540307,0 16.0064231,0 C25.9937698,0 219.389951,0 596.194966,0" id="h1"></path>
            <polyline id="h2" points="596.194966 88.4177125 12.1949662 88.4177125 12.1949662 60.5893205 596.194966 60.5893205"></polyline>
            <polyline id="h3" points="596.194966 88.4177125 12.1949662 88.4177125 12.1949662 138.886071 596.194966 138.886071"></polyline>
            <path d="M596.194966,138.885936 L3.24975395,138.885936 C1.08325132,138.878092 0,141.296263 0,146.140447 C0,153.406723 0.876322917,193.189657 8.52820456,193.189657 C13.629459,193.189657 209.51838,193.189657 596.194966,193.189657" id="h4"></path>
        </g>
    </g>
</svg>