<?xml version="1.0" encoding="UTF-8"?>
<svg width="570px" height="235px" viewBox="0 0 570 235" version="1.1" xmlns="http://www.w3.org/2000/svg" xmlns:xlink="http://www.w3.org/1999/xlink">
    <title>MOONFINGER</title>
    <g id="Page-1" stroke="none" stroke-width="1" fill="none" fill-rule="evenodd">
        <g id="MOONFINGER" transform="translate(1.000000, 1.000000)" fill="#FFFFFF">
            <path d="M569,0 C548.895054,0 473.007755,2.05951226 429.427625,12.7009696 C385.847496,23.3424269 377.980391,24.8687071 361.212561,24.8687071 C344.444731,24.8687071 198.397105,4.44939655 147.07545,4.44939655 C95.7537959,4.44939655 0,12.3126375 0,106.998037 C0,170.121637 25.5648712,208.464758 76.6946135,222.0274 C104.786491,228.357528 134.617219,231.030129 166.186797,230.045201 C213.541163,228.567809 263.797388,220.55502 306.898163,208.798722 C335.632012,200.961191 371.105431,198.598782 413.31842,201.711496 C438.338399,206.378142 456.252327,210.117241 467.060203,212.928794 C506.999182,223.318491 539.564986,232.998581 569,232.998581" id="board" stroke="#000000"></path>
            <path d="M569,3.99014598 C541.397571,3.99014598 439.53006,16.272003 435.010863,17.346533 C431.998065,18.0628863 430.876037,19.514291 431.644778,21.7007472 L435.010863,38.4357555 C435.206105,44.8620965 439.858633,47.0863357 448.968447,45.108473 C462.633169,42.141679 549.480594,33.7537158 556.945128,33.7537158 C561.921484,33.7537158 565.939775,33.7537158 569,33.7537158" id="h8"></path>
            <path d="M255.605391,27.6960989 L251.801076,41.2519032 C251.11616,45.0663049 252.870376,47.2941601 257.063726,47.9354687 C263.353751,48.8974317 284.305463,50.8064919 324.071501,54.7799335 C339.949394,56.3664601 369.188272,55.0161042 382.049187,52.8433542 C399.799796,49.844529 413.153605,49.3907443 420.322696,48.1746164 C427.365029,46.9799911 429.858166,43.7518609 427.802106,38.4902258 L424.032281,23.5426459 C424.040993,20.1105556 421.044266,19.0343671 415.042101,20.3140803 C406.038854,22.2336502 378.46718,29.2338367 367.590101,29.2338367 C356.713022,29.2338367 279.938212,20.9166685 269.402357,19.3535694 C262.378455,18.3115033 257.779466,21.0923465 255.605391,27.6960989 Z" id="h7"></path>
            <path d="M131.108347,9.08520532 C180.691377,9.08520532 216.181357,11.6333474 237.578286,16.7296316 C246.652285,18.2068905 250.188894,21.5024738 248.188116,26.6163815 C246.187337,31.7302891 244.323635,36.3879714 242.597011,40.5894285 C241.485044,45.2607666 233.048921,46.14942 217.28864,43.2553887 C193.64822,38.9143417 184.50354,36.1283741 162.785444,36.1283741 C141.067347,36.1283741 105.146893,34.2321987 83.4519513,44.9622819 C61.7570099,55.6923651 51.6450883,68.9662385 42.3655504,63.8992109 C36.1791918,60.5211924 31.1701333,57.8156157 27.3383748,55.7824808 C22.340383,52.8171905 21.0908851,50.0885088 23.589881,47.5964356 C27.3383748,43.8583259 56.7338014,9.08520532 131.108347,9.08520532 Z" id="h6"></path>
            <path d="M569,135 C547.936849,135.196256 537,141.594206 537,153.942125 C537,172.464003 558.037598,175.966245 569,175.966245" id="h5" stroke="#000000" fill-rule="nonzero"></path>
            <ellipse id="h4" stroke="#000000" transform="translate(338.325009, 137.183264) rotate(-5.000000) translate(-338.325009, -137.183264) " cx="338.325009" cy="137.183264" rx="54.5" ry="20.5"></ellipse>
            <path d="M98.4253782,151.016602 C92.8716673,151.016602 81.5161985,152.353028 79.8560423,157.006837 C78.195886,161.660645 78.195886,163.4261 79.8560423,167.706055 C81.5161985,171.986011 97.702722,179.072266 123.271082,179.072266 C140.316655,179.072266 156.158452,178.38086 170.796472,176.998048 C189.608972,174.632162 201.069259,171.534831 205.177332,167.706055 C211.339441,161.962891 209.603113,158.868653 209.603113,157.006837 C209.603113,155.14502 205.39364,143.831544 188.100183,149.223633 C170.806726,154.615723 153.244423,154.176758 144.280946,154.176758 C135.317468,154.176758 126.783777,154.176758 124.289148,154.176758 C110.749109,152.069988 102.127852,151.016602 98.4253782,151.016602 Z" id="h3" stroke="#000000" fill-rule="nonzero"></path>
            <path d="M313.892171,57.5726319 C309.109516,57.5726319 299.330596,58.7257417 297.900929,62.7411928 C296.471262,66.756644 296.471262,68.2799335 297.900929,71.9728123 C299.330596,75.6656911 313.269846,81.7799335 335.288395,81.7799335 C349.967428,81.7799335 363.609813,81.1833666 376.215549,79.9902328 C392.416196,77.9488731 402.285381,75.2763997 405.823106,71.9728123 C411.129693,67.0174313 409.63443,64.3476261 409.63443,62.7411928 C409.63443,61.1347596 406.009383,51.3731393 391.116881,56.0256025 C376.22438,60.6780657 361.100357,60.2993131 353.381333,60.2993131 C345.66231,60.2993131 338.313403,60.2993131 336.165118,60.2993131 C324.504924,58.4815256 317.080609,57.5726319 313.892171,57.5726319 Z" id="h2" stroke="#000000" fill-rule="nonzero"></path>
            <ellipse id="h1" stroke="#000000" transform="translate(141.067347, 75.781836) rotate(-5.000000) translate(-141.067347, -75.781836) " cx="141.067347" cy="75.7818361" rx="60.5" ry="23"></ellipse>
        </g>
    </g>
</svg>