<?xml version="1.0" encoding="UTF-8"?>
<svg width="527px" height="229px" viewBox="0 0 527 229" version="1.1" xmlns="http://www.w3.org/2000/svg" xmlns:xlink="http://www.w3.org/1999/xlink">
    <title>MOUNTAINROCK1001</title>
    <g id="Page-1" stroke="none" stroke-width="1" fill="none" fill-rule="evenodd">
        <g id="MOUNTAINROCK1001" transform="translate(0.968691, 1.288859)" fill="#FFFFFF" stroke="#000000">
            <path d="M525.733856,226.711141 L16.0313087,226.711141 C7.19475273,226.711141 0.0313087271,219.547697 0.0313087271,210.711141 L0.0313087271,34.7111411 C0.0313087271,25.8745851 7.19475273,18.7111411 16.0313087,18.7111411 L525.733856,18.7111411" id="board"></path>
            <circle id="board" cx="163.031309" cy="80.7111411" r="8"></circle>
            <circle id="board" cx="205.031309" cy="80.7111411" r="8"></circle>
            <path d="M525.733856,0 C201.800792,0 32.9248303,0 19.1059705,0 C-1.62231919,0 0.0313087271,43.5476971 0.0313087271,34.7111411 C0.0313087271,25.8745851 7.19475273,18.7111411 16.0313087,18.7111411 L525.733856,18.7111411" id="h1"></path>
            <rect id="h2" x="44.0313087" y="57.7111411" width="86" height="49" rx="24.5"></rect>
            <rect id="h4" x="44.0313087" y="133.711141" width="168" height="48" rx="24"></rect>
            <rect id="h5" x="242.031309" y="133.711141" width="86" height="48" rx="24"></rect>
            <rect id="h6" x="350.031309" y="133.711141" width="49" height="48" rx="24"></rect>
            <rect id="h3" x="242.031309" y="57.7111411" width="171" height="49" rx="24.5"></rect>
            <path d="M525.733856,161.711141 L448.531309,161.711141 C435.552617,161.711141 425.031309,151.189833 425.031309,138.211141 L425.031309,134.211141 C425.031309,121.232449 435.552617,110.711141 448.531309,110.711141 L525.733856,110.711141" id="h7"></path>
        </g>
    </g>
</svg>