<?xml version="1.0" encoding="UTF-8"?>
<svg width="852px" height="554px" viewBox="0 0 852 554" version="1.1" xmlns="http://www.w3.org/2000/svg" xmlns:xlink="http://www.w3.org/1999/xlink">
    <title>MOUNTAINROCK2003</title>
    <g id="Page-1" stroke="none" stroke-width="1" fill="none" fill-rule="evenodd">
        <g id="MOUNTAINROCK2003" transform="translate(1.000000, 1.000000)" fill="#FFFFFF" fill-rule="nonzero">
            <path d="M851,551.752641 L46.8976659,551.752641 C15.6325553,553.811663 0,543.016172 0,519.366166 C0,495.71616 0,356.479823 0,101.657152 C1.84503754,33.4155972 30.0112405,-0.438112814 84.4986089,0.0960219128 C138.985977,0.630156644 209.650665,0.630156644 296.492673,0.0960219128 C311.254995,-0.557341851 319.499854,2.12356619 321.227252,8.13874602 C323.818347,17.1615158 330.414246,44.4788382 343.165371,44.4788382 C351.666121,44.4788382 363.133442,36.6433718 377.567333,20.9724388 C381.486075,16.2026505 388.751801,13.8177563 399.364505,13.8177563 C409.97721,13.8177563 560.522376,13.8177563 851,13.8177563" id="board" stroke="#000000"></path>
            <path d="M851,49.0214146 C749.787642,49.0214146 691.455372,49.3674337 676.13757,49.3674337 C653.160868,49.3674337 653.863008,54.1217768 653.863008,70.9168587 C653.863008,82.1135801 644.45134,87.1640297 625.628003,86.0682079 C452.70139,86.6440606 365.557242,86.9319871 364.195558,86.9319871 C306.419684,86.9319871 321.039675,15.1441026 321.039675,8.05644059 C321.039675,3.52796908 312.792942,0.842488883 296.299476,0 C206.41483,0.535045672 134.133755,0.802568509 79.4562503,0.802568509 C24.7787456,0.802568509 -1.67917745,40.7994285 0.0824810412,120.793148 L0.0824810412,238.925832 C0.0927513633,255.597987 13.0787263,263.934065 39.0404059,263.934065 C65.0020855,263.934065 205.722876,263.934065 461.202775,263.934065 C481.454921,265.135311 491.580994,249.922728 491.580994,218.29632 C491.580994,186.669912 491.580994,167.74421 491.580994,161.519216 C491.827503,149.858873 502.177115,144.0287 522.629826,144.0287 C543.082539,144.0287 652.539263,144.0287 851,144.0287" id="board" stroke="#000000"></path>
            <path d="M42.8366535,264.062529 C11.7369824,264.062529 -2.42877585,254.234702 0.33937873,234.579046 L0.33937873,381.068499 C0.33937873,398.977372 13.3307984,407.931809 39.3136378,407.931809 C65.2964772,407.931809 206.062597,407.931809 461.611996,407.931809 C481.870666,409.174157 492,393.441067 492,360.732541 C492,328.024016 492,308.45076 492,302.012773 L492,224 C492,250.708353 480.225108,264.062529 456.675325,264.062529 C421.350649,264.062529 89.4861604,264.062529 42.8366535,264.062529 Z" id="board" stroke="#000000"></path>
            <path d="M42.8366535,408.062529 C11.7369824,408.062529 -2.42877585,398.234702 0.33937873,378.579046 L0.33937873,525.068499 C0.33937873,542.977372 13.3307984,551.931809 39.3136378,551.931809 C65.2964772,551.931809 206.062597,551.931809 461.611996,551.931809 C481.870666,553.174157 492,537.441067 492,504.732541 C492,472.024016 492,452.45076 492,446.012773 L492,368 C492,394.708353 480.225108,408.062529 456.675325,408.062529 C421.350649,408.062529 89.4861604,408.062529 42.8366535,408.062529 Z" id="board" stroke="#000000"></path>
            <rect id="h4" stroke="#000000" x="16" y="157" width="200" height="66" rx="22.5"></rect>
            <rect id="h7" stroke="#000000" x="16" y="305" width="200" height="66" rx="22.5"></rect>
            <rect id="h10" stroke="#000000" x="16" y="449" width="200" height="66" rx="22.5"></rect>
            <rect id="h5" stroke="#000000" x="245" y="157" width="125" height="66" rx="22.5"></rect>
            <rect id="h8" stroke="#000000" x="245" y="305" width="125" height="66" rx="22.5"></rect>
            <rect id="h11" stroke="#000000" x="245" y="449" width="125" height="66" rx="22.5"></rect>
            <rect id="h6" stroke="#000000" x="400" y="157" width="66" height="66" rx="22.5"></rect>
            <rect id="h9" stroke="#000000" x="400" y="305" width="66" height="66" rx="22.5"></rect>
            <rect id="h12" stroke="#000000" x="400" y="449" width="66" height="66" rx="22.5"></rect>
            <circle id="h13" stroke="#000000" cx="661" cy="399" r="139"></circle>
            <path d="M851,13 L660.884266,13 L654.024146,63 C653.560069,53.6809431 659.785526,49.0214146 672.700516,49.0214146 C685.615506,49.0214146 745.048666,49.0214146 851,49.0214146" id="h3" stroke="#000000"></path>
            <path d="M660,13.8195044 L653.113171,63.4521868 C655.936353,78.7875803 647.974586,86.455277 629.227866,86.455277 C610.481147,86.455277 524.088359,86.455277 370.0495,86.455277 C330.110526,91.1078933 313.606478,65.9561343 320.537355,11 C320.537355,11 328.110147,47.4448076 342.902446,44.6857742 C352.76398,42.8464187 364.919031,34.3772168 379.367599,19.2781685 C382.854017,15.6390592 390.718663,13.8195044 402.961536,13.8195044 C415.204411,13.8195044 500.883899,13.8195044 660,13.8195044 Z" id="h2" stroke="#000000"></path>
            <path d="M301,71 L16,71 C24.9193002,29.2441737 48.8769505,8.57966633 87.8729507,9.00647783 C126.868951,9.43328933 197.911301,9.64669509 301,9.64669509 L301,71 Z" id="h1"></path>
        </g>
    </g>
</svg>