<?xml version="1.0" encoding="UTF-8"?>
<svg width="568px" height="304px" viewBox="0 0 568 304" version="1.1" xmlns="http://www.w3.org/2000/svg" xmlns:xlink="http://www.w3.org/1999/xlink">
    <title>N8SPASU</title>
    <g id="Page-1" stroke="none" stroke-width="1" fill="none" fill-rule="evenodd">
        <g id="N8SPASU" transform="translate(0.972827, 0.841257)" fill="#FFFFFF" stroke="#000000">
            <path d="M566.027844,302.248351 L58.7206315,302.248351 C19.5735438,303.086936 1.13686838e-13,284.149664 1.13686838e-13,245.436535 C1.13686838e-13,206.723406 1.13686838e-13,174.01415 1.13686838e-13,147.308769 L566.027844,147.308769" id="board"></path>
            <path d="M566.027173,15.0562019 L49.8355313,15.0562019 L7.27049045,61.6129363 L0,88.3557075 L0,142.658743 C0,181.341051 17.8259854,200.682205 53.4779562,200.682205 C89.129927,200.682205 259.92913,200.682205 565.875565,200.682205" id="board"></path>
            <path d="M474.317173,279.449005 L539.317844,279.449005 C546.399016,279.456705 553.192888,276.6493 558.202849,271.644966 C563.21281,266.640633 566.027844,259.84992 566.027844,252.768743 C566.025193,245.688381 563.209303,238.899212 558.199918,233.895454 C553.190534,228.891696 546.398204,226.083437 539.317844,226.088385 L474.317173,226.088385" id="h16" fill-rule="nonzero" transform="translate(520.172508, 252.768695) scale(-1, 1) translate(-520.172508, -252.768695) "></path>
            <rect id="h15" x="360.027173" y="226.158743" width="85" height="53" rx="26.5"></rect>
            <rect id="h14" x="264.027173" y="226.158743" width="72" height="53" rx="26.5"></rect>
            <rect id="h13" x="192.027173" y="226.158743" width="53" height="53" rx="26.5"></rect>
            <rect id="h12" x="22.0271726" y="226.158743" width="151" height="53" rx="26.5"></rect>
            <path d="M484.317173,169.449522 L539.317173,169.449522 C546.398345,169.456705 553.192217,166.6493 558.202178,161.644966 C563.212139,156.640633 566.027173,149.84992 566.027173,142.768743 C566.024522,135.688381 563.208631,128.899212 558.199247,123.895454 C553.189862,118.891696 546.397533,116.083437 539.317173,116.088327 L484.317173,116.088327" id="h11" fill-rule="nonzero" transform="translate(525.172173, 142.768924) scale(-1, 1) translate(-525.172173, -142.768924) "></path>
            <rect id="h10" x="393.027173" y="119.158743" width="71" height="47" rx="23.5"></rect>
            <rect id="h9" x="393.027173" y="119.158743" width="47" height="47" rx="23.5"></rect>
            <rect id="h8" x="258.027173" y="119.158743" width="115" height="47" rx="23.5"></rect>
            <rect id="h7" x="258.027173" y="119.158743" width="47" height="47" rx="23.5"></rect>
            <rect id="h6" x="187.027173" y="116.158743" width="47" height="47" rx="23.5"></rect>
            <rect id="h5" x="14.0271726" y="116.158743" width="153" height="47" rx="23.5"></rect>
            <rect id="h4" x="429.027173" y="40.1587429" width="121" height="47" rx="23.5"></rect>
            <path d="M566.027173,15.0562019 L408.05674,15.0562019 C408.444955,5.01873398 412.017072,2.48689958e-14 418.773091,2.48689958e-14 C425.529109,2.48689958e-14 474.613803,2.48689958e-14 566.027173,2.48689958e-14" id="h3"></path>
            <path d="M408.05674,15.0562019 L408.05674,50.3301339 L200.419567,50.3301339 C207.157971,41.5570821 210.527173,34.6556781 210.527173,29.625922 C210.527173,24.5961658 210.527173,19.7395925 210.527173,15.0562019 L408.05674,15.0562019 Z" id="h2"></path>
            <path d="M210.527173,15.0562019 L54.7907937,15.0562019 C23.1105915,14.4544596 7.27049045,29.9733711 7.27049045,61.6129363 C7.27049045,61.6129363 66.2799182,61.6129363 184.298774,61.6129363 C190.149348,60.2018962 195.522946,56.4409621 200.419567,50.3301339 C207.764499,41.1638915 210.527173,32.6931679 210.527173,32.6931679 C210.527173,27.5590168 210.527173,21.6800281 210.527173,15.0562019 Z" id="h1"></path>
        </g>
    </g>
</svg>