<?xml version="1.0" encoding="UTF-8"?>
<svg width="1333px" height="794px" viewBox="0 0 1333 794" version="1.1" xmlns="http://www.w3.org/2000/svg" xmlns:xlink="http://www.w3.org/1999/xlink">
    <title>NATURESTOAK</title>
    <g id="Page-1" stroke="none" stroke-width="1" fill="none" fill-rule="evenodd">
        <g id="NATURESTOAK" transform="translate(1.000000, 1.000000)" fill-rule="nonzero" stroke="#000000">
            <path d="M1332,48 L0,48 L0,665.142702 C0.671844845,749.714234 55.6353842,791.846719 164.890618,791.540158 C274.145853,791.233598 663.182314,791.386877 1332,792" id="board" fill="#FFFFFF"></path>
            <rect id="h4" fill="#FFFFFF" x="204" y="542" width="933" height="143" rx="71.5"></rect>
            <rect id="h2" fill="#FFFFFF" x="204" y="292" width="933" height="143" rx="71.5"></rect>
            <rect id="h3" fill="#FFFFFF" x="681" y="292" width="456" height="143" rx="71.5"></rect>
            <path d="M1332,0 L38.5604447,0 C13.5201482,0.909877502 1,7.63734727 1,20.1824093 C1,39 101.108846,72.9337911 237.184887,72.9337911 C327.902247,72.9337911 692.840619,72.9337911 1332,72.9337911 M1332,210.36619 L237.184887,210.36619 C111.934347,214.810826 33.206052,195.87922 1,153.571374 C1,153.571374 1,111.504277 1,22.5782999 C39.2650779,55.5870149 117.993373,72.0913725 237.184887,72.0913725 C356.376398,72.0913725 721.31477,72.0913725 1332,72.0913725" id="h1" fill="#DDDDDD"></path>
        </g>
    </g>
</svg>