<?xml version="1.0" encoding="UTF-8"?>
<svg width="611px" height="647px" viewBox="0 0 811 647" version="1.1" xmlns="http://www.w3.org/2000/svg" xmlns:xlink="http://www.w3.org/1999/xlink">
    <title>NATUREHANGER</title>
    <g id="Page-1" stroke="none" stroke-width="1" fill="none" fill-rule="evenodd">
        <g id="NATUREHANGER" stroke="#000000">
            <path d="M587,0.5 C593.489346,0.5 599.364346,3.13032709 603.617009,7.38299064 C607.869673,11.6356542 610.5,17.5106542 610.5,24 L610.5,288 C610.5,294.31187 608.011592,300.04255 603.962261,304.264479 C599.792596,308.61187 593.967917,311.359674 587.500799,311.49477 L587.500799,335.50523 C593.967917,335.640326 599.792596,338.38813 603.962261,342.735521 C608.011592,346.95745 610.5,352.68813 610.5,359 L610.5,623 C610.5,629.489346 607.869673,635.364346 603.617009,639.617009 C599.364346,643.869673 593.489346,646.5 587,646.5 L24,646.5 C17.5106542,646.5 11.6356542,643.869673 7.38299064,639.617009 C3.13032709,635.364346 0.5,629.489346 0.5,623 L0.5,359 C0.5,352.510654 3.13032709,346.635654 7.38299064,342.382991 C11.6356542,338.130327 17.5106542,335.5 24,335.5 L32.5,335.5 L32.5,311.5 L24,311.5 C17.5106542,311.5 11.6356542,308.869673 7.38299064,304.617009 C3.13032709,300.364346 0.5,294.489346 0.5,288 L0.5,24 C0.5,17.5106542 3.13032709,11.6356542 7.38299064,7.38299064 C11.6356542,3.13032709 17.5106542,0.5 24,0.5 L587,0.5 Z" id="board" fill="#FFFFFF"></path>
            <path d="M484,365.5 C502.087326,365.5 518.462326,372.831337 530.315494,384.684506 C542.168663,396.537674 549.5,412.912674 549.5,431 L549.5,574.5 L60.5,574.5 L60.5,431 C60.5,412.912674 67.8313372,396.537674 79.6845058,384.684506 C91.5376744,372.831337 107.912674,365.5 126,365.5 Z" id="board" fill="#FFFFFF"></path>
            <rect id="h2" fill="#DDDDDD" x="60.5" y="511.5" width="489" height="63"></rect>
            <path d="M549.5,471.5 L549.5,511.5 L60.5,511.5 L60.5,471.5 L549.5,471.5 Z" id="h2" fill="#DDDDDD"></path>
            <rect id="h1" fill="#FFFFFF" x="60.5" y="101.5" width="489" height="118" rx="59"></rect>
        </g>
    </g>
</svg>
