<?xml version="1.0" encoding="UTF-8"?>
<svg width="589px" height="302px" viewBox="0 0 589 302" version="1.1" xmlns="http://www.w3.org/2000/svg" xmlns:xlink="http://www.w3.org/1999/xlink">
    <title>NECHANGBOARD</title>
    <g id="Page-1" stroke="none" stroke-width="1" fill="none" fill-rule="evenodd">
        <g id="NECHANGBOARD" transform="translate(1.246506, 1.273248)" fill="#FFFFFF" stroke="#000000">
            <polyline id="h3" points="586.753494 0 418.802722 0 413.288131 37.7100856 586.753494 37.7100856"></polyline>
            <polygon id="h2" points="418.802722 -2.20268248e-13 413.288131 37.7100856 413.288131 68.6055347 209.34241 68.6055347 223.487566 -2.20268248e-13"></polygon>
            <path d="M223.487566,7.10542736e-15 L41.2482745,7.10542736e-15 C25.466284,0.911180012 16.4041078,7.04107228 14.061746,18.3896768 C11.7193843,29.7382813 8.00549126,49.9468161 2.92006703,79.0152812 C-2.37555548,93.3462905 0.131407817,100.511795 10.4409569,100.511795 C20.750506,100.511795 87.0509903,100.511795 209.34241,100.511795 L209.34241,68.6055347 L223.487566,7.10542736e-15 Z" id="h1"></path>
            <path d="M586.753494,213.476201 L30.0403101,213.476201 C10.163076,213.300243 0.224458952,207.31377 0.224458952,195.516781 C0.224458952,183.719793 0.224458952,149.488743 0.224458952,92.8236311 C-1.17965001,97.9490738 4.00382185,100.511795 15.7748745,100.511795 C27.5459272,100.511795 92.0684389,100.511795 209.34241,100.511795 L209.34241,68.6055347 L413.288131,68.6055347 L413.288131,37.7100856 L586.753494,37.7100856" id="board"></path>
            <path d="M586.753494,299.091081 L47.110488,299.091081 C28.2543354,299.521355 18.8262591,292.654516 18.8262591,278.490563 C18.8262591,264.32661 18.8262591,242.655156 18.8262591,213.476201 L586.753494,213.476201" id="board"></path>
            <rect id="h4" x="450.753494" y="68.726752" width="121" height="46" rx="23"></rect>
            <circle id="h6" cx="237.753494" cy="158.726752" r="25"></circle>
            <circle id="h11" cx="245.753494" cy="248.726752" r="25"></circle>
            <path d="M586.753494,188.726752 L537.753494,188.726752 C525.050945,188.726752 514.753494,178.429301 514.753494,165.726752 C514.753494,153.024203 525.050945,142.726752 537.753494,142.726752 L586.753494,142.726752" id="h9"></path>
            <rect id="h5" x="23.7534939" y="142.726752" width="170" height="46" rx="23"></rect>
            <rect id="h10" x="32.7534939" y="230.726752" width="170" height="46" rx="23"></rect>
            <rect id="h7" x="288.753494" y="142.726752" width="89" height="46" rx="23"></rect>
            <rect id="h8" x="401.753494" y="142.726752" width="89" height="46" rx="23"></rect>
            <rect id="h13" x="401.753494" y="225.726752" width="89" height="46" rx="23"></rect>
            <rect id="h12" x="288.753494" y="225.726752" width="89" height="46" rx="23"></rect>
            <path d="M586.753494,268.726752 L537.753494,268.726752 C525.050945,268.726752 514.753494,258.429301 514.753494,245.726752 C514.753494,233.024203 525.050945,222.726752 537.753494,222.726752 L586.753494,222.726752" id="h14"></path>
        </g>
    </g>
</svg>