<?xml version="1.0" encoding="UTF-8"?>
<svg width="607px" height="366px" viewBox="0 0 607 366" version="1.1" xmlns="http://www.w3.org/2000/svg" xmlns:xlink="http://www.w3.org/1999/xlink">
    <title>NICROSBOARD</title>
    <g id="Page-1" stroke="none" stroke-width="1" fill="none" fill-rule="evenodd">
        <g id="NICROSBOARD" transform="translate(0.996181, 1.393445)" fill="#FFFFFF" stroke="#000000">
            <path d="M130.73215,290.606555 C154.059789,298.691988 167.005378,309.172964 169.568916,322.049486 C173.414223,341.364267 174.758303,363.110099 193.3569,363.110099 C205.755964,363.110099 214.0956,363.110099 218.375809,363.110099 C226.127816,363.110099 232.896875,358.530592 238.682987,349.371578 C242.261317,343.707331 247.036434,333.512997 250.849375,322.049486 C257.36651,302.455885 287.748019,290.606555 302.501909,290.606555 C319.237914,290.606555 261.981328,290.606555 130.73215,290.606555 Z" id="board"></path>
            <circle id="board" cx="207.003819" cy="327.606555" r="15.5"></circle>
            <path d="M605.003819,290.606555 L46.0038189,290.606555 C20.5987204,290.606555 0,276.408867 0,251.003769 C0,249.804518 0.0331293822,231.121168 0,229.493391 C-0.381055923,208.18981 28.1357763,155.63924 85.5504968,71.8416823 C99.4455004,48.6310658 119.575877,27.5840356 144.980975,27.5840356 C218.692223,27.5840356 284.084394,27.5840356 341.15749,27.5840356 C363.793179,27.5840356 400.627478,35.5587229 438.656799,35.5587229 C477.064338,35.5587229 532.513344,35.5587229 605.003819,35.5587229" id="board"></path>
            <path d="M605.003819,7.83147893 C529.21161,7.83147893 473.762603,7.83147893 438.656799,7.83147893 C385.998093,7.83147893 385.998093,0 341.15749,0 C296.316887,0 218.036567,0 176.003819,0 C147.981987,0 117.83088,23.9472274 85.5504968,71.8416823 C99.4455004,48.6310658 119.575877,27.5840356 144.980975,27.5840356 C218.692223,27.5840356 284.084394,27.5840356 341.15749,27.5840356 C363.793179,27.5840356 400.627478,35.5587229 438.656799,35.5587229 C477.064338,35.5587229 532.513344,35.5587229 605.003819,35.5587229" id="h1"></path>
            <circle id="h2" cx="211.003819" cy="79.6065552" r="15.5"></circle>
            <rect id="h8" x="139.503819" y="205.106555" width="90" height="57" rx="28.5"></rect>
            <rect id="h7" transform="translate(73.599914, 207.022487) rotate(-39.000000) translate(-73.599914, -207.022487) " x="10.0999144" y="177.022487" width="127" height="60" rx="29"></rect>
            <rect id="h10" x="313.503819" y="198.106555" width="82" height="57" rx="28.5"></rect>
            <path d="M605.003819,255.606555 L440.279048,255.606555 C426.319925,255.606555 415.003819,242.622813 415.003819,226.606555 C415.003819,210.590297 426.319925,197.606555 440.279048,197.606555 L605.003819,197.606555" id="h11"></path>
            <rect id="h9" x="243.503819" y="198.106555" width="57" height="57" rx="28.5"></rect>
            <path d="M329.371755,179.028531 C317.06871,179.028531 301.003819,169.606555 276.503819,169.606555 C260.170486,169.606555 225.503819,169.606555 172.503819,169.606555 C154.00228,169.606555 139.003819,154.608094 139.003819,136.106555 C139.003819,117.605016 154.00228,102.606555 172.503819,102.606555 C221.189298,102.606555 255.855965,102.606555 276.503819,102.606555 C307.4756,102.606555 310.97214,118.586445 329.371755,118.586445" id="h5"></path>
            <polyline id="h6" points="605.371755 179.028531 329.371755 179.028531 329.371755 118.586445 605.371755 118.586445"></polyline>
            <rect id="h3" x="306.503819" y="53.1065552" width="130" height="54" rx="27"></rect>
            <rect id="h4" x="466.503819" y="53.1065552" width="93" height="49" rx="24.5"></rect>
        </g>
    </g>
</svg>