<?xml version="1.0" encoding="UTF-8"?>
<svg width="612px" height="419px" viewBox="0 0 612 419" version="1.1" xmlns="http://www.w3.org/2000/svg" xmlns:xlink="http://www.w3.org/1999/xlink">
    <title>NICROSULTIMATE</title>
    <g id="Page-1" stroke="none" stroke-width="1" fill="none" fill-rule="evenodd">
        <g id="NICROSULTIMATE" transform="translate(1.145819, 1.661129)" fill="#FFFFFF" stroke="#000000">
            <path d="M609.854181,416.482805 L85.6534824,416.482805 C74.2010705,416.124033 67.6993529,410.789643 66.1483295,400.479634 C64.5973061,390.169625 42.8325901,277.018445 0.854181486,61.0260946 C-4.00420615,25.0993725 11.8624489,7.1360115 48.4541468,7.1360115 C85.0458446,7.1360115 140.27284,7.1360115 214.135133,7.1360115 L244.812408,0 L383.651127,0 C389.433534,2.34840837 392.865978,4.72707887 393.948457,7.1360115 C393.948457,7.1360115 465.965638,7.1360115 610,7.1360115" id="board"></path>
            <path d="M609.854181,385.338871 L529.854181,385.338871 C517.703917,385.338871 507.854181,377.056139 507.854181,366.838871 C507.854181,356.621603 517.703917,348.338871 529.854181,348.338871 L609.854181,348.338871" id="h16"></path>
            <rect id="h15" x="414.854181" y="345.338871" width="49" height="37" rx="8"></rect>
            <rect id="h14" x="307.854181" y="345.338871" width="83" height="37" rx="8"></rect>
            <rect id="h13" x="200.854181" y="345.338871" width="83" height="37" rx="8"></rect>
            <rect id="h12" x="93.8541815" y="345.338871" width="83" height="37" rx="8"></rect>
            <path d="M93.2936412,298.338871 L466.854181,298.338871 C471.272459,298.338871 474.854181,301.920593 474.854181,306.338871 L474.854181,312.338871 C474.854181,316.757149 471.272459,320.338871 466.854181,320.338871 L95.1650719,320.338871 C91.664391,320.338871 88.570294,318.062827 87.5279398,314.720932 L85.6565091,308.720932 C84.3409334,304.50306 86.6937091,300.017315 90.9115807,298.701739 C91.6827271,298.461214 92.4858548,298.338871 93.2936412,298.338871 Z" id="h11"></path>
            <path d="M609.854181,315.338871 L529.854181,315.338871 C517.703917,315.338871 507.854181,307.056139 507.854181,296.838871 C507.854181,286.621603 517.703917,278.338871 529.854181,278.338871 L609.854181,278.338871" id="h10"></path>
            <path d="M86.254189,261.338871 L466.560034,261.338871 C470.978312,261.338871 474.560034,264.920593 474.560034,269.338871 L474.560034,275.338871 C474.560034,279.757149 470.978312,283.338871 466.560034,283.338871 L88.5871901,283.338871 C85.2877404,283.338871 82.3267386,281.313243 81.1310133,278.238083 L78.7980122,272.238083 C77.1968219,268.12015 79.2370448,263.483885 83.3549776,261.882694 C84.2793182,261.52328 85.2624308,261.338871 86.254189,261.338871 Z" id="h9"></path>
            <path d="M609.854181,238.338871 L529.854181,238.338871 C517.703917,238.338871 507.854181,229.608424 507.854181,218.838871 C507.854181,208.069318 517.703917,199.338871 529.854181,199.338871 L609.854181,199.338871" id="h8"></path>
            <path d="M77.5758549,218.338871 L466.854181,218.338871 C471.272459,218.338871 474.854181,221.920593 474.854181,226.338871 L474.854181,234.338871 C474.854181,238.757149 471.272459,242.338871 466.854181,242.338871 L80.4893614,242.338871 C77.1267388,242.338871 74.1230405,240.23609 72.9723474,237.07648 L70.058841,229.07648 C68.5469015,224.924947 70.6867142,220.333797 74.8382463,218.821857 C75.7156038,218.502334 76.6421251,218.338871 77.5758549,218.338871 Z" id="h7"></path>
            <path d="M67.5916979,157.338871 L466.854181,157.338871 C471.272459,157.338871 474.854181,160.920593 474.854181,165.338871 L474.854181,191.338871 C474.854181,195.757149 471.272459,199.338871 466.854181,199.338871 L77.8046846,199.338871 C74.5153041,199.338871 71.5611833,197.325416 70.3585461,194.263768 L60.1455594,168.263768 C58.5301835,164.151379 60.5544125,159.508108 64.6668012,157.892733 C65.598528,157.526744 66.590667,157.338871 67.5916979,157.338871 Z" id="h6"></path>
            <path d="M609.854181,151.338871 L529.854181,151.338871 C517.703917,151.338871 507.854181,141.489136 507.854181,129.338871 C507.854181,117.188607 517.703917,107.338871 529.854181,107.338871 L609.854181,107.338871" id="h5"></path>
            <path d="M56.9312325,87.3388711 L466.854181,87.3388711 C471.272459,87.3388711 474.854181,90.9205931 474.854181,95.3388711 L474.854181,130.338871 C474.854181,134.757149 471.272459,138.338871 466.854181,138.338871 L68.5235388,138.338871 C65.0744607,138.338871 62.0136776,136.128331 60.9292459,132.854167 L49.3369396,97.8541673 C47.9477799,93.6599552 50.2217241,89.1337379 54.4159363,87.7445782 C55.227312,87.4758434 56.076511,87.3388711 56.9312325,87.3388711 Z" id="h4"></path>
            <path d="M609.854181,7.1360115 L393.948457,7.1360115 C393.780952,50.3188119 390.475522,71.9102121 384.032167,71.9102121 C377.588812,71.9102121 452.862817,71.9102121 609.854181,71.9102121" id="h3"></path>
            <path d="M609.854181,59.3388711 L528.854181,59.3388711 C523.883619,59.3388711 519.854181,55.3094338 519.854181,50.3388711 L519.854181,47.3388711 C519.854181,42.3683083 523.883619,38.3388711 528.854181,38.3388711 L609.854181,38.3388711" id="phonehold"></path>
            <path d="M213.87105,7.1360115 L214.135133,71.9102121 L384.032167,71.9102121 C386.974128,71.9102121 389.368848,68.1305979 391.216326,60.5713696 C393.063805,53.0121413 393.974873,41.402692 393.94953,25.7430217 L393.94953,7.1360115 C391.307847,2.3786705 387.875046,0 383.651127,0 C379.427207,0 333.147634,0 244.812408,0 L213.87105,7.1360115 Z" id="h2"></path>
            <path d="M213.87105,7.1360115 C215.821786,28.1360241 206.965201,38.6360305 187.301296,38.6360305 C167.63739,38.6360305 111.190815,38.6360305 17.9615712,38.6360305 C15.1368452,38.1421338 13.7244822,35.3936581 13.7244822,30.3906033 C13.7244822,22.886021 21.8659317,7.1360115 44.5477884,7.1360115 C59.6690261,7.1360115 116.110113,7.1360115 213.87105,7.1360115 Z" id="h1"></path>
        </g>
    </g>
</svg>