<?xml version="1.0" encoding="UTF-8"?>
<svg width="598px" height="304px" viewBox="0 0 598 304" version="1.1" xmlns="http://www.w3.org/2000/svg" xmlns:xlink="http://www.w3.org/1999/xlink">
    <title>NICROSNEXGEN</title>
    <g id="Page-1" stroke="none" stroke-width="1" fill="none" fill-rule="evenodd">
        <g id="NICROSNEXGEN" transform="translate(1.095538, 1.052484)" fill="#FFFFFF" stroke="#000000">
            <path d="M595.904462,295.852698 L51.8281875,302.159787 C18.7339037,302.159787 1.74478528,288.33253 0.860832331,260.678017 C-0.465097088,219.196247 -15.9643059,0.372554971 166.904462,0.372554971 C166.904462,0.372554971 211.571129,21.8373462 300.904462,64.7669285 L595.904462,64.7669285" id="board"></path>
            <path d="M595.904462,173.072003 C570.353656,173.072003 518.980286,156.020883 480.904462,156.020883 C442.828638,156.020883 377.461797,179.852021 332.196313,179.852021 C286.93083,179.852021 241.938045,158.38703 166.904462,158.38703 C116.882074,158.38703 61.534197,169.722548 0.860832331,192.393585 C61.3112947,159.087751 116.536526,142.434834 166.536526,142.434834 C241.536526,142.434834 285.757962,165.737704 331.828377,165.737704 C377.898792,165.737704 443.805985,142.434834 480.536526,142.434834 C517.267067,142.434834 569.377456,158.38703 595.904462,158.38703" id="h5"></path>
            <path d="M595.904462,64.7669285 L300.904462,64.7669285 L300.904462,32.3279122 C313.805083,32.3279122 336.526965,32.3279122 369.070109,32.3279122 C401.613252,32.3279122 477.224704,32.3279122 595.904462,32.3279122" id="h2"></path>
            <rect id="h9" x="414.404462" y="187.447516" width="106" height="82" rx="31"></rect>
            <path d="M596.272399,269.947516 L571.904462,269.947516 C554.783635,269.947516 540.904462,256.068343 540.904462,238.947516 L540.904462,217.947516 C540.904462,200.826689 554.783635,186.947516 571.904462,186.947516 L596.272399,186.947516" id="h10"></path>
            <rect id="h6" x="31.4044622" y="214.447516" width="106" height="66" rx="31"></rect>
            <rect id="h8" x="247.404462" y="192.447516" width="146" height="82" rx="31"></rect>
            <rect id="h7" x="160.404462" y="192.447516" width="66" height="82" rx="31"></rect>
            <path d="M84.4044622,116.92975 C128.361414,102.758483 191.323395,114.612939 198.175829,116.92975 C217.01263,123.298481 211.73371,47.7608591 137.904462,50.8867601 C88.6849636,52.9706941 43.4457301,100.139636 2.18676175,192.393585 C36.7669977,148.606809 64.1728979,123.452197 84.4044622,116.92975 Z" id="h3"></path>
            <circle id="board" cx="123.904462" cy="186.947516" r="15.5"></circle>
            <circle id="board" cx="118.904462" cy="85.9475159" r="15.5"></circle>
            <path d="M300.904462,64.7669285 C268.449508,64.7669285 242.022185,20.9323943 166.904462,20.9323943 C87.9254768,20.9323943 32.5776002,79.2067746 0.860832331,195.755535 C10.0984808,65.5002151 65.4463574,0.372554971 166.904462,0.372554971 C252.623398,-3.52966198 255.799206,24.3278525 300.904462,32.3279122 C300.904462,32.3279122 300.904462,64.7669285 300.904462,64.7669285 Z" id="h1"></path>
            <path d="M596.272399,119.947516 L271.404462,119.947516 C266.710042,119.947516 262.904462,115.022648 262.904462,108.947516 C262.904462,102.872384 266.710042,97.9475159 271.404462,97.9475159 L596.272399,97.9475159" id="h4"></path>
        </g>
    </g>
</svg>