<?xml version="1.0" encoding="UTF-8"?>
<svg width="573px" height="314px" viewBox="0 0 573 314" version="1.1" xmlns="http://www.w3.org/2000/svg" xmlns:xlink="http://www.w3.org/1999/xlink">
    <title>NONMOLLOTRAVE</title>
    <g id="Page-1" stroke="none" stroke-width="1" fill="none" fill-rule="evenodd">
        <g id="NONMOLLOTRAVE" transform="translate(1.000000, 1.439265)" fill="#FFFFFF" stroke="#000000">
            <path d="M572,156.261932 L10.9756464,156.261932 C3.65854879,155.048881 0,149.270222 0,138.925957 C0,128.581691 0,105.758319 0,70.4558407 L454.192932,73.0422451 L454.192932,27.8861073 L572,27.8861073" id="board"></path>
            <path d="M572,226.473808 L20.3405817,226.473808 C13.4993188,225.798673 10.0786874,221.144659 10.0786874,212.511765 C10.0786874,203.87887 10.0786874,185.128926 10.0786874,156.261932 L572,156.261932" id="board"></path>
            <path d="M572,226.473808 L20.3405817,226.473808 C17.177091,283.340776 31.6740477,311.774259 63.8314519,311.774259 C95.988856,311.774259 265.378372,311.774259 572,311.774259" id="board"></path>
            <path d="M572,293.560735 L512.5,293.560735 C500.073593,293.560735 490,283.487142 490,271.060735 C490,258.634328 500.073593,248.560735 512.5,248.560735 L572,248.560735" id="h14"></path>
            <rect id="h13" x="352" y="248.560735" width="125" height="45" rx="22.5"></rect>
            <rect id="h12" x="251" y="248.560735" width="88" height="45" rx="22.5"></rect>
            <rect id="h11" x="46" y="248.560735" width="192" height="45" rx="22.5"></rect>
            <rect id="h10" x="108" y="165.560735" width="385" height="45" rx="22.5"></rect>
            <rect id="h9" x="108" y="165.560735" width="222" height="45" rx="22.5"></rect>
            <rect id="h6" x="302" y="92.5607353" width="130" height="45" rx="22.5"></rect>
            <path d="M572,137.560735 L468.5,137.560735 C456.073593,137.560735 446,127.487142 446,115.060735 C446,102.634328 456.073593,92.5607353 468.5,92.5607353 L572,92.5607353" id="h7"></path>
            <path d="M572,27.8861073 L454.199063,27.8861073 C454.027674,12.5160157 457.449776,4.83096984 464.465368,4.83096984 C471.480961,4.83096984 507.325838,4.83096984 572,4.83096984" id="h3"></path>
            <path d="M469.521836,4.83096984 L241.14909,6.88543815 C235.925496,7.82331654 231.55216,13.8392654 228.029084,24.9332848 C224.506007,36.0273042 220.237979,52.0636242 215.224999,73.0422451 L454.192932,73.0422451 L454.192932,27.8861073 C454.397402,18.1427442 455.439654,11.8572479 457.319689,9.02961848 C459.199724,6.20198903 463.267106,4.80243949 469.521836,4.83096984 Z" id="h2"></path>
            <circle id="h5" cx="265.5" cy="115.060735" r="22.5"></circle>
            <circle id="h8" cx="61.5" cy="188.060735" r="22.5"></circle>
            <rect id="h4" x="32" y="92.5607353" width="198" height="45" rx="22.5"></rect>
            <path d="M215.224999,73.0422451 L215.224999,27.8861073 C218.226462,6.04315309 221.596856,-2.96774886 225.336181,0.853401485 C229.075506,4.67455183 231.424832,6.9593835 232.384159,7.7078965 C233.471293,8.78344186 233.471293,10.8104637 232.384159,13.7889619 C231.770871,15.4692324 229.883056,19.0266344 226.321158,31.3825467 C224.486472,37.7469141 220.787752,51.6334802 215.224999,73.0422451 Z" id="board"></path>
            <path d="M224.212254,1.91846539e-13 L45.3149883,1.91846539e-13 C15.1049961,0.702332831 1.13686838e-13,15.8892446 1.13686838e-13,45.5607353 C1.13686838e-13,75.232226 1.13686838e-13,83.5305944 1.13686838e-13,70.4558407 L215.224999,73.0422451 L215.224999,27.8861073 C216.884996,17.6946368 218.224686,11.0174046 219.244069,7.85441067 C220.263453,4.69141676 221.919514,2.07327986 224.212254,1.91846539e-13 Z" id="h1"></path>
        </g>
    </g>
</svg>