<?xml version="1.0" encoding="UTF-8"?>
<svg width="546px" height="312px" viewBox="0 0 546 312" version="1.1" xmlns="http://www.w3.org/2000/svg" xmlns:xlink="http://www.w3.org/1999/xlink">
    <title>OCUNFINGER</title>
    <g id="Page-1" stroke="none" stroke-width="1" fill="none" fill-rule="evenodd">
        <g id="OCUNFINGER" transform="translate(0.071772, -0.233338)" fill="#FFFFFF">
            <g id="hangboard" stroke="#000000">
                <path d="M545.928228,17.9169322 L186.771978,17.9169322 C162.874192,6.88828633 145.355963,1.37396342 134.217291,1.37396342 C117.509283,1.37396342 2.6264705,-8.73052877 1.03662675,76.1083384 C-0.0232690874,132.667583 21.9200903,177.264914 66.8667049,209.900331 C148.281418,276.581971 228.911301,309.922792 308.756353,309.922792 C388.601405,309.922792 467.658697,309.922792 545.928228,309.922792" id="b1"></path>
                <path d="M545.928228,38.243104 L460.854498,38.243104 C452.938808,38.4198619 443.178717,43.5377818 431.574224,53.5968638 C414.167486,68.6854869 417.936041,67.2494517 407.035162,67.2494517 C399.767909,67.2494517 346.145025,67.2494517 246.16651,67.2494517 C211.083827,67.1430064 184.544765,57.0097056 166.549322,36.8495494 C139.556158,6.60931498 135.570985,1 129.0582,1 C122.545416,1 49.6469783,-3.71099752 19.2876033,29.8085337 C-11.0717717,63.328065 0.738775183,125.522401 20.9497127,159.385682 C34.423671,181.961203 97.6860408,157.910096 210.736822,87.2323619 C221.616198,82.4432994 235.102318,80.0487681 251.195182,80.0487681 C267.288046,80.0487681 328.105637,80.0487681 433.647955,80.0487681 C450.50147,83.3996796 458.928228,90.4416718 458.928228,101.174745 C458.928228,117.274354 457.414556,131.233338 427.331549,131.233338 C407.27621,131.233338 354.471523,131.233338 268.917486,131.233338 C248.742356,134.569276 233.281744,138.423117 222.53565,142.794862 C211.789556,147.166607 159.209478,168.979432 64.7954158,208.233338 L92.8569392,229.758729 C173.800894,190.73307 220.179475,168.891274 231.992681,164.233338 C249.712491,157.246436 265.212408,154.086854 287.237799,154.086854 C302.73248,154.086854 385.315924,154.086854 433.647955,154.086854 C454.600223,154.086854 469.317877,157.835877 469.317877,173.007752 C469.317877,188.179627 475.144049,203.233338 439.571783,203.233338 C403.999517,203.233338 321.007268,202.165684 299.957525,203.233338 C278.907783,204.300993 279.215338,203.935487 259.317877,212.375917 C246.052903,218.00287 205.560064,233.678488 137.839361,259.402772 C195.809413,291.821066 246.447434,308.686809 289.753424,310 C333.059413,311.313191 418.451015,311.313191 545.928228,310" id="Path"></path>
            </g>
            <rect id="h8" stroke="#000000" x="282.928228" y="155.233338" width="187" height="48" rx="18"></rect>
            <rect id="h7" stroke="#000000" x="291.928228" y="231.233338" width="187" height="48" rx="18"></rect>
            <rect id="h6" transform="translate(195.928228, 208.233338) rotate(-25.000000) translate(-195.928228, -208.233338) " x="122.928228" y="190.233338" width="146" height="36"></rect>
            <rect id="h5" stroke="#000000" x="265.928228" y="80.2333384" width="193" height="51" rx="18"></rect>
            <rect id="h4" transform="translate(153.002483, 146.119681) rotate(-25.000000) translate(-153.002483, -146.119681) " x="56.5024827" y="128.119681" width="193" height="36"></rect>
            <rect id="h3" x="447.928228" y="21.2333384" width="98" height="16"></rect>
            <rect id="h2" x="203.928228" y="21.2333384" width="208" height="36"></rect>
            <path d="M163.583502,39.2333384 C145.902838,21.2333384 135.877786,4.05365092 130.242681,4.05365092 C113.986914,4.05365092 5.76703796,-3.23533737 4.22022695,79.3204771 C2.46185375,94.4575488 8.64498056,102.026085 22.7696074,102.026085 C36.8942342,102.026085 81.7859581,102.026085 157.444779,102.026085 C175.767079,96.3970412 184.928228,86.4325257 184.928228,72.1325383 C184.928228,50.6825572 181.264166,57.2333384 163.583502,39.2333384 Z" id="h1"></path>
        </g>
    </g>
</svg>