<?xml version="1.0" encoding="UTF-8"?>
<svg width="577px" height="258px" viewBox="0 0 577 258" version="1.1" xmlns="http://www.w3.org/2000/svg" xmlns:xlink="http://www.w3.org/1999/xlink">
    <title>ONSITEWOODY</title>
    <g id="Page-1" stroke="none" stroke-width="1" fill="none" fill-rule="evenodd">
        <g id="ONSITEWOODY" transform="translate(1, 0)" fill="#D8D8D8" stroke="#979797">
            <path d="M576,21.0606919 L0,21.0606919 L0,101.158054 C2.705415e-16,103.367193 1.790861,105.158054 4,105.158054 L576,105.158054 L576,105.158054" id="board"></path>
            <path d="M576,105.158054 L1.44083368,105.060692 L1.44083368,177.060692 C1.44083368,179.269831 3.23169468,181.060692 5.44083368,181.060692 L576,181.060692 L576,181.060692" id="board"></path>
            <path d="M576,181.060692 L6.44083368,181.060692 C6.44083368,178.587804 6.44083368,183.65883 6.44083368,196.27377 C6.44083368,215.202744 6.44083368,234.131718 6.44083368,253.060692 C6.44083368,255.269831 8.23169468,257.060692 10.4408337,257.060692 L576,257.060692 L576,257.060692" id="board"></path>
            <rect id="h2" x="21.5" y="44.5" width="157" height="45" rx="12"></rect>
            <rect id="h5" x="21.5" y="120.5" width="157" height="45" rx="12"></rect>
            <rect id="h7" x="25.5" y="196.5" width="157" height="45" rx="12"></rect>
            <rect id="h3" x="199.5" y="44.5" width="157" height="45" rx="12"></rect>
            <rect id="h6" x="199.5" y="120.5" width="157" height="45" rx="12"></rect>
            <rect id="h8" x="205.5" y="196.5" width="153" height="45" rx="12"></rect>
            <path d="M576,90 L513,90 C506.372583,90 501,84.627417 501,78 L501,56 C501,49.372583 506.372583,44 513,44 L576,44" id="h4"></path>
            <path d="M231,0.5 C231.966498,0.5 232.841498,0.891750844 233.474874,1.52512627 C234.108249,2.15850169 234.5,3.03350169 234.5,4 L234.5,20.5 L1.17049459,20.5 L20.3086878,0.5 L231,0.5 Z" id="h1"></path>
        </g>
    </g>
</svg>