<?xml version="1.0" encoding="UTF-8"?>
<svg width="587px" height="242px" viewBox="0 0 587 242" version="1.1" xmlns="http://www.w3.org/2000/svg" xmlns:xlink="http://www.w3.org/1999/xlink">
    <title>PUCILLDOMANI</title>
    <g id="Page-1" stroke="none" stroke-width="1" fill="none" fill-rule="evenodd">
        <g id="PUCILLDOMANI" transform="translate(294.234782, 121.773633) scale(1, -1) translate(-294.234782, -121.773633) translate(1.734782, 1.773633)" fill="#FFFFFF" stroke="#000000">
            <path d="M584.265218,120.773633 L584.265218,239.773633 C232.307644,239.342209 45.5599534,239.122183 24.0221464,239.113555 L22.9099315,239.113291 C7.81345554,239.113291 0.265217559,233.190792 0.265217559,221.345796 L0.265217559,221.345796 L0.265217559,138.179815 C0.265217559,126.575694 7.09174808,120.773633 20.7448091,120.773633 L20.7448091,120.773633 L584.265218,120.773633 Z M584.265218,0.773633132 L584.265218,119.773633 C232.307644,119.342209 45.5599534,119.122183 24.0221464,119.113555 L22.9099315,119.113291 C7.81345554,119.113291 0.265217559,113.190792 0.265217559,101.345796 L0.265217559,101.345796 L0.265217559,18.1798146 C0.265217559,6.57569362 7.09174808,0.773633132 20.7448091,0.773633132 L20.7448091,0.773633132 L584.265218,0.773633132 Z" id="h1"></path>
        </g>
    </g>
</svg>