<?xml version="1.0" encoding="UTF-8"?>
<svg width="862px" height="529px" viewBox="0 0 862 529" version="1.1" xmlns="http://www.w3.org/2000/svg" xmlns:xlink="http://www.w3.org/1999/xlink">
    <title>REDGEPORT</title>
    <g id="Page-1" stroke="none" stroke-width="1" fill="none" fill-rule="evenodd">
        <g id="REDGEPORT" transform="translate(1.000000, 1.000000)" fill="#FFFFFF" stroke="#000000">
            <path d="M861,1.63048065 L36.2476387,1.63048065 C28.5899669,-2.77084091 24.1180243,1.73853734 22.8318112,15.1586154 C21.545598,28.5786935 20.6016609,46.8048678 20,69.8371384 C20.2587878,80.0047171 22.4556168,86.9233994 26.5904869,90.5931852 C30.725357,94.2629711 37.7313832,100.398576 47.6085656,109 L861,109" id="h1"></path>
            <polyline id="board" points="861 109 47.5198085 109 45 162 861 162"></polyline>
            <path d="M861,223 L37.1273033,223 C27.5742245,218.718681 21.4527273,215.895802 18.7628116,214.531362 C16.0728959,213.166922 14.1519587,209.385309 13,203.186523 C13.5957471,190.184733 13.8936206,180.385325 13.8936206,173.788298 C13.8936206,167.191271 16.6219544,162.928505 22.078622,161 L861,161" id="h2"></path>
            <polyline id="board" points="861 222 36.9030416 222 34 288 861 288"></polyline>
            <path d="M861,343 C301.242796,343 19.3550138,343 15.3366531,343 C11.3182923,343 8.53940798,339.900736 7,333.702207 C7.65579597,315.314189 7.98369395,304.184249 7.98369395,300.312386 C7.98369395,296.440524 10.1970801,292.003062 14.6238524,287 L861,287" id="h3"></path>
            <polyline id="board" points="861 343 24.5325626 343 22 415 861 415"></polyline>
            <path d="M861,414 L22.2421648,414 L10.8862314,419.396584 C6.1013971,420.950942 3.31527648,426.618844 2.52786955,436.400292 C1.74046263,446.18174 0.897839448,468.135822 0,502.262539 C0.908285031,518.75418 5.25915403,527 13.052607,527 C20.84606,527 303.495191,527 861,527" id="h4"></path>
        </g>
    </g>
</svg>