<?xml version="1.0" encoding="UTF-8"?>
<svg width="666px" height="199px" viewBox="0 0 666 199" version="1.1" xmlns="http://www.w3.org/2000/svg" xmlns:xlink="http://www.w3.org/1999/xlink">
    <title>ROOTSBASELINE</title>
    <g id="Page-1" stroke="none" stroke-width="1" fill="none" fill-rule="evenodd">
        <g id="ROOTSBASELINE" transform="translate(0.995515, 1.276997)" fill="#FFFFFF" stroke="#000000">
            <path d="M665.004485,54.5971419 L0,54.5971419 L0,192.093762 C0.134464647,194.862843 2.40477564,196.247383 6.81093297,196.247383 C11.2170903,196.247383 230.614941,196.247383 665.004485,196.247383" id="board"></path>
            <path d="M665.004485,113.723003 L576.004485,113.723003 C569.377068,113.723003 564.004485,108.35042 564.004485,101.723003 L564.004485,74.7230032 C564.004485,68.0955862 569.377068,62.7230032 576.004485,62.7230032 L665.004485,62.7230032" id="h6"></path>
            <path d="M665.004485,177.004931 L525.504485,177.004931 C518.877068,177.004931 513.504485,171.632348 513.504485,165.004931 L514.004485,144.723003 C514.004485,138.095586 519.377068,132.723003 526.004485,132.723003 L665.004485,132.723003" id="h10"></path>
            <rect id="h9" x="274.504485" y="127.223003" width="211" height="44" rx="14"></rect>
            <rect id="h5" x="274.504485" y="66.2230032" width="211" height="44" rx="14"></rect>
            <path d="M233.004485,66.2230032 C236.732407,66.2230032 240.107407,67.7340422 242.550427,70.1770617 C244.993446,72.6200812 246.504485,75.9950812 246.504485,79.7230032 L246.504485,96.7230032 C246.504485,100.450925 244.993446,103.825925 242.550427,106.268945 C240.107407,108.711964 236.732407,110.223003 233.004485,110.223003 L38.8440271,110.223003 C35.116105,110.223003 31.741105,108.711964 29.2980855,106.268945 C26.8550661,103.825925 25.3440271,100.450925 25.3440271,96.7230032 L25.3440271,79.7230032 C25.3440271,75.9950812 26.8550661,72.6200812 29.2980855,70.1770617 C31.741105,67.7340422 35.116105,66.2230032 38.8440271,66.2230032 Z" id="h4"></path>
            <rect id="h8" x="35.5044853" y="133.223003" width="211" height="44" rx="14"></rect>
            <path d="M190.209486,133.223003 C193.937409,133.223003 197.312409,134.734042 199.755428,137.177062 C202.198448,139.620081 203.709486,142.995081 203.709486,146.723003 L203.709486,163.723003 C203.709486,167.450925 202.198448,170.825925 199.755428,173.268945 C197.312409,175.711964 193.937409,177.223003 190.209486,177.223003 L49.0044853,177.223003 C45.2765632,177.223003 41.9015632,175.711964 39.4585437,173.268945 C37.0155242,170.825925 35.5044853,167.450925 35.5044853,163.723003 L35.5044853,146.723003 C35.5044853,142.995081 37.0155242,139.620081 39.4585437,137.177062 C41.9015632,134.734042 45.2765632,133.223003 49.0044853,133.223003 Z" id="h7"></path>
            <polyline id="h3" points="665.004485 0 545.281073 0 545.281073 54.5971419 665.004485 54.5971419"></polyline>
            <polygon id="h2" points="545.281073 13.6151917 266.577528 13.6151917 251.296081 25.6769473 251.296081 54.5971419 545.281073 54.5971419"></polygon>
            <path d="M266.577528,13.6151917 L251.296081,25.6769473 L251.296081,54.5971419 L0.00448528056,54.5971419 C7.29349752,27.2758418 18.9601642,13.6151917 35.0044853,13.6151917 C51.0488064,13.6151917 128.239821,13.6151917 266.577528,13.6151917 Z" id="h1"></path>
            <line x1="251.296081" y1="27.2985709" x2="545.281073" y2="27.2985709" id="line"></line>
        </g>
    </g>
</svg>