<?xml version="1.0" encoding="UTF-8"?>
<svg width="664px" height="310px" viewBox="0 0 664 310" version="1.1" xmlns="http://www.w3.org/2000/svg" xmlns:xlink="http://www.w3.org/1999/xlink">
    <title>RUSTAMBOMBITA</title>
    <g id="Page-1" stroke="none" stroke-width="1" fill="none" fill-rule="evenodd">
        <g id="RUSTAMBOMBITA" transform="translate(1.292414, 1.246676)" fill="#FFFFFF" stroke="#000000">
            <path d="M536.707586,179.253324 C538.502511,179.253324 540.127511,179.980861 541.30378,181.157129 C542.480049,182.333398 543.207586,183.958398 543.207586,185.753324 L543.207586,228.753324 C543.207586,230.548249 542.480049,232.173249 541.30378,233.349518 C540.127511,234.525786 538.502511,235.253324 536.707586,235.253324 L65.2293118,235.253324 C52.0582512,217.522981 41.6561039,198.856456 34.0236479,179.253324 Z" id="h5"></path>
            <rect id="h6" x="221.207586" y="179.253324" width="322" height="56" rx="7"></rect>
            <rect id="h7" x="385.207586" y="179.253324" width="158" height="56" rx="7"></rect>
            <path d="M81.3797293,257.320611 L533.751385,259.207625 C536.642306,259.219685 539.256356,260.399189 541.147676,262.298414 C543.038996,264.19764 544.207586,266.816588 544.207586,269.707534 L544.207586,280.711611 C544.207086,283.611106 543.031381,286.235904 541.130928,288.135703 C539.230474,290.035501 536.605272,291.210302 533.707614,291.209806 C485.509879,291.024381 443.530773,290.927372 407.730796,290.918696 L396.275978,290.918997 C359.570955,290.930211 329.877724,291.041663 307.196285,291.253345 C259.321316,291.700154 204.189262,292.952785 141.807979,295.01049 C126.356279,288.333153 106.214764,275.767539 81.3797293,257.320611 Z" id="h9"></path>
            <path d="M573.919816,307.999389 L218.6184,307.999389 C191.360166,307.066105 172.672576,305.153536 162.55563,302.261682 C147.38021,297.923901 141.713742,296.582911 141.713742,294.168117 C141.713742,292.558255 150.782051,291.753324 168.918671,291.753324 L522.646886,290.884194 C537.06162,292.109915 544.268988,289.343835 544.268988,282.585953 C544.268988,275.828072 554.152597,284.299217 573.919816,307.999389 Z" id="board"></path>
            <path d="M662.707586,307.999389 L563.707586,307.999389 C550.785362,308.85924 544.32425,301.860178 544.32425,287.002202 C544.32425,272.144226 543.948013,242.971631 543.19554,199.484416 C543.736603,185.997269 538.781383,179.253696 528.329881,179.253696 C517.878379,179.253696 562.670947,179.086905 662.707586,178.753324" id="board"></path>
            <path d="M662.707586,226.753324 L587.207586,226.753324 C574.228894,226.753324 563.707586,216.232015 563.707586,203.253324 C563.707586,190.274632 574.228894,179.753324 587.207586,179.753324 L662.707586,179.753324" id="h8"></path>
            <path d="M662.707586,291.753324 L587.207586,291.753324 C574.228894,291.753324 563.707586,281.232015 563.707586,268.253324 C563.707586,255.274632 574.228894,244.753324 587.207586,244.753324 L662.707586,244.753324" id="h12"></path>
            <rect id="h10" x="297.207586" y="259.253324" width="247" height="32" rx="11"></rect>
            <rect id="h11" x="420.207586" y="259.253324" width="124" height="32" rx="11"></rect>
            <path d="M544.162844,269.709064 C543.204124,262.751342 539.491012,259.272481 533.023509,259.272481 C526.556006,259.272481 376.183426,259.099428 81.9057698,258.753324 C79.0712551,258.742332 76.1865858,257.326219 73.2517621,254.504986 C70.3169384,251.683753 66.6595057,247.871662 62.2794639,243.068715 C56.285741,237.160971 59.7144203,234.207099 72.565502,234.207099 C85.4165837,234.207099 238.902586,234.601777 533.023509,235.391133 C539.92247,235.411726 543.371951,232.942783 543.371951,227.984304 C543.371951,223.025826 543.635582,236.934079 544.162844,269.709064 Z" id="board"></path>
            <path d="M662.707586,20.8749481 C540.07805,22.2642998 469.087333,25.0437908 449.735434,29.213421 C449.735434,29.213421 449.735434,79.0600552 449.735434,178.753324 L662.707586,179.753324" id="h3"></path>
            <path d="M449.735434,29.213421 L449.735434,178.753324 L203.534892,178.753324 L203.534892,0 C229.877202,1.65625301 253.06354,5.05154159 273.093906,10.1858657 C303.139456,17.8873519 356.427279,32.4612948 388.567433,32.4612948 C409.994202,32.4612948 430.383535,31.3786702 449.735434,29.213421 Z" id="h2"></path>
            <path d="M203.534892,0 L203.534892,178.753324 L34.4607191,178.753324 C11.4869064,164.715267 0,148.830679 0,131.09956 C0,104.502882 26.1695201,45.1288307 85.064035,22.5644154 C124.327045,7.52147179 163.817331,0 203.534892,0 Z" id="h1"></path>
            <path d="M102.630176,86.2538808 C126.282857,86.282726 147.823753,87.4497461 162.038996,94.0106279 C167.844133,96.6899216 172.419279,100.27085 175.38675,105.063366 C178.137615,109.506058 179.502057,114.98552 179.20806,121.731554 C178.909608,128.579817 177.159507,134.124842 174.163683,138.606773 C170.956758,143.404524 166.325941,146.98012 160.550801,149.645569 C146.438382,156.158993 125.53935,157.253324 101.707586,157.253324 C77.6691929,157.253324 56.1732281,156.402362 41.915548,149.821894 C36.1862984,147.177625 31.6342957,143.605126 28.5829486,138.769582 C25.7440999,134.27079 24.207586,128.683249 24.207586,121.753324 C24.207586,114.823398 25.7440999,109.235857 28.5829486,104.737065 C31.6342957,99.9015213 36.1862984,96.3290217 41.915548,93.6847526 C56.1732281,87.1042849 77.6691929,86.2533236 101.707586,86.2533236 Z" id="h4"></path>
        </g>
    </g>
</svg>