<?xml version="1.0" encoding="UTF-8"?>
<svg width="798px" height="526px" viewBox="0 0 798 526" version="1.1" xmlns="http://www.w3.org/2000/svg" xmlns:xlink="http://www.w3.org/1999/xlink">
    <title>RUSTAMPUNCHETTE</title>
    <g id="Page-1" stroke="none" stroke-width="1" fill="none" fill-rule="evenodd">
        <g id="RUSTAMPUNCHETTE" transform="translate(0.629551, 1.000000)" stroke="#000000">
            <path d="M797.370449,431.127204 L316.370449,431 C316.059253,464.610624 316.059253,490.504563 316.370449,508.681818 C286.204592,494.412004 269.339634,470.767493 266.370449,439.111923 L266.370449,126 L797.370449,126.521523 M797.370449,290.267301 L316.370449,290 L316.370449,347 L797.370449,346.493481 M797.370449,149.70185 L316.370449,150.00125 L316.370449,206 L797.370449,205.92803" id="board" fill="#F3F3F3"></path>
            <polyline id="h5" fill="#F3F3F3" points="797.370449 431 316.370449 431 316.370449 347 797.370449 347"></polyline>
            <polyline id="h4" fill="#F3F3F3" points="797.370449 290 316.370449 290 316.370449 206 797.370449 206"></polyline>
            <path d="M0.37044865,126 C-3.14349824,156.599991 18.6274515,189.572528 53.5172056,197.981449 C88.4069598,206.39037 92.353966,234.177817 92.353966,252.441525 C92.353966,270.197912 78.877542,305.467575 63.0531878,329.203077 C47.2288336,352.938579 11.9698595,412.068608 11.9698595,457.113159 C11.9698595,502.15771 38.7645617,524.451019 92.353966,523.993087 C197.799081,523.993087 260.860212,523.993087 281.537359,523.993087 C302.214506,523.993087 313.998259,518.90842 316.370449,508.775758 C283.466505,493.901437 266.755449,466.83877 266.755449,427.551083 C266.755449,388.263395 266.370449,266.265402 266.370449,126 L0.37044865,126 Z" id="h3" fill="#FFFFFF"></path>
            <path d="M797.370449,52.0487634 L535.707351,52.0487634 C472.575196,51.761371 425.124648,43.5296334 393.355708,27.3535504 C361.586768,11.1774674 319.258348,2.05961728 266.370449,0 L266.370449,126 L797.370449,126" id="h2" fill="#FFFFFF"></path>
            <path d="M266.370449,126 C266.370449,43.6046404 266.370449,0.1376623 266.370449,0 C74.6745775,0 14.8529591,71.5960408 0.37044865,126 C0.37044865,126 89.0371153,126 266.370449,126 Z" id="h1" fill="#FFFFFF"></path>
        </g>
    </g>
</svg>