<?xml version="1.0" encoding="UTF-8"?>
<svg width="663px" height="185px" viewBox="0 0 663 185" version="1.1" xmlns="http://www.w3.org/2000/svg" xmlns:xlink="http://www.w3.org/1999/xlink">
    <title>RUSTAMPLAYMATE</title>
    <g id="Page-1" stroke="none" stroke-width="1" fill="none" fill-rule="evenodd">
        <g id="RUSTAMPLAYMATE" transform="translate(0.772592, 0.522009)" fill="#FFFFFF" stroke="#000000">
            <path d="M662.227408,183.477991 L25.2702803,183.477991 C8.42342678,183.477991 0,179.268138 0,170.848431 C0,158.218871 0,117.36681 7.38603806,72.9224005 C12.3140088,43.2927942 47.781093,28.4779911 113.787291,28.4779911 L662.227408,28.4779911" id="board"></path>
            <path d="M662.227408,145.477991 L109.227408,145.477991 C92.1065807,145.477991 78.2274079,131.598818 78.2274079,114.477991 L78.2274079,113.477991 C78.2274079,96.3571638 92.1065807,82.4779911 109.227408,82.4779911 L662.227408,82.4779911" id="h3"></path>
            <rect id="h2" x="78.7274079" y="82.9779911" width="286" height="62" rx="31"></rect>
            <path d="M662.227408,28.4779911 L103.088522,28.4779911 C52.438947,31.765304 22.59464,41.3308171 13.5556009,57.1745302 C13.5556009,57.1745302 48.214306,0 158.227408,0 C231.569476,0 399.569476,0 662.227408,0" id="h1"></path>
        </g>
    </g>
</svg>