<?xml version="1.0" encoding="UTF-8"?>
<svg width="577px" height="393px" viewBox="0 0 577 393" version="1.1" xmlns="http://www.w3.org/2000/svg" xmlns:xlink="http://www.w3.org/1999/xlink">
    <title>SAPOTENDON</title>
    <g id="Page-1" stroke="none" stroke-width="1" fill="none" fill-rule="evenodd">
        <g id="SAPOTENDON" transform="translate(1, 1.3252)">
            <path d="M576,390.674791 L330,390.674791 L68.483624,390.674791 C43.4556,390.661591 6,390.014791 6,357.674791 L6.005967,354.723151 C6.1407,323.103091 8.75,297.504791 33,259.674791 L33.2028948,260.05393 C33.9727633,261.428117 37.0417396,266.38396 44.2339725,272.386203 C40.4223475,268.617342 37.0659677,264.66955 33.8116559,260.67447 L29.055936,254.795815 C14.464,236.665191 6,224.594791 6,200.674791 C6,174.674791 29,143.674791 29,143.674791 C36,153.674791 51.035169,166.374367 69.8799647,173.796912 C19.9995555,151.063799 0,106.564368 0,57.6747905 C0,-11.6252095 69.5871,-0.557009454 115.612596,2.58218155 L117,2.67479055 C162.54,5.64479055 171.8163,18.4157905 180.729963,28.3739035 L181,28.6747905 C190,38.6747905 186,46.6747905 212,46.6747905 L213.586208,46.6688705 C239.650496,46.4787505 285.962952,41.7723105 330.619424,41.6762805 L332,41.6747905 C378,41.6747905 368,46.6747905 452,46.6747905 L576,46.6747905" id="Path" stroke="#000000" fill="#FFFFFF"></path>
            <path d="M576,227.674791 L385,227.674791 C363.460895,227.674791 346,210.213896 346,188.674791 C346,167.135685 363.460895,149.674791 385,149.674791 L576,149.674791" id="h8" stroke="#000000" fill="#FFFFFF"></path>
            <path d="M576,340.674791 L376,340.674791 C359.431458,340.674791 346,327.243333 346,310.674791 C346,294.106248 359.431458,280.674791 376,280.674791 L576,280.674791" id="h9" stroke="#000000" fill="#FFFFFF"></path>
            <polyline id="h7" stroke="#FFFFFF" fill="#FFFFFF" points="576 52.6747905 346 52.6747905 346 130.674791 576 130.674791"></polyline>
            <path d="M220,390.674791 C132.240811,390.674791 82.2408295,390.674791 70,390.674791 C45,390.674791 6,390.674791 6,357.674791 C6,324.674791 8,298.674791 33,259.674791 C33,259.674791 53,300.674791 152,300.674791 C173.250447,300.674791 120,296.674791 120,326.674791 C120,346.674791 128,358.341457 144,361.674791 L216,361.674791" id="h5" stroke="#000000"></path>
            <rect id="h6" stroke="#000000" fill="#FFFFFF" x="116.5" y="301.174791" width="129.056604" height="60" rx="30"></rect>
            <circle id="screw" stroke="#000000" fill="#FFFFFF" cx="276" cy="115.674791" r="20.5"></circle>
            <path d="M206,190.674791 L147,189.674791 C87,183.674791 47.6666667,168.341457 29,143.674791 C29,143.674791 6,174.674791 6,200.674791 C6,226.674791 16,238.674791 33,259.674791 C50,280.674791 69,300.674791 141,300.674791 C189,300.674791 214,300.674791 216,300.674791" id="h3" stroke="#000000" fill="#FFFFFF"></path>
            <rect id="h4" stroke="#000000" fill="#FFFFFF" x="116.5" y="190.174791" width="129.056604" height="60" rx="30"></rect>
            <path d="M218.418571,104.720525 C218.418571,77.3545353 185.390653,41.4956523 176.89776,32.0591042 C168.404866,22.622556 159.911973,10.3550434 116.503851,7.52407898 C73.0957299,4.69311453 6.09623798,-6.63074325 6.09623798,59.4250938 C6.09623798,125.480931 44.7860854,183.043875 149.53177,183.987529 C254.277454,184.931184 218.418571,132.086515 218.418571,104.720525 Z" id="h1" fill="#FFFFFF"></path>
            <circle id="h2" stroke="#000000" fill="#FFFFFF" cx="108" cy="105.674791" r="43.5"></circle>
        </g>
    </g>
</svg>