<?xml version="1.0" encoding="UTF-8"?>
<svg width="581px" height="377px" viewBox="0 0 581 377" version="1.1" xmlns="http://www.w3.org/2000/svg" xmlns:xlink="http://www.w3.org/1999/xlink">
    <title>SCALLYDAPPER</title>
    <g id="Page-1" stroke="none" stroke-width="1" fill="none" fill-rule="evenodd">
        <g id="SCALLYDAPPER" transform="translate(0.000000, 1.000000)" fill="#FFFFFF" fill-rule="nonzero" stroke="#000000">
            <path d="M581,375 L19,375 C9.0588745,375 1,366.941125 1,357 L1,40 C1,30.0588745 9.0588745,22 19,22 L581,22" id="board"></path>
            <path d="M305,252 L515,252 C521.075132,252 526,256.924868 526,263 L526,317 C526,323.075132 521.075132,328 515,328 L294,328 L294,252 L305,252 Z" id="h4"></path>
            <path d="M283,328 L73,328 C66.9248678,328 62,323.075132 62,317 L62,263 C62,256.924868 66.9248678,252 73,252 L283,252 L294,252 L294,328 L283,328 Z" id="h3"></path>
            <rect id="h2" x="62" y="68" width="290" height="76" rx="11"></rect>
            <path d="M581,3.58824082e-13 C218.844795,0.378995145 31.5114617,0.568492717 19,0.568492717 C6.48853826,0.568492717 0.488538259,13.9018261 1,40.5684927 C1,30.6273672 9.0588745,22.5684927 19,22.5684927 L581,22.5684927" id="h1"></path>
        </g>
    </g>
</svg>