<?xml version="1.0" encoding="UTF-8"?>
<svg width="587px" height="450px" viewBox="0 0 587 450" version="1.1" xmlns="http://www.w3.org/2000/svg" xmlns:xlink="http://www.w3.org/1999/xlink">
    <title>SCALLYSWANKBACK</title>
    <g id="Page-1" stroke="none" stroke-width="1" fill="none" fill-rule="evenodd">
        <g id="SCALLYSWANKBACK" transform="translate(0.000000, 1.000000)" stroke="#000000">
            <path d="M586,448 L71,448 C32.3400675,448 1,416.659932 1,378 L1,102 C1,63.3400675 32.3400675,32 71,32 L586,32" id="board" fill="#FFFFFF" fill-rule="nonzero"></path>
            <rect id="board" x="103" y="216" width="82" height="48" rx="8"></rect>
            <path d="M586.182778,286 L356.5,286 C331.371044,286 311,265.628956 311,240.5 C311,215.371044 331.371044,195 356.5,195 L586.182778,195" id="h2" fill="#FFFFFF" fill-rule="nonzero"></path>
            <path d="M586,0 C289.582217,0 117.91555,0 71,0 C24.0844498,0 0.751116456,34 1,102 C1,63.3400675 32.3400675,32 71,32 L586,32" id="h1" fill="#FFFFFF" fill-rule="nonzero"></path>
        </g>
    </g>
</svg>