<?xml version="1.0" encoding="UTF-8"?>
<svg width="586px" height="450px" viewBox="0 0 586 450" version="1.1" xmlns="http://www.w3.org/2000/svg" xmlns:xlink="http://www.w3.org/1999/xlink">
    <title>SCALLYSWANK</title>
    <g id="Page-1" stroke="none" stroke-width="1" fill="none" fill-rule="evenodd">
        <g id="SCALLYSWANK" transform="translate(0.000000, 1.000000)" fill="#FFFFFF" fill-rule="nonzero" stroke="#000000">
            <path d="M586,448 L71,448 C32.3400675,448 1,416.659932 1,378 L1,102 C1,63.3400675 32.3400675,32 71,32 L586,32" id="board"></path>
            <rect id="h4" x="285" y="301" width="269" height="91" rx="45.5"></rect>
            <rect id="h3" x="76" y="301" width="179" height="91" rx="45.5"></rect>
            <rect id="h2" x="76" y="85" width="418" height="91" rx="45.5"></rect>
            <path d="M586,0 C289.582217,0 117.91555,0 71,0 C24.0844498,0 0.751116456,34 1,102 C1,63.3400675 32.3400675,32 71,32 L586,32" id="h1"></path>
        </g>
    </g>
</svg>