<?xml version="1.0" encoding="UTF-8"?>
<svg width="583px" height="376px" viewBox="0 0 583 376" version="1.1" xmlns="http://www.w3.org/2000/svg" xmlns:xlink="http://www.w3.org/1999/xlink">
    <title>SCALLYDAPPER180</title>
    <g id="Page-1" stroke="none" stroke-width="1" fill="none" fill-rule="evenodd">
        <g id="SCALLYDAPPER180" transform="translate(1.000000, 1.000000)" fill="#FFFFFF" fill-rule="nonzero" stroke="#000000">
            <g transform="translate(290.500000, 187.000000) scale(-1, 1) rotate(-180.000000) translate(-290.500000, -187.000000) ">
                <path d="M581,353 L19,353 C9.0588745,353 1,344.941125 1,335 L1,18 C1,8.0588745 9.0588745,0 19,0 L581,0" id="board"></path>
                <path d="M305,230 L515,230 C521.075132,230 526,238.317555 526,248.577778 L526,287.422222 C526,297.682445 521.075132,306 515,306 L294,306 L294,230 L305,230 Z" id="h4"></path>
                <path d="M283,306 L73,306 C66.9248678,306 62,301.075132 62,295 L62,241 C62,234.924868 66.9248678,230 73,230 L283,230 L294,230 L294,306 L283,306 Z" id="h3"></path>
                <rect id="h2" x="62" y="46" width="290" height="76" rx="11"></rect>
                <path d="M581,332.999999 C218.844795,333.378994 31.5114617,333.568492 19,333.568492 C6.48853826,333.568492 0.488538259,346.901825 1,373.568492 C1,363.627366 9.0588745,355.568492 19,355.568492 L581,355.568492" id="h1" transform="translate(290.984935, 353.284245) scale(-1, 1) rotate(-180.000000) translate(-290.984935, -353.284245) "></path>
            </g>
        </g>
    </g>
</svg>