<?xml version="1.0" encoding="UTF-8"?>
<svg width="629px" height="320px" viewBox="0 0 629 320" version="1.1" xmlns="http://www.w3.org/2000/svg" xmlns:xlink="http://www.w3.org/1999/xlink">
    <title>SMARTROCKGRIP</title>
    <g id="Page-1" stroke="none" stroke-width="1" fill="none" fill-rule="evenodd">
        <g id="SMARTROCKGRIP" transform="translate(1.441897, 1.448494)" fill="#FFFFFF" stroke="#000000">
            <g id="hangboard" transform="translate(0.000000, 78.551506)">
                <path d="M627.558103,7.81597009e-13 L29.2676017,7.81597009e-13 L3.82160874,30.7298312 C1.27386958,34.6508017 0,38.0902496 0,41.0481748 C0,44.0060999 2.13562589,48.6450292 6.40687768,54.9649626 L42.6978956,144.694211 C44.7738255,147.440176 48.2695092,148.813159 53.1849469,148.813159 C58.1003846,148.813159 249.558103,148.813159 627.558103,148.813159" id="Path-6"></path>
                <path d="M53.1849469,148.813159 L63.6886658,166.622436 C64.4296513,168.224555 65.6993819,169.025615 67.4978576,169.025615 C69.2963333,169.025615 197.709538,169.025615 452.737472,169.025615 L464.727075,148.813159 L53.1849469,148.813159 Z" id="Path-7"></path>
                <path d="M627.558103,169.025615 L67.4978576,169.025615 L95.3830859,229.683738 C97.344212,233.760718 101.521858,235.799208 107.916024,235.799208 C114.31019,235.799208 287.524217,236.704272 627.558103,238.514399" id="Path-8"></path>
                <polyline id="Path-5" points="627.558103 148.813159 464.727075 148.813159 452.980678 169 627.558103 169.025615"></polyline>
            </g>
            <path d="M396.558103,247.551506 L415.724478,284.291942 C418.783448,287.114575 424.028874,288.525891 431.460755,288.525891 C438.892635,288.525891 485.834937,288.525891 572.287659,288.525891 C577.535596,287.573305 580.875461,286.431664 582.307254,285.100967 C583.739046,283.770271 585.152525,281.687337 586.54769,278.852165 C587.575886,277.325984 587.575886,275.403839 586.54769,273.085728 C585.519493,270.767617 581.554227,262.25621 574.651891,247.551506 L396.558103,247.551506 Z" id="h15"></path>
            <path d="M224.558103,247.551506 L243.724478,284.291942 C246.783448,287.114575 252.028874,288.525891 259.460755,288.525891 C266.892635,288.525891 298.619481,288.525891 354.641291,288.525891 C359.889229,287.573305 363.229094,286.431664 364.660886,285.100967 C366.092678,283.770271 367.506157,281.687337 368.901322,278.852165 C369.929519,277.325984 369.929519,275.403839 368.901322,273.085728 C367.873125,270.767617 363.907859,262.25621 357.005523,247.551506 L224.558103,247.551506 Z" id="h14"></path>
            <path d="M97.8653669,247.57712 L117.031742,284.317557 C120.090712,287.140189 125.336137,288.551506 132.768018,288.551506 C140.199899,288.551506 156.822129,288.551506 182.634708,288.551506 C187.882646,287.59892 191.222511,286.457278 192.654303,285.126582 C194.086095,283.795885 195.499574,281.712951 196.894739,278.87778 C197.922936,277.351599 197.922936,275.429453 196.894739,273.111342 C195.866543,270.793232 191.901277,262.281824 184.998941,247.57712 L97.8653669,247.57712 Z" id="h13"></path>
            <path d="M627.558103,164.702351 L551.076187,164.702351 C541.200778,164.702351 534.036929,168.734879 529.584641,176.799936 C525.132353,184.864993 519.45684,194.832464 512.558103,206.702351 L627.558103,206.702351" id="h12" transform="translate(570.058103, 185.702351) scale(1, -1) translate(-570.058103, -185.702351) "></path>
            <path d="M489.342409,164.702351 L392.076187,164.551506 C382.200778,164.551506 375.036929,168.584034 370.584641,176.649091 C366.132353,184.714147 360.45684,194.681619 353.558103,206.551506 L489.342409,206.702351 C493.16727,197.021612 496.239168,188.643539 498.558103,181.568131 C500.877039,174.492724 497.805141,168.870797 489.342409,164.702351 Z" id="h11" transform="translate(426.432173, 185.626928) scale(1, -1) translate(-426.432173, -185.626928) "></path>
            <path d="M329.427018,164.945653 L203.076187,164.551506 C193.200778,164.551506 186.036929,168.584034 181.584641,176.649091 C177.132353,184.714147 171.45684,194.681619 164.558103,206.551506 L329.175157,206.551506 C333.167925,197.133532 336.323776,188.886841 338.642712,181.811434 C340.961647,174.736026 337.889749,169.1141 329.427018,164.945653 Z" id="h10" transform="translate(251.974477, 185.551506) scale(1, -1) translate(-251.974477, -185.551506) "></path>
            <path d="M126.59427,164.551506 L88.0761865,164.551506 C78.2007775,164.551506 71.036929,168.584034 66.5846409,176.649091 C62.1323529,184.714147 56.4568404,194.681619 49.5581034,206.551506 L126.59427,206.551506 C130.41913,196.870766 133.491028,188.492693 135.809964,181.417286 C138.128899,174.341879 135.057001,168.719952 126.59427,164.551506 Z" id="h9" transform="translate(93.058103, 185.551506) scale(1, -1) translate(-93.058103, -185.551506) "></path>
            <path d="M627.558103,121.551506 L551.076187,121.551506 C541.200778,121.551506 534.036929,125.584034 529.584641,133.649091 C525.132353,141.714147 519.45684,151.681619 512.558103,163.551506 L627.558103,164.551506" id="h8"></path>
            <path d="M489.342409,122.702351 L392.076187,122.551506 C382.200778,122.551506 375.036929,126.584034 370.584641,134.649091 C366.132353,142.714147 360.45684,152.681619 353.558103,164.551506 L489.342409,164.702351 C493.16727,155.021612 496.239168,146.643539 498.558103,139.568131 C500.877039,132.492724 497.805141,126.870797 489.342409,122.702351 Z" id="h7"></path>
            <path d="M329.175157,122.551506 L326.076187,122.551506 C316.200778,122.551506 309.036929,126.584034 304.584641,134.649091 C300.132353,142.714147 294.45684,152.681619 287.558103,164.551506 L329.175157,164.551506 C333.000018,154.870766 336.071916,146.492693 338.390852,139.417286 C340.709787,132.341879 337.637889,126.719952 329.175157,122.551506 Z" id="h6"></path>
            <path d="M241.59427,122.551506 L203.076187,122.551506 C193.200778,122.551506 186.036929,126.584034 181.584641,134.649091 C177.132353,142.714147 171.45684,152.681619 164.558103,164.551506 L241.59427,164.551506 C245.41913,154.870766 248.491028,146.492693 250.809964,139.417286 C253.128899,132.341879 250.057001,126.719952 241.59427,122.551506 Z" id="h5"></path>
            <path d="M126.369741,122.551506 L87.8516575,122.551506 C77.9762485,122.551506 70.8124,126.584034 66.3601119,134.649091 C61.9078238,142.714147 56.2323113,152.681619 49.3335744,164.551506 L126.369741,164.551506 C130.194601,154.870766 133.266499,146.492693 135.585435,139.417286 C137.90437,132.341879 134.832472,126.719952 126.369741,122.551506 Z" id="h4"></path>
            <polyline id="h3" points="627.558103 41.6567711 581.608567 41.6567711 521.745679 78.5515055 627.558103 78.5515055"></polyline>
            <path d="M581.608567,41.6567711 C576.970783,41.4607603 574.651891,39.1507267 574.651891,34.7266705 C574.651891,30.3026142 574.651891,27.0815908 574.651891,25.0636002 C574.943135,21.9517321 572.479123,20.395798 567.259857,20.395798 C562.04059,20.395798 499.746101,20.395798 380.376389,20.395798 C375.991009,20.5598962 372.294909,22.1158303 369.288091,25.0636002 C366.281272,28.0113702 343.310585,45.840672 300.376029,78.5515055 L521.745679,78.5515055 L581.608567,41.6567711 Z" id="h2"></path>
            <path d="M300.376029,78.5515055 L29.2676017,78.5515055 L96.4567697,4.2004212 C99.0764071,1.4001404 102.136864,0 105.63814,0 C109.139415,0 114.163213,0 120.709532,0 C122.853824,0.96486998 124.444473,2.36501038 125.481477,4.2004212 C126.518481,6.03583202 128.119918,8.40084239 130.285789,11.2954523 C131.465828,12.8207484 134.039534,13.5833964 138.006907,13.5833964 C141.97428,13.5833964 196.09732,13.5833964 300.376029,13.5833964 C313.21589,18.1968929 319.63582,23.9740905 319.63582,30.914989 C319.63582,37.8558876 319.63582,44.7832225 319.63582,51.6969937 C319.765908,53.7913472 320.531947,54.838524 321.933937,54.838524 C323.335927,54.838524 326.739791,54.838524 332.145529,54.838524 L300.376029,78.5515055 Z" id="h1"></path>
        </g>
    </g>
</svg>