<?xml version="1.0" encoding="UTF-8"?>
<svg width="585.775318px" height="377.670707px" viewBox="0 0 585.775318 377.670707" version="1.1" xmlns="http://www.w3.org/2000/svg" xmlns:xlink="http://www.w3.org/1999/xlink">
    <title>SMOGMEDIUM</title>
    <g id="Page-1" stroke="none" stroke-width="1" fill="none" fill-rule="evenodd">
        <g id="SMOGMEDIUM" transform="translate(0.4995, 0.5032)" fill="#FFFFFF" fill-rule="nonzero" stroke="#000000">
            <path d="M584.275835,35.0234044 L79.5052169,35.0234044 L0.106235789,107.023404 C-0.889048429,200.869848 36.5380718,247.79307 112.387596,247.79307 C57.9301819,293.051692 42.192252,336.009849 65.1738066,376.667542 L584.275835,376.667542" id="board"></path>
            <path d="M350.775835,296.36687 C362.846549,296.36687 373.132057,299.31311 380.431454,304.229564 C387.768393,309.171304 392.079487,316.107691 392.079487,324.023404 C392.079487,332.002667 387.701948,339.201128 380.261127,344.362969 C372.973802,349.418327 362.754138,352.523404 350.775835,352.523404 C338.595713,352.523404 327.565626,349.31304 319.582574,344.110602 C311.694163,338.96984 306.775835,331.879848 306.775835,324.023404 C306.775835,316.230259 311.618943,309.396186 319.399203,304.473373 C327.397611,299.412532 338.503201,296.36687 350.775835,296.36687 Z" id="h8"></path>
            <path d="M584.775835,295.36687 C584.775835,295.36687 584.775835,351.523404 584.775835,351.523404 C572.595713,351.523404 561.565626,348.31304 553.582574,343.110602 C545.694163,337.96984 540.775835,330.879848 540.775835,323.023404 C540.775835,315.230259 545.618943,308.396186 553.399203,303.473373 C561.397611,298.412532 572.503201,295.36687 584.775835,295.36687 Z" id="h7"></path>
            <polyline id="h9" points="584.275835 376.667542 222.275835 376.667542 224.730589 338.033401 584.275835 338.033401"></polyline>
            <polyline id="h6" points="584.275835 284.673937 280.87085 284.673937 250.983247 216.547205 584.275835 216.547205"></polyline>
            <path d="M179.695387,176.960751 C190.975885,177.554968 210.028492,235.317175 236.853208,350.247374 C242.608605,367.860819 234.916729,376.667542 213.777581,376.667542 L63.1008334,376.667542 C34.7521327,371.697418 27.6649575,354.808146 41.8393078,325.999726 C56.08453,297.047264 81.6714175,273.992367 101.053878,256.762057 L104.455287,253.738297 C112.496985,246.581314 119.180051,240.514733 123.081667,235.532636 C136.535513,218.352991 162.77464,176.069427 179.695387,176.960751 Z M188.430864,256.638 C176.201385,220.158177 149.949159,234.054281 137.010019,247.539358 C135.974888,248.618164 134.917625,249.697117 133.835378,250.783512 L133.018963,251.599818 C120.701145,263.868767 105.131094,277.310664 82.2486533,302.315824 C56.8237194,330.099334 76.9307649,343.667542 102.959876,343.667542 L190.787067,343.667542 C207.722037,343.667542 213.884144,337.494214 209.273387,325.147558 C203.531358,303.794401 196.583851,280.957881 188.430864,256.638 Z" id="h5"></path>
            <path d="M584.275835,163.995758 L257.978842,163.995758 C257.978842,126.244243 257.978842,107.368486 257.978842,107.368486 C257.978842,107.368486 366.744507,107.368486 584.275835,107.368486" id="h4"></path>
            <path d="M33.7091518,107.023404 C33.7091518,107.368486 0.10629349,107.023404 0.10629349,107.023404 C-2.72416469,178.383376 51.4257909,240.042831 108.521998,182.951686 C165.618205,125.860542 191.001594,131.541454 203.267789,135.682122 C215.533983,139.82279 229.793827,163.995758 257.978842,163.995758 C257.978842,163.995758 257.978842,107.368486 257.978842,107.368486 C226.241458,107.368486 232.315035,99.4632456 187.535346,99.4632456 C142.755657,99.4632456 100.844523,143.11321 71.742259,141.041649 C42.6399949,138.970089 30.8796787,124.849085 33.7091518,107.023404 Z" id="h3"></path>
            <path d="M584.275835,70.5234044 L260.275835,70.5234044 L260.275835,35.0234044 C389.319089,35.0234044 497.319089,35.0234044 584.275835,35.0234044" id="h2"></path>
            <path d="M260.275835,70.5234044 C245.075519,70.5234044 211.44501,68.851556 189.003133,48.2055296 C166.561255,27.5595032 65.3355837,37.6171183 33.7091518,107.023404 C33.7091518,107.023404 0.106235789,107.023404 0.106235789,107.023404 C0.106235789,92.8446624 17.6358492,61.7327249 42.685945,42.0849325 C82.6309329,10.7544803 132.263128,-2.37924982 178.398985,0.350924272 C224.534841,3.08109837 247.136292,35.0234044 260.275835,35.0234044 C260.275835,35.0234044 260.275835,70.5234044 260.275835,70.5234044 Z" id="h1"></path>
        </g>
    </g>
</svg>