<?xml version="1.0" encoding="UTF-8"?>
<svg width="664px" height="715px" viewBox="0 0 664 715" version="1.1" xmlns="http://www.w3.org/2000/svg" xmlns:xlink="http://www.w3.org/1999/xlink">
    <title>SMOGPUMP</title>
    <g id="Page-1" stroke="none" stroke-width="1" fill="none" fill-rule="evenodd">
        <g id="SMOGPUMP" transform="translate(0.643930, 1.320622)" fill="#FFFFFF" stroke="#000000">
            <path d="M662.35607,556.80532 C530.229862,557.708879 450.615246,549.571078 423.512222,532.391918 C397.961148,516.196456 381.639643,544.287041 351.641517,551.486718 C318.475079,559.446803 225.398537,564.765405 199.436984,556.80532 C178.049923,523.21764 248.13595,633.771113 246.36547,628.161592 C233.35607,586.943113 321.209717,637.280739 359.004373,637.280739 C396.799029,637.280739 450.877762,616.485233 520.522344,616.485233 C566.952064,616.485233 614.229973,615.684394 662.35607,614.082716" id="-board"></path>
            <path d="M662.35607,556.80532 C530.229862,557.708879 450.615246,549.571078 423.512222,532.391918 C397.961148,516.196456 381.639643,544.287041 351.641517,551.486718 C318.475079,559.446803 225.398537,564.765405 199.436984,556.80532 C185.178943,534.413533 125.3916,429.753676 20.0749554,242.825748 L118.061998,98.9278847 L662.35607,98.9278847" id="board"></path>
            <path d="M662.35607,692.57178 C641.049142,692.57178 643.511644,710.030282 619.742194,710.030282 C595.972745,710.030282 397.690896,716.690084 359.004373,710.030282 C320.31785,703.370479 259.37487,669.380072 246.36547,628.161592 C233.35607,586.943113 321.209717,637.280739 359.004373,637.280739 C396.799029,637.280739 450.877762,616.485233 520.522344,616.485233 C566.952064,616.485233 614.229973,615.684394 662.35607,614.082716" id="h11"></path>
            <path d="M662.35607,614.679378 L636.35607,614.679378 C625.86266,614.679378 617.35607,606.172788 617.35607,595.679378 C617.35607,585.185967 625.86266,576.679378 636.35607,576.679378 L662.35607,576.679378" id="h10"></path>
            <path d="M662.35607,556.80532 C530.229862,557.708879 450.615246,549.571078 423.512222,532.391918 C406.478173,521.594943 391.558405,505.315739 378.752917,483.554306 C369.240801,469.976023 384.160569,463.186882 423.512222,463.186882 C462.863875,463.186882 542.478491,465.001977 662.35607,468.632169" id="h9"></path>
            <path d="M662.35607,467.679378 L613.35607,467.679378 C602.86266,467.679378 594.35607,459.172788 594.35607,448.679378 C594.35607,438.185967 602.86266,429.679378 613.35607,429.679378 L662.35607,429.679378" id="h8"></path>
            <ellipse id="h7" cx="277.35607" cy="498.179378" rx="59.5" ry="41"></ellipse>
            <ellipse id="h6" cx="222.85607" cy="382.179378" rx="84" ry="47"></ellipse>
            <path d="M662.35607,404.84357 L406.506839,404.84357 C364.923706,404.84357 328.096777,389.487734 296.026052,358.776062 C282.033717,345.376677 263.327151,338.532086 239.575898,335.852829 C215.824645,333.173572 173.134044,335.568502 128.628299,323.771837 C96.6511544,315.295996 65.9412819,297.832291 49.5233456,280.169187 C44.8348924,275.125152 63.4488539,292.865105 77.4663494,273.855534 C91.4838448,254.845964 81.3574527,241.238273 81.8172961,242.825748 C83.2583807,247.800672 118.393856,264.478775 153.290213,273.855534 C192.764853,284.462493 249.335159,286.469173 266.741169,293.677278 C284.147179,300.885383 298.243561,306.148821 324.35607,319.769738 C344.650391,330.355748 386.268233,344.760982 406.506839,344.760982 C420.454726,344.760982 505.737803,344.760982 662.35607,344.760982" id="h5"></path>
            <path d="M662.35607,298.690059 C505.359496,299.363847 428.968886,299.026953 433.18424,297.679378 C434.81259,297.158822 442.395051,292.23385 449.355057,283.968903 C452.593617,280.12314 455.295781,274.870473 457.465579,270.283934 C487.983983,238.295629 549.900386,189.74836 662.35607,189.74836" id="h4"></path>
            <path d="M375.975388,157.445428 C335.026302,198.139793 328.574186,247.516789 354.554575,272.598083 C371.874835,289.318946 389.122349,297.679378 406.297116,297.679378 C420.006512,299.026953 428.968886,299.026953 433.18424,297.679378 C440.597925,295.309351 472.540602,267.697641 457.928186,230.821127 C448.186576,206.236784 449.429895,184.627603 461.658144,165.993585 C431.835698,133.165236 403.274779,130.31585 375.975388,157.445428 Z" id="h3"></path>
            <path d="M662.35607,98.9278847 C615.071845,98.9278847 581.758968,111.01747 560.111161,128.049673 C545.67929,139.404476 512.878516,152.148009 461.708838,166.280273 C439.790087,139.442537 415.976412,132.733103 390.267812,146.151971 C390.267812,146.151971 415.668872,125.381478 466.470991,83.8404927 C524.396839,36.8901407 571.74898,10.4769645 608.527414,4.60096404 C632.284667,0 642.528313,0 662.35607,0" id="h2"></path>
            <path d="M466.470991,83.8404927 L375.975388,157.445428 C321.258286,175.814022 281.786729,174.278594 257.560718,152.839144 C225.339326,128.621499 233.235496,95.8319841 145.69057,110.573894 C58.1456449,125.315805 70.0755474,227.721135 81.8172961,242.825748 C93.5590449,257.93036 68.59246,297.259071 46.7265267,277.594716 C24.8605934,257.93036 -17.6840348,189.673761 7.98182959,125.286253 C33.647694,60.8987447 83.3560699,22.6919549 158.35607,22.6919549 C233.35607,22.6919549 276.119882,76.3059478 304.701972,83.8404927 C317.266081,87.1525262 343.547022,96.8876595 386.430379,95.8319841 C401.199407,95.4684096 427.879611,91.4712458 466.470991,83.8404927 Z" id="h1"></path>
        </g>
    </g>
</svg>