<?xml version="1.0" encoding="UTF-8"?>
<svg width="586px" height="574px" viewBox="0 0 586 574" version="1.1" xmlns="http://www.w3.org/2000/svg" xmlns:xlink="http://www.w3.org/1999/xlink">
    <title>SOILLREMEDY</title>
    <g id="Page-1" stroke="none" stroke-width="1" fill="none" fill-rule="evenodd">
        <g id="SOILLREMEDY" transform="translate(1.000000, 1.000000)" fill="#FFFFFF" fill-rule="nonzero">
            <path d="M585,0 C559.319525,0.980943309 543.70619,4.58001406 538.159991,10.7972122 C523.975875,10.7972122 406.107761,15.8506083 345.682749,79.2889298 C305.399409,121.581144 230.680474,196.738378 121.525944,304.760629 C40.5086481,402.513168 0,473.278942 0,517.057952 C0,560.836962 18.6834319,578.452928 56.0502959,569.905846 L141.165225,550.621936 C146.710287,540.565273 155.179791,533.78184 166.573737,530.271636 C183.664657,525.006327 403.190715,461.274065 444.65066,461.274065 C472.290624,461.274065 492.708238,459.710365 505.903504,456.582968 C531.075329,461.354387 557.440829,463.740095 585,463.740095" id="hangboard-2" stroke="#000000"></path>
            <path d="M585,0 C559.319525,0.980943309 543.70619,4.58001406 538.159991,10.7972122 C523.975875,10.7972122 406.107761,15.8506083 345.682749,79.2889298 C305.399409,121.581144 230.680474,196.738378 121.525944,304.760629 C40.5086481,402.513168 0,473.278942 0,517.057952 C0,560.836962 18.6834319,578.452928 56.0502959,569.905846 L141.165225,550.621936 C146.710287,540.565273 155.179791,533.78184 166.573737,530.271636 C174.169701,527.931498 182.498103,510.992281 191.558943,479.453986 C197.782203,456.155159 211.915112,447.124441 233.95767,452.361836 C267.021507,460.217928 300.542786,484.657771 309.705279,476.723067 C318.867774,468.788363 320.499545,444.80823 338.822826,448.585034 C357.146109,452.361836 378.495675,456.976028 385.842057,452.361836 C393.188438,447.747643 402.444811,432.114072 450.267979,442.237953 C498.091147,452.361836 516.738734,463.740095 585,463.740095" id="hangboard-1" stroke="#000000"></path>
            <path d="M59,408 C86.0148314,400.622935 105.839941,392.716114 118.475331,384.279538 C138.838477,370.683184 178.169988,341.909226 190.80871,323.933631 C213.509285,291.647427 222.50041,258.336215 217.782085,224 C179.471304,263.190631 150.243832,294.457687 130.099665,317.801169 C109.955498,341.144651 86.2556093,371.210928 59,408 Z" id="h11"></path>
            <path d="M232,215 C280.546139,208.425923 317.355368,193.050045 342.427689,168.872367 C367.5,144.694688 381.357447,108.070566 384,59 C347.325595,92.2268391 319.34652,118.735865 300.062773,138.527078 C280.779028,158.318291 258.091436,183.809265 232,215 Z" id="h10"></path>
            <path d="M585,6 C559.233559,7.98877736 544.758824,13.4252031 541.575797,22.3092772 C505.227012,23.6766679 482.694919,25.2411803 473.979514,27.0028144 C460.906406,29.6452657 454.800947,29.6452657 462.172317,46.0199671 C467.086566,56.9364346 470.64395,64.9297789 472.844471,70 L585,70" id="h9"></path>
            <rect id="h8" stroke="#000000" x="465" y="384" width="66" height="33" rx="9.5"></rect>
            <circle id="h7" stroke="#000000" cx="366.5" cy="408.5" r="24.5"></circle>
            <path d="M86.1932259,434.621649 L150.652996,434.621649 C158.937268,434.621649 165.652996,441.337378 165.652996,449.621649 L165.652996,472.099036 C165.652996,480.383307 158.937268,487.099036 150.652996,487.099036 L86.1932259,487.099036 C77.9089547,487.099036 71.1932259,480.383307 71.1932259,472.099036 L71.1932259,449.621649 C71.1932259,441.337378 77.9089547,434.621649 86.1932259,434.621649 Z" id="h6" stroke="#000000" transform="translate(118.423111, 460.860342) rotate(-17.000000) translate(-118.423111, -460.860342) "></path>
            <path d="M176.798705,338.489214 L257.001703,338.489214 C265.285974,338.489214 272.001703,345.204943 272.001703,353.489214 L272.001703,375.966796 C272.001703,384.251067 265.285974,390.966796 257.001703,390.966796 L176.798705,390.966796 C168.514434,390.966796 161.798705,384.251067 161.798705,375.966796 L161.798705,353.489214 C161.798705,345.204943 168.514434,338.489214 176.798705,338.489214 Z" id="h5" stroke="#000000" transform="translate(216.900204, 364.728005) rotate(-24.000000) translate(-216.900204, -364.728005) "></path>
            <path d="M585,331 L427.701658,331 C415.163878,331 405,320.926407 405,308.5 C405,296.073593 415.163878,286 427.701658,286 L584.899383,286" id="h4" stroke="#000000"></path>
            <path d="M258.120108,235.208746 L370.55895,235.208746 C379.119364,235.208746 386.05895,242.148333 386.05895,250.708746 L386.05895,273.935486 C386.05895,282.495899 379.119364,289.435486 370.55895,289.435486 L258.120108,289.435486 C249.559695,289.435486 242.620108,282.495899 242.620108,273.935486 L242.620108,250.708746 C242.620108,242.148333 249.559695,235.208746 258.120108,235.208746 Z" id="h3" stroke="#000000" transform="translate(314.339529, 262.322116) rotate(-16.000000) translate(-314.339529, -262.322116) "></path>
            <path d="M585,224 L415.467341,224 C401.954402,224 391,213.926407 391,201.5 C391,189.073593 401.954402,179 415.467341,179 L584.891557,179" id="h2" stroke="#000000"></path>
            <path d="M585,134 L415.467343,134 C401.954402,134 391,123.926407 391,111.5 C391,99.073593 401.954402,89 415.467343,89 L584.891557,89" id="h1" stroke="#000000"></path>
        </g>
    </g>
</svg>