<?xml version="1.0" encoding="UTF-8"?>
<svg width="330px" height="268px" viewBox="0 0 330 268" version="1.1" xmlns="http://www.w3.org/2000/svg" xmlns:xlink="http://www.w3.org/1999/xlink">
    <title>SOILLCRIMP</title>
    <g id="Page-1" stroke="none" stroke-width="1" fill="none" fill-rule="evenodd">
        <g id="SOILLCRIMP" transform="translate(0.872070, 0.753705)" fill="#FFFFFF" stroke="#000000">
            <path d="M329.12793,30.6662166 C307.525716,27.4194718 293.189128,23.0041072 286.118164,17.4201229 C275.511719,9.0441463 267.546875,3.38984943 257.49707,4.90547443 C247.447266,6.42109943 206.063477,14.0832088 182.289063,14.0832088 C166.439453,14.0832088 129.06543,9.40840411 70.1669922,0.0587947385 C56.7373047,-0.587038595 49.1002604,4.08776609 47.2558594,14.0832088 C44.4892578,29.0763729 47.2558594,51.2638729 47.2558594,65.9455135 C47.2558594,75.7332739 37.7792969,94.5334041 18.8261719,122.345904 C9.22721354,136.634316 5.15852865,149.259641 6.62011719,160.221881 C6.62011719,160.221881 0,164.740435 0,192.658404 C0,211.270383 1.40494792,223.826373 4.21484375,230.326373 C-0.707682292,246.795774 -0.707682292,256.145058 4.21484375,258.374224 C9.13736979,260.603391 14.0078125,258.710162 18.8261719,252.694537 C22.1829427,258.924355 25.5419922,262.039263 28.9033203,262.039263 C33.9453125,262.039263 44.9589844,241.810748 62.3339844,249.396685 C62.3339844,249.396685 63.0664063,260.401568 70.1669922,256.548053 C77.2675781,252.694537 90.7001953,239.758013 95.9951172,241.119342 C101.290039,242.48067 96.5214844,263.844928 106.876953,266.466998 C117.232422,269.089068 138.973633,235.598834 143.083984,236.862506 C147.194336,238.126178 151.825195,247.591021 156.063477,247.591021 C160.301758,247.591021 177.220703,224.031451 185.802734,225.60567 C194.384766,227.179888 190.682617,243.641803 197.674805,243.641803 C204.666992,243.641803 213.969727,230.326373 220.987305,230.326373 C228.004883,230.326373 225.001953,239.172076 232.451172,239.172076 C239.900391,239.172076 237.306641,234.552935 243.963867,236.862506 C250.621094,239.172076 245.083984,249.671099 250.55957,251.216998 C256.035156,252.762896 270.19043,234.552935 275.939453,236.862506 C281.688477,239.172076 278.244141,249.280474 286.118164,251.216998 C293.992188,253.153521 295.819336,249.280474 297.69043,251.216998 C299.561523,253.153521 295.538086,261.19356 301.780273,265.210162 C305.941732,267.887896 314.747213,262.573769 328.196716,249.267779 L329.12793,249.267779" id="hangboard"></path>
            <path d="M329.12793,188.160357 C311.581055,187.995644 298.257487,184.466347 289.157227,177.572467 C280.056966,170.678586 275.051758,164.70593 274.141602,159.654498 C270.549154,134.34672 270.549154,114.603881 274.141602,100.425982 C274.141602,95.5480526 280.776367,71.6271541 272.711914,58.1505916 C272.711914,58.1505916 286.118164,42.0666072 286.118164,17.4201229 C286.118164,17.4201229 306.030273,30.0578182 329.12793,30.0578182" id="h5"></path>
            <path d="M91.8232422,117.85274 C94.9573568,144.249224 98.0481771,158.183144 101.095703,159.654498 C101.095703,159.654498 158.777669,159.654498 274.141602,159.654498 C271.965169,144.202024 270.876953,133.098508 270.876953,126.343951 C270.876953,119.589394 265.433268,116.75899 254.545898,117.85274 L91.8232422,117.85274 Z" id="h4"></path>
            <path d="M97.3310547,60.6916072 C93.6591797,67.9637427 91.8232422,78.2469458 91.8232422,91.5412166 C91.8232422,91.5412166 146.984701,91.5412166 257.307617,91.5412166 C260.143555,92.2560604 260.852539,90.3817114 259.43457,85.9181697 C257.307617,79.2228572 248.482422,53.8605526 177.474609,55.5558651 C130.136068,56.6860734 103.421549,58.3979874 97.3310547,60.6916072 Z" id="h3"></path>
            <path d="M257.49707,4.90547443 C247.447266,6.42109943 206.063477,14.0832088 182.289063,14.0832088 C166.439453,14.0832088 129.06543,9.40840411 70.1669922,0.0587947385 C56.7373047,-0.587038595 49.1002604,4.08776609 47.2558594,14.0832088 C74.0039063,45.1554744 90.695638,60.6916072 97.3310547,60.6916072 C107.28418,60.6916072 199.860352,47.8361385 239.067383,64.3712947 C265.205404,75.3947322 280.888997,59.7443416 286.118164,17.4201229 C275.511719,9.0441463 267.546875,3.38984943 257.49707,4.90547443 Z" id="h2"></path>
            <path d="M101.095703,159.654498 C88.5279948,124.015175 87.273112,91.0275447 97.3310547,60.6916072 C97.3310547,60.6916072 75.7236328,52.3683651 47.2558594,14.0832088 C47.2558594,14.0832088 44.8349609,38.1549397 47.2558594,67.7880196 C47.2558594,67.7880196 35.0976562,135.400592 41.1767578,147.527545 C45.2294922,155.61218 62.1116536,168.696165 91.8232422,186.779498 C103.699219,187.813027 108.759766,185.088254 107.004883,178.605181 C105.25,172.122109 103.280273,165.805214 101.095703,159.654498 Z" id="h1"></path>
        </g>
    </g>
</svg>