<svg width="583" height="386" viewBox="0 0 583 386" fill="none" xmlns="http://www.w3.org/2000/svg">
<g id="SPINFINGER">
<path fill="white" id="board" d="M582 385H267C256.2 384.6 253.5 377.5 236.5 377.5C218.5 377.5 217 382 197 382C194.167 382.333 180.8 382.8 150 382C111.5 381 86.5 356 68 334C49.5 312 57 286.5 61.5 268.5C66 250.5 57.5 243 39.5 223.5C21.5 204 25.5 171 27.5 161.5C29.5 152 28.5 142.5 22 137.5C15.5 132.5 1 113 1 58.0001C1 14.0001 49.6667 2.3334 74 2.00007C119.167 1.66674 216.8 1.20007 246 2.00007C275.2 2.80007 283.833 8.33341 284.5 11.0001H582" stroke="black"/>
<path id="board_2" d="M284.5 10.5C284.5 12 257 81 257 81C255 53 258 8.99992 271 4.99998C274 4.07692 284.5 9.00002 284.5 10.5Z" fill="white" stroke="black"/>
<path id="h1" d="M270 5.00009C252 14.5 256.5 81.5 256.5 81.5C256.5 81.5 247.5 39.5001 208.5 40.5001L4.5 40.5001C15.5 11.5 51 3.99999 68.5 2.49999C141.5 1.66666 249 -0.499967 270 5.00009Z" fill="white"/>
<path id="h2" fill="white" d="M256.5 81.5001L285 10.0001C285 10.0001 432.188 10.0001 526.5 10.0001C526.5 10.0001 527.719 53.5776 528.5 81.5001" stroke="black"/>
<path id="h3" fill="white" d="M582.5 1.50004C566.098 1.50004 540.5 1.50004 540.5 1.50004C535.667 1.16671 526 3.20004 526 14C526 18.0001 528.5 81.5 528.5 81.5H582.5" stroke="black"/>
<rect id="h4" x="26.5" y="46.5001" width="217" height="77" rx="38.5" fill="white" stroke="black"/>
<rect id="h5" x="55.5" y="154.5" width="127" height="77" rx="38.5" fill="white" stroke="black"/>
<rect id="h6" x="106.5" y="262.5" width="143" height="77" rx="38.5" fill="white" stroke="black"/>
<rect id="h7" x="278.5" y="116.5" width="293" height="77" rx="38.5" fill="white" stroke="black"/>
<rect id="h8" x="278.5" y="212.5" width="293" height="77" rx="38.5" fill="white" stroke="black"/>
<path id="h9" fill="white" d="M582.5 310.5L310.13 308.264C292.428 308.118 278 322.429 278 340.131V340.131C278 357.732 292.268 372 309.869 372H582.5" stroke="black"/>
</g>
</svg>
