<?xml version="1.0" encoding="UTF-8"?>
<svg width="337px" height="163px" viewBox="0 0 337 163" version="1.1" xmlns="http://www.w3.org/2000/svg" xmlns:xlink="http://www.w3.org/1999/xlink">
    <title>TARGETLINEPRO</title>
    <g id="Page-1" stroke="none" stroke-width="1" fill="none" fill-rule="evenodd">
        <g id="TARGETLINEPRO" transform="translate(0.998378, 1.274414)" stroke="#000000">
            <path d="M336.001622,158.543945 L29.4792276,161.067128 C12.1459764,155.947501 3.47935083,147.264965 3.47935083,135.019519 C3.47935083,122.774073 5.81243667,115.369816 10.4786083,112.806748 C12.9165601,109.449678 14.135536,104.554609 14.135536,98.1215422 C14.135536,91.6884754 232.757565,88.2231566 336.001622,87.7255859" id="Path" fill="#FFFFFF"></path>
            <path d="M150.851039,103.247316 C137.385532,107.136033 130.652779,115.12537 130.652779,127.215325 C130.652779,145.350258 121.659391,161.067128 103.949939,161.067128 C92.1436374,161.067128 67.3200669,161.067128 29.4792276,161.067128 C12.1459764,157.79 3.47935083,148.153365 3.47935083,132.157222 C3.47935083,111.266882 10.9384872,115.103392 12.8683047,103.456214 C13.1550359,101.725683 13.3197027,99.6533361 13.3197027,97.1072824 C13.3197027,83.9859301 54.6546583,83.9859301 137.324569,97.1072824 L150.851039,103.247316 Z" id="Path-2" fill="#FFFFFF"></path>
            <path d="M336.001622,103.247316 C133.897082,103.247316 30.6334099,103.247316 26.2106067,103.247316 C19.576402,103.247316 0,93.0322266 0,75.3945313 C0,63.6360677 6.13758505,44.2877604 18.4127552,17.3496094 C22.5331979,9.31315104 29.5299427,5.29492188 39.4029895,5.29492188 C49.2760364,5.29492188 78.7978463,5.29492188 127.968419,5.29492188 L132.859044,9.39453125 L223.991857,9.39453125 C228.369461,7.12445229 230.558263,3.99294188 230.558263,4.54747351e-13 C230.558263,4.54747351e-13 265.706049,4.54747351e-13 336.001622,4.54747351e-13" id="Path-3" fill="#FFFFFF"></path>
            <path d="M336.001622,139.725586 L315.501622,139.725586 C308.045778,139.725586 302.001622,133.68143 302.001622,126.225586 C302.001622,118.769742 308.045778,112.725586 315.501622,112.725586 L336.001622,112.725586" id="h12"></path>
            <rect id="h11" x="244.001622" y="112.725586" width="50" height="27" rx="13.5"></rect>
            <rect id="h10" x="146.001622" y="114.725586" width="90" height="27" rx="13.5"></rect>
            <rect id="h9" x="18.0016223" y="110.725586" width="96" height="27" rx="13.5"></rect>
            <path d="M336.001622,80.7255859 L265.501622,80.7255859 C257.493493,80.7255859 251.001622,74.2337148 251.001622,66.2255859 C251.001622,58.2174571 257.493493,51.7255859 265.501622,51.7255859 L336.001622,51.623658" id="h8"></path>
            <circle id="h7" cx="226.501622" cy="66.2255859" r="14.5"></circle>
            <circle id="h6" cx="188.501622" cy="66.2255859" r="14.5"></circle>
            <rect id="h5" x="114.001622" y="51.7255859" width="50" height="29" rx="14.5"></rect>
            <rect id="h4" x="16.0016223" y="51.7255859" width="92" height="29" rx="14.5"></rect>
            <polyline id="h3" points="336.001622 0 230.558263 0 230.558263 26.1572266 336.001622 26.1572266"></polyline>
            <path d="M132.859044,9.39453125 L123.522198,41.6188013 L218.096439,41.6188013 C226.404322,36.6900977 230.558263,31.5362394 230.558263,26.1572266 C230.558263,20.7782137 230.558263,12.0591382 230.558263,5.68434189e-14 C230.110937,6.26302083 227.922135,9.39453125 223.991857,9.39453125 C220.061579,9.39453125 189.683974,9.39453125 132.859044,9.39453125 Z" id="h2"></path>
            <path d="M8.00162235,41.6188013 L18.5345937,17.7802734 C22.725226,9.7438151 29.7219708,5.72558594 39.5248281,5.72558594 C49.3276855,5.72558594 78.8494953,5.72558594 128.090258,5.72558594 L123.522198,41.6188013 L8.00162235,41.6188013 Z" id="h1"></path>
        </g>
    </g>
</svg>