<?xml version="1.0" encoding="UTF-8"?>
<svg width="585px" height="303px" viewBox="0 0 585 303" version="1.1" xmlns="http://www.w3.org/2000/svg" xmlns:xlink="http://www.w3.org/1999/xlink">
    <title>TENSIONGRIND</title>
    <g id="Page-1" stroke="none" stroke-width="1" fill="none" fill-rule="evenodd">
        <g id="TENSIONGRIND" transform="translate(1.000000, 1.000000)" fill="#FFFFFF" fill-rule="nonzero">
            <path d="M0,146 L583.916116,146 L583.916116,267.166816 C585.132134,289.722273 573.127239,301 547.901426,301 C522.675613,301 471.981345,301 395.818622,301 C386.759175,301 379.641161,298.718302 374.464578,294.154907 C366.699705,287.309813 360.35999,285.371007 348.748564,285.371007 C337.137139,285.371007 331.780386,288.932723 326.747171,294.154907 C323.391696,297.636362 314.77885,299.91806 300.908635,301 C207.811505,301 161.262941,301 161.262941,301 C147.989521,301 145.140096,296.234484 139.521101,292.635681 C133.902106,289.036879 128.57429,285.371007 117.106311,285.371007 C105.260468,285.371007 99.9940404,287.294606 92.893457,292.635681 C88.1597348,296.196398 80.2777851,298.984505 69.2476081,301 L0,301" id="Path-20" stroke="#000000" transform="translate(292.000000, 223.500000) scale(-1, 1) translate(-292.000000, -223.500000) "></path>
            <path d="M0,39 L583.916116,39 L583.916116,173.198823 C585.132134,195.732942 573.127239,207 547.901426,207 C522.675613,207 471.981345,207 395.818622,207 C386.759175,207 379.641161,204.720461 374.464578,200.161383 C366.699705,193.322764 360.35999,191.385792 348.748564,191.385792 C337.137139,191.385792 331.780386,194.944139 326.747171,200.161383 C323.391696,203.639544 314.77885,205.919083 300.908635,207 C207.811505,207 161.262941,207 161.262941,207 C147.989521,207 145.140096,202.238992 139.521101,198.643594 C133.902106,195.048196 128.57429,191.385792 117.106311,191.385792 C105.260468,191.385792 99.9940404,193.307571 92.893457,198.643594 C88.1597348,202.200942 80.2777851,204.986412 69.2476081,207 L0,207" id="Path-20" stroke="#000000" transform="translate(292.000000, 123.000000) scale(-1, 1) translate(-292.000000, -123.000000) "></path>
            <rect id="h5" stroke="#000000" x="263" y="127" width="187" height="43" rx="13.5"></rect>
            <path d="M583.967324,172 L516.618568,172 C503.574393,172 493,162.374123 493,150.5 C493,138.625878 503.574393,129 516.618568,129 L584,129" id="h6" stroke="#000000"></path>
            <path d="M583.967324,277 L516.618568,277 C503.574393,277 493,267.374124 493,255.5 C493,243.625878 503.574393,234 516.618568,234 L584,234" id="h9" stroke="#000000"></path>
            <rect id="h4" stroke="#000000" x="34" y="127" width="187" height="43" rx="13.5"></rect>
            <rect id="h7" stroke="#000000" x="32" y="234" width="187" height="43" rx="13.5"></rect>
            <rect id="h8" stroke="#000000" x="263" y="234" width="187" height="43" rx="13.5"></rect>
            <path d="M583.992097,83 L516.625,83 C503.577273,83 493,63.7482443 493,40 C493,40 523.333334,40 584,40" id="h3"></path>
            <path d="M435.509499,83.4787473 L37.6476052,84.9756789 C12.5564841,85.5792137 0.0109235545,74.9500669 0.0109235545,53.0882388 C0.0109235545,20.2954964 -1.52074737,10.8734191 31.6899742,10.8734191 C53.830455,10.8734191 111.834298,10.8734191 205.701502,10.8734191 C217.630419,10.1487634 226.048018,8.49240741 230.954303,5.90435122 C238.313729,2.02226694 252.848255,0.00668878953 265.329014,0.00668878953 C273.649521,0.00668878953 330.376349,0.00668878953 435.509499,0.00668878953 C462.503167,-0.341145961 476,12.8772647 476,39.6619209 C476,66.4465771 462.503167,81.0521858 435.509499,83.4787473 Z" id="h1" stroke="#000000"></path>
            <rect id="h2" stroke="#000000" x="263" y="22" width="187" height="43" rx="13.5"></rect>
        </g>
    </g>
</svg>