<?xml version="1.0" encoding="UTF-8"?>
<svg width="600px" height="165px" viewBox="0 0 600 165" version="1.1" xmlns="http://www.w3.org/2000/svg" xmlns:xlink="http://www.w3.org/1999/xlink">
    <title>TENSIONFLASHBACK</title>
    <g id="Page-1" stroke="none" stroke-width="1" fill="none" fill-rule="evenodd">
        <g id="TENSIONFLASHBACK" transform="translate(1.000000, 0.000000)" fill="#FFFFFF" fill-rule="nonzero" stroke="#000000">
            <path d="M598,0.90978 L24.5171934,0.90978 C8.23684582,22.8317378 0.096672,47.8618112 0.096672,76.0000001 C0.096672,104.138189 8.23684582,133.618283 24.5171934,164.440281 L598,164.440281" id="board"></path>
            <polyline id="board" stroke-opacity="0.499161727" points="598 140 118 140 118 23.0000001 598 23.0000001"></polyline>
            <path d="M598,136 L503,136 C481.460895,136 464,118.539105 464,97.0000001 L464,84.0000001 L598.096672,81.5000001" id="h5"></path>
            <path d="M598,123 L503,123 C481.460895,123 464,105.539105 464,84.0000001 C464,62.4608949 481.460895,45.0000001 503,45.0000001 L598,45.0000001" id="h4"></path>
            <path d="M196.510709,19.4317308 C176.677323,19.4317308 163.84042,13.2577472 158,0.90978 C158,0.90978 202.666667,0.90978 292,0.90978 L425,0.90978 C415.393276,13.2577472 404.733577,19.4317308 393.020904,19.4317308 C381.30823,19.4317308 315.804832,19.4317308 196.510709,19.4317308 Z" id="h3"></path>
            <path d="M425,97.0000001 C425,118.539105 407.539105,136 386,136 L197,136 C175.460895,136 158,118.539105 158,97.0000001 L158,84.0000001 L425,81.5000001 L425,97.0000001 Z" id="h2"></path>
            <rect id="h1" x="158" y="45.0000001" width="267" height="78" rx="39"></rect>
        </g>
    </g>
</svg>