<?xml version="1.0" encoding="UTF-8"?>
<svg width="586px" height="265px" viewBox="0 0 586 265" version="1.1" xmlns="http://www.w3.org/2000/svg" xmlns:xlink="http://www.w3.org/1999/xlink">
    <title>TENSIONHONESTONE</title>
    <g id="Page-1" stroke="none" stroke-width="1" fill="none" fill-rule="evenodd">
        <g id="TENSIONHONESTONE" transform="translate(0.9958, 1)" fill="#FFFFFF" stroke="#000000">
            <path d="M477.004173,219.5 C439.004173,219.5 454.374228,262.91998 420.963578,262.91998 C387.552929,262.91998 179.035112,262.91998 138.004173,262.91998 C96.9732346,262.91998 129.053961,222.56128 61.0041733,222.56128 C61.0041733,222.56128 97.9485441,187.392302 106.062761,183.086862 C114.719936,178.493325 127.134303,177.094916 143.305862,178.891632 L451.430629,178.891632 C467.32897,198.606941 475.853485,212.143064 477.004173,219.5 Z" id="board"></path>
            <path d="M585.004173,27 L52.0101832,27 C40.7670085,43.7536561 29.0714486,54.4078438 16.9235035,58.9625631 C9.15351443,61.8758228 4.46030081,66.1551448 2.84386265,71.8005289 L0,151.344516 C-0.0586026294,198.822359 16.7206467,222.56128 50.3377479,222.56128 C100.7634,222.56128 100.7634,178.891632 143.305862,178.891632 C185.848324,178.891632 371.471658,178.891632 417.854463,178.891632 C464.237269,178.891632 436.503419,219.260095 489.161937,219.260095 C524.267615,219.260095 556.215028,219.260095 585.004173,219.260095" id="board"></path>
            <rect id="h8" x="138.504173" y="193.5" width="300" height="52" rx="18"></rect>
            <rect id="h7" x="138.504173" y="193.5" width="157" height="52" rx="18"></rect>
            <path d="M585.004173,197 L506.004173,197 C489.987916,197 477.004173,184.016258 477.004173,168 C477.004173,151.983742 489.987916,139 506.004173,139 L585.004173,139" id="h6"></path>
            <rect id="h5" x="122.504173" y="94.5" width="312" height="59" rx="18"></rect>
            <rect id="h4" x="122.504173" y="94.5" width="169" height="59" rx="18"></rect>
            <ellipse id="h3" cx="61.0041733" cy="140.5" rx="32.5" ry="46"></ellipse>
            <polyline id="h2" points="585.004173 27 304.834675 27 317.506596 -4.19664303e-14 585.004173 -4.26325641e-14"></polyline>
            <polygon id="h1" points="317.506596 0 304.834675 27 52.0101832 27 68.8386341 0"></polygon>
        </g>
    </g>
</svg>