<?xml version="1.0" encoding="UTF-8"?>
<svg width="1406px" height="820px" viewBox="0 0 1406 820" version="1.1" xmlns="http://www.w3.org/2000/svg" xmlns:xlink="http://www.w3.org/1999/xlink">
    <title>TOP30FINGERBOARD</title>
    <g id="Page-1" stroke="none" stroke-width="1" fill="none" fill-rule="evenodd">
        <g id="TOP30FINGERBOARD" transform="translate(703.463657, 409.581041) scale(-1, 1) translate(-703.463657, -409.581041) translate(1.000000, 0.000000)" fill="#FFFFFF" stroke="#000000">
            <path d="M0,139.594056 C857.229359,127.522397 1285.84404,121.486567 1285.84404,121.486567 C1365.23289,166.535556 1404.92731,236.597999 1404.92731,331.673896 C1404.92731,426.749793 1368.47553,468.957863 1295.57196,458.298107 C1267.98083,458.4574 1264.73818,472.145888 1285.84404,499.363571 C1317.50282,540.190095 1440.66047,747.81641 1350.39911,794.971627 C1260.13774,842.126843 1292.13475,804.970571 861.610943,809.650318 C574.595072,812.77015 287.391424,812.77015 0,809.650318" id="board"></path>
            <rect id="h5" x="956.5" y="310.5" width="372" height="108" rx="54"></rect>
            <rect id="h7" x="543.5" y="310.5" width="372" height="108" rx="54"></rect>
            <rect id="h8" x="130.5" y="310.5" width="372" height="108" rx="54"></rect>
            <rect id="h13" x="179.5" y="450.5" width="202" height="108" rx="54"></rect>
            <rect id="h15" x="153.5" y="618.5" width="202" height="108" rx="54"></rect>
            <rect id="h14" x="422.5" y="590.5" width="301" height="108" rx="54"></rect>
            <path d="M936,483 C950.911688,483 964.411688,489.044156 974.183766,498.816234 C983.955844,508.588312 990,522.088312 990,537 L990,604.5 L1046.5,604.5 C1061.41169,604.5 1074.91169,610.544156 1084.68377,620.316234 C1094.45584,630.088312 1100.5,643.588312 1100.5,658.5 C1100.5,673.411688 1094.45584,686.911688 1084.68377,696.683766 C1074.91169,706.455844 1061.41169,712.5 1046.5,712.5 L805.5,712.5 C790.588312,712.5 777.088312,706.455844 767.316234,696.683766 C757.544156,686.911688 751.5,673.411688 751.5,658.5 C751.5,643.588312 757.544156,630.088312 767.316234,620.316234 C777.088312,610.544156 790.588312,604.5 805.5,604.5 L882,604.5 L882,537 C882,522.088312 888.044156,508.588312 897.816234,498.816234 C907.588312,489.044156 921.088312,483 936,483 Z" id="h10"></path>
            <rect id="h12" x="422.5" y="450.5" width="301" height="108" rx="54"></rect>
            <rect id="h9" transform="translate(1198.000000, 596.500000) rotate(55.000000) translate(-1198.000000, -596.500000) " x="1047.5" y="542.5" width="301" height="108" rx="54"></rect>
            <rect id="h11" x="748.5" y="450.5" width="108" height="108" rx="54"></rect>
            <rect id="h6" x="902.5" y="193.5" width="108" height="108" rx="54"></rect>
            <path d="M153.084573,285.957981 L493.667732,228.594138 L464.430019,121.486567 C461.044177,107.828856 450.303201,101 432.207091,101 C414.110981,101 340.85288,101 212.432787,101 C172.867311,104.139706 153.084573,121.54628 153.084573,153.219721 C153.084573,184.893162 153.084573,229.139249 153.084573,285.957981 Z" id="h3"></path>
            <circle id="h2" cx="729" cy="151" r="150.5"></circle>
            <path d="M1041.83118,141.725967 C1034.44783,64.1175579 1069.91257,25.3133533 1148.22537,25.3133533 C1265.69458,25.3133533 1397.00882,122.871529 1397.00882,219.134161 C1397.00882,315.396793 1313.06797,302.405304 1219.34193,299.473187 C1125.61589,296.54107 1041.67504,283.008559 1041.67504,231.872432 C1041.67504,197.781681 1041.72708,167.732859 1041.83118,141.725967 Z" id="h1"></path>
        </g>
    </g>
</svg>