<?xml version="1.0" encoding="UTF-8"?>
<svg width="305px" height="207px" viewBox="0 0 325 207" version="1.1" xmlns="http://www.w3.org/2000/svg" xmlns:xlink="http://www.w3.org/1999/xlink">
    <title>TRANGOROCK</title>
    <g id="Page-1" stroke="none" stroke-width="1" fill="none" fill-rule="evenodd">
        <g id="TRANGO" transform="translate(-15.000000, -29.000000)" fill="#FFFFFF">
            <g id="TRANGOROCK" transform="translate(187.000000, 133.000000) scale(-1, 1) translate(-187.000000, -133.000000) translate(14.000000, 30.000000)">
                <g id="hangboard" transform="translate(41.035242, 0.000000)" stroke="#000000">
                    <path d="M1.42108547e-14,7.10542736e-14 L1.42108547e-14,109.403478 C2.21245182,122.871639 8.33157308,129.60572 18.3573638,129.60572 C28.3831545,129.60572 36.6697068,129.60572 43.2170206,129.60572 L44.3524358,185.277818 C47.0155906,198.635038 56.4326107,205.313649 72.6034963,205.313649 C88.7743818,205.313649 111.775569,205.313649 141.607058,205.313649 C151.961847,205.731771 157.139242,201.183955 157.139242,191.670202 C157.139242,182.156449 157.139242,175.276666 157.139242,171.030855 L170.520815,171.030855 C180.961688,168.945176 186.182125,163.497757 186.182125,154.688599 C186.182125,145.87944 186.182125,137.51848 186.182125,129.60572 C187.339803,129.071234 187.918642,127.790489 187.918642,125.763485 C187.918642,123.736481 187.918642,113.392894 187.918642,94.7327235 L258.426444,123.044706 C264.153488,123.708376 267.53945,121.600756 268.584329,116.721845 C270.151647,109.403478 265.376966,113.162138 268.584329,105.043522 C276.4263,108.507635 282.287974,105.043522 284.289422,100.355921 C285.62372,97.2308541 291.482859,79.2757712 301.866837,46.4906724 C303.800259,42.2182354 302.567628,39.3295946 298.168945,37.8247501 C293.770263,36.3199056 272.96248,28.6694575 235.745597,14.8734059 C233.091347,13.9681325 230.120963,14.4730344 226.834443,16.3881118 C223.424486,14.8734059 201.843434,5.20902028 186.182125,5.20902028 C175.741252,5.20902028 145.959483,5.20902028 96.8368194,5.20902028 C95.5411103,1.73634009 94.0828809,7.10542736e-14 92.4621313,7.10542736e-14 C90.8413817,7.10542736e-14 60.0206713,7.10542736e-14 1.42108547e-14,7.10542736e-14 Z" id="Path-12"></path>
                    <path d="M43.2170206,129.60572 L44.3524358,185.277818 C47.0155906,198.635038 56.4326107,205.313649 72.6034963,205.313649 C88.7743818,205.313649 111.775569,205.313649 141.607058,205.313649 C151.961847,205.731771 157.139242,201.183955 157.139242,191.670202 C157.139242,182.156449 157.139242,175.276666 157.139242,171.030855 L170.520815,171.030855 C180.961688,168.945176 186.182125,163.497757 186.182125,154.688599 C186.182125,145.87944 186.182125,137.51848 186.182125,129.60572 L43.2170206,129.60572 Z" id="Path"></path>
                    <path d="M44.3524358,185.277818 C47.0155906,198.635038 56.4326107,205.313649 72.6034963,205.313649 C88.7743818,205.313649 111.775569,205.313649 141.607058,205.313649 C151.961847,205.731771 157.139242,201.183955 157.139242,191.670202 C157.139242,182.156449 157.139242,175.276666 157.139242,171.030855 L44.3524358,171.030855 L44.3524358,185.277818 Z" id="Path"></path>
                </g>
                <g id="holds" transform="translate(41.035242, 0.000000)" stroke="#000000">
                    <path d="M136.496206,176.266501 C142.791522,176.266501 147.894884,180.674521 147.894884,186.112089 C147.894884,191.549658 142.791522,195.957678 136.496206,195.957678 C132.915143,195.957678 129.71978,194.531307 127.630088,192.300443 C125.959504,194.531136 123.403078,195.957678 120.538056,195.957678 C115.501803,195.957678 111.419113,191.549658 111.419113,186.112089 C111.419113,180.674521 115.501803,176.266501 120.538056,176.266501 C123.403076,176.266501 125.9595,177.693041 127.631248,179.924134 C129.720034,177.692757 132.915286,176.266501 136.496206,176.266501 Z" id="h12"></path>
                    <path d="M61.6890652,177.785275 L91.2430433,177.776634 C94.8328929,177.771778 97.7438928,180.681076 97.7449424,184.270927 C97.7449428,184.272196 97.7449428,184.273465 97.7411362,184.274733 L97.7391732,190.966415 C97.7343121,194.554778 94.8256295,197.463458 91.2372667,197.468316 L61.6832886,197.476957 C58.093439,197.481812 55.1824391,194.572514 55.1813895,190.982664 C55.1813891,190.981394 55.1813891,190.980125 55.1851957,190.978857 L55.1871587,184.287175 C55.1920198,180.698812 58.1007024,177.790132 61.6890652,177.785275 Z" id="h11" transform="translate(76.463166, 187.626795) rotate(5.000000) translate(-76.463166, -187.626795) "></path>
                    <path d="M158.533651,139.91356 C163.569904,139.91356 167.652593,144.32158 167.652593,149.759148 C167.652593,155.196716 163.569904,159.604736 158.533651,159.604736 C155.361496,159.604736 152.567648,157.855949 150.934027,155.202603 C149.301415,157.855949 146.507567,159.604736 143.335413,159.604736 C140.611725,159.604736 138.166937,158.315469 136.496013,156.271337 C134.825474,158.315469 132.380686,159.604736 129.656999,159.604736 C124.620746,159.604736 120.538056,155.196716 120.538056,149.759148 C120.538056,144.32158 124.620746,139.91356 129.656999,139.91356 C132.380524,139.91356 134.825183,141.202674 136.4961,143.246595 C138.167228,141.202674 140.611887,139.91356 143.335413,139.91356 C146.507567,139.91356 149.301415,141.662348 150.935036,144.315693 C152.567648,141.662348 155.361496,139.91356 158.533651,139.91356 Z" id="h10"></path>
                    <path d="M61.7385529,140.310218 L91.2922015,140.301577 C94.8820511,140.296721 97.793051,143.206019 97.7941006,146.79587 C97.794101,146.797139 97.794101,146.798408 97.7902944,146.799676 L97.7883314,153.491358 C97.7834703,157.079721 94.8747877,159.988401 91.2864249,159.993259 L61.7327763,160.001899 C58.1429267,160.006755 55.2319268,157.097457 55.2308772,153.507606 C55.2308768,153.506337 55.2308768,153.505068 55.2346834,153.5038 L55.2366464,146.812118 C55.2415075,143.223755 58.1501901,140.315075 61.7385529,140.310218 Z" id="h9" transform="translate(76.512489, 150.151738) rotate(5.000000) translate(-76.512489, -150.151738) "></path>
                    <rect id="h8" x="88.6217563" y="106.59003" width="69.9118943" height="16.6617647"></rect>
                    <path d="M17.7966825,96.3805693 L73.1870042,96.3643742 C76.7768538,96.3595184 79.6878536,99.2688165 79.6889032,102.858667 C79.6889036,102.859936 79.6889036,102.861205 79.6850971,102.862473 L79.683134,109.554156 C79.678273,113.142519 76.7695904,116.051198 73.1812275,116.056056 L17.7909059,116.072251 C14.2010563,116.077107 11.2900564,113.167809 11.2890068,109.577958 C11.2890064,109.576689 11.2890064,109.57542 11.292813,109.574152 L11.294776,102.88247 C11.2996371,99.2941067 14.2083197,96.3854269 17.7966825,96.3805693 Z" id="h7" transform="translate(45.488955, 106.218313) rotate(5.000000) translate(-45.488955, -106.218313) "></path>
                    <path d="M19.1355542,73.2883432 L170.272325,73.2441535 C173.862175,73.2392977 176.773175,76.1485959 176.774224,79.7384466 C176.774225,79.7397157 176.774225,79.7409848 176.770418,79.7422528 L176.768455,86.4339352 C176.763594,90.022298 173.854911,92.9309778 170.266549,92.9358354 L19.1297776,92.980025 C15.5399279,92.9848808 12.6289281,90.0755827 12.6278785,86.485732 C12.6278781,86.4844629 12.6278781,86.4831938 12.6316846,86.4819258 L12.6336477,79.7902434 C12.6385087,76.2018805 15.5471913,73.2932007 19.1355542,73.2883432 Z" id="h6" transform="translate(94.701051, 83.112089) rotate(5.000000) translate(-94.701051, -83.112089) "></path>
                    <path d="M20.6568114,42.9942875 L171.792146,42.9500984 C175.381996,42.9452427 178.292996,45.8545408 178.294045,49.4443915 C178.294046,49.4456606 178.294046,49.4469297 178.290239,49.4481977 L178.288276,56.1398801 C178.283415,59.728243 175.374733,62.6369227 171.78637,62.6417803 L20.6510347,62.6859694 C17.0611851,62.6908251 14.1501852,59.781527 14.1491356,56.1916763 C14.1491353,56.1904072 14.1491353,56.1891381 14.1529418,56.1878701 L14.1549049,49.4961877 C14.1597659,45.9078248 17.0684485,42.9991451 20.6568114,42.9942875 Z" id="h5" transform="translate(96.221591, 52.818034) rotate(5.000000) translate(-96.221591, -52.818034) "></path>
                    <path d="M213.295172,50.7032632 C210.515235,47.5541591 208.522322,47.2061145 207.316432,49.6591294 C206.110542,52.1121443 199.644612,67.1366757 187.918642,94.7327235 L258.426444,123.044706 C264.018302,123.717498 267.404264,121.609878 268.584329,116.721845 C270.354426,109.389796 266.562102,111.104194 267.573215,108.073858 C268.247291,106.053634 268.584329,105.043522 268.584329,105.043522 L208.909724,78.373826 C205.691972,76.1105191 204.887534,73.0477636 206.49641,69.1855594 C208.105286,65.3233553 210.37154,59.1625899 213.295172,50.7032632 Z" id="h4"></path>
                    <path d="M226.735001,16.5523035 L213.566044,50.8054728 L206.618857,68.8754811 C204.700277,73.3954384 205.266006,76.4519689 208.316043,78.0450727 C211.36608,79.6381764 231.455508,88.6376594 268.584329,105.043522 C276.609414,108.866773 282.881161,105.322845 287.399569,94.411736 C291.917977,83.5006271 297.035572,66.5674283 302.752353,43.6121395 C303.796611,41.1719444 302.268809,39.2428146 298.168945,37.8247501 C292.019151,35.6976534 240.050258,16.1552989 235.745597,14.8734059 C232.875823,14.0188106 229.872291,14.5784431 226.735001,16.5523035 Z" id="h3"></path>
                    <path d="M224.760454,15.9214226 L96.8368194,14.4860922 L96.8368194,5.20902028 C148.707238,5.20902028 179.067845,5.20902028 187.918642,5.20902028 C196.769439,5.20902028 209.050043,8.77982106 224.760454,15.9214226 Z" id="h2"></path>
                    <path d="M96.8368194,5.20902028 C96.8368194,7.28015376 96.8368194,15.5683857 96.8368194,30.0737161 C95.9596555,32.0943101 93.9844288,33.1046071 90.9111393,33.1046071 C87.8378498,33.1046071 57.5341367,32.7298752 0,31.9804113 L0,5.32907052e-14 L92.4621313,5.32907052e-14 C95.3785901,1.4015467 96.8368194,3.1378868 96.8368194,5.20902028 Z" id="h1"></path>
                </g>
                <rect id="Rectangle" fill-opacity="0" x="0.471976528" y="52.0606187" width="41.0352423" height="3.02941176"></rect>
            </g>
        </g>
    </g>
</svg>
