<?xml version="1.0" encoding="UTF-8"?>
<svg width="596px" height="406px" viewBox="0 0 596 406" version="1.1" xmlns="http://www.w3.org/2000/svg" xmlns:xlink="http://www.w3.org/1999/xlink">
    <title>TREEMERSTREESMIL</title>
    <g id="Page-1" stroke="none" stroke-width="1" fill="none" fill-rule="evenodd">
        <g id="TREEMERSTREESMIL" transform="translate(2, 1.0022)" fill="#FFFFFF" stroke="#000000">
            <path d="M593.836975,403.997816 C590.972035,403.997816 574.307452,403.997816 543.843224,403.997816 C498.146883,403.997816 479.301957,376.323987 475.920362,367.248 C472.980988,359.358908 467.009752,351.820743 457.928971,351.820743 C448.84819,351.820743 440.857168,359.358908 437.905672,367.248 C429.634123,391.208182 388.3091,403.997816 386.321662,403.997816 C303.81259,403.997816 202.872036,403.997816 83.5,403.997816 C42.9070709,403.997816 10,371.090745 10,330.497816 L10,273.122251 L593.836975,273.122251" id="board"></path>
            <path d="M593.836975,291.997816 L38,291.997816 C19.7746033,291.997816 5,277.223213 5,258.997816 L5,147.057461 L593.836975,147.057461" id="board"></path>
            <path d="M593.836975,170.997816 L33,170.997816 C14.7746033,170.997816 0,156.223213 0,137.997816 L0,33.5301737 L198.312215,33.5301737 L198.312215,57.7961731 L393.276549,57.7961731 L393.276549,33.5301737 L593.836975,33.5301737" id="board"></path>
            <path d="M593.836975,362.997816 L530,362.997816 C516.192881,362.997816 505,351.804935 505,337.997816 C505,324.190697 516.192881,312.997816 530,312.997816 L593.836975,312.997816" id="h14"></path>
            <rect id="h13" x="48.5" y="313.497816" width="354" height="49" rx="24.5"></rect>
            <rect id="h12" x="48.5" y="313.497816" width="180" height="49" rx="24.5"></rect>
            <path d="M593.836975,248.997816 L500,248.997816 C486.192881,248.997816 475,237.804935 475,223.997816 C475,210.190697 486.192881,198.997816 500,198.997816 L593.836975,198.997816" id="h11"></path>
            <rect id="h10" x="288.5" y="199.497816" width="168" height="49" rx="24.5"></rect>
            <rect id="h9" x="220.5" y="199.497816" width="49" height="49" rx="24.5"></rect>
            <rect id="h8" x="21.5" y="199.497816" width="180" height="49" rx="24.5"></rect>
            <path d="M593.836975,131.997816 L531,131.997816 C517.192881,131.997816 506,120.804935 506,106.997816 C506,93.190697 517.192881,81.9978158 531,81.9978158 L593.836975,81.9978158" id="h7"></path>
            <rect id="h6" x="393.5" y="82.4978158" width="93" height="49" rx="24.5"></rect>
            <rect id="h5" x="226.5" y="82.4978158" width="260" height="49" rx="24.5"></rect>
            <rect id="h4" x="26.5" y="82.4978158" width="180" height="49" rx="24.5"></rect>
            <polyline id="h3" points="593.836975 33.5301737 393.276549 33.5301737 393.276549 -7.44519418e-15 593.836975 0"></polyline>
            <polygon id="h2" points="198.312215 57.7961731 393.276549 57.7961731 393.276549 -2.05333255e-13 223.837172 1.43789737"></polygon>
            <polygon id="side" points="222.380418 4.18246822 198.312215 56.0878525 198.312215 33.5301737"></polygon>
            <path d="M198.312215,33.5301737 L1.98951966e-13,33.5301737 L34.7363911,7.04692797 C40.7306256,3.30757424 50.262616,1.43789737 63.3323623,1.43789737 C76.4021087,1.43789737 129.903712,1.43789737 223.837172,1.43789737 L198.312215,33.5301737 Z" id="h1"></path>
        </g>
    </g>
</svg>