<?xml version="1.0" encoding="UTF-8"?>
<svg width="1331px" height="653px" viewBox="0 0 1331 653" version="1.1" xmlns="http://www.w3.org/2000/svg" xmlns:xlink="http://www.w3.org/1999/xlink">
    <title>TRENIRAJZNARAVOFINGERBOARD</title>
    <g id="Page-1" stroke="none" stroke-width="1" fill="none" fill-rule="evenodd">
        <g id="TRENIRAJZNARAVOFINGERBOARD" transform="translate(0.820225, 1.000000)" fill="#FFFFFF" stroke="#000000">
            <path d="M1330.17978,651 L370.179775,651 C123.513109,657.666667 0.179775281,538 0.179775281,292 C0.179775281,292 443.513109,292 1330.17978,292" id="board"></path>
            <path d="M1330.17978,292 L0.179775281,292 C0.179775281,424 26.1797753,490 78.1797753,490 C130.179775,490 547.513109,490 1330.17978,490" id="board"></path>
            <path d="M1330.17978,345 C544.846442,345 126.846442,345 76.1797753,345 C25.5131086,345 0.179775281,326.333333 0.179775281,289 L0.179775281,169 C-2.48689139,57 24.5131086,1 81.1797753,1 C137.846442,1 1116.84644,0 1330.17978,0" id="board"></path>
            <rect id="h16" x="970.679775" y="535.5" width="289" height="76" rx="38"></rect>
            <rect id="h15" x="691.679775" y="535.5" width="184" height="76" rx="38"></rect>
            <rect id="h14" x="257.679775" y="535.5" width="339" height="76" rx="38"></rect>
            <path d="M1330.17978,462 L1190.67978,462 C1169.41681,462 1152.17978,444.762963 1152.17978,423.5 C1152.17978,402.237037 1169.41681,385 1190.67978,385 L1330.17978,385" id="h13"></path>
            <rect id="h12" x="821.679775" y="384.5" width="236" height="76" rx="38"></rect>
            <rect id="h11" x="428.679775" y="384.5" width="298" height="76" rx="38"></rect>
            <rect id="h10" x="149.679775" y="384.5" width="184" height="76" rx="38"></rect>
            <rect id="h9" x="1025.67978" y="234.5" width="253" height="76" rx="38"></rect>
            <rect id="h8" x="692.679775" y="234.5" width="235" height="76" rx="38"></rect>
            <rect id="h7" x="503.679775" y="230.5" width="93" height="76" rx="38"></rect>
            <rect id="h6" x="76.6797753" y="230.5" width="327" height="76" rx="38"></rect>
            <path d="M1330.17978,160 L1255.67978,160 C1234.41681,160 1217.17978,142.762963 1217.17978,121.5 C1217.17978,100.237037 1234.41681,83 1255.67978,83 L1330.17978,83" id="h5"></path>
            <rect id="h4" x="992.679775" y="83.5" width="130" height="76" rx="38"></rect>
            <polyline id="h3" points="1330.17978 48 951.179775 48 951.179775 1 1330.17978 -9.14235354e-12"></polyline>
            <path d="M487.179775,1 L487.179775,112 L904.179775,112 C935.513109,112 951.179775,92.3333333 951.179775,53 C951.179775,13.6666667 951.179775,-3.66666667 951.179775,1 L487.179775,1 Z" id="h2"></path>
            <path d="M487.179775,1 L487.179775,112 C487.179775,153.333333 469.513109,174 434.179775,174 C398.846442,174 254.179775,174 0.179775281,174 C-2.48689139,58.6666667 24.5131086,1 81.1797753,1 C137.846442,1 273.179775,1 487.179775,1 Z" id="h1"></path>
        </g>
    </g>
</svg>