<?xml version="1.0" encoding="UTF-8"?>
<svg width="592px" height="592px" viewBox="0 0 592 592" version="1.1" xmlns="http://www.w3.org/2000/svg" xmlns:xlink="http://www.w3.org/1999/xlink">
    <title>TRIPOINTMCFAT</title>
    <g id="Page-1" stroke="none" stroke-width="1" fill="none" fill-rule="evenodd">
        <g id="TRIPOINTMCFAT" transform="translate(1.000000, 1.000000)" fill="#FFFFFF" fill-rule="nonzero" stroke="#000000">
            <path d="M590,59.8827184 L307.939027,59.8827184 L305.841188,72.0730961 C297.770124,74.9302562 280.264685,75.6445462 253.32487,74.2159661 C226.385054,72.7873861 143.813311,206.531194 5.60963824,475.44739 C9.41294981,504.78991 19.9054286,526.249103 37.0870747,539.82497 C62.8595438,560.188771 203.791188,565.69943 277,565.69943 C325.805875,565.69943 430.139208,567.433725 590,570.902315" id="board"></path>
            <path d="M342.078849,59.8827184 L313,49.819207 L304.940322,79.3713248 C302.062763,116.91292 296.385542,143.477484 287.90866,159.065017 C279.431777,174.652549 247.75312,214.153704 192.872689,277.568482 C243.541812,268.114027 286.063644,269.681485 320.438186,282.270855 C372,301.154911 379.103937,310.293142 416.232995,310.293142 C431.790778,310.293142 396.846972,312.035802 374.631435,293.446825 C365.878255,286.122551 359.069354,260.307059 354.204734,216.000349 C345.769194,161.990848 350.563081,128.395138 368.586395,115.213221 C386.609708,102.031303 377.773859,83.5878024 342.078849,59.8827184 Z" id="background"></path>
            <rect id="h11" x="131" y="463" width="364" height="62" rx="31"></rect>
            <rect id="h10" x="131" y="360" width="401" height="48" rx="24"></rect>
            <path d="M590,333.005862 C515.165416,333.005862 454,390.53141 454,461.5 C454,532.468591 515.165416,590.005862 590,590.005862" id="background"></path>
            <path d="M590,494 C526.836627,493.904008 484.743517,499.046676 463.720669,509.428006 C487.899467,561.077738 532.325911,587.940931 590,590.005862" id="h15"></path>
            <path d="M590,438.623141 C518.228341,437.316454 473.060379,441.77134 454.496113,451.987797 C454.496113,451.987797 455.082342,447.532912 456.2548,438.623141 C475.512207,425.868095 520.093941,419.907507 590,420.741377" id="h14"></path>
            <path d="M590,380.685744 C526.561717,379.853319 487.92175,384.654237 474.0801,395.088498 C483.372843,380.685744 512.252476,335.855888 590,333.005862" id="h13"></path>
            <path d="M590,255.638285 L565.709444,255.638285 C525.258366,272.496153 500.20344,281.97866 490.544665,284.085807 C476.056502,287.246528 442.703846,299.95291 397.066733,286.871239 C351.42962,273.789568 361.156406,227.597426 351.42962,192.282882 C351.42962,232.784852 347.875007,289.5 375.008858,302.169221 C402.142709,314.838442 451.332488,310.529877 488.613801,306.39489 C513.46801,303.638233 539.166558,302.229676 565.709444,302.169221 L589.206346,283.096353 L590,283.096353" id="h8"></path>
            <circle id="h7" cx="300.5" cy="217.5" r="27.5"></circle>
            <path d="M590,44.1008927 C575.187407,44.1008927 552.63975,40.9068365 531.719065,29.7936184 C510.798381,18.6804002 461.653132,-2.11231881 415.907293,0.693307258 C370.161454,3.49893333 326.177927,14.5322367 314.565332,39.688975 C302.952737,64.8457133 302.758575,93.1420371 311.180874,105.911202 C319.603172,118.680367 395.274132,114.248368 444.534423,114.248368 C493.794715,114.248368 489.148916,107.853932 510.490529,94.5441363 C531.832141,81.2343411 548.698504,82.5184019 567.386401,82.5184019 C579.844999,82.5184019 587.382866,82.5184019 590,82.5184019" id="h3"></path>
            <path d="M351.428989,187.082402 C360.290121,220.909314 376.597546,240.215181 400.351895,245 C435.983419,252.17723 492.879758,254.737384 522.077932,254.737384 C541.543382,254.737384 556.087219,255.037684 565.709444,255.638285 L544.176776,264.514472 C473.713626,262.141294 433.769367,260.483788 424.343999,259.541955 C410.205947,258.129206 363.42099,258.719787 357.394323,229.841783 C353.376545,210.589781 351.388311,196.336654 351.428989,187.082402 Z" id="h6"></path>
            <path d="M590,143.149536 L561.563271,143.149536 C526.931274,142.30221 499.219694,140.964923 478.428533,139.137674 C457.637371,137.310425 438.842626,136.852214 422.044296,137.76304 C394.086197,139.171669 374.460981,145.028555 363.168646,155.333695 C351.876311,165.638836 347.963517,176.221738 351.430264,187.082402 C364.794461,165.916598 388.332472,155.333695 422.044296,155.333695 C455.756121,155.333695 511.741355,155.333695 590,155.333695" id="h5"></path>
            <rect id="h4" x="372" y="39.0000004" width="124" height="62" rx="31"></rect>
            <circle id="h1" cx="138.5" cy="151" r="138.5"></circle>
            <ellipse id="h2" cx="113.5" cy="102" rx="54.5" ry="31"></ellipse>
            <path d="M273.143947,180.056174 C251.511292,205.414489 222.412471,224.615639 185.847482,237.659622 C131,257.225597 83.9562733,278.203784 67.9037447,296.141133 C51.8512162,314.078482 15.8793409,353.562948 10.5193,397.757812 C5.15925899,441.952676 -4.37653388,503.752601 25.0834238,507.630947 C54.5433814,511.509293 66.2788214,509.37895 76.8402058,498.601171 C87.4015901,487.823391 113.5,442.341847 113.5,408 C113.5,373.658154 114.359479,331.086283 131,310.293142 C147.640521,289.5 185.360203,289.180484 213.024952,267.740711 C223.496858,259.625139 231.467262,252.662664 246.998037,237.659622 C257.789883,227.234481 266.505186,208.033331 273.143947,180.056174 Z" id="h9"></path>
        </g>
    </g>
</svg>