<?xml version="1.0" encoding="UTF-8"?>
<svg width="579px" height="268px" viewBox="0 0 579 268" version="1.1" xmlns="http://www.w3.org/2000/svg" xmlns:xlink="http://www.w3.org/1999/xlink">
    <title>TWALLTBONE</title>
    <g id="Page-1" stroke="none" stroke-width="1" fill="none" fill-rule="evenodd">
        <g id="TWALLTBONE" transform="translate(0.7172, 1.0662)" fill="#FFFFFF" fill-rule="nonzero">
            <path d="M578.282761,4.02281534 C518.375926,4.02281534 401.738191,42.516871 323.208958,42.516871 C286.612029,42.516871 259.05399,33.282914 231.220872,23.4215901 C199.330032,12.1226078 167.07806,0 120.454669,0 C33.1401469,0 0,27.4768065 0,93.9337624 C0,160.390718 30.7533491,247.967563 124.253349,247.967563 C217.753349,247.967563 213.497116,205.745753 311.033349,205.745753 C408.569581,205.745753 500.628026,266.046801 578.282761,266.046801" id="board" stroke="#000000"></path>
            <circle id="screw" stroke="#000000" cx="414.282761" cy="129.933762" r="11.5"></circle>
            <circle id="screw" stroke="#000000" cx="24.2827608" cy="76.9337624" r="11.5"></circle>
            <circle id="screw" stroke="#000000" cx="219.282761" cy="78.9337624" r="21.5"></circle>
            <path d="M414.282761,223.410216 C430.125225,224.344003 434.953528,219.014662 428.767671,207.422192 C419.488886,190.033488 390.621302,181.621607 383.012705,179.907441 C375.404109,178.193275 302.744692,176.208174 269.694621,176.208174 C236.64455,176.208174 233.882178,178.800241 226.519801,183.604511 C219.157425,188.408781 238.096933,213.000754 269.694621,209.252579 C301.292309,205.504404 297.873955,205.707009 315.966274,205.605707 C328.02782,205.538172 360.799983,211.473008 414.282761,223.410216 Z" id="h7" stroke="#000000"></path>
            <path d="M578.282761,155.933762 L511.282761,155.933762 C494.161934,155.933762 480.282761,142.05459 480.282761,124.933762 C480.282761,107.812935 494.161934,93.9337624 511.282761,93.9337624 L578.282761,93.9337624" id="h6" stroke="#000000"></path>
            <rect id="h5" stroke="#000000" x="263.782761" y="93.4337624" width="106.470588" height="62" rx="31"></rect>
            <rect id="h4" stroke="#000000" x="31.2533491" y="94.4337624" width="186" height="62" rx="31"></rect>
            <path d="M578.282761,5.02281534 C542.735473,5.02281534 487.213504,18.5763902 431.53117,29.5988034 C431.53117,29.5988034 431.53117,42.509251 431.53117,68.330146 L578.282761,68.330146" id="h3" stroke="#FFFFFF"></path>
            <path d="M230.846639,23.2964647 C242.421096,52.6522522 263.108862,67.330146 292.909937,67.330146 C322.711012,67.330146 356.920503,66.3876967 395.53841,64.502798 C401.320728,63.9160087 408.253918,61.3929968 416.337982,56.9337624 C428.464079,50.2449108 431.53117,42.516871 431.53117,28.5988034 C431.53117,28.5988034 363.247559,42.516871 323.208958,42.516871 C296.516557,42.516871 265.729117,36.1100689 230.846639,23.2964647 Z" id="h2" stroke="#000000"></path>
            <path d="M231.341259,54.6112859 C231.341259,34.9436148 231.341259,25.1097793 231.341259,25.1097793 C199.735837,13.9007478 167.649455,2 121.454669,2 C55.4742224,2 20.4288706,17.6900307 7.24222881,54.0338475 C7.24222881,54.4188064 81.9419057,54.6112859 231.341259,54.6112859 Z" id="h1" stroke="#FFFFFF"></path>
        </g>
    </g>
</svg>