<?xml version="1.0" encoding="UTF-8"?>
<svg width="590px" height="217px" viewBox="0 0 590 217" version="1.1" xmlns="http://www.w3.org/2000/svg" xmlns:xlink="http://www.w3.org/1999/xlink">
    <title>TWALLCRANK</title>
    <g id="Page-1" stroke="none" stroke-width="1" fill="none" fill-rule="evenodd">
        <g id="TWALLCRANK" transform="translate(295.5, 108.6785) scale(1, -1) translate(-295.5, -108.6785)translate(1, 1)" fill="#FFFFFF" fill-rule="nonzero">
            <path d="M589.000094,188.695568 C561.423421,188.695568 530.322248,188.695568 495.696575,188.695568 C465.0525,188.695568 491.513935,152.546728 433.791776,152.546728 C419.893535,152.546728 361.170451,152.546728 257.622525,152.546728 C247.693982,152.54672 238.113335,148.889433 230.71039,142.273364 C223.307438,135.657289 213.726784,132 203.798233,132 L8.0000945,132 C3.5818165,132 9.44964817e-05,128.418278 9.44964817e-05,124 L9.44964817e-05,8 C9.44964817e-05,3.581722 3.5818165,0 8.0000945,0 L230.125133,0 L230.125133,0 L233.661617,0 C236.893815,0 239.808471,1.94497827 241.048968,4.92965114 L245.15145,14.8003444 C247.942568,21.5158583 254.500544,25.8920594 261.77299,25.8920594 L466.665262,25.8920594 C472.03237,25.8920594 477.192376,27.9636095 481.06956,31.6748488 C484.944069,35.3835275 490.110387,37.4378539 495.473676,37.402478 L589.000094,36.7855832 L589.000094,36.7855832" id="Path" stroke="#000000"></path>
            <rect id="h2" x="256.000094" y="30" width="203" height="18"></rect>
            <rect id="h1" x="29.0000945" y="4" width="195" height="18"></rect>
            <rect id="h3" x="503.000094" y="43" width="86" height="33"></rect>
            <rect id="h6" stroke="#000000" x="256.000094" y="54" width="203" height="65" rx="24"></rect>
            <rect id="h7" stroke="#000000" x="256.000094" y="68" width="203" height="51" rx="24"></rect>
            <path d="M285.000094,114 C296.045789,114 305.000094,105.045695 305.000094,94 C305.000094,82.954305 296.045789,74 285.000094,74 C273.9544,74 265.000094,82.954305 265.000094,94 C265.000094,105.045695 273.9544,114 285.000094,114 Z M430.000094,114 C441.045789,114 450.000094,105.045695 450.000094,94 C450.000094,82.954305 441.045789,74 430.000094,74 C418.9544,74 410.000094,82.954305 410.000094,94 C410.000094,105.045695 418.9544,114 430.000094,114 Z M376.000094,74 C387.045789,74 396.000094,82.954305 396.000094,94 C396.000094,105.045695 387.045789,114 376.000094,114 C367.649472,114 360.494177,108.882198 357.499626,101.612013 C354.506012,108.882198 347.350717,114 339.000094,114 C327.9544,114 319.000094,105.045695 319.000094,94 C319.000094,82.954305 327.9544,74 339.000094,74 C347.350717,74 354.506012,79.1178017 357.500563,86.3879867 C360.494177,79.1178017 367.649472,74 376.000094,74 Z" id="h8" stroke="#000000"></path>
            <rect id="h4" stroke="#000000" x="29.0000945" y="28" width="195" height="81" rx="24"></rect>
            <rect id="h5" stroke="#000000" x="29.0000945" y="54" width="195" height="55" rx="24"></rect>
            <path d="M589.000094,157 L537.000094,157 C517.670128,157 502.000094,141.329966 502.000094,122 C502.000094,102.670034 517.670128,87 537.000094,87 L589.000094,87" id="h9" stroke="#000000"></path>
            <path d="M589.000094,215 L492.206218,215 C487.898386,206.607356 484.915402,200.227438 483.257267,195.860246 C481.685633,191.72088 479.823963,185.340962 477.672256,176.720492 C481.783421,184.703876 487.158556,188.695568 493.797663,188.695568 C500.43677,188.695568 532.170914,188.695568 589.000094,188.695568" id="h12" stroke="#000000"></path>
            <path d="M492.206218,215 L242.80168,215 C240.09373,216.865159 237.579394,211.420573 235.258671,198.666243 C232.937949,185.911913 230.957053,166.651406 229.315985,140.884723 C225.856399,138.574663 225.270585,138.208324 227.558544,139.785707 C230.28611,141.666167 234.084827,144.904802 238.170758,147.80031 C244.601547,152.357511 258.517395,152.414564 263.386823,152.414564 C266.633108,152.414564 326.162932,152.414564 441.976295,152.414564 C462.547731,154.291897 474.446385,162.393873 477.672256,176.720492 C480.898127,191.047111 485.742781,203.806947 492.206218,215 Z" id="h11" stroke="#000000"></path>
            <path d="M229.315985,140.884723 C221.279872,134.017715 210.037314,131.098987 195.588309,132.128538 C195.588309,132.128538 133.185036,132.128538 8.37848795,132.128538 C2.79282932,131.158437 -1.42108547e-14,128.396291 -1.42108547e-14,123.842102 C-1.42108547e-14,119.287913 -1.42108547e-14,139.834527 -1.42108547e-14,185.481945 C0.0966276416,205.161153 9.97856058,215.000758 29.6457988,215.000758 C49.313037,215.000758 120.365314,215.000758 242.802629,215.000758 C239.80946,214.696033 237.110893,207.937761 234.706928,194.725941 C232.302962,181.514121 230.505981,163.567048 229.315985,140.884723 Z" id="h10" stroke="#000000"></path>
        </g>
    </g>
</svg>