<?xml version="1.0" encoding="UTF-8"?>
<svg width="662px" height="291px" viewBox="0 0 662 291" version="1.1" xmlns="http://www.w3.org/2000/svg" xmlns:xlink="http://www.w3.org/1999/xlink">
    <title>TWOSTONESHB2025</title>
    <g id="Page-1" stroke="none" stroke-width="1" fill="none" fill-rule="evenodd">
        <g id="TWOSTONESHB2025" transform="translate(1.000000, 1.000000)" fill="#FFFFFF" fill-rule="nonzero" stroke="#000000">
            <path d="M660.518363,289 L23.1186243,289 C10.3505607,289 0,278.648823 0,265.88 L0.481638007,23.12 C0.481638007,10.3511766 10.8321987,0 23.6002624,0 L661,0" id="h1"></path>
            <path d="M661,289 L23.135482,289 C10.3581081,289 0,278.638031 0,265.855895 L0,47.1441048 C0,34.3619687 10.3581081,24 23.135482,24 L661,24" id="board"></path>
            <rect id="board" x="141" y="87" width="280" height="140" rx="25"></rect>
            <rect id="h3" x="141" y="158" width="280" height="69" rx="25"></rect>
            <path d="M661,222 L545.93503,222 C529.954654,222 517,208.97222 517,192.901639 L517,180.098361 C517,164.02778 529.954654,151 545.93503,151 L661,151" id="h4"></path>
            <rect id="h2" x="141" y="87" width="280" height="69" rx="25"></rect>
        </g>
    </g>
</svg>