<?xml version="1.0" encoding="UTF-8"?>
<svg width="660px" height="344px" viewBox="0 0 660 344" version="1.1" xmlns="http://www.w3.org/2000/svg" xmlns:xlink="http://www.w3.org/1999/xlink">
    <title>TWOSTONESHB2006</title>
    <g id="Page-1" stroke="none" stroke-width="1" fill="none" fill-rule="evenodd">
        <g id="TWOSTONESHB2006" transform="translate(0.888896, 0.687329)" fill="#FFFFFF">
            <path d="M42.4912139,217.787312 L68.4497841,329.468952 C70.0746442,338.09718 77.2601952,342.411294 90.006437,342.411294 C102.752679,342.411294 142.787568,342.411294 210.111104,342.411294 L210.111104,217.787312 L42.4912139,217.787312 Z" id="board" stroke="#000000"></path>
            <path d="M659.111104,342.411294 L196.534761,342.411294 C191.898395,342.331849 189.580211,336.864189 189.580211,326.008314 C189.580211,315.152439 189.580211,289.343509 189.580211,248.581523 C190.170965,233.611822 182.470428,226.126971 166.478601,226.126971 C142.49086,226.126971 128.630282,222.560246 128.630282,248.581523 C128.630282,265.929042 128.630282,291.737972 128.630282,326.008314 C129.022054,336.943634 127.125026,342.411294 122.939196,342.411294 C118.753366,342.411294 105.797127,342.411294 84.0704801,342.411294 C80.321522,342.014804 78.4470429,336.547144 78.4470429,326.008314 C78.4470429,315.469484 77.9475768,289.660554 76.9486446,248.581523 C78.3890853,229.355237 72.2223918,219.344891 58.4485641,218.550485 C44.6747363,217.756078 36.3862778,217.358875 33.5831884,217.358875 C30.5863918,217.506217 28.4213517,214.879576 27.0880683,209.478954 C25.7547848,204.078332 17.3606571,164.67733 1.90568496,91.2759489 L210.538622,88.3077584 C222.350874,85.3283171 226.501226,71.3001195 222.989678,46.2231656 C222.989678,46.2231656 262.660466,46.2231656 342.00204,46.2231656 L346.30747,29.9724478 L472.227158,28.5376532 L472.227158,75.3750908 L659.111104,75.3750908" id="board" stroke="#000000"></path>
            <path d="M163.855624,225.135485 C144.249418,225.135485 127.641184,221.564752 127.641184,247.615271 C127.641184,264.982284 127.641184,290.820218 127.641184,325.129072 C128.018342,336.07668 126.580707,341.550485 122.551028,341.550485 C118.52135,341.550485 105.437859,341.550485 84.52172,341.550485 C80.9126159,341.153549 79.1080639,335.679745 79.1080639,325.129072 C79.1080639,314.578399 78.9006753,288.740465 77.939008,247.615271 C79.4981795,229.674957 72.8977832,218.582611 59.6377851,217.787312 L163.855624,225.135485 Z" id="h14" stroke="#FFFFFF"></path>
            <rect id="h7" stroke="#000000" transform="translate(153.111104, 164.812671) rotate(-10.000000) translate(-153.111104, -164.812671) " x="71.6111038" y="142.812671" width="163" height="44" rx="13"></rect>
            <rect id="h8" stroke="#000000" x="269.611104" y="117.812671" width="134" height="44" rx="13"></rect>
            <rect id="h12" stroke="#000000" x="248.611104" y="191.812671" width="134" height="44" rx="13"></rect>
            <rect id="h13" stroke="#000000" x="458.611104" y="191.812671" width="134" height="44" rx="13"></rect>
            <rect id="h18" stroke="#000000" x="504.611104" y="262.812671" width="134" height="44" rx="13"></rect>
            <rect id="h16" stroke="#000000" x="345.611104" y="262.812671" width="65" height="44" rx="13"></rect>
            <rect id="h15" stroke="#000000" x="210.611104" y="262.812671" width="110" height="44" rx="13"></rect>
            <rect id="h10" stroke="#000000" x="511.611104" y="117.812671" width="89" height="44" rx="13"></rect>
            <circle id="h9" stroke="#000000" cx="457.611104" cy="139.812671" r="22"></circle>
            <path d="M658.611104,126.312671 C646.184697,126.312671 636.111104,136.386264 636.111104,148.812671 C636.111104,161.239078 646.184697,171.312671 658.611104,171.312671" id="h11" stroke="#000000"></path>
            <circle id="h17" stroke="#000000" cx="457.611104" cy="284.812671" r="22"></circle>
            <circle id="h6" stroke="#000000" cx="82.6111038" cy="118.812671" r="22"></circle>
            <path d="M659.111104,0 L526.203493,0 C520.756608,0 518.033166,3.20011273 518.033166,9.60033819 C518.033166,16.0005637 516.703597,37.9254812 514.044459,75.3750908 L659.111104,75.3750908" id="h5" stroke="#000000"></path>
            <polygon id="h4" stroke="#000000" points="514.044459 75.3750908 472.227158 75.3750908 487.022312 29.9724478 517.048468 29.9724478"></polygon>
            <polygon id="board" stroke="#000000" points="472.227158 75.3750908 472.227158 28.5376532 487.022312 6.74390229 487.022312 29.9724478"></polygon>
            <polygon id="h3" stroke="#000000" points="472.227158 28.5376532 346.30747 29.9724478 360.847982 8.60773479 487.022312 6.74390229"></polygon>
            <path d="M346.30747,29.9724478 L342.00204,46.2231656 L222.989678,46.2231656 L230.111104,15.995288 C230.404251,11.7148335 232.575539,9.57460631 236.624968,9.57460631 C240.674396,9.57460631 282.082068,9.2523158 360.847982,8.60773479 L346.30747,29.9724478 Z" id="h2" stroke="#000000"></path>
            <path d="M222.989678,46.2231656 C221.083426,46.4509277 233.222862,88.3077584 205.618904,88.3077584 C187.216265,88.3077584 178.014945,74.2795608 178.014945,46.2231656 C174.905165,25.4314664 167.270551,16.1431362 155.111104,18.358175 C155.111104,18.358175 171.226331,13.6690589 185.555363,32.5018722 C195.108051,45.0570811 201.795898,55.1620435 205.618904,62.8167594 L210.538622,88.3077584 C222.024042,83.7181584 226.174394,69.6899608 222.989678,46.2231656 Z" id="board" stroke="#000000"></path>
            <path d="M155.111104,18.358175 C117.197705,26.4006868 72.4263512,37.0262172 20.7970409,50.2347665 C6.93234696,55.5639978 0,65.9976229 0,81.535642 C0,83.5063157 0.237937398,85.3082891 0.635305236,86.775581 C1.05024519,88.3077584 1.90568496,91.2759489 1.90568496,91.2759489 C64.233991,93.2807807 133.778304,92.2913839 210.538622,88.3077584 C188.856171,90.8336726 178.014945,76.805475 178.014945,46.2231656 C173.387356,13.3725848 155.111104,18.358175 155.111104,18.358175 Z" id="h1" stroke="#000000"></path>
        </g>
    </g>
</svg>