<?xml version="1.0" encoding="UTF-8"?>
<svg width="640px" height="415px" viewBox="0 0 640 415" version="1.1" xmlns="http://www.w3.org/2000/svg" xmlns:xlink="http://www.w3.org/1999/xlink">
    <title>TWOSTONESHB2003BX</title>
    <g id="Page-1" stroke="none" stroke-width="1" fill="none" fill-rule="evenodd">
        <g id="TWOSTONESHB2003BX" transform="translate(1.000000, 1.000000)" fill="#FFFFFF" fill-rule="nonzero" stroke="#000000">
            <path d="M639,413 L27.7877113,412.221182 C9.26257045,412.740394 0,404.659404 0,387.978214 C0,371.297022 0,270.113869 0,84.4287507 L22.9291231,0 L639,0" id="board"></path>
            <path d="M639,0 L22.6834711,0 L0,84.5224673 L0,176.481337 C0.00960749042,189.459562 9.76315254,195.948674 29.2606352,195.948674 C48.7581178,195.948674 154.440847,195.948674 346.308823,195.948674 C361.518388,196.883769 369.12317,185.04173 369.12317,160.422559 C369.12317,135.803387 369.12317,121.070918 369.12317,116.225151 C369.308302,107.148307 377.080964,102.609884 392.441156,102.609884 C407.801349,102.609884 489.987631,102.609884 639,102.609884" id="board"></path>
            <path d="M32.1274901,196.046897 C8.80273682,196.046897 -1.82158189,188.676026 0.254534048,173.934284 L0.254534048,283.801374 C0.254534048,297.233029 9.99809881,303.948857 29.4852283,303.948857 C48.9723579,303.948857 154.546947,303.948857 346.208997,303.948857 C361.402999,304.880618 369,293.0808 369,268.549406 C369,244.018012 369,229.33807 369,224.50958 L369,166 C369,186.031265 360.168831,196.046897 342.506494,196.046897 C316.012987,196.046897 67.1146203,196.046897 32.1274901,196.046897 Z" id="board"></path>
            <path d="M32.1274901,304.046897 C8.80273682,304.046897 -1.82158189,296.676026 0.254534048,281.934284 L0.254534048,391.801374 C0.254534048,405.233029 9.99809881,411.948857 29.4852283,411.948857 C48.9723579,411.948857 154.546947,411.948857 346.208997,411.948857 C361.402999,412.880618 369,401.0808 369,376.549406 C369,352.018012 369,337.33807 369,332.50958 L369,274 C369,294.031265 360.168831,304.046897 342.506494,304.046897 C316.012987,304.046897 67.1146203,304.046897 32.1274901,304.046897 Z" id="board"></path>
            <rect id="h4" x="12" y="115" width="150" height="50" rx="22.5"></rect>
            <rect id="h7" x="12" y="227" width="150" height="50" rx="22.5"></rect>
            <rect id="h10" x="12" y="335" width="150" height="50" rx="22.5"></rect>
            <rect id="h5" x="184" y="115" width="94" height="50" rx="22.5"></rect>
            <rect id="h8" x="184" y="227" width="94" height="50" rx="22.5"></rect>
            <rect id="h11" x="184" y="335" width="94" height="50" rx="22.5"></rect>
            <rect id="h6" x="300" y="115" width="50" height="50" rx="22.5"></rect>
            <rect id="h9" x="300" y="227" width="50" height="50" rx="22.5"></rect>
            <rect id="h12" x="300" y="335" width="50" height="50" rx="22.5"></rect>
            <circle id="h13" cx="495.5" cy="297.5" r="104.5"></circle>
            <polyline id="h3" points="639 28 437 28 437 0 639 0"></polyline>
            <path d="M437,0 L437,27.9546022 C435.249797,45.3182008 425.449714,54 407.599749,54 C389.749785,54 324.216536,54 211,54 L225.612268,0 L437,0 Z" id="h2"></path>
            <path d="M226,0 L211.362335,53.2865816 C213.648699,73.7621939 205.232508,84 186.113765,84 C166.995024,84 104.957102,84 0,84 L22.7226472,0 L226,0 Z" id="h1"></path>
        </g>
    </g>
</svg>