<?xml version="1.0" encoding="UTF-8"?>
<svg width="1329px" height="249px" viewBox="0 0 1329 249" version="1.1" xmlns="http://www.w3.org/2000/svg" xmlns:xlink="http://www.w3.org/1999/xlink">
    <title>WHITEOAKPORT</title>
    <g id="Page-1" stroke="none" stroke-width="1" fill="none" fill-rule="evenodd">
        <g id="WHITEOAKPORT" transform="translate(1.000000, 1.000000)" fill="#FFFFFF" fill-rule="nonzero" stroke="#000000">
            <path d="M1328,247 L18.1588941,247 C8.13001381,247 0,238.88397 0,228.87234 L0,52.1276596 C0,42.1160296 8.13001381,34 18.1588941,34 L1327.94175,34" id="hangboard"></path>
            <path d="M1328,208 L967.073379,208 C929.477491,208 899,177.555363 899,140 C899,102.444637 929.477491,72 967.073379,72 L1328,72" id="h4"></path>
            <circle id="h3" cx="713" cy="140" r="68"></circle>
            <rect id="h2" x="170" y="72" width="359" height="136" rx="30"></rect>
            <path d="M1327.94175,33.4948454 L16.9779976,33.4948454 C7.67812817,34.496593 2.18651737,39.1816234 0.503165166,47.5499362 C-1.18018704,55.9182488 1.36023482,42.849776 8.12443074,8.34451733 C10.5204269,4.12298618 14.4960006,2.01222061 20.0511521,2.01222061 C25.6063035,2.01222061 461.589253,1.3414804 1328,0" id="h1"></path>
        </g>
    </g>
</svg>