<?xml version="1.0" encoding="UTF-8"?>
<svg width="667px" height="386px" viewBox="0 0 667 386" version="1.1" xmlns="http://www.w3.org/2000/svg" xmlns:xlink="http://www.w3.org/1999/xlink">
    <title>WOODROCKVARAPPE57</title>
    <g id="Page-1" stroke="none" stroke-width="1" fill="none" fill-rule="evenodd">
        <g id="WOODROCKVARAPPE57" transform="translate(0.723325, 1.035915)" fill="#FFFFFF" stroke="#000000">
            <polygon id="board" points="236.276675 295.269175 44.2140698 295.269175 44.2140698 191.437915 236.276675 191.964085"></polygon>
            <path d="M665.276675,191.964085 L29.6816999,191.866321 C64.4164004,158.908526 81.7837507,135.685925 81.7837507,122.198519 C81.7837507,108.711113 74.6147255,101.788365 60.2766751,101.430276 C33.4538961,105.890693 21.0958424,100.823057 23.2025137,86.2273678 C25.309185,71.631679 29.479286,47.2793307 35.7128166,13.170323 L249.633647,13.170323 C265.157951,45.0410526 291.31079,60.9764175 328.092166,60.9764175 C364.873541,60.9764175 477.268377,60.9764175 665.276675,60.9764175" id="board"></path>
            <path d="M550.276675,191.964085 C509.376099,197.062362 488.925811,225.395696 488.925811,276.964085 C488.925811,276.964085 404.709432,276.964085 236.276675,276.964085 L236.276675,227.317522 C236.276675,203.748564 226.47545,191.964085 206.873001,191.964085 C187.270552,191.964085 301.738443,191.964085 550.276675,191.964085 Z" id="board"></path>
            <path d="M488.925811,383.964085 L301.839162,383.964085 C258.130837,384.718716 236.276675,371.240707 236.276675,343.530058 C236.276675,315.819409 236.276675,293.630751 236.276675,276.964085 L488.925811,276.964085 L488.925811,383.964085 Z" id="board"></path>
            <path d="M665.884715,191.964085 C611.645288,191.964085 573.109275,191.964085 550.276675,191.964085 C516.027775,191.964085 488.925811,229.097005 488.925811,263.964085 C488.925811,287.208804 488.925811,327.208804 488.925811,383.964085 L665.276675,383.964085" id="h14"></path>
            <rect id="h13" x="278.776675" y="311.464085" width="179" height="49" rx="24.5"></rect>
            <path d="M665.884715,383.964085 L547.295943,383.964085 C541.340834,383.964085 536.276674,379.045436 536.276674,372.904563 L536.276674,313.964085 C536.276674,302.91839 545.23098,293.964085 556.276674,293.964085 L665.884715,293.964085" id="board"></path>
            <path d="M665.884715,328.964085 L547.295943,328.964085 C541.340834,328.964085 536.276674,324.045436 536.276674,317.904563 L536.276674,258.964085 C536.276674,247.91839 545.23098,238.964085 556.276674,238.964085 L665.884715,238.964085" id="h11"></path>
            <path d="M665.884715,301.964085 L594.276675,301.964085 C580.469556,301.964085 569.276675,290.771203 569.276675,276.964085 C569.276675,263.156966 580.469556,251.964085 594.276675,251.964085 L665.884715,251.964085" id="h12"></path>
            <rect id="h10" x="273.776675" y="214.464085" width="179" height="49" rx="24.5"></rect>
            <rect id="h6" x="278.776675" y="117.464085" width="91" height="40" rx="19"></rect>
            <path d="M116.310747,191.963989 C101.762298,192.016735 94.488074,199.3501 94.488074,213.964085 C94.488074,228.578069 94.488074,245.244736 94.488074,263.964085 C92.7798249,284.834145 76.0218235,295.269175 44.2140698,295.269175 C12.4063161,295.269175 -2.23948211,280.384186 0.276675069,250.614208 C6.5969466,226.180792 16.3203181,206.630719 29.4467895,191.963989 C29.4467895,191.963989 58.4014419,191.963989 116.310747,191.963989 Z" id="h8"></path>
            <path d="M665.276675,157.964085 L422.276675,157.964085 C408.469556,157.964085 397.276675,146.771203 397.276675,132.964085 C397.276675,119.156966 408.469556,107.964085 422.276675,107.964085 L665.276675,107.964085" id="h7"></path>
            <rect id="h5" x="107.776675" y="99.4640846" width="128" height="40" rx="19"></rect>
            <polyline id="h4" points="665.276675 60.9764175 452.936058 60.9764175 452.936058 32.0276139 665.276675 32.0276139"></polyline>
            <path d="M452.936058,32.0276139 L324.623985,32.0276139 C306.746807,32.9652644 288.009792,26.045721 268.412942,11.2689837 C248.816091,-3.50775352 242.698907,-2.63345223 250.061387,13.8918876 C265.669242,45.2815742 290.523441,60.9764175 324.623985,60.9764175 C358.724529,60.9764175 401.49522,60.9764175 452.936058,60.9764175 L452.936058,32.0276139 Z" id="h3"></path>
            <rect id="h2" x="54.7766751" y="27.4640846" width="178" height="40" rx="19"></rect>
            <path d="M248.189731,0.805526475 L37.7778305,0 L34.8692064,17.8817363 C172.760856,17.8817363 245.016055,17.8817363 251.634805,17.8817363 C247.035613,7.65140022 245.887255,1.95933028 248.189731,0.805526475 Z" id="h1"></path>
            <path d="M204.723443,191.964085 C187.905692,191.036442 179.496817,196.710365 179.496817,208.985852 C179.496817,221.261339 179.496817,239.587416 179.496817,263.964085 C181.247568,284.834145 175.174188,295.269175 161.276675,295.269175 C147.379162,295.269175 141.545829,284.834145 143.776675,263.964085 L143.776675,208.985852 C143.739983,197.638007 135.964597,191.964085 120.450519,191.964085 C104.93644,191.964085 133.027415,191.964085 204.723443,191.964085 Z" id="h9"></path>
        </g>
    </g>
</svg>