<?xml version="1.0" encoding="UTF-8"?>
<svg width="593px" height="317px" viewBox="0 0 593 317" version="1.1" xmlns="http://www.w3.org/2000/svg" xmlns:xlink="http://www.w3.org/1999/xlink">
    <title>WOODOTRICKY2</title>
    <g id="Page-1" stroke="none" stroke-width="1" fill="none" fill-rule="evenodd">
        <g id="WOODOTRICKY2" transform="translate(1.376208, 1.279551)">
            <path d="M590.623792,3.59567815 L463.633129,3.59567815 C439.009417,1.24828649 418.994016,9.27524078 403.586925,27.676541 C388.179834,46.0778413 373.511936,64.5231159 359.583231,83.012365 C356.001332,85.9505039 354.210383,94.7752511 354.210383,109.486606 C354.210383,124.197962 354.210383,143.554113 354.210383,167.555059 C354.361452,176.998653 358.200998,181.720449 365.729022,181.720449 C373.257046,181.720449 448.221969,181.720449 590.623792,181.720449" id="board" stroke="#000000" fill="#FFFFFF"></path>
            <polyline id="h15" stroke="#000000" fill="#FFFFFF" points="590.623792 181.720449 385.623792 181.720449 354.210383 171.406285 180.570548 171.406285 148.243349 148.720449 109.757493 148.720449 150.905608 228.152571 175.081362 278.303881 590.623792 278.303881"></polyline>
            <path d="M354.210383,105.720449 C309.310263,104.57812 276.830487,104.006955 256.771054,104.006955 C226.681905,104.006955 201.403053,89.829889 201.403053,64.14725 C201.403053,38.4646109 164.112257,-5.68434189e-14 109.334089,-5.68434189e-14 C72.8153106,-5.68434189e-14 39.4195645,7.86463071 10.1035701,43.1047804 C3.0489503,54.4377352 0,73.5832843 0,81.0305397 C0,101.311947 5.02872158,115.541917 15.0861647,123.720449 C39.8787261,142.708156 52.2750068,160.468296 52.2750068,177.000869 C52.2750068,190.371627 47.0954378,201.470244 37.8483567,215.518623 C35.661678,218.840676 28.9149132,227.222716 26.2111456,230.58266 C32.4626994,228.962601 36.3417698,228.152571 37.8483567,228.152571 C62.9721903,228.152571 100.657941,228.152571 150.905608,228.152571 C130.553577,187.674031 125.665234,165.477891 136.240578,161.564152 C146.815923,157.650413 161.592579,160.931124 180.570548,171.406285 L354.210383,171.406285 L354.210383,105.720449 Z" id="board" stroke="#000000" fill="#FFFFFF"></path>
            <polyline id="h14" stroke="#000000" fill="#FFFFFF" points="590.623792 278.303881 175.081362 278.303881 175.081362 308.672202 590.623792 308.672202"></polyline>
            <path d="M590.623792,248.720449 L331.047049,248.720449 C338.770148,248.720449 342.631698,253.651021 342.631698,263.512165 C342.631698,273.373309 338.770148,278.303881 331.047049,278.303881 L590.623792,278.303881" id="h13" stroke="#000000" fill="#FFFFFF"></path>
            <path d="M590.623792,248.720449 L226.854947,248.720449 C217.338443,248.720449 209.623792,240.661575 209.623792,230.720449 C209.623792,220.779324 217.338443,212.720449 226.854947,212.720449 L590.623792,212.720449" id="h11" stroke="#000000" fill="#FFFFFF"></path>
            <path d="M590.623792,248.720449 L488.357125,248.720449 C479.667845,248.720449 472.623792,240.661575 472.623792,230.720449 C472.623792,220.779324 479.667845,212.720449 488.357125,212.720449 L590.623792,212.720449" id="h12" stroke="#000000" fill="#FFFFFF"></path>
            <rect id="h10" stroke="#000000" fill="#FFFFFF" x="209.623792" y="212.720449" width="176" height="36" rx="18"></rect>
            <path d="M354.210383,171.406285 L180.570548,171.406285 C159.012089,160.914364 144.235433,157.633653 136.240578,161.564152 C128.245724,165.494651 129.040129,179.539825 138.623792,203.699675 L175.081362,278.303881" id="line" stroke="#000000"></path>
            <path d="M175.081362,308.672202 L168.710466,314.196621 L49.8644887,314.196621 C23.3572096,312.020054 10.1035701,300.055807 10.1035701,278.303881 C10.1035701,245.675993 22.0328417,228.152571 34.4607167,228.152571 C42.7459668,228.152571 81.5609305,228.152571 150.905608,228.152571 L175.081362,278.303881 L175.081362,308.672202 Z" id="h8" stroke="#000000" fill="#FFFFFF"></path>
            <rect id="h9" stroke="#000000" fill="#FFFFFF" x="37.6237917" y="252.720449" width="101" height="36" rx="18"></rect>
            <polygon id="h7" stroke="#000000" fill="#FFFFFF" points="354.210383 144.636286 354.210383 171.406285 180.570548 171.406285 180.570548 144.636286"></polygon>
            <rect id="h6" stroke="#000000" fill="#FFFFFF" x="385.623792" y="112.720449" width="162" height="36" rx="18"></rect>
            <path d="M590.623792,148.720449 L403.623792,148.720449 C393.682666,148.720449 385.623792,140.661575 385.623792,130.720449 C385.623792,120.779324 393.682666,112.720449 403.623792,112.720449 L590.623792,112.720449" id="h5" stroke="#000000" fill="#FFFFFF"></path>
            <path d="M590.623792,3.19719583 L450.288736,3.19719583 C431.004134,5.41852144 416.69013,12.0287945 407.346725,23.028015 C398.00332,34.0272355 382.082155,54.0220188 359.583231,83.012365 L590.623792,83.012365" id="h4" stroke="#000000" fill="#FFFFFF"></path>
            <path d="M354.210383,144.636286 L180.570548,144.636286 C180.570548,137.025821 180.688782,130.489954 180.92525,125.028685 C181.445089,113.022914 194.139889,108.446355 197.927413,100.26674 C202.985357,89.3434989 201.816678,69.0189669 201.816678,69.0189669 C201.816678,69.0189669 203.743763,102.26812 259.17048,103.994285 C296.121625,105.145061 327.801592,105.720449 354.210383,105.720449 L354.210383,144.636286 Z" id="h3" stroke="#000000" fill="#FFFFFF"></path>
            <rect id="h2" stroke="#000000" fill="#FFFFFF" x="42.6237917" y="87.7204491" width="82" height="36" rx="18"></rect>
            <path d="M194.403053,63.2988804 C194.403053,39.3279084 159.537868,3.42684265 108.322791,3.42684265 C64.8510421,3.42684265 22.6527978,31.3941302 15.5468037,43.6588252 C8.4408097,55.9235202 9.65210107,55.9235202 8.4408097,63.2988804 C5.33887029,82.1860954 194.403053,87.2698525 194.403053,63.2988804 Z" id="h1" fill="#FFFFFF"></path>
        </g>
    </g>
</svg>