<?xml version="1.0" encoding="UTF-8"?>
<svg width="424px" height="318px" viewBox="0 0 424 318" version="1.1" xmlns="http://www.w3.org/2000/svg" xmlns:xlink="http://www.w3.org/1999/xlink">
    <title>WOODSTOKBOARD</title>
    <g id="Page-1" stroke="none" stroke-width="1" fill="none" fill-rule="evenodd">
        <g id="WOODSTOKBOARD" transform="translate(1.000000, 1.000000)" fill="#FFFFFF" stroke="#000000">
            <path d="M422.430724,316 L61,316 C27.3106303,316 0,288.68937 0,255 L0,61 C0,27.3106303 27.3106303,0 61,0 L422.257481,0" id="background"></path>
            <rect id="h8" x="271" y="227" width="133" height="51" rx="20"></rect>
            <rect id="h7" x="177" y="227" width="66" height="51" rx="20"></rect>
            <rect id="h6" x="25" y="227" width="121" height="51" rx="20"></rect>
            <rect id="h5" x="177" y="136" width="131" height="55" rx="20"></rect>
            <rect id="h4" x="25" y="136" width="121" height="55" rx="20"></rect>
            <rect id="h3" x="271" y="43" width="133" height="54" rx="20"></rect>
            <rect id="h2" x="177" y="43" width="66" height="54" rx="20"></rect>
            <rect id="h1" x="25" y="43" width="121" height="54" rx="20"></rect>
        </g>
    </g>
</svg>