<?xml version="1.0" encoding="UTF-8"?>
<svg width="595px" height="351px" viewBox="0 0 595 351" version="1.1" xmlns="http://www.w3.org/2000/svg" xmlns:xlink="http://www.w3.org/1999/xlink">
    <title>WOODROCKVARAPPE89</title>
    <g id="Page-1" stroke="none" stroke-width="1" fill="none" fill-rule="evenodd">
        <g id="WOODROCKVARAPPE89" transform="translate(1.258010, 1.435996)" fill="#FFFFFF" stroke="#000000">
            <path d="M219.864771,348.564004 L225.667924,162.045057 L62.414183,161.794671 L62.414183,260.324941 L137.058166,260.324941 C149.195608,266.283384 155.264329,277.196405 155.264329,293.064004 C155.264329,316.865404 155.134393,348.564004 210.74199,348.564004 C247.813722,348.564004 250.854649,348.564004 219.864771,348.564004 Z" id="Path-10"></path>
            <polyline id="Path-11" points="593.74199 179.707987 424.694577 179.707987 424.694577 348.564004 593.74199 348.564004"></polyline>
            <path d="M444.982388,246.564004 L444.982388,332.551164 C444.982388,343.226391 438.219784,348.564004 424.694577,348.564004 C411.16937,348.564004 342.892768,348.564004 219.864771,348.564004 L222.762439,254.108065 L430.299168,255.945403 C435.62121,255.526442 439.176571,254.745551 440.965249,253.602729 C442.753927,252.459907 444.092974,250.113666 444.982388,246.564004 Z" id="Path-8"></path>
            <path d="M593.74199,25.9068532 L21.9829513,25.9068532 L18.179492,51.0640045 C24.1403431,53.6387524 26.5579019,59.4437557 25.4321684,68.4790145 C24.3064349,77.5142732 19.0763755,108.619492 9.74199024,161.794671 L120.918542,161.794671 C126.550921,162.350414 128.929231,168.321519 128.053474,179.707987 C128.053474,179.707987 138.132332,179.707987 158.290049,179.707987 C172.591343,179.707987 184.751973,179.707987 194.771939,179.707987 C209.801889,179.707987 207.888587,184.087525 207.888587,220.016464 C207.888587,243.96909 216.318417,255.945403 233.178075,255.945403 L426.523821,255.945403 C438.829532,255.945403 444.982388,252.81827 444.982388,246.564004 C444.982388,237.182606 439.874008,179.707987 502.809671,179.707987 C544.766779,179.707987 575.077552,179.707987 593.74199,179.707987" id="Path-5"></path>
            <path d="M593.74199,348.564004 L493.74199,348.564004 C481.591726,348.564004 471.74199,338.714269 471.74199,326.564004 L471.74199,231.564004 C471.74199,219.41374 481.591726,209.564004 493.74199,209.564004 L593.74199,209.564004" id="Path"></path>
            <path d="M593.74199,288.564004 L493.74199,288.564004 C481.591726,288.564004 471.74199,278.714269 471.74199,266.564004 L471.74199,231.564004 C471.74199,219.41374 481.591726,209.564004 493.74199,209.564004 L593.74199,209.564004" id="Path"></path>
            <rect id="h4" x="51.2419902" y="32.0640045" width="151" height="38" rx="19"></rect>
            <rect id="h11" x="223.24199" y="193.064004" width="73" height="38" rx="19"></rect>
            <rect id="h12" x="323.24199" y="193.064004" width="73" height="38" rx="19"></rect>
            <rect id="h15" x="168.24199" y="272.064004" width="42" height="42" rx="20"></rect>
            <rect id="h5" x="40.2419902" y="93.0640045" width="120" height="38" rx="19"></rect>
            <rect id="h6" x="180.24199" y="111.064004" width="164" height="41" rx="20"></rect>
            <path d="M593.74199,152.564004 L383.74199,152.564004 C372.696295,152.564004 363.74199,143.609699 363.74199,132.564004 L363.74199,130.564004 C363.74199,119.518309 372.696295,110.564004 383.74199,110.564004 L593.74199,110.564004" id="h7"></path>
            <path d="M593.74199,267.564004 L518.74199,267.564004 C507.696295,267.564004 498.74199,258.609699 498.74199,247.564004 L498.74199,245.564004 C498.74199,234.518309 507.696295,225.564004 518.74199,225.564004 L593.74199,225.564004" id="h13"></path>
            <path d="M593.74199,330.564004 L518.74199,330.564004 C507.696295,330.564004 498.74199,321.609699 498.74199,310.564004 L498.74199,308.564004 C498.74199,297.518309 507.696295,288.564004 518.74199,288.564004 L593.74199,288.564004" id="h14"></path>
            <polyline id="h3" points="593.74199 25.9068532 453.143984 25.9068532 411.877351 62.9439003 593.74199 62.9439003"></polyline>
            <path d="M453.143984,25.9068532 C349.371811,25.9068532 290.765296,25.9068532 277.324439,25.9068532 C257.163152,25.9068532 220.063433,11.2752931 220.063433,1.00085009 C220.063433,-9.27359294 213.395236,62.9439003 277.324439,62.9439003 C319.943907,62.9439003 364.794878,62.9439003 411.877351,62.9439003 L453.143984,25.9068532 Z" id="h2"></path>
            <path d="M219.864771,0 L24.9053247,0 L21.9829513,25.9068532 L223.59206,25.9068532 C221.848192,18.4718555 220.789405,13.5226692 220.415698,11.0592945 C220.041992,8.59591976 219.858349,4.90948826 219.864771,0 Z" id="h1"></path>
            <path d="M9.74199024,161.794671 L0.385343807,231.875527 C-2.05060354,252.129154 7.06256325,261.93413 27.7248442,261.290455 C48.3871251,260.646779 59.950238,260.324941 62.414183,260.324941 C73.3229525,258.004563 78.7773372,246.202675 78.7773372,224.919278 C78.7773372,192.994182 79.5857824,161.794671 94.2796142,161.794671 C104.075502,161.794671 75.8962942,161.794671 9.74199024,161.794671 Z" id="h8"></path>
            <path d="M128.053474,179.707987 L125.464771,244.500232 C125.615559,255.050038 129.480024,260.324941 137.058166,260.324941 C144.636307,260.324941 147.410655,260.324941 145.381208,260.324941 C153.087768,260.324941 156.941048,255.050038 156.941048,244.500232 C156.941048,233.950426 157.390715,212.353011 158.290049,179.707987 L128.053474,179.707987 Z" id="h10"></path>
            <rect id="h9" x="17.2419902" y="185.064004" width="42" height="42" rx="20"></rect>
            <path d="M221.132319,307.722976 C219.586068,317.728987 225.85474,322.731993 239.938335,322.731993 C254.021929,322.731993 300.534605,322.731993 379.476363,322.731993 C389.058465,323.798906 393.849516,328.370969 393.849516,336.448183 C393.849516,344.525397 389.058465,348.564004 379.476363,348.564004 L219.864771,348.564004 L221.132319,307.722976 Z" id="h16"></path>
        </g>
    </g>
</svg>