<?xml version="1.0" encoding="UTF-8"?>
<svg width="524px" height="230px" viewBox="0 0 524 230" version="1.1" xmlns="http://www.w3.org/2000/svg" xmlns:xlink="http://www.w3.org/1999/xlink">
    <title>WOODROCKORIGINAL2</title>
    <g id="Page-1" stroke="none" stroke-width="1" fill="none" fill-rule="evenodd">
        <g id="WOODROCKORIGINAL2" transform="translate(1.375730, 0.889130)" fill="#FFFFFF" stroke="#000000">
            <path d="M521.62427,228.233398 L15.6961803,228.233398 C5.2320601,229.64517 0,223.604328 0,210.11087 C0,196.617413 0.723955824,134.91379 2.17186747,25 C8.65075795,8.25578934 12.5245327,-0.0775439887 13.7931917,3.94383744e-13 C15.0618508,0.0775439887 87.7913399,0.116315983 231.981659,0.116315983 C248.359851,16.7054387 262.090381,25 273.173249,25 C284.256118,25 367.073125,25 521.62427,25" id="Path"></path>
            <rect id="h10" x="225.62427" y="163.11087" width="123" height="47" rx="23.5"></rect>
            <rect id="h9" x="28.6242699" y="163.11087" width="175" height="47" rx="23.5"></rect>
            <path d="M521.62427,143.11087 L248.890198,143.11087 C236.040781,143.11087 225.62427,132.589562 225.62427,119.61087 C225.62427,106.632179 236.040781,96.1108703 248.890198,96.1108703 L521.62427,96.1108703" id="h8"></path>
            <rect id="h7" x="28.6242699" y="96.1108703" width="175" height="47" rx="23.5"></rect>
            <path d="M521.62427,83.1108703 L419.890198,83.1108703 C407.040781,83.1108703 396.62427,72.589562 396.62427,59.6108703 C396.62427,46.6321787 407.040781,36.1108703 419.890198,36.1108703 L521.62427,36.1108703" id="h6"></path>
            <circle id="h5" cx="351.12427" cy="59.6108703" r="23.5"></circle>
            <rect id="h4" x="225.62427" y="36.1108703" width="79" height="47" rx="23.5"></rect>
            <rect id="h3" x="28.6242699" y="36.1108703" width="175" height="47" rx="23.5"></rect>
            <path d="M521.62427,25 C369.531851,25 286.274777,25 271.853048,25 C250.220455,25 231.981659,8.8338957 231.981659,1.86477135 C231.981659,-5.104353 243.926778,11.0099336 283.230619,11.0099336 C309.43318,11.0099336 388.89773,11.0099336 521.62427,11.0099336" id="h2"></path>
            <path d="M268.331199,25 C257.591963,23.6194319 248.678095,20.1298177 241.589596,14.5311573 C234.501097,8.93249685 231.298451,4.12754976 231.981659,0.116315983 L13.2803297,0.116315983 C5.87468823,3.81154116 2.17186747,12.1061025 2.17186747,25" id="h1"></path>
        </g>
    </g>
</svg>