<?xml version="1.0" encoding="UTF-8"?>
<svg width="167px" height="330px" viewBox="0 0 167 330" version="1.1" xmlns="http://www.w3.org/2000/svg" xmlns:xlink="http://www.w3.org/1999/xlink">
    <title>WORK1950POCKET-HARD</title>
    <g id="Page-1" stroke="none" stroke-width="1" fill="none" fill-rule="evenodd">
        <g id="WORK1950POCKET-HARD" transform="translate(1.000000, 0.000000)" fill="#FFFFFF" fill-rule="nonzero">
            <path d="M166,329 L11.1730769,329 C5.29620074,329 0.532051282,320.045695 0.532051282,309 L0.532051282,181 C0.532051282,177.483346 1.01495267,174.178679 1.86292115,171.30747 C0.687697477,168.09134 0,164.196614 0,160 L0,32 C0,20.954305 4.76414946,12 10.6410256,12 L166,12" id="board" stroke="#000000"></path>
            <path d="M166.000671,306 L56,306 C44.954305,306 36,297.045695 36,286 L36,251 C36,239.954305 44.954305,231 56,231 L166.000671,231" id="h4" stroke="#000000"></path>
            <path d="M166.000671,215 L56,215 C44.954305,215 36,206.045695 36,195 L36,160 C36,148.954305 44.954305,140 56,140 L166.000671,140" id="h3"></path>
            <path d="M166.000671,124 L56,124 C44.954305,124 36,115.045695 36,104 L36,69 C36,57.954305 44.954305,49 56,49 L166.000671,49" id="h2" stroke="#000000"></path>
            <path d="M166,0.60015843 C72.5396765,0.60015843 21.852246,0.60015843 13.9377083,0.60015843 C6.02317071,0.60015843 1.37726793,11.0667723 -2.27373675e-13,32 C-2.27373675e-13,20.954305 4.76414946,12 10.6410256,12 L166,12" id="h1" stroke="#000000"></path>
        </g>
    </g>
</svg>