<?xml version="1.0" encoding="UTF-8"?>
<svg width="585px" height="176px" viewBox="0 0 585 176" version="1.1" xmlns="http://www.w3.org/2000/svg" xmlns:xlink="http://www.w3.org/1999/xlink">
    <title>WORK1950PAPIJO</title>
    <g id="Page-1" stroke="none" stroke-width="1" fill="none" fill-rule="evenodd">
        <g id="WORK1950PAPIJO" transform="translate(0.998529, 1.000000)" fill="#FFFFFF" stroke="#000000">
            <polyline id="board" points="584.001471 174 15.2064122 174 15.2064122 5.99520433e-15 246.846326 6.39488462e-14 274.001471 49 584.001471 49"></polyline>
            <path d="M584.001471,133 L550.001471,133 C537.298921,133 527.001471,122.702549 527.001471,110 C527.001471,97.2974508 537.298921,87 550.001471,87 L584.001471,87" id="h7"></path>
            <path d="M330.501471,93 L329.188969,93 L329.188969,93 L474.501471,93 C488.032447,93 499.001471,103.969024 499.001471,117.5 C499.001471,131.030976 488.032447,142 474.501471,142 L379.501471,142 C365.970494,142 355.001471,131.030976 355.001471,117.5 C355.001471,103.969024 344.032447,93 330.501471,93 Z" id="h6"></path>
            <rect id="h5" x="274.001471" y="93" width="90" height="49" rx="24.5"></rect>
            <path d="M15.2064122,34 L15.2064122,78.8841316 L220.179277,78.8841316 C229.340012,78.8841316 233.92038,75.313546 233.92038,68.1723748 C233.92038,61.0312035 233.92038,54.6404119 233.92038,49 C233.92038,39 229.340012,34 220.179277,34 C211.018541,34 142.694253,34 15.2064122,34 Z" id="board"></path>
            <path d="M15.2064122,110 L15.2064122,152.000216 L233.92038,152.000216 C245.930347,152.009148 251.93533,147.785192 251.93533,139.32835 C251.93533,130.871508 251.93533,125.004533 251.93533,121.727426 C252.016492,113.909142 246.011509,110 233.92038,110 C221.829252,110 148.924596,110 15.2064122,110 Z" id="board"></path>
            <path d="M15.2064122,152.000216 C8.03197596,152.110758 4.44475787,154.231092 4.44475787,158.361219 C4.44475787,162.491345 4.44475787,166.23275 4.44475787,169.585434 C4.64543575,172.528478 8.23265385,174 15.2064122,174 C22.1801705,174 112.148016,174 285.109948,174 C262.993536,163.462998 251.93533,152.147569 251.93533,140.053714 C251.93533,140.053714 251.93533,152.000216 237.504279,152.000216 C227.883579,152.000216 153.78429,152.000216 15.2064122,152.000216 Z" id="h4"></path>
            <path d="M217.258058,78.8841163 L4.1858608,78.8841163 C1.39528693,79.0280835 0,80.5747716 0,83.5241807 C0,86.4735897 0,93.404852 0,104.317967 C0.0218988663,108.105989 2.23456739,110 6.63800556,110 C11.0414437,110 81.2481279,110 217.258058,110" id="h3"></path>
            <path d="M584.001471,15.1081053 C422.201811,15.5947599 331.357623,15.7235802 311.468905,15.4945663 C281.635828,15.1510454 269.847431,12.1617616 262.914519,7.60129486 C255.981608,3.04082815 251.493036,0 248.056917,0 C244.620798,0 247.114254,49 274.001471,49 C291.926282,49 395.259615,49 584.001471,49" id="h2"></path>
            <path d="M218.540579,0 L10.1607855,0 C5.60072388,0 3.32069308,4.58592999 3.32069308,13.75779 C3.32069308,22.9296499 3.32069308,26.1570378 3.32069308,23.4399535 C3.77401704,30.4799845 6.4623381,34 11.3856563,34 C16.3089744,34 85.3606153,34 218.540579,34" id="h1"></path>
        </g>
    </g>
</svg>