<?xml version="1.0" encoding="UTF-8"?>
<svg width="577px" height="384px" viewBox="0 0 577 384" version="1.1" xmlns="http://www.w3.org/2000/svg" xmlns:xlink="http://www.w3.org/1999/xlink">
    <title>YANIROPOWERBOARD</title>
    <g id="Page-1" stroke="none" stroke-width="1" fill="none" fill-rule="evenodd">
        <g id="YANIROPOWERBOARD">
            <path d="M576,376.497488 L575.906479,376.497488 L401.653626,379.723629 C394.104927,379.274653 386.585407,376.719879 379.095067,372.059308 C367.859556,365.068451 303.847363,333.05368 255.816242,341.426746 C207.785121,349.799811 168.145161,357.467761 129,370.233881 C89.8548388,383 34.2369512,383.813836 20.925393,360.172131 C12.0510209,344.410994 5.96081082,322.422963 2.65476267,294.208037 L47.2340692,194.167385 L113.934269,129 L229.817985,65.3999174 L370.202806,36.1971861 L576,36.0027065" id="board" stroke="#000000" fill="#FFFFFF"></path>
            <path d="M576,362.352541 C489.415043,362.663875 434.164901,363.486622 410.249572,364.820782 C386.334244,366.154942 368.397259,362.098895 356.438619,352.652641 C355.115447,346.476316 351.878979,337.101944 346.729214,324.529526 C341.579448,311.957109 341.579448,303.77176 346.729214,299.97348 C375.082714,286.381179 399.253197,279.585028 419.240664,279.585028 C449.221865,279.585028 497.620332,283.876766 497.620332,267.628925 C497.620332,251.381085 471.44783,239.447998 436.550728,239.447998 C401.653626,239.447998 341.801729,260.72123 316.803265,271.870722 C300.137622,279.303717 284.208489,280.387518 269.015865,275.122124" id="line" stroke="#000000" fill="#FFFFFF"></path>
            <path d="M576,341.680462 L575.961452,341.680462 C481.320484,344.590681 424.764974,347.020327 406.294923,348.969399 C387.824871,350.918471 375.439254,346.851779 369.138071,336.769325 L363.724681,325.908789 C360.212934,319.69137 362.017397,315.515736 369.138071,313.381887 C379.819081,310.181113 501.343362,291.012788 538.671681,291.012788 C563.557227,291.012788 576,291.012788 576,291.012788" id="h19" stroke="#000000" fill="#FFFFFF"></path>
            <path d="M324.485823,282.839145 C327.959156,287.024508 330.637494,291.493423 332.520838,296.24589 C334.404181,300.998356 339.140307,302.240887 346.729214,299.97348 C375.082714,286.381179 399.253197,279.585028 419.240664,279.585028 C449.221865,279.585028 497.620332,283.876766 497.620332,267.628925 C497.620332,251.381085 471.44783,239.447998 436.550728,239.447998 C414.521897,239.447998 373.013532,246.153656 324.485823,270.260015 C320.030784,272.473076 320.030784,276.666119 324.485823,282.839145 Z" id="h18"></path>
            <path d="M576,109.164803 L447.629192,109.164803 C442.715973,135.548048 449.819524,158.826447 468.939847,179 C488.060171,199.173553 508.632463,217.996525 530.656725,235.468916 C542.218908,243.74467 557.333333,247.882547 576,247.882547" id="h17" stroke="#000000" fill="#FFFFFF"></path>
            <ellipse id="h16" fill="#FFFFFF" transform="translate(375.795793, 169.824421) rotate(28.000000) translate(-375.795793, -169.824421) " cx="375.795793" cy="169.824421" rx="37.5" ry="53"></ellipse>
            <path d="M373.066064,227.11268 C393.776742,227.11268 411.2991,203.674517 411.2991,174.403425 C411.2991,145.132333 393.776742,121.11268 373.066064,121.11268 C366.37668,122.544287 360.57505,124.920035 355.661173,128.239924" id="line" stroke="#000000" fill="#FFFFFF" transform="translate(383.480137, 174.112680) rotate(28.000000) translate(-383.480137, -174.112680) "></path>
            <ellipse id="h15" fill="#FFFFFF" transform="translate(311.450279, 231.798033) rotate(-23.000000) translate(-311.450279, -231.798033) " cx="311.450279" cy="231.798033" rx="41" ry="26.5"></ellipse>
            <path d="M275.627466,230.744722 C275.627466,245.380268 293.983791,257.244722 316.627466,257.244722 C339.271141,257.244722 357.627466,245.380268 357.627466,230.744722" id="line" stroke="#000000" fill="#FFFFFF" transform="translate(316.627466, 243.994722) rotate(-23.000000) translate(-316.627466, -243.994722) "></path>
            <rect id="h14" stroke="#000000" fill="#FFFFFF" transform="translate(143.913903, 297.619243) rotate(-23.000000) translate(-143.913903, -297.619243) " x="5.41390331" y="264.119243" width="277" height="67" rx="30"></rect>
            <rect id="h13" stroke="#000000" fill="#FFFFFF" transform="translate(233.000000, 259.500000) rotate(-23.000000) translate(-233.000000, -259.500000) " x="203" y="238" width="60" height="43" rx="21.5"></rect>
            <rect id="h12" stroke="#000000" fill="#FFFFFF" transform="translate(171.000000, 286.500000) rotate(-23.000000) translate(-171.000000, -286.500000) " x="141" y="265" width="60" height="43" rx="21.5"></rect>
            <rect id="h11" stroke="#000000" fill="#FFFFFF" transform="translate(107.837785, 314.533003) rotate(-23.000000) translate(-107.837785, -314.533003) " x="77.8377852" y="293.033003" width="60" height="43" rx="21.5"></rect>
            <circle id="h10" stroke="#000000" fill="#FFFFFF" cx="49" cy="338" r="25"></circle>
            <rect id="h10" stroke="#000000" fill="#FFFFFF" x="197" y="150" width="23" height="40" rx="11.5"></rect>
            <rect id="h9" stroke="#000000" fill="#FFFFFF" x="165" y="155" width="27" height="48" rx="13.5"></rect>
            <path d="M424.049398,104.106897 C408.243124,112.945637 392.157983,118.6663 375.793975,121.268886 C351.247962,125.172765 360.559111,118.940815 345.066322,121.268886 C329.573532,123.596956 336.113813,134.130186 316.683344,136.56575 C297.252875,139.001314 276.47863,117.660219 268.87802,121.268886 C265.050159,123.086302 265.415873,129.884033 261.137287,135.500747 C256.8587,141.117462 242.030914,147.691284 238.517555,148.933796 C231.771114,151.319699 223.17055,148.045666 212.715863,139.111699 L186.110509,104.106897 C180.424445,90.3349499 183.054066,79.6326508 193.999373,72 C202.50672,66.0674472 217.057897,61.339494 230.693025,59.2538769 C243.371739,57.314552 255.276141,57.9178747 260.337918,55.34332 C270.843305,50 289.139996,12.0114776 327.951527,4.80147308 C366.763059,-2.40853141 403.781913,0.22831669 410.130132,7.45729131 C416.47835,14.6862659 423.750874,27.572457 436.977095,27.572457 C436.977095,27.572457 431.256144,28.1802477 431.256144,31.6011208 C431.256144,33.8817029 434.611538,35.5972937 441.322325,36.7478932 C426.243935,41.7227344 418.883382,50.7698326 419.240664,63.8891876 C419.597947,77.0085427 421.200858,90.4144459 424.049398,104.106897 Z" id="h4" stroke="#000000" fill="#FFFFFF"></path>
            <path d="M576,117.79397 L575.904163,117.79397 C564.933726,120.11058 555.191335,121.268886 546.676992,121.268886 C533.905478,121.268886 524.071818,114.995357 513.849945,114.995357 C503.628072,114.995357 492.922323,121.268886 468.925079,121.268886 C444.927835,121.268886 426.658527,114.075903 423.520652,100.5 C421.428735,91.4493979 420.002073,79.2457938 419.240664,63.8891876 C422.034097,45.8394849 430.222831,36.8146335 443.806865,36.8146335 C457.390899,36.8146335 501.423331,36.7932477 575.904163,36.7504759" id="Path-2" stroke="#000000" fill="#FFFFFF"></path>
            <rect id="h8" stroke="#000000" fill="#FFFFFF" x="129" y="165" width="31" height="48" rx="15.5"></rect>
            <path d="M419.240664,63.8891876 C405.53901,32.2476941 402.713635,13.7863598 410.764539,8.50518461 C410.764539,8.50518461 422.788873,27.5965055 435.688994,27.5965055 C435.688994,27.5965055 431.256144,28.5121398 431.256144,31.6011208 C431.256144,33.6604415 434.856004,35.398279 442.055725,36.8146335 C435.158207,36.9460011 429.631317,40.1734198 425.475056,46.4968898 C424.00672,48.7308638 422.604523,50.6223036 421.654925,52.7249693 C420.49604,55.2910521 419.691286,59.0124582 419.240664,63.8891876 Z" id="Path-4" stroke="#000000" fill="#FFFFFF"></path>
            <ellipse id="h7" stroke="#000000" fill="#FFFFFF" cx="545" cy="74" rx="25" ry="24"></ellipse>
            <rect id="h6" stroke="#000000" fill="#FFFFFF" x="434" y="50" width="75" height="43" rx="21.5"></rect>
            <path d="M576,36.7504759 L449.477754,36.7478932 C441.410911,37.0934713 435.858611,36.0970104 432.820853,33.7585103 C429.783096,31.4200102 431.16851,29.3579924 436.977095,27.572457 C446.106566,27.9085987 452.758518,27.9085987 456.932951,27.572457 C465.596676,26.8748198 469.26903,25.2372321 477.564319,25.2372321 C491.921203,25.2372321 494.766259,21.6491515 520,20.642931 C529.953537,20.2460238 548.530093,20.2460238 575.72967,20.642931 L576,20.642931" id="h5" stroke="#000000" fill="#FFFFFF"></path>
            <rect id="h3" stroke="#000000" fill="#FFFFFF" transform="translate(346.729214, 75.366795) rotate(-14.000000) translate(-346.729214, -75.366795) " x="297.229214" y="46.8667951" width="99" height="57" rx="28.5"></rect>
            <circle id="h2" stroke="#000000" fill="#FFFFFF" cx="235.5" cy="100.5" r="28.5"></circle>
            <path d="M2.65476267,294.208037 C41.4159607,278.777454 69.1537657,248.42716 85.8681776,203.157155 C110.939795,135.252147 120.020505,133.535063 136.615887,124.26521 C153.211268,114.995357 189.903581,111.453704 206.614911,131.068099 C206.614911,131.068099 199.917582,122.233658 186.522925,104.564776 C181.264344,92.4460799 182.851947,82.2590387 191.285736,74.0036518 C191.285736,74.0036518 148.737537,97.3149247 63.6411405,143.93747 C25.3711204,171.465541 5.0423278,201.679975 2.65476267,234.580771 C0.267197551,267.481567 0.267197551,287.357323 2.65476267,294.208037 Z" id="h1" stroke="#000000" fill="#FFFFFF"></path>
        </g>
    </g>
</svg>