<?xml version="1.0" encoding="UTF-8"?>
<svg width="1478px" height="830px" viewBox="0 0 1478 830" version="1.1" xmlns="http://www.w3.org/2000/svg" xmlns:xlink="http://www.w3.org/1999/xlink">
    <title>YES4ALLB08HR</title>
    <g id="Page-1" stroke="none" stroke-width="1" fill="none" fill-rule="evenodd">
        <g id="YES4ALLB08HR" transform="translate(0.605614, 1.145979)" fill="#FFFFFF" stroke="#000000">
            <path d="M1476.39439,0 L307.394386,0 C200.061053,0 146.394386,54.9352946 146.394386,164.805884 C146.394386,274.676473 146.394386,473.258657 146.394386,760.552435 C146.394386,805.294169 180.356207,827.665035 248.279849,827.665035 C316.203491,827.665035 725.575003,827.665035 1476.39439,827.665035" id="board"></path>
            <path d="M1476.39439,781.854021 L1334.39439,781.854021 C1296.83902,781.854021 1266.39439,751.409384 1266.39439,713.854021 C1266.39439,676.298658 1296.83902,645.854021 1334.39439,645.854021 L1476.39439,645.854021" id="h14"></path>
            <rect id="h13" x="998.894386" y="646.354021" width="209" height="135" rx="67.5"></rect>
            <rect id="h12" x="998.894386" y="646.354021" width="135" height="135" rx="67.5"></rect>
            <rect id="h11" x="825.894386" y="646.354021" width="135" height="135" rx="67.5"></rect>
            <rect id="h10" x="534.894386" y="646.354021" width="252" height="135" rx="67.5"></rect>
            <rect id="h9" x="220.894386" y="646.354021" width="252" height="135" rx="67.5"></rect>
            <rect id="h8" x="220.894386" y="461.354021" width="1187" height="135" rx="67.5"></rect>
            <rect id="h7" x="220.894386" y="461.354021" width="777" height="135" rx="67.5"></rect>
            <rect id="h6" x="220.894386" y="461.354021" width="329" height="135" rx="67.5"></rect>
            <path d="M1476.39439,423.854021 L1334.39439,423.854021 C1296.83902,423.854021 1266.39439,393.409384 1266.39439,355.854021 C1266.39439,318.298658 1296.83902,287.854021 1334.39439,287.854021 L1476.39439,287.854021" id="h5"></path>
            <rect id="h4" x="571.894386" y="209.354021" width="482" height="204" rx="50"></rect>
            <path d="M1476.39439,180.854021 L1334.39439,180.854021 C1296.83902,180.854021 1266.39439,150.409384 1266.39439,112.854021 C1266.39439,75.2986583 1296.83902,44.8540213 1334.39439,44.8540213 L1476.39439,44.8540213" id="h3"></path>
            <path d="M1054.39439,0 L1054.39439,90.8540213 C1054.39439,118.468259 1032.00862,140.854021 1004.39439,140.854021 L621.394386,140.854021 C593.780148,140.854021 571.394386,118.468259 571.394386,90.8540213 L571.394386,0" id="h2"></path>
            <path d="M296.054206,44.7404479 L322.352183,44.9247413 C333.842187,45.0052621 344.400338,49.3633493 352.416731,56.5547737 C360.433124,63.7461982 365.90776,73.7709598 367.230732,85.1848294 L427.619683,606.187048 C429.066337,618.667965 425.317144,630.553688 418.086059,639.680844 C410.854973,648.808 400.141995,655.17659 387.661077,656.623243 C386.947863,656.705911 386.232792,656.771686 385.516465,656.820512 L262.498926,665.205609 C249.963534,666.060044 238.268539,661.752618 229.493782,654.097736 C220.719026,646.442853 214.864509,635.440514 214.010074,622.905122 C213.869179,620.83806 213.869636,618.763788 214.01144,616.696788 L250.342051,87.1251787 C251.164844,75.1317685 256.58223,64.4934638 264.799244,56.8745726 C273.016259,49.2556815 284.032901,44.6562038 296.054206,44.7404479 Z" id="h1" transform="translate(321.785805, 356.614604) rotate(56.000000) translate(-321.785805, -356.614604) "></path>
        </g>
    </g>
</svg>