<?xml version="1.0" encoding="UTF-8"?>
<svg width="658px" height="280px" viewBox="0 0 658 280" version="1.1" xmlns="http://www.w3.org/2000/svg" xmlns:xlink="http://www.w3.org/1999/xlink">
    <title>YYVERTICALEVO</title>
    <g id="Page-1" stroke="none" stroke-width="1" fill="none" fill-rule="evenodd">
        <g id="YYVERTICALEVO" transform="translate(1.235963, 1.258528)" fill="#FFFFFF">
            <path d="M39.5507873,190.428838 C48.1621894,242.865684 66.2548893,269.084107 93.8288871,269.084107 C135.189884,269.084107 189.05588,270.669973 211.764037,269.084107 C234.472195,267.498241 238.7662,258.164828 250.183003,258.164828 C261.599807,258.164828 262.687228,269.084107 279.353757,269.084107 C296.020286,269.084107 303.091174,259.377829 314.588447,259.377829 C326.08572,259.377829 326.569733,269.084107 353.638591,269.084107 C380.707449,269.084107 431.902948,270.653043 459.329754,269.084107 C486.756561,267.515171 492.188121,260.711553 500.000445,260.711553 C507.812768,260.711553 513.831735,271.184871 525.318253,271.184871 C532.975931,271.184871 539.839139,271.184871 545.907877,271.184871 L545.907877,190.428838 L39.5507873,190.428838 Z" id="board" stroke="#000000"></path>
            <path d="M656.764037,277.746531 C613.634256,277.746531 586.075473,277.746531 574.087687,277.746531 C556.106007,277.746531 538.796866,280.981682 516.671485,245.209631 C494.546104,209.437581 484.906483,201.806488 466.193344,200.741472 C447.480205,199.676456 421.539909,200.741472 407.329833,200.741472 C393.119757,200.741472 393.555623,193.371616 380.071993,193.371616 C366.588364,193.371616 363.824244,199.890116 345.264037,200.741472 C326.703831,201.592827 323.247467,193.371616 310.506719,193.371616 C297.765971,193.371616 293.048825,200.741472 283.873251,200.741472 C274.697677,200.741472 265.958805,200.474475 239.259771,200.474475 C212.560738,200.474475 214.611135,193.371616 203.735568,193.371616 C192.860001,193.371616 200.074196,200.474475 169.324371,200.474475 C138.574546,200.474475 134.661605,200.474475 69.2631258,200.474475 C25.6641398,200.474475 2.5764312,183.079062 0,148.288235 L0,37.7566175 C1.12813333,15.4792002 15.0899719,4.34049151 41.8855156,4.34049151 C82.0788313,4.34049151 208.257134,2.7996731 205.673241,2.88724822 C201.940662,3.01375544 200.074373,9.00883756 200.074373,20.8724946 C200.074357,20.8724946 200.074196,26.2484829 200.074196,37.7566175 C200.074196,37.7566175 352.304143,37.7566175 656.764037,37.7566175" id="board" stroke="#000000"></path>
            <path d="M373.05001,95.7203829 C389.026688,95.7203829 392.330035,64.1491573 382.960051,1.00670629 L554.121216,7.27595761e-12 C564.524292,2.61964469 569.72583,16.1435063 569.72583,40.5715847 C569.72583,77.2137023 569.292254,95.7203829 541.764037,95.7203829 C514.235821,95.7203829 349.084994,95.7203829 373.05001,95.7203829 Z" id="h3" stroke="#000000"></path>
            <rect id="h5" stroke="#000000" x="20.2640374" y="67.2414719" width="172" height="44" rx="22"></rect>
            <rect id="h6" stroke="#000000" x="20.2640374" y="134.241472" width="172" height="44" rx="22"></rect>
            <rect id="h11" stroke="#000000" x="69.2640374" y="209.241472" width="172" height="44" rx="22"></rect>
            <rect id="h12" stroke="#000000" x="259.264037" y="209.241472" width="44" height="44" rx="22"></rect>
            <rect id="h13" stroke="#000000" x="321.264037" y="209.241472" width="164" height="44" rx="22"></rect>
            <rect id="h7" stroke="#000000" x="212.264037" y="128.241472" width="91" height="44" rx="22"></rect>
            <rect id="h8" stroke="#000000" x="323.264037" y="132.241472" width="44" height="44" rx="22"></rect>
            <rect id="h9" stroke="#000000" x="391.264037" y="132.241472" width="84" height="44" rx="22"></rect>
            <path d="M656.764037,226.741472 L575.264037,226.741472 C558.971637,226.741472 545.764037,213.533872 545.764037,197.241472 C545.764037,180.949072 558.971637,167.741472 575.264037,167.741472 L656.764037,167.741472" id="h14" stroke="#000000"></path>
            <path d="M656.764037,141.741472 L594.264037,141.741472 C581.837631,141.741472 571.764037,131.667879 571.764037,119.241472 C571.764037,106.815065 581.837631,96.7414719 594.264037,96.7414719 L656.764037,96.7414719" id="h10" stroke="#000000"></path>
            <path d="M361.764037,106.817398 C390.430704,105.422257 397.496042,70.1520267 382.960051,1.00670629 L238.951969,0 C229.17212,1.13742222 224.282196,4.82457472 224.282196,11.0614575 C224.282196,17.2983403 221.557458,17.2983403 216.107983,11.0614575 C205.418792,-2.47417055 200.074196,0.796175145 200.074196,20.8724946 C200.074196,40.948814 200.074196,65.3518379 200.074196,94.0815662 C202.992684,102.572121 208.33728,106.817398 216.107983,106.817398 C227.764037,106.817398 318.764037,108.910109 361.764037,106.817398 Z" id="h2" stroke="#000000"></path>
            <path d="M0,37.7566175 C1.12813333,15.4792002 15.0899719,4.34049151 41.8855156,4.34049151 C82.0788313,4.34049151 208.257134,2.7996731 205.673241,2.88724822 C201.940662,3.01375544 200.074373,9.00883756 200.074373,20.8724946 C200.074357,20.8724946 200.074196,26.2484829 200.074196,37.7566175" id="h1" stroke="#000000"></path>
            <path d="M656.764037,7.27595761e-12 L554.121216,7.27595761e-12 C564.524292,2.61964469 569.72583,16.1435063 569.72583,40.5715847 C569.72583,77.2137023 568.956766,95.7203829 541.764037,95.7203829" id="board" stroke="#000000"></path>
            <path d="M656.764037,1.00670629 L558.854145,1.00670629 C566.813207,6.06889766 570.792738,19.3487745 570.792738,40.8463367 C570.792738,73.0926801 570.792738,96.6836991 541.764037,96.6836991 C541.764037,96.6836991 580.097371,96.3625937 656.764037,95.7203829" id="h4"></path>
        </g>
    </g>
</svg>