<?xml version="1.0" encoding="UTF-8"?>
<svg width="589px" height="246px" viewBox="0 0 589 246" version="1.1" xmlns="http://www.w3.org/2000/svg" xmlns:xlink="http://www.w3.org/1999/xlink">
    <title>YYVERTICALONE</title>
    <g id="Page-1" stroke="none" stroke-width="1" fill="none" fill-rule="evenodd">
        <g id="YYVERTICALONE" transform="translate(1.335697, 1.376685)" fill="#FFFFFF" stroke="#000000">
            <path d="M587.164303,243.902819 C524.613337,243.902819 486.44667,243.902819 472.664303,243.902819 C451.990753,243.902819 460.527712,233.260403 440.596008,233.260403 C420.664303,233.260403 431.209363,243.902819 406.062873,243.902819 C380.916384,243.902819 303.18065,243.902819 284.276847,243.902819 C265.373044,243.902819 274.874696,233.260403 256.25518,233.260403 C237.635665,233.260403 242.654625,243.902819 227.867817,243.902819 C218.009945,243.902819 179.581216,243.902819 112.581629,243.902819 C68.9271844,242.323907 47.0999624,216.620129 47.0999624,166.791485 C47.0999624,166.791485 98.986372,164.341712 202.759191,159.442164 L472.664303,159.442164" id="board"></path>
            <path d="M587.664303,243.902819 C582.433935,243.902819 553.767268,243.902819 501.664303,243.902819 C423.509856,243.902819 468.351635,167.123315 395.845996,167.123315 C323.340358,167.123315 353.649845,167.123315 330.010464,167.123315 C306.371082,167.123315 317.427453,161.091391 301.896237,161.091391 C286.365021,161.091391 287.712887,167.123315 274.234801,167.123315 C260.756716,167.123315 240.672039,167.123315 224.34099,167.123315 C208.009942,167.123315 214.875169,159.442164 202.759191,159.442164 C190.643213,159.442164 191.610532,167.123315 178.982411,167.123315 C170.563663,167.123315 128.277754,167.123315 52.1246821,167.123315 C17.374894,162.797443 0,145.041765 0,113.856282 C0,82.6707984 0.695785042,55.1356076 2.08735513,31.2507094 L217.27493,31.2507094 L217.27493,5.92364639 L587.164303,5.92364639" id="board"></path>
            <rect id="h8" x="311.164303" y="100.123315" width="161" height="42" rx="21"></rect>
            <path d="M587.664303,193.623315 L509.489885,193.623315 C494.854339,193.623315 482.989885,181.758861 482.989885,167.123315 C482.989885,152.487769 494.854339,140.623315 509.489885,140.623315 L587.664303,140.623315" id="h9"></path>
            <rect id="h7" x="210.164303" y="100.123315" width="82" height="45" rx="22"></rect>
            <rect id="h6" x="28.1643033" y="100.123315" width="163" height="45" rx="22"></rect>
            <rect id="h10" x="82.1643033" y="177.123315" width="158" height="45" rx="22"></rect>
            <rect id="h11" x="262.164303" y="177.123315" width="158" height="45" rx="22"></rect>
            <rect id="h5" x="421.164303" y="49.1233151" width="80" height="34" rx="17"></rect>
            <rect id="h4" x="28.1643033" y="40.1233151" width="163" height="45" rx="22"></rect>
            <polyline id="h3" points="587.664303 5.92364639 403.87717 5.92364639 395.845996 31.2507094 587.164303 31.2507094"></polyline>
            <path d="M403.87717,5.92364639 L395.845996,31.2507094 L395.845996,56.4351629 C396.623333,66.7544485 391.356037,71.9140913 380.044109,71.9140913 C368.732182,71.9140913 319.757498,71.9140913 233.120059,71.9140913 C222.55664,71.632564 217.27493,63.913471 217.27493,48.7568124 C217.27493,33.6001537 217.27493,19.3224317 217.27493,5.92364639 L403.87717,5.92364639 Z" id="h2"></path>
            <path d="M217.27493,31.2507094 L2.08735513,31.2507094 C12.1642295,10.4169031 25.8589195,0 43.1714251,0 C60.4839307,0 118.518432,0 217.27493,0 L217.27493,31.2507094 Z" id="h1"></path>
        </g>
    </g>
</svg>