<svg xmlns="http://www.w3.org/2000/svg" width="1024" height="1023" fill="none" viewBox="0 0 1024 1023"><g fill="currentColor" fill-opacity=".87"><path d="M414.575 161.684h201.069V93.279H414.575v68.405ZM414.575 194.85c0 38.878 22.412 74.311 57.45 91.014v228.209h28.719V413.267h28.72v100.806h28.73V285.72c35.038-16.559 57.45-51.992 57.45-90.87h-28.73c0 39.763-32.146 71.997-71.81 71.997-39.654 0-71.799-32.234-71.799-71.997m71.799 0c-15.939 0-28.72 12.816-28.72 28.799 0 15.983 12.781 28.809 28.72 28.809 15.94 0 28.73-12.826 28.73-28.809s-12.79-28.799-28.73-28.799Z"/><path d="m750.46 313.455 47.757-48.607c-14.471-17.454-30.27-33.882-47.417-48.269l-47.747 48.607c-17.477-14.223-36.559-26.324-56.773-36.363a104.394 104.394 0 0 1-32.504 59.754c80.147 38.179 135.675 120.78 135.675 216.918 0 132.47-105.24 239.611-235.378 239.611-130.138 0-235.379-107.141-235.379-239.611 0-97.04 56.588-180.278 137.95-217.964-17.97-14.961-30.362-35.471-35.303-58.339-100.485 50.074-169.908 154.744-169.908 276.303 0 170.126 135.181 308.072 302.64 308.072 167.458 0 302.64-137.946 302.64-308.072 0-72.573-24.888-139.32-66.253-192.04Z"/></g></svg>