<?xml version="1.0" encoding="UTF-8"?>
<svg width="1024px" height="1023px" viewBox="0 0 1024 1023" version="1.1" xmlns="http://www.w3.org/2000/svg" xmlns:xlink="http://www.w3.org/1999/xlink">
    <!-- Generator: Sketch 52.2 (67145) - http://www.bohemiancoding.com/sketch -->
    <title>Group 8</title>
    <desc>Created with Sketch.</desc>
    <defs>
        <polygon id="path-1" points="0.00102814575 0.600312663 1023.38646 0.600312663 1023.38646 1022.02974 0.00102814575 1022.02974"></polygon>
        <polygon id="path-3" points="0 1021.92713 1024 1021.92713 1024 0 0 0"></polygon>
    </defs>
    <g id="Page-1" stroke="none" stroke-width="1" fill="none" fill-rule="evenodd">
        <g id="Group-8">
            <g id="Group-3">
                <mask id="mask-2" fill="white">
                    <use xlink:href="#path-1"></use>
                </mask>
                <g id="Clip-2"></g>
                <path d="M1023.38646,511.317593 C1023.38646,793.372189 794.295027,1022.03487 511.688605,1022.03487 C229.092464,1022.03487 0.00102814575,793.372189 0.00102814575,511.317593 C0.00102814575,229.252736 229.092464,0.600312663 511.688605,0.600312663 C794.295027,0.600312663 1023.38646,229.252736 1023.38646,511.317593" id="Fill-1" fill="#4E7352" mask="url(#mask-2)"></path>
            </g>
            <mask id="mask-4" fill="white">
                <use xlink:href="#path-3"></use>
            </mask>
            <g id="Clip-5"></g>
            <polygon id="Fill-4" fill="#FFFFFF" mask="url(#mask-4)" points="414.574899 161.684211 615.643725 161.684211 615.643725 93.2793522 414.574899 93.2793522"></polygon>
            <path d="M414.574899,194.850202 C414.574899,233.72837 436.986539,269.160987 472.0246,285.864199 L472.0246,514.072874 L500.744322,514.072874 L500.744322,413.267339 L529.464044,413.267339 L529.464044,514.072874 L558.194023,514.072874 L558.194023,285.720206 C593.232084,269.160987 615.643725,233.72837 615.643725,194.850202 L586.913746,194.850202 C586.913746,234.6129 554.768171,266.84681 515.104183,266.84681 C475.450453,266.84681 443.304878,234.6129 443.304878,194.850202 M515.104183,194.850202 C499.164737,194.850202 486.384461,207.665599 486.384461,223.648845 C486.384461,239.632092 499.164737,252.457774 515.104183,252.457774 C531.043629,252.457774 543.834162,239.632092 543.834162,223.648845 C543.834162,207.665599 531.043629,194.850202 515.104183,194.850202" id="Fill-6" fill="#FFFFFF" mask="url(#mask-4)"></path>
            <path d="M750.459946,312.455137 L798.216989,263.84784 C783.745781,246.394333 767.946846,229.966297 750.799597,215.578947 L703.052846,264.186245 C685.576239,249.96297 666.494006,237.862419 646.279603,227.823064 C642.399343,250.916658 630.902658,271.918292 613.775995,287.577225 C693.923429,325.755488 749.451284,408.35713 749.451284,504.494981 C749.451284,636.965249 644.210817,744.106397 514.072874,744.106397 C383.934932,744.106397 278.694465,636.965249 278.694465,504.494981 C278.694465,407.454716 335.282444,324.217283 416.644389,286.531245 C398.673743,271.569632 386.281614,251.060224 381.34123,228.192233 C280.855883,278.265954 211.433198,382.935718 211.433198,504.494981 C211.433198,674.620522 346.614449,812.566802 514.072874,812.566802 C681.5313,812.566802 816.712551,674.620522 816.712551,504.494981 C816.712551,431.92244 791.825367,365.174571 750.459946,312.455137" id="Fill-7" fill="#FFFFFF" mask="url(#mask-4)"></path>
        </g>
    </g>
</svg>